<svg width="380" height="148" viewBox="0 0 380 148" fill="none" xmlns="http://www.w3.org/2000/svg">
<rect width="380" height="148" rx="12.4084" fill="white"/>
<rect width="380" height="148" rx="12.4084" fill="#F4F8FD"/>
<path d="M161.702 124.524H159.188L159.175 123.284H161.37C161.74 123.284 162.054 123.23 162.312 123.122C162.574 123.009 162.773 122.849 162.908 122.641C163.044 122.428 163.111 122.173 163.111 121.875C163.111 121.545 163.048 121.277 162.922 121.069C162.795 120.861 162.601 120.71 162.339 120.615C162.081 120.52 161.752 120.473 161.35 120.473H159.703V128.982H158.003V119.118H161.35C161.892 119.118 162.375 119.17 162.8 119.273C163.229 119.377 163.592 119.54 163.89 119.761C164.193 119.978 164.421 120.254 164.575 120.588C164.733 120.922 164.812 121.32 164.812 121.78C164.812 122.187 164.715 122.559 164.521 122.898C164.326 123.232 164.04 123.506 163.66 123.718C163.281 123.93 162.809 124.057 162.244 124.097L161.702 124.524ZM161.628 128.982H158.653L159.419 127.634H161.628C162.011 127.634 162.332 127.571 162.59 127.444C162.847 127.313 163.039 127.135 163.166 126.909C163.296 126.679 163.362 126.41 163.362 126.103C163.362 125.782 163.306 125.504 163.193 125.27C163.08 125.03 162.901 124.847 162.657 124.721C162.413 124.59 162.095 124.524 161.702 124.524H159.791L159.805 123.284H162.291L162.678 123.752C163.22 123.77 163.665 123.89 164.012 124.111C164.365 124.332 164.627 124.619 164.798 124.971C164.97 125.324 165.056 125.703 165.056 126.11C165.056 126.738 164.918 127.264 164.643 127.688C164.372 128.113 163.981 128.436 163.47 128.657C162.96 128.874 162.346 128.982 161.628 128.982ZM168.369 121.652V128.982H166.736V121.652H168.369ZM173.152 121.652L169.853 126.062H167.99L167.773 124.585H169.135L171.113 121.652H173.152ZM171.242 128.982L169.033 125.784L170.32 124.856L173.389 128.982H171.242ZM179.203 121.652V122.952H175.625V121.652H179.203ZM180.483 121.652V128.982H178.85V121.652H180.483ZM175.225 121.652H176.838L176.642 125.276C176.614 125.814 176.56 126.288 176.479 126.699C176.402 127.106 176.298 127.456 176.167 127.749C176.036 128.038 175.876 128.273 175.686 128.454C175.497 128.635 175.275 128.768 175.022 128.854C174.769 128.94 174.485 128.982 174.169 128.982H173.66L173.654 127.641L173.911 127.621C174.078 127.607 174.223 127.564 174.345 127.492C174.467 127.415 174.571 127.307 174.656 127.167C174.747 127.027 174.819 126.846 174.873 126.625C174.932 126.403 174.977 126.141 175.009 125.839C175.045 125.536 175.072 125.184 175.09 124.782L175.225 121.652ZM182.285 128.169C182.285 127.916 182.371 127.704 182.543 127.533C182.714 127.356 182.947 127.268 183.241 127.268C183.539 127.268 183.771 127.356 183.939 127.533C184.11 127.704 184.196 127.916 184.196 128.169C184.196 128.422 184.11 128.635 183.939 128.806C183.771 128.978 183.539 129.064 183.241 129.064C182.947 129.064 182.714 128.978 182.543 128.806C182.371 128.635 182.285 128.422 182.285 128.169Z" fill="#27C58B"/>
<rect x="189.707" y="116.973" width="35.6805" height="13.8758" rx="6.93788" fill="#27C58B" fill-opacity="0.68"/>
<g filter="url(#filter0_ddd_57_16400)">
<rect x="205.564" y="114" width="19.8225" height="19.8225" rx="9.91126" fill="#27C58B"/>
</g>
<g clip-path="url(#clip0_57_16400)">
<path d="M171.3 34.1142C171.3 26.0474 171.3 22.0061 173.807 19.507C176.306 17 180.347 17 188.414 17H190.186C198.252 17 202.286 17 204.793 19.507C207.3 22.0141 207.3 26.0474 207.3 34.1142V35.8857C207.3 43.9526 207.3 47.9859 204.793 50.4929C202.286 53 198.252 53 190.186 53H188.414C180.347 53 176.314 53 173.807 50.4929C171.3 47.9859 171.3 43.9526 171.3 35.8857V34.1142Z" fill="#0077FF"/>
<path d="M190.832 46.6744C197.318 46.6744 202.576 41.4163 202.576 34.9302C202.576 28.444 197.318 23.1859 190.832 23.1859C184.345 23.1859 179.087 28.444 179.087 34.9302C179.087 41.4163 184.345 46.6744 190.832 46.6744Z" fill="#00D9ED"/>
<path fill-rule="evenodd" clip-rule="evenodd" d="M201.766 21.7559V24.0099H203.988C205.254 24.0099 205.902 25.5283 205.024 26.4378L201.98 29.6171C201.711 29.9018 201.331 30.0599 200.944 30.0599H198.065L195.083 33.2708C195.297 33.7848 195.423 34.3544 195.423 34.9475C195.423 37.328 193.494 39.2576 191.113 39.2576C188.733 39.2576 186.803 37.328 186.803 34.9475C186.803 32.567 188.733 30.6373 191.113 30.6373C191.517 30.6373 191.912 30.6926 192.284 30.7954L195.708 27.11V24.7454C195.708 24.3499 195.874 23.9703 196.159 23.7014L199.338 20.7041C200.256 19.842 201.758 20.4905 201.758 21.748L201.766 21.7559Z" fill="white"/>
</g>
<path d="M91.9482 69.6652H89.9619V68.2678H91.5439C92.0068 68.2678 92.3818 68.1974 92.6689 68.0568C92.9561 67.9103 93.167 67.7053 93.3018 67.4416C93.4365 67.1779 93.5039 66.8674 93.5039 66.5099C93.5039 66.217 93.4277 65.9474 93.2754 65.7014C93.1289 65.4553 92.9004 65.259 92.5898 65.1125C92.2793 64.9601 91.8838 64.884 91.4033 64.884C91.04 64.884 90.709 64.9484 90.4102 65.0773C90.1113 65.2062 89.874 65.3879 89.6982 65.6223C89.5225 65.8508 89.4346 66.1291 89.4346 66.4572H86.8066C86.8066 65.8947 86.9268 65.3908 87.167 64.9455C87.4131 64.4943 87.7471 64.1135 88.1689 63.8029C88.5967 63.4865 89.0889 63.2463 89.6455 63.0822C90.2021 62.9182 90.7881 62.8361 91.4033 62.8361C92.124 62.8361 92.7744 62.9152 93.3545 63.0734C93.9346 63.2258 94.4326 63.4543 94.8486 63.759C95.2646 64.0637 95.584 64.4416 95.8066 64.8928C96.0293 65.3439 96.1406 65.8683 96.1406 66.466C96.1406 66.9055 96.041 67.3185 95.8418 67.7053C95.6426 68.092 95.3584 68.4318 94.9893 68.7248C94.6201 69.0178 94.1777 69.2492 93.6621 69.4191C93.1465 69.5832 92.5752 69.6652 91.9482 69.6652ZM89.9619 68.9006H91.9482C92.6455 68.9006 93.2637 68.9738 93.8027 69.1203C94.3477 69.2668 94.8076 69.4807 95.1826 69.7619C95.5635 70.0432 95.8506 70.3918 96.0439 70.8078C96.2432 71.218 96.3428 71.6896 96.3428 72.2228C96.3428 72.8205 96.2197 73.3508 95.9736 73.8137C95.7334 74.2766 95.3906 74.6691 94.9453 74.9914C94.5059 75.3137 93.9844 75.5568 93.3809 75.7209C92.7832 75.8849 92.124 75.967 91.4033 75.967C90.8291 75.967 90.2578 75.8967 89.6895 75.756C89.1211 75.6096 88.6055 75.3869 88.1426 75.0881C87.6797 74.7892 87.3105 74.4055 87.0352 73.9367C86.7598 73.468 86.6221 72.9055 86.6221 72.2492H89.2676C89.2676 72.5598 89.3584 72.8439 89.54 73.1017C89.7217 73.3537 89.9736 73.5558 90.2959 73.7082C90.6182 73.8547 90.9873 73.9279 91.4033 73.9279C91.8896 73.9279 92.3027 73.8517 92.6426 73.6994C92.9883 73.5471 93.249 73.3391 93.4248 73.0754C93.6064 72.8058 93.6973 72.5099 93.6973 72.1877C93.6973 71.842 93.6504 71.549 93.5566 71.3088C93.4629 71.0685 93.3252 70.8723 93.1436 70.7199C92.9619 70.5617 92.7363 70.4474 92.4668 70.3771C92.2031 70.3068 91.8955 70.2717 91.5439 70.2717H89.9619V68.9006ZM103.269 73.6555V69.4191C103.269 69.1144 103.219 68.8537 103.119 68.6369C103.02 68.4142 102.864 68.2414 102.653 68.1183C102.448 67.9953 102.182 67.9338 101.854 67.9338C101.572 67.9338 101.329 67.9836 101.124 68.0832C100.919 68.1769 100.761 68.3146 100.649 68.4963C100.538 68.6721 100.482 68.8801 100.482 69.1203H97.9512C97.9512 68.716 98.0449 68.3322 98.2324 67.9689C98.4199 67.6057 98.6924 67.2863 99.0498 67.0109C99.4072 66.7297 99.832 66.5099 100.324 66.3517C100.822 66.1935 101.379 66.1144 101.994 66.1144C102.732 66.1144 103.389 66.2375 103.963 66.4836C104.537 66.7297 104.988 67.0988 105.316 67.591C105.65 68.0832 105.817 68.6984 105.817 69.4367V73.506C105.817 74.0275 105.85 74.4553 105.914 74.7892C105.979 75.1174 106.072 75.4045 106.195 75.6506V75.8H103.638C103.515 75.5422 103.421 75.2199 103.356 74.8332C103.298 74.4406 103.269 74.048 103.269 73.6555ZM103.603 70.008L103.62 71.4406H102.205C101.871 71.4406 101.581 71.4787 101.335 71.5549C101.089 71.631 100.887 71.7394 100.729 71.8801C100.57 72.0148 100.453 72.173 100.377 72.3547C100.307 72.5363 100.271 72.7355 100.271 72.9523C100.271 73.1691 100.321 73.3654 100.421 73.5412C100.521 73.7111 100.664 73.8459 100.852 73.9455C101.039 74.0392 101.259 74.0861 101.511 74.0861C101.892 74.0861 102.223 74.0099 102.504 73.8576C102.785 73.7053 103.002 73.5178 103.154 73.2951C103.312 73.0724 103.395 72.8615 103.4 72.6623L104.068 73.7346C103.975 73.9748 103.846 74.2238 103.682 74.4816C103.523 74.7394 103.321 74.9826 103.075 75.2111C102.829 75.4338 102.533 75.6183 102.188 75.7648C101.842 75.9055 101.432 75.9758 100.957 75.9758C100.354 75.9758 99.8057 75.8557 99.3135 75.6154C98.8271 75.3693 98.4404 75.0324 98.1533 74.6047C97.8721 74.1711 97.7314 73.6789 97.7314 73.1281C97.7314 72.6301 97.8252 72.1877 98.0127 71.801C98.2002 71.4142 98.4756 71.0891 98.8389 70.8254C99.208 70.5558 99.668 70.3537 100.219 70.2189C100.77 70.0783 101.408 70.008 102.135 70.008H103.603ZM122.508 73.8312L122.332 78.6213H119.977V75.8H118.913V73.8312H122.508ZM107.733 66.2902H110.265V73.8224H112.901V66.2902H115.441V73.8224H118.069V66.2902H120.601V75.8H107.733V66.2902ZM126.533 72.2668L129.724 66.2902H132.255V75.8H129.724V69.8146L126.533 75.8H124.002V66.2902H126.533V72.2668ZM139.049 66.2902V75.8H136.509V66.2902H139.049ZM142.107 66.2902V68.2502H133.494V66.2902H142.107ZM148.392 73.6555V69.4191C148.392 69.1144 148.342 68.8537 148.242 68.6369C148.143 68.4142 147.987 68.2414 147.776 68.1183C147.571 67.9953 147.305 67.9338 146.977 67.9338C146.695 67.9338 146.452 67.9836 146.247 68.0832C146.042 68.1769 145.884 68.3146 145.772 68.4963C145.661 68.6721 145.605 68.8801 145.605 69.1203H143.074C143.074 68.716 143.168 68.3322 143.355 67.9689C143.543 67.6057 143.815 67.2863 144.173 67.0109C144.53 66.7297 144.955 66.5099 145.447 66.3517C145.945 66.1935 146.502 66.1144 147.117 66.1144C147.855 66.1144 148.512 66.2375 149.086 66.4836C149.66 66.7297 150.111 67.0988 150.439 67.591C150.773 68.0832 150.94 68.6984 150.94 69.4367V73.506C150.94 74.0275 150.973 74.4553 151.037 74.7892C151.102 75.1174 151.195 75.4045 151.318 75.6506V75.8H148.761C148.638 75.5422 148.544 75.2199 148.479 74.8332C148.421 74.4406 148.392 74.048 148.392 73.6555ZM148.726 70.008L148.743 71.4406H147.328C146.994 71.4406 146.704 71.4787 146.458 71.5549C146.212 71.631 146.01 71.7394 145.852 71.8801C145.693 72.0148 145.576 72.173 145.5 72.3547C145.43 72.5363 145.395 72.7355 145.395 72.9523C145.395 73.1691 145.444 73.3654 145.544 73.5412C145.644 73.7111 145.787 73.8459 145.975 73.9455C146.162 74.0392 146.382 74.0861 146.634 74.0861C147.015 74.0861 147.346 74.0099 147.627 73.8576C147.908 73.7053 148.125 73.5178 148.277 73.2951C148.436 73.0724 148.518 72.8615 148.523 72.6623L149.191 73.7346C149.098 73.9748 148.969 74.2238 148.805 74.4816C148.646 74.7394 148.444 74.9826 148.198 75.2111C147.952 75.4338 147.656 75.6183 147.311 75.7648C146.965 75.9055 146.555 75.9758 146.08 75.9758C145.477 75.9758 144.929 75.8557 144.437 75.6154C143.95 75.3693 143.563 75.0324 143.276 74.6047C142.995 74.1711 142.854 73.6789 142.854 73.1281C142.854 72.6301 142.948 72.1877 143.136 71.801C143.323 71.4142 143.599 71.0891 143.962 70.8254C144.331 70.5558 144.791 70.3537 145.342 70.2189C145.893 70.0783 146.531 70.008 147.258 70.008H148.726ZM156.97 71.1418V70.9572C156.97 70.2599 157.069 69.6183 157.269 69.0324C157.468 68.4406 157.758 67.9279 158.139 67.4943C158.52 67.0607 158.988 66.7238 159.545 66.4836C160.102 66.2375 160.74 66.1144 161.461 66.1144C162.182 66.1144 162.823 66.2375 163.386 66.4836C163.948 66.7238 164.42 67.0607 164.801 67.4943C165.188 67.9279 165.48 68.4406 165.68 69.0324C165.879 69.6183 165.979 70.2599 165.979 70.9572V71.1418C165.979 71.8332 165.879 72.4748 165.68 73.0666C165.48 73.6525 165.188 74.1652 164.801 74.6047C164.42 75.0383 163.951 75.3752 163.395 75.6154C162.838 75.8557 162.199 75.9758 161.479 75.9758C160.758 75.9758 160.116 75.8557 159.554 75.6154C158.997 75.3752 158.525 75.0383 158.139 74.6047C157.758 74.1652 157.468 73.6525 157.269 73.0666C157.069 72.4748 156.97 71.8332 156.97 71.1418ZM159.501 70.9572V71.1418C159.501 71.5402 159.536 71.9123 159.606 72.258C159.677 72.6037 159.788 72.9084 159.94 73.1721C160.099 73.4299 160.304 73.632 160.556 73.7785C160.808 73.925 161.115 73.9982 161.479 73.9982C161.83 73.9982 162.132 73.925 162.384 73.7785C162.636 73.632 162.838 73.4299 162.99 73.1721C163.143 72.9084 163.254 72.6037 163.324 72.258C163.4 71.9123 163.438 71.5402 163.438 71.1418V70.9572C163.438 70.5705 163.4 70.2072 163.324 69.8674C163.254 69.5217 163.14 69.217 162.981 68.9533C162.829 68.6838 162.627 68.4728 162.375 68.3205C162.123 68.1682 161.818 68.092 161.461 68.092C161.104 68.092 160.799 68.1682 160.547 68.3205C160.301 68.4728 160.099 68.6838 159.94 68.9533C159.788 69.217 159.677 69.5217 159.606 69.8674C159.536 70.2072 159.501 70.5705 159.501 70.9572ZM172.131 66.2902V75.8H169.591V66.2902H172.131ZM175.189 66.2902V68.2502H166.576V66.2902H175.189ZM184.893 73.9982C185.203 73.9982 185.479 73.9396 185.719 73.8224C185.959 73.6994 186.146 73.5295 186.281 73.3127C186.422 73.09 186.495 72.8293 186.501 72.5305H188.883C188.877 73.1984 188.698 73.7932 188.347 74.3146C187.995 74.8303 187.523 75.2375 186.932 75.5363C186.34 75.8293 185.678 75.9758 184.945 75.9758C184.207 75.9758 183.562 75.8527 183.012 75.6066C182.467 75.3605 182.013 75.0207 181.649 74.5871C181.286 74.1476 181.014 73.6379 180.832 73.0578C180.65 72.4719 180.56 71.8449 180.56 71.1769V70.9221C180.56 70.2482 180.65 69.6213 180.832 69.0412C181.014 68.4553 181.286 67.9455 181.649 67.5119C182.013 67.0724 182.467 66.7297 183.012 66.4836C183.557 66.2375 184.195 66.1144 184.928 66.1144C185.707 66.1144 186.39 66.2639 186.976 66.5627C187.567 66.8615 188.03 67.2892 188.364 67.8459C188.704 68.3967 188.877 69.05 188.883 69.8058H186.501C186.495 69.4894 186.428 69.2023 186.299 68.9445C186.176 68.6867 185.994 68.4816 185.754 68.3293C185.52 68.1711 185.229 68.092 184.884 68.092C184.515 68.092 184.213 68.1711 183.979 68.3293C183.744 68.4816 183.562 68.6926 183.434 68.9621C183.305 69.2258 183.214 69.5275 183.161 69.8674C183.114 70.2014 183.091 70.5529 183.091 70.9221V71.1769C183.091 71.5461 183.114 71.9006 183.161 72.2404C183.208 72.5803 183.296 72.882 183.425 73.1457C183.56 73.4094 183.744 73.6174 183.979 73.7697C184.213 73.9221 184.518 73.9982 184.893 73.9982ZM193.049 66.2902V75.8H190.518V66.2902H193.049ZM199.228 66.2902L195.132 72.2404H192.601L192.293 69.9025H193.972L196.02 66.2902H199.228ZM196.134 75.8L193.796 71.7834L196.002 70.5617L199.526 75.8H196.134ZM206.874 66.2902V68.2766H202.198V66.2902H206.874ZM208.729 66.2902V75.8H206.197V66.2902H208.729ZM201.565 66.2902H204.053L203.798 71.0891C203.763 71.7746 203.689 72.3781 203.578 72.8996C203.467 73.4211 203.317 73.8664 203.13 74.2355C202.948 74.6047 202.729 74.9064 202.471 75.1408C202.219 75.3693 201.923 75.5363 201.583 75.6418C201.249 75.7473 200.88 75.8 200.476 75.8H199.702L199.676 73.8049L200.001 73.7697C200.188 73.7521 200.353 73.6994 200.493 73.6115C200.64 73.5178 200.763 73.3859 200.862 73.216C200.968 73.0402 201.056 72.8205 201.126 72.5568C201.196 72.2873 201.252 71.9709 201.293 71.6076C201.34 71.2443 201.372 70.8254 201.39 70.3508L201.565 66.2902ZM213.211 72.2668L216.401 66.2902H218.933V75.8H216.401V69.8146L213.211 75.8H210.68V66.2902H213.211V72.2668ZM223.582 66.2902V75.8H221.051V66.2902H223.582ZM229.761 66.2902L225.665 72.2404H223.134L222.826 69.9025H224.505L226.553 66.2902H229.761ZM226.667 75.8L224.329 71.7834L226.535 70.5617L230.06 75.8H226.667ZM233.531 72.2668L236.722 66.2902H239.253V75.8H236.722V69.8146L233.531 75.8H231V66.2902H233.531V72.2668ZM245.941 71.8273H242.962L242.944 70.1662H245.405C245.733 70.1662 246 70.134 246.205 70.0695C246.41 69.9992 246.56 69.8967 246.653 69.7619C246.753 69.6213 246.803 69.4514 246.803 69.2521C246.803 69.0764 246.771 68.9269 246.706 68.8039C246.647 68.675 246.557 68.5695 246.434 68.4875C246.311 68.4055 246.155 68.3469 245.968 68.3117C245.786 68.2707 245.572 68.2502 245.326 68.2502H243.902V75.8H241.371V66.2902H245.326C245.947 66.2902 246.504 66.3459 246.996 66.4572C247.488 66.5627 247.907 66.7238 248.253 66.9406C248.604 67.1574 248.871 67.4328 249.053 67.7668C249.24 68.0949 249.334 68.4846 249.334 68.9357C249.334 69.2287 249.267 69.5041 249.132 69.7619C249.003 70.0197 248.81 70.2482 248.552 70.4474C248.294 70.6467 247.975 70.8107 247.594 70.9396C247.219 71.0627 246.785 71.1389 246.293 71.1682L245.941 71.8273ZM245.941 75.8H242.338L243.208 73.84H245.941C246.252 73.84 246.507 73.8019 246.706 73.7258C246.905 73.6496 247.052 73.5383 247.146 73.3918C247.245 73.2394 247.295 73.0578 247.295 72.8469C247.295 72.6418 247.251 72.4631 247.163 72.3107C247.075 72.1584 246.932 72.0412 246.732 71.9592C246.539 71.8713 246.275 71.8273 245.941 71.8273H243.577L243.595 70.1662H246.284L246.899 70.8342C247.567 70.8752 248.118 71.0012 248.552 71.2121C248.985 71.423 249.305 71.6926 249.51 72.0207C249.721 72.343 249.826 72.6974 249.826 73.0842C249.826 73.5353 249.741 73.9308 249.571 74.2707C249.401 74.6105 249.149 74.8947 248.815 75.1232C248.487 75.3459 248.083 75.5158 247.603 75.633C247.122 75.7443 246.568 75.8 245.941 75.8ZM256.515 73.6555V69.4191C256.515 69.1144 256.465 68.8537 256.365 68.6369C256.266 68.4142 256.11 68.2414 255.899 68.1183C255.694 67.9953 255.428 67.9338 255.1 67.9338C254.818 67.9338 254.575 67.9836 254.37 68.0832C254.165 68.1769 254.007 68.3146 253.896 68.4963C253.784 68.6721 253.729 68.8801 253.729 69.1203H251.197C251.197 68.716 251.291 68.3322 251.479 67.9689C251.666 67.6057 251.938 67.2863 252.296 67.0109C252.653 66.7297 253.078 66.5099 253.57 66.3517C254.068 66.1935 254.625 66.1144 255.24 66.1144C255.979 66.1144 256.635 66.2375 257.209 66.4836C257.783 66.7297 258.234 67.0988 258.562 67.591C258.896 68.0832 259.063 68.6984 259.063 69.4367V73.506C259.063 74.0275 259.096 74.4553 259.16 74.7892C259.225 75.1174 259.318 75.4045 259.441 75.6506V75.8H256.884C256.761 75.5422 256.667 75.2199 256.603 74.8332C256.544 74.4406 256.515 74.048 256.515 73.6555ZM256.849 70.008L256.866 71.4406H255.451C255.117 71.4406 254.827 71.4787 254.581 71.5549C254.335 71.631 254.133 71.7394 253.975 71.8801C253.816 72.0148 253.699 72.173 253.623 72.3547C253.553 72.5363 253.518 72.7355 253.518 72.9523C253.518 73.1691 253.567 73.3654 253.667 73.5412C253.767 73.7111 253.91 73.8459 254.098 73.9455C254.285 74.0392 254.505 74.0861 254.757 74.0861C255.138 74.0861 255.469 74.0099 255.75 73.8576C256.031 73.7053 256.248 73.5178 256.4 73.2951C256.559 73.0724 256.641 72.8615 256.646 72.6623L257.314 73.7346C257.221 73.9748 257.092 74.2238 256.928 74.4816C256.77 74.7394 256.567 74.9826 256.321 75.2111C256.075 75.4338 255.779 75.6183 255.434 75.7648C255.088 75.9055 254.678 75.9758 254.203 75.9758C253.6 75.9758 253.052 75.8557 252.56 75.6154C252.073 75.3693 251.687 75.0324 251.399 74.6047C251.118 74.1711 250.978 73.6789 250.978 73.1281C250.978 72.6301 251.071 72.1877 251.259 71.801C251.446 71.4142 251.722 71.0891 252.085 70.8254C252.454 70.5558 252.914 70.3537 253.465 70.2189C254.016 70.0783 254.654 70.008 255.381 70.008H256.849ZM267.527 70.131V72.0998H262.693V70.131H267.527ZM263.537 66.2902V75.8H261.006V66.2902H263.537ZM269.241 66.2902V75.8H266.701V66.2902H269.241ZM273.732 72.2668L276.923 66.2902H279.454V75.8H276.923V69.8146L273.732 75.8H271.201V66.2902H273.732V72.2668ZM283.453 71.0539H286.02L283.374 75.8H280.816L283.453 71.0539ZM285.158 66.2902H289.333V75.8H286.802V68.2502H285.158C284.812 68.2502 284.525 68.3146 284.297 68.4435C284.068 68.5666 283.898 68.7277 283.787 68.9269C283.682 69.1203 283.629 69.3195 283.629 69.5246C283.629 69.7238 283.682 69.9172 283.787 70.1047C283.893 70.2922 284.057 70.4474 284.279 70.5705C284.502 70.6935 284.78 70.7551 285.114 70.7551H287.742V72.4777H285.114C284.487 72.4777 283.925 72.4016 283.427 72.2492C282.935 72.0969 282.513 71.8859 282.161 71.6164C281.815 71.341 281.549 71.0217 281.361 70.6584C281.18 70.2892 281.089 69.8849 281.089 69.4455C281.089 68.9885 281.183 68.5695 281.37 68.1887C281.558 67.8078 281.827 67.4738 282.179 67.1867C282.53 66.8996 282.955 66.6799 283.453 66.5275C283.957 66.3693 284.525 66.2902 285.158 66.2902ZM159.308 94.8273H156.328L156.311 93.1662H158.771C159.1 93.1662 159.366 93.134 159.571 93.0695C159.776 92.9992 159.926 92.8967 160.02 92.7619C160.119 92.6213 160.169 92.4514 160.169 92.2521C160.169 92.0764 160.137 91.9269 160.072 91.8039C160.014 91.675 159.923 91.5695 159.8 91.4875C159.677 91.4055 159.521 91.3469 159.334 91.3117C159.152 91.2707 158.938 91.2502 158.692 91.2502H157.269V98.8H154.737V89.2902H158.692C159.313 89.2902 159.87 89.3459 160.362 89.4572C160.854 89.5627 161.273 89.7238 161.619 89.9406C161.971 90.1574 162.237 90.4328 162.419 90.7668C162.606 91.0949 162.7 91.4846 162.7 91.9357C162.7 92.2287 162.633 92.5041 162.498 92.7619C162.369 93.0197 162.176 93.2482 161.918 93.4474C161.66 93.6467 161.341 93.8107 160.96 93.9396C160.585 94.0627 160.151 94.1389 159.659 94.1682L159.308 94.8273ZM159.308 98.8H155.704L156.574 96.84H159.308C159.618 96.84 159.873 96.8019 160.072 96.7258C160.271 96.6496 160.418 96.5383 160.512 96.3918C160.611 96.2394 160.661 96.0578 160.661 95.8469C160.661 95.6418 160.617 95.4631 160.529 95.3107C160.441 95.1584 160.298 95.0412 160.099 94.9592C159.905 94.8713 159.642 94.8273 159.308 94.8273H156.943L156.961 93.1662H159.65L160.266 93.8342C160.934 93.8752 161.484 94.0012 161.918 94.2121C162.352 94.423 162.671 94.6926 162.876 95.0207C163.087 95.343 163.192 95.6974 163.192 96.0842C163.192 96.5353 163.107 96.9308 162.938 97.2707C162.768 97.6105 162.516 97.8947 162.182 98.1232C161.854 98.3459 161.449 98.5158 160.969 98.633C160.488 98.7443 159.935 98.8 159.308 98.8ZM174.003 96.1281L177.018 86.0031H179.953L175.497 98.8H173.563L174.003 96.1281ZM171.226 86.0031L174.231 96.1281L174.688 98.8H172.737L168.308 86.0031H171.226ZM183.785 86.0031V98.8H181.148V86.0031H183.785ZM191.449 86.0031L186.378 92.3224L183.451 95.4689L182.977 92.9728L184.954 90.2658L188.215 86.0031H191.449ZM188.452 98.8L184.682 92.8849L186.633 91.2502L191.572 98.8H188.452ZM202.277 88.1916L198.797 98.8H195.993L200.748 86.0031H202.532L202.277 88.1916ZM205.169 98.8L201.68 88.1916L201.398 86.0031H203.2L207.981 98.8H205.169ZM205.011 94.0363V96.1017H198.252V94.0363H205.011ZM214.626 96.7258V85.3H217.175V98.8H214.881L214.626 96.7258ZM208.614 94.1594V93.9748C208.614 93.2482 208.696 92.5891 208.86 91.9973C209.024 91.3996 209.265 90.8869 209.581 90.4592C209.897 90.0314 210.287 89.7004 210.75 89.466C211.213 89.2316 211.74 89.1144 212.332 89.1144C212.889 89.1144 213.375 89.2316 213.791 89.466C214.213 89.7004 214.57 90.0344 214.863 90.468C215.162 90.8957 215.402 91.4025 215.584 91.9885C215.766 92.5685 215.897 93.2043 215.979 93.8957V94.3C215.897 94.9621 215.766 95.5773 215.584 96.1457C215.402 96.7141 215.162 97.2121 214.863 97.6398C214.57 98.0617 214.213 98.3898 213.791 98.6242C213.369 98.8586 212.877 98.9758 212.314 98.9758C211.723 98.9758 211.195 98.8557 210.732 98.6154C210.275 98.3752 209.889 98.0383 209.572 97.6047C209.262 97.1711 209.024 96.6613 208.86 96.0754C208.696 95.4894 208.614 94.8508 208.614 94.1594ZM211.146 93.9748V94.1594C211.146 94.5519 211.175 94.9182 211.233 95.258C211.298 95.5978 211.4 95.8996 211.541 96.1633C211.688 96.4211 211.875 96.6232 212.104 96.7697C212.338 96.9103 212.622 96.9807 212.956 96.9807C213.39 96.9807 213.747 96.884 214.028 96.6906C214.31 96.4914 214.523 96.2189 214.67 95.8732C214.822 95.5275 214.91 95.1291 214.934 94.6779V93.5266C214.916 93.1574 214.863 92.8264 214.775 92.5334C214.693 92.2346 214.57 91.9797 214.406 91.7687C214.248 91.5578 214.049 91.3937 213.809 91.2766C213.574 91.1594 213.296 91.1008 212.974 91.1008C212.646 91.1008 212.364 91.1769 212.13 91.3293C211.896 91.4758 211.705 91.6779 211.559 91.9357C211.418 92.1935 211.312 92.4982 211.242 92.8498C211.178 93.1955 211.146 93.5705 211.146 93.9748ZM224.294 96.1721C224.294 95.9904 224.241 95.8264 224.136 95.6799C224.03 95.5334 223.834 95.3986 223.547 95.2756C223.266 95.1467 222.858 95.0295 222.325 94.924C221.845 94.8185 221.396 94.6867 220.98 94.5285C220.57 94.3644 220.213 94.1682 219.908 93.9396C219.609 93.7111 219.375 93.4416 219.205 93.131C219.035 92.8146 218.95 92.4543 218.95 92.05C218.95 91.6516 219.035 91.2766 219.205 90.925C219.381 90.5734 219.63 90.2629 219.952 89.9933C220.28 89.718 220.679 89.5041 221.147 89.3517C221.622 89.1935 222.155 89.1144 222.747 89.1144C223.573 89.1144 224.282 89.2463 224.874 89.5099C225.472 89.7736 225.929 90.1369 226.245 90.5998C226.567 91.0568 226.729 91.5783 226.729 92.1642H224.197C224.197 91.9182 224.145 91.6984 224.039 91.5051C223.939 91.3058 223.781 91.1506 223.564 91.0392C223.354 90.9221 223.078 90.8635 222.738 90.8635C222.457 90.8635 222.214 90.9133 222.009 91.0129C221.804 91.1066 221.646 91.2355 221.534 91.3996C221.429 91.5578 221.376 91.7336 221.376 91.9269C221.376 92.0734 221.405 92.2053 221.464 92.3224C221.528 92.4338 221.631 92.5363 221.771 92.6301C221.912 92.7238 222.094 92.8117 222.316 92.8937C222.545 92.9699 222.826 93.0402 223.16 93.1047C223.846 93.2453 224.458 93.4299 224.997 93.6584C225.536 93.881 225.964 94.1857 226.28 94.5724C226.597 94.9533 226.755 95.4543 226.755 96.0754C226.755 96.4973 226.661 96.884 226.474 97.2355C226.286 97.5871 226.017 97.8947 225.665 98.1584C225.313 98.4162 224.892 98.6183 224.399 98.7648C223.913 98.9055 223.365 98.9758 222.756 98.9758C221.871 98.9758 221.121 98.8176 220.506 98.5012C219.896 98.1848 219.434 97.7834 219.117 97.2971C218.807 96.8049 218.651 96.301 218.651 95.7853H221.051C221.062 96.131 221.15 96.4094 221.314 96.6203C221.484 96.8312 221.698 96.9836 221.956 97.0773C222.22 97.1711 222.504 97.218 222.809 97.218C223.137 97.218 223.409 97.174 223.626 97.0861C223.843 96.9924 224.007 96.8693 224.118 96.717C224.235 96.5588 224.294 96.3771 224.294 96.1721Z" fill="#333333"/>
<defs>
<filter id="filter0_ddd_57_16400" x="200.609" y="110.035" width="29.7338" height="29.7338" filterUnits="userSpaceOnUse" color-interpolation-filters="sRGB">
<feFlood flood-opacity="0" result="BackgroundImageFix"/>
<feColorMatrix in="SourceAlpha" type="matrix" values="0 0 0 0 0 0 0 0 0 0 0 0 0 0 0 0 0 0 127 0" result="hardAlpha"/>
<feOffset dy="0.991126"/>
<feGaussianBlur stdDeviation="2.47782"/>
<feComposite in2="hardAlpha" operator="out"/>
<feColorMatrix type="matrix" values="0 0 0 0 0 0 0 0 0 0 0 0 0 0 0 0 0 0 0.12 0"/>
<feBlend mode="normal" in2="BackgroundImageFix" result="effect1_dropShadow_57_16400"/>
<feColorMatrix in="SourceAlpha" type="matrix" values="0 0 0 0 0 0 0 0 0 0 0 0 0 0 0 0 0 0 127 0" result="hardAlpha"/>
<feMorphology radius="1.98225" operator="erode" in="SourceAlpha" result="effect2_dropShadow_57_16400"/>
<feOffset dy="2.97338"/>
<feGaussianBlur stdDeviation="0.495563"/>
<feComposite in2="hardAlpha" operator="out"/>
<feColorMatrix type="matrix" values="0 0 0 0 0 0 0 0 0 0 0 0 0 0 0 0 0 0 0.2 0"/>
<feBlend mode="normal" in2="effect1_dropShadow_57_16400" result="effect2_dropShadow_57_16400"/>
<feColorMatrix in="SourceAlpha" type="matrix" values="0 0 0 0 0 0 0 0 0 0 0 0 0 0 0 0 0 0 127 0" result="hardAlpha"/>
<feOffset dy="1.98225"/>
<feGaussianBlur stdDeviation="0.991126"/>
<feComposite in2="hardAlpha" operator="out"/>
<feColorMatrix type="matrix" values="0 0 0 0 0 0 0 0 0 0 0 0 0 0 0 0 0 0 0.14 0"/>
<feBlend mode="normal" in2="effect2_dropShadow_57_16400" result="effect3_dropShadow_57_16400"/>
<feBlend mode="normal" in="SourceGraphic" in2="effect3_dropShadow_57_16400" result="shape"/>
</filter>
<clipPath id="clip0_57_16400">
<rect width="40" height="36.8" fill="white" transform="translate(170.5 16)"/>
</clipPath>
</defs>
</svg>
