<svg width="654" height="258" viewBox="0 0 654 258" fill="none" xmlns="http://www.w3.org/2000/svg">
<rect width="654" height="258" rx="18.6125" fill="white"/>
<rect width="654" height="258" rx="18.6125" fill="white"/>
<path d="M287 37.2313C287 29.2784 293.447 22.8313 301.4 22.8313H354.6C362.553 22.8313 369 29.2784 369 37.2313V86.4313C369 94.3842 362.553 100.831 354.6 100.831H301.4C293.447 100.831 287 94.3842 287 86.4313V37.2313Z" fill="#438EDC" fill-opacity="0.1"/>
<g clip-path="url(#clip0_49_4883)">
<g clip-path="url(#clip1_49_4883)">
<path d="M331.135 39.9571L332.903 41.002C336.279 42.9312 337.485 47.2717 335.556 50.6477L318.435 80.3082C316.505 83.6841 312.165 84.8899 308.789 82.9607L307.021 81.9158C303.645 79.9866 302.439 75.6461 304.368 72.2701L321.489 42.5293C323.418 39.0729 327.759 37.8672 331.135 39.9571Z" fill="#FBBD04"/>
<path d="M323.096 40.7608L324.865 39.7158C328.24 37.7867 332.581 38.9924 334.51 42.3684L351.631 72.0289C353.56 75.4048 352.355 79.7454 348.979 81.6745L347.21 82.7195C343.834 84.6486 339.494 83.4429 337.565 80.0669L320.444 50.4868C318.595 47.1109 319.72 42.7703 323.096 40.7608Z" fill="#438EDC"/>
<path d="M312.084 83.3625C316.612 83.3625 320.282 79.6918 320.282 75.1637C320.282 70.6356 316.612 66.9648 312.084 66.9648C307.556 66.9648 303.885 70.6356 303.885 75.1637C303.885 79.6918 307.556 83.3625 312.084 83.3625Z" fill="#34A952"/>
</g>
</g>
<path d="M180.172 132.629H177.193V130.533H179.566C180.26 130.533 180.823 130.427 181.253 130.217C181.684 129.997 182 129.689 182.203 129.294C182.405 128.898 182.506 128.432 182.506 127.896C182.506 127.457 182.392 127.052 182.163 126.683C181.943 126.314 181.601 126.02 181.135 125.8C180.669 125.572 180.076 125.457 179.355 125.457C178.81 125.457 178.313 125.554 177.865 125.747C177.417 125.941 177.061 126.213 176.797 126.565C176.534 126.907 176.402 127.325 176.402 127.817H172.46C172.46 126.973 172.64 126.218 173 125.55C173.37 124.873 173.871 124.302 174.503 123.836C175.145 123.361 175.883 123.001 176.718 122.755C177.553 122.509 178.432 122.385 179.355 122.385C180.436 122.385 181.412 122.504 182.282 122.741C183.152 122.97 183.899 123.313 184.523 123.77C185.147 124.227 185.626 124.794 185.96 125.47C186.294 126.147 186.461 126.934 186.461 127.83C186.461 128.49 186.312 129.109 186.013 129.689C185.714 130.269 185.288 130.779 184.734 131.219C184.18 131.658 183.517 132.005 182.743 132.26C181.97 132.506 181.113 132.629 180.172 132.629ZM177.193 131.482H180.172C181.218 131.482 182.146 131.592 182.954 131.812C183.771 132.031 184.461 132.352 185.024 132.774C185.595 133.196 186.026 133.719 186.316 134.343C186.615 134.958 186.764 135.666 186.764 136.466C186.764 137.362 186.58 138.157 186.21 138.852C185.85 139.546 185.336 140.135 184.668 140.618C184.009 141.102 183.227 141.467 182.321 141.713C181.425 141.959 180.436 142.082 179.355 142.082C178.494 142.082 177.637 141.976 176.784 141.765C175.932 141.546 175.158 141.212 174.464 140.763C173.77 140.315 173.216 139.74 172.803 139.036C172.39 138.333 172.183 137.49 172.183 136.505H176.151C176.151 136.971 176.288 137.397 176.56 137.784C176.833 138.162 177.21 138.465 177.694 138.694C178.177 138.913 178.731 139.023 179.355 139.023C180.084 139.023 180.704 138.909 181.214 138.68C181.732 138.452 182.124 138.14 182.387 137.744C182.66 137.34 182.796 136.896 182.796 136.413C182.796 135.894 182.726 135.455 182.585 135.094C182.444 134.734 182.238 134.44 181.965 134.211C181.693 133.974 181.354 133.802 180.95 133.697C180.555 133.592 180.093 133.539 179.566 133.539H177.193V131.482ZM197.153 138.615V132.26C197.153 131.803 197.078 131.412 196.929 131.087C196.779 130.753 196.546 130.493 196.23 130.309C195.922 130.124 195.522 130.032 195.03 130.032C194.608 130.032 194.244 130.107 193.936 130.256C193.628 130.397 193.391 130.603 193.224 130.876C193.057 131.139 192.974 131.451 192.974 131.812H189.177C189.177 131.205 189.317 130.63 189.599 130.085C189.88 129.54 190.289 129.061 190.825 128.648C191.361 128.226 191.998 127.896 192.736 127.659C193.483 127.422 194.318 127.303 195.241 127.303C196.349 127.303 197.333 127.488 198.194 127.857C199.056 128.226 199.732 128.78 200.225 129.518C200.726 130.256 200.976 131.179 200.976 132.286V138.39C200.976 139.173 201.024 139.814 201.121 140.315C201.218 140.807 201.358 141.238 201.543 141.607V141.831H197.707C197.522 141.445 197.381 140.961 197.285 140.381C197.197 139.792 197.153 139.203 197.153 138.615ZM197.654 133.143L197.68 135.292H195.558C195.057 135.292 194.622 135.349 194.252 135.464C193.883 135.578 193.58 135.74 193.343 135.951C193.105 136.154 192.93 136.391 192.815 136.663C192.71 136.936 192.657 137.235 192.657 137.56C192.657 137.885 192.732 138.179 192.881 138.443C193.031 138.698 193.246 138.9 193.527 139.05C193.809 139.19 194.138 139.26 194.516 139.26C195.087 139.26 195.584 139.146 196.006 138.918C196.428 138.689 196.753 138.408 196.981 138.074C197.219 137.74 197.342 137.424 197.351 137.125L198.353 138.733C198.212 139.094 198.019 139.467 197.772 139.854C197.535 140.24 197.232 140.605 196.863 140.948C196.494 141.282 196.05 141.559 195.531 141.779C195.013 141.99 194.397 142.095 193.686 142.095C192.78 142.095 191.958 141.915 191.22 141.554C190.491 141.185 189.911 140.68 189.48 140.038C189.058 139.388 188.847 138.65 188.847 137.823C188.847 137.076 188.988 136.413 189.269 135.833C189.55 135.253 189.963 134.765 190.508 134.369C191.062 133.965 191.752 133.662 192.578 133.46C193.404 133.249 194.362 133.143 195.452 133.143H197.654ZM226.012 138.878L225.748 146.063H222.215V141.831H220.62V138.878H226.012ZM203.85 127.567H207.647V138.865H211.602V127.567H215.412V138.865H219.354V127.567H223.151V141.831H203.85V127.567ZM232.05 136.531L236.835 127.567H240.632V141.831H236.835V132.853L232.05 141.831H228.253V127.567H232.05V136.531ZM250.823 127.567V141.831H247.013V127.567H250.823ZM255.411 127.567V130.507H242.491V127.567H255.411ZM264.837 138.615V132.26C264.837 131.803 264.763 131.412 264.613 131.087C264.464 130.753 264.231 130.493 263.915 130.309C263.607 130.124 263.207 130.032 262.715 130.032C262.293 130.032 261.928 130.107 261.621 130.256C261.313 130.397 261.076 130.603 260.909 130.876C260.742 131.139 260.658 131.451 260.658 131.812H256.861C256.861 131.205 257.002 130.63 257.283 130.085C257.564 129.54 257.973 129.061 258.509 128.648C259.045 128.226 259.683 127.896 260.421 127.659C261.168 127.422 262.003 127.303 262.926 127.303C264.033 127.303 265.018 127.488 265.879 127.857C266.74 128.226 267.417 128.78 267.909 129.518C268.41 130.256 268.661 131.179 268.661 132.286V138.39C268.661 139.173 268.709 139.814 268.806 140.315C268.902 140.807 269.043 141.238 269.228 141.607V141.831H265.391C265.207 141.445 265.066 140.961 264.969 140.381C264.881 139.792 264.837 139.203 264.837 138.615ZM265.338 133.143L265.365 135.292H263.242C262.741 135.292 262.306 135.349 261.937 135.464C261.568 135.578 261.265 135.74 261.027 135.951C260.79 136.154 260.614 136.391 260.5 136.663C260.395 136.936 260.342 137.235 260.342 137.56C260.342 137.885 260.417 138.179 260.566 138.443C260.715 138.698 260.931 138.9 261.212 139.05C261.493 139.19 261.823 139.26 262.201 139.26C262.772 139.26 263.269 139.146 263.69 138.918C264.112 138.689 264.438 138.408 264.666 138.074C264.903 137.74 265.026 137.424 265.035 137.125L266.037 138.733C265.896 139.094 265.703 139.467 265.457 139.854C265.22 140.24 264.917 140.605 264.547 140.948C264.178 141.282 263.734 141.559 263.216 141.779C262.697 141.99 262.082 142.095 261.37 142.095C260.465 142.095 259.643 141.915 258.905 141.554C258.175 141.185 257.595 140.68 257.165 140.038C256.743 139.388 256.532 138.65 256.532 137.823C256.532 137.076 256.672 136.413 256.954 135.833C257.235 135.253 257.648 134.765 258.193 134.369C258.747 133.965 259.437 133.662 260.263 133.46C261.089 133.249 262.047 133.143 263.137 133.143H265.338ZM277.705 134.844V134.567C277.705 133.521 277.854 132.559 278.153 131.68C278.452 130.792 278.887 130.023 279.458 129.373C280.029 128.722 280.732 128.217 281.567 127.857C282.402 127.488 283.36 127.303 284.441 127.303C285.522 127.303 286.485 127.488 287.329 127.857C288.172 128.217 288.88 128.722 289.451 129.373C290.031 130.023 290.471 130.792 290.77 131.68C291.068 132.559 291.218 133.521 291.218 134.567V134.844C291.218 135.881 291.068 136.844 290.77 137.731C290.471 138.61 290.031 139.379 289.451 140.038C288.88 140.689 288.177 141.194 287.342 141.554C286.507 141.915 285.549 142.095 284.468 142.095C283.387 142.095 282.424 141.915 281.581 141.554C280.746 141.194 280.038 140.689 279.458 140.038C278.887 139.379 278.452 138.61 278.153 137.731C277.854 136.844 277.705 135.881 277.705 134.844ZM281.501 134.567V134.844C281.501 135.442 281.554 136 281.66 136.518C281.765 137.037 281.932 137.494 282.161 137.889C282.398 138.276 282.706 138.579 283.083 138.799C283.461 139.019 283.923 139.129 284.468 139.129C284.995 139.129 285.448 139.019 285.826 138.799C286.204 138.579 286.507 138.276 286.735 137.889C286.964 137.494 287.131 137.037 287.236 136.518C287.351 136 287.408 135.442 287.408 134.844V134.567C287.408 133.987 287.351 133.442 287.236 132.932C287.131 132.414 286.959 131.957 286.722 131.561C286.494 131.157 286.19 130.841 285.812 130.612C285.435 130.384 284.978 130.269 284.441 130.269C283.905 130.269 283.448 130.384 283.07 130.612C282.701 130.841 282.398 131.157 282.161 131.561C281.932 131.957 281.765 132.414 281.66 132.932C281.554 133.442 281.501 133.987 281.501 134.567ZM300.446 127.567V141.831H296.636V127.567H300.446ZM305.034 127.567V130.507H292.114V127.567H305.034ZM319.589 139.129C320.055 139.129 320.468 139.041 320.828 138.865C321.188 138.68 321.47 138.426 321.672 138.1C321.883 137.766 321.993 137.375 322.001 136.927H325.574C325.565 137.929 325.297 138.821 324.77 139.603C324.243 140.377 323.535 140.988 322.647 141.436C321.76 141.875 320.767 142.095 319.668 142.095C318.561 142.095 317.594 141.91 316.768 141.541C315.95 141.172 315.269 140.662 314.724 140.012C314.179 139.353 313.771 138.588 313.498 137.718C313.226 136.839 313.089 135.899 313.089 134.897V134.514C313.089 133.504 313.226 132.563 313.498 131.693C313.771 130.814 314.179 130.05 314.724 129.399C315.269 128.74 315.95 128.226 316.768 127.857C317.585 127.488 318.543 127.303 319.642 127.303C320.811 127.303 321.834 127.527 322.713 127.975C323.601 128.424 324.295 129.065 324.796 129.9C325.306 130.726 325.565 131.706 325.574 132.84H322.001C321.993 132.365 321.892 131.935 321.698 131.548C321.514 131.161 321.241 130.854 320.881 130.625C320.529 130.388 320.094 130.269 319.576 130.269C319.022 130.269 318.569 130.388 318.218 130.625C317.866 130.854 317.594 131.17 317.4 131.574C317.207 131.97 317.071 132.423 316.992 132.932C316.921 133.433 316.886 133.961 316.886 134.514V134.897C316.886 135.45 316.921 135.982 316.992 136.492C317.062 137.002 317.194 137.454 317.387 137.85C317.589 138.245 317.866 138.557 318.218 138.786C318.569 139.014 319.026 139.129 319.589 139.129ZM331.823 127.567V141.831H328.026V127.567H331.823ZM341.091 127.567L334.948 136.492H331.151L330.689 132.985H333.208L336.279 127.567H341.091ZM336.451 141.831L332.944 135.806L336.253 133.974L341.54 141.831H336.451ZM352.561 127.567V130.546H345.547V127.567H352.561ZM355.343 127.567V141.831H351.546V127.567H355.343ZM344.598 127.567H348.329L347.947 134.765C347.894 135.793 347.784 136.698 347.617 137.481C347.45 138.263 347.226 138.931 346.945 139.485C346.672 140.038 346.343 140.491 345.956 140.843C345.578 141.185 345.134 141.436 344.625 141.594C344.124 141.752 343.57 141.831 342.963 141.831H341.803L341.764 138.839L342.251 138.786C342.533 138.76 342.779 138.68 342.99 138.549C343.209 138.408 343.394 138.21 343.543 137.955C343.702 137.692 343.833 137.362 343.939 136.967C344.044 136.562 344.128 136.088 344.189 135.543C344.26 134.998 344.308 134.369 344.334 133.657L344.598 127.567ZM362.066 136.531L366.852 127.567H370.649V141.831H366.852V132.853L362.066 141.831H358.27V127.567H362.066V136.531ZM377.623 127.567V141.831H373.826V127.567H377.623ZM386.891 127.567L380.748 136.492H376.951L376.489 132.985H379.007L382.079 127.567H386.891ZM382.25 141.831L378.744 135.806L382.053 133.974L387.339 141.831H382.25ZM392.547 136.531L397.333 127.567H401.129V141.831H397.333V132.853L392.547 141.831H388.75V127.567H392.547V136.531ZM411.162 135.872H406.693L406.667 133.381H410.358C410.85 133.381 411.25 133.332 411.558 133.236C411.865 133.13 412.089 132.976 412.23 132.774C412.379 132.563 412.454 132.308 412.454 132.01C412.454 131.746 412.406 131.522 412.309 131.337C412.221 131.144 412.085 130.986 411.9 130.863C411.716 130.74 411.483 130.652 411.202 130.599C410.929 130.537 410.608 130.507 410.239 130.507H408.104V141.831H404.307V127.567H410.239C411.171 127.567 412.006 127.65 412.744 127.817C413.482 127.975 414.111 128.217 414.629 128.542C415.157 128.867 415.557 129.281 415.829 129.781C416.11 130.274 416.251 130.858 416.251 131.535C416.251 131.974 416.15 132.387 415.948 132.774C415.754 133.161 415.464 133.504 415.078 133.802C414.691 134.101 414.212 134.347 413.641 134.541C413.078 134.725 412.428 134.84 411.689 134.884L411.162 135.872ZM411.162 141.831H405.757L407.062 138.891H411.162C411.628 138.891 412.01 138.834 412.309 138.72C412.608 138.606 412.828 138.439 412.968 138.219C413.118 137.99 413.192 137.718 413.192 137.402C413.192 137.094 413.126 136.826 412.995 136.597C412.863 136.369 412.647 136.193 412.349 136.07C412.059 135.938 411.663 135.872 411.162 135.872H407.616L407.642 133.381H411.676L412.599 134.383C413.601 134.444 414.427 134.633 415.078 134.949C415.728 135.266 416.207 135.67 416.515 136.162C416.831 136.646 416.989 137.177 416.989 137.758C416.989 138.434 416.862 139.028 416.607 139.537C416.352 140.047 415.974 140.473 415.473 140.816C414.981 141.15 414.375 141.405 413.654 141.581C412.933 141.748 412.103 141.831 411.162 141.831ZM427.022 138.615V132.26C427.022 131.803 426.947 131.412 426.798 131.087C426.648 130.753 426.416 130.493 426.099 130.309C425.792 130.124 425.392 130.032 424.899 130.032C424.478 130.032 424.113 130.107 423.805 130.256C423.498 130.397 423.26 130.603 423.093 130.876C422.926 131.139 422.843 131.451 422.843 131.812H419.046C419.046 131.205 419.187 130.63 419.468 130.085C419.749 129.54 420.158 129.061 420.694 128.648C421.23 128.226 421.867 127.896 422.605 127.659C423.353 127.422 424.188 127.303 425.11 127.303C426.218 127.303 427.202 127.488 428.063 127.857C428.925 128.226 429.602 128.78 430.094 129.518C430.595 130.256 430.845 131.179 430.845 132.286V138.39C430.845 139.173 430.894 139.814 430.99 140.315C431.087 140.807 431.228 141.238 431.412 141.607V141.831H427.576C427.391 141.445 427.25 140.961 427.154 140.381C427.066 139.792 427.022 139.203 427.022 138.615ZM427.523 133.143L427.549 135.292H425.427C424.926 135.292 424.491 135.349 424.122 135.464C423.752 135.578 423.449 135.74 423.212 135.951C422.975 136.154 422.799 136.391 422.685 136.663C422.579 136.936 422.526 137.235 422.526 137.56C422.526 137.885 422.601 138.179 422.75 138.443C422.9 138.698 423.115 138.9 423.396 139.05C423.678 139.19 424.007 139.26 424.385 139.26C424.957 139.26 425.453 139.146 425.875 138.918C426.297 138.689 426.622 138.408 426.851 138.074C427.088 137.74 427.211 137.424 427.22 137.125L428.222 138.733C428.081 139.094 427.888 139.467 427.642 139.854C427.404 140.24 427.101 140.605 426.732 140.948C426.363 141.282 425.919 141.559 425.4 141.779C424.882 141.99 424.267 142.095 423.555 142.095C422.649 142.095 421.828 141.915 421.089 141.554C420.36 141.185 419.78 140.68 419.349 140.038C418.927 139.388 418.716 138.65 418.716 137.823C418.716 137.076 418.857 136.413 419.138 135.833C419.419 135.253 419.833 134.765 420.377 134.369C420.931 133.965 421.621 133.662 422.447 133.46C423.273 133.249 424.231 133.143 425.321 133.143H427.523ZM443.541 133.328V136.281H436.29V133.328H443.541ZM437.556 127.567V141.831H433.759V127.567H437.556ZM446.112 127.567V141.831H442.302V127.567H446.112ZM452.849 136.531L457.634 127.567H461.431V141.831H457.634V132.853L452.849 141.831H449.052V127.567H452.849V136.531ZM467.43 134.712H471.279L467.311 141.831H463.475L467.43 134.712ZM469.987 127.567H476.25V141.831H472.453V130.507H469.987C469.469 130.507 469.038 130.603 468.695 130.797C468.353 130.981 468.098 131.223 467.931 131.522C467.772 131.812 467.693 132.111 467.693 132.418C467.693 132.717 467.772 133.007 467.931 133.288C468.089 133.57 468.335 133.802 468.669 133.987C469.003 134.172 469.42 134.264 469.921 134.264H473.863V136.848H469.921C468.981 136.848 468.137 136.734 467.39 136.505C466.652 136.277 466.019 135.96 465.492 135.556C464.973 135.143 464.573 134.664 464.292 134.119C464.02 133.565 463.883 132.959 463.883 132.3C463.883 131.614 464.024 130.986 464.305 130.414C464.586 129.843 464.991 129.342 465.518 128.911C466.045 128.481 466.683 128.151 467.43 127.923C468.186 127.685 469.038 127.567 469.987 127.567ZM223.349 170.872H218.879L218.853 168.381H222.544C223.037 168.381 223.437 168.332 223.744 168.236C224.052 168.13 224.276 167.976 224.417 167.774C224.566 167.563 224.641 167.308 224.641 167.01C224.641 166.746 224.592 166.522 224.496 166.337C224.408 166.144 224.271 165.986 224.087 165.863C223.902 165.74 223.669 165.652 223.388 165.599C223.116 165.537 222.795 165.507 222.426 165.507H220.29V176.831H216.493V162.567H222.426C223.357 162.567 224.192 162.65 224.931 162.817C225.669 162.975 226.297 163.217 226.816 163.542C227.343 163.867 227.743 164.281 228.016 164.781C228.297 165.274 228.438 165.858 228.438 166.535C228.438 166.974 228.336 167.387 228.134 167.774C227.941 168.161 227.651 168.504 227.264 168.802C226.877 169.101 226.398 169.347 225.827 169.541C225.265 169.725 224.614 169.84 223.876 169.884L223.349 170.872ZM223.349 176.831H217.943L219.249 173.891H223.349C223.814 173.891 224.197 173.834 224.496 173.72C224.794 173.606 225.014 173.439 225.155 173.219C225.304 172.99 225.379 172.718 225.379 172.402C225.379 172.094 225.313 171.826 225.181 171.597C225.049 171.369 224.834 171.193 224.535 171.07C224.245 170.938 223.85 170.872 223.349 170.872H219.802L219.829 168.381H223.863L224.786 169.383C225.788 169.444 226.614 169.633 227.264 169.949C227.915 170.266 228.394 170.67 228.701 171.162C229.018 171.646 229.176 172.177 229.176 172.758C229.176 173.434 229.048 174.028 228.793 174.537C228.539 175.047 228.161 175.473 227.66 175.816C227.167 176.15 226.561 176.405 225.84 176.581C225.12 176.748 224.289 176.831 223.349 176.831ZM253.684 166.799V174.406C253.385 174.766 252.924 175.157 252.3 175.579C251.676 175.992 250.872 176.348 249.887 176.647C248.903 176.946 247.712 177.095 246.314 177.095C245.075 177.095 243.946 176.893 242.926 176.489C241.907 176.075 241.028 175.473 240.29 174.682C239.56 173.891 238.998 172.925 238.602 171.782C238.207 170.631 238.009 169.317 238.009 167.84V166.64C238.009 165.164 238.198 163.85 238.576 162.698C238.962 161.547 239.512 160.576 240.224 159.785C240.936 158.994 241.784 158.392 242.768 157.979C243.752 157.566 244.847 157.359 246.051 157.359C247.721 157.359 249.092 157.632 250.164 158.177C251.236 158.713 252.054 159.46 252.616 160.418C253.188 161.367 253.539 162.457 253.671 163.687H249.834C249.738 163.037 249.553 162.47 249.281 161.987C249.008 161.503 248.617 161.125 248.107 160.853C247.606 160.58 246.956 160.444 246.156 160.444C245.497 160.444 244.908 160.58 244.39 160.853C243.88 161.116 243.449 161.508 243.098 162.026C242.746 162.545 242.478 163.186 242.293 163.951C242.109 164.716 242.017 165.603 242.017 166.614V167.84C242.017 168.842 242.113 169.73 242.307 170.503C242.5 171.268 242.786 171.914 243.164 172.441C243.55 172.96 244.025 173.351 244.587 173.615C245.15 173.878 245.805 174.01 246.552 174.01C247.176 174.01 247.694 173.957 248.107 173.852C248.529 173.746 248.868 173.619 249.123 173.469C249.386 173.311 249.588 173.162 249.729 173.021V169.62H246.117V166.799H253.684ZM256.031 169.844V169.567C256.031 168.521 256.18 167.559 256.479 166.68C256.778 165.792 257.213 165.023 257.784 164.373C258.355 163.722 259.059 163.217 259.894 162.857C260.729 162.488 261.687 162.303 262.768 162.303C263.849 162.303 264.811 162.488 265.655 162.857C266.499 163.217 267.206 163.722 267.777 164.373C268.357 165.023 268.797 165.792 269.096 166.68C269.395 167.559 269.544 168.521 269.544 169.567V169.844C269.544 170.881 269.395 171.844 269.096 172.731C268.797 173.61 268.357 174.379 267.777 175.038C267.206 175.689 266.503 176.194 265.668 176.554C264.833 176.915 263.875 177.095 262.794 177.095C261.713 177.095 260.75 176.915 259.907 176.554C259.072 176.194 258.364 175.689 257.784 175.038C257.213 174.379 256.778 173.61 256.479 172.731C256.18 171.844 256.031 170.881 256.031 169.844ZM259.828 169.567V169.844C259.828 170.442 259.88 171 259.986 171.518C260.091 172.037 260.258 172.494 260.487 172.889C260.724 173.276 261.032 173.579 261.41 173.799C261.788 174.019 262.249 174.129 262.794 174.129C263.321 174.129 263.774 174.019 264.152 173.799C264.53 173.579 264.833 173.276 265.062 172.889C265.29 172.494 265.457 172.037 265.562 171.518C265.677 171 265.734 170.442 265.734 169.844V169.567C265.734 168.987 265.677 168.442 265.562 167.932C265.457 167.414 265.286 166.957 265.048 166.561C264.82 166.157 264.517 165.841 264.139 165.612C263.761 165.384 263.304 165.269 262.768 165.269C262.231 165.269 261.774 165.384 261.396 165.612C261.027 165.841 260.724 166.157 260.487 166.561C260.258 166.957 260.091 167.414 259.986 167.932C259.88 168.442 259.828 168.987 259.828 169.567ZM271.271 169.844V169.567C271.271 168.521 271.42 167.559 271.719 166.68C272.018 165.792 272.453 165.023 273.024 164.373C273.596 163.722 274.299 163.217 275.134 162.857C275.969 162.488 276.927 162.303 278.008 162.303C279.089 162.303 280.051 162.488 280.895 162.857C281.739 163.217 282.446 163.722 283.018 164.373C283.598 165.023 284.037 165.792 284.336 166.68C284.635 167.559 284.784 168.521 284.784 169.567V169.844C284.784 170.881 284.635 171.844 284.336 172.731C284.037 173.61 283.598 174.379 283.018 175.038C282.446 175.689 281.743 176.194 280.908 176.554C280.073 176.915 279.115 177.095 278.034 177.095C276.953 177.095 275.991 176.915 275.147 176.554C274.312 176.194 273.604 175.689 273.024 175.038C272.453 174.379 272.018 173.61 271.719 172.731C271.42 171.844 271.271 170.881 271.271 169.844ZM275.068 169.567V169.844C275.068 170.442 275.121 171 275.226 171.518C275.332 172.037 275.499 172.494 275.727 172.889C275.964 173.276 276.272 173.579 276.65 173.799C277.028 174.019 277.489 174.129 278.034 174.129C278.562 174.129 279.014 174.019 279.392 173.799C279.77 173.579 280.073 173.276 280.302 172.889C280.53 172.494 280.697 172.037 280.803 171.518C280.917 171 280.974 170.442 280.974 169.844V169.567C280.974 168.987 280.917 168.442 280.803 167.932C280.697 167.414 280.526 166.957 280.289 166.561C280.06 166.157 279.757 165.841 279.379 165.612C279.001 165.384 278.544 165.269 278.008 165.269C277.472 165.269 277.015 165.384 276.637 165.612C276.268 165.841 275.964 166.157 275.727 166.561C275.499 166.957 275.332 167.414 275.226 167.932C275.121 168.442 275.068 168.987 275.068 169.567ZM296.148 162.567H299.589V176.357C299.589 177.657 299.299 178.76 298.719 179.666C298.148 180.58 297.348 181.27 296.32 181.736C295.292 182.21 294.096 182.448 292.734 182.448C292.136 182.448 291.503 182.368 290.835 182.21C290.176 182.052 289.543 181.806 288.937 181.472C288.339 181.138 287.838 180.716 287.434 180.206L289.108 177.965C289.548 178.475 290.058 178.87 290.638 179.152C291.218 179.442 291.859 179.587 292.562 179.587C293.248 179.587 293.828 179.459 294.303 179.204C294.777 178.958 295.142 178.594 295.397 178.11C295.652 177.635 295.779 177.06 295.779 176.383V165.863L296.148 162.567ZM286.551 169.87V169.594C286.551 168.504 286.683 167.515 286.946 166.627C287.219 165.731 287.601 164.962 288.093 164.32C288.594 163.678 289.201 163.182 289.913 162.83C290.625 162.479 291.429 162.303 292.325 162.303C293.274 162.303 294.07 162.479 294.711 162.83C295.353 163.182 295.88 163.683 296.293 164.333C296.707 164.975 297.027 165.735 297.256 166.614C297.493 167.484 297.678 168.438 297.81 169.475V170.081C297.678 171.074 297.48 171.997 297.216 172.85C296.953 173.702 296.605 174.449 296.175 175.091C295.744 175.724 295.208 176.216 294.566 176.568C293.934 176.919 293.178 177.095 292.299 177.095C291.42 177.095 290.625 176.915 289.913 176.554C289.209 176.194 288.607 175.689 288.106 175.038C287.605 174.388 287.219 173.623 286.946 172.744C286.683 171.865 286.551 170.907 286.551 169.87ZM290.348 169.594V169.87C290.348 170.459 290.405 171.009 290.519 171.518C290.633 172.028 290.809 172.481 291.046 172.876C291.292 173.263 291.596 173.566 291.956 173.786C292.325 173.997 292.76 174.102 293.261 174.102C293.956 174.102 294.522 173.957 294.962 173.667C295.401 173.368 295.731 172.96 295.951 172.441C296.17 171.923 296.298 171.325 296.333 170.648V168.921C296.315 168.367 296.241 167.871 296.109 167.431C295.977 166.983 295.792 166.601 295.555 166.284C295.318 165.968 295.01 165.722 294.632 165.546C294.254 165.37 293.806 165.282 293.288 165.282C292.787 165.282 292.352 165.397 291.982 165.625C291.622 165.845 291.319 166.148 291.073 166.535C290.835 166.922 290.655 167.379 290.532 167.906C290.409 168.425 290.348 168.987 290.348 169.594ZM306.55 156.581V176.831H302.74V156.581H306.55ZM316.253 177.095C315.146 177.095 314.153 176.919 313.274 176.568C312.395 176.207 311.648 175.711 311.033 175.078C310.426 174.445 309.96 173.711 309.635 172.876C309.31 172.032 309.147 171.136 309.147 170.187V169.659C309.147 168.578 309.301 167.59 309.609 166.693C309.917 165.797 310.356 165.019 310.927 164.36C311.507 163.7 312.21 163.195 313.037 162.844C313.863 162.483 314.794 162.303 315.832 162.303C316.842 162.303 317.739 162.47 318.521 162.804C319.303 163.138 319.958 163.613 320.485 164.228C321.021 164.843 321.426 165.581 321.698 166.443C321.971 167.295 322.107 168.244 322.107 169.29V170.872H310.769V168.341H318.376V168.051C318.376 167.524 318.279 167.053 318.086 166.64C317.901 166.219 317.62 165.885 317.242 165.638C316.864 165.392 316.381 165.269 315.792 165.269C315.291 165.269 314.86 165.379 314.5 165.599C314.14 165.819 313.845 166.126 313.617 166.522C313.397 166.917 313.23 167.383 313.116 167.919C313.01 168.447 312.958 169.027 312.958 169.659V170.187C312.958 170.758 313.037 171.285 313.195 171.769C313.362 172.252 313.595 172.67 313.894 173.021C314.201 173.373 314.57 173.645 315.001 173.839C315.44 174.032 315.937 174.129 316.491 174.129C317.176 174.129 317.813 173.997 318.402 173.733C319 173.461 319.514 173.052 319.945 172.507L321.791 174.511C321.492 174.942 321.083 175.355 320.564 175.75C320.055 176.146 319.439 176.471 318.719 176.726C317.998 176.972 317.176 177.095 316.253 177.095ZM338.705 169.989H333.814V166.904H338.705C339.461 166.904 340.076 166.781 340.551 166.535C341.025 166.28 341.373 165.928 341.592 165.48C341.812 165.032 341.922 164.527 341.922 163.964C341.922 163.393 341.812 162.861 341.592 162.369C341.373 161.877 341.025 161.481 340.551 161.182C340.076 160.884 339.461 160.734 338.705 160.734H335.185V176.831H331.23V157.636H338.705C340.208 157.636 341.496 157.908 342.568 158.453C343.649 158.99 344.475 159.732 345.046 160.681C345.618 161.631 345.903 162.716 345.903 163.938C345.903 165.177 345.618 166.249 345.046 167.155C344.475 168.06 343.649 168.759 342.568 169.251C341.496 169.743 340.208 169.989 338.705 169.989ZM354.776 177.095C353.668 177.095 352.675 176.919 351.796 176.568C350.917 176.207 350.17 175.711 349.555 175.078C348.949 174.445 348.483 173.711 348.158 172.876C347.833 172.032 347.67 171.136 347.67 170.187V169.659C347.67 168.578 347.824 167.59 348.131 166.693C348.439 165.797 348.878 165.019 349.45 164.36C350.03 163.7 350.733 163.195 351.559 162.844C352.385 162.483 353.317 162.303 354.354 162.303C355.365 162.303 356.261 162.47 357.043 162.804C357.826 163.138 358.48 163.613 359.008 164.228C359.544 164.843 359.948 165.581 360.221 166.443C360.493 167.295 360.629 168.244 360.629 169.29V170.872H349.292V168.341H356.898V168.051C356.898 167.524 356.802 167.053 356.608 166.64C356.424 166.219 356.143 165.885 355.765 165.638C355.387 165.392 354.903 165.269 354.314 165.269C353.813 165.269 353.383 165.379 353.022 165.599C352.662 165.819 352.368 166.126 352.139 166.522C351.919 166.917 351.752 167.383 351.638 167.919C351.533 168.447 351.48 169.027 351.48 169.659V170.187C351.48 170.758 351.559 171.285 351.717 171.769C351.884 172.252 352.117 172.67 352.416 173.021C352.724 173.373 353.093 173.645 353.523 173.839C353.963 174.032 354.459 174.129 355.013 174.129C355.699 174.129 356.336 173.997 356.925 173.733C357.522 173.461 358.037 173.052 358.467 172.507L360.313 174.511C360.014 174.942 359.605 175.355 359.087 175.75C358.577 176.146 357.962 176.471 357.241 176.726C356.521 176.972 355.699 177.095 354.776 177.095ZM366.839 162.567V176.831H363.042V162.567H366.839ZM376.107 162.567L369.963 171.492H366.167L365.705 167.985H368.223L371.295 162.567H376.107ZM371.466 176.831L367.959 170.806L371.269 168.974L376.555 176.831H371.466ZM387.577 162.567V165.546H380.563V162.567H387.577ZM390.358 162.567V176.831H386.562V162.567H390.358ZM379.614 162.567H383.345L382.962 169.765C382.91 170.793 382.8 171.698 382.633 172.481C382.466 173.263 382.242 173.931 381.96 174.485C381.688 175.038 381.358 175.491 380.972 175.843C380.594 176.185 380.15 176.436 379.64 176.594C379.139 176.752 378.585 176.831 377.979 176.831H376.819L376.779 173.839L377.267 173.786C377.548 173.76 377.794 173.68 378.005 173.549C378.225 173.408 378.41 173.21 378.559 172.955C378.717 172.692 378.849 172.362 378.955 171.967C379.06 171.562 379.144 171.088 379.205 170.543C379.275 169.998 379.324 169.369 379.35 168.657L379.614 162.567ZM400.998 173.615V167.26C400.998 166.803 400.923 166.412 400.773 166.087C400.624 165.753 400.391 165.493 400.075 165.309C399.767 165.124 399.367 165.032 398.875 165.032C398.453 165.032 398.088 165.107 397.781 165.256C397.473 165.397 397.236 165.603 397.069 165.876C396.902 166.139 396.818 166.451 396.818 166.812H393.021C393.021 166.205 393.162 165.63 393.443 165.085C393.725 164.54 394.133 164.061 394.669 163.648C395.206 163.226 395.843 162.896 396.581 162.659C397.328 162.422 398.163 162.303 399.086 162.303C400.193 162.303 401.178 162.488 402.039 162.857C402.9 163.226 403.577 163.78 404.069 164.518C404.57 165.256 404.821 166.179 404.821 167.286V173.39C404.821 174.173 404.869 174.814 404.966 175.315C405.062 175.807 405.203 176.238 405.388 176.607V176.831H401.551C401.367 176.445 401.226 175.961 401.129 175.381C401.042 174.792 400.998 174.203 400.998 173.615ZM401.499 168.143L401.525 170.292H399.402C398.901 170.292 398.466 170.349 398.097 170.464C397.728 170.578 397.425 170.74 397.188 170.951C396.95 171.154 396.774 171.391 396.66 171.663C396.555 171.936 396.502 172.235 396.502 172.56C396.502 172.885 396.577 173.179 396.726 173.443C396.875 173.698 397.091 173.9 397.372 174.05C397.653 174.19 397.983 174.26 398.361 174.26C398.932 174.26 399.429 174.146 399.851 173.918C400.272 173.689 400.598 173.408 400.826 173.074C401.063 172.74 401.187 172.424 401.195 172.125L402.197 173.733C402.057 174.094 401.863 174.467 401.617 174.854C401.38 175.24 401.077 175.605 400.708 175.948C400.338 176.282 399.895 176.559 399.376 176.779C398.857 176.99 398.242 177.095 397.53 177.095C396.625 177.095 395.803 176.915 395.065 176.554C394.335 176.185 393.755 175.68 393.325 175.038C392.903 174.388 392.692 173.65 392.692 172.823C392.692 172.076 392.833 171.413 393.114 170.833C393.395 170.253 393.808 169.765 394.353 169.369C394.907 168.965 395.597 168.662 396.423 168.46C397.249 168.249 398.207 168.143 399.297 168.143H401.499ZM416.422 172.468L420.167 162.567H423.265L417.701 176.831H415.144L409.606 162.567H412.705L416.422 172.468ZM411.795 162.567V176.831H407.998V162.567H411.795ZM421.142 176.831V162.567H424.939V176.831H421.142ZM435.96 173.615V167.26C435.96 166.803 435.886 166.412 435.736 166.087C435.587 165.753 435.354 165.493 435.038 165.309C434.73 165.124 434.33 165.032 433.838 165.032C433.416 165.032 433.051 165.107 432.744 165.256C432.436 165.397 432.199 165.603 432.032 165.876C431.865 166.139 431.781 166.451 431.781 166.812H427.984C427.984 166.205 428.125 165.63 428.406 165.085C428.688 164.54 429.096 164.061 429.632 163.648C430.168 163.226 430.806 162.896 431.544 162.659C432.291 162.422 433.126 162.303 434.049 162.303C435.156 162.303 436.141 162.488 437.002 162.857C437.863 163.226 438.54 163.78 439.032 164.518C439.533 165.256 439.784 166.179 439.784 167.286V173.39C439.784 174.173 439.832 174.814 439.929 175.315C440.025 175.807 440.166 176.238 440.351 176.607V176.831H436.514C436.33 176.445 436.189 175.961 436.092 175.381C436.004 174.792 435.96 174.203 435.96 173.615ZM436.461 168.143L436.488 170.292H434.365C433.864 170.292 433.429 170.349 433.06 170.464C432.691 170.578 432.388 170.74 432.15 170.951C431.913 171.154 431.737 171.391 431.623 171.663C431.518 171.936 431.465 172.235 431.465 172.56C431.465 172.885 431.54 173.179 431.689 173.443C431.838 173.698 432.054 173.9 432.335 174.05C432.616 174.19 432.946 174.26 433.324 174.26C433.895 174.26 434.392 174.146 434.813 173.918C435.235 173.689 435.561 173.408 435.789 173.074C436.026 172.74 436.149 172.424 436.158 172.125L437.16 173.733C437.02 174.094 436.826 174.467 436.58 174.854C436.343 175.24 436.04 175.605 435.67 175.948C435.301 176.282 434.857 176.559 434.339 176.779C433.82 176.99 433.205 177.095 432.493 177.095C431.588 177.095 430.766 176.915 430.028 176.554C429.298 176.185 428.718 175.68 428.288 175.038C427.866 174.388 427.655 173.65 427.655 172.823C427.655 172.076 427.795 171.413 428.077 170.833C428.358 170.253 428.771 169.765 429.316 169.369C429.87 168.965 430.56 168.662 431.386 168.46C432.212 168.249 433.17 168.143 434.26 168.143H436.461Z" fill="#333333"/>
<path d="M283.762 220.118H279.992L279.971 218.258H283.264C283.82 218.258 284.291 218.177 284.677 218.014C285.07 217.845 285.368 217.604 285.571 217.292C285.774 216.974 285.876 216.591 285.876 216.144C285.876 215.649 285.781 215.246 285.591 214.935C285.402 214.623 285.11 214.396 284.717 214.254C284.331 214.111 283.837 214.04 283.234 214.04H280.764V226.805H278.213V212.008H283.234C284.047 212.008 284.772 212.086 285.408 212.241C286.052 212.397 286.598 212.641 287.045 212.973C287.499 213.298 287.841 213.712 288.071 214.213C288.308 214.714 288.427 215.311 288.427 216.002C288.427 216.612 288.281 217.17 287.99 217.679C287.698 218.18 287.268 218.59 286.699 218.908C286.13 219.227 285.422 219.416 284.575 219.477L283.762 220.118ZM283.65 226.805H279.189L280.337 224.783H283.65C284.226 224.783 284.707 224.688 285.093 224.498C285.48 224.301 285.768 224.034 285.957 223.695C286.154 223.35 286.252 222.946 286.252 222.486C286.252 222.005 286.167 221.588 285.998 221.236C285.829 220.877 285.561 220.602 285.195 220.412C284.829 220.216 284.351 220.118 283.762 220.118H280.896L280.916 218.258H284.646L285.226 218.959C286.039 218.986 286.706 219.166 287.228 219.498C287.756 219.83 288.149 220.26 288.407 220.788C288.664 221.317 288.793 221.886 288.793 222.496C288.793 223.438 288.586 224.227 288.173 224.864C287.766 225.501 287.18 225.985 286.415 226.317C285.649 226.642 284.728 226.805 283.65 226.805ZM293.762 215.809V226.805H291.313V215.809H293.762ZM300.937 215.809L295.988 222.425H293.193L292.868 220.209H294.911L297.878 215.809H300.937ZM298.071 226.805L294.758 222.008L296.689 220.616L301.293 226.805H298.071ZM310.013 215.809V217.76H304.647V215.809H310.013ZM311.934 215.809V226.805H309.484V215.809H311.934ZM304.047 215.809H306.466L306.171 221.246C306.131 222.052 306.049 222.763 305.927 223.38C305.812 223.99 305.656 224.515 305.46 224.955C305.263 225.389 305.023 225.741 304.738 226.012C304.454 226.283 304.122 226.483 303.742 226.612C303.363 226.741 302.936 226.805 302.462 226.805H301.7L301.689 224.793L302.076 224.762C302.326 224.742 302.543 224.677 302.726 224.569C302.909 224.454 303.065 224.291 303.194 224.081C303.329 223.871 303.437 223.6 303.519 223.268C303.607 222.936 303.675 222.543 303.722 222.089C303.776 221.635 303.817 221.107 303.844 220.504L304.047 215.809ZM314.637 225.585C314.637 225.206 314.766 224.888 315.023 224.63C315.281 224.366 315.63 224.234 316.07 224.234C316.517 224.234 316.866 224.366 317.117 224.63C317.374 224.888 317.503 225.206 317.503 225.585C317.503 225.965 317.374 226.283 317.117 226.541C316.866 226.798 316.517 226.927 316.07 226.927C315.63 226.927 315.281 226.798 315.023 226.541C314.766 226.283 314.637 225.965 314.637 225.585Z" fill="#27C58B"/>
<rect x="325.77" y="209.29" width="53.5208" height="20.8137" rx="10.4068" fill="#27C58B" fill-opacity="0.68"/>
<g filter="url(#filter0_ddd_49_4883)">
<rect x="349.555" y="204.831" width="29.7338" height="29.7338" rx="14.8669" fill="#27C58B"/>
</g>
<defs>
<filter id="filter0_ddd_49_4883" x="342.121" y="198.885" width="44.6013" height="44.6008" filterUnits="userSpaceOnUse" color-interpolation-filters="sRGB">
<feFlood flood-opacity="0" result="BackgroundImageFix"/>
<feColorMatrix in="SourceAlpha" type="matrix" values="0 0 0 0 0 0 0 0 0 0 0 0 0 0 0 0 0 0 127 0" result="hardAlpha"/>
<feOffset dy="1.48669"/>
<feGaussianBlur stdDeviation="3.71672"/>
<feComposite in2="hardAlpha" operator="out"/>
<feColorMatrix type="matrix" values="0 0 0 0 0 0 0 0 0 0 0 0 0 0 0 0 0 0 0.12 0"/>
<feBlend mode="normal" in2="BackgroundImageFix" result="effect1_dropShadow_49_4883"/>
<feColorMatrix in="SourceAlpha" type="matrix" values="0 0 0 0 0 0 0 0 0 0 0 0 0 0 0 0 0 0 127 0" result="hardAlpha"/>
<feMorphology radius="2.97338" operator="erode" in="SourceAlpha" result="effect2_dropShadow_49_4883"/>
<feOffset dy="4.46007"/>
<feGaussianBlur stdDeviation="0.743345"/>
<feComposite in2="hardAlpha" operator="out"/>
<feColorMatrix type="matrix" values="0 0 0 0 0 0 0 0 0 0 0 0 0 0 0 0 0 0 0.2 0"/>
<feBlend mode="normal" in2="effect1_dropShadow_49_4883" result="effect2_dropShadow_49_4883"/>
<feColorMatrix in="SourceAlpha" type="matrix" values="0 0 0 0 0 0 0 0 0 0 0 0 0 0 0 0 0 0 127 0" result="hardAlpha"/>
<feOffset dy="2.97338"/>
<feGaussianBlur stdDeviation="1.48669"/>
<feComposite in2="hardAlpha" operator="out"/>
<feColorMatrix type="matrix" values="0 0 0 0 0 0 0 0 0 0 0 0 0 0 0 0 0 0 0.14 0"/>
<feBlend mode="normal" in2="effect2_dropShadow_49_4883" result="effect3_dropShadow_49_4883"/>
<feBlend mode="normal" in="SourceGraphic" in2="effect3_dropShadow_49_4883" result="shape"/>
</filter>
<clipPath id="clip0_49_4883">
<rect width="50" height="46.46" fill="white" transform="translate(303 38.8313)"/>
</clipPath>
<clipPath id="clip1_49_4883">
<rect width="49.9967" height="46.46" fill="white" transform="translate(303.002 38.8313)"/>
</clipPath>
</defs>
</svg>
