<svg width="402" height="172" viewBox="0 0 402 172" fill="none" xmlns="http://www.w3.org/2000/svg">
<g filter="url(#filter0_d_57_16382)">
<rect x="11" y="8" width="380" height="150" rx="13" fill="#F4F8FD" shape-rendering="crispEdges"/>
<path fill-rule="evenodd" clip-rule="evenodd" d="M56.6389 40.0902C56.6389 32.6072 50.5727 26.541 43.0897 26.541C35.6067 26.541 29.5405 32.6072 29.5405 40.0902C29.5405 47.5732 35.6067 53.6394 43.0897 53.6394C50.5727 53.6394 56.6389 47.5732 56.6389 40.0902ZM44.8963 47.0837V38.2767H41.2832V47.0837H44.8963ZM43.0897 33.0968C44.0874 33.0968 44.8963 33.9056 44.8963 34.9033C44.8963 35.9011 44.0874 36.7099 43.0897 36.7099C42.092 36.7099 41.2832 35.9011 41.2832 34.9033C41.2832 33.9056 42.092 33.0968 43.0897 33.0968Z" fill="#6695E2"/>
<path d="M72.0218 46.5902V33.6984H77.1081C78.0859 33.6984 78.9189 33.8852 79.6071 34.2587C80.2953 34.6279 80.8199 35.142 81.1808 35.8009C81.5459 36.4555 81.7285 37.2109 81.7285 38.067C81.7285 38.9231 81.5438 39.6785 81.1745 40.3332C80.8052 40.9878 80.2702 41.4977 79.5693 41.8628C78.8727 42.2279 78.0292 42.4104 77.0388 42.4104H73.797V40.2261H76.5982C77.1227 40.2261 77.555 40.1359 77.8949 39.9555C78.239 39.7708 78.495 39.5169 78.6629 39.1938C78.8349 38.8665 78.921 38.4909 78.921 38.067C78.921 37.639 78.8349 37.2655 78.6629 36.9465C78.495 36.6234 78.239 36.3737 77.8949 36.1975C77.5508 36.017 77.1144 35.9268 76.5856 35.9268H74.7475V46.5902H72.0218ZM85.946 46.7728C85.3291 46.7728 84.7794 46.6657 84.2967 46.4517C83.8141 46.2335 83.4323 45.9125 83.1511 45.4886C82.8741 45.0606 82.7356 44.5276 82.7356 43.8897C82.7356 43.3526 82.8343 42.9014 83.0315 42.5363C83.2287 42.1712 83.4973 41.8775 83.8372 41.6551C84.1771 41.4327 84.5632 41.2648 84.9955 41.1515C85.4319 41.0382 85.8893 40.9584 86.3677 40.9123C86.9301 40.8535 87.3833 40.799 87.7274 40.7486C88.0715 40.6941 88.3212 40.6143 88.4765 40.5094C88.6318 40.4045 88.7094 40.2492 88.7094 40.0436V40.0058C88.7094 39.6072 88.5835 39.2987 88.3317 39.0805C88.0841 38.8623 87.7316 38.7532 87.2742 38.7532C86.7916 38.7532 86.4076 38.8602 86.1222 39.0742C85.8369 39.284 85.648 39.5484 85.5557 39.8673L83.0756 39.6659C83.2014 39.0784 83.449 38.5706 83.8183 38.1426C84.1876 37.7103 84.6639 37.3788 85.2473 37.148C85.8348 36.913 86.5146 36.7955 87.2868 36.7955C87.8239 36.7955 88.338 36.8584 88.829 36.9843C89.3242 37.1102 89.7628 37.3053 90.1446 37.5697C90.5307 37.8341 90.835 38.174 91.0574 38.5895C91.2798 39.0008 91.391 39.4938 91.391 40.0688V46.5902H88.8479V45.2494H88.7724C88.6171 45.5516 88.4094 45.818 88.1492 46.0489C87.889 46.2755 87.5764 46.4538 87.2113 46.5839C86.8462 46.7098 86.4244 46.7728 85.946 46.7728ZM86.714 44.9221C87.1084 44.9221 87.4567 44.8444 87.7589 44.6892C88.0611 44.5297 88.2982 44.3157 88.4702 44.0471C88.6423 43.7785 88.7283 43.4743 88.7283 43.1344V42.1083C88.6444 42.1629 88.529 42.2132 88.3821 42.2594C88.2394 42.3013 88.0778 42.3412 87.8974 42.379C87.7169 42.4125 87.5365 42.444 87.356 42.4734C87.1756 42.4986 87.0119 42.5217 86.865 42.5426C86.5503 42.5888 86.2754 42.6622 86.0404 42.763C85.8054 42.8637 85.6229 43.0001 85.4928 43.1721C85.3627 43.34 85.2976 43.5498 85.2976 43.8016C85.2976 44.1667 85.4298 44.4458 85.6942 44.6388C85.9628 44.8277 86.3027 44.9221 86.714 44.9221ZM92.9742 43.852H95.5739C95.5865 44.1709 95.7292 44.4227 96.002 44.6073C96.2747 44.792 96.6273 44.8843 97.0595 44.8843C97.4959 44.8843 97.8631 44.7836 98.1611 44.5822C98.4591 44.3765 98.608 44.0828 98.608 43.7009C98.608 43.4659 98.5493 43.2623 98.4318 43.0903C98.3143 42.914 98.1506 42.7755 97.9408 42.6748C97.7309 42.5741 97.4875 42.5238 97.2106 42.5238H95.8194V40.7675H97.2106C97.626 40.7675 97.945 40.671 98.1674 40.4779C98.394 40.2849 98.5073 40.0436 98.5073 39.754C98.5073 39.4267 98.3898 39.1644 98.1548 38.9672C97.924 38.7657 97.6113 38.665 97.2169 38.665C96.8182 38.665 96.4867 38.7553 96.2223 38.9357C95.9621 39.112 95.8278 39.3428 95.8194 39.6281H93.2322C93.2406 39.049 93.4148 38.5475 93.7547 38.1237C94.0988 37.6998 94.5605 37.3725 95.1396 37.1417C95.7229 36.9109 96.3755 36.7955 97.0973 36.7955C97.8862 36.7955 98.5661 36.9067 99.1368 37.1291C99.7117 37.3473 100.152 37.66 100.459 38.067C100.769 38.4741 100.925 38.9588 100.925 39.5211C100.925 40.0331 100.757 40.4612 100.421 40.8053C100.085 41.1494 99.6152 41.3949 99.0109 41.5418V41.6425C99.4096 41.6677 99.7705 41.7747 100.094 41.9635C100.417 42.1524 100.675 42.4125 100.868 42.7441C101.061 43.0714 101.157 43.4596 101.157 43.9086C101.157 44.5087 100.981 45.0228 100.629 45.4508C100.28 45.8789 99.7977 46.2083 99.1809 46.4391C98.5682 46.6657 97.8652 46.7791 97.0721 46.7791C96.2999 46.7791 95.6075 46.6678 94.9948 46.4454C94.3863 46.2188 93.9016 45.8873 93.5407 45.4508C93.184 45.0144 92.9951 44.4814 92.9742 43.852ZM102.802 50.216V36.9214H105.446V38.5454H105.565C105.683 38.2852 105.853 38.0209 106.075 37.7523C106.302 37.4795 106.596 37.2529 106.957 37.0724C107.322 36.8878 107.775 36.7955 108.316 36.7955C109.021 36.7955 109.672 36.9801 110.268 37.3494C110.864 37.7145 111.34 38.2664 111.697 39.0049C112.053 39.7393 112.232 40.6605 112.232 41.7684C112.232 42.8469 112.057 43.7575 111.709 44.5003C111.365 45.2389 110.895 45.7992 110.299 46.181C109.707 46.5587 109.044 46.7476 108.31 46.7476C107.79 46.7476 107.347 46.6616 106.982 46.4895C106.621 46.3174 106.325 46.1013 106.094 45.8411C105.863 45.5767 105.687 45.3103 105.565 45.0417H105.484V50.216H102.802ZM105.427 41.7558C105.427 42.3307 105.507 42.8322 105.666 43.2602C105.826 43.6883 106.056 44.0219 106.359 44.2611C106.661 44.4961 107.028 44.6136 107.46 44.6136C107.897 44.6136 108.266 44.494 108.568 44.2548C108.87 44.0114 109.099 43.6757 109.254 43.2477C109.414 42.8154 109.493 42.3181 109.493 41.7558C109.493 41.1976 109.416 40.7066 109.26 40.2828C109.105 39.8589 108.876 39.5274 108.574 39.2882C108.272 39.049 107.901 38.9294 107.46 38.9294C107.024 38.9294 106.654 39.0448 106.352 39.2756C106.054 39.5064 105.826 39.8338 105.666 40.2576C105.507 40.6815 105.427 41.1809 105.427 41.7558ZM118.426 46.7791C117.431 46.7791 116.575 46.5776 115.857 46.1748C115.144 45.7677 114.594 45.1928 114.208 44.45C113.822 43.703 113.629 42.8196 113.629 41.7998C113.629 40.8053 113.822 39.9324 114.208 39.1812C114.594 38.43 115.138 37.8446 115.839 37.4249C116.544 37.0053 117.37 36.7955 118.319 36.7955C118.957 36.7955 119.55 36.8983 120.1 37.1039C120.654 37.3053 121.137 37.6096 121.548 38.0167C121.963 38.4237 122.287 38.9357 122.517 39.5526C122.748 40.1653 122.864 40.8829 122.864 41.7054V42.4419H114.699V40.7801H120.339C120.339 40.394 120.255 40.052 120.088 39.754C119.92 39.4561 119.687 39.2232 119.389 39.0553C119.095 38.8832 118.753 38.7972 118.363 38.7972C117.956 38.7972 117.595 38.8916 117.28 39.0805C116.969 39.2651 116.726 39.5148 116.55 39.8296C116.374 40.1401 116.283 40.4863 116.279 40.8682V42.4482C116.279 42.9266 116.367 43.34 116.544 43.6883C116.724 44.0366 116.978 44.3052 117.305 44.494C117.633 44.6829 118.021 44.7773 118.47 44.7773C118.768 44.7773 119.04 44.7353 119.288 44.6514C119.536 44.5675 119.748 44.4416 119.924 44.2737C120.1 44.1059 120.234 43.9002 120.327 43.6568L122.807 43.8205C122.681 44.4164 122.423 44.9368 122.033 45.3816C121.647 45.8222 121.147 46.1664 120.534 46.414C119.926 46.6574 119.223 46.7791 118.426 46.7791ZM124.614 36.9214H127.176V44.4626H129.901V36.9214H132.463V44.4626H135.189V36.9214H137.751V46.5902H124.614V36.9214ZM142.392 43.0525L145.873 36.9214H148.517V46.5902H145.961V40.4402L142.492 46.5902H139.83V36.9214H142.392V43.0525ZM149.695 39.0301V36.9214H158.458V39.0301H155.342V46.5902H152.786V39.0301H149.695ZM164.143 46.7791C163.149 46.7791 162.293 46.5776 161.575 46.1748C160.862 45.7677 160.312 45.1928 159.926 44.45C159.54 43.703 159.347 42.8196 159.347 41.7998C159.347 40.8053 159.54 39.9324 159.926 39.1812C160.312 38.43 160.855 37.8446 161.556 37.4249C162.261 37.0053 163.088 36.7955 164.036 36.7955C164.674 36.7955 165.268 36.8983 165.818 37.1039C166.372 37.3053 166.854 37.6096 167.266 38.0167C167.681 38.4237 168.004 38.9357 168.235 39.5526C168.466 40.1653 168.581 40.8829 168.581 41.7054V42.4419H160.417V40.7801H166.057C166.057 40.394 165.973 40.052 165.805 39.754C165.637 39.4561 165.404 39.2232 165.107 39.0553C164.813 38.8832 164.471 38.7972 164.08 38.7972C163.673 38.7972 163.313 38.8916 162.998 39.0805C162.687 39.2651 162.444 39.5148 162.268 39.8296C162.091 40.1401 162.001 40.4863 161.997 40.8682V42.4482C161.997 42.9266 162.085 43.34 162.261 43.6883C162.442 44.0366 162.696 44.3052 163.023 44.494C163.35 44.6829 163.738 44.7773 164.187 44.7773C164.485 44.7773 164.758 44.7353 165.006 44.6514C165.253 44.5675 165.465 44.4416 165.642 44.2737C165.818 44.1059 165.952 43.9002 166.044 43.6568L168.525 43.8205C168.399 44.4164 168.141 44.9368 167.75 45.3816C167.364 45.8222 166.865 46.1664 166.252 46.414C165.644 46.6574 164.941 46.7791 164.143 46.7791ZM173.679 49.4229V44.4626H174.421C174.635 44.3283 174.807 44.1142 174.937 43.8205C175.072 43.5267 175.181 43.1805 175.265 42.7818C175.353 42.3832 175.42 41.953 175.466 41.4914C175.517 41.0256 175.561 40.5556 175.598 40.0814L175.85 36.9214H183.266V44.4626H184.764V49.4229H182.208V46.5902H176.297V49.4229H173.679ZM177.09 44.4626H180.735V38.9861H178.129L178.028 40.0814C177.957 41.1137 177.854 41.9908 177.72 42.7126C177.585 43.4302 177.376 44.0135 177.09 44.4626ZM190.695 46.7791C189.717 46.7791 188.872 46.5713 188.158 46.1559C187.449 45.7362 186.901 45.1529 186.515 44.4059C186.129 43.6547 185.936 42.7839 185.936 41.7936C185.936 40.7948 186.129 39.9219 186.515 39.1749C186.901 38.4237 187.449 37.8404 188.158 37.4249C188.872 37.0053 189.717 36.7955 190.695 36.7955C191.673 36.7955 192.516 37.0053 193.226 37.4249C193.939 37.8404 194.489 38.4237 194.875 39.1749C195.261 39.9219 195.454 40.7948 195.454 41.7936C195.454 42.7839 195.261 43.6547 194.875 44.4059C194.489 45.1529 193.939 45.7362 193.226 46.1559C192.516 46.5713 191.673 46.7791 190.695 46.7791ZM190.708 44.7018C191.152 44.7018 191.524 44.5759 191.822 44.3241C192.12 44.0681 192.344 43.7198 192.495 43.2791C192.651 42.8385 192.728 42.337 192.728 41.7747C192.728 41.2123 192.651 40.7108 192.495 40.2702C192.344 39.8296 192.12 39.4813 191.822 39.2253C191.524 38.9693 191.152 38.8413 190.708 38.8413C190.259 38.8413 189.881 38.9693 189.575 39.2253C189.272 39.4813 189.044 39.8296 188.888 40.2702C188.737 40.7108 188.662 41.2123 188.662 41.7747C188.662 42.337 188.737 42.8385 188.888 43.2791C189.044 43.7198 189.272 44.0681 189.575 44.3241C189.881 44.5759 190.259 44.7018 190.708 44.7018ZM201.566 46.7791C200.576 46.7791 199.724 46.5692 199.01 46.1496C198.301 45.7257 197.756 45.1382 197.374 44.387C196.996 43.6358 196.807 42.7714 196.807 41.7936C196.807 40.8032 196.998 39.9345 197.38 39.1875C197.766 38.4363 198.314 37.8509 199.023 37.4312C199.732 37.0074 200.576 36.7955 201.554 36.7955C202.397 36.7955 203.136 36.9486 203.769 37.255C204.403 37.5613 204.904 37.9915 205.274 38.5454C205.643 39.0994 205.847 39.7498 205.884 40.4968H203.354C203.283 40.0142 203.094 39.626 202.787 39.3323C202.485 39.0343 202.089 38.8853 201.598 38.8853C201.182 38.8853 200.819 38.9987 200.509 39.2253C200.202 39.4477 199.963 39.7729 199.791 40.201C199.619 40.629 199.533 41.1473 199.533 41.7558C199.533 42.3727 199.617 42.8972 199.785 43.3295C199.957 43.7617 200.198 44.0912 200.509 44.3178C200.819 44.5444 201.182 44.6577 201.598 44.6577C201.904 44.6577 202.179 44.5948 202.422 44.4689C202.67 44.343 202.873 44.1604 203.033 43.9212C203.196 43.6778 203.304 43.3861 203.354 43.0462H205.884C205.842 43.7848 205.641 44.4353 205.28 44.9976C204.923 45.5558 204.43 45.9922 203.801 46.3069C203.171 46.6217 202.426 46.7791 201.566 46.7791ZM206.942 39.0301V36.9214H215.704V39.0301H212.588V46.5902H210.033V39.0301H206.942ZM218.985 50.216C218.646 50.216 218.327 50.1888 218.029 50.1342C217.735 50.0838 217.492 50.0188 217.298 49.9391L217.903 47.9373C218.218 48.0338 218.501 48.0863 218.753 48.0947C219.009 48.1031 219.229 48.0443 219.414 47.9184C219.602 47.7925 219.756 47.5785 219.873 47.2763L220.03 46.8672L216.562 36.9214H219.382L221.384 44.0219H221.485L223.505 36.9214H226.344L222.586 47.6352C222.406 48.1555 222.16 48.6087 221.85 48.9948C221.543 49.3851 221.155 49.6852 220.685 49.895C220.215 50.109 219.649 50.216 218.985 50.216ZM227.716 46.5902V36.9214H236.17V46.5902H233.608V39.0301H230.247V46.5902H227.716ZM242.413 46.5902V36.9214H245.095V40.6731H245.85L248.481 36.9214H251.629L248.211 41.718L251.667 46.5902H248.481L246.096 43.1595H245.095V46.5902H242.413ZM259.282 33.6984L262.398 43.4932H262.517L265.64 33.6984H268.661L264.217 46.5902H260.704L256.254 33.6984H259.282ZM270.213 46.5902V33.6984H272.938V39.3826H273.108L277.748 33.6984H281.015L276.231 39.4708L281.071 46.5902H277.811L274.279 41.29L272.938 42.9266V46.5902H270.213ZM288.759 46.5902H285.838L290.289 33.6984H293.801L298.245 46.5902H295.324L292.095 36.6444H291.994L288.759 46.5902ZM288.576 41.5229H295.475V43.6505H288.576V41.5229ZM302.859 46.7476C302.125 46.7476 301.46 46.5587 300.864 46.181C300.272 45.7992 299.802 45.2389 299.454 44.5003C299.11 43.7575 298.938 42.8469 298.938 41.7684C298.938 40.6605 299.116 39.7393 299.473 39.0049C299.829 38.2664 300.304 37.7145 300.895 37.3494C301.491 36.9801 302.144 36.7955 302.853 36.7955C303.394 36.7955 303.845 36.8878 304.206 37.0724C304.571 37.2529 304.865 37.4795 305.088 37.7523C305.314 38.0209 305.486 38.2852 305.604 38.5454H305.686V33.6984H308.361V46.5902H305.717V45.0417H305.604C305.478 45.3103 305.3 45.5767 305.069 45.8411C304.842 46.1013 304.546 46.3174 304.181 46.4895C303.82 46.6616 303.38 46.7476 302.859 46.7476ZM303.709 44.6136C304.141 44.6136 304.506 44.4961 304.804 44.2611C305.107 44.0219 305.337 43.6883 305.497 43.2602C305.66 42.8322 305.742 42.3307 305.742 41.7558C305.742 41.1809 305.663 40.6815 305.503 40.2576C305.344 39.8338 305.113 39.5064 304.811 39.2756C304.509 39.0448 304.141 38.9294 303.709 38.9294C303.268 38.9294 302.897 39.049 302.595 39.2882C302.293 39.5274 302.064 39.8589 301.909 40.2828C301.753 40.7066 301.676 41.1976 301.676 41.7558C301.676 42.3181 301.753 42.8154 301.909 43.2477C302.068 43.6757 302.297 44.0114 302.595 44.2548C302.897 44.494 303.268 44.6136 303.709 44.6136ZM318.61 39.6785L316.156 39.8296C316.114 39.6197 316.023 39.4309 315.885 39.263C315.746 39.091 315.564 38.9546 315.337 38.8539C315.115 38.749 314.848 38.6965 314.538 38.6965C314.122 38.6965 313.772 38.7846 313.487 38.9609C313.201 39.1329 313.058 39.3638 313.058 39.6533C313.058 39.8841 313.151 40.0793 313.335 40.2387C313.52 40.3982 313.837 40.5262 314.286 40.6227L316.036 40.9752C316.976 41.1683 317.677 41.4788 318.138 41.9069C318.6 42.3349 318.831 42.8972 318.831 43.5939C318.831 44.2276 318.644 44.7836 318.271 45.262C317.901 45.7404 317.393 46.1139 316.747 46.3825C316.105 46.6469 315.364 46.7791 314.525 46.7791C313.245 46.7791 312.225 46.5126 311.466 45.9796C310.71 45.4425 310.268 44.7123 310.138 43.789L312.775 43.6505C312.855 44.0408 313.048 44.3388 313.354 44.5444C313.661 44.7458 314.053 44.8465 314.531 44.8465C315.001 44.8465 315.379 44.7563 315.665 44.5759C315.954 44.3912 316.101 44.1541 316.105 43.8646C316.101 43.6212 315.998 43.4218 315.797 43.2665C315.595 43.1071 315.285 42.9854 314.865 42.9014L313.191 42.5678C312.246 42.379 311.544 42.0516 311.082 41.5858C310.624 41.12 310.396 40.5262 310.396 39.8044C310.396 39.1833 310.564 38.6482 310.899 38.1992C311.239 37.7502 311.716 37.404 312.328 37.1606C312.945 36.9172 313.667 36.7955 314.494 36.7955C315.715 36.7955 316.676 37.0536 317.377 37.5697C318.082 38.0859 318.493 38.7888 318.61 39.6785Z" fill="#070707"/>
<path d="M35.9465 77.8494V78.6147H30.5745V77.8494H35.9465ZM30.7256 77.8494V80.3599H29.7945L29.7896 77.8494H30.7256ZM36.7655 77.8494L36.7557 80.3551H35.8246V77.8494H36.7655ZM35.0252 71.517V72.2872H31.915V71.517H35.0252ZM35.8344 71.517V78.6147H34.8984V71.517H35.8344ZM31.5933 71.517H32.5341L32.3879 74.3737C32.3684 74.8026 32.3278 75.1991 32.266 75.5631C32.2043 75.9239 32.1279 76.2537 32.0369 76.5527C31.9459 76.8517 31.8419 77.1198 31.7249 77.357C31.6079 77.591 31.4828 77.7942 31.3496 77.9664C31.2163 78.1354 31.0766 78.2751 30.9303 78.3856C30.7873 78.4929 30.6427 78.5692 30.4965 78.6147H30.0675V77.8494H30.3697C30.4542 77.7584 30.5501 77.6268 30.6573 77.4545C30.7678 77.2823 30.8767 77.0597 30.984 76.7867C31.0945 76.5105 31.1903 76.1741 31.2716 75.7776C31.3561 75.3811 31.4129 74.9131 31.4422 74.3737L31.5933 71.517ZM41.3381 73.3402V74.086H38.7885V73.3402H41.3381ZM42.1326 73.3402V78.6147H41.2308V73.3402H42.1326ZM38.5692 73.3402H39.4759L39.3394 75.8849C39.3166 76.2781 39.2793 76.6258 39.2273 76.9281C39.1785 77.2271 39.1103 77.4838 39.0225 77.6983C38.938 77.9128 38.8308 78.0883 38.7008 78.2248C38.574 78.358 38.4213 78.4571 38.2425 78.5221C38.0638 78.5839 37.8574 78.6147 37.6234 78.6147H37.3407V77.8202L37.5357 77.8055C37.6754 77.7958 37.7941 77.7633 37.8916 77.708C37.9923 77.6528 38.0768 77.5715 38.1451 77.4643C38.2133 77.3538 38.2685 77.2124 38.3108 77.0402C38.3563 76.8679 38.3904 76.6632 38.4132 76.426C38.4392 76.1887 38.4587 75.9125 38.4717 75.5972L38.5692 73.3402ZM44.6529 76.0993H45.6279L44.1021 78.6147H43.1271L44.6529 76.0993ZM45.4085 73.3402H47.6119V78.6147H46.7101V74.0714H45.4085C45.1518 74.0714 44.9422 74.1153 44.7797 74.203C44.6172 74.2875 44.4986 74.398 44.4238 74.5345C44.3491 74.671 44.3117 74.8124 44.3117 74.9586C44.3117 75.1016 44.3458 75.2398 44.4141 75.373C44.4823 75.503 44.5895 75.6102 44.7358 75.6947C44.882 75.7792 45.0705 75.8215 45.3013 75.8215H46.9538V76.5625H45.3013C44.999 76.5625 44.7309 76.5218 44.4969 76.4406C44.2629 76.3593 44.0647 76.2472 43.9022 76.1042C43.7397 75.958 43.6162 75.7874 43.5317 75.5924C43.4472 75.3941 43.405 75.1796 43.405 74.9489C43.405 74.7181 43.4488 74.5053 43.5366 74.3103C43.6276 74.1153 43.7576 73.9447 43.9266 73.7984C44.0988 73.6522 44.3084 73.5401 44.5554 73.4621C44.8057 73.3808 45.09 73.3402 45.4085 73.3402ZM53.5104 76.0945H52.5404V75.5387H53.4373C53.6876 75.5387 53.8858 75.5079 54.0321 75.4461C54.1783 75.3811 54.2823 75.2918 54.344 75.178C54.4058 75.0643 54.4367 74.931 54.4367 74.7783C54.4367 74.6418 54.4009 74.5134 54.3294 74.3932C54.2612 74.2697 54.1507 74.1705 53.9979 74.0958C53.8452 74.0178 53.6404 73.9788 53.3837 73.9788C53.1757 73.9788 52.9872 74.0162 52.8182 74.0909C52.6492 74.1624 52.5144 74.2615 52.4136 74.3883C52.3161 74.5118 52.2674 74.6515 52.2674 74.8075H51.3655C51.3655 74.4858 51.4565 74.2095 51.6385 73.9788C51.8238 73.7448 52.0691 73.5644 52.3746 73.4377C52.6834 73.311 53.0197 73.2476 53.3837 73.2476C53.6892 73.2476 53.9622 73.2817 54.2027 73.35C54.4464 73.415 54.6528 73.5124 54.8218 73.6424C54.9908 73.7692 55.1191 73.9284 55.2069 74.1202C55.2979 74.3087 55.3434 74.528 55.3434 74.7783C55.3434 74.957 55.3011 75.126 55.2166 75.2853C55.1321 75.4445 55.0103 75.5859 54.851 75.7094C54.6918 75.8296 54.4984 75.9239 54.2709 75.9921C54.0467 76.0603 53.7932 76.0945 53.5104 76.0945ZM52.5404 75.7532H53.5104C53.8257 75.7532 54.1035 75.7841 54.344 75.8459C54.5845 75.9044 54.786 75.9921 54.9485 76.1091C55.111 76.2261 55.2329 76.3707 55.3141 76.543C55.3986 76.7119 55.4409 76.9069 55.4409 77.1279C55.4409 77.3749 55.3905 77.5975 55.2898 77.7958C55.1923 77.9908 55.0525 78.1565 54.8705 78.293C54.6885 78.4295 54.4708 78.5335 54.2173 78.605C53.9671 78.6765 53.6892 78.7122 53.3837 78.7122C53.0425 78.7122 52.711 78.6537 52.3892 78.5367C52.0675 78.4198 51.8026 78.2394 51.5946 77.9956C51.3867 77.7487 51.2827 77.435 51.2827 77.0548H52.1845C52.1845 77.2141 52.2349 77.3652 52.3356 77.5082C52.4364 77.6512 52.5761 77.7665 52.7549 77.8543C52.9368 77.942 53.1465 77.9859 53.3837 77.9859C53.6372 77.9859 53.8484 77.9469 54.0174 77.8689C54.1864 77.7909 54.3132 77.6869 54.3977 77.5569C54.4854 77.4269 54.5293 77.2855 54.5293 77.1328C54.5293 76.9346 54.4903 76.7753 54.4123 76.6551C54.3343 76.5348 54.214 76.4471 54.0515 76.3918C53.8923 76.3333 53.6876 76.3041 53.4373 76.3041H52.5404V75.7532ZM59.721 77.7129V74.9976C59.721 74.7896 59.6787 74.6093 59.5942 74.4565C59.513 74.3005 59.3895 74.1803 59.2237 74.0958C59.058 74.0113 58.8532 73.9691 58.6095 73.9691C58.382 73.9691 58.1821 74.0081 58.0099 74.086C57.8409 74.164 57.7077 74.2664 57.6102 74.3932C57.5159 74.5199 57.4688 74.6564 57.4688 74.8026H56.5669C56.5669 74.6142 56.6157 74.4273 56.7132 74.242C56.8107 74.0568 56.9504 73.8894 57.1324 73.7399C57.3177 73.5872 57.5387 73.4669 57.7954 73.3792C58.0554 73.2882 58.3446 73.2427 58.6631 73.2427C59.0466 73.2427 59.3846 73.3077 59.6771 73.4377C59.9728 73.5677 60.2036 73.7643 60.3693 74.0276C60.5383 74.2875 60.6228 74.6142 60.6228 75.0074V77.4643C60.6228 77.6398 60.6374 77.8267 60.6667 78.0249C60.6992 78.2231 60.7463 78.3938 60.808 78.5367V78.6147H59.8672C59.8217 78.5108 59.7859 78.3726 59.7599 78.2004C59.734 78.0249 59.721 77.8624 59.721 77.7129ZM59.8769 75.4169L59.8867 76.0506H58.9751C58.7184 76.0506 58.4892 76.0717 58.2878 76.114C58.0863 76.153 57.9173 76.2131 57.7808 76.2943C57.6443 76.3756 57.5403 76.478 57.4688 76.6015C57.3973 76.7217 57.3615 76.8631 57.3615 77.0256C57.3615 77.1913 57.3989 77.3424 57.4737 77.4789C57.5484 77.6154 57.6605 77.7243 57.81 77.8055C57.9628 77.8835 58.1496 77.9225 58.3706 77.9225C58.6469 77.9225 58.8906 77.864 59.1018 77.747C59.3131 77.63 59.4805 77.487 59.604 77.318C59.7307 77.1491 59.7989 76.9849 59.8087 76.8257L60.1938 77.2595C60.1711 77.396 60.1093 77.5472 60.0086 77.7129C59.9078 77.8787 59.7729 78.0379 59.604 78.1906C59.4382 78.3401 59.24 78.4653 59.0092 78.566C58.7817 78.6635 58.525 78.7122 58.239 78.7122C57.8815 78.7122 57.5679 78.6424 57.2982 78.5026C57.0317 78.3629 56.8237 78.176 56.6742 77.942C56.528 77.7048 56.4548 77.4399 56.4548 77.1474C56.4548 76.8647 56.5101 76.6161 56.6206 76.4016C56.7311 76.1838 56.8903 76.0035 57.0983 75.8605C57.3063 75.7142 57.5565 75.6037 57.849 75.529C58.1415 75.4542 58.4681 75.4169 58.8289 75.4169H59.8769ZM69.3731 77.8738L69.2853 80.1796H68.481V78.6147H67.7936V77.8738H69.3731ZM62.0657 73.3402H62.9676V77.8738H64.898V73.3402H65.8047V77.8738H67.7303V73.3402H68.6321V78.6147H62.0657V73.3402ZM71.284 77.1864L73.7165 73.3402H74.6232V78.6147H73.7165V74.7685L71.284 78.6147H70.387V73.3402H71.284V77.1864ZM78.2208 73.3402V78.6147H77.3141V73.3402H78.2208ZM79.9904 73.3402V74.0714H75.5787V73.3402H79.9904ZM81.6186 75.1536H83.2029C83.6286 75.1536 83.9877 75.2284 84.2802 75.3779C84.5727 75.5241 84.7937 75.7272 84.9432 75.9872C85.096 76.244 85.1723 76.5365 85.1723 76.8647C85.1723 77.1084 85.1301 77.3375 85.0456 77.552C84.9611 77.7633 84.8343 77.9485 84.6653 78.1078C84.4996 78.267 84.2932 78.3921 84.0462 78.4831C83.8025 78.5709 83.5214 78.6147 83.2029 78.6147H80.9605V73.3402H81.8623V77.8738H83.2029C83.4629 77.8738 83.6709 77.8267 83.8269 77.7324C83.9829 77.6382 84.095 77.5163 84.1632 77.3668C84.2315 77.2173 84.2656 77.0613 84.2656 76.8988C84.2656 76.7396 84.2315 76.5836 84.1632 76.4308C84.095 76.2781 83.9829 76.1513 83.8269 76.0506C83.6709 75.9466 83.4629 75.8946 83.2029 75.8946H81.6186V75.1536ZM87.0491 73.3402V78.6147H86.1473V73.3402H87.0491ZM92.0068 74.3542V80.6427H91.1001V73.3402H91.9288L92.0068 74.3542ZM95.5605 75.9336V76.036C95.5605 76.4195 95.515 76.7753 95.424 77.1036C95.333 77.4285 95.1998 77.7113 95.0243 77.9518C94.8521 78.1923 94.6392 78.3791 94.3857 78.5124C94.1322 78.6456 93.8414 78.7122 93.5131 78.7122C93.1784 78.7122 92.8826 78.657 92.6259 78.5465C92.3692 78.436 92.1514 78.2751 91.9727 78.0639C91.7939 77.8527 91.6509 77.5992 91.5437 77.3034C91.4397 77.0077 91.3682 76.6746 91.3292 76.3041V75.7581C91.3682 75.3681 91.4413 75.0188 91.5486 74.71C91.6558 74.4013 91.7972 74.138 91.9727 73.9203C92.1514 73.6993 92.3675 73.5319 92.621 73.4182C92.8745 73.3012 93.167 73.2427 93.4985 73.2427C93.83 73.2427 94.1241 73.3077 94.3808 73.4377C94.6376 73.5644 94.8537 73.7464 95.0292 73.9837C95.2047 74.2209 95.3363 74.5053 95.424 74.8368C95.515 75.165 95.5605 75.5306 95.5605 75.9336ZM94.6538 76.036V75.9336C94.6538 75.6704 94.6262 75.4234 94.571 75.1926C94.5157 74.9586 94.4296 74.7539 94.3126 74.5784C94.1988 74.3997 94.0526 74.2599 93.8739 74.1592C93.6951 74.0552 93.4822 74.0032 93.2353 74.0032C93.0078 74.0032 92.8095 74.0422 92.6405 74.1202C92.4748 74.1982 92.3334 74.3038 92.2164 74.437C92.0994 74.567 92.0036 74.7165 91.9288 74.8855C91.8573 75.0513 91.8037 75.2235 91.7679 75.4022V76.6648C91.8329 76.8923 91.9239 77.1068 92.0409 77.3083C92.1579 77.5065 92.3139 77.6674 92.5089 77.7909C92.7039 77.9111 92.9493 77.9713 93.245 77.9713C93.4887 77.9713 93.6984 77.9209 93.8739 77.8202C94.0526 77.7162 94.1988 77.5748 94.3126 77.396C94.4296 77.2173 94.5157 77.0126 94.571 76.7818C94.6262 76.5478 94.6538 76.2992 94.6538 76.036ZM98.8998 78.7122C98.5325 78.7122 98.1994 78.6505 97.9004 78.527C97.6047 78.4003 97.3496 78.2231 97.1351 77.9956C96.9239 77.7682 96.7614 77.4984 96.6476 77.1864C96.5339 76.8744 96.477 76.5332 96.477 76.1627V75.958C96.477 75.529 96.5404 75.1471 96.6671 74.8124C96.7939 74.4744 96.9661 74.1884 97.1838 73.9544C97.4016 73.7204 97.6486 73.5433 97.9248 73.4231C98.2011 73.3028 98.487 73.2427 98.7828 73.2427C99.1598 73.2427 99.4848 73.3077 99.7577 73.4377C100.034 73.5677 100.26 73.7497 100.435 73.9837C100.611 74.2144 100.741 74.4874 100.825 74.8026C100.91 75.1146 100.952 75.4559 100.952 75.8264V76.231H97.0132V75.4949H100.05V75.4266C100.037 75.1926 99.9885 74.9651 99.904 74.7441C99.8227 74.5232 99.6927 74.3412 99.514 74.1982C99.3353 74.0552 99.0915 73.9837 98.7828 73.9837C98.578 73.9837 98.3896 74.0276 98.2173 74.1153C98.0451 74.1998 97.8972 74.3265 97.7737 74.4955C97.6502 74.6645 97.5543 74.8709 97.4861 75.1146C97.4178 75.3584 97.3837 75.6395 97.3837 75.958V76.1627C97.3837 76.413 97.4178 76.6486 97.4861 76.8696C97.5576 77.0873 97.66 77.279 97.7932 77.4448C97.9297 77.6105 98.0938 77.7405 98.2856 77.8348C98.4805 77.929 98.7015 77.9761 98.9485 77.9761C99.267 77.9761 99.5368 77.9111 99.7577 77.7812C99.9787 77.6512 100.172 77.4773 100.338 77.2595L100.884 77.6934C100.77 77.8657 100.625 78.0298 100.45 78.1858C100.274 78.3418 100.058 78.4685 99.8016 78.566C99.5481 78.6635 99.2475 78.7122 98.8998 78.7122ZM102.985 73.3402V78.6147H102.083V73.3402H102.985ZM106.446 73.3402L103.945 76.3626H102.683L102.546 75.5729H103.58L105.349 73.3402H106.446ZM105.476 78.6147L103.536 76.2261L104.116 75.5729L106.621 78.6147H105.476ZM110.931 73.3402V74.086H108.381V73.3402H110.931ZM111.725 73.3402V78.6147H110.824V73.3402H111.725ZM108.162 73.3402H109.069L108.932 75.8849C108.909 76.2781 108.872 76.6258 108.82 76.9281C108.771 77.2271 108.703 77.4838 108.615 77.6983C108.531 77.9128 108.424 78.0883 108.294 78.2248C108.167 78.358 108.014 78.4571 107.835 78.5221C107.657 78.5839 107.45 78.6147 107.216 78.6147H106.933V77.8202L107.128 77.8055C107.268 77.7958 107.387 77.7633 107.484 77.708C107.585 77.6528 107.67 77.5715 107.738 77.4643C107.806 77.3538 107.861 77.2124 107.904 77.0402C107.949 76.8679 107.983 76.6632 108.006 76.426C108.032 76.1887 108.051 75.9125 108.064 75.5972L108.162 73.3402ZM116.288 77.7129V74.9976C116.288 74.7896 116.246 74.6093 116.161 74.4565C116.08 74.3005 115.957 74.1803 115.791 74.0958C115.625 74.0113 115.421 73.9691 115.177 73.9691C114.949 73.9691 114.749 74.0081 114.577 74.086C114.408 74.164 114.275 74.2664 114.177 74.3932C114.083 74.5199 114.036 74.6564 114.036 74.8026H113.134C113.134 74.6142 113.183 74.4273 113.28 74.242C113.378 74.0568 113.518 73.8894 113.7 73.7399C113.885 73.5872 114.106 73.4669 114.363 73.3792C114.623 73.2882 114.912 73.2427 115.23 73.2427C115.614 73.2427 115.952 73.3077 116.244 73.4377C116.54 73.5677 116.771 73.7643 116.937 74.0276C117.106 74.2875 117.19 74.6142 117.19 75.0074V77.4643C117.19 77.6398 117.205 77.8267 117.234 78.0249C117.266 78.2231 117.314 78.3938 117.375 78.5367V78.6147H116.434C116.389 78.5108 116.353 78.3726 116.327 78.2004C116.301 78.0249 116.288 77.8624 116.288 77.7129ZM116.444 75.4169L116.454 76.0506H115.542C115.286 76.0506 115.057 76.0717 114.855 76.114C114.654 76.153 114.485 76.2131 114.348 76.2943C114.212 76.3756 114.108 76.478 114.036 76.6015C113.965 76.7217 113.929 76.8631 113.929 77.0256C113.929 77.1913 113.966 77.3424 114.041 77.4789C114.116 77.6154 114.228 77.7243 114.377 77.8055C114.53 77.8835 114.717 77.9225 114.938 77.9225C115.214 77.9225 115.458 77.864 115.669 77.747C115.88 77.63 116.048 77.487 116.171 77.318C116.298 77.1491 116.366 76.9849 116.376 76.8257L116.761 77.2595C116.738 77.396 116.677 77.5472 116.576 77.7129C116.475 77.8787 116.34 78.0379 116.171 78.1906C116.005 78.3401 115.807 78.4653 115.576 78.566C115.349 78.6635 115.092 78.7122 114.806 78.7122C114.449 78.7122 114.135 78.6424 113.865 78.5026C113.599 78.3629 113.391 78.176 113.241 77.942C113.095 77.7048 113.022 77.4399 113.022 77.1474C113.022 76.8647 113.077 76.6161 113.188 76.4016C113.298 76.1838 113.458 76.0035 113.666 75.8605C113.874 75.7142 114.124 75.6037 114.416 75.529C114.709 75.4542 115.035 75.4169 115.396 75.4169H116.444ZM121.641 77.4155L123.435 73.3402H124.302L121.953 78.6147H121.329L118.989 73.3402H119.857L121.641 77.4155ZM119.593 73.3402V78.6147H118.691V73.3402H119.593ZM123.659 78.6147V73.3402H124.566V78.6147H123.659ZM129.596 75.6265V76.3577H126.808V75.6265H129.596ZM126.998 73.3402V78.6147H126.096V73.3402H126.998ZM130.328 73.3402V78.6147H129.421V73.3402H130.328ZM132.521 75.1536H134.106C134.531 75.1536 134.89 75.2284 135.183 75.3779C135.475 75.5241 135.696 75.7272 135.846 75.9872C135.999 76.244 136.075 76.5365 136.075 76.8647C136.075 77.1084 136.033 77.3375 135.948 77.552C135.864 77.7633 135.737 77.9485 135.568 78.1078C135.402 78.267 135.196 78.3921 134.949 78.4831C134.705 78.5709 134.424 78.6147 134.106 78.6147H131.863V73.3402H132.765V77.8738H134.106C134.366 77.8738 134.574 77.8267 134.73 77.7324C134.886 77.6382 134.998 77.5163 135.066 77.3668C135.134 77.2173 135.168 77.0613 135.168 76.8988C135.168 76.7396 135.134 76.5836 135.066 76.4308C134.998 76.2781 134.886 76.1513 134.73 76.0506C134.574 75.9466 134.366 75.8946 134.106 75.8946H132.521V75.1536ZM137.952 73.3402V78.6147H137.05V73.3402H137.952ZM140.141 73.3402L141.296 75.2609L142.466 73.3402H143.524L141.798 75.9434L143.577 78.6147H142.534L141.315 76.6356L140.097 78.6147H139.049L140.823 75.9434L139.102 73.3402H140.141ZM147.94 73.3402V78.6147H147.039V73.3402H147.94ZM151.401 73.3402L148.901 76.3626H147.638L147.502 75.5729H148.535L150.305 73.3402H151.401ZM150.431 78.6147L148.491 76.2261L149.071 75.5729L151.577 78.6147H150.431ZM155.472 77.7129V74.9976C155.472 74.7896 155.43 74.6093 155.345 74.4565C155.264 74.3005 155.14 74.1803 154.975 74.0958C154.809 74.0113 154.604 73.9691 154.36 73.9691C154.133 73.9691 153.933 74.0081 153.761 74.086C153.592 74.164 153.459 74.2664 153.361 74.3932C153.267 74.5199 153.22 74.6564 153.22 74.8026H152.318C152.318 74.6142 152.367 74.4273 152.464 74.242C152.562 74.0568 152.701 73.8894 152.883 73.7399C153.069 73.5872 153.29 73.4669 153.546 73.3792C153.806 73.2882 154.096 73.2427 154.414 73.2427C154.798 73.2427 155.136 73.3077 155.428 73.4377C155.724 73.5677 155.955 73.7643 156.12 74.0276C156.289 74.2875 156.374 74.6142 156.374 75.0074V77.4643C156.374 77.6398 156.388 77.8267 156.418 78.0249C156.45 78.2231 156.497 78.3938 156.559 78.5367V78.6147H155.618C155.573 78.5108 155.537 78.3726 155.511 78.2004C155.485 78.0249 155.472 77.8624 155.472 77.7129ZM155.628 75.4169L155.638 76.0506H154.726C154.469 76.0506 154.24 76.0717 154.039 76.114C153.837 76.153 153.668 76.2131 153.532 76.2943C153.395 76.3756 153.291 76.478 153.22 76.6015C153.148 76.7217 153.113 76.8631 153.113 77.0256C153.113 77.1913 153.15 77.3424 153.225 77.4789C153.299 77.6154 153.412 77.7243 153.561 77.8055C153.714 77.8835 153.901 77.9225 154.122 77.9225C154.398 77.9225 154.642 77.864 154.853 77.747C155.064 77.63 155.231 77.487 155.355 77.318C155.482 77.1491 155.55 76.9849 155.56 76.8257L155.945 77.2595C155.922 77.396 155.86 77.5472 155.76 77.7129C155.659 77.8787 155.524 78.0379 155.355 78.1906C155.189 78.3401 154.991 78.4653 154.76 78.566C154.533 78.6635 154.276 78.7122 153.99 78.7122C153.632 78.7122 153.319 78.6424 153.049 78.5026C152.783 78.3629 152.575 78.176 152.425 77.942C152.279 77.7048 152.206 77.4399 152.206 77.1474C152.206 76.8647 152.261 76.6161 152.372 76.4016C152.482 76.1838 152.641 76.0035 152.849 75.8605C153.057 75.7142 153.308 75.6037 153.6 75.529C153.892 75.4542 154.219 75.4169 154.58 75.4169H155.628ZM160.824 77.4155L162.618 73.3402H163.486L161.136 78.6147H160.512L158.173 73.3402H159.04L160.824 77.4155ZM158.777 73.3402V78.6147H157.875V73.3402H158.777ZM162.843 78.6147V73.3402H163.749V78.6147H162.843ZM168.717 73.3402V74.086H166.05V73.3402H168.717ZM166.182 73.3402V78.6147H165.28V73.3402H166.182ZM169.516 73.3402V78.6147H168.61V73.3402H169.516ZM174.074 77.7129V74.9976C174.074 74.7896 174.032 74.6093 173.947 74.4565C173.866 74.3005 173.743 74.1803 173.577 74.0958C173.411 74.0113 173.206 73.9691 172.963 73.9691C172.735 73.9691 172.535 74.0081 172.363 74.086C172.194 74.164 172.061 74.2664 171.963 74.3932C171.869 74.5199 171.822 74.6564 171.822 74.8026H170.92C170.92 74.6142 170.969 74.4273 171.066 74.242C171.164 74.0568 171.304 73.8894 171.486 73.7399C171.671 73.5872 171.892 73.4669 172.149 73.3792C172.409 73.2882 172.698 73.2427 173.016 73.2427C173.4 73.2427 173.738 73.3077 174.03 73.4377C174.326 73.5677 174.557 73.7643 174.723 74.0276C174.892 74.2875 174.976 74.6142 174.976 75.0074V77.4643C174.976 77.6398 174.991 77.8267 175.02 78.0249C175.052 78.2231 175.1 78.3938 175.161 78.5367V78.6147H174.22C174.175 78.5108 174.139 78.3726 174.113 78.2004C174.087 78.0249 174.074 77.8624 174.074 77.7129ZM174.23 75.4169L174.24 76.0506H173.328C173.072 76.0506 172.842 76.0717 172.641 76.114C172.44 76.153 172.271 76.2131 172.134 76.2943C171.998 76.3756 171.894 76.478 171.822 76.6015C171.751 76.7217 171.715 76.8631 171.715 77.0256C171.715 77.1913 171.752 77.3424 171.827 77.4789C171.902 77.6154 172.014 77.7243 172.163 77.8055C172.316 77.8835 172.503 77.9225 172.724 77.9225C173 77.9225 173.244 77.864 173.455 77.747C173.666 77.63 173.834 77.487 173.957 77.318C174.084 77.1491 174.152 76.9849 174.162 76.8257L174.547 77.2595C174.524 77.396 174.463 77.5472 174.362 77.7129C174.261 77.8787 174.126 78.0379 173.957 78.1906C173.791 78.3401 173.593 78.4653 173.362 78.566C173.135 78.6635 172.878 78.7122 172.592 78.7122C172.235 78.7122 171.921 78.6424 171.651 78.5026C171.385 78.3629 171.177 78.176 171.027 77.942C170.881 77.7048 170.808 77.4399 170.808 77.1474C170.808 76.8647 170.863 76.6161 170.974 76.4016C171.084 76.1838 171.244 76.0035 171.452 75.8605C171.66 75.7142 171.91 75.6037 172.202 75.529C172.495 75.4542 172.821 75.4169 173.182 75.4169H174.23ZM179.973 75.6265V76.3577H177.184V75.6265H179.973ZM177.374 73.3402V78.6147H176.473V73.3402H177.374ZM180.704 73.3402V78.6147H179.797V73.3402H180.704ZM183.132 77.1864L185.564 73.3402H186.471V78.6147H185.564V74.7685L183.132 78.6147H182.235V73.3402H183.132V77.1864ZM188.894 77.1864L191.326 73.3402H192.233V78.6147H191.326V74.7685L188.894 78.6147H187.997V73.3402H188.894V77.1864ZM190.834 71.4293H191.565C191.565 71.6828 191.506 71.9086 191.39 72.1069C191.273 72.3019 191.105 72.4546 190.887 72.5651C190.67 72.6756 190.411 72.7309 190.112 72.7309C189.661 72.7309 189.303 72.6106 189.04 72.3701C188.78 72.1264 188.65 71.8128 188.65 71.4293H189.381C189.381 71.621 189.436 71.79 189.547 71.9363C189.657 72.0825 189.846 72.1556 190.112 72.1556C190.372 72.1556 190.558 72.0825 190.668 71.9363C190.779 71.79 190.834 71.621 190.834 71.4293ZM199.735 75.6265V76.3577H196.947V75.6265H199.735ZM197.137 73.3402V78.6147H196.235V73.3402H197.137ZM200.466 73.3402V78.6147H199.56V73.3402H200.466ZM205.029 77.7129V74.9976C205.029 74.7896 204.987 74.6093 204.902 74.4565C204.821 74.3005 204.698 74.1803 204.532 74.0958C204.366 74.0113 204.162 73.9691 203.918 73.9691C203.69 73.9691 203.49 74.0081 203.318 74.086C203.149 74.164 203.016 74.2664 202.918 74.3932C202.824 74.5199 202.777 74.6564 202.777 74.8026H201.875C201.875 74.6142 201.924 74.4273 202.021 74.242C202.119 74.0568 202.259 73.8894 202.441 73.7399C202.626 73.5872 202.847 73.4669 203.104 73.3792C203.364 73.2882 203.653 73.2427 203.971 73.2427C204.355 73.2427 204.693 73.3077 204.985 73.4377C205.281 73.5677 205.512 73.7643 205.678 74.0276C205.847 74.2875 205.931 74.6142 205.931 75.0074V77.4643C205.931 77.6398 205.946 77.8267 205.975 78.0249C206.007 78.2231 206.055 78.3938 206.116 78.5367V78.6147H205.175C205.13 78.5108 205.094 78.3726 205.068 78.2004C205.042 78.0249 205.029 77.8624 205.029 77.7129ZM205.185 75.4169L205.195 76.0506H204.283C204.027 76.0506 203.798 76.0717 203.596 76.114C203.395 76.153 203.226 76.2131 203.089 76.2943C202.953 76.3756 202.849 76.478 202.777 76.6015C202.706 76.7217 202.67 76.8631 202.67 77.0256C202.67 77.1913 202.707 77.3424 202.782 77.4789C202.857 77.6154 202.969 77.7243 203.118 77.8055C203.271 77.8835 203.458 77.9225 203.679 77.9225C203.955 77.9225 204.199 77.864 204.41 77.747C204.621 77.63 204.789 77.487 204.912 77.318C205.039 77.1491 205.107 76.9849 205.117 76.8257L205.502 77.2595C205.479 77.396 205.418 77.5472 205.317 77.7129C205.216 77.8787 205.081 78.0379 204.912 78.1906C204.746 78.3401 204.548 78.4653 204.318 78.566C204.09 78.6635 203.833 78.7122 203.547 78.7122C203.19 78.7122 202.876 78.6424 202.606 78.5026C202.34 78.3629 202.132 78.176 201.982 77.942C201.836 77.7048 201.763 77.4399 201.763 77.1474C201.763 76.8647 201.818 76.6161 201.929 76.4016C202.039 76.1838 202.199 76.0035 202.407 75.8605C202.615 75.7142 202.865 75.6037 203.157 75.529C203.45 75.4542 203.776 75.4169 204.137 75.4169H205.185ZM210.382 77.4155L212.176 73.3402H213.043L210.694 78.6147H210.07L207.73 73.3402H208.598L210.382 77.4155ZM208.334 73.3402V78.6147H207.432V73.3402H208.334ZM212.4 78.6147V73.3402H213.307V78.6147H212.4ZM220.814 75.6265V76.3577H218.025V75.6265H220.814ZM218.216 73.3402V78.6147H217.314V73.3402H218.216ZM221.545 73.3402V78.6147H220.638V73.3402H221.545ZM225.187 78.7122C224.819 78.7122 224.486 78.6505 224.187 78.527C223.891 78.4003 223.636 78.2231 223.422 77.9956C223.211 77.7682 223.048 77.4984 222.934 77.1864C222.821 76.8744 222.764 76.5332 222.764 76.1627V75.958C222.764 75.529 222.827 75.1471 222.954 74.8124C223.081 74.4744 223.253 74.1884 223.471 73.9544C223.688 73.7204 223.935 73.5433 224.212 73.4231C224.488 73.3028 224.774 73.2427 225.07 73.2427C225.447 73.2427 225.772 73.3077 226.045 73.4377C226.321 73.5677 226.547 73.7497 226.722 73.9837C226.898 74.2144 227.028 74.4874 227.112 74.8026C227.197 75.1146 227.239 75.4559 227.239 75.8264V76.231H223.3V75.4949H226.337V75.4266C226.324 75.1926 226.275 74.9651 226.191 74.7441C226.11 74.5232 225.98 74.3412 225.801 74.1982C225.622 74.0552 225.378 73.9837 225.07 73.9837C224.865 73.9837 224.676 74.0276 224.504 74.1153C224.332 74.1998 224.184 74.3265 224.06 74.4955C223.937 74.6645 223.841 74.8709 223.773 75.1146C223.705 75.3584 223.67 75.6395 223.67 75.958V76.1627C223.67 76.413 223.705 76.6486 223.773 76.8696C223.844 77.0873 223.947 77.279 224.08 77.4448C224.216 77.6105 224.381 77.7405 224.572 77.8348C224.767 77.929 224.988 77.9761 225.235 77.9761C225.554 77.9761 225.824 77.9111 226.045 77.7812C226.266 77.6512 226.459 77.4773 226.625 77.2595L227.171 77.6934C227.057 77.8657 226.912 78.0298 226.737 78.1858C226.561 78.3418 226.345 78.4685 226.088 78.566C225.835 78.6635 225.534 78.7122 225.187 78.7122ZM228.053 76.036V75.9239C228.053 75.5436 228.108 75.191 228.219 74.866C228.329 74.5378 228.488 74.2534 228.696 74.0129C228.904 73.7692 229.156 73.5807 229.452 73.4474C229.748 73.311 230.079 73.2427 230.446 73.2427C230.817 73.2427 231.15 73.311 231.446 73.4474C231.745 73.5807 231.998 73.7692 232.206 74.0129C232.418 74.2534 232.578 74.5378 232.689 74.866C232.799 75.191 232.855 75.5436 232.855 75.9239V76.036C232.855 76.4162 232.799 76.7688 232.689 77.0938C232.578 77.4188 232.418 77.7032 232.206 77.9469C231.998 78.1874 231.746 78.3759 231.451 78.5124C231.158 78.6456 230.827 78.7122 230.456 78.7122C230.086 78.7122 229.753 78.6456 229.457 78.5124C229.161 78.3759 228.908 78.1874 228.696 77.9469C228.488 77.7032 228.329 77.4188 228.219 77.0938C228.108 76.7688 228.053 76.4162 228.053 76.036ZM228.955 75.9239V76.036C228.955 76.2992 228.986 76.5478 229.047 76.7818C229.109 77.0126 229.202 77.2173 229.325 77.396C229.452 77.5748 229.61 77.7162 229.798 77.8202C229.987 77.9209 230.206 77.9713 230.456 77.9713C230.703 77.9713 230.919 77.9209 231.105 77.8202C231.293 77.7162 231.449 77.5748 231.573 77.396C231.696 77.2173 231.789 77.0126 231.85 76.7818C231.915 76.5478 231.948 76.2992 231.948 76.036V75.9239C231.948 75.6639 231.915 75.4185 231.85 75.1878C231.789 74.9538 231.694 74.7474 231.568 74.5687C231.444 74.3867 231.288 74.2437 231.1 74.1397C230.914 74.0357 230.697 73.9837 230.446 73.9837C230.199 73.9837 229.982 74.0357 229.793 74.1397C229.608 74.2437 229.452 74.3867 229.325 74.5687C229.202 74.7474 229.109 74.9538 229.047 75.1878C228.986 75.4185 228.955 75.6639 228.955 75.9239ZM237.369 71.0442H238.11C238.11 71.3627 238.061 71.6161 237.963 71.8046C237.866 71.9899 237.733 72.1329 237.564 72.2336C237.398 72.3344 237.209 72.4107 236.998 72.4627C236.79 72.5147 236.574 72.5651 236.35 72.6139C236.07 72.6724 235.81 72.765 235.57 72.8917C235.333 73.0152 235.128 73.1907 234.956 73.4182C234.787 73.6457 234.662 73.9414 234.58 74.3054C234.502 74.6694 234.481 75.1195 234.517 75.6557V76.1042H233.776V75.6557C233.776 75.0545 233.833 74.5297 233.947 74.0812C234.064 73.6327 234.228 73.2541 234.439 72.9453C234.65 72.6366 234.9 72.3912 235.19 72.2092C235.482 72.0273 235.804 71.9021 236.155 71.8339C236.408 71.7851 236.626 71.7331 236.808 71.6779C236.99 71.6194 237.128 71.5414 237.222 71.4439C237.32 71.3464 237.369 71.2132 237.369 71.0442ZM236.301 73.6424C236.646 73.6424 236.953 73.7026 237.222 73.8228C237.492 73.9431 237.721 74.1104 237.91 74.3249C238.098 74.5394 238.241 74.7929 238.339 75.0854C238.44 75.3746 238.49 75.6899 238.49 76.0311V76.1383C238.49 76.5056 238.436 76.8468 238.329 77.1621C238.225 77.474 238.071 77.747 237.866 77.981C237.664 78.2118 237.417 78.3921 237.125 78.5221C236.836 78.6521 236.506 78.7171 236.135 78.7171C235.765 78.7171 235.433 78.6521 235.141 78.5221C234.852 78.3921 234.605 78.2118 234.4 77.981C234.195 77.747 234.039 77.474 233.932 77.1621C233.828 76.8468 233.776 76.5056 233.776 76.1383V76.0311C233.776 75.9499 233.791 75.8702 233.82 75.7922C233.849 75.7142 233.885 75.6346 233.927 75.5534C233.973 75.4721 234.013 75.386 234.049 75.295C234.169 75.0025 234.333 74.7311 234.541 74.4809C234.753 74.2307 235.004 74.0292 235.297 73.8764C235.593 73.7204 235.927 73.6424 236.301 73.6424ZM236.126 74.3785C235.794 74.3785 235.521 74.4549 235.307 74.6077C235.095 74.7604 234.938 74.9635 234.834 75.217C234.73 75.4672 234.678 75.7386 234.678 76.0311V76.1383C234.678 76.3853 234.707 76.6193 234.766 76.8403C234.824 77.0613 234.912 77.2579 235.029 77.4302C235.149 77.5992 235.3 77.7324 235.482 77.8299C235.667 77.9274 235.885 77.9761 236.135 77.9761C236.386 77.9761 236.602 77.9274 236.784 77.8299C236.966 77.7324 237.115 77.5992 237.232 77.4302C237.349 77.2579 237.437 77.0613 237.495 76.8403C237.554 76.6193 237.583 76.3853 237.583 76.1383V76.0311C237.583 75.8101 237.554 75.6005 237.495 75.4022C237.437 75.204 237.348 75.0285 237.227 74.8758C237.11 74.723 236.959 74.6028 236.774 74.515C236.592 74.424 236.376 74.3785 236.126 74.3785ZM240.045 73.3402L241.2 75.2609L242.37 73.3402H243.428L241.702 75.9434L243.482 78.6147H242.438L241.22 76.6356L240.001 78.6147H238.953L240.727 75.9434L239.007 73.3402H240.045ZM244.052 76.036V75.9239C244.052 75.5436 244.107 75.191 244.218 74.866C244.328 74.5378 244.488 74.2534 244.696 74.0129C244.904 73.7692 245.155 73.5807 245.451 73.4474C245.747 73.311 246.078 73.2427 246.446 73.2427C246.816 73.2427 247.149 73.311 247.445 73.4474C247.744 73.5807 247.997 73.7692 248.205 74.0129C248.417 74.2534 248.578 74.5378 248.688 74.866C248.798 75.191 248.854 75.5436 248.854 75.9239V76.036C248.854 76.4162 248.798 76.7688 248.688 77.0938C248.578 77.4188 248.417 77.7032 248.205 77.9469C247.997 78.1874 247.746 78.3759 247.45 78.5124C247.157 78.6456 246.826 78.7122 246.455 78.7122C246.085 78.7122 245.752 78.6456 245.456 78.5124C245.16 78.3759 244.907 78.1874 244.696 77.9469C244.488 77.7032 244.328 77.4188 244.218 77.0938C244.107 76.7688 244.052 76.4162 244.052 76.036ZM244.954 75.9239V76.036C244.954 76.2992 244.985 76.5478 245.047 76.7818C245.108 77.0126 245.201 77.2173 245.324 77.396C245.451 77.5748 245.609 77.7162 245.797 77.8202C245.986 77.9209 246.205 77.9713 246.455 77.9713C246.702 77.9713 246.918 77.9209 247.104 77.8202C247.292 77.7162 247.448 77.5748 247.572 77.396C247.695 77.2173 247.788 77.0126 247.85 76.7818C247.915 76.5478 247.947 76.2992 247.947 76.036V75.9239C247.947 75.6639 247.915 75.4185 247.85 75.1878C247.788 74.9538 247.694 74.7474 247.567 74.5687C247.443 74.3867 247.287 74.2437 247.099 74.1397C246.914 74.0357 246.696 73.9837 246.446 73.9837C246.199 73.9837 245.981 74.0357 245.792 74.1397C245.607 74.2437 245.451 74.3867 245.324 74.5687C245.201 74.7474 245.108 74.9538 245.047 75.1878C244.985 75.4185 244.954 75.6639 244.954 75.9239ZM250.584 73.3402H251.486L251.408 75.3145C251.389 75.815 251.332 76.2472 251.238 76.6112C251.143 76.9752 251.023 77.2855 250.877 77.5423C250.731 77.7958 250.566 78.0086 250.384 78.1809C250.206 78.3531 250.02 78.4978 249.829 78.6147H249.38L249.405 77.8787L249.59 77.8738C249.697 77.747 249.801 77.617 249.902 77.4838C250.003 77.3473 250.095 77.1864 250.18 77.0012C250.264 76.8127 250.334 76.5836 250.389 76.3138C250.448 76.0408 250.485 75.7077 250.501 75.3145L250.584 73.3402ZM250.809 73.3402H253.982V78.6147H253.08V74.1738H250.809V73.3402ZM249.175 77.8738H254.66V80.1698H253.758V78.6147H250.077V80.1698H249.171L249.175 77.8738ZM256.634 77.1864L259.066 73.3402H259.973V78.6147H259.066V74.7685L256.634 78.6147H255.737V73.3402H256.634V77.1864ZM264.453 77.4155L266.247 73.3402H267.115L264.765 78.6147H264.141L261.801 73.3402H262.669L264.453 77.4155ZM262.406 73.3402V78.6147H261.504V73.3402H262.406ZM266.471 78.6147V73.3402H267.378V78.6147H266.471ZM268.592 76.036V75.9239C268.592 75.5436 268.647 75.191 268.758 74.866C268.868 74.5378 269.027 74.2534 269.235 74.0129C269.443 73.7692 269.695 73.5807 269.991 73.4474C270.287 73.311 270.618 73.2427 270.985 73.2427C271.356 73.2427 271.689 73.311 271.985 73.4474C272.284 73.5807 272.537 73.7692 272.745 74.0129C272.956 74.2534 273.117 74.5378 273.228 74.866C273.338 75.191 273.394 75.5436 273.394 75.9239V76.036C273.394 76.4162 273.338 76.7688 273.228 77.0938C273.117 77.4188 272.956 77.7032 272.745 77.9469C272.537 78.1874 272.285 78.3759 271.99 78.5124C271.697 78.6456 271.366 78.7122 270.995 78.7122C270.625 78.7122 270.292 78.6456 269.996 78.5124C269.7 78.3759 269.447 78.1874 269.235 77.9469C269.027 77.7032 268.868 77.4188 268.758 77.0938C268.647 76.7688 268.592 76.4162 268.592 76.036ZM269.494 75.9239V76.036C269.494 76.2992 269.525 76.5478 269.586 76.7818C269.648 77.0126 269.741 77.2173 269.864 77.396C269.991 77.5748 270.149 77.7162 270.337 77.8202C270.526 77.9209 270.745 77.9713 270.995 77.9713C271.242 77.9713 271.458 77.9209 271.643 77.8202C271.832 77.7162 271.988 77.5748 272.111 77.396C272.235 77.2173 272.328 77.0126 272.389 76.7818C272.454 76.5478 272.487 76.2992 272.487 76.036V75.9239C272.487 75.6639 272.454 75.4185 272.389 75.1878C272.328 74.9538 272.233 74.7474 272.107 74.5687C271.983 74.3867 271.827 74.2437 271.639 74.1397C271.453 74.0357 271.236 73.9837 270.985 73.9837C270.738 73.9837 270.521 74.0357 270.332 74.1397C270.147 74.2437 269.991 74.3867 269.864 74.5687C269.741 74.7474 269.648 74.9538 269.586 75.1878C269.525 75.4185 269.494 75.6639 269.494 75.9239ZM280.516 73.3402V74.086H277.849V73.3402H280.516ZM277.981 73.3402V78.6147H277.079V73.3402H277.981ZM281.315 73.3402V78.6147H280.408V73.3402H281.315ZM282.524 76.036V75.9239C282.524 75.5436 282.579 75.191 282.69 74.866C282.8 74.5378 282.96 74.2534 283.168 74.0129C283.376 73.7692 283.627 73.5807 283.923 73.4474C284.219 73.311 284.55 73.2427 284.918 73.2427C285.288 73.2427 285.621 73.311 285.917 73.4474C286.216 73.5807 286.469 73.7692 286.677 74.0129C286.889 74.2534 287.049 74.5378 287.16 74.866C287.27 75.191 287.326 75.5436 287.326 75.9239V76.036C287.326 76.4162 287.27 76.7688 287.16 77.0938C287.049 77.4188 286.889 77.7032 286.677 77.9469C286.469 78.1874 286.218 78.3759 285.922 78.5124C285.629 78.6456 285.298 78.7122 284.927 78.7122C284.557 78.7122 284.224 78.6456 283.928 78.5124C283.632 78.3759 283.379 78.1874 283.168 77.9469C282.96 77.7032 282.8 77.4188 282.69 77.0938C282.579 76.7688 282.524 76.4162 282.524 76.036ZM283.426 75.9239V76.036C283.426 76.2992 283.457 76.5478 283.519 76.7818C283.58 77.0126 283.673 77.2173 283.796 77.396C283.923 77.5748 284.081 77.7162 284.269 77.8202C284.458 77.9209 284.677 77.9713 284.927 77.9713C285.174 77.9713 285.39 77.9209 285.576 77.8202C285.764 77.7162 285.92 77.5748 286.044 77.396C286.167 77.2173 286.26 77.0126 286.322 76.7818C286.387 76.5478 286.419 76.2992 286.419 76.036V75.9239C286.419 75.6639 286.387 75.4185 286.322 75.1878C286.26 74.9538 286.166 74.7474 286.039 74.5687C285.915 74.3867 285.759 74.2437 285.571 74.1397C285.386 74.0357 285.168 73.9837 284.918 73.9837C284.671 73.9837 284.453 74.0357 284.264 74.1397C284.079 74.2437 283.923 74.3867 283.796 74.5687C283.673 74.7474 283.58 74.9538 283.519 75.1878C283.457 75.4185 283.426 75.6639 283.426 75.9239ZM291.903 73.3402V74.086H289.354V73.3402H291.903ZM292.698 73.3402V78.6147H291.796V73.3402H292.698ZM289.134 73.3402H290.041L289.905 75.8849C289.882 76.2781 289.844 76.6258 289.792 76.9281C289.744 77.2271 289.675 77.4838 289.588 77.6983C289.503 77.9128 289.396 78.0883 289.266 78.2248C289.139 78.358 288.986 78.4571 288.808 78.5221C288.629 78.5839 288.423 78.6147 288.189 78.6147H287.906V77.8202L288.101 77.8055C288.241 77.7958 288.359 77.7633 288.457 77.708C288.557 77.6528 288.642 77.5715 288.71 77.4643C288.778 77.3538 288.834 77.2124 288.876 77.0402C288.921 76.8679 288.956 76.6632 288.978 76.426C289.004 76.1887 289.024 75.9125 289.037 75.5972L289.134 73.3402ZM295.632 78.0688L297.1 73.3402H298.065L295.949 79.4288C295.901 79.5588 295.836 79.6986 295.754 79.8481C295.676 80.0008 295.576 80.1454 295.452 80.2819C295.329 80.4184 295.179 80.5289 295.004 80.6134C294.831 80.7012 294.625 80.745 294.384 80.745C294.313 80.745 294.222 80.7353 294.111 80.7158C294.001 80.6963 293.923 80.68 293.877 80.667L293.873 79.9358C293.899 79.9391 293.939 79.9423 293.994 79.9456C294.053 79.9521 294.094 79.9553 294.116 79.9553C294.321 79.9553 294.495 79.9277 294.638 79.8724C294.781 79.8204 294.901 79.7311 294.999 79.6043C295.099 79.4808 295.186 79.3102 295.257 79.0925L295.632 78.0688ZM294.555 73.3402L295.925 77.435L296.159 78.3856L295.511 78.7171L293.57 73.3402H294.555ZM302.857 73.3402V78.6147H301.955V73.3402H302.857ZM302.55 75.763V76.504C302.368 76.5722 302.183 76.6339 301.994 76.6892C301.809 76.7412 301.612 76.7834 301.404 76.8159C301.199 76.8452 300.977 76.8598 300.736 76.8598C300.32 76.8598 299.96 76.7883 299.654 76.6453C299.349 76.4991 299.113 76.2797 298.947 75.9872C298.782 75.6915 298.699 75.3194 298.699 74.8709V73.3305H299.601V74.8709C299.601 75.1634 299.644 75.4006 299.732 75.5826C299.82 75.7646 299.948 75.8995 300.117 75.9872C300.286 76.0717 300.493 76.114 300.736 76.114C300.97 76.114 301.19 76.0993 301.394 76.0701C301.602 76.0376 301.801 75.9953 301.989 75.9434C302.181 75.8914 302.368 75.8312 302.55 75.763ZM305.285 77.1864L307.717 73.3402H308.624V78.6147H307.717V74.7685L305.285 78.6147H304.388V73.3402H305.285V77.1864ZM312.221 73.3402V78.6147H311.315V73.3402H312.221ZM313.991 73.3402V74.0714H309.579V73.3402H313.991ZM315.619 75.1536H317.203C317.629 75.1536 317.988 75.2284 318.281 75.3779C318.573 75.5241 318.794 75.7272 318.944 75.9872C319.096 76.244 319.173 76.5365 319.173 76.8647C319.173 77.1084 319.131 77.3375 319.046 77.552C318.962 77.7633 318.835 77.9485 318.666 78.1078C318.5 78.267 318.294 78.3921 318.047 78.4831C317.803 78.5709 317.522 78.6147 317.203 78.6147H314.961V73.3402H315.863V77.8738H317.203C317.463 77.8738 317.671 77.8267 317.827 77.7324C317.983 77.6382 318.096 77.5163 318.164 77.3668C318.232 77.2173 318.266 77.0613 318.266 76.8988C318.266 76.7396 318.232 76.5836 318.164 76.4308C318.096 76.2781 317.983 76.1513 317.827 76.0506C317.671 75.9466 317.463 75.8946 317.203 75.8946H315.619V75.1536ZM323.726 73.3402H324.628L324.55 75.3145C324.53 75.815 324.473 76.2472 324.379 76.6112C324.285 76.9752 324.165 77.2855 324.018 77.5423C323.872 77.7958 323.708 78.0086 323.526 78.1809C323.347 78.3531 323.162 78.4978 322.97 78.6147H322.522L322.546 77.8787L322.731 77.8738C322.839 77.747 322.943 77.617 323.043 77.4838C323.144 77.3473 323.237 77.1864 323.321 77.0012C323.406 76.8127 323.476 76.5836 323.531 76.3138C323.589 76.0408 323.627 75.7077 323.643 75.3145L323.726 73.3402ZM323.95 73.3402H327.124V78.6147H326.222V74.1738H323.95V73.3402ZM322.317 77.8738H327.801V80.1698H326.899V78.6147H323.219V80.1698H322.312L322.317 77.8738ZM328.562 76.036V75.9239C328.562 75.5436 328.617 75.191 328.727 74.866C328.838 74.5378 328.997 74.2534 329.205 74.0129C329.413 73.7692 329.665 73.5807 329.961 73.4474C330.257 73.311 330.588 73.2427 330.955 73.2427C331.326 73.2427 331.659 73.311 331.955 73.4474C332.254 73.5807 332.507 73.7692 332.715 74.0129C332.926 74.2534 333.087 74.5378 333.198 74.866C333.308 75.191 333.363 75.5436 333.363 75.9239V76.036C333.363 76.4162 333.308 76.7688 333.198 77.0938C333.087 77.4188 332.926 77.7032 332.715 77.9469C332.507 78.1874 332.255 78.3759 331.959 78.5124C331.667 78.6456 331.335 78.7122 330.965 78.7122C330.595 78.7122 330.261 78.6456 329.966 78.5124C329.67 78.3759 329.416 78.1874 329.205 77.9469C328.997 77.7032 328.838 77.4188 328.727 77.0938C328.617 76.7688 328.562 76.4162 328.562 76.036ZM329.464 75.9239V76.036C329.464 76.2992 329.494 76.5478 329.556 76.7818C329.618 77.0126 329.711 77.2173 329.834 77.396C329.961 77.5748 330.118 77.7162 330.307 77.8202C330.495 77.9209 330.715 77.9713 330.965 77.9713C331.212 77.9713 331.428 77.9209 331.613 77.8202C331.802 77.7162 331.958 77.5748 332.081 77.396C332.205 77.2173 332.297 77.0126 332.359 76.7818C332.424 76.5478 332.457 76.2992 332.457 76.036V75.9239C332.457 75.6639 332.424 75.4185 332.359 75.1878C332.297 74.9538 332.203 74.7474 332.076 74.5687C331.953 74.3867 331.797 74.2437 331.608 74.1397C331.423 74.0357 331.206 73.9837 330.955 73.9837C330.708 73.9837 330.491 74.0357 330.302 74.1397C330.117 74.2437 329.961 74.3867 329.834 74.5687C329.711 74.7474 329.618 74.9538 329.556 75.1878C329.494 75.4185 329.464 75.6639 329.464 75.9239ZM336.605 77.9713C336.82 77.9713 337.018 77.9274 337.2 77.8397C337.382 77.7519 337.531 77.6317 337.648 77.4789C337.765 77.3229 337.832 77.1458 337.848 76.9476H338.706C338.69 77.2595 338.584 77.5504 338.389 77.8202C338.198 78.0866 337.946 78.3028 337.634 78.4685C337.322 78.631 336.979 78.7122 336.605 78.7122C336.209 78.7122 335.863 78.6424 335.567 78.5026C335.274 78.3629 335.031 78.1711 334.836 77.9274C334.644 77.6837 334.499 77.4042 334.402 77.0889C334.307 76.7704 334.26 76.4341 334.26 76.0798V75.8751C334.26 75.5209 334.307 75.1861 334.402 74.8709C334.499 74.5524 334.644 74.2713 334.836 74.0276C335.031 73.7838 335.274 73.5921 335.567 73.4523C335.863 73.3126 336.209 73.2427 336.605 73.2427C337.018 73.2427 337.379 73.3272 337.687 73.4962C337.996 73.6619 338.238 73.8894 338.414 74.1787C338.592 74.4647 338.69 74.7896 338.706 75.1536H337.848C337.832 74.9359 337.77 74.7393 337.663 74.5638C337.559 74.3883 337.416 74.2485 337.234 74.1445C337.055 74.0373 336.846 73.9837 336.605 73.9837C336.329 73.9837 336.097 74.0389 335.908 74.1494C335.723 74.2567 335.575 74.4029 335.464 74.5882C335.357 74.7701 335.279 74.9733 335.23 75.1975C335.185 75.4185 335.162 75.6444 335.162 75.8751V76.0798C335.162 76.3106 335.185 76.5381 335.23 76.7623C335.276 76.9866 335.352 77.1897 335.46 77.3717C335.57 77.5537 335.718 77.6999 335.903 77.8104C336.092 77.9176 336.326 77.9713 336.605 77.9713ZM341.87 73.3402V78.6147H340.963V73.3402H341.87ZM343.639 73.3402V74.0714H339.228V73.3402H343.639ZM346.067 78.0688L347.534 73.3402H348.5L346.384 79.4288C346.335 79.5588 346.27 79.6986 346.189 79.8481C346.111 80.0008 346.01 80.1454 345.887 80.2819C345.763 80.4184 345.614 80.5289 345.438 80.6134C345.266 80.7012 345.06 80.745 344.819 80.745C344.748 80.745 344.657 80.7353 344.546 80.7158C344.436 80.6963 344.358 80.68 344.312 80.667L344.307 79.9358C344.333 79.9391 344.374 79.9423 344.429 79.9456C344.488 79.9521 344.528 79.9553 344.551 79.9553C344.756 79.9553 344.93 79.9277 345.073 79.8724C345.216 79.8204 345.336 79.7311 345.433 79.6043C345.534 79.4808 345.62 79.3102 345.692 79.0925L346.067 78.0688ZM344.99 73.3402L346.36 77.435L346.594 78.3856L345.945 78.7171L344.005 73.3402H344.99ZM352.829 73.3402V74.086H350.162V73.3402H352.829ZM350.294 73.3402V78.6147H349.392V73.3402H350.294ZM353.628 73.3402V78.6147H352.721V73.3402H353.628ZM31.2082 86.3402V91.6147H30.3064V86.3402H31.2082ZM34.6693 86.3402L32.1685 89.3626H30.906L30.7695 88.5729H31.8029L33.5725 86.3402H34.6693ZM33.6992 91.6147L31.7591 89.2261L32.3392 88.5729L34.8448 91.6147H33.6992ZM40.8701 85.1459L38.5204 91.6147H37.5601L40.2656 84.517H40.8847L40.8701 85.1459ZM42.8395 91.6147L40.485 85.1459L40.4703 84.517H41.0894L43.8047 91.6147H42.8395ZM42.7176 88.9872V89.7574H38.73V88.9872H42.7176ZM47.3731 88.8312H45.4768V88.0659H47.3731C47.7403 88.0659 48.0377 88.0074 48.2652 87.8904C48.4926 87.7734 48.6584 87.6109 48.7624 87.4029C48.8696 87.1949 48.9233 86.9577 48.9233 86.6912C48.9233 86.4474 48.8696 86.2183 48.7624 86.0038C48.6584 85.7894 48.4926 85.6171 48.2652 85.4871C48.0377 85.3539 47.7403 85.2872 47.3731 85.2872H45.6961V91.6147H44.7553V84.517H47.3731C47.9093 84.517 48.3626 84.6096 48.7331 84.7949C49.1036 84.9801 49.3847 85.2369 49.5765 85.5651C49.7682 85.8901 49.8641 86.2622 49.8641 86.6814C49.8641 87.1364 49.7682 87.5248 49.5765 87.8465C49.3847 88.1683 49.1036 88.4136 48.7331 88.5826C48.3626 88.7484 47.9093 88.8312 47.3731 88.8312ZM52.0626 84.517V91.6147H51.1218V84.517H52.0626ZM58.59 89.2943H56.8594L56.8497 88.5729H58.2634C58.5429 88.5729 58.7752 88.5452 58.9605 88.49C59.149 88.4347 59.2903 88.3519 59.3846 88.2414C59.4788 88.1309 59.526 87.9944 59.526 87.8319C59.526 87.7052 59.4983 87.5947 59.4431 87.5004C59.3911 87.4029 59.3115 87.3233 59.2042 87.2615C59.097 87.1965 58.9637 87.1494 58.8045 87.1202C58.6485 87.0877 58.4649 87.0714 58.2536 87.0714H57.0983V91.6147H56.1965V86.3402H58.2536C58.5884 86.3402 58.889 86.3695 59.1555 86.428C59.4252 86.4864 59.6543 86.5758 59.8428 86.6961C60.0346 86.8131 60.1808 86.9626 60.2816 87.1445C60.3823 87.3265 60.4327 87.541 60.4327 87.788C60.4327 87.9473 60.4002 88.0984 60.3352 88.2414C60.2702 88.3844 60.1743 88.5111 60.0476 88.6216C59.9208 88.7321 59.7648 88.8231 59.5796 88.8946C59.3943 88.9629 59.1815 89.0067 58.941 89.0262L58.59 89.2943ZM58.59 91.6147H56.5328L56.9813 90.8835H58.59C58.8402 90.8835 59.0482 90.8527 59.214 90.7909C59.3797 90.7259 59.5032 90.6349 59.5845 90.5179C59.669 90.3977 59.7112 90.2547 59.7112 90.0889C59.7112 89.9232 59.669 89.7818 59.5845 89.6648C59.5032 89.5446 59.3797 89.4536 59.214 89.3918C59.0482 89.3268 58.8402 89.2943 58.59 89.2943H57.2202L57.2299 88.5729H58.941L59.2676 88.8459C59.5568 88.8686 59.8022 88.9401 60.0037 89.0603C60.2052 89.1806 60.3579 89.3333 60.4619 89.5186C60.5659 89.7006 60.6179 89.8988 60.6179 90.1133C60.6179 90.3603 60.5708 90.578 60.4765 90.7665C60.3855 90.955 60.2523 91.1126 60.0768 91.2394C59.9013 91.3629 59.6885 91.4571 59.4382 91.5221C59.188 91.5839 58.9052 91.6147 58.59 91.6147ZM64.937 90.7129V87.9976C64.937 87.7896 64.8947 87.6093 64.8102 87.4565C64.729 87.3005 64.6055 87.1803 64.4398 87.0958C64.274 87.0113 64.0693 86.9691 63.8255 86.9691C63.598 86.9691 63.3982 87.0081 63.2259 87.086C63.0569 87.164 62.9237 87.2664 62.8262 87.3932C62.732 87.5199 62.6848 87.6564 62.6848 87.8026H61.783C61.783 87.6142 61.8317 87.4273 61.9292 87.242C62.0267 87.0568 62.1665 86.8894 62.3485 86.7399C62.5337 86.5872 62.7547 86.4669 63.0114 86.3792C63.2714 86.2882 63.5607 86.2427 63.8792 86.2427C64.2626 86.2427 64.6006 86.3077 64.8931 86.4377C65.1889 86.5677 65.4196 86.7643 65.5853 87.0276C65.7543 87.2875 65.8388 87.6142 65.8388 88.0074V90.4643C65.8388 90.6398 65.8535 90.8267 65.8827 91.0249C65.9152 91.2231 65.9623 91.3938 66.0241 91.5367V91.6147H65.0832C65.0377 91.5108 65.002 91.3726 64.976 91.2004C64.95 91.0249 64.937 90.8624 64.937 90.7129ZM65.093 88.4169L65.1027 89.0506H64.1911C63.9344 89.0506 63.7053 89.0717 63.5038 89.114C63.3023 89.153 63.1333 89.2131 62.9968 89.2943C62.8603 89.3756 62.7563 89.478 62.6848 89.6015C62.6133 89.7217 62.5776 89.8631 62.5776 90.0256C62.5776 90.1913 62.615 90.3424 62.6897 90.4789C62.7645 90.6154 62.8766 90.7243 63.0261 90.8055C63.1788 90.8835 63.3657 90.9225 63.5867 90.9225C63.8629 90.9225 64.1067 90.864 64.3179 90.747C64.5291 90.63 64.6965 90.487 64.82 90.318C64.9467 90.1491 65.015 89.9849 65.0247 89.8257L65.4099 90.2595C65.3871 90.396 65.3254 90.5472 65.2246 90.7129C65.1239 90.8787 64.989 91.0379 64.82 91.1906C64.6543 91.3401 64.456 91.4653 64.2253 91.566C63.9978 91.6635 63.741 91.7122 63.4551 91.7122C63.0976 91.7122 62.784 91.6424 62.5142 91.5026C62.2477 91.3629 62.0397 91.176 61.8902 90.942C61.744 90.7048 61.6709 90.4399 61.6709 90.1474C61.6709 89.8647 61.7261 89.6161 61.8366 89.4016C61.9471 89.1838 62.1064 89.0035 62.3143 88.8605C62.5223 88.7142 62.7726 88.6037 63.0651 88.529C63.3576 88.4542 63.6842 88.4169 64.0449 88.4169H65.093ZM67.3354 86.3402H68.2372V90.8738H70.1677V86.3402H71.0744V90.8738H72.9999V86.3402H73.9018V91.6147H67.3354V86.3402ZM77.5286 91.7122C77.1614 91.7122 76.8283 91.6505 76.5293 91.527C76.2335 91.4003 75.9784 91.2231 75.7639 90.9956C75.5527 90.7682 75.3902 90.4984 75.2765 90.1864C75.1627 89.8744 75.1058 89.5332 75.1058 89.1627V88.958C75.1058 88.529 75.1692 88.1471 75.296 87.8124C75.4227 87.4744 75.5949 87.1884 75.8127 86.9544C76.0304 86.7204 76.2774 86.5433 76.5537 86.4231C76.8299 86.3028 77.1159 86.2427 77.4116 86.2427C77.7886 86.2427 78.1136 86.3077 78.3866 86.4377C78.6628 86.5677 78.8887 86.7497 79.0642 86.9837C79.2397 87.2144 79.3697 87.4874 79.4542 87.8026C79.5387 88.1146 79.5809 88.4559 79.5809 88.8264V89.231H75.6421V88.4949H78.6791V88.4266C78.6661 88.1926 78.6173 87.9651 78.5328 87.7441C78.4516 87.5232 78.3216 87.3412 78.1428 87.1982C77.9641 87.0552 77.7204 86.9837 77.4116 86.9837C77.2069 86.9837 77.0184 87.0276 76.8461 87.1153C76.6739 87.1998 76.526 87.3265 76.4025 87.4955C76.279 87.6645 76.1832 87.8709 76.1149 88.1146C76.0467 88.3584 76.0126 88.6395 76.0126 88.958V89.1627C76.0126 89.413 76.0467 89.6486 76.1149 89.8696C76.1864 90.0873 76.2888 90.279 76.422 90.4448C76.5585 90.6105 76.7227 90.7405 76.9144 90.8348C77.1094 90.929 77.3304 90.9761 77.5774 90.9761C77.8959 90.9761 78.1656 90.9111 78.3866 90.7812C78.6076 90.6512 78.8009 90.4773 78.9667 90.2595L79.5127 90.6934C79.3989 90.8657 79.2543 91.0298 79.0788 91.1858C78.9033 91.3418 78.6872 91.4685 78.4305 91.566C78.177 91.6635 77.8764 91.7122 77.5286 91.7122ZM84.0414 86.3402V87.086H81.604V91.6147H80.7021V86.3402H84.0414ZM84.4898 89.036V88.9239C84.4898 88.5436 84.5451 88.191 84.6556 87.866C84.7661 87.5378 84.9253 87.2534 85.1333 87.0129C85.3413 86.7692 85.5932 86.5807 85.8889 86.4474C86.1847 86.311 86.5161 86.2427 86.8834 86.2427C87.2539 86.2427 87.587 86.311 87.8827 86.4474C88.1817 86.5807 88.4352 86.7692 88.6432 87.0129C88.8544 87.2534 89.0153 87.5378 89.1258 87.866C89.2363 88.191 89.2915 88.5436 89.2915 88.9239V89.036C89.2915 89.4162 89.2363 89.7688 89.1258 90.0938C89.0153 90.4188 88.8544 90.7032 88.6432 90.9469C88.4352 91.1874 88.1833 91.3759 87.8876 91.5124C87.5951 91.6456 87.2636 91.7122 86.8931 91.7122C86.5226 91.7122 86.1895 91.6456 85.8938 91.5124C85.5981 91.3759 85.3446 91.1874 85.1333 90.9469C84.9253 90.7032 84.7661 90.4188 84.6556 90.0938C84.5451 89.7688 84.4898 89.4162 84.4898 89.036ZM85.3917 88.9239V89.036C85.3917 89.2992 85.4226 89.5478 85.4843 89.7818C85.5461 90.0126 85.6387 90.2173 85.7622 90.396C85.8889 90.5748 86.0465 90.7162 86.235 90.8202C86.4235 90.9209 86.6429 90.9713 86.8931 90.9713C87.1401 90.9713 87.3562 90.9209 87.5415 90.8202C87.73 90.7162 87.886 90.5748 88.0095 90.396C88.133 90.2173 88.2256 90.0126 88.2873 89.7818C88.3523 89.5478 88.3848 89.2992 88.3848 89.036V88.9239C88.3848 88.6639 88.3523 88.4185 88.2873 88.1878C88.2256 87.9538 88.1313 87.7474 88.0046 87.5687C87.8811 87.3867 87.7251 87.2437 87.5366 87.1397C87.3514 87.0357 87.1336 86.9837 86.8834 86.9837C86.6364 86.9837 86.4186 87.0357 86.2302 87.1397C86.0449 87.2437 85.8889 87.3867 85.7622 87.5687C85.6387 87.7474 85.5461 87.9538 85.4843 88.1878C85.4226 88.4185 85.3917 88.6639 85.3917 88.9239ZM95.3265 90.5374L97.4178 84.517H98.4367L95.8092 91.6147H95.0828L95.3265 90.5374ZM93.3717 84.517L95.4435 90.5374L95.7019 91.6147H94.9756L92.3529 84.517H93.3717ZM100.333 84.517V91.6147H99.3921V84.517H100.333ZM104.618 84.517L101.669 87.827L100.011 89.5478L99.8552 88.5436L101.103 87.1689L103.487 84.517H104.618ZM103.711 91.6147L101.084 88.1536L101.644 87.4078L104.832 91.6147H103.711ZM110.765 85.1459L108.415 91.6147H107.455L110.161 84.517H110.78L110.765 85.1459ZM112.734 91.6147L110.38 85.1459L110.365 84.517H110.984L113.7 91.6147H112.734ZM112.613 88.9872V89.7574H108.625V88.9872H112.613ZM117.838 90.591V84.127H118.745V91.6147H117.916L117.838 90.591ZM114.29 89.036V88.9336C114.29 88.5306 114.338 88.165 114.436 87.8368C114.537 87.5053 114.678 87.2209 114.86 86.9837C115.045 86.7464 115.265 86.5644 115.518 86.4377C115.775 86.3077 116.061 86.2427 116.376 86.2427C116.707 86.2427 116.997 86.3012 117.244 86.4182C117.494 86.5319 117.705 86.6993 117.877 86.9203C118.053 87.138 118.191 87.4013 118.292 87.71C118.393 88.0188 118.462 88.3681 118.501 88.7581V89.2066C118.466 89.5933 118.396 89.9411 118.292 90.2498C118.191 90.5585 118.053 90.8218 117.877 91.0395C117.705 91.2573 117.494 91.4246 117.244 91.5416C116.993 91.6554 116.701 91.7122 116.366 91.7122C116.057 91.7122 115.775 91.6456 115.518 91.5124C115.265 91.3791 115.045 91.1923 114.86 90.9518C114.678 90.7113 114.537 90.4285 114.436 90.1036C114.338 89.7753 114.29 89.4195 114.29 89.036ZM115.196 88.9336V89.036C115.196 89.2992 115.222 89.5462 115.274 89.7769C115.33 90.0077 115.414 90.2108 115.528 90.3863C115.641 90.5618 115.786 90.6999 115.962 90.8007C116.137 90.8981 116.347 90.9469 116.59 90.9469C116.889 90.9469 117.135 90.8835 117.327 90.7568C117.522 90.63 117.678 90.4627 117.795 90.2547C117.912 90.0467 118.003 89.8208 118.068 89.5771V88.4022C118.029 88.2235 117.972 88.0513 117.897 87.8855C117.825 87.7165 117.731 87.567 117.614 87.437C117.5 87.3038 117.359 87.1982 117.19 87.1202C117.024 87.0422 116.828 87.0032 116.6 87.0032C116.353 87.0032 116.14 87.0552 115.962 87.1592C115.786 87.2599 115.641 87.3997 115.528 87.5784C115.414 87.7539 115.33 87.9586 115.274 88.1926C115.222 88.4234 115.196 88.6704 115.196 88.9336ZM123.22 90.2157C123.22 90.0857 123.191 89.9654 123.132 89.8549C123.077 89.7412 122.962 89.6388 122.786 89.5478C122.614 89.4536 122.354 89.3723 122.006 89.3041C121.714 89.2423 121.449 89.1692 121.212 89.0847C120.978 89.0002 120.778 88.8979 120.612 88.7776C120.45 88.6574 120.325 88.516 120.237 88.3535C120.149 88.191 120.105 88.0009 120.105 87.7831C120.105 87.5752 120.151 87.3785 120.242 87.1933C120.336 87.0081 120.468 86.8439 120.637 86.7009C120.809 86.5579 121.015 86.4458 121.256 86.3646C121.496 86.2833 121.764 86.2427 122.06 86.2427C122.482 86.2427 122.843 86.3175 123.142 86.4669C123.441 86.6164 123.67 86.8163 123.83 87.0666C123.989 87.3135 124.068 87.5882 124.068 87.8904H123.167C123.167 87.7441 123.123 87.6028 123.035 87.4663C122.95 87.3265 122.825 87.2112 122.66 87.1202C122.497 87.0292 122.297 86.9837 122.06 86.9837C121.81 86.9837 121.607 87.0227 121.451 87.1007C121.298 87.1754 121.186 87.2713 121.114 87.3883C121.046 87.5053 121.012 87.6288 121.012 87.7588C121.012 87.8563 121.028 87.944 121.061 88.022C121.096 88.0968 121.158 88.1666 121.246 88.2316C121.334 88.2934 121.457 88.3519 121.616 88.4071C121.776 88.4624 121.979 88.5176 122.226 88.5729C122.658 88.6704 123.014 88.7874 123.293 88.9239C123.573 89.0603 123.781 89.2277 123.917 89.426C124.054 89.6242 124.122 89.8647 124.122 90.1474C124.122 90.3782 124.073 90.5894 123.976 90.7812C123.882 90.9729 123.743 91.1386 123.561 91.2784C123.383 91.4149 123.168 91.5221 122.918 91.6001C122.671 91.6749 122.393 91.7122 122.084 91.7122C121.62 91.7122 121.226 91.6294 120.905 91.4636C120.583 91.2979 120.339 91.0834 120.173 90.8202C120.008 90.5569 119.925 90.279 119.925 89.9866H120.832C120.845 90.2336 120.916 90.4302 121.046 90.5764C121.176 90.7194 121.335 90.8218 121.524 90.8835C121.712 90.942 121.899 90.9713 122.084 90.9713C122.331 90.9713 122.538 90.9388 122.703 90.8738C122.872 90.8088 123.001 90.7194 123.089 90.6057C123.176 90.4919 123.22 90.3619 123.22 90.2157ZM125.321 91.137C125.321 90.9843 125.368 90.8559 125.463 90.7519C125.56 90.6447 125.7 90.591 125.882 90.591C126.064 90.591 126.202 90.6447 126.296 90.7519C126.394 90.8559 126.442 90.9843 126.442 91.137C126.442 91.2865 126.394 91.4133 126.296 91.5172C126.202 91.6212 126.064 91.6732 125.882 91.6732C125.7 91.6732 125.56 91.6212 125.463 91.5172C125.368 91.4133 125.321 91.2865 125.321 91.137Z" fill="#333333"/>
<g filter="url(#filter1_d_57_16382)">
<rect x="29.541" y="109.59" width="344" height="28.5492" rx="3.56557" fill="#6695E2"/>
<path d="M160.704 124.361H158.857V123.391H160.704C161.026 123.391 161.286 123.339 161.484 123.235C161.683 123.131 161.827 122.988 161.918 122.806C162.012 122.621 162.06 122.41 162.06 122.172C162.06 121.948 162.012 121.739 161.918 121.544C161.827 121.345 161.683 121.186 161.484 121.066C161.286 120.946 161.026 120.885 160.704 120.885H159.232V127.008H158.009V119.91H160.704C161.254 119.91 161.72 120.008 162.103 120.203C162.49 120.395 162.784 120.661 162.986 121.002C163.187 121.34 163.288 121.727 163.288 122.163C163.288 122.621 163.187 123.014 162.986 123.342C162.784 123.671 162.49 123.922 162.103 124.098C161.72 124.273 161.254 124.361 160.704 124.361ZM167.183 125.95V123.435C167.183 123.246 167.149 123.084 167.081 122.947C167.012 122.811 166.908 122.705 166.769 122.631C166.632 122.556 166.46 122.518 166.252 122.518C166.06 122.518 165.894 122.551 165.755 122.616C165.615 122.681 165.506 122.769 165.428 122.879C165.35 122.99 165.311 123.115 165.311 123.255H164.141C164.141 123.047 164.191 122.845 164.292 122.65C164.393 122.455 164.539 122.281 164.731 122.128C164.923 121.976 165.152 121.856 165.418 121.768C165.685 121.68 165.984 121.636 166.315 121.636C166.712 121.636 167.063 121.703 167.368 121.836C167.677 121.969 167.919 122.171 168.095 122.44C168.273 122.707 168.363 123.042 168.363 123.445V125.789C168.363 126.03 168.379 126.246 168.411 126.438C168.447 126.626 168.498 126.79 168.563 126.93V127.008H167.358C167.303 126.881 167.259 126.721 167.227 126.526C167.198 126.327 167.183 126.136 167.183 125.95ZM167.354 123.801L167.363 124.527H166.52C166.302 124.527 166.111 124.548 165.945 124.59C165.779 124.629 165.641 124.688 165.53 124.766C165.42 124.844 165.337 124.938 165.282 125.049C165.227 125.159 165.199 125.284 165.199 125.424C165.199 125.564 165.231 125.692 165.296 125.809C165.361 125.923 165.456 126.012 165.579 126.077C165.706 126.142 165.859 126.175 166.037 126.175C166.278 126.175 166.488 126.126 166.666 126.028C166.848 125.928 166.991 125.806 167.095 125.663C167.199 125.516 167.254 125.378 167.261 125.248L167.641 125.77C167.602 125.903 167.536 126.046 167.441 126.199C167.347 126.352 167.224 126.498 167.071 126.638C166.921 126.774 166.741 126.886 166.53 126.974C166.322 127.062 166.081 127.106 165.808 127.106C165.464 127.106 165.157 127.037 164.887 126.901C164.617 126.761 164.406 126.574 164.253 126.34C164.1 126.103 164.024 125.835 164.024 125.536C164.024 125.256 164.076 125.01 164.18 124.795C164.287 124.577 164.443 124.395 164.648 124.249C164.856 124.103 165.11 123.992 165.409 123.918C165.708 123.84 166.049 123.801 166.432 123.801H167.354ZM171.775 124.488H170.761V123.893H171.58C171.788 123.893 171.954 123.866 172.077 123.81C172.204 123.755 172.293 123.679 172.345 123.581C172.401 123.48 172.428 123.363 172.428 123.23C172.428 123.113 172.401 123.003 172.345 122.899C172.293 122.791 172.204 122.704 172.077 122.635C171.951 122.567 171.778 122.533 171.561 122.533C171.382 122.533 171.221 122.562 171.078 122.621C170.938 122.679 170.828 122.761 170.746 122.865C170.665 122.969 170.625 123.089 170.625 123.225H169.45C169.45 122.897 169.542 122.614 169.728 122.377C169.916 122.14 170.168 121.958 170.483 121.831C170.798 121.704 171.145 121.641 171.522 121.641C171.843 121.641 172.133 121.675 172.389 121.743C172.646 121.808 172.864 121.906 173.043 122.036C173.224 122.163 173.363 122.322 173.457 122.514C173.554 122.702 173.603 122.921 173.603 123.172C173.603 123.35 173.561 123.519 173.476 123.679C173.392 123.838 173.27 123.979 173.111 124.103C172.952 124.223 172.758 124.317 172.531 124.386C172.306 124.454 172.055 124.488 171.775 124.488ZM170.761 124.147H171.775C172.087 124.147 172.363 124.178 172.604 124.239C172.844 124.298 173.046 124.386 173.208 124.503C173.371 124.62 173.493 124.764 173.574 124.936C173.658 125.105 173.701 125.3 173.701 125.521C173.701 125.768 173.647 125.991 173.54 126.189C173.436 126.384 173.286 126.55 173.091 126.686C172.9 126.823 172.67 126.927 172.404 126.998C172.137 127.07 171.843 127.106 171.522 127.106C171.171 127.106 170.829 127.047 170.498 126.93C170.17 126.813 169.898 126.633 169.684 126.389C169.473 126.142 169.367 125.828 169.367 125.448H170.542C170.542 125.581 170.582 125.707 170.664 125.824C170.745 125.941 170.862 126.036 171.015 126.111C171.167 126.183 171.351 126.218 171.565 126.218C171.786 126.218 171.967 126.184 172.107 126.116C172.246 126.045 172.35 125.952 172.419 125.838C172.487 125.721 172.521 125.598 172.521 125.468C172.521 125.292 172.487 125.151 172.419 125.044C172.35 124.936 172.246 124.858 172.107 124.81C171.967 124.758 171.791 124.732 171.58 124.732H170.761V124.147ZM175.88 122.748V129.036H174.705V121.734H175.787L175.88 122.748ZM179.316 124.322V124.425C179.316 124.808 179.271 125.164 179.18 125.492C179.092 125.817 178.961 126.101 178.785 126.345C178.613 126.586 178.4 126.773 178.146 126.906C177.893 127.039 177.6 127.106 177.269 127.106C176.941 127.106 176.653 127.046 176.406 126.925C176.162 126.802 175.956 126.628 175.787 126.404C175.618 126.179 175.482 125.916 175.378 125.614C175.277 125.308 175.205 124.974 175.163 124.61V124.215C175.205 123.828 175.277 123.477 175.378 123.162C175.482 122.847 175.618 122.575 175.787 122.348C175.956 122.12 176.162 121.945 176.406 121.821C176.65 121.698 176.934 121.636 177.259 121.636C177.591 121.636 177.885 121.701 178.142 121.831C178.398 121.958 178.614 122.14 178.79 122.377C178.965 122.611 179.097 122.894 179.185 123.225C179.273 123.554 179.316 123.919 179.316 124.322ZM178.142 124.425V124.322C178.142 124.078 178.119 123.853 178.073 123.645C178.028 123.433 177.956 123.248 177.859 123.089C177.761 122.93 177.636 122.806 177.483 122.718C177.334 122.627 177.154 122.582 176.942 122.582C176.734 122.582 176.556 122.618 176.406 122.689C176.257 122.757 176.132 122.853 176.031 122.977C175.93 123.1 175.852 123.245 175.797 123.411C175.742 123.573 175.703 123.75 175.68 123.942V124.888C175.719 125.122 175.785 125.336 175.88 125.531C175.974 125.726 176.107 125.882 176.279 125.999C176.455 126.113 176.679 126.17 176.952 126.17C177.163 126.17 177.344 126.124 177.493 126.033C177.643 125.942 177.765 125.817 177.859 125.658C177.956 125.495 178.028 125.308 178.073 125.097C178.119 124.886 178.142 124.662 178.142 124.425ZM182.641 127.106C182.251 127.106 181.898 127.042 181.583 126.916C181.271 126.786 181.005 126.605 180.784 126.374C180.566 126.144 180.399 125.872 180.282 125.56C180.165 125.248 180.106 124.912 180.106 124.551V124.356C180.106 123.944 180.166 123.57 180.286 123.235C180.407 122.9 180.574 122.614 180.789 122.377C181.003 122.137 181.257 121.953 181.549 121.826C181.842 121.7 182.158 121.636 182.5 121.636C182.877 121.636 183.206 121.7 183.489 121.826C183.772 121.953 184.006 122.132 184.191 122.362C184.38 122.59 184.519 122.861 184.61 123.177C184.705 123.492 184.752 123.84 184.752 124.22V124.722H180.676V123.879H183.592V123.786C183.585 123.575 183.543 123.376 183.465 123.191C183.39 123.006 183.275 122.856 183.119 122.743C182.963 122.629 182.755 122.572 182.495 122.572C182.3 122.572 182.126 122.614 181.973 122.699C181.824 122.78 181.699 122.899 181.598 123.055C181.497 123.211 181.419 123.399 181.364 123.62C181.312 123.838 181.286 124.083 181.286 124.356V124.551C181.286 124.782 181.317 124.997 181.378 125.195C181.443 125.39 181.538 125.56 181.661 125.707C181.785 125.853 181.934 125.968 182.11 126.053C182.285 126.134 182.485 126.175 182.709 126.175C182.992 126.175 183.244 126.118 183.465 126.004C183.686 125.89 183.878 125.729 184.04 125.521L184.659 126.121C184.545 126.287 184.398 126.446 184.216 126.599C184.034 126.748 183.811 126.87 183.548 126.964C183.288 127.059 182.985 127.106 182.641 127.106ZM185.707 121.734H186.882V126.072H188.554V121.734H189.739V126.072H191.406V121.734H192.581V127.008H185.707V121.734ZM195.062 125.292L197.134 121.734H198.309V127.008H197.134V123.445L195.062 127.008H193.887V121.734H195.062V125.292ZM201.999 121.734V127.008H200.819V121.734H201.999ZM203.729 121.734V122.66H199.118V121.734H203.729ZM205.387 123.411H206.942C207.397 123.411 207.784 123.487 208.102 123.64C208.421 123.792 208.663 124.005 208.828 124.278C208.997 124.548 209.082 124.857 209.082 125.204C209.082 125.461 209.035 125.7 208.941 125.921C208.846 126.139 208.707 126.329 208.521 126.491C208.339 126.654 208.115 126.781 207.849 126.872C207.585 126.963 207.283 127.008 206.942 127.008H204.607V121.734H205.787V126.077H206.942C207.176 126.077 207.363 126.036 207.503 125.955C207.642 125.874 207.743 125.768 207.805 125.638C207.87 125.508 207.902 125.37 207.902 125.224C207.902 125.075 207.87 124.933 207.805 124.8C207.743 124.667 207.642 124.558 207.503 124.473C207.363 124.389 207.176 124.347 206.942 124.347H205.387V123.411ZM213.464 121.734H214.639L214.581 123.591C214.564 124.13 214.503 124.594 214.395 124.98C214.288 125.367 214.149 125.694 213.976 125.96C213.804 126.223 213.609 126.439 213.391 126.608C213.177 126.777 212.951 126.911 212.714 127.008H212.368V126.082L212.533 126.072C212.673 125.923 212.793 125.773 212.894 125.624C212.998 125.471 213.086 125.304 213.157 125.122C213.229 124.936 213.284 124.72 213.323 124.473C213.365 124.226 213.393 123.932 213.406 123.591L213.464 121.734ZM213.776 121.734H217.121V127.008H215.951V122.728H213.776V121.734ZM212.099 126.072H217.842V128.578H216.667V127.008H213.289V128.578H212.095L212.099 126.072ZM218.456 124.429V124.317C218.456 123.937 218.511 123.584 218.622 123.259C218.732 122.931 218.892 122.647 219.1 122.406C219.311 122.163 219.568 121.974 219.87 121.841C220.175 121.704 220.52 121.636 220.903 121.636C221.29 121.636 221.635 121.704 221.937 121.841C222.242 121.974 222.501 122.163 222.712 122.406C222.923 122.647 223.084 122.931 223.195 123.259C223.305 123.584 223.36 123.937 223.36 124.317V124.429C223.36 124.81 223.305 125.162 223.195 125.487C223.084 125.812 222.923 126.097 222.712 126.34C222.501 126.581 222.244 126.769 221.942 126.906C221.639 127.039 221.297 127.106 220.913 127.106C220.526 127.106 220.18 127.039 219.875 126.906C219.573 126.769 219.316 126.581 219.105 126.34C218.893 126.097 218.732 125.812 218.622 125.487C218.511 125.162 218.456 124.81 218.456 124.429ZM219.631 124.317V124.429C219.631 124.667 219.655 124.891 219.704 125.102C219.753 125.313 219.829 125.499 219.933 125.658C220.037 125.817 220.171 125.942 220.333 126.033C220.496 126.124 220.689 126.17 220.913 126.17C221.131 126.17 221.319 126.124 221.479 126.033C221.641 125.942 221.774 125.817 221.878 125.658C221.982 125.499 222.059 125.313 222.107 125.102C222.159 124.891 222.185 124.667 222.185 124.429V124.317C222.185 124.083 222.159 123.862 222.107 123.654C222.059 123.443 221.981 123.256 221.873 123.094C221.769 122.931 221.636 122.804 221.474 122.713C221.314 122.619 221.124 122.572 220.903 122.572C220.682 122.572 220.491 122.619 220.328 122.713C220.169 122.804 220.037 122.931 219.933 123.094C219.829 123.256 219.753 123.443 219.704 123.654C219.655 123.862 219.631 124.083 219.631 124.317ZM226.5 126.17C226.691 126.17 226.864 126.132 227.016 126.058C227.172 125.98 227.297 125.872 227.392 125.736C227.489 125.599 227.543 125.442 227.553 125.263H228.659C228.653 125.604 228.552 125.915 228.357 126.194C228.162 126.474 227.904 126.696 227.582 126.862C227.26 127.024 226.904 127.106 226.514 127.106C226.111 127.106 225.76 127.037 225.461 126.901C225.162 126.761 224.914 126.569 224.715 126.326C224.517 126.082 224.368 125.801 224.267 125.482C224.169 125.164 224.121 124.823 224.121 124.459V124.288C224.121 123.924 224.169 123.583 224.267 123.264C224.368 122.943 224.517 122.66 224.715 122.416C224.914 122.172 225.162 121.982 225.461 121.846C225.76 121.706 226.11 121.636 226.509 121.636C226.932 121.636 227.302 121.721 227.621 121.89C227.939 122.055 228.19 122.288 228.372 122.587C228.557 122.882 228.653 123.227 228.659 123.62H227.553C227.543 123.425 227.494 123.25 227.406 123.094C227.322 122.934 227.202 122.808 227.046 122.713C226.893 122.619 226.709 122.572 226.495 122.572C226.258 122.572 226.061 122.621 225.905 122.718C225.749 122.813 225.627 122.943 225.539 123.108C225.452 123.271 225.388 123.454 225.349 123.659C225.313 123.861 225.296 124.07 225.296 124.288V124.459C225.296 124.676 225.313 124.888 225.349 125.092C225.385 125.297 225.447 125.481 225.534 125.643C225.625 125.802 225.749 125.931 225.905 126.028C226.061 126.123 226.259 126.17 226.5 126.17ZM232.008 121.734V127.008H230.828V121.734H232.008ZM233.739 121.734V122.66H229.127V121.734H233.739ZM236.113 126.433L237.546 121.734H238.804L236.688 127.813C236.639 127.943 236.576 128.084 236.498 128.237C236.42 128.389 236.318 128.534 236.191 128.67C236.067 128.81 235.913 128.922 235.728 129.007C235.542 129.095 235.318 129.138 235.055 129.138C234.951 129.138 234.85 129.129 234.753 129.109C234.658 129.093 234.569 129.075 234.485 129.056L234.48 128.159C234.512 128.162 234.551 128.165 234.597 128.168C234.645 128.172 234.684 128.173 234.714 128.173C234.909 128.173 235.071 128.149 235.201 128.1C235.331 128.055 235.437 127.98 235.518 127.876C235.603 127.772 235.674 127.632 235.733 127.457L236.113 126.433ZM235.304 121.734L236.556 125.682L236.766 126.92L235.952 127.13L234.036 121.734H235.304ZM243.015 121.734V122.67H240.412V121.734H243.015ZM240.69 121.734V127.008H239.515V121.734H240.69ZM243.937 121.734V127.008H242.757V121.734H243.937Z" fill="white"/>
</g>
<rect x="11.3566" y="8.35656" width="379.287" height="149.287" rx="12.6434" stroke="#6695E2" stroke-width="0.713115" shape-rendering="crispEdges"/>
</g>
<defs>
<filter id="filter0_d_57_16382" x="0.303279" y="0.155738" width="401.393" height="171.393" filterUnits="userSpaceOnUse" color-interpolation-filters="sRGB">
<feFlood flood-opacity="0" result="BackgroundImageFix"/>
<feColorMatrix in="SourceAlpha" type="matrix" values="0 0 0 0 0 0 0 0 0 0 0 0 0 0 0 0 0 0 127 0" result="hardAlpha"/>
<feOffset dy="2.85246"/>
<feGaussianBlur stdDeviation="5.34836"/>
<feComposite in2="hardAlpha" operator="out"/>
<feColorMatrix type="matrix" values="0 0 0 0 0.4 0 0 0 0 0.584314 0 0 0 0 0.886275 0 0 0 0.3 0"/>
<feBlend mode="normal" in2="BackgroundImageFix" result="effect1_dropShadow_57_16382"/>
<feBlend mode="normal" in="SourceGraphic" in2="effect1_dropShadow_57_16382" result="shape"/>
</filter>
<filter id="filter1_d_57_16382" x="18.8443" y="101.746" width="365.393" height="49.9426" filterUnits="userSpaceOnUse" color-interpolation-filters="sRGB">
<feFlood flood-opacity="0" result="BackgroundImageFix"/>
<feColorMatrix in="SourceAlpha" type="matrix" values="0 0 0 0 0 0 0 0 0 0 0 0 0 0 0 0 0 0 127 0" result="hardAlpha"/>
<feOffset dy="2.85246"/>
<feGaussianBlur stdDeviation="5.34836"/>
<feComposite in2="hardAlpha" operator="out"/>
<feColorMatrix type="matrix" values="0 0 0 0 0.4 0 0 0 0 0.584314 0 0 0 0 0.886275 0 0 0 0.3 0"/>
<feBlend mode="normal" in2="BackgroundImageFix" result="effect1_dropShadow_57_16382"/>
<feBlend mode="normal" in="SourceGraphic" in2="effect1_dropShadow_57_16382" result="shape"/>
</filter>
</defs>
</svg>
