<svg width="380" height="148" viewBox="0 0 380 148" fill="none" xmlns="http://www.w3.org/2000/svg">
<rect width="380" height="148" rx="12.4084" fill="white"/>
<rect width="380" height="148" rx="12.4084" fill="#F4F8FD"/>
<rect x="60" y="50.5" width="261" height="48" rx="7.5" fill="white"/>
<path d="M83.3203 64V82H81.1523V64H83.3203ZM82.8047 75.1797L81.9023 75.1445C81.9102 74.2773 82.0391 73.4766 82.2891 72.7422C82.5391 72 82.8906 71.3555 83.3438 70.8086C83.7969 70.2617 84.3359 69.8398 84.9609 69.543C85.5938 69.2383 86.293 69.0859 87.0586 69.0859C87.6836 69.0859 88.2461 69.1719 88.7461 69.3438C89.2461 69.5078 89.6719 69.7734 90.0234 70.1406C90.3828 70.5078 90.6562 70.9844 90.8438 71.5703C91.0312 72.1484 91.125 72.8555 91.125 73.6914V82H88.9453V73.668C88.9453 73.0039 88.8477 72.4727 88.6523 72.0742C88.457 71.668 88.1719 71.375 87.7969 71.1953C87.4219 71.0078 86.9609 70.9141 86.4141 70.9141C85.875 70.9141 85.3828 71.0273 84.9375 71.2539C84.5 71.4805 84.1211 71.793 83.8008 72.1914C83.4883 72.5898 83.2422 73.0469 83.0625 73.5625C82.8906 74.0703 82.8047 74.6094 82.8047 75.1797ZM99.6797 69.3203V70.9844H92.8242V69.3203H99.6797ZM95.1445 66.2383H97.3125V78.8594C97.3125 79.2891 97.3789 79.6133 97.5117 79.832C97.6445 80.0508 97.8164 80.1953 98.0273 80.2656C98.2383 80.3359 98.4648 80.3711 98.707 80.3711C98.8867 80.3711 99.0742 80.3555 99.2695 80.3242C99.4727 80.2852 99.625 80.2539 99.7266 80.2305L99.7383 82C99.5664 82.0547 99.3398 82.1055 99.0586 82.1523C98.7852 82.207 98.4531 82.2344 98.0625 82.2344C97.5312 82.2344 97.043 82.1289 96.5977 81.918C96.1523 81.707 95.7969 81.3555 95.5312 80.8633C95.2734 80.3633 95.1445 79.6914 95.1445 78.8477V66.2383ZM107.531 69.3203V70.9844H100.676V69.3203H107.531ZM102.996 66.2383H105.164V78.8594C105.164 79.2891 105.23 79.6133 105.363 79.832C105.496 80.0508 105.668 80.1953 105.879 80.2656C106.09 80.3359 106.316 80.3711 106.559 80.3711C106.738 80.3711 106.926 80.3555 107.121 80.3242C107.324 80.2852 107.477 80.2539 107.578 80.2305L107.59 82C107.418 82.0547 107.191 82.1055 106.91 82.1523C106.637 82.207 106.305 82.2344 105.914 82.2344C105.383 82.2344 104.895 82.1289 104.449 81.918C104.004 81.707 103.648 81.3555 103.383 80.8633C103.125 80.3633 102.996 79.6914 102.996 78.8477V66.2383ZM112.242 71.7578V86.875H110.062V69.3203H112.055L112.242 71.7578ZM120.785 75.5547V75.8008C120.785 76.7227 120.676 77.5781 120.457 78.3672C120.238 79.1484 119.918 79.8281 119.496 80.4062C119.082 80.9844 118.57 81.4336 117.961 81.7539C117.352 82.0742 116.652 82.2344 115.863 82.2344C115.059 82.2344 114.348 82.1016 113.73 81.8359C113.113 81.5703 112.59 81.1836 112.16 80.6758C111.73 80.168 111.387 79.5586 111.129 78.8477C110.879 78.1367 110.707 77.3359 110.613 76.4453V75.1328C110.707 74.1953 110.883 73.3555 111.141 72.6133C111.398 71.8711 111.738 71.2383 112.16 70.7148C112.59 70.1836 113.109 69.7812 113.719 69.5078C114.328 69.2266 115.031 69.0859 115.828 69.0859C116.625 69.0859 117.332 69.2422 117.949 69.5547C118.566 69.8594 119.086 70.2969 119.508 70.8672C119.93 71.4375 120.246 72.1211 120.457 72.918C120.676 73.707 120.785 74.5859 120.785 75.5547ZM118.605 75.8008V75.5547C118.605 74.9219 118.539 74.3281 118.406 73.7734C118.273 73.2109 118.066 72.7188 117.785 72.2969C117.512 71.8672 117.16 71.5312 116.73 71.2891C116.301 71.0391 115.789 70.9141 115.195 70.9141C114.648 70.9141 114.172 71.0078 113.766 71.1953C113.367 71.3828 113.027 71.6367 112.746 71.957C112.465 72.2695 112.234 72.6289 112.055 73.0352C111.883 73.4336 111.754 73.8477 111.668 74.2773V77.3125C111.824 77.8594 112.043 78.375 112.324 78.8594C112.605 79.3359 112.98 79.7227 113.449 80.0195C113.918 80.3086 114.508 80.4531 115.219 80.4531C115.805 80.4531 116.309 80.332 116.73 80.0898C117.16 79.8398 117.512 79.5 117.785 79.0703C118.066 78.6406 118.273 78.1484 118.406 77.5938C118.539 77.0312 118.605 76.4336 118.605 75.8008ZM130.934 78.6367C130.934 78.3242 130.863 78.0352 130.723 77.7695C130.59 77.4961 130.312 77.25 129.891 77.0312C129.477 76.8047 128.852 76.6094 128.016 76.4453C127.312 76.2969 126.676 76.1211 126.105 75.918C125.543 75.7148 125.062 75.4688 124.664 75.1797C124.273 74.8906 123.973 74.5508 123.762 74.1602C123.551 73.7695 123.445 73.3125 123.445 72.7891C123.445 72.2891 123.555 71.8164 123.773 71.3711C124 70.9258 124.316 70.5312 124.723 70.1875C125.137 69.8438 125.633 69.5742 126.211 69.3789C126.789 69.1836 127.434 69.0859 128.145 69.0859C129.16 69.0859 130.027 69.2656 130.746 69.625C131.465 69.9844 132.016 70.4648 132.398 71.0664C132.781 71.6602 132.973 72.3203 132.973 73.0469H130.805C130.805 72.6953 130.699 72.3555 130.488 72.0273C130.285 71.6914 129.984 71.4141 129.586 71.1953C129.195 70.9766 128.715 70.8672 128.145 70.8672C127.543 70.8672 127.055 70.9609 126.68 71.1484C126.312 71.3281 126.043 71.5586 125.871 71.8398C125.707 72.1211 125.625 72.418 125.625 72.7305C125.625 72.9648 125.664 73.1758 125.742 73.3633C125.828 73.543 125.977 73.7109 126.188 73.8672C126.398 74.0156 126.695 74.1562 127.078 74.2891C127.461 74.4219 127.949 74.5547 128.543 74.6875C129.582 74.9219 130.438 75.2031 131.109 75.5312C131.781 75.8594 132.281 76.2617 132.609 76.7383C132.938 77.2148 133.102 77.793 133.102 78.4727C133.102 79.0273 132.984 79.5352 132.75 79.9961C132.523 80.457 132.191 80.8555 131.754 81.1914C131.324 81.5195 130.809 81.7773 130.207 81.9648C129.613 82.1445 128.945 82.2344 128.203 82.2344C127.086 82.2344 126.141 82.0352 125.367 81.6367C124.594 81.2383 124.008 80.7227 123.609 80.0898C123.211 79.457 123.012 78.7891 123.012 78.0859H125.191C125.223 78.6797 125.395 79.1523 125.707 79.5039C126.02 79.8477 126.402 80.0938 126.855 80.2422C127.309 80.3828 127.758 80.4531 128.203 80.4531C128.797 80.4531 129.293 80.375 129.691 80.2188C130.098 80.0625 130.406 79.8477 130.617 79.5742C130.828 79.3008 130.934 78.9883 130.934 78.6367ZM135.855 80.8516C135.855 80.4844 135.969 80.1758 136.195 79.9258C136.43 79.668 136.766 79.5391 137.203 79.5391C137.641 79.5391 137.973 79.668 138.199 79.9258C138.434 80.1758 138.551 80.4844 138.551 80.8516C138.551 81.2109 138.434 81.5156 138.199 81.7656C137.973 82.0156 137.641 82.1406 137.203 82.1406C136.766 82.1406 136.43 82.0156 136.195 81.7656C135.969 81.5156 135.855 81.2109 135.855 80.8516ZM135.867 70.5039C135.867 70.1367 135.98 69.8281 136.207 69.5781C136.441 69.3203 136.777 69.1914 137.215 69.1914C137.652 69.1914 137.984 69.3203 138.211 69.5781C138.445 69.8281 138.562 70.1367 138.562 70.5039C138.562 70.8633 138.445 71.168 138.211 71.418C137.984 71.668 137.652 71.793 137.215 71.793C136.777 71.793 136.441 71.668 136.207 71.418C135.98 71.168 135.867 70.8633 135.867 70.5039ZM149.309 64.9375L142.195 83.4648H140.332L147.457 64.9375H149.309ZM156.598 64.9375L149.484 83.4648H147.621L154.746 64.9375H156.598ZM166.957 79.5391V64H169.137V82H167.145L166.957 79.5391ZM158.426 75.8008V75.5547C158.426 74.5859 158.543 73.707 158.777 72.918C159.02 72.1211 159.359 71.4375 159.797 70.8672C160.242 70.2969 160.77 69.8594 161.379 69.5547C161.996 69.2422 162.684 69.0859 163.441 69.0859C164.238 69.0859 164.934 69.2266 165.527 69.5078C166.129 69.7812 166.637 70.1836 167.051 70.7148C167.473 71.2383 167.805 71.8711 168.047 72.6133C168.289 73.3555 168.457 74.1953 168.551 75.1328V76.2109C168.465 77.1406 168.297 77.9766 168.047 78.7188C167.805 79.4609 167.473 80.0938 167.051 80.6172C166.637 81.1406 166.129 81.543 165.527 81.8242C164.926 82.0977 164.223 82.2344 163.418 82.2344C162.676 82.2344 161.996 82.0742 161.379 81.7539C160.77 81.4336 160.242 80.9844 159.797 80.4062C159.359 79.8281 159.02 79.1484 158.777 78.3672C158.543 77.5781 158.426 76.7227 158.426 75.8008ZM160.605 75.5547V75.8008C160.605 76.4336 160.668 77.0273 160.793 77.582C160.926 78.1367 161.129 78.625 161.402 79.0469C161.676 79.4688 162.023 79.8008 162.445 80.043C162.867 80.2773 163.371 80.3945 163.957 80.3945C164.676 80.3945 165.266 80.2422 165.727 79.9375C166.195 79.6328 166.57 79.2305 166.852 78.7305C167.133 78.2305 167.352 77.6875 167.508 77.1016V74.2773C167.414 73.8477 167.277 73.4336 167.098 73.0352C166.926 72.6289 166.699 72.2695 166.418 71.957C166.145 71.6367 165.805 71.3828 165.398 71.1953C165 71.0078 164.527 70.9141 163.98 70.9141C163.387 70.9141 162.875 71.0391 162.445 71.2891C162.023 71.5312 161.676 71.8672 161.402 72.2969C161.129 72.7188 160.926 73.2109 160.793 73.7734C160.668 74.3281 160.605 74.9219 160.605 75.5547ZM171.938 75.8008V75.5312C171.938 74.6172 172.07 73.7695 172.336 72.9883C172.602 72.1992 172.984 71.5156 173.484 70.9375C173.984 70.3516 174.59 69.8984 175.301 69.5781C176.012 69.25 176.809 69.0859 177.691 69.0859C178.582 69.0859 179.383 69.25 180.094 69.5781C180.812 69.8984 181.422 70.3516 181.922 70.9375C182.43 71.5156 182.816 72.1992 183.082 72.9883C183.348 73.7695 183.48 74.6172 183.48 75.5312V75.8008C183.48 76.7148 183.348 77.5625 183.082 78.3438C182.816 79.125 182.43 79.8086 181.922 80.3945C181.422 80.9727 180.816 81.4258 180.105 81.7539C179.402 82.0742 178.605 82.2344 177.715 82.2344C176.824 82.2344 176.023 82.0742 175.312 81.7539C174.602 81.4258 173.992 80.9727 173.484 80.3945C172.984 79.8086 172.602 79.125 172.336 78.3438C172.07 77.5625 171.938 76.7148 171.938 75.8008ZM174.105 75.5312V75.8008C174.105 76.4336 174.18 77.0312 174.328 77.5938C174.477 78.1484 174.699 78.6406 174.996 79.0703C175.301 79.5 175.68 79.8398 176.133 80.0898C176.586 80.332 177.113 80.4531 177.715 80.4531C178.309 80.4531 178.828 80.332 179.273 80.0898C179.727 79.8398 180.102 79.5 180.398 79.0703C180.695 78.6406 180.918 78.1484 181.066 77.5938C181.223 77.0312 181.301 76.4336 181.301 75.8008V75.5312C181.301 74.9062 181.223 74.3164 181.066 73.7617C180.918 73.1992 180.691 72.7031 180.387 72.2734C180.09 71.8359 179.715 71.4922 179.262 71.2422C178.816 70.9922 178.293 70.8672 177.691 70.8672C177.098 70.8672 176.574 70.9922 176.121 71.2422C175.676 71.4922 175.301 71.8359 174.996 72.2734C174.699 72.7031 174.477 73.1992 174.328 73.7617C174.18 74.3164 174.105 74.9062 174.105 75.5312ZM188.355 71.8398V82H186.176V69.3203H188.238L188.355 71.8398ZM187.91 75.1797L186.902 75.1445C186.91 74.2773 187.023 73.4766 187.242 72.7422C187.461 72 187.785 71.3555 188.215 70.8086C188.645 70.2617 189.18 69.8398 189.82 69.543C190.461 69.2383 191.203 69.0859 192.047 69.0859C192.641 69.0859 193.188 69.1719 193.688 69.3438C194.188 69.5078 194.621 69.7695 194.988 70.1289C195.355 70.4883 195.641 70.9492 195.844 71.5117C196.047 72.0742 196.148 72.7539 196.148 73.5508V82H193.98V73.6562C193.98 72.9922 193.867 72.4609 193.641 72.0625C193.422 71.6641 193.109 71.375 192.703 71.1953C192.297 71.0078 191.82 70.9141 191.273 70.9141C190.633 70.9141 190.098 71.0273 189.668 71.2539C189.238 71.4805 188.895 71.793 188.637 72.1914C188.379 72.5898 188.191 73.0469 188.074 73.5625C187.965 74.0703 187.91 74.6094 187.91 75.1797ZM196.125 73.9844L194.672 74.4297C194.68 73.7344 194.793 73.0664 195.012 72.4258C195.238 71.7852 195.562 71.2148 195.984 70.7148C196.414 70.2148 196.941 69.8203 197.566 69.5312C198.191 69.2344 198.906 69.0859 199.711 69.0859C200.391 69.0859 200.992 69.1758 201.516 69.3555C202.047 69.5352 202.492 69.8125 202.852 70.1875C203.219 70.5547 203.496 71.0273 203.684 71.6055C203.871 72.1836 203.965 72.8711 203.965 73.668V82H201.785V73.6445C201.785 72.9336 201.672 72.3828 201.445 71.9922C201.227 71.5938 200.914 71.3164 200.508 71.1602C200.109 70.9961 199.633 70.9141 199.078 70.9141C198.602 70.9141 198.18 70.9961 197.812 71.1602C197.445 71.3242 197.137 71.5508 196.887 71.8398C196.637 72.1211 196.445 72.4453 196.312 72.8125C196.188 73.1797 196.125 73.5703 196.125 73.9844ZM214.723 79.832V73.3047C214.723 72.8047 214.621 72.3711 214.418 72.0039C214.223 71.6289 213.926 71.3398 213.527 71.1367C213.129 70.9336 212.637 70.832 212.051 70.832C211.504 70.832 211.023 70.9258 210.609 71.1133C210.203 71.3008 209.883 71.5469 209.648 71.8516C209.422 72.1562 209.309 72.4844 209.309 72.8359H207.141C207.141 72.3828 207.258 71.9336 207.492 71.4883C207.727 71.043 208.062 70.6406 208.5 70.2812C208.945 69.9141 209.477 69.625 210.094 69.4141C210.719 69.1953 211.414 69.0859 212.18 69.0859C213.102 69.0859 213.914 69.2422 214.617 69.5547C215.328 69.8672 215.883 70.3398 216.281 70.9727C216.688 71.5977 216.891 72.3828 216.891 73.3281V79.2344C216.891 79.6562 216.926 80.1055 216.996 80.582C217.074 81.0586 217.188 81.4688 217.336 81.8125V82H215.074C214.965 81.75 214.879 81.418 214.816 81.0039C214.754 80.582 214.723 80.1914 214.723 79.832ZM215.098 74.3125L215.121 75.8359H212.93C212.312 75.8359 211.762 75.8867 211.277 75.9883C210.793 76.082 210.387 76.2266 210.059 76.4219C209.73 76.6172 209.48 76.8633 209.309 77.1602C209.137 77.4492 209.051 77.7891 209.051 78.1797C209.051 78.5781 209.141 78.9414 209.32 79.2695C209.5 79.5977 209.77 79.8594 210.129 80.0547C210.496 80.2422 210.945 80.3359 211.477 80.3359C212.141 80.3359 212.727 80.1953 213.234 79.9141C213.742 79.6328 214.145 79.2891 214.441 78.8828C214.746 78.4766 214.91 78.082 214.934 77.6992L215.859 78.7422C215.805 79.0703 215.656 79.4336 215.414 79.832C215.172 80.2305 214.848 80.6133 214.441 80.9805C214.043 81.3398 213.566 81.6406 213.012 81.8828C212.465 82.1172 211.848 82.2344 211.16 82.2344C210.301 82.2344 209.547 82.0664 208.898 81.7305C208.258 81.3945 207.758 80.9453 207.398 80.3828C207.047 79.8125 206.871 79.1758 206.871 78.4727C206.871 77.793 207.004 77.1953 207.27 76.6797C207.535 76.1562 207.918 75.7227 208.418 75.3789C208.918 75.0273 209.52 74.7617 210.223 74.582C210.926 74.4023 211.711 74.3125 212.578 74.3125H215.098ZM222.656 69.3203V82H220.477V69.3203H222.656ZM220.312 65.957C220.312 65.6055 220.418 65.3086 220.629 65.0664C220.848 64.8242 221.168 64.7031 221.59 64.7031C222.004 64.7031 222.32 64.8242 222.539 65.0664C222.766 65.3086 222.879 65.6055 222.879 65.957C222.879 66.293 222.766 66.582 222.539 66.8242C222.32 67.0586 222.004 67.1758 221.59 67.1758C221.168 67.1758 220.848 67.0586 220.629 66.8242C220.418 66.582 220.312 66.293 220.312 65.957ZM228.305 72.0273V82H226.137V69.3203H228.188L228.305 72.0273ZM227.789 75.1797L226.887 75.1445C226.895 74.2773 227.023 73.4766 227.273 72.7422C227.523 72 227.875 71.3555 228.328 70.8086C228.781 70.2617 229.32 69.8398 229.945 69.543C230.578 69.2383 231.277 69.0859 232.043 69.0859C232.668 69.0859 233.23 69.1719 233.73 69.3438C234.23 69.5078 234.656 69.7734 235.008 70.1406C235.367 70.5078 235.641 70.9844 235.828 71.5703C236.016 72.1484 236.109 72.8555 236.109 73.6914V82H233.93V73.668C233.93 73.0039 233.832 72.4727 233.637 72.0742C233.441 71.668 233.156 71.375 232.781 71.1953C232.406 71.0078 231.945 70.9141 231.398 70.9141C230.859 70.9141 230.367 71.0273 229.922 71.2539C229.484 71.4805 229.105 71.793 228.785 72.1914C228.473 72.5898 228.227 73.0469 228.047 73.5625C227.875 74.0703 227.789 74.6094 227.789 75.1797ZM250.699 76.2578V78.0391H238.371V76.7617L246.012 64.9375H247.781L245.883 68.3594L240.832 76.2578H250.699ZM248.32 64.9375V82H246.152V64.9375H248.32ZM252.938 80.8516C252.938 80.4844 253.051 80.1758 253.277 79.9258C253.512 79.668 253.848 79.5391 254.285 79.5391C254.723 79.5391 255.055 79.668 255.281 79.9258C255.516 80.1758 255.633 80.4844 255.633 80.8516C255.633 81.2109 255.516 81.5156 255.281 81.7656C255.055 82.0156 254.723 82.1406 254.285 82.1406C253.848 82.1406 253.512 82.0156 253.277 81.7656C253.051 81.5156 252.938 81.2109 252.938 80.8516ZM261.398 71.3125V82H259.23V69.3203H261.34L261.398 71.3125ZM265.359 69.25L265.348 71.2656C265.168 71.2266 264.996 71.2031 264.832 71.1953C264.676 71.1797 264.496 71.1719 264.293 71.1719C263.793 71.1719 263.352 71.25 262.969 71.4062C262.586 71.5625 262.262 71.7812 261.996 72.0625C261.73 72.3438 261.52 72.6797 261.363 73.0703C261.215 73.4531 261.117 73.875 261.07 74.3359L260.461 74.6875C260.461 73.9219 260.535 73.2031 260.684 72.5312C260.84 71.8594 261.078 71.2656 261.398 70.75C261.719 70.2266 262.125 69.8203 262.617 69.5312C263.117 69.2344 263.711 69.0859 264.398 69.0859C264.555 69.0859 264.734 69.1055 264.938 69.1445C265.141 69.1758 265.281 69.2109 265.359 69.25ZM275.121 79.0703V69.3203H277.301V82H275.227L275.121 79.0703ZM275.531 76.3984L276.434 76.375C276.434 77.2188 276.344 78 276.164 78.7188C275.992 79.4297 275.711 80.0469 275.32 80.5703C274.93 81.0938 274.418 81.5039 273.785 81.8008C273.152 82.0898 272.383 82.2344 271.477 82.2344C270.859 82.2344 270.293 82.1445 269.777 81.9648C269.27 81.7852 268.832 81.5078 268.465 81.1328C268.098 80.7578 267.812 80.2695 267.609 79.668C267.414 79.0664 267.316 78.3438 267.316 77.5V69.3203H269.484V77.5234C269.484 78.0938 269.547 78.5664 269.672 78.9414C269.805 79.3086 269.98 79.6016 270.199 79.8203C270.426 80.0312 270.676 80.1797 270.949 80.2656C271.23 80.3516 271.52 80.3945 271.816 80.3945C272.738 80.3945 273.469 80.2188 274.008 79.8672C274.547 79.5078 274.934 79.0273 275.168 78.4258C275.41 77.8164 275.531 77.1406 275.531 76.3984Z" fill="#333333"/>
<path d="M293.771 72.7939C293.59 72.9898 293.5 73.2392 293.5 73.542C293.5 73.8448 293.59 74.0941 293.771 74.2901L298.309 79.2061C298.408 79.313 298.515 79.3885 298.63 79.4327C298.745 79.4768 298.868 79.4993 299 79.5C299.132 79.5 299.259 79.4733 299.383 79.4198C299.506 79.3664 299.609 79.2952 299.691 79.2061L304.229 74.2901C304.41 74.0941 304.5 73.8448 304.5 73.542C304.5 73.2392 304.41 72.9898 304.229 72.7939C304.048 72.598 303.818 72.5 303.538 72.5C303.259 72.5 303.028 72.598 302.848 72.7939L299 76.9618L295.152 72.7939C294.972 72.598 294.741 72.5 294.462 72.5C294.182 72.5 293.952 72.598 293.771 72.7939Z" fill="#CCCCCC"/>
<rect x="60" y="50.5" width="261" height="48" rx="7.5" stroke="#E7E7E7"/>
</svg>
