<svg width="34" height="35" fill="none" xmlns="http://www.w3.org/2000/svg"><path d="M.375 24.625A2.375 2.375 0 0 1 2.75 22.25H7.5a2.375 2.375 0 0 1 2.375 2.375v7.125A2.375 2.375 0 0 1 7.5 34.125H2.75A2.375 2.375 0 0 1 .375 31.75v-7.125zm11.875-9.5a2.375 2.375 0 0 1 2.375-2.375h4.75a2.375 2.375 0 0 1 2.375 2.375V31.75a2.375 2.375 0 0 1-2.375 2.375h-4.75a2.375 2.375 0 0 1-2.375-2.375V15.125zM24.125 3.25A2.375 2.375 0 0 1 26.5.875h4.75a2.375 2.375 0 0 1 2.375 2.375v28.5a2.375 2.375 0 0 1-2.375 2.375H26.5a2.375 2.375 0 0 1-2.375-2.375V3.25z" fill="url(#a)"/><defs><linearGradient id="a" x1=".375" y1="17.826" x2="31.429" y2="17.826" gradientUnits="userSpaceOnUse"><stop stop-color="#27C58B"/><stop offset="1" stop-color="#029E81"/></linearGradient></defs></svg>