<svg width="26" height="26" viewBox="0 0 26 26" fill="none" xmlns="http://www.w3.org/2000/svg">
<path d="M4.18359 8.25391V24.193C4.18359 25.0974 4.86185 25.7756 5.7662 25.7756H20.1227C21.0271 25.7756 21.7053 25.0974 21.7053 24.193V8.25391H4.18359ZM9.04446 22.6104H7.46185V11.4191H9.04446V22.6104ZM12.2097 22.6104H10.6271V11.4191H12.2097V22.6104ZM15.3749 22.6104H13.7923V11.4191H15.3749V22.6104ZM18.5401 22.6104H16.9575V11.4191H18.5401V22.6104Z" fill="#57B36E"/>
<path d="M22.1561 3.39178H16.9561V1.47004C16.9561 0.79178 16.3909 0.226562 15.7127 0.226562H10.1735C9.49526 0.226563 9.04309 0.79178 9.04309 1.47004V3.39178H3.84309C3.16483 3.39178 2.59961 3.957 2.59961 4.63526V6.67004H23.3996V4.63526C23.3996 3.957 22.8344 3.39178 22.1561 3.39178ZM15.3735 3.39178H10.6257V1.80917H15.3735V3.39178V3.39178Z" fill="#57B36E"/>
</svg>
