<svg width="685" height="428" viewBox="0 0 685 428" fill="none" xmlns="http://www.w3.org/2000/svg">
<g filter="url(#filter0_b_3_1524)">
<rect x="1" y="1" width="683" height="426" rx="13.2223" fill="white"/>
<rect x="0.669442" y="0.669442" width="683.661" height="426.661" rx="13.5529" stroke="black" stroke-opacity="0.12" stroke-width="0.661116"/>
</g>
<g filter="url(#filter1_di_3_1524)">
<path d="M1 22.1557C1 14.7505 1 11.0479 2.44115 8.21951C3.70882 5.73157 5.73157 3.70882 8.21951 2.44115C11.0479 1 14.7505 1 22.1557 1H662.844C670.249 1 673.952 1 676.78 2.44115C679.268 3.70882 681.291 5.73157 682.559 8.21951C684 11.0479 684 14.7505 684 22.1557V38.0225H1V22.1557Z" fill="white"/>
<path fill-rule="evenodd" clip-rule="evenodd" d="M19.5113 27.4449C23.8928 27.4449 27.4447 23.893 27.4447 19.5115C27.4447 15.13 23.8928 11.5781 19.5113 11.5781C15.1298 11.5781 11.5779 15.13 11.5779 19.5115C11.5779 23.893 15.1298 27.4449 19.5113 27.4449Z" fill="#EC6A5E"/>
<path d="M27.1141 19.5115C27.1141 23.7105 23.7102 27.1144 19.5113 27.1144C15.3123 27.1144 11.9084 23.7105 11.9084 19.5115C11.9084 15.3126 15.3123 11.9087 19.5113 11.9087C23.7102 11.9087 27.1141 15.3126 27.1141 19.5115Z" stroke="black" stroke-opacity="0.12" stroke-width="0.661116"/>
<path fill-rule="evenodd" clip-rule="evenodd" d="M45.9559 27.4449C50.3374 27.4449 53.8893 23.893 53.8893 19.5115C53.8893 15.13 50.3374 11.5781 45.9559 11.5781C41.5744 11.5781 38.0225 15.13 38.0225 19.5115C38.0225 23.893 41.5744 27.4449 45.9559 27.4449Z" fill="#F5BF4F"/>
<path d="M53.5588 19.5115C53.5588 23.7105 50.1548 27.1144 45.9559 27.1144C41.757 27.1144 38.3531 23.7105 38.3531 19.5115C38.3531 15.3126 41.757 11.9087 45.9559 11.9087C50.1548 11.9087 53.5588 15.3126 53.5588 19.5115Z" stroke="black" stroke-opacity="0.12" stroke-width="0.661116"/>
<path fill-rule="evenodd" clip-rule="evenodd" d="M72.4006 27.4449C76.7821 27.4449 80.334 23.893 80.334 19.5115C80.334 15.13 76.7821 11.5781 72.4006 11.5781C68.0191 11.5781 64.4672 15.13 64.4672 19.5115C64.4672 23.893 68.0191 27.4449 72.4006 27.4449Z" fill="#61C554"/>
<path d="M80.0034 19.5115C80.0034 23.7105 76.5995 27.1144 72.4006 27.1144C68.2016 27.1144 64.7977 23.7105 64.7977 19.5115C64.7977 15.3126 68.2016 11.9087 72.4006 11.9087C76.5995 11.9087 80.0034 15.3126 80.0034 19.5115Z" stroke="black" stroke-opacity="0.12" stroke-width="0.661116"/>
<path d="M178.745 24.9336V14.7518H182.822C183.571 14.7518 184.195 14.8628 184.696 15.0849C185.196 15.3069 185.572 15.6152 185.824 16.0096C186.076 16.4007 186.202 16.8514 186.202 17.3619C186.202 17.7596 186.123 18.1093 185.964 18.4109C185.804 18.7092 185.586 18.9544 185.307 19.1467C185.032 19.3356 184.717 19.4698 184.363 19.5494V19.6488C184.751 19.6654 185.113 19.7747 185.451 19.9769C185.793 20.1791 186.07 20.4625 186.282 20.8271C186.494 21.1883 186.6 21.6192 186.6 22.1197C186.6 22.6599 186.466 23.1422 186.197 23.5664C185.932 23.9873 185.539 24.3204 185.019 24.5657C184.499 24.811 183.857 24.9336 183.095 24.9336H178.745ZM180.898 23.1737H182.652C183.252 23.1737 183.69 23.0593 183.965 22.8306C184.24 22.5986 184.378 22.2904 184.378 21.9059C184.378 21.6242 184.31 21.3756 184.174 21.1602C184.038 20.9447 183.844 20.7757 183.592 20.6531C183.344 20.5304 183.047 20.4691 182.702 20.4691H180.898V23.1737ZM180.898 19.0124H182.493C182.788 19.0124 183.05 18.9611 183.279 18.8583C183.511 18.7522 183.693 18.6031 183.826 18.4109C183.962 18.2186 184.03 17.9883 184.03 17.7198C184.03 17.3519 183.899 17.0553 183.637 16.8299C183.378 16.6045 183.01 16.4918 182.533 16.4918H180.898V19.0124ZM191.355 25.0827C190.583 25.0827 189.915 24.9187 189.352 24.5906C188.792 24.2591 188.359 23.7984 188.054 23.2085C187.749 22.6152 187.597 21.9274 187.597 21.1452C187.597 20.3564 187.749 19.667 188.054 19.0771C188.359 18.4838 188.792 18.0231 189.352 17.695C189.915 17.3635 190.583 17.1978 191.355 17.1978C192.127 17.1978 192.794 17.3635 193.354 17.695C193.917 18.0231 194.351 18.4838 194.656 19.0771C194.961 19.667 195.114 20.3564 195.114 21.1452C195.114 21.9274 194.961 22.6152 194.656 23.2085C194.351 23.7984 193.917 24.2591 193.354 24.5906C192.794 24.9187 192.127 25.0827 191.355 25.0827ZM191.365 23.4421C191.716 23.4421 192.01 23.3427 192.245 23.1438C192.48 22.9416 192.658 22.6665 192.777 22.3185C192.9 21.9705 192.961 21.5745 192.961 21.1303C192.961 20.6862 192.9 20.2901 192.777 19.9421C192.658 19.5941 192.48 19.319 192.245 19.1168C192.01 18.9147 191.716 18.8136 191.365 18.8136C191.01 18.8136 190.712 18.9147 190.47 19.1168C190.232 19.319 190.051 19.5941 189.928 19.9421C189.809 20.2901 189.749 20.6862 189.749 21.1303C189.749 21.5745 189.809 21.9705 189.928 22.3185C190.051 22.6665 190.232 22.9416 190.47 23.1438C190.712 23.3427 191.01 23.4421 191.365 23.4421ZM200.497 17.2972V18.8881H195.898V17.2972H200.497ZM196.942 15.4677H199.06V22.587C199.06 22.7826 199.09 22.935 199.149 23.0444C199.209 23.1504 199.292 23.225 199.398 23.2681C199.507 23.3112 199.633 23.3327 199.776 23.3327C199.875 23.3327 199.975 23.3245 200.074 23.3079C200.173 23.288 200.25 23.2731 200.303 23.2631L200.636 24.8391C200.53 24.8723 200.381 24.9104 200.188 24.9535C199.996 24.9999 199.762 25.0281 199.487 25.038C198.977 25.0579 198.53 24.9899 198.145 24.8342C197.764 24.6784 197.467 24.4364 197.255 24.1083C197.043 23.7802 196.939 23.3659 196.942 22.8654V15.4677ZM205.927 17.2972V18.8881H201.214V17.2972H205.927ZM202.293 24.9336V16.7454C202.293 16.1919 202.4 15.7328 202.616 15.3683C202.834 15.0037 203.133 14.7302 203.511 14.5479C203.888 14.3656 204.318 14.2745 204.798 14.2745C205.123 14.2745 205.42 14.2994 205.688 14.3491C205.96 14.3988 206.162 14.4435 206.295 14.4833L205.917 16.0742C205.834 16.0477 205.731 16.0228 205.609 15.9996C205.489 15.9764 205.367 15.9648 205.241 15.9648C204.929 15.9648 204.712 16.0378 204.589 16.1836C204.467 16.3261 204.405 16.5266 204.405 16.7852V24.9336H202.293ZM209.069 25.0778C208.582 25.0778 208.147 24.9933 207.766 24.8242C207.385 24.6519 207.083 24.3983 206.861 24.0636C206.643 23.7255 206.533 23.3046 206.533 22.8008C206.533 22.3765 206.611 22.0202 206.767 21.7319C206.923 21.4435 207.135 21.2115 207.403 21.0359C207.672 20.8602 207.977 20.7276 208.318 20.6381C208.663 20.5487 209.024 20.4857 209.402 20.4492C209.846 20.4028 210.204 20.3597 210.476 20.32C210.748 20.2769 210.945 20.2139 211.067 20.131C211.19 20.0482 211.251 19.9255 211.251 19.7631V19.7333C211.251 19.4184 211.152 19.1748 210.953 19.0025C210.757 18.8301 210.479 18.744 210.118 18.744C209.737 18.744 209.433 18.8285 209.208 18.9975C208.983 19.1632 208.833 19.372 208.761 19.6239L206.802 19.4648C206.901 19.0008 207.097 18.5998 207.388 18.2617C207.68 17.9203 208.056 17.6585 208.517 17.4762C208.981 17.2906 209.518 17.1978 210.128 17.1978C210.552 17.1978 210.958 17.2475 211.346 17.3469C211.737 17.4464 212.083 17.6005 212.385 17.8093C212.69 18.0181 212.93 18.2866 213.106 18.6147C213.281 18.9395 213.369 19.329 213.369 19.783V24.9336H211.361V23.8746H211.301C211.178 24.1133 211.014 24.3237 210.809 24.506C210.603 24.685 210.356 24.8259 210.068 24.9286C209.78 25.0281 209.447 25.0778 209.069 25.0778ZM209.675 23.6161C209.987 23.6161 210.262 23.5548 210.501 23.4322C210.739 23.3062 210.926 23.1372 211.062 22.9251C211.198 22.7129 211.266 22.4727 211.266 22.2042V21.3938C211.2 21.4369 211.109 21.4767 210.993 21.5131C210.88 21.5463 210.752 21.5778 210.61 21.6076C210.467 21.6341 210.325 21.659 210.182 21.6822C210.04 21.7021 209.911 21.7203 209.795 21.7369C209.546 21.7733 209.329 21.8313 209.143 21.9109C208.958 21.9904 208.814 22.0981 208.711 22.234C208.608 22.3666 208.557 22.5323 208.557 22.7312C208.557 23.0195 208.661 23.2399 208.87 23.3924C209.082 23.5415 209.35 23.6161 209.675 23.6161ZM220.002 27.7972V23.7106H219.938C219.838 23.9227 219.698 24.1332 219.515 24.342C219.336 24.5475 219.103 24.7182 218.814 24.854C218.529 24.9899 218.181 25.0579 217.77 25.0579C217.19 25.0579 216.665 24.9087 216.194 24.6104C215.727 24.3088 215.356 23.8664 215.081 23.283C214.809 22.6964 214.673 21.9772 214.673 21.1254C214.673 20.2504 214.814 19.5228 215.096 18.9428C215.377 18.3595 215.752 17.9237 216.219 17.6353C216.69 17.3436 217.205 17.1978 217.765 17.1978C218.193 17.1978 218.549 17.2707 218.834 17.4165C219.122 17.5591 219.355 17.738 219.53 17.9535C219.709 18.1656 219.845 18.3744 219.938 18.5799H220.027V17.2972H222.115V27.7972H220.002ZM218.441 23.3725C218.783 23.3725 219.071 23.2797 219.306 23.0941C219.545 22.9052 219.727 22.6417 219.853 22.3036C219.983 21.9656 220.047 21.5695 220.047 21.1154C220.047 20.6613 219.984 20.2669 219.858 19.9322C219.732 19.5974 219.55 19.3389 219.311 19.1566C219.073 18.9743 218.783 18.8832 218.441 18.8832C218.093 18.8832 217.8 18.9776 217.561 19.1665C217.323 19.3555 217.142 19.6173 217.02 19.9521C216.897 20.2868 216.836 20.6746 216.836 21.1154C216.836 21.5595 216.897 21.9523 217.02 22.2937C217.145 22.6317 217.326 22.8969 217.561 23.0891C217.8 23.2781 218.093 23.3725 218.441 23.3725ZM227.821 17.2972V18.8881H223.223V17.2972H227.821ZM224.267 15.4677H226.385V22.587C226.385 22.7826 226.415 22.935 226.474 23.0444C226.534 23.1504 226.617 23.225 226.723 23.2681C226.832 23.3112 226.958 23.3327 227.101 23.3327C227.2 23.3327 227.299 23.3245 227.399 23.3079C227.498 23.288 227.575 23.2731 227.628 23.2631L227.961 24.8391C227.855 24.8723 227.705 24.9104 227.513 24.9535C227.321 24.9999 227.087 25.0281 226.812 25.038C226.302 25.0579 225.854 24.9899 225.47 24.8342C225.089 24.6784 224.792 24.4364 224.58 24.1083C224.368 23.7802 224.263 23.3659 224.267 22.8654V15.4677ZM232.513 25.0827C231.741 25.0827 231.073 24.9187 230.51 24.5906C229.95 24.2591 229.517 23.7984 229.212 23.2085C228.907 22.6152 228.755 21.9274 228.755 21.1452C228.755 20.3564 228.907 19.667 229.212 19.0771C229.517 18.4838 229.95 18.0231 230.51 17.695C231.073 17.3635 231.741 17.1978 232.513 17.1978C233.286 17.1978 233.952 17.3635 234.512 17.695C235.075 18.0231 235.51 18.4838 235.814 19.0771C236.119 19.667 236.272 20.3564 236.272 21.1452C236.272 21.9274 236.119 22.6152 235.814 23.2085C235.51 23.7984 235.075 24.2591 234.512 24.5906C233.952 24.9187 233.286 25.0827 232.513 25.0827ZM232.523 23.4421C232.875 23.4421 233.168 23.3427 233.403 23.1438C233.639 22.9416 233.816 22.6665 233.935 22.3185C234.058 21.9705 234.119 21.5745 234.119 21.1303C234.119 20.6862 234.058 20.2901 233.935 19.9421C233.816 19.5941 233.639 19.319 233.403 19.1168C233.168 18.9147 232.875 18.8136 232.523 18.8136C232.169 18.8136 231.87 18.9147 231.628 19.1168C231.39 19.319 231.209 19.5941 231.086 19.9421C230.967 20.2901 230.908 20.6862 230.908 21.1303C230.908 21.5745 230.967 21.9705 231.086 22.3185C231.209 22.6665 231.39 22.9416 231.628 23.1438C231.87 23.3427 232.169 23.4421 232.523 23.4421ZM237.593 24.9336V17.2972H239.646V18.6296H239.726C239.865 18.1557 240.099 17.7977 240.427 17.5558C240.755 17.3105 241.133 17.1879 241.56 17.1879C241.666 17.1879 241.781 17.1945 241.903 17.2077C242.026 17.221 242.134 17.2392 242.227 17.2624V19.1417C242.127 19.1119 241.99 19.0853 241.814 19.0621C241.638 19.0389 241.477 19.0273 241.332 19.0273C241.02 19.0273 240.742 19.0953 240.496 19.2312C240.254 19.3638 240.062 19.5494 239.92 19.788C239.78 20.0266 239.711 20.3017 239.711 20.6133V24.9336H237.593ZM243.628 25.0629C243.3 25.0629 243.019 24.9469 242.783 24.7148C242.551 24.4795 242.435 24.1978 242.435 23.8697C242.435 23.5449 242.551 23.2665 242.783 23.0344C243.019 22.8024 243.3 22.6864 243.628 22.6864C243.947 22.6864 244.225 22.8024 244.464 23.0344C244.702 23.2665 244.822 23.5449 244.822 23.8697C244.822 24.0884 244.765 24.2889 244.653 24.4712C244.543 24.6502 244.399 24.7944 244.22 24.9038C244.041 25.0098 243.844 25.0629 243.628 25.0629ZM246.504 24.9336V17.2972H248.558V18.6296H248.637C248.776 18.1557 249.01 17.7977 249.338 17.5558C249.666 17.3105 250.044 17.1879 250.472 17.1879C250.578 17.1879 250.692 17.1945 250.815 17.2077C250.937 17.221 251.045 17.2392 251.138 17.2624V19.1417C251.039 19.1119 250.901 19.0853 250.725 19.0621C250.55 19.0389 250.389 19.0273 250.243 19.0273C249.932 19.0273 249.653 19.0953 249.408 19.2312C249.166 19.3638 248.974 19.5494 248.831 19.788C248.692 20.0266 248.622 20.3017 248.622 20.6133V24.9336H246.504ZM257.074 21.6822V17.2972H259.192V24.9336H257.158V23.5465H257.079C256.907 23.994 256.62 24.3536 256.219 24.6254C255.821 24.8971 255.336 25.033 254.762 25.033C254.252 25.033 253.803 24.917 253.415 24.685C253.027 24.453 252.724 24.1232 252.505 23.6957C252.29 23.2681 252.18 22.756 252.177 22.1594V17.2972H254.295V21.7816C254.298 22.2324 254.419 22.5887 254.658 22.8505C254.896 23.1123 255.216 23.2433 255.617 23.2433C255.872 23.2433 256.111 23.1853 256.333 23.0692C256.555 22.9499 256.734 22.7743 256.87 22.5423C257.009 22.3103 257.077 22.0236 257.074 21.6822ZM268.772 19.0025V20.6829H264.129V19.0025H268.772ZM279.904 24.9336L276.633 20.5934H275.897V24.9336H273.745V14.7518H275.897V18.8185H276.33L279.711 14.7518H282.39L278.418 19.4748L282.574 24.9336H279.904ZM285.739 25.0778C285.251 25.0778 284.817 24.9933 284.436 24.8242C284.055 24.6519 283.753 24.3983 283.531 24.0636C283.312 23.7255 283.203 23.3046 283.203 22.8008C283.203 22.3765 283.281 22.0202 283.437 21.7319C283.592 21.4435 283.805 21.2115 284.073 21.0359C284.342 20.8602 284.646 20.7276 284.988 20.6381C285.333 20.5487 285.694 20.4857 286.072 20.4492C286.516 20.4028 286.874 20.3597 287.146 20.32C287.417 20.2769 287.615 20.2139 287.737 20.131C287.86 20.0482 287.921 19.9255 287.921 19.7631V19.7333C287.921 19.4184 287.822 19.1748 287.623 19.0025C287.427 18.8301 287.149 18.744 286.788 18.744C286.406 18.744 286.103 18.8285 285.878 18.9975C285.652 19.1632 285.503 19.372 285.43 19.6239L283.472 19.4648C283.571 19.0008 283.766 18.5998 284.058 18.2617C284.35 17.9203 284.726 17.6585 285.187 17.4762C285.651 17.2906 286.188 17.1978 286.798 17.1978C287.222 17.1978 287.628 17.2475 288.016 17.3469C288.407 17.4464 288.753 17.6005 289.055 17.8093C289.36 18.0181 289.6 18.2866 289.775 18.6147C289.951 18.9395 290.039 19.329 290.039 19.783V24.9336H288.03V23.8746H287.971C287.848 24.1133 287.684 24.3237 287.479 24.506C287.273 24.685 287.026 24.8259 286.738 24.9286C286.449 25.0281 286.116 25.0778 285.739 25.0778ZM286.345 23.6161C286.657 23.6161 286.932 23.5548 287.17 23.4322C287.409 23.3062 287.596 23.1372 287.732 22.9251C287.868 22.7129 287.936 22.4727 287.936 22.2042V21.3938C287.87 21.4369 287.779 21.4767 287.663 21.5131C287.55 21.5463 287.422 21.5778 287.28 21.6076C287.137 21.6341 286.995 21.659 286.852 21.6822C286.71 21.7021 286.58 21.7203 286.464 21.7369C286.216 21.7733 285.999 21.8313 285.813 21.9109C285.628 21.9904 285.483 22.0981 285.381 22.234C285.278 22.3666 285.226 22.5323 285.226 22.7312C285.226 23.0195 285.331 23.2399 285.54 23.3924C285.752 23.5415 286.02 23.6161 286.345 23.6161ZM291.626 24.9336V17.2972H293.744V20.2603H294.341L296.419 17.2972H298.905L296.205 21.0856L298.934 24.9336H296.419L294.534 22.2241H293.744V24.9336H291.626ZM302.565 22.771H304.618C304.628 23.0228 304.741 23.2217 304.956 23.3675C305.171 23.5134 305.45 23.5863 305.791 23.5863C306.136 23.5863 306.426 23.5067 306.661 23.3477C306.897 23.1853 307.014 22.9532 307.014 22.6516C307.014 22.466 306.968 22.3053 306.875 22.1694C306.782 22.0302 306.653 21.9208 306.487 21.8413C306.322 21.7617 306.129 21.7219 305.911 21.7219H304.812V20.3349H305.911C306.239 20.3349 306.491 20.2586 306.666 20.1062C306.845 19.9537 306.935 19.7631 306.935 19.5344C306.935 19.2759 306.842 19.0688 306.656 18.913C306.474 18.7539 306.227 18.6744 305.916 18.6744C305.601 18.6744 305.339 18.7456 305.13 18.8881C304.925 19.0273 304.818 19.2096 304.812 19.435H302.769C302.775 18.9776 302.913 18.5816 303.181 18.2468C303.453 17.9121 303.818 17.6535 304.275 17.4712C304.736 17.2889 305.251 17.1978 305.821 17.1978C306.444 17.1978 306.981 17.2856 307.432 17.4613C307.886 17.6336 308.234 17.8806 308.476 18.2021C308.721 18.5236 308.844 18.9064 308.844 19.3505C308.844 19.7549 308.711 20.0929 308.446 20.3647C308.181 20.6365 307.81 20.8304 307.332 20.9464V21.0259C307.647 21.0458 307.932 21.1303 308.188 21.2795C308.443 21.4286 308.647 21.6341 308.799 21.896C308.952 22.1545 309.028 22.4611 309.028 22.8157C309.028 23.2897 308.889 23.6957 308.61 24.0337C308.335 24.3718 307.954 24.632 307.467 24.8143C306.983 24.9933 306.428 25.0827 305.801 25.0827C305.191 25.0827 304.644 24.9949 304.161 24.8192C303.68 24.6403 303.297 24.3784 303.012 24.0337C302.73 23.689 302.581 23.2681 302.565 22.771ZM312.448 25.0778C311.961 25.0778 311.527 24.9933 311.146 24.8242C310.764 24.6519 310.463 24.3983 310.241 24.0636C310.022 23.7255 309.913 23.3046 309.913 22.8008C309.913 22.3765 309.991 22.0202 310.146 21.7319C310.302 21.4435 310.514 21.2115 310.783 21.0359C311.051 20.8602 311.356 20.7276 311.697 20.6381C312.042 20.5487 312.403 20.4857 312.781 20.4492C313.225 20.4028 313.583 20.3597 313.855 20.32C314.127 20.2769 314.324 20.2139 314.447 20.131C314.569 20.0482 314.631 19.9255 314.631 19.7631V19.7333C314.631 19.4184 314.531 19.1748 314.332 19.0025C314.137 18.8301 313.858 18.744 313.497 18.744C313.116 18.744 312.813 18.8285 312.587 18.9975C312.362 19.1632 312.213 19.372 312.14 19.6239L310.181 19.4648C310.281 19.0008 310.476 18.5998 310.768 18.2617C311.059 17.9203 311.436 17.6585 311.896 17.4762C312.36 17.2906 312.897 17.1978 313.507 17.1978C313.931 17.1978 314.337 17.2475 314.725 17.3469C315.116 17.4464 315.463 17.6005 315.764 17.8093C316.069 18.0181 316.309 18.2866 316.485 18.6147C316.661 18.9395 316.749 19.329 316.749 19.783V24.9336H314.74V23.8746H314.68C314.558 24.1133 314.394 24.3237 314.188 24.506C313.983 24.685 313.736 24.8259 313.447 24.9286C313.159 25.0281 312.826 25.0778 312.448 25.0778ZM313.055 23.6161C313.366 23.6161 313.641 23.5548 313.88 23.4322C314.119 23.3062 314.306 23.1372 314.442 22.9251C314.578 22.7129 314.646 22.4727 314.646 22.2042V21.3938C314.579 21.4369 314.488 21.4767 314.372 21.5131C314.259 21.5463 314.132 21.5778 313.989 21.6076C313.847 21.6341 313.704 21.659 313.562 21.6822C313.419 21.7021 313.29 21.7203 313.174 21.7369C312.925 21.7733 312.708 21.8313 312.523 21.9109C312.337 21.9904 312.193 22.0981 312.09 22.234C311.987 22.3666 311.936 22.5323 311.936 22.7312C311.936 23.0195 312.04 23.2399 312.249 23.3924C312.461 23.5415 312.73 23.6161 313.055 23.6161ZM330.332 23.2681L330.183 27.1211H328.239V24.9336H327.389V23.2681H330.332ZM318.336 17.2972H320.359V23.2532H322.512V17.2972H324.535V23.2532H326.688V17.2972H328.711V24.9336H318.336V17.2972ZM333.565 22.1396L336.314 17.2972H338.402V24.9336H336.384V20.0763L333.644 24.9336H331.541V17.2972H333.565V22.1396ZM352.04 23.2681L351.891 27.1211H349.947V24.9336H349.097V23.2681H352.04ZM340.044 17.2972H342.067V23.2532H344.22V17.2972H346.244V23.2532H348.396V17.2972H350.42V24.9336H340.044V17.2972ZM355.427 25.0778C354.94 25.0778 354.506 24.9933 354.125 24.8242C353.744 24.6519 353.442 24.3983 353.22 24.0636C353.001 23.7255 352.892 23.3046 352.892 22.8008C352.892 22.3765 352.97 22.0202 353.125 21.7319C353.281 21.4435 353.493 21.2115 353.762 21.0359C354.03 20.8602 354.335 20.7276 354.677 20.6381C355.021 20.5487 355.383 20.4857 355.76 20.4492C356.205 20.4028 356.562 20.3597 356.834 20.32C357.106 20.2769 357.303 20.2139 357.426 20.131C357.548 20.0482 357.61 19.9255 357.61 19.7631V19.7333C357.61 19.4184 357.51 19.1748 357.312 19.0025C357.116 18.8301 356.838 18.744 356.476 18.744C356.095 18.744 355.792 18.8285 355.566 18.9975C355.341 19.1632 355.192 19.372 355.119 19.6239L353.16 19.4648C353.26 19.0008 353.455 18.5998 353.747 18.2617C354.039 17.9203 354.415 17.6585 354.875 17.4762C355.339 17.2906 355.876 17.1978 356.486 17.1978C356.91 17.1978 357.316 17.2475 357.704 17.3469C358.095 17.4464 358.442 17.6005 358.743 17.8093C359.048 18.0181 359.289 18.2866 359.464 18.6147C359.64 18.9395 359.728 19.329 359.728 19.783V24.9336H357.719V23.8746H357.66C357.537 24.1133 357.373 24.3237 357.167 24.506C356.962 24.685 356.715 24.8259 356.427 24.9286C356.138 25.0281 355.805 25.0778 355.427 25.0778ZM356.034 23.6161C356.345 23.6161 356.62 23.5548 356.859 23.4322C357.098 23.3062 357.285 23.1372 357.421 22.9251C357.557 22.7129 357.625 22.4727 357.625 22.2042V21.3938C357.558 21.4369 357.467 21.4767 357.351 21.5131C357.239 21.5463 357.111 21.5778 356.968 21.6076C356.826 21.6341 356.683 21.659 356.541 21.6822C356.398 21.7021 356.269 21.7203 356.153 21.7369C355.905 21.7733 355.687 21.8313 355.502 21.9109C355.316 21.9904 355.172 22.0981 355.069 22.234C354.967 22.3666 354.915 22.5323 354.915 22.7312C354.915 23.0195 355.02 23.2399 355.228 23.3924C355.441 23.5415 355.709 23.6161 356.034 23.6161ZM360.548 18.9627V17.2972H367.468V18.9627H365.007V24.9336H362.989V18.9627H360.548ZM370.024 19.6438H372.306C373.317 19.6438 374.105 19.8858 374.672 20.3697C375.239 20.8503 375.522 21.4933 375.522 22.2987C375.522 22.8223 375.395 23.283 375.14 23.6808C374.884 24.0752 374.516 24.3834 374.036 24.6055C373.555 24.8242 372.979 24.9336 372.306 24.9336H368.696V17.2972H370.72V23.2681H372.306C372.66 23.2681 372.952 23.1786 373.181 22.9996C373.409 22.8207 373.525 22.592 373.529 22.3136C373.525 22.0186 373.409 21.7783 373.181 21.5927C372.952 21.4038 372.66 21.3093 372.306 21.3093H370.024V19.6438ZM380.321 25.0827C379.539 25.0827 378.866 24.917 378.303 24.5856C377.742 24.2508 377.312 23.7868 377.01 23.1935C376.712 22.6003 376.563 21.9175 376.563 21.1452C376.563 20.363 376.713 19.677 377.015 19.087C377.32 18.4937 377.752 18.0314 378.313 17.6999C378.873 17.3652 379.539 17.1978 380.311 17.1978C380.977 17.1978 381.561 17.3188 382.061 17.5607C382.562 17.8027 382.958 18.1424 383.249 18.5799C383.541 19.0174 383.702 19.5311 383.732 20.1211H381.733C381.677 19.7399 381.528 19.4334 381.286 19.2013C381.047 18.966 380.734 18.8484 380.346 18.8484C380.018 18.8484 379.731 18.9379 379.486 19.1168C379.244 19.2925 379.055 19.5494 378.919 19.8874C378.783 20.2255 378.715 20.6348 378.715 21.1154C378.715 21.6026 378.782 22.0169 378.914 22.3583C379.05 22.6997 379.241 22.9599 379.486 23.1388C379.731 23.3178 380.018 23.4073 380.346 23.4073C380.588 23.4073 380.805 23.3576 380.997 23.2582C381.193 23.1587 381.354 23.0146 381.479 22.8256C381.609 22.6334 381.693 22.4031 381.733 22.1346H383.732C383.698 22.7179 383.539 23.2317 383.254 23.6758C382.973 24.1166 382.583 24.4613 382.086 24.7099C381.589 24.9585 381.001 25.0827 380.321 25.0827ZM389.506 24.9336V18.9577H388.074C387.686 18.9577 387.391 19.0472 387.189 19.2262C386.987 19.4052 386.888 19.6173 386.891 19.8626C386.888 20.1112 386.984 20.3216 387.179 20.494C387.378 20.663 387.67 20.7475 388.054 20.7475H390.212V22.1793H388.054C387.401 22.1793 386.836 22.0799 386.359 21.881C385.882 21.6822 385.514 21.4054 385.255 21.0508C384.997 20.6928 384.869 20.2769 384.872 19.8029C384.869 19.3058 384.997 18.8699 385.255 18.4954C385.514 18.1175 385.883 17.8242 386.364 17.6154C386.848 17.4033 387.418 17.2972 388.074 17.2972H391.48V24.9336H389.506ZM384.654 24.9336L386.777 20.9563H388.8L386.682 24.9336H384.654ZM399.704 25.0827C398.932 25.0827 398.264 24.9187 397.7 24.5906C397.14 24.2591 396.708 23.7984 396.403 23.2085C396.098 22.6152 395.945 21.9274 395.945 21.1452C395.945 20.3564 396.098 19.667 396.403 19.0771C396.708 18.4838 397.14 18.0231 397.7 17.695C398.264 17.3635 398.932 17.1978 399.704 17.1978C400.476 17.1978 401.142 17.3635 401.702 17.695C402.266 18.0231 402.7 18.4838 403.005 19.0771C403.31 19.667 403.462 20.3564 403.462 21.1452C403.462 21.9274 403.31 22.6152 403.005 23.2085C402.7 23.7984 402.266 24.2591 401.702 24.5906C401.142 24.9187 400.476 25.0827 399.704 25.0827ZM399.714 23.4421C400.065 23.4421 400.358 23.3427 400.594 23.1438C400.829 22.9416 401.006 22.6665 401.126 22.3185C401.248 21.9705 401.31 21.5745 401.31 21.1303C401.31 20.6862 401.248 20.2901 401.126 19.9421C401.006 19.5941 400.829 19.319 400.594 19.1168C400.358 18.9147 400.065 18.8136 399.714 18.8136C399.359 18.8136 399.061 18.9147 398.819 19.1168C398.58 19.319 398.4 19.5941 398.277 19.9421C398.158 20.2901 398.098 20.6862 398.098 21.1303C398.098 21.5745 398.158 21.9705 398.277 22.3185C398.4 22.6665 398.58 22.9416 398.819 23.1438C399.061 23.3427 399.359 23.4421 399.714 23.4421ZM404.044 18.9627V17.2972H410.964V18.9627H408.504V24.9336H406.485V18.9627H404.044ZM418.827 25.0827C418.045 25.0827 417.372 24.917 416.808 24.5856C416.248 24.2508 415.817 23.7868 415.516 23.1935C415.217 22.6003 415.068 21.9175 415.068 21.1452C415.068 20.363 415.219 19.677 415.521 19.087C415.826 18.4937 416.258 18.0314 416.818 17.6999C417.378 17.3652 418.045 17.1978 418.817 17.1978C419.483 17.1978 420.066 17.3188 420.567 17.5607C421.067 17.8027 421.463 18.1424 421.755 18.5799C422.047 19.0174 422.208 19.5311 422.237 20.1211H420.239C420.182 19.7399 420.033 19.4334 419.791 19.2013C419.553 18.966 419.239 18.8484 418.852 18.8484C418.524 18.8484 418.237 18.9379 417.992 19.1168C417.75 19.2925 417.561 19.5494 417.425 19.8874C417.289 20.2255 417.221 20.6348 417.221 21.1154C417.221 21.6026 417.287 22.0169 417.42 22.3583C417.556 22.6997 417.746 22.9599 417.992 23.1388C418.237 23.3178 418.524 23.4073 418.852 23.4073C419.094 23.4073 419.311 23.3576 419.503 23.2582C419.699 23.1587 419.859 23.0146 419.985 22.8256C420.114 22.6334 420.199 22.4031 420.239 22.1346H422.237C422.204 22.7179 422.045 23.2317 421.76 23.6758C421.478 24.1166 421.089 24.4613 420.592 24.7099C420.095 24.9585 419.506 25.0827 418.827 25.0827ZM423.537 24.9336V17.2972H425.655V20.2603H426.252L428.33 17.2972H430.816L428.116 21.0856L430.846 24.9336H428.33L426.446 22.2241H425.655V24.9336H423.537ZM431.237 24.9336L431.227 23.2532H431.481C431.66 23.2532 431.814 23.2101 431.943 23.1239C432.076 23.0344 432.185 22.8903 432.271 22.6914C432.357 22.4925 432.425 22.229 432.475 21.9009C432.525 21.5695 432.558 21.1618 432.574 20.6779L432.699 17.2972H438.506V24.9336H436.487V18.9627H434.603L434.484 21.2944C434.454 21.9341 434.376 22.4843 434.25 22.945C434.127 23.4057 433.957 23.7835 433.738 24.0785C433.519 24.3701 433.256 24.5856 432.947 24.7248C432.639 24.864 432.281 24.9336 431.873 24.9336H431.237ZM442.115 22.1396L444.864 17.2972H446.952V24.9336H444.934V20.0763L442.194 24.9336H440.091V17.2972H442.115V22.1396ZM448.594 24.9336V17.2972H450.712V20.2603H451.308L453.387 17.2972H455.872L453.173 21.0856L455.902 24.9336H453.387L451.502 22.2241H450.712V24.9336H448.594ZM458.765 22.1396L461.514 17.2972H463.602V24.9336H461.583V20.0763L458.844 24.9336H456.741V17.2972H458.765V22.1396ZM465.244 24.9336V17.2972H468.5C469.441 17.2972 470.185 17.4762 470.732 17.8342C471.279 18.1921 471.553 18.7009 471.553 19.3604C471.553 19.7747 471.399 20.1194 471.09 20.3945C470.782 20.6696 470.355 20.8552 469.808 20.9513C470.265 20.9845 470.654 21.0889 470.976 21.2646C471.301 21.4369 471.548 21.6606 471.717 21.9357C471.889 22.2108 471.975 22.5157 471.975 22.8505C471.975 23.2847 471.859 23.6576 471.627 23.9691C471.399 24.2807 471.062 24.5193 470.618 24.685C470.177 24.8507 469.639 24.9336 469.002 24.9336H465.244ZM467.217 23.3477H469.002C469.297 23.3477 469.528 23.2781 469.693 23.1388C469.862 22.9963 469.947 22.8024 469.947 22.5572C469.947 22.2854 469.862 22.0716 469.693 21.9158C469.528 21.7601 469.297 21.6822 469.002 21.6822H467.217V23.3477ZM467.217 20.4393H468.545C468.757 20.4393 468.938 20.4094 469.087 20.3498C469.239 20.2868 469.355 20.1973 469.435 20.0813C469.518 19.9653 469.559 19.8278 469.559 19.6687C469.559 19.4334 469.465 19.2494 469.276 19.1168C469.087 18.9843 468.828 18.918 468.5 18.918H467.217V20.4393ZM475.432 25.0778C474.944 25.0778 474.51 24.9933 474.129 24.8242C473.748 24.6519 473.446 24.3983 473.224 24.0636C473.006 23.7255 472.896 23.3046 472.896 22.8008C472.896 22.3765 472.974 22.0202 473.13 21.7319C473.286 21.4435 473.498 21.2115 473.766 21.0359C474.035 20.8602 474.34 20.7276 474.681 20.6381C475.026 20.5487 475.387 20.4857 475.765 20.4492C476.209 20.4028 476.567 20.3597 476.839 20.32C477.11 20.2769 477.308 20.2139 477.43 20.131C477.553 20.0482 477.614 19.9255 477.614 19.7631V19.7333C477.614 19.4184 477.515 19.1748 477.316 19.0025C477.12 18.8301 476.842 18.744 476.481 18.744C476.1 18.744 475.796 18.8285 475.571 18.9975C475.345 19.1632 475.196 19.372 475.123 19.6239L473.165 19.4648C473.264 19.0008 473.46 18.5998 473.751 18.2617C474.043 17.9203 474.419 17.6585 474.88 17.4762C475.344 17.2906 475.881 17.1978 476.491 17.1978C476.915 17.1978 477.321 17.2475 477.709 17.3469C478.1 17.4464 478.446 17.6005 478.748 17.8093C479.053 18.0181 479.293 18.2866 479.469 18.6147C479.644 18.9395 479.732 19.329 479.732 19.783V24.9336H477.724V23.8746H477.664C477.541 24.1133 477.377 24.3237 477.172 24.506C476.966 24.685 476.719 24.8259 476.431 24.9286C476.143 25.0281 475.81 25.0778 475.432 25.0778ZM476.038 23.6161C476.35 23.6161 476.625 23.5548 476.863 23.4322C477.102 23.3062 477.289 23.1372 477.425 22.9251C477.561 22.7129 477.629 22.4727 477.629 22.2042V21.3938C477.563 21.4369 477.472 21.4767 477.356 21.5131C477.243 21.5463 477.115 21.5778 476.973 21.6076C476.83 21.6341 476.688 21.659 476.545 21.6822C476.403 21.7021 476.274 21.7203 476.158 21.7369C475.909 21.7733 475.692 21.8313 475.506 21.9109C475.321 21.9904 475.176 22.0981 475.074 22.234C474.971 22.3666 474.92 22.5323 474.92 22.7312C474.92 23.0195 475.024 23.2399 475.233 23.3924C475.445 23.5415 475.713 23.6161 476.038 23.6161ZM486.634 20.2702V21.9357H482.647V20.2702H486.634ZM483.343 17.2972V24.9336H481.319V17.2972H483.343ZM487.961 17.2972V24.9336H485.953V17.2972H487.961ZM491.572 22.1396L494.321 17.2972H496.409V24.9336H494.391V20.0763L491.651 24.9336H489.548V17.2972H491.572V22.1396ZM502.525 24.9336V18.9577H501.094C500.706 18.9577 500.411 19.0472 500.209 19.2262C500.006 19.4052 499.907 19.6173 499.91 19.8626C499.907 20.1112 500.003 20.3216 500.199 20.494C500.398 20.663 500.689 20.7475 501.074 20.7475H503.231V22.1793H501.074C500.421 22.1793 499.856 22.0799 499.378 21.881C498.901 21.6822 498.533 21.4054 498.275 21.0508C498.016 20.6928 497.889 20.2769 497.892 19.8029C497.889 19.3058 498.016 18.8699 498.275 18.4954C498.533 18.1175 498.903 17.8242 499.383 17.6154C499.867 17.4033 500.437 17.2972 501.094 17.2972H504.499V24.9336H502.525ZM497.673 24.9336L499.796 20.9563H501.819L499.702 24.9336H497.673Z" fill="#3D3D3D"/>
</g>
<defs>
<filter id="filter0_b_3_1524" x="-105.44" y="-105.44" width="895.879" height="638.879" filterUnits="userSpaceOnUse" color-interpolation-filters="sRGB">
<feFlood flood-opacity="0" result="BackgroundImageFix"/>
<feGaussianBlur in="BackgroundImageFix" stdDeviation="52.8893"/>
<feComposite in2="SourceAlpha" operator="in" result="effect1_backgroundBlur_3_1524"/>
<feBlend mode="normal" in="SourceGraphic" in2="effect1_backgroundBlur_3_1524" result="shape"/>
</filter>
<filter id="filter1_di_3_1524" x="1" y="1" width="683" height="37.6836" filterUnits="userSpaceOnUse" color-interpolation-filters="sRGB">
<feFlood flood-opacity="0" result="BackgroundImageFix"/>
<feColorMatrix in="SourceAlpha" type="matrix" values="0 0 0 0 0 0 0 0 0 0 0 0 0 0 0 0 0 0 127 0" result="hardAlpha"/>
<feOffset dy="0.661116"/>
<feColorMatrix type="matrix" values="0 0 0 0 0 0 0 0 0 0 0 0 0 0 0 0 0 0 0.15 0"/>
<feBlend mode="normal" in2="BackgroundImageFix" result="effect1_dropShadow_3_1524"/>
<feBlend mode="normal" in="SourceGraphic" in2="effect1_dropShadow_3_1524" result="shape"/>
<feColorMatrix in="SourceAlpha" type="matrix" values="0 0 0 0 0 0 0 0 0 0 0 0 0 0 0 0 0 0 127 0" result="hardAlpha"/>
<feOffset dy="-0.661116"/>
<feComposite in2="hardAlpha" operator="arithmetic" k2="-1" k3="1"/>
<feColorMatrix type="matrix" values="0 0 0 0 0 0 0 0 0 0 0 0 0 0 0 0 0 0 0.05 0"/>
<feBlend mode="normal" in2="shape" result="effect2_innerShadow_3_1524"/>
</filter>
</defs>
</svg>
