<svg width="26" height="26" viewBox="0 0 26 26" fill="none" xmlns="http://www.w3.org/2000/svg">
<path d="M4.18237 8.25391V24.193C4.18237 25.0974 4.86063 25.7756 5.76498 25.7756H20.1215C21.0259 25.7756 21.7041 25.0974 21.7041 24.193V8.25391H4.18237ZM9.04324 22.6104H7.46063V11.4191H9.04324V22.6104ZM12.2085 22.6104H10.6259V11.4191H12.2085V22.6104ZM15.3737 22.6104H13.7911V11.4191H15.3737V22.6104ZM18.5389 22.6104H16.9563V11.4191H18.5389V22.6104Z" fill="#57B36E"/>
<path d="M22.1566 3.39178H16.9566V1.47004C16.9566 0.79178 16.3914 0.226562 15.7131 0.226562H10.174C9.49575 0.226563 9.04358 0.79178 9.04358 1.47004V3.39178H3.84358C3.16532 3.39178 2.6001 3.957 2.6001 4.63526V6.67004H23.4001V4.63526C23.4001 3.957 22.8349 3.39178 22.1566 3.39178ZM15.374 3.39178H10.6262V1.80917H15.374V3.39178Z" fill="#57B36E"/>
</svg>
