<svg width="82" height="79" viewBox="0 0 82 79" fill="none" xmlns="http://www.w3.org/2000/svg">
<path d="M0 14.5602C0 6.60726 6.4471 0.160156 14.4 0.160156H67.6C75.5529 0.160156 82 6.60726 82 14.5602V63.7602C82 71.7131 75.5529 78.1602 67.6 78.1602H14.4C6.4471 78.1602 0 71.7131 0 63.7602V14.5602Z" fill="#57B36E" fill-opacity="0.1"/>
<g clip-path="url(#clip0_13_4214)">
<g clip-path="url(#clip1_13_4214)">
<g clip-path="url(#clip2_13_4214)">
<mask id="mask0_13_4214" style="mask-type:luminance" maskUnits="userSpaceOnUse" x="19" y="16" width="44" height="50">
<path d="M62.0372 16.0205H19.7175V65.9579H62.0372V16.0205Z" fill="white"/>
</mask>
<g mask="url(#mask0_13_4214)">
<path d="M59.7466 49.3378C58.4018 52.9938 56.4229 56.1736 53.7333 58.723C50.7301 61.6646 46.7723 64.0529 42.0271 65.7198C41.8668 65.7969 41.7135 65.7969 41.5532 65.8809C41.3163 65.9579 41.0794 65.9579 40.9191 65.9579H40.8425C40.6056 65.9579 40.3687 65.9579 40.1318 65.8809C39.9715 65.8809 39.8182 65.8039 39.6579 65.7198C34.9127 64.0529 30.9549 61.6646 27.9517 58.723C25.2621 56.1806 23.2832 53.0008 21.9384 49.3378C19.4787 42.7402 19.6389 35.4212 19.7922 29.615V29.5379C19.7922 29.0617 19.7922 28.5854 19.8689 27.9481C19.7922 25.2446 22.008 22.9403 24.7813 22.7792C30.4741 22.464 34.9058 20.552 38.7033 16.896C39.3374 16.3357 40.1248 16.0205 40.9191 16.0205C41.7135 16.0205 42.4242 16.3357 43.0583 16.896C46.8489 20.629 51.2805 22.464 56.9734 22.7792C59.7397 22.9403 61.8789 25.2446 61.9555 27.9481C61.9555 28.5014 61.9555 28.9846 62.0321 29.5379C62.0391 35.4212 62.1994 42.7402 59.7466 49.3378Z" fill="#57B36E"/>
</g>
<mask id="mask1_13_4214" style="mask-type:luminance" maskUnits="userSpaceOnUse" x="19" y="16" width="44" height="50">
<path d="M62.0372 16.0205H19.7175V65.9579H62.0372V16.0205Z" fill="white"/>
</mask>
<g mask="url(#mask1_13_4214)">
<path d="M59.7429 49.3378C58.3953 52.9938 56.4125 56.1736 53.7174 58.723C50.7082 61.6646 46.7424 64.0529 41.9877 65.7198C41.8271 65.7969 41.6735 65.7969 41.5129 65.8809C41.2755 65.9579 41.0381 65.9579 40.8776 65.9579V16.0205C41.6735 16.0205 42.3857 16.3357 43.021 16.896C46.8192 20.636 51.2598 22.464 56.964 22.7792C59.7359 22.9403 61.8794 25.2446 61.9562 27.9481C61.9562 28.5014 61.9562 28.9846 62.033 29.5379C62.0399 35.4212 62.2005 42.7402 59.7429 49.3378Z" fill="#57B36E"/>
</g>
<path d="M52.7281 40.9896C52.7281 47.7531 47.236 53.2623 40.4934 53.2623H40.4174C33.6749 53.2623 28.1827 47.7531 28.1827 40.9896C28.1827 34.226 33.6749 28.7168 40.4174 28.7168H40.4934C47.236 28.7168 52.7281 34.226 52.7281 40.9896Z" fill="white"/>
<path d="M52.7283 41.031C52.7283 47.7717 47.4091 53.2623 40.8788 53.2623V28.7168C47.4091 28.7997 52.7283 34.2903 52.7283 41.031Z" fill="#E1EBF0"/>
<path d="M49.0181 40.5662C48.8569 40.5662 48.7027 40.4023 48.7027 40.2454V39.4327C48.7027 35.3051 45.3588 31.9046 41.2999 31.9046C37.241 31.9046 33.8901 35.3051 33.8901 39.4327V40.2454C33.8901 40.4094 33.7288 40.5662 33.5746 40.5662C33.4134 40.5662 33.2592 40.4023 33.2592 40.2454V39.4327C33.2592 34.8987 36.8414 31.2559 41.2999 31.2559C45.7584 31.2559 49.3406 34.8987 49.3406 39.4327V40.2454C49.3336 40.4878 49.1724 40.5662 49.0181 40.5662Z" fill="#848484"/>
<path d="M48.1215 43.952H47.1755C46.9847 43.952 46.8021 43.7709 46.8021 43.5977C46.8021 43.4166 46.993 43.2434 47.1755 43.2434H48.1215C48.4036 43.2434 48.5945 43.0623 48.5945 42.7946V40.9207C48.5945 40.7396 48.7853 40.5664 48.9679 40.5664C49.1504 40.5664 49.3413 40.7475 49.3413 40.9207V42.7946C49.25 43.5032 48.7853 43.952 48.1215 43.952Z" fill="#848484"/>
<path d="M38.3358 43.9521H42.5678V47.3377H38.3358V43.9521Z" fill="#CBCBCB"/>
<path d="M46.7261 43.2464C46.8003 43.0065 46.8003 42.7667 46.8003 42.4423V36.9971C46.8003 35.2338 45.4255 33.7949 43.7408 33.7949H37.1638C35.4791 33.7949 34.1044 35.2338 34.1044 36.9971V42.4423C34.1044 44.2056 35.4791 45.6445 37.1638 45.6445H43.8217C44.5899 45.6445 45.2773 45.3271 45.8097 44.8404" fill="#E5E5E5"/>
<path d="M36.6435 43.6827V45.6448C35.172 45.3202 34.1044 44.0073 34.1044 42.4492V40.5664C35.5759 40.8982 36.6435 42.1245 36.6435 43.6827Z" fill="#CBCBCB"/>
<path d="M47.6456 40.5664V42.4492C47.6456 42.6944 47.6456 43.019 47.5636 43.2715L46.55 44.909C46.1252 45.2336 45.6184 45.4789 45.1115 45.6448V43.762C45.0221 42.1173 46.1177 40.891 47.6456 40.5664Z" fill="#CBCBCB"/>
<path d="M40.0286 38.45C40.0286 39.5905 39.132 40.566 37.9126 40.566C36.7721 40.566 35.7966 39.6694 35.7966 38.45C35.7966 37.3095 36.6932 36.334 37.9126 36.334C39.0531 36.4129 40.0286 37.3095 40.0286 38.45Z" fill="white"/>
<path d="M45.9539 38.451C45.9539 39.5914 45.0573 40.5669 43.8379 40.5669C42.6185 40.5669 41.7219 39.6703 41.7219 38.451C41.7219 37.3105 42.6185 36.335 43.8379 36.335C45.0573 36.3278 45.9539 37.3105 45.9539 38.451Z" fill="white"/>
<path d="M38.3369 38.8735C37.9137 38.8735 37.4905 38.5394 37.4905 38.0271C37.4905 37.5148 37.8246 37.1807 38.3369 37.1807C38.7601 37.1807 39.1833 37.5148 39.1833 38.0271C39.1833 38.5394 38.7601 38.8735 38.3369 38.8735Z" fill="#444444"/>
<path d="M43.4155 38.8735C42.9923 38.8735 42.5691 38.5394 42.5691 38.0271C42.5691 37.5148 42.9032 37.1807 43.4155 37.1807C43.9204 37.1807 44.2619 37.5148 44.2619 38.0271C44.2619 38.5394 43.8387 38.8735 43.4155 38.8735Z" fill="#444444"/>
<path d="M35.7972 43.9564C35.7972 44.4144 35.4701 44.7983 35.0799 44.7983H34.8217C34.4315 44.7983 34.1044 44.4144 34.1044 43.9564C34.1044 43.4985 34.4315 43.1146 34.8217 43.1146H35.0799C35.4758 43.0405 35.7972 43.4244 35.7972 43.9564Z" fill="#444444"/>
<path d="M40.0287 42.2588H40.8751V45.6444H40.0287V42.2588Z" fill="#7B7B7B"/>
<path d="M40.8756 42.2588H41.722V45.6444H40.8756V42.2588Z" fill="#7B7B7B"/>
<path d="M42.5679 42.2588V45.6444H43.4143V43.4965C43.4143 42.8413 43.1096 42.3462 42.5679 42.2588Z" fill="#7B7B7B"/>
<path d="M39.1828 42.2588C38.7224 42.4262 38.3364 42.9213 38.3364 43.4965V45.6444H39.1828V42.2588Z" fill="#7B7B7B"/>
<path d="M34.1044 38.1977V41.242C34.1044 41.7093 33.7905 42.101 33.3091 42.259C33.2324 42.259 33.1487 42.259 32.9952 42.259H32.5976C32.0465 42.259 31.5652 41.7918 31.5652 41.242V38.1977C31.5652 37.6548 32.0395 37.1807 32.5976 37.1807H32.9952C33.072 37.1807 33.1557 37.1807 33.3091 37.1807C33.7905 37.3387 34.1044 37.7235 34.1044 38.1977Z" fill="#686868"/>
<path d="M34.1049 38.1977V41.242C34.1049 41.7093 33.7708 42.101 33.2585 42.259C32.7536 42.101 32.4121 41.7162 32.4121 41.242V38.1977C32.4121 37.7304 32.7462 37.3387 33.2585 37.1807C33.7708 37.3387 34.1049 37.7235 34.1049 38.1977Z" fill="#7B7B7B"/>
<path d="M50.1865 38.1977V41.242C50.1865 41.7093 49.8726 42.101 49.3913 42.259C49.3145 42.259 49.2308 42.259 49.0774 42.259H48.6798C48.1287 42.259 47.6473 41.7918 47.6473 41.242V38.1977C47.6473 37.6548 48.1217 37.1807 48.6798 37.1807H49.0774C49.1541 37.1807 49.2378 37.1807 49.3913 37.1807C49.8726 37.3387 50.1865 37.7235 50.1865 38.1977Z" fill="#686868"/>
<path d="M50.1855 38.1977V41.242C50.1855 41.7093 49.8514 42.101 49.3391 42.259C48.8342 42.101 48.4927 41.7162 48.4927 41.242V38.1977C48.4927 37.7304 48.8268 37.3387 49.3391 37.1807C49.8514 37.3387 50.1855 37.7235 50.1855 38.1977Z" fill="#7B7B7B"/>
<path d="M46.6724 43.1055H46.9306C47.3208 43.1055 47.6479 43.4914 47.6479 43.9519C47.6479 44.4123 47.3208 44.7983 46.9306 44.7983H46.6724C46.2822 44.7983 45.9551 44.4123 45.9551 43.9519C45.9551 43.4914 46.2822 43.1055 46.6724 43.1055Z" fill="#444444"/>
<path d="M32.4121 43.6413V41.7674C32.4121 41.5863 32.603 41.4131 32.7855 41.4131C32.9764 41.4131 33.1589 41.5942 33.1589 41.7674V43.6413C33.1589 43.909 33.3498 44.0901 33.6319 44.0901H34.5779C34.7687 44.0901 34.9513 44.2712 34.9513 44.4444C34.9513 44.6255 34.7604 44.7987 34.5779 44.7987H33.6319C32.9764 44.7987 32.4121 44.2633 32.4121 43.6413Z" fill="#848484"/>
<path d="M47.6473 48.9381L34.9514 49.0294V48.9381C34.9514 47.6188 35.8248 46.4902 37.0127 46.4902H45.6629C46.6901 46.4902 47.6473 47.6188 47.6473 48.9381Z" fill="#CBCBCB"/>
<path d="M46.8003 48.9381L36.6436 49.0294V48.9381C36.6436 47.6188 37.5037 46.4902 38.6735 46.4902H44.846C45.8575 46.4902 46.8003 47.6188 46.8003 48.9381Z" fill="#E5E5E5"/>
<path d="M40.4551 28.7168C33.6988 28.7168 28.2074 34.2082 28.2074 40.9645C28.2074 47.7209 33.6988 53.2123 40.4551 53.2123C47.2114 53.2123 52.7028 47.7209 52.7028 40.9645C52.7028 34.2082 47.2114 28.7168 40.4551 28.7168ZM40.4551 51.7762C34.5396 51.7762 29.6435 46.9619 29.6435 40.9645C29.6435 38.3453 30.6554 35.808 32.3445 33.8659L47.5537 49.0751C45.5223 50.7642 43.0743 51.7762 40.4551 51.7762ZM48.5656 48.0632L33.3565 32.8539C35.2986 31.1649 37.7466 30.1529 40.4551 30.1529C46.3706 30.1529 51.2667 34.9672 51.2667 40.9645C51.2667 43.5837 50.2547 46.1211 48.5656 48.0632Z" fill="#E84C4F"/>
</g>
</g>
</g>
<defs>
<clipPath id="clip0_13_4214">
<rect width="51.1215" height="59.1096" fill="white" transform="translate(15 12.1602)"/>
</clipPath>
<clipPath id="clip1_13_4214">
<rect width="48.2592" height="62.7373" fill="white" transform="translate(19.7185 5.40332)"/>
</clipPath>
<clipPath id="clip2_13_4214">
<rect width="42.3196" height="55.0158" fill="white" transform="translate(19.7184 16.0205)"/>
</clipPath>
</defs>
</svg>
