<svg width="34" height="35" viewBox="0 0 34 35" fill="none" xmlns="http://www.w3.org/2000/svg">
<path d="M28.4335 10.9048L29.7501 7.98815L32.6668 6.67149C32.8123 6.6052 32.9357 6.49846 33.0221 6.364C33.1086 6.22954 33.1546 6.07303 33.1546 5.91315C33.1546 5.75327 33.1086 5.59677 33.0221 5.46231C32.9357 5.32785 32.8123 5.22111 32.6668 5.15482L29.7501 3.83815L28.4335 0.904819C28.3672 0.759328 28.2604 0.635978 28.126 0.549481C27.9915 0.462984 27.835 0.416992 27.6751 0.416992C27.5153 0.416992 27.3588 0.462984 27.2243 0.549481C27.0898 0.635978 26.9831 0.759328 26.9168 0.904819L25.6001 3.82149L22.6668 5.13815C22.5213 5.20444 22.398 5.31118 22.3115 5.44564C22.225 5.5801 22.179 5.73661 22.179 5.89649C22.179 6.05636 22.225 6.21287 22.3115 6.34733C22.398 6.48179 22.5213 6.58853 22.6668 6.65482L25.5835 7.97148L26.9001 10.9048C27.2001 11.5548 28.1335 11.5548 28.4335 10.9048ZM15.1668 13.4048L12.5168 7.57149C11.9335 6.27149 10.0668 6.27149 9.48348 7.57149L6.83348 13.4048L1.00015 16.0548C-0.299853 16.6548 -0.299853 18.5048 1.00015 19.0882L6.83348 21.7382L9.48348 27.5715C10.0835 28.8715 11.9335 28.8715 12.5168 27.5715L15.1668 21.7382L21.0001 19.0882C22.3001 18.4882 22.3001 16.6382 21.0001 16.0548L15.1668 13.4048ZM26.9001 24.2382L25.5835 27.1548L22.6668 28.4715C22.5213 28.5378 22.398 28.6445 22.3115 28.779C22.225 28.9134 22.179 29.0699 22.179 29.2298C22.179 29.3897 22.225 29.5462 22.3115 29.6807C22.398 29.8151 22.5213 29.9219 22.6668 29.9882L25.5835 31.3048L26.9001 34.2382C26.9664 34.3836 27.0732 34.507 27.2076 34.5935C27.3421 34.68 27.4986 34.726 27.6585 34.726C27.8184 34.726 27.9749 34.68 28.1093 34.5935C28.2438 34.507 28.3505 34.3836 28.4168 34.2382L29.7335 31.3215L32.6668 30.0048C32.8123 29.9385 32.9357 29.8318 33.0221 29.6973C33.1086 29.5629 33.1546 29.4064 33.1546 29.2465C33.1546 29.0866 33.1086 28.9301 33.0221 28.7956C32.9357 28.6612 32.8123 28.5544 32.6668 28.4882L29.7501 27.1715L28.4335 24.2382C28.3652 24.0925 28.2568 23.9692 28.1211 23.8829C27.9853 23.7966 27.8277 23.7507 27.6668 23.7507C27.5059 23.7507 27.3483 23.7966 27.2126 23.8829C27.0768 23.9692 26.9684 24.0925 26.9001 24.2382Z" fill="#57B36E"/>
</svg>
