<svg width="380" height="150" viewBox="0 0 380 150" fill="none" xmlns="http://www.w3.org/2000/svg">
<rect width="380" height="150" rx="13" fill="#F4F8FD"/>
<path fill-rule="evenodd" clip-rule="evenodd" d="M45.6389 32.0902C45.6389 24.6072 39.5727 18.541 32.0897 18.541C24.6067 18.541 18.5405 24.6072 18.5405 32.0902C18.5405 39.5732 24.6067 45.6394 32.0897 45.6394C39.5727 45.6394 45.6389 39.5732 45.6389 32.0902ZM33.8963 39.0837V30.2767H30.2832V39.0837H33.8963ZM32.0897 25.0968C33.0874 25.0968 33.8963 25.9056 33.8963 26.9033C33.8963 27.9011 33.0874 28.7099 32.0897 28.7099C31.092 28.7099 30.2832 27.9011 30.2832 26.9033C30.2832 25.9056 31.092 25.0968 32.0897 25.0968Z" fill="#6695E2"/>
<path d="M61.0218 38.5902V25.6984H66.1081C67.0859 25.6984 67.9189 25.8852 68.6071 26.2587C69.2953 26.6279 69.8199 27.142 70.1808 27.8009C70.5459 28.4555 70.7285 29.2109 70.7285 30.067C70.7285 30.9231 70.5438 31.6785 70.1745 32.3332C69.8052 32.9878 69.2702 33.4977 68.5693 33.8628C67.8727 34.2279 67.0292 34.4104 66.0388 34.4104H62.797V32.2261H65.5982C66.1227 32.2261 66.555 32.1359 66.8949 31.9555C67.239 31.7708 67.495 31.5169 67.6629 31.1938C67.8349 30.8665 67.921 30.4909 67.921 30.067C67.921 29.639 67.8349 29.2655 67.6629 28.9465C67.495 28.6234 67.239 28.3737 66.8949 28.1975C66.5508 28.017 66.1144 27.9268 65.5856 27.9268H63.7475V38.5902H61.0218ZM74.946 38.7728C74.3291 38.7728 73.7794 38.6657 73.2967 38.4517C72.8141 38.2335 72.4323 37.9125 72.1511 37.4886C71.8741 37.0606 71.7356 36.5276 71.7356 35.8897C71.7356 35.3526 71.8343 34.9014 72.0315 34.5363C72.2287 34.1712 72.4973 33.8775 72.8372 33.6551C73.1771 33.4327 73.5632 33.2648 73.9955 33.1515C74.4319 33.0382 74.8893 32.9584 75.3677 32.9123C75.9301 32.8535 76.3833 32.799 76.7274 32.7486C77.0715 32.6941 77.3212 32.6143 77.4765 32.5094C77.6318 32.4045 77.7094 32.2492 77.7094 32.0436V32.0058C77.7094 31.6072 77.5835 31.2987 77.3317 31.0805C77.0841 30.8623 76.7316 30.7532 76.2742 30.7532C75.7916 30.7532 75.4076 30.8602 75.1222 31.0742C74.8369 31.284 74.648 31.5484 74.5557 31.8673L72.0756 31.6659C72.2014 31.0784 72.449 30.5706 72.8183 30.1426C73.1876 29.7103 73.6639 29.3788 74.2473 29.148C74.8348 28.913 75.5146 28.7955 76.2868 28.7955C76.8239 28.7955 77.338 28.8584 77.829 28.9843C78.3242 29.1102 78.7628 29.3053 79.1446 29.5697C79.5307 29.8341 79.835 30.174 80.0574 30.5895C80.2798 31.0008 80.391 31.4938 80.391 32.0688V38.5902H77.8479V37.2494H77.7724C77.6171 37.5516 77.4094 37.818 77.1492 38.0489C76.889 38.2755 76.5764 38.4538 76.2113 38.5839C75.8462 38.7098 75.4244 38.7728 74.946 38.7728ZM75.714 36.9221C76.1084 36.9221 76.4567 36.8444 76.7589 36.6892C77.0611 36.5297 77.2982 36.3157 77.4702 36.0471C77.6423 35.7785 77.7283 35.4743 77.7283 35.1344V34.1083C77.6444 34.1629 77.529 34.2132 77.3821 34.2594C77.2394 34.3013 77.0778 34.3412 76.8974 34.379C76.7169 34.4125 76.5365 34.444 76.356 34.4734C76.1756 34.4986 76.0119 34.5217 75.865 34.5426C75.5503 34.5888 75.2754 34.6622 75.0404 34.763C74.8054 34.8637 74.6229 35.0001 74.4928 35.1721C74.3627 35.34 74.2976 35.5498 74.2976 35.8016C74.2976 36.1667 74.4298 36.4458 74.6942 36.6388C74.9628 36.8277 75.3027 36.9221 75.714 36.9221ZM81.9742 35.852H84.5739C84.5865 36.1709 84.7292 36.4227 85.002 36.6073C85.2747 36.792 85.6273 36.8843 86.0595 36.8843C86.4959 36.8843 86.8631 36.7836 87.1611 36.5822C87.4591 36.3765 87.608 36.0828 87.608 35.7009C87.608 35.4659 87.5493 35.2623 87.4318 35.0903C87.3143 34.914 87.1506 34.7755 86.9408 34.6748C86.7309 34.5741 86.4875 34.5238 86.2106 34.5238H84.8194V32.7675H86.2106C86.626 32.7675 86.945 32.671 87.1674 32.4779C87.394 32.2849 87.5073 32.0436 87.5073 31.754C87.5073 31.4267 87.3898 31.1644 87.1548 30.9672C86.924 30.7657 86.6113 30.665 86.2169 30.665C85.8182 30.665 85.4867 30.7553 85.2223 30.9357C84.9621 31.112 84.8278 31.3428 84.8194 31.6281H82.2322C82.2406 31.049 82.4148 30.5475 82.7547 30.1237C83.0988 29.6998 83.5605 29.3725 84.1396 29.1417C84.7229 28.9109 85.3755 28.7955 86.0973 28.7955C86.8862 28.7955 87.5661 28.9067 88.1368 29.1291C88.7117 29.3473 89.1524 29.66 89.4587 30.067C89.7692 30.4741 89.9245 30.9588 89.9245 31.5211C89.9245 32.0331 89.7567 32.4612 89.4209 32.8053C89.0852 33.1494 88.6152 33.3949 88.0109 33.5418V33.6425C88.4096 33.6677 88.7705 33.7747 89.0936 33.9635C89.4167 34.1524 89.6748 34.4125 89.8679 34.7441C90.0609 35.0714 90.1574 35.4596 90.1574 35.9086C90.1574 36.5087 89.9812 37.0228 89.6287 37.4508C89.2804 37.8789 88.7977 38.2083 88.1809 38.4391C87.5682 38.6657 86.8652 38.7791 86.0721 38.7791C85.2999 38.7791 84.6075 38.6678 83.9948 38.4454C83.3863 38.2188 82.9016 37.8873 82.5407 37.4508C82.184 37.0144 81.9951 36.4814 81.9742 35.852ZM91.802 42.216V28.9214H94.4458V30.5454H94.5654C94.6829 30.2852 94.8528 30.0209 95.0753 29.7523C95.3019 29.4795 95.5956 29.2529 95.9565 29.0724C96.3216 28.8878 96.7749 28.7955 97.3162 28.7955C98.0212 28.7955 98.6717 28.9801 99.2676 29.3494C99.8635 29.7145 100.34 30.2664 100.697 31.0049C101.053 31.7393 101.232 32.6605 101.232 33.7684C101.232 34.8469 101.057 35.7575 100.709 36.5003C100.365 37.2389 99.895 37.7992 99.2991 38.181C98.7074 38.5587 98.0443 38.7476 97.3099 38.7476C96.7895 38.7476 96.3468 38.6616 95.9817 38.4895C95.6208 38.3174 95.325 38.1013 95.0941 37.8411C94.8633 37.5767 94.6871 37.3103 94.5654 37.0417H94.4835V42.216H91.802ZM94.4269 33.7558C94.4269 34.3307 94.5066 34.8322 94.6661 35.2602C94.8256 35.6883 95.0564 36.0219 95.3585 36.2611C95.6607 36.4961 96.0279 36.6136 96.4601 36.6136C96.8966 36.6136 97.2659 36.494 97.568 36.2548C97.8702 36.0114 98.0989 35.6757 98.2541 35.2477C98.4136 34.8154 98.4933 34.3181 98.4933 33.7558C98.4933 33.1976 98.4157 32.7066 98.2604 32.2828C98.1052 31.8589 97.8765 31.5274 97.5743 31.2882C97.2722 31.049 96.9008 30.9294 96.4601 30.9294C96.0237 30.9294 95.6544 31.0448 95.3522 31.2756C95.0543 31.5064 94.8256 31.8338 94.6661 32.2576C94.5066 32.6815 94.4269 33.1809 94.4269 33.7558ZM107.426 38.7791C106.431 38.7791 105.575 38.5776 104.857 38.1748C104.144 37.7677 103.594 37.1928 103.208 36.45C102.822 35.703 102.629 34.8196 102.629 33.7998C102.629 32.8053 102.822 31.9324 103.208 31.1812C103.594 30.43 104.138 29.8446 104.839 29.4249C105.544 29.0053 106.37 28.7955 107.319 28.7955C107.957 28.7955 108.55 28.8983 109.1 29.1039C109.654 29.3053 110.137 29.6096 110.548 30.0167C110.963 30.4237 111.287 30.9357 111.517 31.5526C111.748 32.1653 111.864 32.8829 111.864 33.7054V34.4419H103.699V32.7801H109.339C109.339 32.394 109.255 32.052 109.088 31.754C108.92 31.4561 108.687 31.2232 108.389 31.0553C108.095 30.8832 107.753 30.7972 107.363 30.7972C106.956 30.7972 106.595 30.8916 106.28 31.0805C105.969 31.2651 105.726 31.5148 105.55 31.8296C105.374 32.1401 105.283 32.4863 105.279 32.8682V34.4482C105.279 34.9266 105.367 35.34 105.544 35.6883C105.724 36.0366 105.978 36.3052 106.305 36.494C106.633 36.6829 107.021 36.7773 107.47 36.7773C107.768 36.7773 108.04 36.7353 108.288 36.6514C108.536 36.5675 108.748 36.4416 108.924 36.2737C109.1 36.1059 109.234 35.9002 109.327 35.6568L111.807 35.8205C111.681 36.4164 111.423 36.9368 111.033 37.3816C110.647 37.8222 110.147 38.1664 109.534 38.414C108.926 38.6574 108.223 38.7791 107.426 38.7791ZM113.614 28.9214H116.176V36.4626H118.901V28.9214H121.463V36.4626H124.189V28.9214H126.751V38.5902H113.614V28.9214ZM131.392 35.0525L134.873 28.9214H137.517V38.5902H134.961V32.4402L131.492 38.5902H128.83V28.9214H131.392V35.0525ZM138.695 31.0301V28.9214H147.458V31.0301H144.342V38.5902H141.786V31.0301H138.695ZM153.143 38.7791C152.149 38.7791 151.293 38.5776 150.575 38.1748C149.862 37.7677 149.312 37.1928 148.926 36.45C148.54 35.703 148.347 34.8196 148.347 33.7998C148.347 32.8053 148.54 31.9324 148.926 31.1812C149.312 30.43 149.855 29.8446 150.556 29.4249C151.261 29.0053 152.088 28.7955 153.036 28.7955C153.674 28.7955 154.268 28.8983 154.818 29.1039C155.372 29.3053 155.854 29.6096 156.266 30.0167C156.681 30.4237 157.004 30.9357 157.235 31.5526C157.466 32.1653 157.581 32.8829 157.581 33.7054V34.4419H149.417V32.7801H155.057C155.057 32.394 154.973 32.052 154.805 31.754C154.637 31.4561 154.404 31.2232 154.107 31.0553C153.813 30.8832 153.471 30.7972 153.08 30.7972C152.673 30.7972 152.313 30.8916 151.998 31.0805C151.687 31.2651 151.444 31.5148 151.268 31.8296C151.091 32.1401 151.001 32.4863 150.997 32.8682V34.4482C150.997 34.9266 151.085 35.34 151.261 35.6883C151.442 36.0366 151.696 36.3052 152.023 36.494C152.35 36.6829 152.738 36.7773 153.187 36.7773C153.485 36.7773 153.758 36.7353 154.006 36.6514C154.253 36.5675 154.465 36.4416 154.642 36.2737C154.818 36.1059 154.952 35.9002 155.044 35.6568L157.525 35.8205C157.399 36.4164 157.141 36.9368 156.75 37.3816C156.364 37.8222 155.865 38.1664 155.252 38.414C154.644 38.6574 153.941 38.7791 153.143 38.7791ZM162.679 41.4229V36.4626H163.421C163.635 36.3283 163.807 36.1142 163.937 35.8205C164.072 35.5267 164.181 35.1805 164.265 34.7818C164.353 34.3832 164.42 33.953 164.466 33.4914C164.517 33.0256 164.561 32.5556 164.598 32.0814L164.85 28.9214H172.266V36.4626H173.764V41.4229H171.208V38.5902H165.297V41.4229H162.679ZM166.09 36.4626H169.735V30.9861H167.129L167.028 32.0814C166.957 33.1137 166.854 33.9908 166.72 34.7126C166.585 35.4302 166.376 36.0135 166.09 36.4626ZM179.695 38.7791C178.717 38.7791 177.872 38.5713 177.158 38.1559C176.449 37.7362 175.901 37.1529 175.515 36.4059C175.129 35.6547 174.936 34.7839 174.936 33.7936C174.936 32.7948 175.129 31.9219 175.515 31.1749C175.901 30.4237 176.449 29.8404 177.158 29.4249C177.872 29.0053 178.717 28.7955 179.695 28.7955C180.673 28.7955 181.516 29.0053 182.226 29.4249C182.939 29.8404 183.489 30.4237 183.875 31.1749C184.261 31.9219 184.454 32.7948 184.454 33.7936C184.454 34.7839 184.261 35.6547 183.875 36.4059C183.489 37.1529 182.939 37.7362 182.226 38.1559C181.516 38.5713 180.673 38.7791 179.695 38.7791ZM179.708 36.7018C180.152 36.7018 180.524 36.5759 180.822 36.3241C181.12 36.0681 181.344 35.7198 181.495 35.2791C181.651 34.8385 181.728 34.337 181.728 33.7747C181.728 33.2123 181.651 32.7108 181.495 32.2702C181.344 31.8296 181.12 31.4813 180.822 31.2253C180.524 30.9693 180.152 30.8413 179.708 30.8413C179.259 30.8413 178.881 30.9693 178.575 31.2253C178.272 31.4813 178.044 31.8296 177.888 32.2702C177.737 32.7108 177.662 33.2123 177.662 33.7747C177.662 34.337 177.737 34.8385 177.888 35.2791C178.044 35.7198 178.272 36.0681 178.575 36.3241C178.881 36.5759 179.259 36.7018 179.708 36.7018ZM190.566 38.7791C189.576 38.7791 188.724 38.5692 188.01 38.1496C187.301 37.7257 186.756 37.1382 186.374 36.387C185.996 35.6358 185.807 34.7714 185.807 33.7936C185.807 32.8032 185.998 31.9345 186.38 31.1875C186.766 30.4363 187.314 29.8509 188.023 29.4312C188.732 29.0074 189.576 28.7955 190.554 28.7955C191.397 28.7955 192.136 28.9486 192.769 29.255C193.403 29.5613 193.904 29.9915 194.274 30.5454C194.643 31.0994 194.847 31.7498 194.884 32.4968H192.354C192.283 32.0142 192.094 31.626 191.787 31.3323C191.485 31.0343 191.089 30.8853 190.598 30.8853C190.182 30.8853 189.819 30.9987 189.509 31.2253C189.202 31.4477 188.963 31.7729 188.791 32.201C188.619 32.629 188.533 33.1473 188.533 33.7558C188.533 34.3727 188.617 34.8972 188.785 35.3295C188.957 35.7617 189.198 36.0912 189.509 36.3178C189.819 36.5444 190.182 36.6577 190.598 36.6577C190.904 36.6577 191.179 36.5948 191.422 36.4689C191.67 36.343 191.873 36.1604 192.033 35.9212C192.196 35.6778 192.304 35.3861 192.354 35.0462H194.884C194.842 35.7848 194.641 36.4353 194.28 36.9976C193.923 37.5558 193.43 37.9922 192.801 38.3069C192.171 38.6217 191.426 38.7791 190.566 38.7791ZM195.942 31.0301V28.9214H204.704V31.0301H201.588V38.5902H199.033V31.0301H195.942ZM207.985 42.216C207.646 42.216 207.327 42.1888 207.029 42.1342C206.735 42.0838 206.492 42.0188 206.298 41.9391L206.903 39.9373C207.218 40.0338 207.501 40.0863 207.753 40.0947C208.009 40.1031 208.229 40.0443 208.414 39.9184C208.602 39.7925 208.756 39.5785 208.873 39.2763L209.03 38.8672L205.562 28.9214H208.382L210.384 36.0219H210.485L212.505 28.9214H215.344L211.586 39.6352C211.406 40.1555 211.16 40.6087 210.85 40.9948C210.543 41.3851 210.155 41.6852 209.685 41.895C209.215 42.109 208.649 42.216 207.985 42.216ZM216.716 38.5902V28.9214H225.17V38.5902H222.608V31.0301H219.247V38.5902H216.716ZM231.413 38.5902V28.9214H234.095V32.6731H234.85L237.481 28.9214H240.629L237.211 33.718L240.667 38.5902H237.481L235.096 35.1595H234.095V38.5902H231.413ZM248.282 25.6984L251.398 35.4932H251.517L254.64 25.6984H257.661L253.217 38.5902H249.704L245.254 25.6984H248.282ZM259.213 38.5902V25.6984H261.938V31.3826H262.108L266.748 25.6984H270.015L265.231 31.4708L270.071 38.5902H266.811L263.279 33.29L261.938 34.9266V38.5902H259.213ZM277.759 38.5902H274.838L279.289 25.6984H282.801L287.245 38.5902H284.324L281.095 28.6444H280.994L277.759 38.5902ZM277.576 33.5229H284.475V35.6505H277.576V33.5229ZM291.859 38.7476C291.125 38.7476 290.46 38.5587 289.864 38.181C289.272 37.7992 288.802 37.2389 288.454 36.5003C288.11 35.7575 287.938 34.8469 287.938 33.7684C287.938 32.6605 288.116 31.7393 288.473 31.0049C288.829 30.2664 289.304 29.7145 289.895 29.3494C290.491 28.9801 291.144 28.7955 291.853 28.7955C292.394 28.7955 292.845 28.8878 293.206 29.0724C293.571 29.2529 293.865 29.4795 294.088 29.7523C294.314 30.0209 294.486 30.2852 294.604 30.5454H294.686V25.6984H297.361V38.5902H294.717V37.0417H294.604C294.478 37.3103 294.3 37.5767 294.069 37.8411C293.842 38.1013 293.546 38.3174 293.181 38.4895C292.82 38.6616 292.38 38.7476 291.859 38.7476ZM292.709 36.6136C293.141 36.6136 293.506 36.4961 293.804 36.2611C294.107 36.0219 294.337 35.6883 294.497 35.2602C294.66 34.8322 294.742 34.3307 294.742 33.7558C294.742 33.1809 294.663 32.6815 294.503 32.2576C294.344 31.8338 294.113 31.5064 293.811 31.2756C293.509 31.0448 293.141 30.9294 292.709 30.9294C292.268 30.9294 291.897 31.049 291.595 31.2882C291.293 31.5274 291.064 31.8589 290.909 32.2828C290.753 32.7066 290.676 33.1976 290.676 33.7558C290.676 34.3181 290.753 34.8154 290.909 35.2477C291.068 35.6757 291.297 36.0114 291.595 36.2548C291.897 36.494 292.268 36.6136 292.709 36.6136ZM307.61 31.6785L305.156 31.8296C305.114 31.6197 305.023 31.4309 304.885 31.263C304.746 31.091 304.564 30.9546 304.337 30.8539C304.115 30.749 303.848 30.6965 303.538 30.6965C303.122 30.6965 302.772 30.7846 302.487 30.9609C302.201 31.1329 302.058 31.3638 302.058 31.6533C302.058 31.8841 302.151 32.0793 302.335 32.2387C302.52 32.3982 302.837 32.5262 303.286 32.6227L305.036 32.9752C305.976 33.1683 306.677 33.4788 307.138 33.9069C307.6 34.3349 307.831 34.8972 307.831 35.5939C307.831 36.2276 307.644 36.7836 307.271 37.262C306.901 37.7404 306.393 38.1139 305.747 38.3825C305.105 38.6469 304.364 38.7791 303.525 38.7791C302.245 38.7791 301.225 38.5126 300.466 37.9796C299.71 37.4425 299.268 36.7123 299.138 35.789L301.775 35.6505C301.855 36.0408 302.048 36.3388 302.354 36.5444C302.661 36.7458 303.053 36.8465 303.531 36.8465C304.001 36.8465 304.379 36.7563 304.665 36.5759C304.954 36.3912 305.101 36.1541 305.105 35.8646C305.101 35.6212 304.998 35.4218 304.797 35.2665C304.595 35.1071 304.285 34.9854 303.865 34.9014L302.191 34.5678C301.246 34.379 300.544 34.0516 300.082 33.5858C299.624 33.12 299.396 32.5262 299.396 31.8044C299.396 31.1833 299.564 30.6482 299.899 30.1992C300.239 29.7502 300.716 29.404 301.328 29.1606C301.945 28.9172 302.667 28.7955 303.494 28.7955C304.715 28.7955 305.676 29.0536 306.377 29.5697C307.082 30.0859 307.493 30.7888 307.61 31.6785Z" fill="#070707"/>
<path d="M24.9465 69.8494V70.6147H19.5745V69.8494H24.9465ZM19.7256 69.8494V72.3599H18.7945L18.7896 69.8494H19.7256ZM25.7655 69.8494L25.7557 72.3551H24.8246V69.8494H25.7655ZM24.0252 63.517V64.2872H20.915V63.517H24.0252ZM24.8344 63.517V70.6147H23.8984V63.517H24.8344ZM20.5933 63.517H21.5341L21.3879 66.3737C21.3684 66.8026 21.3278 67.1991 21.266 67.5631C21.2043 67.9239 21.1279 68.2537 21.0369 68.5527C20.9459 68.8517 20.8419 69.1198 20.7249 69.357C20.6079 69.591 20.4828 69.7942 20.3496 69.9664C20.2163 70.1354 20.0766 70.2751 19.9303 70.3856C19.7873 70.4929 19.6427 70.5692 19.4965 70.6147H19.0675V69.8494H19.3697C19.4542 69.7584 19.5501 69.6268 19.6573 69.4545C19.7678 69.2823 19.8767 69.0597 19.984 68.7867C20.0945 68.5105 20.1903 68.1741 20.2716 67.7776C20.3561 67.3811 20.4129 66.9131 20.4422 66.3737L20.5933 63.517ZM30.3381 65.3402V66.086H27.7885V65.3402H30.3381ZM31.1326 65.3402V70.6147H30.2308V65.3402H31.1326ZM27.5692 65.3402H28.4759L28.3394 67.8849C28.3166 68.2781 28.2793 68.6258 28.2273 68.9281C28.1785 69.2271 28.1103 69.4838 28.0225 69.6983C27.938 69.9128 27.8308 70.0883 27.7008 70.2248C27.574 70.358 27.4213 70.4571 27.2425 70.5221C27.0638 70.5839 26.8574 70.6147 26.6234 70.6147H26.3407V69.8202L26.5357 69.8055C26.6754 69.7958 26.7941 69.7633 26.8916 69.708C26.9923 69.6528 27.0768 69.5715 27.1451 69.4643C27.2133 69.3538 27.2685 69.2124 27.3108 69.0402C27.3563 68.8679 27.3904 68.6632 27.4132 68.426C27.4392 68.1887 27.4587 67.9125 27.4717 67.5972L27.5692 65.3402ZM33.6529 68.0993H34.6279L33.1021 70.6147H32.1271L33.6529 68.0993ZM34.4085 65.3402H36.6119V70.6147H35.7101V66.0714H34.4085C34.1518 66.0714 33.9422 66.1153 33.7797 66.203C33.6172 66.2875 33.4986 66.398 33.4238 66.5345C33.3491 66.671 33.3117 66.8124 33.3117 66.9586C33.3117 67.1016 33.3458 67.2398 33.4141 67.373C33.4823 67.503 33.5895 67.6102 33.7358 67.6947C33.882 67.7792 34.0705 67.8215 34.3013 67.8215H35.9538V68.5625H34.3013C33.999 68.5625 33.7309 68.5218 33.4969 68.4406C33.2629 68.3593 33.0647 68.2472 32.9022 68.1042C32.7397 67.958 32.6162 67.7874 32.5317 67.5924C32.4472 67.3941 32.405 67.1796 32.405 66.9489C32.405 66.7181 32.4488 66.5053 32.5366 66.3103C32.6276 66.1153 32.7576 65.9447 32.9266 65.7984C33.0988 65.6522 33.3084 65.5401 33.5554 65.4621C33.8057 65.3808 34.09 65.3402 34.4085 65.3402ZM42.5104 68.0945H41.5404V67.5387H42.4373C42.6876 67.5387 42.8858 67.5079 43.0321 67.4461C43.1783 67.3811 43.2823 67.2918 43.344 67.178C43.4058 67.0643 43.4367 66.931 43.4367 66.7783C43.4367 66.6418 43.4009 66.5134 43.3294 66.3932C43.2612 66.2697 43.1507 66.1705 42.9979 66.0958C42.8452 66.0178 42.6404 65.9788 42.3837 65.9788C42.1757 65.9788 41.9872 66.0162 41.8182 66.0909C41.6492 66.1624 41.5144 66.2615 41.4136 66.3883C41.3161 66.5118 41.2674 66.6515 41.2674 66.8075H40.3655C40.3655 66.4858 40.4565 66.2095 40.6385 65.9788C40.8238 65.7448 41.0691 65.5644 41.3746 65.4377C41.6834 65.311 42.0197 65.2476 42.3837 65.2476C42.6892 65.2476 42.9622 65.2817 43.2027 65.35C43.4464 65.415 43.6528 65.5124 43.8218 65.6424C43.9908 65.7692 44.1191 65.9284 44.2069 66.1202C44.2979 66.3087 44.3434 66.528 44.3434 66.7783C44.3434 66.957 44.3011 67.126 44.2166 67.2853C44.1321 67.4445 44.0103 67.5859 43.851 67.7094C43.6918 67.8296 43.4984 67.9239 43.2709 67.9921C43.0467 68.0603 42.7932 68.0945 42.5104 68.0945ZM41.5404 67.7532H42.5104C42.8257 67.7532 43.1035 67.7841 43.344 67.8459C43.5845 67.9044 43.786 67.9921 43.9485 68.1091C44.111 68.2261 44.2329 68.3707 44.3141 68.543C44.3986 68.7119 44.4409 68.9069 44.4409 69.1279C44.4409 69.3749 44.3905 69.5975 44.2898 69.7958C44.1923 69.9908 44.0525 70.1565 43.8705 70.293C43.6885 70.4295 43.4708 70.5335 43.2173 70.605C42.9671 70.6765 42.6892 70.7122 42.3837 70.7122C42.0425 70.7122 41.711 70.6537 41.3892 70.5367C41.0675 70.4198 40.8026 70.2394 40.5946 69.9956C40.3867 69.7487 40.2827 69.435 40.2827 69.0548H41.1845C41.1845 69.2141 41.2349 69.3652 41.3356 69.5082C41.4364 69.6512 41.5761 69.7665 41.7549 69.8543C41.9368 69.942 42.1465 69.9859 42.3837 69.9859C42.6372 69.9859 42.8484 69.9469 43.0174 69.8689C43.1864 69.7909 43.3132 69.6869 43.3977 69.5569C43.4854 69.4269 43.5293 69.2855 43.5293 69.1328C43.5293 68.9346 43.4903 68.7753 43.4123 68.6551C43.3343 68.5348 43.214 68.4471 43.0515 68.3918C42.8923 68.3333 42.6876 68.3041 42.4373 68.3041H41.5404V67.7532ZM48.721 69.7129V66.9976C48.721 66.7896 48.6787 66.6093 48.5942 66.4565C48.513 66.3005 48.3895 66.1803 48.2237 66.0958C48.058 66.0113 47.8532 65.9691 47.6095 65.9691C47.382 65.9691 47.1821 66.0081 47.0099 66.086C46.8409 66.164 46.7077 66.2664 46.6102 66.3932C46.5159 66.5199 46.4688 66.6564 46.4688 66.8026H45.5669C45.5669 66.6142 45.6157 66.4273 45.7132 66.242C45.8107 66.0568 45.9504 65.8894 46.1324 65.7399C46.3177 65.5872 46.5387 65.4669 46.7954 65.3792C47.0554 65.2882 47.3446 65.2427 47.6631 65.2427C48.0466 65.2427 48.3846 65.3077 48.6771 65.4377C48.9728 65.5677 49.2036 65.7643 49.3693 66.0276C49.5383 66.2875 49.6228 66.6142 49.6228 67.0074V69.4643C49.6228 69.6398 49.6374 69.8267 49.6667 70.0249C49.6992 70.2231 49.7463 70.3938 49.808 70.5367V70.6147H48.8672C48.8217 70.5108 48.7859 70.3726 48.7599 70.2004C48.734 70.0249 48.721 69.8624 48.721 69.7129ZM48.8769 67.4169L48.8867 68.0506H47.9751C47.7184 68.0506 47.4892 68.0717 47.2878 68.114C47.0863 68.153 46.9173 68.2131 46.7808 68.2943C46.6443 68.3756 46.5403 68.478 46.4688 68.6015C46.3973 68.7217 46.3615 68.8631 46.3615 69.0256C46.3615 69.1913 46.3989 69.3424 46.4737 69.4789C46.5484 69.6154 46.6605 69.7243 46.81 69.8055C46.9628 69.8835 47.1496 69.9225 47.3706 69.9225C47.6469 69.9225 47.8906 69.864 48.1018 69.747C48.3131 69.63 48.4805 69.487 48.604 69.318C48.7307 69.1491 48.7989 68.9849 48.8087 68.8257L49.1938 69.2595C49.1711 69.396 49.1093 69.5472 49.0086 69.7129C48.9078 69.8787 48.7729 70.0379 48.604 70.1906C48.4382 70.3401 48.24 70.4653 48.0092 70.566C47.7817 70.6635 47.525 70.7122 47.239 70.7122C46.8815 70.7122 46.5679 70.6424 46.2982 70.5026C46.0317 70.3629 45.8237 70.176 45.6742 69.942C45.528 69.7048 45.4548 69.4399 45.4548 69.1474C45.4548 68.8647 45.5101 68.6161 45.6206 68.4016C45.7311 68.1838 45.8903 68.0035 46.0983 67.8605C46.3063 67.7142 46.5565 67.6037 46.849 67.529C47.1415 67.4542 47.4681 67.4169 47.8289 67.4169H48.8769ZM58.3731 69.8738L58.2853 72.1796H57.481V70.6147H56.7936V69.8738H58.3731ZM51.0657 65.3402H51.9676V69.8738H53.898V65.3402H54.8047V69.8738H56.7303V65.3402H57.6321V70.6147H51.0657V65.3402ZM60.284 69.1864L62.7165 65.3402H63.6232V70.6147H62.7165V66.7685L60.284 70.6147H59.387V65.3402H60.284V69.1864ZM67.2208 65.3402V70.6147H66.3141V65.3402H67.2208ZM68.9904 65.3402V66.0714H64.5787V65.3402H68.9904ZM70.6186 67.1536H72.2029C72.6286 67.1536 72.9877 67.2284 73.2802 67.3779C73.5727 67.5241 73.7937 67.7272 73.9432 67.9872C74.096 68.244 74.1723 68.5365 74.1723 68.8647C74.1723 69.1084 74.1301 69.3375 74.0456 69.552C73.9611 69.7633 73.8343 69.9485 73.6653 70.1078C73.4996 70.267 73.2932 70.3921 73.0462 70.4831C72.8025 70.5709 72.5214 70.6147 72.2029 70.6147H69.9605V65.3402H70.8623V69.8738H72.2029C72.4629 69.8738 72.6709 69.8267 72.8269 69.7324C72.9829 69.6382 73.095 69.5163 73.1632 69.3668C73.2315 69.2173 73.2656 69.0613 73.2656 68.8988C73.2656 68.7396 73.2315 68.5836 73.1632 68.4308C73.095 68.2781 72.9829 68.1513 72.8269 68.0506C72.6709 67.9466 72.4629 67.8946 72.2029 67.8946H70.6186V67.1536ZM76.0491 65.3402V70.6147H75.1473V65.3402H76.0491ZM81.0068 66.3542V72.6427H80.1001V65.3402H80.9288L81.0068 66.3542ZM84.5605 67.9336V68.036C84.5605 68.4195 84.515 68.7753 84.424 69.1036C84.333 69.4285 84.1998 69.7113 84.0243 69.9518C83.8521 70.1923 83.6392 70.3791 83.3857 70.5124C83.1322 70.6456 82.8414 70.7122 82.5131 70.7122C82.1784 70.7122 81.8826 70.657 81.6259 70.5465C81.3692 70.436 81.1514 70.2751 80.9727 70.0639C80.7939 69.8527 80.6509 69.5992 80.5437 69.3034C80.4397 69.0077 80.3682 68.6746 80.3292 68.3041V67.7581C80.3682 67.3681 80.4413 67.0188 80.5486 66.71C80.6558 66.4013 80.7972 66.138 80.9727 65.9203C81.1514 65.6993 81.3675 65.5319 81.621 65.4182C81.8745 65.3012 82.167 65.2427 82.4985 65.2427C82.83 65.2427 83.1241 65.3077 83.3808 65.4377C83.6376 65.5644 83.8537 65.7464 84.0292 65.9837C84.2047 66.2209 84.3363 66.5053 84.424 66.8368C84.515 67.165 84.5605 67.5306 84.5605 67.9336ZM83.6538 68.036V67.9336C83.6538 67.6704 83.6262 67.4234 83.571 67.1926C83.5157 66.9586 83.4296 66.7539 83.3126 66.5784C83.1988 66.3997 83.0526 66.2599 82.8739 66.1592C82.6951 66.0552 82.4822 66.0032 82.2353 66.0032C82.0078 66.0032 81.8095 66.0422 81.6405 66.1202C81.4748 66.1982 81.3334 66.3038 81.2164 66.437C81.0994 66.567 81.0036 66.7165 80.9288 66.8855C80.8573 67.0513 80.8037 67.2235 80.7679 67.4022V68.6648C80.8329 68.8923 80.9239 69.1068 81.0409 69.3083C81.1579 69.5065 81.3139 69.6674 81.5089 69.7909C81.7039 69.9111 81.9493 69.9713 82.245 69.9713C82.4887 69.9713 82.6984 69.9209 82.8739 69.8202C83.0526 69.7162 83.1988 69.5748 83.3126 69.396C83.4296 69.2173 83.5157 69.0126 83.571 68.7818C83.6262 68.5478 83.6538 68.2992 83.6538 68.036ZM87.8998 70.7122C87.5325 70.7122 87.1994 70.6505 86.9004 70.527C86.6047 70.4003 86.3496 70.2231 86.1351 69.9956C85.9239 69.7682 85.7614 69.4984 85.6476 69.1864C85.5339 68.8744 85.477 68.5332 85.477 68.1627V67.958C85.477 67.529 85.5404 67.1471 85.6671 66.8124C85.7939 66.4744 85.9661 66.1884 86.1838 65.9544C86.4016 65.7204 86.6486 65.5433 86.9248 65.4231C87.2011 65.3028 87.487 65.2427 87.7828 65.2427C88.1598 65.2427 88.4848 65.3077 88.7577 65.4377C89.034 65.5677 89.2599 65.7497 89.4353 65.9837C89.6108 66.2144 89.7408 66.4874 89.8253 66.8026C89.9098 67.1146 89.9521 67.4559 89.9521 67.8264V68.231H86.0132V67.4949H89.0502V67.4266C89.0372 67.1926 88.9885 66.9651 88.904 66.7441C88.8227 66.5232 88.6927 66.3412 88.514 66.1982C88.3353 66.0552 88.0915 65.9837 87.7828 65.9837C87.578 65.9837 87.3896 66.0276 87.2173 66.1153C87.0451 66.1998 86.8972 66.3265 86.7737 66.4955C86.6502 66.6645 86.5543 66.8709 86.4861 67.1146C86.4178 67.3584 86.3837 67.6395 86.3837 67.958V68.1627C86.3837 68.413 86.4178 68.6486 86.4861 68.8696C86.5576 69.0873 86.66 69.279 86.7932 69.4448C86.9297 69.6105 87.0938 69.7405 87.2856 69.8348C87.4805 69.929 87.7015 69.9761 87.9485 69.9761C88.267 69.9761 88.5368 69.9111 88.7577 69.7812C88.9787 69.6512 89.1721 69.4773 89.3378 69.2595L89.8838 69.6934C89.7701 69.8657 89.6255 70.0298 89.45 70.1858C89.2745 70.3418 89.0584 70.4685 88.8016 70.566C88.5481 70.6635 88.2475 70.7122 87.8998 70.7122ZM91.9849 65.3402V70.6147H91.083V65.3402H91.9849ZM95.446 65.3402L92.9452 68.3626H91.6826L91.5461 67.5729H92.5796L94.3492 65.3402H95.446ZM94.4759 70.6147L92.5357 68.2261L93.1158 67.5729L95.6215 70.6147H94.4759ZM99.9308 65.3402V66.086H97.3813V65.3402H99.9308ZM100.725 65.3402V70.6147H99.8236V65.3402H100.725ZM97.1619 65.3402H98.0686L97.9321 67.8849C97.9094 68.2781 97.872 68.6258 97.82 68.9281C97.7713 69.2271 97.703 69.4838 97.6153 69.6983C97.5308 69.9128 97.4235 70.0883 97.2935 70.2248C97.1668 70.358 97.014 70.4571 96.8353 70.5221C96.6566 70.5839 96.4502 70.6147 96.2162 70.6147H95.9335V69.8202L96.1285 69.8055C96.2682 69.7958 96.3868 69.7633 96.4843 69.708C96.5851 69.6528 96.6696 69.5715 96.7378 69.4643C96.8061 69.3538 96.8613 69.2124 96.9035 69.0402C96.949 68.8679 96.9832 68.6632 97.0059 68.426C97.0319 68.1887 97.0514 67.9125 97.0644 67.5972L97.1619 65.3402ZM105.288 69.7129V66.9976C105.288 66.7896 105.246 66.6093 105.161 66.4565C105.08 66.3005 104.957 66.1803 104.791 66.0958C104.625 66.0113 104.421 65.9691 104.177 65.9691C103.949 65.9691 103.749 66.0081 103.577 66.086C103.408 66.164 103.275 66.2664 103.177 66.3932C103.083 66.5199 103.036 66.6564 103.036 66.8026H102.134C102.134 66.6142 102.183 66.4273 102.28 66.242C102.378 66.0568 102.518 65.8894 102.7 65.7399C102.885 65.5872 103.106 65.4669 103.363 65.3792C103.623 65.2882 103.912 65.2427 104.23 65.2427C104.614 65.2427 104.952 65.3077 105.244 65.4377C105.54 65.5677 105.771 65.7643 105.937 66.0276C106.106 66.2875 106.19 66.6142 106.19 67.0074V69.4643C106.19 69.6398 106.205 69.8267 106.234 70.0249C106.266 70.2231 106.314 70.3938 106.375 70.5367V70.6147H105.434C105.389 70.5108 105.353 70.3726 105.327 70.2004C105.301 70.0249 105.288 69.8624 105.288 69.7129ZM105.444 67.4169L105.454 68.0506H104.542C104.286 68.0506 104.057 68.0717 103.855 68.114C103.654 68.153 103.485 68.2131 103.348 68.2943C103.212 68.3756 103.108 68.478 103.036 68.6015C102.965 68.7217 102.929 68.8631 102.929 69.0256C102.929 69.1913 102.966 69.3424 103.041 69.4789C103.116 69.6154 103.228 69.7243 103.377 69.8055C103.53 69.8835 103.717 69.9225 103.938 69.9225C104.214 69.9225 104.458 69.864 104.669 69.747C104.88 69.63 105.048 69.487 105.171 69.318C105.298 69.1491 105.366 68.9849 105.376 68.8257L105.761 69.2595C105.738 69.396 105.677 69.5472 105.576 69.7129C105.475 69.8787 105.34 70.0379 105.171 70.1906C105.005 70.3401 104.807 70.4653 104.576 70.566C104.349 70.6635 104.092 70.7122 103.806 70.7122C103.449 70.7122 103.135 70.6424 102.865 70.5026C102.599 70.3629 102.391 70.176 102.241 69.942C102.095 69.7048 102.022 69.4399 102.022 69.1474C102.022 68.8647 102.077 68.6161 102.188 68.4016C102.298 68.1838 102.458 68.0035 102.666 67.8605C102.874 67.7142 103.124 67.6037 103.416 67.529C103.709 67.4542 104.035 67.4169 104.396 67.4169H105.444ZM110.641 69.4155L112.435 65.3402H113.302L110.953 70.6147H110.329L107.989 65.3402H108.857L110.641 69.4155ZM108.593 65.3402V70.6147H107.691V65.3402H108.593ZM112.659 70.6147V65.3402H113.566V70.6147H112.659ZM118.596 67.6265V68.3577H115.808V67.6265H118.596ZM115.998 65.3402V70.6147H115.096V65.3402H115.998ZM119.328 65.3402V70.6147H118.421V65.3402H119.328ZM121.521 67.1536H123.106C123.531 67.1536 123.89 67.2284 124.183 67.3779C124.475 67.5241 124.696 67.7272 124.846 67.9872C124.999 68.244 125.075 68.5365 125.075 68.8647C125.075 69.1084 125.033 69.3375 124.948 69.552C124.864 69.7633 124.737 69.9485 124.568 70.1078C124.402 70.267 124.196 70.3921 123.949 70.4831C123.705 70.5709 123.424 70.6147 123.106 70.6147H120.863V65.3402H121.765V69.8738H123.106C123.366 69.8738 123.574 69.8267 123.73 69.7324C123.886 69.6382 123.998 69.5163 124.066 69.3668C124.134 69.2173 124.168 69.0613 124.168 68.8988C124.168 68.7396 124.134 68.5836 124.066 68.4308C123.998 68.2781 123.886 68.1513 123.73 68.0506C123.574 67.9466 123.366 67.8946 123.106 67.8946H121.521V67.1536ZM126.952 65.3402V70.6147H126.05V65.3402H126.952ZM129.141 65.3402L130.296 67.2609L131.466 65.3402H132.524L130.798 67.9434L132.577 70.6147H131.534L130.315 68.6356L129.097 70.6147H128.049L129.823 67.9434L128.102 65.3402H129.141ZM136.94 65.3402V70.6147H136.039V65.3402H136.94ZM140.401 65.3402L137.901 68.3626H136.638L136.502 67.5729H137.535L139.305 65.3402H140.401ZM139.431 70.6147L137.491 68.2261L138.071 67.5729L140.577 70.6147H139.431ZM144.472 69.7129V66.9976C144.472 66.7896 144.43 66.6093 144.345 66.4565C144.264 66.3005 144.14 66.1803 143.975 66.0958C143.809 66.0113 143.604 65.9691 143.36 65.9691C143.133 65.9691 142.933 66.0081 142.761 66.086C142.592 66.164 142.459 66.2664 142.361 66.3932C142.267 66.5199 142.22 66.6564 142.22 66.8026H141.318C141.318 66.6142 141.367 66.4273 141.464 66.242C141.562 66.0568 141.701 65.8894 141.883 65.7399C142.069 65.5872 142.29 65.4669 142.546 65.3792C142.806 65.2882 143.096 65.2427 143.414 65.2427C143.798 65.2427 144.136 65.3077 144.428 65.4377C144.724 65.5677 144.955 65.7643 145.12 66.0276C145.289 66.2875 145.374 66.6142 145.374 67.0074V69.4643C145.374 69.6398 145.388 69.8267 145.418 70.0249C145.45 70.2231 145.497 70.3938 145.559 70.5367V70.6147H144.618C144.573 70.5108 144.537 70.3726 144.511 70.2004C144.485 70.0249 144.472 69.8624 144.472 69.7129ZM144.628 67.4169L144.638 68.0506H143.726C143.469 68.0506 143.24 68.0717 143.039 68.114C142.837 68.153 142.668 68.2131 142.532 68.2943C142.395 68.3756 142.291 68.478 142.22 68.6015C142.148 68.7217 142.113 68.8631 142.113 69.0256C142.113 69.1913 142.15 69.3424 142.225 69.4789C142.299 69.6154 142.412 69.7243 142.561 69.8055C142.714 69.8835 142.901 69.9225 143.122 69.9225C143.398 69.9225 143.642 69.864 143.853 69.747C144.064 69.63 144.231 69.487 144.355 69.318C144.482 69.1491 144.55 68.9849 144.56 68.8257L144.945 69.2595C144.922 69.396 144.86 69.5472 144.76 69.7129C144.659 69.8787 144.524 70.0379 144.355 70.1906C144.189 70.3401 143.991 70.4653 143.76 70.566C143.533 70.6635 143.276 70.7122 142.99 70.7122C142.632 70.7122 142.319 70.6424 142.049 70.5026C141.783 70.3629 141.575 70.176 141.425 69.942C141.279 69.7048 141.206 69.4399 141.206 69.1474C141.206 68.8647 141.261 68.6161 141.372 68.4016C141.482 68.1838 141.641 68.0035 141.849 67.8605C142.057 67.7142 142.308 67.6037 142.6 67.529C142.892 67.4542 143.219 67.4169 143.58 67.4169H144.628ZM149.824 69.4155L151.618 65.3402H152.486L150.136 70.6147H149.512L147.173 65.3402H148.04L149.824 69.4155ZM147.777 65.3402V70.6147H146.875V65.3402H147.777ZM151.843 70.6147V65.3402H152.749V70.6147H151.843ZM157.717 65.3402V66.086H155.05V65.3402H157.717ZM155.182 65.3402V70.6147H154.28V65.3402H155.182ZM158.516 65.3402V70.6147H157.61V65.3402H158.516ZM163.074 69.7129V66.9976C163.074 66.7896 163.032 66.6093 162.947 66.4565C162.866 66.3005 162.743 66.1803 162.577 66.0958C162.411 66.0113 162.206 65.9691 161.963 65.9691C161.735 65.9691 161.535 66.0081 161.363 66.086C161.194 66.164 161.061 66.2664 160.963 66.3932C160.869 66.5199 160.822 66.6564 160.822 66.8026H159.92C159.92 66.6142 159.969 66.4273 160.066 66.242C160.164 66.0568 160.304 65.8894 160.486 65.7399C160.671 65.5872 160.892 65.4669 161.149 65.3792C161.409 65.2882 161.698 65.2427 162.016 65.2427C162.4 65.2427 162.738 65.3077 163.03 65.4377C163.326 65.5677 163.557 65.7643 163.723 66.0276C163.892 66.2875 163.976 66.6142 163.976 67.0074V69.4643C163.976 69.6398 163.991 69.8267 164.02 70.0249C164.052 70.2231 164.1 70.3938 164.161 70.5367V70.6147H163.22C163.175 70.5108 163.139 70.3726 163.113 70.2004C163.087 70.0249 163.074 69.8624 163.074 69.7129ZM163.23 67.4169L163.24 68.0506H162.328C162.072 68.0506 161.842 68.0717 161.641 68.114C161.44 68.153 161.271 68.2131 161.134 68.2943C160.998 68.3756 160.894 68.478 160.822 68.6015C160.751 68.7217 160.715 68.8631 160.715 69.0256C160.715 69.1913 160.752 69.3424 160.827 69.4789C160.902 69.6154 161.014 69.7243 161.163 69.8055C161.316 69.8835 161.503 69.9225 161.724 69.9225C162 69.9225 162.244 69.864 162.455 69.747C162.666 69.63 162.834 69.487 162.957 69.318C163.084 69.1491 163.152 68.9849 163.162 68.8257L163.547 69.2595C163.524 69.396 163.463 69.5472 163.362 69.7129C163.261 69.8787 163.126 70.0379 162.957 70.1906C162.791 70.3401 162.593 70.4653 162.362 70.566C162.135 70.6635 161.878 70.7122 161.592 70.7122C161.235 70.7122 160.921 70.6424 160.651 70.5026C160.385 70.3629 160.177 70.176 160.027 69.942C159.881 69.7048 159.808 69.4399 159.808 69.1474C159.808 68.8647 159.863 68.6161 159.974 68.4016C160.084 68.1838 160.244 68.0035 160.452 67.8605C160.66 67.7142 160.91 67.6037 161.202 67.529C161.495 67.4542 161.821 67.4169 162.182 67.4169H163.23ZM168.973 67.6265V68.3577H166.184V67.6265H168.973ZM166.374 65.3402V70.6147H165.473V65.3402H166.374ZM169.704 65.3402V70.6147H168.797V65.3402H169.704ZM172.132 69.1864L174.564 65.3402H175.471V70.6147H174.564V66.7685L172.132 70.6147H171.235V65.3402H172.132V69.1864ZM177.894 69.1864L180.326 65.3402H181.233V70.6147H180.326V66.7685L177.894 70.6147H176.997V65.3402H177.894V69.1864ZM179.834 63.4293H180.565C180.565 63.6828 180.506 63.9086 180.39 64.1069C180.273 64.3019 180.105 64.4546 179.887 64.5651C179.67 64.6756 179.411 64.7309 179.112 64.7309C178.661 64.7309 178.303 64.6106 178.04 64.3701C177.78 64.1264 177.65 63.8128 177.65 63.4293H178.381C178.381 63.621 178.436 63.79 178.547 63.9363C178.657 64.0825 178.846 64.1556 179.112 64.1556C179.372 64.1556 179.558 64.0825 179.668 63.9363C179.779 63.79 179.834 63.621 179.834 63.4293ZM188.735 67.6265V68.3577H185.947V67.6265H188.735ZM186.137 65.3402V70.6147H185.235V65.3402H186.137ZM189.466 65.3402V70.6147H188.56V65.3402H189.466ZM194.029 69.7129V66.9976C194.029 66.7896 193.987 66.6093 193.902 66.4565C193.821 66.3005 193.698 66.1803 193.532 66.0958C193.366 66.0113 193.162 65.9691 192.918 65.9691C192.69 65.9691 192.49 66.0081 192.318 66.086C192.149 66.164 192.016 66.2664 191.918 66.3932C191.824 66.5199 191.777 66.6564 191.777 66.8026H190.875C190.875 66.6142 190.924 66.4273 191.021 66.242C191.119 66.0568 191.259 65.8894 191.441 65.7399C191.626 65.5872 191.847 65.4669 192.104 65.3792C192.364 65.2882 192.653 65.2427 192.971 65.2427C193.355 65.2427 193.693 65.3077 193.985 65.4377C194.281 65.5677 194.512 65.7643 194.678 66.0276C194.847 66.2875 194.931 66.6142 194.931 67.0074V69.4643C194.931 69.6398 194.946 69.8267 194.975 70.0249C195.007 70.2231 195.055 70.3938 195.116 70.5367V70.6147H194.175C194.13 70.5108 194.094 70.3726 194.068 70.2004C194.042 70.0249 194.029 69.8624 194.029 69.7129ZM194.185 67.4169L194.195 68.0506H193.283C193.027 68.0506 192.798 68.0717 192.596 68.114C192.395 68.153 192.226 68.2131 192.089 68.2943C191.953 68.3756 191.849 68.478 191.777 68.6015C191.706 68.7217 191.67 68.8631 191.67 69.0256C191.67 69.1913 191.707 69.3424 191.782 69.4789C191.857 69.6154 191.969 69.7243 192.118 69.8055C192.271 69.8835 192.458 69.9225 192.679 69.9225C192.955 69.9225 193.199 69.864 193.41 69.747C193.621 69.63 193.789 69.487 193.912 69.318C194.039 69.1491 194.107 68.9849 194.117 68.8257L194.502 69.2595C194.479 69.396 194.418 69.5472 194.317 69.7129C194.216 69.8787 194.081 70.0379 193.912 70.1906C193.746 70.3401 193.548 70.4653 193.318 70.566C193.09 70.6635 192.833 70.7122 192.547 70.7122C192.19 70.7122 191.876 70.6424 191.606 70.5026C191.34 70.3629 191.132 70.176 190.982 69.942C190.836 69.7048 190.763 69.4399 190.763 69.1474C190.763 68.8647 190.818 68.6161 190.929 68.4016C191.039 68.1838 191.199 68.0035 191.407 67.8605C191.615 67.7142 191.865 67.6037 192.157 67.529C192.45 67.4542 192.776 67.4169 193.137 67.4169H194.185ZM199.382 69.4155L201.176 65.3402H202.043L199.694 70.6147H199.07L196.73 65.3402H197.598L199.382 69.4155ZM197.334 65.3402V70.6147H196.432V65.3402H197.334ZM201.4 70.6147V65.3402H202.307V70.6147H201.4ZM209.814 67.6265V68.3577H207.025V67.6265H209.814ZM207.216 65.3402V70.6147H206.314V65.3402H207.216ZM210.545 65.3402V70.6147H209.638V65.3402H210.545ZM214.187 70.7122C213.819 70.7122 213.486 70.6505 213.187 70.527C212.891 70.4003 212.636 70.2231 212.422 69.9956C212.211 69.7682 212.048 69.4984 211.934 69.1864C211.821 68.8744 211.764 68.5332 211.764 68.1627V67.958C211.764 67.529 211.827 67.1471 211.954 66.8124C212.081 66.4744 212.253 66.1884 212.471 65.9544C212.688 65.7204 212.935 65.5433 213.212 65.4231C213.488 65.3028 213.774 65.2427 214.07 65.2427C214.447 65.2427 214.772 65.3077 215.045 65.4377C215.321 65.5677 215.547 65.7497 215.722 65.9837C215.898 66.2144 216.028 66.4874 216.112 66.8026C216.197 67.1146 216.239 67.4559 216.239 67.8264V68.231H212.3V67.4949H215.337V67.4266C215.324 67.1926 215.275 66.9651 215.191 66.7441C215.11 66.5232 214.98 66.3412 214.801 66.1982C214.622 66.0552 214.378 65.9837 214.07 65.9837C213.865 65.9837 213.676 66.0276 213.504 66.1153C213.332 66.1998 213.184 66.3265 213.06 66.4955C212.937 66.6645 212.841 66.8709 212.773 67.1146C212.705 67.3584 212.67 67.6395 212.67 67.958V68.1627C212.67 68.413 212.705 68.6486 212.773 68.8696C212.844 69.0873 212.947 69.279 213.08 69.4448C213.216 69.6105 213.381 69.7405 213.572 69.8348C213.767 69.929 213.988 69.9761 214.235 69.9761C214.554 69.9761 214.824 69.9111 215.045 69.7812C215.266 69.6512 215.459 69.4773 215.625 69.2595L216.171 69.6934C216.057 69.8657 215.912 70.0298 215.737 70.1858C215.561 70.3418 215.345 70.4685 215.088 70.566C214.835 70.6635 214.534 70.7122 214.187 70.7122ZM217.053 68.036V67.9239C217.053 67.5436 217.108 67.191 217.219 66.866C217.329 66.5378 217.488 66.2534 217.696 66.0129C217.904 65.7692 218.156 65.5807 218.452 65.4474C218.748 65.311 219.079 65.2427 219.446 65.2427C219.817 65.2427 220.15 65.311 220.446 65.4474C220.745 65.5807 220.998 65.7692 221.206 66.0129C221.418 66.2534 221.578 66.5378 221.689 66.866C221.799 67.191 221.855 67.5436 221.855 67.9239V68.036C221.855 68.4162 221.799 68.7688 221.689 69.0938C221.578 69.4188 221.418 69.7032 221.206 69.9469C220.998 70.1874 220.746 70.3759 220.451 70.5124C220.158 70.6456 219.827 70.7122 219.456 70.7122C219.086 70.7122 218.753 70.6456 218.457 70.5124C218.161 70.3759 217.908 70.1874 217.696 69.9469C217.488 69.7032 217.329 69.4188 217.219 69.0938C217.108 68.7688 217.053 68.4162 217.053 68.036ZM217.955 67.9239V68.036C217.955 68.2992 217.986 68.5478 218.047 68.7818C218.109 69.0126 218.202 69.2173 218.325 69.396C218.452 69.5748 218.61 69.7162 218.798 69.8202C218.987 69.9209 219.206 69.9713 219.456 69.9713C219.703 69.9713 219.919 69.9209 220.105 69.8202C220.293 69.7162 220.449 69.5748 220.573 69.396C220.696 69.2173 220.789 69.0126 220.85 68.7818C220.915 68.5478 220.948 68.2992 220.948 68.036V67.9239C220.948 67.6639 220.915 67.4185 220.85 67.1878C220.789 66.9538 220.694 66.7474 220.568 66.5687C220.444 66.3867 220.288 66.2437 220.1 66.1397C219.914 66.0357 219.697 65.9837 219.446 65.9837C219.199 65.9837 218.982 66.0357 218.793 66.1397C218.608 66.2437 218.452 66.3867 218.325 66.5687C218.202 66.7474 218.109 66.9538 218.047 67.1878C217.986 67.4185 217.955 67.6639 217.955 67.9239ZM226.369 63.0442H227.11C227.11 63.3627 227.061 63.6161 226.963 63.8046C226.866 63.9899 226.733 64.1329 226.564 64.2336C226.398 64.3344 226.209 64.4107 225.998 64.4627C225.79 64.5147 225.574 64.5651 225.35 64.6139C225.07 64.6724 224.81 64.765 224.57 64.8917C224.333 65.0152 224.128 65.1907 223.956 65.4182C223.787 65.6457 223.662 65.9414 223.58 66.3054C223.502 66.6694 223.481 67.1195 223.517 67.6557V68.1042H222.776V67.6557C222.776 67.0545 222.833 66.5297 222.947 66.0812C223.064 65.6327 223.228 65.2541 223.439 64.9453C223.65 64.6366 223.9 64.3912 224.19 64.2092C224.482 64.0273 224.804 63.9021 225.155 63.8339C225.408 63.7851 225.626 63.7331 225.808 63.6779C225.99 63.6194 226.128 63.5414 226.222 63.4439C226.32 63.3464 226.369 63.2132 226.369 63.0442ZM225.301 65.6424C225.646 65.6424 225.953 65.7026 226.222 65.8228C226.492 65.9431 226.721 66.1104 226.91 66.3249C227.098 66.5394 227.241 66.7929 227.339 67.0854C227.44 67.3746 227.49 67.6899 227.49 68.0311V68.1383C227.49 68.5056 227.436 68.8468 227.329 69.1621C227.225 69.474 227.071 69.747 226.866 69.981C226.664 70.2118 226.417 70.3921 226.125 70.5221C225.836 70.6521 225.506 70.7171 225.135 70.7171C224.765 70.7171 224.433 70.6521 224.141 70.5221C223.852 70.3921 223.605 70.2118 223.4 69.981C223.195 69.747 223.039 69.474 222.932 69.1621C222.828 68.8468 222.776 68.5056 222.776 68.1383V68.0311C222.776 67.9499 222.791 67.8702 222.82 67.7922C222.849 67.7142 222.885 67.6346 222.927 67.5534C222.973 67.4721 223.013 67.386 223.049 67.295C223.169 67.0025 223.333 66.7311 223.541 66.4809C223.753 66.2307 224.004 66.0292 224.297 65.8764C224.593 65.7204 224.927 65.6424 225.301 65.6424ZM225.126 66.3785C224.794 66.3785 224.521 66.4549 224.307 66.6077C224.095 66.7604 223.938 66.9635 223.834 67.217C223.73 67.4672 223.678 67.7386 223.678 68.0311V68.1383C223.678 68.3853 223.707 68.6193 223.766 68.8403C223.824 69.0613 223.912 69.2579 224.029 69.4302C224.149 69.5992 224.3 69.7324 224.482 69.8299C224.667 69.9274 224.885 69.9761 225.135 69.9761C225.386 69.9761 225.602 69.9274 225.784 69.8299C225.966 69.7324 226.115 69.5992 226.232 69.4302C226.349 69.2579 226.437 69.0613 226.495 68.8403C226.554 68.6193 226.583 68.3853 226.583 68.1383V68.0311C226.583 67.8101 226.554 67.6005 226.495 67.4022C226.437 67.204 226.348 67.0285 226.227 66.8758C226.11 66.723 225.959 66.6028 225.774 66.515C225.592 66.424 225.376 66.3785 225.126 66.3785ZM229.045 65.3402L230.2 67.2609L231.37 65.3402H232.428L230.702 67.9434L232.482 70.6147H231.438L230.22 68.6356L229.001 70.6147H227.953L229.727 67.9434L228.007 65.3402H229.045ZM233.052 68.036V67.9239C233.052 67.5436 233.107 67.191 233.218 66.866C233.328 66.5378 233.488 66.2534 233.696 66.0129C233.904 65.7692 234.155 65.5807 234.451 65.4474C234.747 65.311 235.078 65.2427 235.446 65.2427C235.816 65.2427 236.149 65.311 236.445 65.4474C236.744 65.5807 236.997 65.7692 237.205 66.0129C237.417 66.2534 237.578 66.5378 237.688 66.866C237.798 67.191 237.854 67.5436 237.854 67.9239V68.036C237.854 68.4162 237.798 68.7688 237.688 69.0938C237.578 69.4188 237.417 69.7032 237.205 69.9469C236.997 70.1874 236.746 70.3759 236.45 70.5124C236.157 70.6456 235.826 70.7122 235.455 70.7122C235.085 70.7122 234.752 70.6456 234.456 70.5124C234.16 70.3759 233.907 70.1874 233.696 69.9469C233.488 69.7032 233.328 69.4188 233.218 69.0938C233.107 68.7688 233.052 68.4162 233.052 68.036ZM233.954 67.9239V68.036C233.954 68.2992 233.985 68.5478 234.047 68.7818C234.108 69.0126 234.201 69.2173 234.324 69.396C234.451 69.5748 234.609 69.7162 234.797 69.8202C234.986 69.9209 235.205 69.9713 235.455 69.9713C235.702 69.9713 235.918 69.9209 236.104 69.8202C236.292 69.7162 236.448 69.5748 236.572 69.396C236.695 69.2173 236.788 69.0126 236.85 68.7818C236.915 68.5478 236.947 68.2992 236.947 68.036V67.9239C236.947 67.6639 236.915 67.4185 236.85 67.1878C236.788 66.9538 236.694 66.7474 236.567 66.5687C236.443 66.3867 236.287 66.2437 236.099 66.1397C235.914 66.0357 235.696 65.9837 235.446 65.9837C235.199 65.9837 234.981 66.0357 234.792 66.1397C234.607 66.2437 234.451 66.3867 234.324 66.5687C234.201 66.7474 234.108 66.9538 234.047 67.1878C233.985 67.4185 233.954 67.6639 233.954 67.9239ZM239.584 65.3402H240.486L240.408 67.3145C240.389 67.815 240.332 68.2472 240.238 68.6112C240.143 68.9752 240.023 69.2855 239.877 69.5423C239.731 69.7958 239.566 70.0086 239.384 70.1809C239.206 70.3531 239.02 70.4978 238.829 70.6147H238.38L238.405 69.8787L238.59 69.8738C238.697 69.747 238.801 69.617 238.902 69.4838C239.003 69.3473 239.095 69.1864 239.18 69.0012C239.264 68.8127 239.334 68.5836 239.389 68.3138C239.448 68.0408 239.485 67.7077 239.501 67.3145L239.584 65.3402ZM239.809 65.3402H242.982V70.6147H242.08V66.1738H239.809V65.3402ZM238.175 69.8738H243.66V72.1698H242.758V70.6147H239.077V72.1698H238.171L238.175 69.8738ZM245.634 69.1864L248.066 65.3402H248.973V70.6147H248.066V66.7685L245.634 70.6147H244.737V65.3402H245.634V69.1864ZM253.453 69.4155L255.247 65.3402H256.115L253.765 70.6147H253.141L250.801 65.3402H251.669L253.453 69.4155ZM251.406 65.3402V70.6147H250.504V65.3402H251.406ZM255.471 70.6147V65.3402H256.378V70.6147H255.471ZM257.592 68.036V67.9239C257.592 67.5436 257.647 67.191 257.758 66.866C257.868 66.5378 258.027 66.2534 258.235 66.0129C258.443 65.7692 258.695 65.5807 258.991 65.4474C259.287 65.311 259.618 65.2427 259.985 65.2427C260.356 65.2427 260.689 65.311 260.985 65.4474C261.284 65.5807 261.537 65.7692 261.745 66.0129C261.956 66.2534 262.117 66.5378 262.228 66.866C262.338 67.191 262.394 67.5436 262.394 67.9239V68.036C262.394 68.4162 262.338 68.7688 262.228 69.0938C262.117 69.4188 261.956 69.7032 261.745 69.9469C261.537 70.1874 261.285 70.3759 260.99 70.5124C260.697 70.6456 260.366 70.7122 259.995 70.7122C259.625 70.7122 259.292 70.6456 258.996 70.5124C258.7 70.3759 258.447 70.1874 258.235 69.9469C258.027 69.7032 257.868 69.4188 257.758 69.0938C257.647 68.7688 257.592 68.4162 257.592 68.036ZM258.494 67.9239V68.036C258.494 68.2992 258.525 68.5478 258.586 68.7818C258.648 69.0126 258.741 69.2173 258.864 69.396C258.991 69.5748 259.149 69.7162 259.337 69.8202C259.526 69.9209 259.745 69.9713 259.995 69.9713C260.242 69.9713 260.458 69.9209 260.643 69.8202C260.832 69.7162 260.988 69.5748 261.111 69.396C261.235 69.2173 261.328 69.0126 261.389 68.7818C261.454 68.5478 261.487 68.2992 261.487 68.036V67.9239C261.487 67.6639 261.454 67.4185 261.389 67.1878C261.328 66.9538 261.233 66.7474 261.107 66.5687C260.983 66.3867 260.827 66.2437 260.639 66.1397C260.453 66.0357 260.236 65.9837 259.985 65.9837C259.738 65.9837 259.521 66.0357 259.332 66.1397C259.147 66.2437 258.991 66.3867 258.864 66.5687C258.741 66.7474 258.648 66.9538 258.586 67.1878C258.525 67.4185 258.494 67.6639 258.494 67.9239ZM269.516 65.3402V66.086H266.849V65.3402H269.516ZM266.981 65.3402V70.6147H266.079V65.3402H266.981ZM270.315 65.3402V70.6147H269.408V65.3402H270.315ZM271.524 68.036V67.9239C271.524 67.5436 271.579 67.191 271.69 66.866C271.8 66.5378 271.96 66.2534 272.168 66.0129C272.376 65.7692 272.627 65.5807 272.923 65.4474C273.219 65.311 273.55 65.2427 273.918 65.2427C274.288 65.2427 274.621 65.311 274.917 65.4474C275.216 65.5807 275.469 65.7692 275.677 66.0129C275.889 66.2534 276.049 66.5378 276.16 66.866C276.27 67.191 276.326 67.5436 276.326 67.9239V68.036C276.326 68.4162 276.27 68.7688 276.16 69.0938C276.049 69.4188 275.889 69.7032 275.677 69.9469C275.469 70.1874 275.218 70.3759 274.922 70.5124C274.629 70.6456 274.298 70.7122 273.927 70.7122C273.557 70.7122 273.224 70.6456 272.928 70.5124C272.632 70.3759 272.379 70.1874 272.168 69.9469C271.96 69.7032 271.8 69.4188 271.69 69.0938C271.579 68.7688 271.524 68.4162 271.524 68.036ZM272.426 67.9239V68.036C272.426 68.2992 272.457 68.5478 272.519 68.7818C272.58 69.0126 272.673 69.2173 272.796 69.396C272.923 69.5748 273.081 69.7162 273.269 69.8202C273.458 69.9209 273.677 69.9713 273.927 69.9713C274.174 69.9713 274.39 69.9209 274.576 69.8202C274.764 69.7162 274.92 69.5748 275.044 69.396C275.167 69.2173 275.26 69.0126 275.322 68.7818C275.387 68.5478 275.419 68.2992 275.419 68.036V67.9239C275.419 67.6639 275.387 67.4185 275.322 67.1878C275.26 66.9538 275.166 66.7474 275.039 66.5687C274.915 66.3867 274.759 66.2437 274.571 66.1397C274.386 66.0357 274.168 65.9837 273.918 65.9837C273.671 65.9837 273.453 66.0357 273.264 66.1397C273.079 66.2437 272.923 66.3867 272.796 66.5687C272.673 66.7474 272.58 66.9538 272.519 67.1878C272.457 67.4185 272.426 67.6639 272.426 67.9239ZM280.903 65.3402V66.086H278.354V65.3402H280.903ZM281.698 65.3402V70.6147H280.796V65.3402H281.698ZM278.134 65.3402H279.041L278.905 67.8849C278.882 68.2781 278.844 68.6258 278.792 68.9281C278.744 69.2271 278.675 69.4838 278.588 69.6983C278.503 69.9128 278.396 70.0883 278.266 70.2248C278.139 70.358 277.986 70.4571 277.808 70.5221C277.629 70.5839 277.423 70.6147 277.189 70.6147H276.906V69.8202L277.101 69.8055C277.241 69.7958 277.359 69.7633 277.457 69.708C277.557 69.6528 277.642 69.5715 277.71 69.4643C277.778 69.3538 277.834 69.2124 277.876 69.0402C277.921 68.8679 277.956 68.6632 277.978 68.426C278.004 68.1887 278.024 67.9125 278.037 67.5972L278.134 65.3402ZM284.632 70.0688L286.1 65.3402H287.065L284.949 71.4288C284.901 71.5588 284.836 71.6986 284.754 71.8481C284.676 72.0008 284.576 72.1454 284.452 72.2819C284.329 72.4184 284.179 72.5289 284.004 72.6134C283.831 72.7012 283.625 72.745 283.384 72.745C283.313 72.745 283.222 72.7353 283.111 72.7158C283.001 72.6963 282.923 72.68 282.877 72.667L282.873 71.9358C282.899 71.9391 282.939 71.9423 282.994 71.9456C283.053 71.9521 283.094 71.9553 283.116 71.9553C283.321 71.9553 283.495 71.9277 283.638 71.8724C283.781 71.8204 283.901 71.7311 283.999 71.6043C284.099 71.4808 284.186 71.3102 284.257 71.0925L284.632 70.0688ZM283.555 65.3402L284.925 69.435L285.159 70.3856L284.511 70.7171L282.57 65.3402H283.555ZM291.857 65.3402V70.6147H290.955V65.3402H291.857ZM291.55 67.763V68.504C291.368 68.5722 291.183 68.6339 290.994 68.6892C290.809 68.7412 290.612 68.7834 290.404 68.8159C290.199 68.8452 289.977 68.8598 289.736 68.8598C289.32 68.8598 288.96 68.7883 288.654 68.6453C288.349 68.4991 288.113 68.2797 287.947 67.9872C287.782 67.6915 287.699 67.3194 287.699 66.8709V65.3305H288.601V66.8709C288.601 67.1634 288.644 67.4006 288.732 67.5826C288.82 67.7646 288.948 67.8995 289.117 67.9872C289.286 68.0717 289.493 68.114 289.736 68.114C289.97 68.114 290.19 68.0993 290.394 68.0701C290.602 68.0376 290.801 67.9953 290.989 67.9434C291.181 67.8914 291.368 67.8312 291.55 67.763ZM294.285 69.1864L296.717 65.3402H297.624V70.6147H296.717V66.7685L294.285 70.6147H293.388V65.3402H294.285V69.1864ZM301.221 65.3402V70.6147H300.315V65.3402H301.221ZM302.991 65.3402V66.0714H298.579V65.3402H302.991ZM304.619 67.1536H306.203C306.629 67.1536 306.988 67.2284 307.281 67.3779C307.573 67.5241 307.794 67.7272 307.944 67.9872C308.096 68.244 308.173 68.5365 308.173 68.8647C308.173 69.1084 308.131 69.3375 308.046 69.552C307.962 69.7633 307.835 69.9485 307.666 70.1078C307.5 70.267 307.294 70.3921 307.047 70.4831C306.803 70.5709 306.522 70.6147 306.203 70.6147H303.961V65.3402H304.863V69.8738H306.203C306.463 69.8738 306.671 69.8267 306.827 69.7324C306.983 69.6382 307.096 69.5163 307.164 69.3668C307.232 69.2173 307.266 69.0613 307.266 68.8988C307.266 68.7396 307.232 68.5836 307.164 68.4308C307.096 68.2781 306.983 68.1513 306.827 68.0506C306.671 67.9466 306.463 67.8946 306.203 67.8946H304.619V67.1536ZM312.726 65.3402H313.628L313.55 67.3145C313.53 67.815 313.473 68.2472 313.379 68.6112C313.285 68.9752 313.165 69.2855 313.018 69.5423C312.872 69.7958 312.708 70.0086 312.526 70.1809C312.347 70.3531 312.162 70.4978 311.97 70.6147H311.522L311.546 69.8787L311.731 69.8738C311.839 69.747 311.943 69.617 312.043 69.4838C312.144 69.3473 312.237 69.1864 312.321 69.0012C312.406 68.8127 312.476 68.5836 312.531 68.3138C312.589 68.0408 312.627 67.7077 312.643 67.3145L312.726 65.3402ZM312.95 65.3402H316.124V70.6147H315.222V66.1738H312.95V65.3402ZM311.317 69.8738H316.801V72.1698H315.899V70.6147H312.219V72.1698H311.312L311.317 69.8738ZM317.562 68.036V67.9239C317.562 67.5436 317.617 67.191 317.727 66.866C317.838 66.5378 317.997 66.2534 318.205 66.0129C318.413 65.7692 318.665 65.5807 318.961 65.4474C319.257 65.311 319.588 65.2427 319.955 65.2427C320.326 65.2427 320.659 65.311 320.955 65.4474C321.254 65.5807 321.507 65.7692 321.715 66.0129C321.926 66.2534 322.087 66.5378 322.198 66.866C322.308 67.191 322.363 67.5436 322.363 67.9239V68.036C322.363 68.4162 322.308 68.7688 322.198 69.0938C322.087 69.4188 321.926 69.7032 321.715 69.9469C321.507 70.1874 321.255 70.3759 320.959 70.5124C320.667 70.6456 320.335 70.7122 319.965 70.7122C319.595 70.7122 319.261 70.6456 318.966 70.5124C318.67 70.3759 318.416 70.1874 318.205 69.9469C317.997 69.7032 317.838 69.4188 317.727 69.0938C317.617 68.7688 317.562 68.4162 317.562 68.036ZM318.464 67.9239V68.036C318.464 68.2992 318.494 68.5478 318.556 68.7818C318.618 69.0126 318.711 69.2173 318.834 69.396C318.961 69.5748 319.118 69.7162 319.307 69.8202C319.495 69.9209 319.715 69.9713 319.965 69.9713C320.212 69.9713 320.428 69.9209 320.613 69.8202C320.802 69.7162 320.958 69.5748 321.081 69.396C321.205 69.2173 321.297 69.0126 321.359 68.7818C321.424 68.5478 321.457 68.2992 321.457 68.036V67.9239C321.457 67.6639 321.424 67.4185 321.359 67.1878C321.297 66.9538 321.203 66.7474 321.076 66.5687C320.953 66.3867 320.797 66.2437 320.608 66.1397C320.423 66.0357 320.206 65.9837 319.955 65.9837C319.708 65.9837 319.491 66.0357 319.302 66.1397C319.117 66.2437 318.961 66.3867 318.834 66.5687C318.711 66.7474 318.618 66.9538 318.556 67.1878C318.494 67.4185 318.464 67.6639 318.464 67.9239ZM325.605 69.9713C325.82 69.9713 326.018 69.9274 326.2 69.8397C326.382 69.7519 326.531 69.6317 326.648 69.4789C326.765 69.3229 326.832 69.1458 326.848 68.9476H327.706C327.69 69.2595 327.584 69.5504 327.389 69.8202C327.198 70.0866 326.946 70.3028 326.634 70.4685C326.322 70.631 325.979 70.7122 325.605 70.7122C325.209 70.7122 324.863 70.6424 324.567 70.5026C324.274 70.3629 324.031 70.1711 323.836 69.9274C323.644 69.6837 323.499 69.4042 323.402 69.0889C323.307 68.7704 323.26 68.4341 323.26 68.0798V67.8751C323.26 67.5209 323.307 67.1861 323.402 66.8709C323.499 66.5524 323.644 66.2713 323.836 66.0276C324.031 65.7838 324.274 65.5921 324.567 65.4523C324.863 65.3126 325.209 65.2427 325.605 65.2427C326.018 65.2427 326.379 65.3272 326.687 65.4962C326.996 65.6619 327.238 65.8894 327.414 66.1787C327.592 66.4647 327.69 66.7896 327.706 67.1536H326.848C326.832 66.9359 326.77 66.7393 326.663 66.5638C326.559 66.3883 326.416 66.2485 326.234 66.1445C326.055 66.0373 325.846 65.9837 325.605 65.9837C325.329 65.9837 325.097 66.0389 324.908 66.1494C324.723 66.2567 324.575 66.4029 324.464 66.5882C324.357 66.7701 324.279 66.9733 324.23 67.1975C324.185 67.4185 324.162 67.6444 324.162 67.8751V68.0798C324.162 68.3106 324.185 68.5381 324.23 68.7623C324.276 68.9866 324.352 69.1897 324.46 69.3717C324.57 69.5537 324.718 69.6999 324.903 69.8104C325.092 69.9176 325.326 69.9713 325.605 69.9713ZM330.87 65.3402V70.6147H329.963V65.3402H330.87ZM332.639 65.3402V66.0714H328.228V65.3402H332.639ZM335.067 70.0688L336.534 65.3402H337.5L335.384 71.4288C335.335 71.5588 335.27 71.6986 335.189 71.8481C335.111 72.0008 335.01 72.1454 334.887 72.2819C334.763 72.4184 334.614 72.5289 334.438 72.6134C334.266 72.7012 334.06 72.745 333.819 72.745C333.748 72.745 333.657 72.7353 333.546 72.7158C333.436 72.6963 333.358 72.68 333.312 72.667L333.307 71.9358C333.333 71.9391 333.374 71.9423 333.429 71.9456C333.488 71.9521 333.528 71.9553 333.551 71.9553C333.756 71.9553 333.93 71.9277 334.073 71.8724C334.216 71.8204 334.336 71.7311 334.433 71.6043C334.534 71.4808 334.62 71.3102 334.692 71.0925L335.067 70.0688ZM333.99 65.3402L335.36 69.435L335.594 70.3856L334.945 70.7171L333.005 65.3402H333.99ZM341.829 65.3402V66.086H339.162V65.3402H341.829ZM339.294 65.3402V70.6147H338.392V65.3402H339.294ZM342.628 65.3402V70.6147H341.721V65.3402H342.628ZM20.2082 78.3402V83.6147H19.3064V78.3402H20.2082ZM23.6693 78.3402L21.1685 81.3626H19.906L19.7695 80.5729H20.8029L22.5725 78.3402H23.6693ZM22.6992 83.6147L20.7591 81.2261L21.3392 80.5729L23.8448 83.6147H22.6992ZM29.8701 77.1459L27.5204 83.6147H26.5601L29.2656 76.517H29.8847L29.8701 77.1459ZM31.8395 83.6147L29.485 77.1459L29.4703 76.517H30.0894L32.8047 83.6147H31.8395ZM31.7176 80.9872V81.7574H27.73V80.9872H31.7176ZM36.3731 80.8312H34.4768V80.0659H36.3731C36.7403 80.0659 37.0377 80.0074 37.2652 79.8904C37.4926 79.7734 37.6584 79.6109 37.7624 79.4029C37.8696 79.1949 37.9233 78.9577 37.9233 78.6912C37.9233 78.4474 37.8696 78.2183 37.7624 78.0038C37.6584 77.7894 37.4926 77.6171 37.2652 77.4871C37.0377 77.3539 36.7403 77.2872 36.3731 77.2872H34.6961V83.6147H33.7553V76.517H36.3731C36.9093 76.517 37.3626 76.6096 37.7331 76.7949C38.1036 76.9801 38.3847 77.2369 38.5765 77.5651C38.7682 77.8901 38.8641 78.2622 38.8641 78.6814C38.8641 79.1364 38.7682 79.5248 38.5765 79.8465C38.3847 80.1683 38.1036 80.4136 37.7331 80.5826C37.3626 80.7484 36.9093 80.8312 36.3731 80.8312ZM41.0626 76.517V83.6147H40.1218V76.517H41.0626ZM47.59 81.2943H45.8594L45.8497 80.5729H47.2634C47.5429 80.5729 47.7752 80.5452 47.9605 80.49C48.149 80.4347 48.2903 80.3519 48.3846 80.2414C48.4788 80.1309 48.526 79.9944 48.526 79.8319C48.526 79.7052 48.4983 79.5947 48.4431 79.5004C48.3911 79.4029 48.3115 79.3233 48.2042 79.2615C48.097 79.1965 47.9637 79.1494 47.8045 79.1202C47.6485 79.0877 47.4649 79.0714 47.2536 79.0714H46.0983V83.6147H45.1965V78.3402H47.2536C47.5884 78.3402 47.889 78.3695 48.1555 78.428C48.4252 78.4864 48.6543 78.5758 48.8428 78.6961C49.0346 78.8131 49.1808 78.9626 49.2816 79.1445C49.3823 79.3265 49.4327 79.541 49.4327 79.788C49.4327 79.9473 49.4002 80.0984 49.3352 80.2414C49.2702 80.3844 49.1743 80.5111 49.0476 80.6216C48.9208 80.7321 48.7648 80.8231 48.5796 80.8946C48.3943 80.9629 48.1815 81.0067 47.941 81.0262L47.59 81.2943ZM47.59 83.6147H45.5328L45.9813 82.8835H47.59C47.8402 82.8835 48.0482 82.8527 48.214 82.7909C48.3797 82.7259 48.5032 82.6349 48.5845 82.5179C48.669 82.3977 48.7112 82.2547 48.7112 82.0889C48.7112 81.9232 48.669 81.7818 48.5845 81.6648C48.5032 81.5446 48.3797 81.4536 48.214 81.3918C48.0482 81.3268 47.8402 81.2943 47.59 81.2943H46.2202L46.2299 80.5729H47.941L48.2676 80.8459C48.5568 80.8686 48.8022 80.9401 49.0037 81.0603C49.2052 81.1806 49.3579 81.3333 49.4619 81.5186C49.5659 81.7006 49.6179 81.8988 49.6179 82.1133C49.6179 82.3603 49.5708 82.578 49.4765 82.7665C49.3855 82.955 49.2523 83.1126 49.0768 83.2394C48.9013 83.3629 48.6885 83.4571 48.4382 83.5221C48.188 83.5839 47.9052 83.6147 47.59 83.6147ZM53.937 82.7129V79.9976C53.937 79.7896 53.8947 79.6093 53.8102 79.4565C53.729 79.3005 53.6055 79.1803 53.4398 79.0958C53.274 79.0113 53.0693 78.9691 52.8255 78.9691C52.598 78.9691 52.3982 79.0081 52.2259 79.086C52.0569 79.164 51.9237 79.2664 51.8262 79.3932C51.732 79.5199 51.6848 79.6564 51.6848 79.8026H50.783C50.783 79.6142 50.8317 79.4273 50.9292 79.242C51.0267 79.0568 51.1665 78.8894 51.3485 78.7399C51.5337 78.5872 51.7547 78.4669 52.0114 78.3792C52.2714 78.2882 52.5607 78.2427 52.8792 78.2427C53.2626 78.2427 53.6006 78.3077 53.8931 78.4377C54.1889 78.5677 54.4196 78.7643 54.5853 79.0276C54.7543 79.2875 54.8388 79.6142 54.8388 80.0074V82.4643C54.8388 82.6398 54.8535 82.8267 54.8827 83.0249C54.9152 83.2231 54.9623 83.3938 55.0241 83.5367V83.6147H54.0832C54.0377 83.5108 54.002 83.3726 53.976 83.2004C53.95 83.0249 53.937 82.8624 53.937 82.7129ZM54.093 80.4169L54.1027 81.0506H53.1911C52.9344 81.0506 52.7053 81.0717 52.5038 81.114C52.3023 81.153 52.1333 81.2131 51.9968 81.2943C51.8603 81.3756 51.7563 81.478 51.6848 81.6015C51.6133 81.7217 51.5776 81.8631 51.5776 82.0256C51.5776 82.1913 51.615 82.3424 51.6897 82.4789C51.7645 82.6154 51.8766 82.7243 52.0261 82.8055C52.1788 82.8835 52.3657 82.9225 52.5867 82.9225C52.8629 82.9225 53.1067 82.864 53.3179 82.747C53.5291 82.63 53.6965 82.487 53.82 82.318C53.9467 82.1491 54.015 81.9849 54.0247 81.8257L54.4099 82.2595C54.3871 82.396 54.3254 82.5472 54.2246 82.7129C54.1239 82.8787 53.989 83.0379 53.82 83.1906C53.6543 83.3401 53.456 83.4653 53.2253 83.566C52.9978 83.6635 52.741 83.7122 52.4551 83.7122C52.0976 83.7122 51.784 83.6424 51.5142 83.5026C51.2477 83.3629 51.0397 83.176 50.8902 82.942C50.744 82.7048 50.6709 82.4399 50.6709 82.1474C50.6709 81.8647 50.7261 81.6161 50.8366 81.4016C50.9471 81.1838 51.1064 81.0035 51.3143 80.8605C51.5223 80.7142 51.7726 80.6037 52.0651 80.529C52.3576 80.4542 52.6842 80.4169 53.0449 80.4169H54.093ZM56.3354 78.3402H57.2372V82.8738H59.1677V78.3402H60.0744V82.8738H61.9999V78.3402H62.9018V83.6147H56.3354V78.3402ZM66.5286 83.7122C66.1614 83.7122 65.8283 83.6505 65.5293 83.527C65.2335 83.4003 64.9784 83.2231 64.7639 82.9956C64.5527 82.7682 64.3902 82.4984 64.2765 82.1864C64.1627 81.8744 64.1058 81.5332 64.1058 81.1627V80.958C64.1058 80.529 64.1692 80.1471 64.296 79.8124C64.4227 79.4744 64.5949 79.1884 64.8127 78.9544C65.0304 78.7204 65.2774 78.5433 65.5537 78.4231C65.8299 78.3028 66.1159 78.2427 66.4116 78.2427C66.7886 78.2427 67.1136 78.3077 67.3866 78.4377C67.6628 78.5677 67.8887 78.7497 68.0642 78.9837C68.2397 79.2144 68.3697 79.4874 68.4542 79.8026C68.5387 80.1146 68.5809 80.4559 68.5809 80.8264V81.231H64.6421V80.4949H67.6791V80.4266C67.6661 80.1926 67.6173 79.9651 67.5328 79.7441C67.4516 79.5232 67.3216 79.3412 67.1428 79.1982C66.9641 79.0552 66.7204 78.9837 66.4116 78.9837C66.2069 78.9837 66.0184 79.0276 65.8461 79.1153C65.6739 79.1998 65.526 79.3265 65.4025 79.4955C65.279 79.6645 65.1832 79.8709 65.1149 80.1146C65.0467 80.3584 65.0126 80.6395 65.0126 80.958V81.1627C65.0126 81.413 65.0467 81.6486 65.1149 81.8696C65.1864 82.0873 65.2888 82.279 65.422 82.4448C65.5585 82.6105 65.7227 82.7405 65.9144 82.8348C66.1094 82.929 66.3304 82.9761 66.5774 82.9761C66.8959 82.9761 67.1656 82.9111 67.3866 82.7812C67.6076 82.6512 67.8009 82.4773 67.9667 82.2595L68.5127 82.6934C68.3989 82.8657 68.2543 83.0298 68.0788 83.1858C67.9033 83.3418 67.6872 83.4685 67.4305 83.566C67.177 83.6635 66.8764 83.7122 66.5286 83.7122ZM73.0414 78.3402V79.086H70.604V83.6147H69.7021V78.3402H73.0414ZM73.4898 81.036V80.9239C73.4898 80.5436 73.5451 80.191 73.6556 79.866C73.7661 79.5378 73.9253 79.2534 74.1333 79.0129C74.3413 78.7692 74.5932 78.5807 74.8889 78.4474C75.1847 78.311 75.5161 78.2427 75.8834 78.2427C76.2539 78.2427 76.587 78.311 76.8827 78.4474C77.1817 78.5807 77.4352 78.7692 77.6432 79.0129C77.8544 79.2534 78.0153 79.5378 78.1258 79.866C78.2363 80.191 78.2915 80.5436 78.2915 80.9239V81.036C78.2915 81.4162 78.2363 81.7688 78.1258 82.0938C78.0153 82.4188 77.8544 82.7032 77.6432 82.9469C77.4352 83.1874 77.1833 83.3759 76.8876 83.5124C76.5951 83.6456 76.2636 83.7122 75.8931 83.7122C75.5226 83.7122 75.1895 83.6456 74.8938 83.5124C74.5981 83.3759 74.3446 83.1874 74.1333 82.9469C73.9253 82.7032 73.7661 82.4188 73.6556 82.0938C73.5451 81.7688 73.4898 81.4162 73.4898 81.036ZM74.3917 80.9239V81.036C74.3917 81.2992 74.4226 81.5478 74.4843 81.7818C74.5461 82.0126 74.6387 82.2173 74.7622 82.396C74.8889 82.5748 75.0465 82.7162 75.235 82.8202C75.4235 82.9209 75.6429 82.9713 75.8931 82.9713C76.1401 82.9713 76.3562 82.9209 76.5415 82.8202C76.73 82.7162 76.886 82.5748 77.0095 82.396C77.133 82.2173 77.2256 82.0126 77.2873 81.7818C77.3523 81.5478 77.3848 81.2992 77.3848 81.036V80.9239C77.3848 80.6639 77.3523 80.4185 77.2873 80.1878C77.2256 79.9538 77.1313 79.7474 77.0046 79.5687C76.8811 79.3867 76.7251 79.2437 76.5366 79.1397C76.3514 79.0357 76.1336 78.9837 75.8834 78.9837C75.6364 78.9837 75.4186 79.0357 75.2302 79.1397C75.0449 79.2437 74.8889 79.3867 74.7622 79.5687C74.6387 79.7474 74.5461 79.9538 74.4843 80.1878C74.4226 80.4185 74.3917 80.6639 74.3917 80.9239ZM84.3265 82.5374L86.4178 76.517H87.4367L84.8092 83.6147H84.0828L84.3265 82.5374ZM82.3717 76.517L84.4435 82.5374L84.7019 83.6147H83.9756L81.3529 76.517H82.3717ZM89.333 76.517V83.6147H88.3921V76.517H89.333ZM93.6179 76.517L90.6687 79.827L89.0112 81.5478L88.8552 80.5436L90.1032 79.1689L92.487 76.517H93.6179ZM92.7112 83.6147L90.0837 80.1536L90.6443 79.4078L93.8324 83.6147H92.7112ZM99.7651 77.1459L97.4154 83.6147H96.4551L99.1606 76.517H99.7797L99.7651 77.1459ZM101.734 83.6147L99.38 77.1459L99.3653 76.517H99.9844L102.7 83.6147H101.734ZM101.613 80.9872V81.7574H97.625V80.9872H101.613ZM106.838 82.591V76.127H107.745V83.6147H106.916L106.838 82.591ZM103.29 81.036V80.9336C103.29 80.5306 103.338 80.165 103.436 79.8368C103.537 79.5053 103.678 79.2209 103.86 78.9837C104.045 78.7464 104.265 78.5644 104.518 78.4377C104.775 78.3077 105.061 78.2427 105.376 78.2427C105.707 78.2427 105.997 78.3012 106.244 78.4182C106.494 78.5319 106.705 78.6993 106.877 78.9203C107.053 79.138 107.191 79.4013 107.292 79.71C107.393 80.0188 107.462 80.3681 107.501 80.7581V81.2066C107.466 81.5933 107.396 81.9411 107.292 82.2498C107.191 82.5585 107.053 82.8218 106.877 83.0395C106.705 83.2573 106.494 83.4246 106.244 83.5416C105.993 83.6554 105.701 83.7122 105.366 83.7122C105.057 83.7122 104.775 83.6456 104.518 83.5124C104.265 83.3791 104.045 83.1923 103.86 82.9518C103.678 82.7113 103.537 82.4285 103.436 82.1036C103.338 81.7753 103.29 81.4195 103.29 81.036ZM104.196 80.9336V81.036C104.196 81.2992 104.222 81.5462 104.274 81.7769C104.33 82.0077 104.414 82.2108 104.528 82.3863C104.641 82.5618 104.786 82.6999 104.962 82.8007C105.137 82.8981 105.347 82.9469 105.59 82.9469C105.889 82.9469 106.135 82.8835 106.327 82.7568C106.522 82.63 106.678 82.4627 106.795 82.2547C106.912 82.0467 107.003 81.8208 107.068 81.5771V80.4022C107.029 80.2235 106.972 80.0513 106.897 79.8855C106.825 79.7165 106.731 79.567 106.614 79.437C106.5 79.3038 106.359 79.1982 106.19 79.1202C106.024 79.0422 105.828 79.0032 105.6 79.0032C105.353 79.0032 105.14 79.0552 104.962 79.1592C104.786 79.2599 104.641 79.3997 104.528 79.5784C104.414 79.7539 104.33 79.9586 104.274 80.1926C104.222 80.4234 104.196 80.6704 104.196 80.9336ZM112.22 82.2157C112.22 82.0857 112.191 81.9654 112.132 81.8549C112.077 81.7412 111.962 81.6388 111.786 81.5478C111.614 81.4536 111.354 81.3723 111.006 81.3041C110.714 81.2423 110.449 81.1692 110.212 81.0847C109.978 81.0002 109.778 80.8979 109.612 80.7776C109.45 80.6574 109.325 80.516 109.237 80.3535C109.149 80.191 109.105 80.0009 109.105 79.7831C109.105 79.5752 109.151 79.3785 109.242 79.1933C109.336 79.0081 109.468 78.8439 109.637 78.7009C109.809 78.5579 110.015 78.4458 110.256 78.3646C110.496 78.2833 110.764 78.2427 111.06 78.2427C111.482 78.2427 111.843 78.3175 112.142 78.4669C112.441 78.6164 112.67 78.8163 112.83 79.0666C112.989 79.3135 113.068 79.5882 113.068 79.8904H112.167C112.167 79.7441 112.123 79.6028 112.035 79.4663C111.95 79.3265 111.825 79.2112 111.66 79.1202C111.497 79.0292 111.297 78.9837 111.06 78.9837C110.81 78.9837 110.607 79.0227 110.451 79.1007C110.298 79.1754 110.186 79.2713 110.114 79.3883C110.046 79.5053 110.012 79.6288 110.012 79.7588C110.012 79.8563 110.028 79.944 110.061 80.022C110.096 80.0968 110.158 80.1666 110.246 80.2316C110.334 80.2934 110.457 80.3519 110.616 80.4071C110.776 80.4624 110.979 80.5176 111.226 80.5729C111.658 80.6704 112.014 80.7874 112.293 80.9239C112.573 81.0603 112.781 81.2277 112.917 81.426C113.054 81.6242 113.122 81.8647 113.122 82.1474C113.122 82.3782 113.073 82.5894 112.976 82.7812C112.882 82.9729 112.743 83.1386 112.561 83.2784C112.383 83.4149 112.168 83.5221 111.918 83.6001C111.671 83.6749 111.393 83.7122 111.084 83.7122C110.62 83.7122 110.226 83.6294 109.905 83.4636C109.583 83.2979 109.339 83.0834 109.173 82.8202C109.008 82.5569 108.925 82.279 108.925 81.9866H109.832C109.845 82.2336 109.916 82.4302 110.046 82.5764C110.176 82.7194 110.335 82.8218 110.524 82.8835C110.712 82.942 110.899 82.9713 111.084 82.9713C111.331 82.9713 111.538 82.9388 111.703 82.8738C111.872 82.8088 112.001 82.7194 112.089 82.6057C112.176 82.4919 112.22 82.3619 112.22 82.2157ZM114.321 83.137C114.321 82.9843 114.368 82.8559 114.463 82.7519C114.56 82.6447 114.7 82.591 114.882 82.591C115.064 82.591 115.202 82.6447 115.296 82.7519C115.394 82.8559 115.442 82.9843 115.442 83.137C115.442 83.2865 115.394 83.4133 115.296 83.5172C115.202 83.6212 115.064 83.6732 114.882 83.6732C114.7 83.6732 114.56 83.6212 114.463 83.5172C114.368 83.4133 114.321 83.2865 114.321 83.137Z" fill="#333333"/>
<g filter="url(#filter0_d_57_16381)">
<rect x="18.541" y="101.59" width="344" height="28.5492" rx="3.56557" fill="#6695E2"/>
<path d="M149.704 116.361H147.857V115.391H149.704C150.026 115.391 150.286 115.339 150.484 115.235C150.683 115.131 150.827 114.988 150.918 114.806C151.012 114.621 151.06 114.41 151.06 114.172C151.06 113.948 151.012 113.739 150.918 113.544C150.827 113.345 150.683 113.186 150.484 113.066C150.286 112.946 150.026 112.885 149.704 112.885H148.232V119.008H147.009V111.91H149.704C150.254 111.91 150.72 112.008 151.103 112.203C151.49 112.395 151.784 112.661 151.986 113.002C152.187 113.34 152.288 113.727 152.288 114.163C152.288 114.621 152.187 115.014 151.986 115.342C151.784 115.671 151.49 115.922 151.103 116.098C150.72 116.273 150.254 116.361 149.704 116.361ZM156.183 117.95V115.435C156.183 115.246 156.149 115.084 156.081 114.947C156.012 114.811 155.908 114.705 155.769 114.631C155.632 114.556 155.46 114.518 155.252 114.518C155.06 114.518 154.894 114.551 154.755 114.616C154.615 114.681 154.506 114.769 154.428 114.879C154.35 114.99 154.311 115.115 154.311 115.255H153.141C153.141 115.047 153.191 114.845 153.292 114.65C153.393 114.455 153.539 114.281 153.731 114.128C153.923 113.976 154.152 113.856 154.418 113.768C154.685 113.68 154.984 113.636 155.315 113.636C155.712 113.636 156.063 113.703 156.368 113.836C156.677 113.969 156.919 114.171 157.095 114.44C157.273 114.707 157.363 115.042 157.363 115.445V117.789C157.363 118.03 157.379 118.246 157.411 118.438C157.447 118.626 157.498 118.79 157.563 118.93V119.008H156.358C156.303 118.881 156.259 118.721 156.227 118.526C156.198 118.327 156.183 118.136 156.183 117.95ZM156.354 115.801L156.363 116.527H155.52C155.302 116.527 155.111 116.548 154.945 116.59C154.779 116.629 154.641 116.688 154.53 116.766C154.42 116.844 154.337 116.938 154.282 117.049C154.227 117.159 154.199 117.284 154.199 117.424C154.199 117.564 154.231 117.692 154.296 117.809C154.361 117.923 154.456 118.012 154.579 118.077C154.706 118.142 154.859 118.175 155.037 118.175C155.278 118.175 155.488 118.126 155.666 118.028C155.848 117.928 155.991 117.806 156.095 117.663C156.199 117.516 156.254 117.378 156.261 117.248L156.641 117.77C156.602 117.903 156.536 118.046 156.441 118.199C156.347 118.352 156.224 118.498 156.071 118.638C155.921 118.774 155.741 118.886 155.53 118.974C155.322 119.062 155.081 119.106 154.808 119.106C154.464 119.106 154.157 119.037 153.887 118.901C153.617 118.761 153.406 118.574 153.253 118.34C153.1 118.103 153.024 117.835 153.024 117.536C153.024 117.256 153.076 117.01 153.18 116.795C153.287 116.577 153.443 116.395 153.648 116.249C153.856 116.103 154.11 115.992 154.409 115.918C154.708 115.84 155.049 115.801 155.432 115.801H156.354ZM160.775 116.488H159.761V115.893H160.58C160.788 115.893 160.954 115.866 161.077 115.81C161.204 115.755 161.293 115.679 161.345 115.581C161.401 115.48 161.428 115.363 161.428 115.23C161.428 115.113 161.401 115.003 161.345 114.899C161.293 114.791 161.204 114.704 161.077 114.635C160.951 114.567 160.778 114.533 160.561 114.533C160.382 114.533 160.221 114.562 160.078 114.621C159.938 114.679 159.828 114.761 159.746 114.865C159.665 114.969 159.625 115.089 159.625 115.225H158.45C158.45 114.897 158.542 114.614 158.728 114.377C158.916 114.14 159.168 113.958 159.483 113.831C159.798 113.704 160.145 113.641 160.522 113.641C160.843 113.641 161.133 113.675 161.389 113.743C161.646 113.808 161.864 113.906 162.043 114.036C162.224 114.163 162.363 114.322 162.457 114.514C162.554 114.702 162.603 114.921 162.603 115.172C162.603 115.35 162.561 115.519 162.476 115.679C162.392 115.838 162.27 115.979 162.111 116.103C161.952 116.223 161.758 116.317 161.531 116.386C161.306 116.454 161.055 116.488 160.775 116.488ZM159.761 116.147H160.775C161.087 116.147 161.363 116.178 161.604 116.239C161.844 116.298 162.046 116.386 162.208 116.503C162.371 116.62 162.493 116.764 162.574 116.936C162.658 117.105 162.701 117.3 162.701 117.521C162.701 117.768 162.647 117.991 162.54 118.189C162.436 118.384 162.286 118.55 162.091 118.686C161.9 118.823 161.67 118.927 161.404 118.998C161.137 119.07 160.843 119.106 160.522 119.106C160.171 119.106 159.829 119.047 159.498 118.93C159.17 118.813 158.898 118.633 158.684 118.389C158.473 118.142 158.367 117.828 158.367 117.448H159.542C159.542 117.581 159.582 117.707 159.664 117.824C159.745 117.941 159.862 118.036 160.015 118.111C160.167 118.183 160.351 118.218 160.565 118.218C160.786 118.218 160.967 118.184 161.107 118.116C161.246 118.045 161.35 117.952 161.419 117.838C161.487 117.721 161.521 117.598 161.521 117.468C161.521 117.292 161.487 117.151 161.419 117.044C161.35 116.936 161.246 116.858 161.107 116.81C160.967 116.758 160.791 116.732 160.58 116.732H159.761V116.147ZM164.88 114.748V121.036H163.705V113.734H164.787L164.88 114.748ZM168.316 116.322V116.425C168.316 116.808 168.271 117.164 168.18 117.492C168.092 117.817 167.961 118.101 167.785 118.345C167.613 118.586 167.4 118.773 167.146 118.906C166.893 119.039 166.6 119.106 166.269 119.106C165.941 119.106 165.653 119.046 165.406 118.925C165.162 118.802 164.956 118.628 164.787 118.404C164.618 118.179 164.482 117.916 164.378 117.614C164.277 117.308 164.205 116.974 164.163 116.61V116.215C164.205 115.828 164.277 115.477 164.378 115.162C164.482 114.847 164.618 114.575 164.787 114.348C164.956 114.12 165.162 113.945 165.406 113.821C165.65 113.698 165.934 113.636 166.259 113.636C166.591 113.636 166.885 113.701 167.142 113.831C167.398 113.958 167.614 114.14 167.79 114.377C167.965 114.611 168.097 114.894 168.185 115.225C168.273 115.554 168.316 115.919 168.316 116.322ZM167.142 116.425V116.322C167.142 116.078 167.119 115.853 167.073 115.645C167.028 115.433 166.956 115.248 166.859 115.089C166.761 114.93 166.636 114.806 166.483 114.718C166.334 114.627 166.154 114.582 165.942 114.582C165.734 114.582 165.556 114.618 165.406 114.689C165.257 114.757 165.132 114.853 165.031 114.977C164.93 115.1 164.852 115.245 164.797 115.411C164.742 115.573 164.703 115.75 164.68 115.942V116.888C164.719 117.122 164.785 117.336 164.88 117.531C164.974 117.726 165.107 117.882 165.279 117.999C165.455 118.113 165.679 118.17 165.952 118.17C166.163 118.17 166.344 118.124 166.493 118.033C166.643 117.942 166.765 117.817 166.859 117.658C166.956 117.495 167.028 117.308 167.073 117.097C167.119 116.886 167.142 116.662 167.142 116.425ZM171.641 119.106C171.251 119.106 170.898 119.042 170.583 118.916C170.271 118.786 170.005 118.605 169.784 118.374C169.566 118.144 169.399 117.872 169.282 117.56C169.165 117.248 169.106 116.912 169.106 116.551V116.356C169.106 115.944 169.166 115.57 169.286 115.235C169.407 114.9 169.574 114.614 169.789 114.377C170.003 114.137 170.257 113.953 170.549 113.826C170.842 113.7 171.158 113.636 171.5 113.636C171.877 113.636 172.206 113.7 172.489 113.826C172.772 113.953 173.006 114.132 173.191 114.362C173.38 114.59 173.519 114.861 173.61 115.177C173.705 115.492 173.752 115.84 173.752 116.22V116.722H169.676V115.879H172.592V115.786C172.585 115.575 172.543 115.376 172.465 115.191C172.39 115.006 172.275 114.856 172.119 114.743C171.963 114.629 171.755 114.572 171.495 114.572C171.3 114.572 171.126 114.614 170.973 114.699C170.824 114.78 170.699 114.899 170.598 115.055C170.497 115.211 170.419 115.399 170.364 115.62C170.312 115.838 170.286 116.083 170.286 116.356V116.551C170.286 116.782 170.317 116.997 170.378 117.195C170.443 117.39 170.538 117.56 170.661 117.707C170.785 117.853 170.934 117.968 171.11 118.053C171.285 118.134 171.485 118.175 171.709 118.175C171.992 118.175 172.244 118.118 172.465 118.004C172.686 117.89 172.878 117.729 173.04 117.521L173.659 118.121C173.545 118.287 173.398 118.446 173.216 118.599C173.034 118.748 172.811 118.87 172.548 118.964C172.288 119.059 171.985 119.106 171.641 119.106ZM174.707 113.734H175.882V118.072H177.554V113.734H178.739V118.072H180.406V113.734H181.581V119.008H174.707V113.734ZM184.062 117.292L186.134 113.734H187.309V119.008H186.134V115.445L184.062 119.008H182.887V113.734H184.062V117.292ZM190.999 113.734V119.008H189.819V113.734H190.999ZM192.729 113.734V114.66H188.118V113.734H192.729ZM194.387 115.411H195.942C196.397 115.411 196.784 115.487 197.102 115.64C197.421 115.792 197.663 116.005 197.828 116.278C197.997 116.548 198.082 116.857 198.082 117.204C198.082 117.461 198.035 117.7 197.941 117.921C197.846 118.139 197.707 118.329 197.521 118.491C197.339 118.654 197.115 118.781 196.849 118.872C196.585 118.963 196.283 119.008 195.942 119.008H193.607V113.734H194.787V118.077H195.942C196.176 118.077 196.363 118.036 196.503 117.955C196.642 117.874 196.743 117.768 196.805 117.638C196.87 117.508 196.902 117.37 196.902 117.224C196.902 117.075 196.87 116.933 196.805 116.8C196.743 116.667 196.642 116.558 196.503 116.473C196.363 116.389 196.176 116.347 195.942 116.347H194.387V115.411ZM202.464 113.734H203.639L203.581 115.591C203.564 116.13 203.503 116.594 203.395 116.98C203.288 117.367 203.149 117.694 202.976 117.96C202.804 118.223 202.609 118.439 202.391 118.608C202.177 118.777 201.951 118.911 201.714 119.008H201.368V118.082L201.533 118.072C201.673 117.923 201.793 117.773 201.894 117.624C201.998 117.471 202.086 117.304 202.157 117.122C202.229 116.936 202.284 116.72 202.323 116.473C202.365 116.226 202.393 115.932 202.406 115.591L202.464 113.734ZM202.776 113.734H206.121V119.008H204.951V114.728H202.776V113.734ZM201.099 118.072H206.842V120.578H205.667V119.008H202.289V120.578H201.095L201.099 118.072ZM207.456 116.429V116.317C207.456 115.937 207.511 115.584 207.622 115.259C207.732 114.931 207.892 114.647 208.1 114.406C208.311 114.163 208.568 113.974 208.87 113.841C209.175 113.704 209.52 113.636 209.903 113.636C210.29 113.636 210.635 113.704 210.937 113.841C211.242 113.974 211.501 114.163 211.712 114.406C211.923 114.647 212.084 114.931 212.195 115.259C212.305 115.584 212.36 115.937 212.36 116.317V116.429C212.36 116.81 212.305 117.162 212.195 117.487C212.084 117.812 211.923 118.097 211.712 118.34C211.501 118.581 211.244 118.769 210.942 118.906C210.639 119.039 210.297 119.106 209.913 119.106C209.526 119.106 209.18 119.039 208.875 118.906C208.573 118.769 208.316 118.581 208.105 118.34C207.893 118.097 207.732 117.812 207.622 117.487C207.511 117.162 207.456 116.81 207.456 116.429ZM208.631 116.317V116.429C208.631 116.667 208.655 116.891 208.704 117.102C208.753 117.313 208.829 117.499 208.933 117.658C209.037 117.817 209.171 117.942 209.333 118.033C209.496 118.124 209.689 118.17 209.913 118.17C210.131 118.17 210.319 118.124 210.479 118.033C210.641 117.942 210.774 117.817 210.878 117.658C210.982 117.499 211.059 117.313 211.107 117.102C211.159 116.891 211.185 116.667 211.185 116.429V116.317C211.185 116.083 211.159 115.862 211.107 115.654C211.059 115.443 210.981 115.256 210.873 115.094C210.769 114.931 210.636 114.804 210.474 114.713C210.314 114.619 210.124 114.572 209.903 114.572C209.682 114.572 209.491 114.619 209.328 114.713C209.169 114.804 209.037 114.931 208.933 115.094C208.829 115.256 208.753 115.443 208.704 115.654C208.655 115.862 208.631 116.083 208.631 116.317ZM215.5 118.17C215.691 118.17 215.864 118.132 216.016 118.058C216.172 117.98 216.297 117.872 216.392 117.736C216.489 117.599 216.543 117.442 216.553 117.263H217.659C217.653 117.604 217.552 117.915 217.357 118.194C217.162 118.474 216.904 118.696 216.582 118.862C216.26 119.024 215.904 119.106 215.514 119.106C215.111 119.106 214.76 119.037 214.461 118.901C214.162 118.761 213.914 118.569 213.715 118.326C213.517 118.082 213.368 117.801 213.267 117.482C213.169 117.164 213.121 116.823 213.121 116.459V116.288C213.121 115.924 213.169 115.583 213.267 115.264C213.368 114.943 213.517 114.66 213.715 114.416C213.914 114.172 214.162 113.982 214.461 113.846C214.76 113.706 215.11 113.636 215.509 113.636C215.932 113.636 216.302 113.721 216.621 113.89C216.939 114.055 217.19 114.288 217.372 114.587C217.557 114.882 217.653 115.227 217.659 115.62H216.553C216.543 115.425 216.494 115.25 216.406 115.094C216.322 114.934 216.202 114.808 216.046 114.713C215.893 114.619 215.709 114.572 215.495 114.572C215.258 114.572 215.061 114.621 214.905 114.718C214.749 114.813 214.627 114.943 214.539 115.108C214.452 115.271 214.388 115.454 214.349 115.659C214.313 115.861 214.296 116.07 214.296 116.288V116.459C214.296 116.676 214.313 116.888 214.349 117.092C214.385 117.297 214.447 117.481 214.534 117.643C214.625 117.802 214.749 117.931 214.905 118.028C215.061 118.123 215.259 118.17 215.5 118.17ZM221.008 113.734V119.008H219.828V113.734H221.008ZM222.739 113.734V114.66H218.127V113.734H222.739ZM225.113 118.433L226.546 113.734H227.804L225.688 119.813C225.639 119.943 225.576 120.084 225.498 120.237C225.42 120.389 225.318 120.534 225.191 120.67C225.067 120.81 224.913 120.922 224.728 121.007C224.542 121.095 224.318 121.138 224.055 121.138C223.951 121.138 223.85 121.129 223.753 121.109C223.658 121.093 223.569 121.075 223.485 121.056L223.48 120.159C223.512 120.162 223.551 120.165 223.597 120.168C223.645 120.172 223.684 120.173 223.714 120.173C223.909 120.173 224.071 120.149 224.201 120.1C224.331 120.055 224.437 119.98 224.518 119.876C224.603 119.772 224.674 119.632 224.733 119.457L225.113 118.433ZM224.304 113.734L225.556 117.682L225.766 118.92L224.952 119.13L223.036 113.734H224.304ZM232.015 113.734V114.67H229.412V113.734H232.015ZM229.69 113.734V119.008H228.515V113.734H229.69ZM232.937 113.734V119.008H231.757V113.734H232.937Z" fill="white"/>
</g>
<defs>
<filter id="filter0_d_57_16381" x="7.84429" y="93.7459" width="365.393" height="49.9426" filterUnits="userSpaceOnUse" color-interpolation-filters="sRGB">
<feFlood flood-opacity="0" result="BackgroundImageFix"/>
<feColorMatrix in="SourceAlpha" type="matrix" values="0 0 0 0 0 0 0 0 0 0 0 0 0 0 0 0 0 0 127 0" result="hardAlpha"/>
<feOffset dy="2.85246"/>
<feGaussianBlur stdDeviation="5.34836"/>
<feComposite in2="hardAlpha" operator="out"/>
<feColorMatrix type="matrix" values="0 0 0 0 0.4 0 0 0 0 0.584314 0 0 0 0 0.886275 0 0 0 0.3 0"/>
<feBlend mode="normal" in2="BackgroundImageFix" result="effect1_dropShadow_57_16381"/>
<feBlend mode="normal" in="SourceGraphic" in2="effect1_dropShadow_57_16381" result="shape"/>
</filter>
</defs>
</svg>
