<svg width="28" height="28" viewBox="0 0 28 28" fill="none" xmlns="http://www.w3.org/2000/svg">
<path d="M4.00008 27.3337C5.83341 27.3337 7.33341 25.8337 7.33341 24.0003V12.3337C7.33341 10.5003 5.83341 9.00033 4.00008 9.00033C2.16675 9.00033 0.666748 10.5003 0.666748 12.3337V24.0003C0.666748 25.8337 2.16675 27.3337 4.00008 27.3337ZM20.6667 19.0003V24.0003C20.6667 25.8337 22.1667 27.3337 24.0001 27.3337C25.8334 27.3337 27.3334 25.8337 27.3334 24.0003V19.0003C27.3334 17.167 25.8334 15.667 24.0001 15.667C22.1667 15.667 20.6667 17.167 20.6667 19.0003ZM14.0001 27.3337C15.8334 27.3337 17.3334 25.8337 17.3334 24.0003V4.00033C17.3334 2.16699 15.8334 0.666992 14.0001 0.666992C12.1667 0.666992 10.6667 2.16699 10.6667 4.00033V24.0003C10.6667 25.8337 12.1667 27.3337 14.0001 27.3337Z" fill="#57B36E"/>
</svg>
