<svg width="404" height="148" viewBox="0 0 404 148" fill="none" xmlns="http://www.w3.org/2000/svg">
<rect width="380" height="148" rx="12.4084" fill="white"/>
<rect width="380" height="148" rx="12.4084" fill="#F4F8FD"/>
<circle cx="25.968" cy="56.1182" r="5.10944" fill="#E57575" stroke="#E57575" stroke-width="2.18976"/>
<path d="M40.999 59.3225V51.5874H45.8221V52.5921H42.166V54.7071H43.8958C44.4699 54.7071 44.9572 54.8003 45.3575 54.9866C45.7604 55.173 46.0676 55.4361 46.2791 55.776C46.4931 56.1159 46.6001 56.5163 46.6001 56.9771C46.6001 57.4378 46.4931 57.8445 46.2791 58.197C46.0676 58.5495 45.7604 58.8252 45.3575 59.0241C44.9572 59.2231 44.4699 59.3225 43.8958 59.3225H40.999ZM42.166 58.3405H43.8958C44.2282 58.3405 44.509 58.2751 44.7381 58.1441C44.9697 58.0132 45.1447 57.8432 45.2631 57.6342C45.3839 57.4253 45.4444 57.2012 45.4444 56.962C45.4444 56.6145 45.3109 56.3161 45.044 56.0668C44.7771 55.815 44.3944 55.6891 43.8958 55.6891H42.166V58.3405ZM50.3317 59.4396C49.7878 59.4396 49.3132 59.315 48.9078 59.0657C48.5024 58.8164 48.1877 58.4677 47.9636 58.0195C47.7395 57.5713 47.6274 57.0476 47.6274 56.4483C47.6274 55.8465 47.7395 55.3203 47.9636 54.8696C48.1877 54.4188 48.5024 54.0689 48.9078 53.8196C49.3132 53.5703 49.7878 53.4457 50.3317 53.4457C50.8755 53.4457 51.3502 53.5703 51.7556 53.8196C52.1609 54.0689 52.4757 54.4188 52.6998 54.8696C52.9239 55.3203 53.0359 55.8465 53.0359 56.4483C53.0359 57.0476 52.9239 57.5713 52.6998 58.0195C52.4757 58.4677 52.1609 58.8164 51.7556 59.0657C51.3502 59.315 50.8755 59.4396 50.3317 59.4396ZM50.3355 58.4916C50.688 58.4916 50.98 58.3984 51.2117 58.2121C51.4433 58.0258 51.6146 57.7778 51.7253 57.4681C51.8387 57.1584 51.8953 56.8172 51.8953 56.4445C51.8953 56.0744 51.8387 55.7345 51.7253 55.4248C51.6146 55.1125 51.4433 54.862 51.2117 54.6732C50.98 54.4843 50.688 54.3899 50.3355 54.3899C49.9804 54.3899 49.6858 54.4843 49.4517 54.6732C49.22 54.862 49.0475 55.1125 48.9342 55.4248C48.8234 55.7345 48.768 56.0744 48.768 56.4445C48.768 56.8172 48.8234 57.1584 48.9342 57.4681C49.0475 57.7778 49.22 58.0258 49.4517 58.2121C49.6858 58.3984 49.9804 58.4916 50.3355 58.4916ZM53.5977 54.4956V53.5212H58.4926V54.4956H56.6004V59.3225H55.4975V54.4956H53.5977ZM60.5368 55.5154H62.2213C62.9314 55.5154 63.4778 55.6917 63.8605 56.0442C64.2432 56.3967 64.4346 56.8512 64.4346 57.4076C64.4346 57.7702 64.349 58.0963 64.1778 58.3858C64.0065 58.6754 63.756 58.9045 63.4262 59.0732C63.0963 59.2394 62.6947 59.3225 62.2213 59.3225H59.687V53.5212H60.7937V58.3481H62.2213C62.5461 58.3481 62.813 58.2637 63.022 58.095C63.231 57.9238 63.3355 57.706 63.3355 57.4416C63.3355 57.1621 63.231 56.9343 63.022 56.758C62.813 56.5792 62.5461 56.4898 62.2213 56.4898H60.5368V55.5154ZM65.258 59.3225V53.5212H66.3872V59.3225H65.258Z" fill="black"/>
<circle opacity="0.8" cx="25.968" cy="77.3899" r="6.20432" fill="#616B89"/>
<path d="M47.0458 73.4505V81.1855H45.8825V74.4476H42.2416V81.1855H41.0783V73.4505H47.0458ZM51.1834 81.3026C50.6395 81.3026 50.1649 81.178 49.7595 80.9287C49.3541 80.6794 49.0393 80.3307 48.8153 79.8825C48.5912 79.4343 48.4791 78.9106 48.4791 78.3113C48.4791 77.7095 48.5912 77.1833 48.8153 76.7326C49.0393 76.2819 49.3541 75.9319 49.7595 75.6826C50.1649 75.4333 50.6395 75.3087 51.1834 75.3087C51.7272 75.3087 52.2019 75.4333 52.6073 75.6826C53.0126 75.9319 53.3274 76.2819 53.5515 76.7326C53.7756 77.1833 53.8876 77.7095 53.8876 78.3113C53.8876 78.9106 53.7756 79.4343 53.5515 79.8825C53.3274 80.3307 53.0126 80.6794 52.6073 80.9287C52.2019 81.178 51.7272 81.3026 51.1834 81.3026ZM51.1871 80.3546C51.5396 80.3546 51.8317 80.2615 52.0634 80.0751C52.295 79.8888 52.4662 79.6408 52.577 79.3311C52.6903 79.0214 52.747 78.6802 52.747 78.3076C52.747 77.9374 52.6903 77.5975 52.577 77.2878C52.4662 76.9756 52.295 76.725 52.0634 76.5362C51.8317 76.3473 51.5396 76.2529 51.1871 76.2529C50.8321 76.2529 50.5375 76.3473 50.3033 76.5362C50.0717 76.725 49.8992 76.9756 49.7859 77.2878C49.6751 77.5975 49.6197 77.9374 49.6197 78.3076C49.6197 78.6802 49.6751 79.0214 49.7859 79.3311C49.8992 79.6408 50.0717 79.8888 50.3033 80.0751C50.5375 80.2615 50.8321 80.3546 51.1871 80.3546ZM54.5816 82.8587V80.2073H55.0537C55.1746 80.0965 55.2766 79.9644 55.3597 79.8108C55.4453 79.6572 55.517 79.4746 55.5749 79.2631C55.6354 79.0516 55.6857 78.8048 55.726 78.5228C55.7663 78.2383 55.8016 77.9135 55.8318 77.5484L56.0131 75.3842H59.9561V80.2073H60.8475V82.8587H59.7446V81.1855H55.6996V82.8587H54.5816ZM56.2623 80.2073H58.8533V76.3511H57.0253L56.9044 77.5484C56.8465 78.1577 56.7735 78.6865 56.6854 79.1347C56.5972 79.5804 56.4562 79.9379 56.2623 80.2073ZM64.3949 81.3026C63.8511 81.3026 63.3764 81.178 62.971 80.9287C62.5657 80.6794 62.2509 80.3307 62.0268 79.8825C61.8027 79.4343 61.6907 78.9106 61.6907 78.3113C61.6907 77.7095 61.8027 77.1833 62.0268 76.7326C62.2509 76.2819 62.5657 75.9319 62.971 75.6826C63.3764 75.4333 63.8511 75.3087 64.3949 75.3087C64.9388 75.3087 65.4134 75.4333 65.8188 75.6826C66.2242 75.9319 66.539 76.2819 66.763 76.7326C66.9871 77.1833 67.0992 77.7095 67.0992 78.3113C67.0992 78.9106 66.9871 79.4343 66.763 79.8825C66.539 80.3307 66.2242 80.6794 65.8188 80.9287C65.4134 81.178 64.9388 81.3026 64.3949 81.3026ZM64.3987 80.3546C64.7512 80.3546 65.0433 80.2615 65.275 80.0751C65.5066 79.8888 65.6778 79.6408 65.7886 79.3311C65.9019 79.0214 65.9586 78.6802 65.9586 78.3076C65.9586 77.9374 65.9019 77.5975 65.7886 77.2878C65.6778 76.9756 65.5066 76.725 65.275 76.5362C65.0433 76.3473 64.7512 76.2529 64.3987 76.2529C64.0437 76.2529 63.7491 76.3473 63.5149 76.5362C63.2833 76.725 63.1108 76.9756 62.9975 77.2878C62.8867 77.5975 62.8313 77.9374 62.8313 78.3076C62.8313 78.6802 62.8867 79.0214 62.9975 79.3311C63.1108 79.6408 63.2833 79.8888 63.5149 80.0751C63.7491 80.2615 64.0437 80.3546 64.3987 80.3546ZM68.016 79.6521H69.1718C69.1869 79.8888 69.2939 80.0714 69.4928 80.1998C69.6942 80.3282 69.9548 80.3924 70.2746 80.3924C70.5994 80.3924 70.8764 80.3232 71.1055 80.1847C71.3347 80.0437 71.4492 79.8259 71.4492 79.5313C71.4492 79.355 71.4052 79.2014 71.317 79.0705C71.2314 78.937 71.1093 78.8338 70.9507 78.7608C70.7946 78.6878 70.6095 78.6513 70.3955 78.6513H69.4513V77.7637H70.3955C70.7153 77.7637 70.9545 77.6907 71.1131 77.5446C71.2717 77.3986 71.351 77.216 71.351 76.997C71.351 76.7603 71.2654 76.5702 71.0942 76.4267C70.9255 76.2806 70.6901 76.2076 70.3879 76.2076C70.0807 76.2076 69.8252 76.2768 69.6212 76.4153C69.4173 76.5513 69.3102 76.7276 69.3002 76.9441H68.1596C68.1671 76.6193 68.2653 76.3348 68.4542 76.0905C68.6455 75.8438 68.9023 75.6524 69.2246 75.5164C69.5494 75.3779 69.9183 75.3087 70.3313 75.3087C70.7618 75.3087 71.1345 75.3779 71.4492 75.5164C71.764 75.6549 72.0069 75.8463 72.1782 76.0905C72.3519 76.3348 72.4388 76.6155 72.4388 76.9328C72.4388 77.2525 72.3431 77.5144 72.1517 77.7184C71.9629 77.9198 71.7161 78.0646 71.4115 78.1527V78.2131C71.6356 78.2282 71.8345 78.2962 72.0082 78.4171C72.1819 78.5379 72.3179 78.6978 72.4161 78.8967C72.5143 79.0957 72.5634 79.321 72.5634 79.5728C72.5634 79.9278 72.4652 80.235 72.2688 80.4944C72.0749 80.7537 71.8055 80.9539 71.4606 81.0949C71.1181 81.2334 70.7266 81.3026 70.2859 81.3026C69.8579 81.3026 69.4739 81.2359 69.134 81.1025C68.7966 80.9665 68.5284 80.7751 68.3295 80.5284C68.1331 80.2816 68.0286 79.9895 68.016 79.6521ZM73.7295 83.361V75.3842H74.8324V76.3247H74.9268C74.9923 76.2038 75.0867 76.0641 75.2101 75.9055C75.3334 75.7468 75.5047 75.6083 75.7237 75.49C75.9428 75.3691 76.2323 75.3087 76.5924 75.3087C77.0607 75.3087 77.4787 75.427 77.8463 75.6637C78.214 75.9004 78.5023 76.2416 78.7112 76.6873C78.9228 77.1329 79.0285 77.6693 79.0285 78.2962C79.0285 78.9232 78.924 79.4608 78.715 79.909C78.506 80.3546 78.219 80.6983 77.8539 80.94C77.4888 81.1793 77.0721 81.2989 76.6037 81.2989C76.2512 81.2989 75.9629 81.2397 75.7388 81.1213C75.5173 81.003 75.3435 80.8645 75.2176 80.7059C75.0917 80.5473 74.9948 80.4062 74.9268 80.2829H74.8588V83.361H73.7295ZM74.8362 78.2849C74.8362 78.6928 74.8953 79.0503 75.0137 79.3575C75.132 79.6647 75.3032 79.9052 75.5273 80.0789C75.7514 80.2501 76.0259 80.3357 76.3507 80.3357C76.6881 80.3357 76.9701 80.2464 77.1967 80.0676C77.4233 79.8863 77.5945 79.6408 77.7104 79.3311C77.8287 79.0214 77.8879 78.6727 77.8879 78.2849C77.8879 77.9022 77.83 77.5585 77.7141 77.2538C77.6008 76.9491 77.4296 76.7087 77.2005 76.5324C76.9739 76.3562 76.6906 76.268 76.3507 76.268C76.0234 76.268 75.7464 76.3524 75.5198 76.5211C75.2957 76.6898 75.1257 76.9252 75.0099 77.2274C74.8941 77.5295 74.8362 77.882 74.8362 78.2849ZM81.4004 79.603L83.9574 75.3842H85.1735V81.1855H84.0669V76.963L81.5213 81.1855H80.2938V75.3842H81.4004V79.603ZM85.9723 76.3587V75.3842H90.8672V76.3587H88.975V81.1855H87.8721V76.3587H85.9723ZM94.2919 81.3026C93.7203 81.3026 93.2281 81.1805 92.8151 80.9363C92.4047 80.6895 92.0874 80.3433 91.8633 79.8976C91.6418 79.4494 91.531 78.9244 91.531 78.3227C91.531 77.7284 91.6418 77.2047 91.8633 76.7515C92.0874 76.2982 92.3997 75.9445 92.8 75.6902C93.2029 75.4359 93.6737 75.3087 94.2126 75.3087C94.5399 75.3087 94.8572 75.3628 95.1643 75.4711C95.4715 75.5794 95.7472 75.7493 95.9915 75.981C96.2357 76.2126 96.4283 76.5135 96.5693 76.8837C96.7103 77.2513 96.7808 77.6982 96.7808 78.2245V78.6248H92.1693V77.7788H95.6742C95.6742 77.4817 95.6138 77.2186 95.4929 76.9894C95.3721 76.7578 95.2021 76.5752 94.983 76.4418C94.7665 76.3083 94.5122 76.2416 94.2201 76.2416C93.9029 76.2416 93.6259 76.3196 93.3892 76.4758C93.155 76.6294 92.9737 76.8308 92.8453 77.0801C92.7194 77.3268 92.6565 77.595 92.6565 77.8845V78.5455C92.6565 78.9333 92.7245 79.2631 92.8604 79.535C92.9989 79.807 93.1915 80.0147 93.4383 80.1582C93.6851 80.2992 93.9734 80.3697 94.3032 80.3697C94.5172 80.3697 94.7124 80.3395 94.8886 80.2791C95.0649 80.2161 95.2172 80.123 95.3456 79.9996C95.474 79.8762 95.5722 79.7239 95.6402 79.5426L96.7091 79.7352C96.6235 80.05 96.4699 80.3257 96.2483 80.5624C96.0292 80.7965 95.7535 80.9791 95.4212 81.11C95.0913 81.2384 94.7149 81.3026 94.2919 81.3026ZM97.5768 81.1855L97.5731 80.2073H97.7808C97.9419 80.2073 98.0766 80.1733 98.1849 80.1054C98.2957 80.0349 98.3863 79.9165 98.4568 79.7503C98.5273 79.5841 98.5815 79.355 98.6193 79.0629C98.657 78.7683 98.6847 78.3982 98.7023 77.9525L98.8043 75.3842H102.853V81.1855H101.747V76.3587H99.8505L99.7599 78.3302C99.7372 78.8086 99.6881 79.2266 99.6126 79.5841C99.5396 79.9417 99.4325 80.2401 99.2915 80.4793C99.1505 80.716 98.9692 80.8935 98.7477 81.0118C98.5261 81.1276 98.2567 81.1855 97.9394 81.1855H97.5768ZM105.209 77.3784H106.893C107.604 77.3784 108.15 77.5547 108.533 77.9072C108.915 78.2597 109.107 78.7142 109.107 79.2707C109.107 79.6332 109.021 79.9593 108.85 80.2489C108.679 80.5384 108.428 80.7676 108.098 80.9363C107.768 81.1025 107.367 81.1855 106.893 81.1855H104.359V75.3842H105.466V80.2111H106.893C107.218 80.2111 107.485 80.1268 107.694 79.9581C107.903 79.7868 108.008 79.569 108.008 79.3047C108.008 79.0252 107.903 78.7973 107.694 78.621C107.485 78.4423 107.218 78.3529 106.893 78.3529H105.209V77.3784ZM114.305 77.7977V78.7759H111.162V77.7977H114.305ZM111.48 75.3842V81.1855H110.373V75.3842H111.48ZM115.094 75.3842V81.1855H113.991V75.3842H115.094ZM117.455 77.3784H119.139C119.849 77.3784 120.396 77.5547 120.778 77.9072C121.161 78.2597 121.352 78.7142 121.352 79.2707C121.352 79.6332 121.267 79.9593 121.096 80.2489C120.924 80.5384 120.674 80.7676 120.344 80.9363C120.014 81.1025 119.612 81.1855 119.139 81.1855H116.605V75.3842H117.711V80.2111H119.139C119.464 80.2111 119.731 80.1268 119.94 79.9581C120.149 79.7868 120.253 79.569 120.253 79.3047C120.253 79.0252 120.149 78.7973 119.94 78.621C119.731 78.4423 119.464 78.3529 119.139 78.3529H117.455V77.3784ZM122.176 81.1855V75.3842H123.305V81.1855H122.176ZM127.321 81.3026C126.749 81.3026 126.257 81.1805 125.844 80.9363C125.434 80.6895 125.116 80.3433 124.892 79.8976C124.671 79.4494 124.56 78.9244 124.56 78.3227C124.56 77.7284 124.671 77.2047 124.892 76.7515C125.116 76.2982 125.429 75.9445 125.829 75.6902C126.232 75.4359 126.703 75.3087 127.241 75.3087C127.569 75.3087 127.886 75.3628 128.193 75.4711C128.5 75.5794 128.776 75.7493 129.02 75.981C129.265 76.2126 129.457 76.5135 129.598 76.8837C129.739 77.2513 129.81 77.6982 129.81 78.2245V78.6248H125.198V77.7788H128.703C128.703 77.4817 128.643 77.2186 128.522 76.9894C128.401 76.7578 128.231 76.5752 128.012 76.4418C127.795 76.3083 127.541 76.2416 127.249 76.2416C126.932 76.2416 126.655 76.3196 126.418 76.4758C126.184 76.6294 126.003 76.8308 125.874 77.0801C125.748 77.3268 125.685 77.595 125.685 77.8845V78.5455C125.685 78.9333 125.753 79.2631 125.889 79.535C126.028 79.807 126.22 80.0147 126.467 80.1582C126.714 80.2992 127.002 80.3697 127.332 80.3697C127.546 80.3697 127.741 80.3395 127.918 80.2791C128.094 80.2161 128.246 80.123 128.375 79.9996C128.503 79.8762 128.601 79.7239 128.669 79.5426L129.738 79.7352C129.652 80.05 129.499 80.3257 129.277 80.5624C129.058 80.7965 128.782 80.9791 128.45 81.11C128.12 81.2384 127.744 81.3026 127.321 81.3026Z" fill="black"/>
<circle cx="25.968" cy="99.253" r="6.20432" fill="#75A0E5"/>
<path d="M40.999 103.049V95.3136H42.166V98.675H46.0222V95.3136H47.1931V103.049H46.0222V99.6759H42.166V103.049H40.999ZM51.3023 103.166C50.7308 103.166 50.2385 103.044 49.8256 102.799C49.4151 102.553 49.0979 102.206 48.8738 101.761C48.6522 101.313 48.5414 100.788 48.5414 100.186C48.5414 99.5915 48.6522 99.0678 48.8738 98.6146C49.0979 98.1613 49.4101 97.8076 49.8105 97.5533C50.2133 97.299 50.6842 97.1718 51.223 97.1718C51.5504 97.1718 51.8676 97.2259 52.1748 97.3342C52.482 97.4425 52.7577 97.6124 53.0019 97.8441C53.2462 98.0757 53.4388 98.3766 53.5798 98.7468C53.7208 99.1144 53.7913 99.5613 53.7913 100.088V100.488H49.1797V99.6419H52.6847C52.6847 99.3448 52.6242 99.0816 52.5034 98.8525C52.3825 98.6209 52.2126 98.4383 51.9935 98.3049C51.777 98.1714 51.5227 98.1047 51.2306 98.1047C50.9133 98.1047 50.6363 98.1827 50.3997 98.3389C50.1655 98.4925 49.9842 98.6939 49.8558 98.9432C49.7299 99.1899 49.6669 99.4581 49.6669 99.7476V100.409C49.6669 100.796 49.7349 101.126 49.8709 101.398C50.0094 101.67 50.202 101.878 50.4488 102.021C50.6955 102.162 50.9838 102.233 51.3137 102.233C51.5277 102.233 51.7228 102.203 51.8991 102.142C52.0753 102.079 52.2277 101.986 52.3561 101.863C52.4845 101.739 52.5827 101.587 52.6507 101.406L53.7195 101.598C53.6339 101.913 53.4803 102.189 53.2588 102.425C53.0397 102.66 52.764 102.842 52.4316 102.973C52.1018 103.102 51.7253 103.166 51.3023 103.166ZM59.7767 97.2473V102.123H60.6265V104.918H59.5124V103.049H55.0443V97.2473H56.1509V102.074H58.6739V97.2473H59.7767ZM64.3166 103.166C63.745 103.166 63.2527 103.044 62.8398 102.799C62.4294 102.553 62.1121 102.206 61.888 101.761C61.6664 101.313 61.5557 100.788 61.5557 100.186C61.5557 99.5915 61.6664 99.0678 61.888 98.6146C62.1121 98.1613 62.4243 97.8076 62.8247 97.5533C63.2276 97.299 63.6984 97.1718 64.2372 97.1718C64.5646 97.1718 64.8818 97.2259 65.189 97.3342C65.4962 97.4425 65.7719 97.6124 66.0162 97.8441C66.2604 98.0757 66.453 98.3766 66.594 98.7468C66.735 99.1144 66.8055 99.5613 66.8055 100.088V100.488H62.194V99.6419H65.6989C65.6989 99.3448 65.6385 99.0816 65.5176 98.8525C65.3968 98.6209 65.2268 98.4383 65.0077 98.3049C64.7912 98.1714 64.5369 98.1047 64.2448 98.1047C63.9275 98.1047 63.6506 98.1827 63.4139 98.3389C63.1797 98.4925 62.9984 98.6939 62.87 98.9432C62.7441 99.1899 62.6812 99.4581 62.6812 99.7476V100.409C62.6812 100.796 62.7492 101.126 62.8851 101.398C63.0236 101.67 63.2162 101.878 63.463 102.021C63.7097 102.162 63.998 102.233 64.3279 102.233C64.5419 102.233 64.7371 102.203 64.9133 102.142C65.0896 102.079 65.2419 101.986 65.3703 101.863C65.4987 101.739 65.5969 101.587 65.6649 101.406L66.7338 101.598C66.6482 101.913 66.4946 102.189 66.273 102.425C66.0539 102.66 65.7782 102.842 65.4459 102.973C65.116 103.102 64.7396 103.166 64.3166 103.166ZM67.6015 103.049L67.5977 102.07H67.8055C67.9666 102.07 68.1013 102.036 68.2096 101.968C68.3204 101.898 68.411 101.78 68.4815 101.613C68.552 101.447 68.6062 101.218 68.6439 100.926C68.6817 100.631 68.7094 100.261 68.727 99.8156L68.829 97.2473H72.8778V103.049H71.7712V98.2218H69.8752L69.7846 100.193C69.7619 100.672 69.7128 101.09 69.6373 101.447C69.5642 101.805 69.4572 102.103 69.3162 102.342C69.1752 102.579 68.9939 102.757 68.7724 102.875C68.5508 102.991 68.2814 103.049 67.9641 103.049H67.6015ZM76.8842 103.166C76.3126 103.166 75.8204 103.044 75.4074 102.799C74.997 102.553 74.6797 102.206 74.4556 101.761C74.2341 101.313 74.1233 100.788 74.1233 100.186C74.1233 99.5915 74.2341 99.0678 74.4556 98.6146C74.6797 98.1613 74.992 97.8076 75.3923 97.5533C75.7952 97.299 76.266 97.1718 76.8049 97.1718C77.1322 97.1718 77.4495 97.2259 77.7566 97.3342C78.0638 97.4425 78.3395 97.6124 78.5838 97.8441C78.828 98.0757 79.0206 98.3766 79.1616 98.7468C79.3026 99.1144 79.3731 99.5613 79.3731 100.088V100.488H74.7616V99.6419H78.2665C78.2665 99.3448 78.2061 99.0816 78.0852 98.8525C77.9644 98.6209 77.7944 98.4383 77.5753 98.3049C77.3588 98.1714 77.1045 98.1047 76.8124 98.1047C76.4952 98.1047 76.2182 98.1827 75.9815 98.3389C75.7473 98.4925 75.566 98.6939 75.4376 98.9432C75.3117 99.1899 75.2488 99.4581 75.2488 99.7476V100.409C75.2488 100.796 75.3168 101.126 75.4527 101.398C75.5912 101.67 75.7838 101.878 76.0306 102.021C76.2774 102.162 76.5657 102.233 76.8955 102.233C77.1095 102.233 77.3047 102.203 77.4809 102.142C77.6572 102.079 77.8095 101.986 77.9379 101.863C78.0663 101.739 78.1645 101.587 78.2325 101.406L79.3014 101.598C79.2158 101.913 79.0622 102.189 78.8406 102.425C78.6215 102.66 78.3458 102.842 78.0135 102.973C77.6836 103.102 77.3072 103.166 76.8842 103.166ZM80.6261 103.049V97.2473H83.032C83.6867 97.2473 84.2054 97.3871 84.5881 97.6666C84.9708 97.9435 85.1622 98.32 85.1622 98.7959C85.1622 99.1358 85.0539 99.4052 84.8374 99.6041C84.6208 99.803 84.3338 99.9365 83.9762 100.004C84.2356 100.035 84.4735 100.113 84.6901 100.239C84.9066 100.362 85.0803 100.528 85.2113 100.737C85.3447 100.946 85.4115 101.195 85.4115 101.485C85.4115 101.792 85.3321 102.064 85.1735 102.301C85.0149 102.535 84.7845 102.719 84.4823 102.852C84.1827 102.983 83.8214 103.049 83.3984 103.049H80.6261ZM81.6874 102.104H83.3984C83.6779 102.104 83.8969 102.038 84.0556 101.904C84.2142 101.771 84.2935 101.59 84.2935 101.36C84.2935 101.091 84.2142 100.879 84.0556 100.726C83.8969 100.57 83.6779 100.492 83.3984 100.492H81.6874V102.104ZM81.6874 99.6645H83.0433C83.2549 99.6645 83.4361 99.6343 83.5872 99.5739C83.7408 99.5135 83.8579 99.4279 83.9385 99.3171C84.0216 99.2038 84.0631 99.0703 84.0631 98.9167C84.0631 98.6926 83.9712 98.5176 83.7874 98.3917C83.6036 98.2658 83.3518 98.2029 83.032 98.2029H81.6874V99.6645ZM87.5001 99.2415H89.1846C89.8946 99.2415 90.441 99.4178 90.8237 99.7703C91.2065 100.123 91.3978 100.577 91.3978 101.134C91.3978 101.496 91.3122 101.822 91.141 102.112C90.9698 102.402 90.7192 102.631 90.3894 102.799C90.0596 102.966 89.6579 103.049 89.1846 103.049H86.6503V97.2473H87.7569V102.074H89.1846C89.5094 102.074 89.7763 101.99 89.9853 101.821C90.1943 101.65 90.2988 101.432 90.2988 101.168C90.2988 100.888 90.1943 100.66 89.9853 100.484C89.7763 100.305 89.5094 100.216 89.1846 100.216H87.5001V99.2415ZM92.2212 103.049V97.2473H93.3505V103.049H92.2212ZM97.3663 103.166C96.7947 103.166 96.3024 103.044 95.8895 102.799C95.4791 102.553 95.1618 102.206 94.9377 101.761C94.7161 101.313 94.6054 100.788 94.6054 100.186C94.6054 99.5915 94.7161 99.0678 94.9377 98.6146C95.1618 98.1613 95.474 97.8076 95.8744 97.5533C96.2773 97.299 96.7481 97.1718 97.287 97.1718C97.6143 97.1718 97.9315 97.2259 98.2387 97.3342C98.5459 97.4425 98.8216 97.6124 99.0659 97.8441C99.3101 98.0757 99.5027 98.3766 99.6437 98.7468C99.7847 99.1144 99.8552 99.5613 99.8552 100.088V100.488H95.2437V99.6419H98.7486C98.7486 99.3448 98.6882 99.0816 98.5673 98.8525C98.4465 98.6209 98.2765 98.4383 98.0574 98.3049C97.8409 98.1714 97.5866 98.1047 97.2945 98.1047C96.9772 98.1047 96.7003 98.1827 96.4636 98.3389C96.2294 98.4925 96.0481 98.6939 95.9197 98.9432C95.7938 99.1899 95.7309 99.4581 95.7309 99.7476V100.409C95.7309 100.796 95.7989 101.126 95.9348 101.398C96.0733 101.67 96.2659 101.878 96.5127 102.021C96.7594 102.162 97.0477 102.233 97.3776 102.233C97.5916 102.233 97.7868 102.203 97.963 102.142C98.1393 102.079 98.2916 101.986 98.42 101.863C98.5484 101.739 98.6466 101.587 98.7146 101.406L99.7835 101.598C99.6979 101.913 99.5443 102.189 99.3227 102.425C99.1036 102.66 98.8279 102.842 98.4956 102.973C98.1657 103.102 97.7893 103.166 97.3663 103.166ZM103.923 103.049V97.2473H105.052V99.6797H105.596L107.511 97.2473H108.908L106.661 100.069L108.935 103.049H107.534L105.785 100.73H105.052V103.049H103.923ZM109.355 103.049L109.351 102.07H109.559C109.72 102.07 109.855 102.036 109.963 101.968C110.074 101.898 110.165 101.78 110.235 101.613C110.306 101.447 110.36 101.218 110.397 100.926C110.435 100.631 110.463 100.261 110.481 99.8156L110.583 97.2473H114.631V103.049H113.525V98.2218H111.629L111.538 100.193C111.515 100.672 111.466 101.09 111.391 101.447C111.318 101.805 111.211 102.103 111.07 102.342C110.929 102.579 110.747 102.757 110.526 102.875C110.304 102.991 110.035 103.049 109.718 103.049H109.355ZM117.244 101.466L119.801 97.2473H121.017V103.049H119.911V98.8261L117.365 103.049H116.137V97.2473H117.244V101.466ZM122.535 103.049V97.2473H123.665V99.6797H124.209L126.124 97.2473H127.521L125.274 100.069L127.547 103.049H126.146L124.397 100.73H123.665V103.049H122.535ZM129.531 101.466L132.088 97.2473H133.304V103.049H132.198V98.8261L129.652 103.049H128.425V97.2473H129.531V101.466Z" fill="black"/>
<circle cx="25.968" cy="121.116" r="5.10944" fill="#27C58B" stroke="#27C58B" stroke-width="2.18976"/>
<path d="M48.7478 123.881L48.6458 126.74H47.4826V124.912H46.9387V123.881H48.7478ZM41.8852 124.912V117.177H43.0032V123.9H46.7347V117.177H47.8565V124.912H41.8852ZM52.4378 125.029C51.8663 125.029 51.374 124.907 50.9611 124.663C50.5507 124.416 50.2334 124.07 50.0093 123.624C49.7877 123.176 49.6769 122.651 49.6769 122.049C49.6769 121.455 49.7877 120.931 50.0093 120.478C50.2334 120.025 50.5456 119.671 50.946 119.416C51.3488 119.162 51.8197 119.035 52.3585 119.035C52.6859 119.035 53.0031 119.089 53.3103 119.197C53.6175 119.306 53.8932 119.476 54.1374 119.707C54.3817 119.939 54.5743 120.24 54.7153 120.61C54.8563 120.978 54.9268 121.425 54.9268 121.951V122.351H50.3152V121.505H53.8202C53.8202 121.208 53.7598 120.945 53.6389 120.716C53.518 120.484 53.3481 120.302 53.129 120.168C52.9125 120.035 52.6582 119.968 52.3661 119.968C52.0488 119.968 51.7718 120.046 51.5352 120.202C51.301 120.356 51.1197 120.557 50.9913 120.806C50.8654 121.053 50.8024 121.321 50.8024 121.611V122.272C50.8024 122.66 50.8704 122.989 51.0064 123.261C51.1449 123.533 51.3375 123.741 51.5843 123.885C51.831 124.026 52.1193 124.096 52.4492 124.096C52.6632 124.096 52.8583 124.066 53.0346 124.005C53.2108 123.942 53.3632 123.849 53.4916 123.726C53.62 123.603 53.7182 123.45 53.7862 123.269L54.8551 123.462C54.7694 123.776 54.6158 124.052 54.3943 124.289C54.1752 124.523 53.8995 124.705 53.5671 124.836C53.2373 124.965 52.8609 125.029 52.4378 125.029ZM55.7228 124.912L55.719 123.934H55.9267C56.0879 123.934 56.2226 123.9 56.3309 123.832C56.4417 123.761 56.5323 123.643 56.6028 123.477C56.6733 123.31 56.7274 123.081 56.7652 122.789C56.803 122.495 56.8307 122.125 56.8483 121.679L56.9503 119.111H60.9991V124.912H59.8925V120.085H57.9965L57.9058 122.057C57.8832 122.535 57.8341 122.953 57.7585 123.31C57.6855 123.668 57.5785 123.966 57.4375 124.206C57.2965 124.442 57.1152 124.62 56.8936 124.738C56.6721 124.854 56.4026 124.912 56.0854 124.912H55.7228ZM65.0055 125.029C64.4339 125.029 63.9416 124.907 63.5287 124.663C63.1183 124.416 62.801 124.07 62.5769 123.624C62.3553 123.176 62.2445 122.651 62.2445 122.049C62.2445 121.455 62.3553 120.931 62.5769 120.478C62.801 120.025 63.1132 119.671 63.5136 119.416C63.9164 119.162 64.3873 119.035 64.9261 119.035C65.2535 119.035 65.5707 119.089 65.8779 119.197C66.1851 119.306 66.4608 119.476 66.7051 119.707C66.9493 119.939 67.1419 120.24 67.2829 120.61C67.4239 120.978 67.4944 121.425 67.4944 121.951V122.351H62.8828V121.505H66.3878C66.3878 121.208 66.3274 120.945 66.2065 120.716C66.0856 120.484 65.9157 120.302 65.6966 120.168C65.4801 120.035 65.2258 119.968 64.9337 119.968C64.6164 119.968 64.3395 120.046 64.1028 120.202C63.8686 120.356 63.6873 120.557 63.5589 120.806C63.433 121.053 63.3701 121.321 63.3701 121.611V122.272C63.3701 122.66 63.438 122.989 63.574 123.261C63.7125 123.533 63.9051 123.741 64.1519 123.885C64.3986 124.026 64.6869 124.096 65.0168 124.096C65.2308 124.096 65.4259 124.066 65.6022 124.005C65.7785 123.942 65.9308 123.849 66.0592 123.726C66.1876 123.603 66.2858 123.45 66.3538 123.269L67.4227 123.462C67.3371 123.776 67.1835 124.052 66.9619 124.289C66.7428 124.523 66.4671 124.705 66.1347 124.836C65.8049 124.965 65.4285 125.029 65.0055 125.029ZM68.7474 124.912V119.111H71.1533C71.808 119.111 72.3266 119.25 72.7094 119.53C73.0921 119.807 73.2835 120.183 73.2835 120.659C73.2835 120.999 73.1752 121.268 72.9586 121.467C72.7421 121.666 72.4551 121.8 72.0975 121.868C72.3569 121.898 72.5948 121.976 72.8113 122.102C73.0279 122.225 73.2016 122.391 73.3326 122.6C73.466 122.809 73.5327 123.059 73.5327 123.348C73.5327 123.655 73.4534 123.927 73.2948 124.164C73.1362 124.398 72.9058 124.582 72.6036 124.715C72.304 124.846 71.9427 124.912 71.5196 124.912H68.7474ZM69.8087 123.968H71.5196C71.7991 123.968 72.0182 123.901 72.1768 123.767C72.3355 123.634 72.4148 123.453 72.4148 123.224C72.4148 122.954 72.3355 122.743 72.1768 122.589C72.0182 122.433 71.7991 122.355 71.5196 122.355H69.8087V123.968ZM69.8087 121.528H71.1646C71.3761 121.528 71.5574 121.498 71.7085 121.437C71.8621 121.377 71.9792 121.291 72.0597 121.18C72.1428 121.067 72.1844 120.934 72.1844 120.78C72.1844 120.556 72.0925 120.381 71.9087 120.255C71.7249 120.129 71.4731 120.066 71.1533 120.066H69.8087V121.528ZM75.6214 121.105H77.3058C78.0159 121.105 78.5623 121.281 78.945 121.634C79.3277 121.986 79.5191 122.441 79.5191 122.997C79.5191 123.36 79.4335 123.686 79.2623 123.975C79.0911 124.265 78.8405 124.494 78.5107 124.663C78.1808 124.829 77.7792 124.912 77.3058 124.912H74.7716V119.111H75.8782V123.937H77.3058C77.6307 123.937 77.8976 123.853 78.1065 123.684C78.3155 123.513 78.42 123.295 78.42 123.031C78.42 122.751 78.3155 122.524 78.1065 122.347C77.8976 122.169 77.6307 122.079 77.3058 122.079H75.6214V121.105ZM80.3425 124.912V119.111H81.4718V124.912H80.3425ZM85.4875 125.029C84.916 125.029 84.4237 124.907 84.0108 124.663C83.6004 124.416 83.2831 124.07 83.059 123.624C82.8374 123.176 82.7266 122.651 82.7266 122.049C82.7266 121.455 82.8374 120.931 83.059 120.478C83.2831 120.025 83.5953 119.671 83.9957 119.416C84.3985 119.162 84.8694 119.035 85.4082 119.035C85.7356 119.035 86.0528 119.089 86.36 119.197C86.6672 119.306 86.9429 119.476 87.1871 119.707C87.4314 119.939 87.624 120.24 87.765 120.61C87.906 120.978 87.9765 121.425 87.9765 121.951V122.351H83.3649V121.505H86.8699C86.8699 121.208 86.8095 120.945 86.6886 120.716C86.5677 120.484 86.3978 120.302 86.1787 120.168C85.9622 120.035 85.7079 119.968 85.4158 119.968C85.0985 119.968 84.8216 120.046 84.5849 120.202C84.3507 120.356 84.1694 120.557 84.041 120.806C83.9151 121.053 83.8521 121.321 83.8521 121.611V122.272C83.8521 122.66 83.9201 122.989 84.0561 123.261C84.1946 123.533 84.3872 123.741 84.634 123.885C84.8807 124.026 85.169 124.096 85.4989 124.096C85.7129 124.096 85.908 124.066 86.0843 124.005C86.2605 123.942 86.4129 123.849 86.5413 123.726C86.6697 123.603 86.7679 123.45 86.8359 123.269L87.9048 123.462C87.8191 123.776 87.6656 124.052 87.444 124.289C87.2249 124.523 86.9492 124.705 86.6168 124.836C86.287 124.965 85.9106 125.029 85.4875 125.029ZM92.0442 124.912V119.111H93.1735V121.543H93.7174L95.6323 119.111H97.0297L94.7825 121.932L97.0562 124.912H95.6549L93.9062 122.593H93.1735V124.912H92.0442ZM97.4763 124.912L97.4726 123.934H97.6803C97.8414 123.934 97.9762 123.9 98.0844 123.832C98.1952 123.761 98.2859 123.643 98.3564 123.477C98.4269 123.31 98.481 123.081 98.5188 122.789C98.5565 122.495 98.5842 122.125 98.6019 121.679L98.7038 119.111H102.753V124.912H101.646V120.085H99.75L99.6594 122.057C99.6367 122.535 99.5876 122.953 99.5121 123.31C99.4391 123.668 99.3321 123.966 99.1911 124.206C99.0501 124.442 98.8688 124.62 98.6472 124.738C98.4256 124.854 98.1562 124.912 97.8389 124.912H97.4763ZM105.365 123.329L107.922 119.111H109.138V124.912H108.032V120.689L105.486 124.912H104.259V119.111H105.365V123.329ZM110.657 124.912V119.111H111.786V121.543H112.33L114.245 119.111H115.642L113.395 121.932L115.669 124.912H114.267L112.519 122.593H111.786V124.912H110.657ZM117.653 123.329L120.209 119.111H121.426V124.912H120.319V120.689L117.773 124.912H116.546V119.111H117.653V123.329Z" fill="black"/>
<g clip-path="url(#clip0_57_16422)">
<g clip-path="url(#clip1_57_16422)">
<g clip-path="url(#clip2_57_16422)">
<path d="M11.5223 86.1896L15.5895 87.3121C19.6567 88.4347 28.0575 93.0038 35.9254 90.9943C51.9454 86.9029 53.0944 45.244 61.2288 47.7342C69.3632 50.2245 66.5749 99.1338 84.7316 99.9201C95.5563 100.389 101 89.2743 109.135 82.7904C117.269 76.3065 125.403 72.6347 133.538 79.6581C141.672 86.6815 147.389 81.9635 155.523 82.7904C163.657 83.6174 172.441 106.858 182.344 80.6575C192.247 54.4572 194.521 51.8575 202.655 52.1671C210.79 52.4767 220.498 61.1801 231.15 81.1753C241.803 101.17 244.207 101.994 255.553 101.685C267.593 101.358 271.822 81.3652 279.956 77.1802C288.091 72.9951 296.225 82.8399 304.359 80.4672C312.494 78.0944 320.628 63.504 328.763 65.6287C336.897 67.7535 345.031 86.5934 353.166 84.0215C361.3 81.4497 369.434 57.4661 373.502 45.4743L377.569 33.4825" stroke="#27C58B" stroke-width="3.7191" stroke-linecap="round"/>
</g>
<path d="M15.5596 87.5733L11.522 86.4453V189.473H350.684V84.2668C342.608 86.8511 334.533 67.9198 326.458 65.7847C318.382 63.6497 310.307 78.3109 302.232 80.6951C294.157 83.0794 286.081 73.1869 278.006 77.3922C269.931 81.5975 265.733 101.687 253.78 102.016C242.517 102.326 240.129 101.499 229.554 81.4067C218.979 61.3145 210.812 54.5892 202.737 54.2781C194.662 53.967 190.934 54.559 181.103 80.8864C171.272 107.214 161.143 86.586 153.067 85.755C144.992 84.9241 140.726 86.9397 132.651 79.8822C124.576 72.8247 116.501 76.5143 108.425 83.0297C100.35 89.545 94.9455 100.714 84.1995 100.242C66.1746 99.4523 68.9426 50.3058 60.8674 47.8035C52.7921 45.3011 51.6514 87.162 35.7478 91.2734C27.937 93.2926 19.5972 88.7013 15.5596 87.5733Z" fill="#27C58B" fill-opacity="0.2"/>
</g>
<rect x="175.49" y="101.729" width="15.9536" height="8.86311" fill="#6695E2"/>
<rect x="175.49" y="90.2065" width="15.9536" height="11.522" fill="#4F5A7C"/>
<rect x="175.49" y="94.6379" width="15.9536" height="29.2483" fill="#27C58B"/>
<rect x="175.49" y="94.6379" width="15.9536" height="7.09049" fill="#6695E2"/>
<path d="M175.49 45.0046C175.49 42.0676 177.871 39.6868 180.808 39.6868H186.125C189.062 39.6868 191.443 42.0677 191.443 45.0046V90.2065H175.49V45.0046Z" fill="#E26666"/>
<rect x="202.079" y="104.761" width="15.9536" height="19.1257" fill="#27C58B"/>
<rect x="202.079" y="104.761" width="15.9536" height="13.0054" fill="#6695E2"/>
<rect x="202.079" y="98.64" width="15.9536" height="25.2459" fill="#27C58B"/>
<rect x="202.079" y="85.6347" width="15.9536" height="19.1257" fill="#4F5A7C"/>
<rect x="202.079" y="88.4338" width="15.9536" height="16.8399" fill="#6695E2"/>
<path d="M202.079 56.5266C202.079 53.5896 204.46 51.2087 207.396 51.2087H212.714C215.651 51.2087 218.032 53.5896 218.032 56.5266V85.6349H202.079V56.5266Z" fill="#E26666"/>
<rect x="228.668" y="103.501" width="15.9536" height="15.1925" fill="#27C58B"/>
<rect x="228.668" y="111.151" width="15.9536" height="12.7349" fill="#27C58B"/>
<rect x="228.668" y="98.1833" width="15.9536" height="25.2459" fill="#27C58B"/>
<rect x="228.668" y="85.7748" width="15.9536" height="12.4084" fill="#6695E2"/>
<rect x="228.668" y="73.6168" width="15.9536" height="12.154" fill="#4F5A7C"/>
<path d="M228.668 48.55C228.668 45.6131 231.049 43.2322 233.986 43.2322H239.304C242.241 43.2322 244.622 45.6131 244.622 48.55V79.5709H228.668V48.55Z" fill="#E26666"/>
<rect x="255.257" y="98.1833" width="15.9536" height="25.703" fill="#27C58B"/>
<rect x="255.257" y="84.8886" width="15.9536" height="13.2947" fill="#6695E2"/>
<rect x="255.257" y="85.1682" width="15.9536" height="3.73184" fill="#4F5A7C"/>
<path d="M255.257 84.8887C255.257 81.9517 257.638 79.5708 260.575 79.5708H265.893C268.83 79.5708 271.211 81.9517 271.211 84.8887V86.1015H255.257V84.8887Z" fill="#E26666"/>
<g clip-path="url(#clip3_57_16422)">
<rect x="281.847" y="93.7517" width="15.9536" height="30.1346" fill="#27C58B"/>
<path d="M281.847 84.8887C281.847 81.9517 284.228 79.5708 287.165 79.5708H292.482C295.419 79.5708 297.8 81.9517 297.8 84.8887V86.1015H281.847V84.8887Z" fill="#E26666"/>
<rect x="281.847" y="82.2297" width="15.9536" height="5.31787" fill="#4F5A7C"/>
<rect x="281.847" y="84.8886" width="15.9536" height="8.86311" fill="#6695E2"/>
</g>
<g clip-path="url(#clip4_57_16422)">
<rect x="308.436" y="82.2297" width="15.9536" height="41.6566" fill="#27C58B"/>
<path d="M308.437 73.3664C308.437 70.4295 310.817 68.0486 313.754 68.0486H319.072C322.009 68.0486 324.39 70.4295 324.39 73.3664V74.5793H308.437V73.3664Z" fill="#E26666"/>
<rect x="308.437" y="68.0486" width="15.9536" height="7.9768" fill="#4F5A7C"/>
<rect x="308.436" y="73.3666" width="15.9536" height="8.86311" fill="#6695E2"/>
</g>
<g clip-path="url(#clip5_57_16422)">
<rect x="335.025" y="95.5244" width="15.9536" height="35.4524" fill="#27C58B"/>
<path d="M335.025 80.4573C335.025 77.5203 337.406 75.1394 340.343 75.1394H345.661C348.598 75.1394 350.979 77.5203 350.979 80.4573V81.6701H335.025V80.4573Z" fill="#E26666"/>
<rect x="335.025" y="75.1394" width="15.9536" height="7.9768" fill="#4F5A7C"/>
<path d="M335.025 80.4573C335.025 77.5203 337.406 75.1394 340.343 75.1394H345.661C348.598 75.1394 350.979 77.5203 350.979 80.4573V81.6701H335.025V80.4573Z" fill="#E26666"/>
<rect x="335.025" y="83.1159" width="15.9536" height="12.4084" fill="#6695E2"/>
</g>
</g>
<path d="M30.2213 20.6287H27.4642C27.4138 20.272 27.311 19.9551 27.1557 19.6782C27.0004 19.397 26.8011 19.1578 26.5577 18.9605C26.3143 18.7633 26.0331 18.6122 25.7142 18.5073C25.3995 18.4024 25.0574 18.3499 24.6881 18.3499C24.0209 18.3499 23.4397 18.5157 22.9445 18.8472C22.4493 19.1746 22.0653 19.653 21.7925 20.2825C21.5198 20.9077 21.3834 21.6673 21.3834 22.5612C21.3834 23.4802 21.5198 24.2524 21.7925 24.8777C22.0695 25.503 22.4556 25.9751 22.9508 26.294C23.446 26.6129 24.0188 26.7724 24.6693 26.7724C25.0344 26.7724 25.3722 26.7242 25.6827 26.6276C25.9975 26.5311 26.2765 26.3905 26.5199 26.2059C26.7633 26.017 26.9648 25.7883 27.1242 25.5197C27.2879 25.2512 27.4012 24.9448 27.4642 24.6007L30.2213 24.6133C30.15 25.205 29.9716 25.7757 29.6862 26.3255C29.4051 26.871 29.0253 27.3599 28.5469 27.7922C28.0727 28.2202 27.5061 28.5601 26.8473 28.8119C26.1926 29.0595 25.4519 29.1833 24.6252 29.1833C23.4753 29.1833 22.4472 28.9231 21.5407 28.4028C20.6385 27.8824 19.9251 27.1291 19.4005 26.1429C18.8801 25.1567 18.6199 23.9628 18.6199 22.5612C18.6199 21.1553 18.8843 19.9593 19.4131 18.9731C19.9419 17.9869 20.6595 17.2358 21.5659 16.7196C22.4724 16.1992 23.4921 15.939 24.6252 15.939C25.3722 15.939 26.0646 16.0439 26.7025 16.2538C27.3446 16.4636 27.9132 16.7699 28.4084 17.1728C28.9036 17.5715 29.3064 18.0604 29.617 18.6395C29.9317 19.2186 30.1332 19.8817 30.2213 20.6287ZM31.6219 21.447V19.3382H40.3843V21.447H37.2683V29.0071H34.7127V21.447H31.6219ZM44.4208 29.1896C43.8039 29.1896 43.2542 29.0826 42.7716 28.8686C42.289 28.6504 41.9071 28.3293 41.6259 27.9055C41.349 27.4774 41.2105 26.9445 41.2105 26.3066C41.2105 25.7694 41.3091 25.3183 41.5063 24.9532C41.7036 24.5881 41.9722 24.2944 42.3121 24.0719C42.652 23.8495 43.0381 23.6817 43.4703 23.5684C43.9068 23.455 44.3642 23.3753 44.8426 23.3292C45.4049 23.2704 45.8582 23.2158 46.2023 23.1655C46.5464 23.1109 46.7961 23.0312 46.9514 22.9263C47.1066 22.8214 47.1843 22.6661 47.1843 22.4605V22.4227C47.1843 22.024 47.0584 21.7156 46.8066 21.4974C46.559 21.2791 46.2065 21.17 45.749 21.17C45.2664 21.17 44.8825 21.277 44.5971 21.4911C44.3117 21.7009 44.1229 21.9653 44.0306 22.2842L41.5504 22.0828C41.6763 21.4953 41.9239 20.9875 42.2932 20.5594C42.6625 20.1272 43.1388 19.7957 43.7221 19.5648C44.3096 19.3298 44.9895 19.2123 45.7616 19.2123C46.2988 19.2123 46.8129 19.2753 47.3039 19.4012C47.7991 19.5271 48.2376 19.7222 48.6195 19.9866C49.0056 20.251 49.3098 20.5909 49.5322 21.0064C49.7547 21.4176 49.8659 21.9107 49.8659 22.4856V29.0071H47.3228V27.6663H47.2472C47.0919 27.9684 46.8842 28.2349 46.624 28.4657C46.3638 28.6923 46.0512 28.8707 45.6861 29.0008C45.321 29.1267 44.8992 29.1896 44.4208 29.1896ZM45.1888 27.339C45.5833 27.339 45.9316 27.2613 46.2338 27.106C46.5359 26.9466 46.773 26.7326 46.9451 26.464C47.1171 26.1954 47.2032 25.8911 47.2032 25.5512V24.5252C47.1192 24.5797 47.0038 24.6301 46.8569 24.6762C46.7143 24.7182 46.5527 24.7581 46.3722 24.7958C46.1918 24.8294 46.0113 24.8609 45.8309 24.8903C45.6504 24.9154 45.4868 24.9385 45.3399 24.9595C45.0251 25.0057 44.7503 25.0791 44.5153 25.1798C44.2803 25.2805 44.0977 25.4169 43.9676 25.589C43.8375 25.7569 43.7725 25.9667 43.7725 26.2185C43.7725 26.5836 43.9047 26.8626 44.169 27.0557C44.4376 27.2445 44.7775 27.339 45.1888 27.339ZM50.9753 21.447V19.3382H59.7377V21.447H56.6218V29.0071H54.0661V21.447H50.9753ZM63.9253 25.4694L67.4064 19.3382H70.0502V29.0071H67.4945V22.857L64.0261 29.0071H61.3634V19.3382H63.9253V25.4694ZM76.5685 29.1959C75.5781 29.1959 74.7262 28.9861 74.0128 28.5664C73.3036 28.1426 72.758 27.5551 72.3761 26.8039C71.9985 26.0527 71.8096 25.1882 71.8096 24.2104C71.8096 23.22 72.0006 22.3514 72.3824 21.6044C72.7685 20.8532 73.3162 20.2678 74.0254 19.8481C74.7346 19.4243 75.5781 19.2123 76.5559 19.2123C77.3994 19.2123 78.138 19.3655 78.7717 19.6719C79.4054 19.9782 79.9069 20.4084 80.2761 20.9623C80.6454 21.5162 80.849 22.1667 80.8867 22.9137H78.3562C78.2849 22.4311 78.096 22.0429 77.7897 21.7491C77.4875 21.4512 77.091 21.3022 76.6 21.3022C76.1845 21.3022 75.8215 21.4155 75.511 21.6421C75.2046 21.8646 74.9654 22.1898 74.7934 22.6178C74.6213 23.0459 74.5353 23.5642 74.5353 24.1727C74.5353 24.7895 74.6192 25.3141 74.7871 25.7464C74.9591 26.1786 75.2004 26.508 75.511 26.7346C75.8215 26.9613 76.1845 27.0746 76.6 27.0746C76.9063 27.0746 77.1812 27.0116 77.4246 26.8857C77.6722 26.7598 77.8757 26.5773 78.0352 26.3381C78.1989 26.0947 78.3059 25.803 78.3562 25.4631H80.8867C80.8448 26.2017 80.6433 26.8522 80.2824 27.4145C79.9257 27.9726 79.4326 28.4091 78.8032 28.7238C78.1737 29.0386 77.4288 29.1959 76.5685 29.1959ZM81.9443 21.447V19.3382H90.7067V21.447H87.5907V29.0071H85.035V21.447H81.9443ZM94.8943 25.4694L98.3753 19.3382H101.019V29.0071H98.4635V22.857L94.995 29.0071H92.3323V19.3382H94.8943V25.4694ZM103.169 29.0071V19.3382H105.85V23.0899H106.606L109.237 19.3382H112.384L108.966 24.1349L112.422 29.0071H109.237L106.851 25.5764H105.85V29.0071H103.169ZM116.312 29.1896C115.696 29.1896 115.146 29.0826 114.663 28.8686C114.181 28.6504 113.799 28.3293 113.518 27.9055C113.241 27.4774 113.102 26.9445 113.102 26.3066C113.102 25.7694 113.201 25.3183 113.398 24.9532C113.595 24.5881 113.864 24.2944 114.204 24.0719C114.544 23.8495 114.93 23.6817 115.362 23.5684C115.798 23.455 116.256 23.3753 116.734 23.3292C117.297 23.2704 117.75 23.2158 118.094 23.1655C118.438 23.1109 118.688 23.0312 118.843 22.9263C118.998 22.8214 119.076 22.6661 119.076 22.4605V22.4227C119.076 22.024 118.95 21.7156 118.698 21.4974C118.451 21.2791 118.098 21.17 117.641 21.17C117.158 21.17 116.774 21.277 116.489 21.4911C116.203 21.7009 116.014 21.9653 115.922 22.2842L113.442 22.0828C113.568 21.4953 113.815 20.9875 114.185 20.5594C114.554 20.1272 115.03 19.7957 115.614 19.5648C116.201 19.3298 116.881 19.2123 117.653 19.2123C118.19 19.2123 118.704 19.2753 119.195 19.4012C119.691 19.5271 120.129 19.7222 120.511 19.9866C120.897 20.251 121.201 20.5909 121.424 21.0064C121.646 21.4176 121.757 21.9107 121.757 22.4856V29.0071H119.214V27.6663H119.139C118.984 27.9684 118.776 28.2349 118.516 28.4657C118.255 28.6923 117.943 28.8707 117.578 29.0008C117.213 29.1267 116.791 29.1896 116.312 29.1896ZM117.08 27.339C117.475 27.339 117.823 27.2613 118.125 27.106C118.427 26.9466 118.665 26.7326 118.837 26.464C119.009 26.1954 119.095 25.8911 119.095 25.5512V24.5252C119.011 24.5797 118.895 24.6301 118.749 24.6762C118.606 24.7182 118.444 24.7581 118.264 24.7958C118.083 24.8294 117.903 24.8609 117.722 24.8903C117.542 24.9154 117.378 24.9385 117.231 24.9595C116.917 25.0057 116.642 25.0791 116.407 25.1798C116.172 25.2805 115.989 25.4169 115.859 25.589C115.729 25.7569 115.664 25.9667 115.664 26.2185C115.664 26.5836 115.796 26.8626 116.061 27.0557C116.329 27.2445 116.669 27.339 117.08 27.339ZM127.941 29.0071V19.3382H132.064C133.255 19.3382 134.198 19.5648 134.89 20.0181C135.582 20.4713 135.929 21.1155 135.929 21.9506C135.929 22.4752 135.734 22.9116 135.343 23.2599C134.953 23.6082 134.412 23.8432 133.719 23.9649C134.298 24.0069 134.791 24.1391 135.198 24.3615C135.61 24.5797 135.922 24.863 136.136 25.2113C136.355 25.5596 136.464 25.9457 136.464 26.3695C136.464 26.9193 136.317 27.3914 136.023 27.7859C135.734 28.1804 135.308 28.4825 134.745 28.6923C134.187 28.9022 133.505 29.0071 132.699 29.0071H127.941ZM130.44 26.999H132.699C133.073 26.999 133.365 26.9109 133.574 26.7346C133.788 26.5542 133.895 26.3087 133.895 25.9982C133.895 25.654 133.788 25.3834 133.574 25.1861C133.365 24.9889 133.073 24.8903 132.699 24.8903H130.44V26.999ZM130.44 23.3166H132.12C132.389 23.3166 132.618 23.2788 132.806 23.2033C132.999 23.1235 133.146 23.0102 133.247 22.8633C133.352 22.7165 133.404 22.5423 133.404 22.3409C133.404 22.0429 133.285 21.81 133.046 21.6421C132.806 21.4743 132.479 21.3903 132.064 21.3903H130.44V23.3166ZM140.716 25.4694L144.197 19.3382H146.841V29.0071H144.285V22.857L140.817 29.0071H138.154V19.3382H140.716V25.4694ZM148.493 26.2688H151.093C151.105 26.5878 151.248 26.8396 151.521 27.0242C151.794 27.2089 152.146 27.3012 152.578 27.3012C153.015 27.3012 153.382 27.2005 153.68 26.999C153.978 26.7934 154.127 26.4996 154.127 26.1178C154.127 25.8827 154.068 25.6792 153.951 25.5072C153.833 25.3309 153.67 25.1924 153.46 25.0917C153.25 24.991 153.007 24.9406 152.73 24.9406H151.338V23.1844H152.73C153.145 23.1844 153.464 23.0878 153.686 22.8948C153.913 22.7018 154.026 22.4605 154.026 22.1709C154.026 21.8436 153.909 21.5813 153.674 21.3841C153.443 21.1826 153.13 21.0819 152.736 21.0819C152.337 21.0819 152.006 21.1721 151.741 21.3526C151.481 21.5288 151.347 21.7596 151.338 22.045H148.751C148.76 21.4659 148.934 20.9644 149.274 20.5405C149.618 20.1167 150.079 19.7894 150.659 19.5586C151.242 19.3277 151.894 19.2123 152.616 19.2123C153.405 19.2123 154.085 19.3235 154.656 19.546C155.231 19.7642 155.671 20.0768 155.978 20.4839C156.288 20.891 156.443 21.3757 156.443 21.938C156.443 22.45 156.276 22.878 155.94 23.2221C155.604 23.5663 155.134 23.8118 154.53 23.9586V24.0593C154.929 24.0845 155.289 24.1915 155.613 24.3804C155.936 24.5692 156.194 24.8294 156.387 25.1609C156.58 25.4883 156.676 25.8765 156.676 26.3255C156.676 26.9256 156.5 27.4397 156.148 27.8677C155.799 28.2958 155.317 28.6252 154.7 28.856C154.087 29.0826 153.384 29.1959 152.591 29.1959C151.819 29.1959 151.126 29.0847 150.514 28.8623C149.905 28.6357 149.421 28.3042 149.06 27.8677C148.703 27.4313 148.514 26.8983 148.493 26.2688ZM160.883 25.4694L164.364 19.3382H167.008V29.0071H164.452V22.857L160.984 29.0071H158.321V19.3382H160.883V25.4694ZM168.186 21.447V19.3382H176.949V21.447H173.833V29.0071H171.277V21.447H168.186ZM182.597 29.1959C181.619 29.1959 180.774 28.9882 180.06 28.5727C179.351 28.1531 178.803 27.5698 178.417 26.8228C178.031 26.0716 177.838 25.2008 177.838 24.2104C177.838 23.2116 178.031 22.3388 178.417 21.5918C178.803 20.8406 179.351 20.2573 180.06 19.8418C180.774 19.4222 181.619 19.2123 182.597 19.2123C183.575 19.2123 184.418 19.4222 185.127 19.8418C185.841 20.2573 186.391 20.8406 186.777 21.5918C187.163 22.3388 187.356 23.2116 187.356 24.2104C187.356 25.2008 187.163 26.0716 186.777 26.8228C186.391 27.5698 185.841 28.1531 185.127 28.5727C184.418 28.9882 183.575 29.1959 182.597 29.1959ZM182.61 27.1186C183.054 27.1186 183.426 26.9927 183.724 26.7409C184.022 26.485 184.246 26.1366 184.397 25.696C184.553 25.2554 184.63 24.7539 184.63 24.1915C184.63 23.6292 184.553 23.1277 184.397 22.6871C184.246 22.2464 184.022 21.8981 183.724 21.6421C183.426 21.3861 183.054 21.2582 182.61 21.2582C182.16 21.2582 181.783 21.3861 181.476 21.6421C181.174 21.8981 180.946 22.2464 180.79 22.6871C180.639 23.1277 180.564 23.6292 180.564 24.1915C180.564 24.7539 180.639 25.2554 180.79 25.696C180.946 26.1366 181.174 26.485 181.476 26.7409C181.783 26.9927 182.16 27.1186 182.61 27.1186ZM189.099 29.0071V19.3382H193.223C194.414 19.3382 195.357 19.5648 196.049 20.0181C196.741 20.4713 197.088 21.1155 197.088 21.9506C197.088 22.4752 196.892 22.9116 196.502 23.2599C196.112 23.6082 195.571 23.8432 194.878 23.9649C195.457 24.0069 195.95 24.1391 196.357 24.3615C196.769 24.5797 197.081 24.863 197.295 25.2113C197.514 25.5596 197.623 25.9457 197.623 26.3695C197.623 26.9193 197.476 27.3914 197.182 27.7859C196.892 28.1804 196.467 28.4825 195.904 28.6923C195.346 28.9022 194.664 29.0071 193.858 29.0071H189.099ZM191.599 26.999H193.858C194.232 26.999 194.524 26.9109 194.733 26.7346C194.947 26.5542 195.054 26.3087 195.054 25.9982C195.054 25.654 194.947 25.3834 194.733 25.1861C194.524 24.9889 194.232 24.8903 193.858 24.8903H191.599V26.999ZM191.599 23.3166H193.279C193.548 23.3166 193.777 23.2788 193.965 23.2033C194.158 23.1235 194.305 23.0102 194.406 22.8633C194.511 22.7165 194.563 22.5423 194.563 22.3409C194.563 22.0429 194.444 21.81 194.205 21.6421C193.965 21.4743 193.638 21.3903 193.223 21.3903H191.599V23.3166Z" fill="#070707"/>
<path d="M172.078 130.242V137.977H170.907V131.413H170.861L169.011 132.621V131.503L170.941 130.242H172.078ZM174.17 137.977V137.131L176.787 134.419C177.067 134.124 177.297 133.866 177.479 133.645C177.662 133.421 177.8 133.208 177.89 133.006C177.981 132.805 178.026 132.591 178.026 132.364C178.026 132.108 177.966 131.886 177.845 131.7C177.724 131.511 177.559 131.366 177.35 131.265C177.141 131.162 176.906 131.11 176.644 131.11C176.367 131.11 176.125 131.167 175.919 131.28C175.712 131.394 175.554 131.554 175.443 131.76C175.332 131.967 175.277 132.208 175.277 132.485H174.162C174.162 132.014 174.271 131.603 174.487 131.25C174.704 130.898 175.001 130.624 175.379 130.431C175.756 130.234 176.186 130.136 176.667 130.136C177.153 130.136 177.581 130.233 177.951 130.427C178.323 130.618 178.614 130.88 178.823 131.212C179.032 131.542 179.137 131.915 179.137 132.33C179.137 132.617 179.082 132.898 178.974 133.173C178.868 133.447 178.683 133.753 178.419 134.09C178.155 134.425 177.787 134.832 177.316 135.31L175.779 136.919V136.976H179.261V137.977H174.17ZM181.452 138.049C181.245 138.049 181.068 137.976 180.919 137.83C180.771 137.681 180.696 137.502 180.696 137.293C180.696 137.087 180.771 136.91 180.919 136.764C181.068 136.616 181.245 136.542 181.452 136.542C181.658 136.542 181.836 136.616 181.984 136.764C182.133 136.91 182.207 137.087 182.207 137.293C182.207 137.432 182.172 137.559 182.101 137.675C182.034 137.788 181.943 137.879 181.83 137.947C181.716 138.015 181.59 138.049 181.452 138.049ZM186.117 138.105C185.521 138.103 185.011 137.945 184.588 137.633C184.165 137.321 183.841 136.866 183.617 136.27C183.393 135.673 183.281 134.954 183.281 134.113C183.281 133.275 183.393 132.558 183.617 131.964C183.844 131.37 184.168 130.917 184.591 130.604C185.017 130.292 185.526 130.136 186.117 130.136C186.709 130.136 187.216 130.293 187.639 130.608C188.062 130.92 188.386 131.374 188.61 131.968C188.837 132.559 188.95 133.275 188.95 134.113C188.95 134.957 188.838 135.677 188.614 136.273C188.39 136.868 188.066 137.322 187.643 137.637C187.22 137.949 186.712 138.105 186.117 138.105ZM186.117 137.097C186.641 137.097 187.05 136.841 187.345 136.33C187.642 135.819 187.79 135.08 187.79 134.113C187.79 133.471 187.722 132.928 187.586 132.485C187.453 132.04 187.26 131.702 187.009 131.473C186.759 131.241 186.462 131.126 186.117 131.126C185.596 131.126 185.187 131.382 184.89 131.896C184.593 132.41 184.443 133.149 184.44 134.113C184.44 134.758 184.507 135.303 184.641 135.748C184.776 136.192 184.969 136.528 185.218 136.757C185.468 136.983 185.767 137.097 186.117 137.097ZM192.99 138.083C192.645 138.078 192.305 138.015 191.971 137.894C191.638 137.773 191.336 137.571 191.064 137.289C190.792 137.007 190.574 136.628 190.411 136.153C190.25 135.677 190.169 135.082 190.169 134.37C190.169 133.695 190.236 133.096 190.369 132.572C190.505 132.048 190.7 131.606 190.955 131.246C191.209 130.884 191.516 130.608 191.876 130.419C192.236 130.23 192.64 130.136 193.088 130.136C193.549 130.136 193.958 130.227 194.316 130.408C194.674 130.589 194.963 130.84 195.185 131.16C195.409 131.479 195.551 131.843 195.611 132.251H194.459C194.381 131.929 194.227 131.666 193.995 131.462C193.763 131.258 193.461 131.156 193.088 131.156C192.522 131.156 192.08 131.402 191.763 131.896C191.448 132.39 191.289 133.076 191.287 133.954H191.344C191.477 133.735 191.641 133.549 191.835 133.395C192.031 133.239 192.25 133.12 192.492 133.037C192.736 132.951 192.993 132.908 193.262 132.908C193.71 132.908 194.116 133.018 194.478 133.237C194.843 133.453 195.134 133.753 195.351 134.136C195.567 134.518 195.676 134.957 195.676 135.45C195.676 135.944 195.564 136.391 195.34 136.791C195.118 137.191 194.806 137.508 194.403 137.743C194 137.974 193.529 138.088 192.99 138.083ZM192.986 137.101C193.284 137.101 193.549 137.028 193.783 136.882C194.018 136.735 194.203 136.539 194.339 136.292C194.475 136.046 194.543 135.77 194.543 135.465C194.543 135.168 194.476 134.897 194.342 134.653C194.211 134.409 194.03 134.215 193.799 134.071C193.569 133.928 193.308 133.856 193.013 133.856C192.789 133.856 192.581 133.899 192.39 133.985C192.201 134.07 192.035 134.189 191.891 134.34C191.748 134.491 191.634 134.664 191.551 134.861C191.471 135.055 191.43 135.26 191.43 135.477C191.43 135.766 191.497 136.034 191.631 136.281C191.767 136.528 191.952 136.727 192.186 136.878C192.422 137.026 192.689 137.101 192.986 137.101Z" fill="#9F9F9F"/>
<path d="M226.143 130.242V137.977H224.972V131.413H224.926L223.076 132.621V131.503L225.006 130.242H226.143ZM228.073 136.466V135.522L231.415 130.242H232.159V131.632H231.687L229.296 135.416V135.477H233.878V136.466H228.073ZM231.74 137.977V136.179L231.747 135.748V130.242H232.854V137.977H231.74ZM235.662 138.049C235.456 138.049 235.278 137.976 235.13 137.83C234.981 137.681 234.907 137.502 234.907 137.293C234.907 137.087 234.981 136.91 235.13 136.764C235.278 136.616 235.456 136.542 235.662 136.542C235.869 136.542 236.046 136.616 236.195 136.764C236.343 136.91 236.418 137.087 236.418 137.293C236.418 137.432 236.382 137.559 236.312 137.675C236.244 137.788 236.153 137.879 236.04 137.947C235.927 138.015 235.801 138.049 235.662 138.049ZM240.328 138.105C239.731 138.103 239.221 137.945 238.798 137.633C238.375 137.321 238.051 136.866 237.827 136.27C237.603 135.673 237.491 134.954 237.491 134.113C237.491 133.275 237.603 132.558 237.827 131.964C238.054 131.37 238.379 130.917 238.802 130.604C239.227 130.292 239.736 130.136 240.328 130.136C240.919 130.136 241.427 130.293 241.85 130.608C242.273 130.92 242.596 131.374 242.82 131.968C243.047 132.559 243.16 133.275 243.16 134.113C243.16 134.957 243.048 135.677 242.824 136.273C242.6 136.868 242.277 137.322 241.853 137.637C241.43 137.949 240.922 138.105 240.328 138.105ZM240.328 137.097C240.851 137.097 241.261 136.841 241.555 136.33C241.852 135.819 242.001 135.08 242.001 134.113C242.001 133.471 241.933 132.928 241.797 132.485C241.663 132.04 241.471 131.702 241.219 131.473C240.97 131.241 240.673 131.126 240.328 131.126C239.806 131.126 239.397 131.382 239.1 131.896C238.803 132.41 238.653 133.149 238.651 134.113C238.651 134.758 238.717 135.303 238.851 135.748C238.987 136.192 239.179 136.528 239.429 136.757C239.678 136.983 239.978 137.097 240.328 137.097ZM247.201 138.083C246.856 138.078 246.516 138.015 246.181 137.894C245.849 137.773 245.546 137.571 245.274 137.289C245.002 137.007 244.785 136.628 244.621 136.153C244.46 135.677 244.379 135.082 244.379 134.37C244.379 133.695 244.446 133.096 244.579 132.572C244.715 132.048 244.911 131.606 245.165 131.246C245.419 130.884 245.726 130.608 246.086 130.419C246.447 130.23 246.851 130.136 247.299 130.136C247.76 130.136 248.169 130.227 248.526 130.408C248.884 130.589 249.173 130.84 249.395 131.16C249.619 131.479 249.761 131.843 249.822 132.251H248.67C248.592 131.929 248.437 131.666 248.205 131.462C247.974 131.258 247.671 131.156 247.299 131.156C246.732 131.156 246.29 131.402 245.973 131.896C245.658 132.39 245.5 133.076 245.497 133.954H245.554C245.687 133.735 245.851 133.549 246.045 133.395C246.241 133.239 246.46 133.12 246.702 133.037C246.946 132.951 247.203 132.908 247.473 132.908C247.921 132.908 248.326 133.018 248.689 133.237C249.054 133.453 249.345 133.753 249.561 134.136C249.778 134.518 249.886 134.957 249.886 135.45C249.886 135.944 249.774 136.391 249.55 136.791C249.328 137.191 249.016 137.508 248.613 137.743C248.21 137.974 247.739 138.088 247.201 138.083ZM247.197 137.101C247.494 137.101 247.76 137.028 247.994 136.882C248.228 136.735 248.413 136.539 248.549 136.292C248.685 136.046 248.753 135.77 248.753 135.465C248.753 135.168 248.686 134.897 248.553 134.653C248.422 134.409 248.241 134.215 248.009 134.071C247.78 133.928 247.518 133.856 247.223 133.856C246.999 133.856 246.791 133.899 246.6 133.985C246.411 134.07 246.245 134.189 246.102 134.34C245.958 134.491 245.845 134.664 245.762 134.861C245.681 135.055 245.641 135.26 245.641 135.477C245.641 135.766 245.707 136.034 245.841 136.281C245.977 136.528 246.162 136.727 246.396 136.878C246.633 137.026 246.9 137.101 247.197 137.101Z" fill="#9F9F9F"/>
<path d="M279.322 130.242V137.977H278.151V131.413H278.106L276.255 132.621V131.503L278.185 130.242H279.322ZM284.115 138.083C283.77 138.078 283.43 138.015 283.095 137.894C282.763 137.773 282.46 137.571 282.188 137.289C281.916 137.007 281.699 136.628 281.535 136.153C281.374 135.677 281.293 135.082 281.293 134.37C281.293 133.695 281.36 133.096 281.493 132.572C281.629 132.048 281.825 131.606 282.079 131.246C282.333 130.884 282.64 130.608 283 130.419C283.361 130.23 283.765 130.136 284.213 130.136C284.674 130.136 285.083 130.227 285.44 130.408C285.798 130.589 286.087 130.84 286.309 131.16C286.533 131.479 286.675 131.843 286.736 132.251H285.584C285.506 131.929 285.351 131.666 285.119 131.462C284.888 131.258 284.585 131.156 284.213 131.156C283.646 131.156 283.204 131.402 282.887 131.896C282.572 132.39 282.414 133.076 282.411 133.954H282.468C282.601 133.735 282.765 133.549 282.959 133.395C283.155 133.239 283.374 133.12 283.616 133.037C283.86 132.951 284.117 132.908 284.387 132.908C284.835 132.908 285.24 133.018 285.603 133.237C285.968 133.453 286.259 133.753 286.475 134.136C286.692 134.518 286.8 134.957 286.8 135.45C286.8 135.944 286.688 136.391 286.464 136.791C286.242 137.191 285.93 137.508 285.527 137.743C285.124 137.974 284.653 138.088 284.115 138.083ZM284.111 137.101C284.408 137.101 284.674 137.028 284.908 136.882C285.142 136.735 285.327 136.539 285.463 136.292C285.599 136.046 285.667 135.77 285.667 135.465C285.667 135.168 285.6 134.897 285.467 134.653C285.336 134.409 285.155 134.215 284.923 134.071C284.694 133.928 284.432 133.856 284.137 133.856C283.913 133.856 283.705 133.899 283.514 133.985C283.325 134.07 283.159 134.189 283.016 134.34C282.872 134.491 282.759 134.664 282.676 134.861C282.595 135.055 282.555 135.26 282.555 135.477C282.555 135.766 282.622 136.034 282.755 136.281C282.891 136.528 283.076 136.727 283.31 136.878C283.547 137.026 283.814 137.101 284.111 137.101ZM288.582 138.049C288.375 138.049 288.198 137.976 288.049 137.83C287.901 137.681 287.826 137.502 287.826 137.293C287.826 137.087 287.901 136.91 288.049 136.764C288.198 136.616 288.375 136.542 288.582 136.542C288.788 136.542 288.966 136.616 289.114 136.764C289.263 136.91 289.337 137.087 289.337 137.293C289.337 137.432 289.302 137.559 289.231 137.675C289.163 137.788 289.073 137.879 288.959 137.947C288.846 138.015 288.72 138.049 288.582 138.049ZM293.247 138.105C292.65 138.103 292.141 137.945 291.718 137.633C291.295 137.321 290.971 136.866 290.747 136.27C290.523 135.673 290.411 134.954 290.411 134.113C290.411 133.275 290.523 132.558 290.747 131.964C290.973 131.37 291.298 130.917 291.721 130.604C292.147 130.292 292.655 130.136 293.247 130.136C293.839 130.136 294.346 130.293 294.769 130.608C295.192 130.92 295.516 131.374 295.74 131.968C295.967 132.559 296.08 133.275 296.08 134.113C296.08 134.957 295.968 135.677 295.744 136.273C295.52 136.868 295.196 137.322 294.773 137.637C294.35 137.949 293.841 138.105 293.247 138.105ZM293.247 137.097C293.771 137.097 294.18 136.841 294.475 136.33C294.772 135.819 294.92 135.08 294.92 134.113C294.92 133.471 294.852 132.928 294.716 132.485C294.583 132.04 294.39 131.702 294.139 131.473C293.889 131.241 293.592 131.126 293.247 131.126C292.726 131.126 292.317 131.382 292.02 131.896C291.723 132.41 291.573 133.149 291.57 134.113C291.57 134.758 291.637 135.303 291.77 135.748C291.906 136.192 292.099 136.528 292.348 136.757C292.598 136.983 292.897 137.097 293.247 137.097ZM300.12 138.083C299.775 138.078 299.435 138.015 299.1 137.894C298.768 137.773 298.466 137.571 298.194 137.289C297.922 137.007 297.704 136.628 297.541 136.153C297.379 135.677 297.299 135.082 297.299 134.37C297.299 133.695 297.366 133.096 297.499 132.572C297.635 132.048 297.83 131.606 298.084 131.246C298.339 130.884 298.646 130.608 299.006 130.419C299.366 130.23 299.77 130.136 300.218 130.136C300.679 130.136 301.088 130.227 301.446 130.408C301.803 130.589 302.093 130.84 302.315 131.16C302.539 131.479 302.681 131.843 302.741 132.251H301.589C301.511 131.929 301.356 131.666 301.125 131.462C300.893 131.258 300.591 131.156 300.218 131.156C299.652 131.156 299.21 131.402 298.893 131.896C298.578 132.39 298.419 133.076 298.417 133.954H298.473C298.607 133.735 298.771 133.549 298.964 133.395C299.161 133.239 299.38 133.12 299.622 133.037C299.866 132.951 300.123 132.908 300.392 132.908C300.84 132.908 301.246 133.018 301.608 133.237C301.973 133.453 302.264 133.753 302.481 134.136C302.697 134.518 302.806 134.957 302.806 135.45C302.806 135.944 302.693 136.391 302.469 136.791C302.248 137.191 301.936 137.508 301.533 137.743C301.13 137.974 300.659 138.088 300.12 138.083ZM300.116 137.101C300.414 137.101 300.679 137.028 300.913 136.882C301.147 136.735 301.333 136.539 301.469 136.292C301.604 136.046 301.672 135.77 301.672 135.465C301.672 135.168 301.606 134.897 301.472 134.653C301.341 134.409 301.16 134.215 300.928 134.071C300.699 133.928 300.437 133.856 300.143 133.856C299.919 133.856 299.711 133.899 299.52 133.985C299.331 134.07 299.165 134.189 299.021 134.34C298.878 134.491 298.764 134.664 298.681 134.861C298.601 135.055 298.56 135.26 298.56 135.477C298.56 135.766 298.627 136.034 298.76 136.281C298.896 136.528 299.082 136.727 299.316 136.878C299.552 137.026 299.819 137.101 300.116 137.101Z" fill="#9F9F9F"/>
<path d="M334.74 130.242V137.977H333.569V131.413H333.524L331.673 132.621V131.503L333.603 130.242H334.74ZM339.446 138.083C338.905 138.083 338.426 137.989 338.011 137.803C337.598 137.617 337.274 137.36 337.04 137.033C336.806 136.705 336.69 136.333 336.693 135.915C336.69 135.587 336.757 135.286 336.893 135.012C337.031 134.735 337.219 134.505 337.456 134.321C337.692 134.134 337.957 134.016 338.249 133.966V133.92C337.864 133.827 337.555 133.621 337.323 133.301C337.092 132.981 336.977 132.614 336.98 132.198C336.977 131.803 337.082 131.45 337.293 131.141C337.507 130.828 337.801 130.583 338.173 130.404C338.546 130.225 338.97 130.136 339.446 130.136C339.917 130.136 340.337 130.227 340.708 130.408C341.08 130.587 341.374 130.832 341.588 131.144C341.802 131.454 341.91 131.805 341.912 132.198C341.91 132.614 341.792 132.981 341.557 133.301C341.323 133.621 341.019 133.827 340.643 133.92V133.966C340.933 134.016 341.194 134.134 341.425 134.321C341.659 134.505 341.846 134.735 341.984 135.012C342.125 135.286 342.197 135.587 342.199 135.915C342.197 136.333 342.079 136.705 341.844 137.033C341.61 137.36 341.285 137.617 340.87 137.803C340.457 137.989 339.982 138.083 339.446 138.083ZM339.446 137.127C339.766 137.127 340.043 137.074 340.277 136.968C340.511 136.86 340.692 136.71 340.821 136.519C340.949 136.325 341.015 136.098 341.017 135.839C341.015 135.57 340.944 135.332 340.806 135.125C340.67 134.919 340.485 134.756 340.251 134.638C340.016 134.52 339.748 134.461 339.446 134.461C339.141 134.461 338.871 134.52 338.634 134.638C338.397 134.756 338.211 134.919 338.075 135.125C337.939 135.332 337.872 135.57 337.875 135.839C337.872 136.098 337.934 136.325 338.06 136.519C338.188 136.71 338.371 136.86 338.608 136.968C338.844 137.074 339.124 137.127 339.446 137.127ZM339.446 133.528C339.703 133.528 339.931 133.476 340.13 133.373C340.329 133.27 340.485 133.126 340.598 132.942C340.714 132.758 340.773 132.543 340.776 132.296C340.773 132.055 340.715 131.843 340.602 131.662C340.491 131.481 340.336 131.341 340.137 131.243C339.938 131.142 339.708 131.092 339.446 131.092C339.179 131.092 338.945 131.142 338.744 131.243C338.545 131.341 338.39 131.481 338.279 131.662C338.168 131.843 338.114 132.055 338.117 132.296C338.114 132.543 338.169 132.758 338.283 132.942C338.396 133.126 338.552 133.27 338.751 133.373C338.953 133.476 339.184 133.528 339.446 133.528ZM344.083 138.049C343.877 138.049 343.699 137.976 343.551 137.83C343.402 137.681 343.328 137.502 343.328 137.293C343.328 137.087 343.402 136.91 343.551 136.764C343.699 136.616 343.877 136.542 344.083 136.542C344.29 136.542 344.467 136.616 344.616 136.764C344.764 136.91 344.839 137.087 344.839 137.293C344.839 137.432 344.803 137.559 344.733 137.675C344.665 137.788 344.574 137.879 344.461 137.947C344.348 138.015 344.222 138.049 344.083 138.049ZM348.749 138.105C348.152 138.103 347.642 137.945 347.219 137.633C346.796 137.321 346.472 136.866 346.248 136.27C346.024 135.673 345.912 134.954 345.912 134.113C345.912 133.275 346.024 132.558 346.248 131.964C346.475 131.37 346.8 130.917 347.223 130.604C347.648 130.292 348.157 130.136 348.749 130.136C349.34 130.136 349.848 130.293 350.271 130.608C350.694 130.92 351.017 131.374 351.241 131.968C351.468 132.559 351.581 133.275 351.581 134.113C351.581 134.957 351.469 135.677 351.245 136.273C351.021 136.868 350.697 137.322 350.274 137.637C349.851 137.949 349.343 138.105 348.749 138.105ZM348.749 137.097C349.272 137.097 349.681 136.841 349.976 136.33C350.273 135.819 350.422 135.08 350.422 134.113C350.422 133.471 350.354 132.928 350.218 132.485C350.084 132.04 349.892 131.702 349.64 131.473C349.391 131.241 349.094 131.126 348.749 131.126C348.227 131.126 347.818 131.382 347.521 131.896C347.224 132.41 347.074 133.149 347.072 134.113C347.072 134.758 347.138 135.303 347.272 135.748C347.408 136.192 347.6 136.528 347.85 136.757C348.099 136.983 348.399 137.097 348.749 137.097ZM355.622 138.083C355.277 138.078 354.937 138.015 354.602 137.894C354.269 137.773 353.967 137.571 353.695 137.289C353.423 137.007 353.206 136.628 353.042 136.153C352.881 135.677 352.8 135.082 352.8 134.37C352.8 133.695 352.867 133.096 353 132.572C353.136 132.048 353.332 131.606 353.586 131.246C353.84 130.884 354.147 130.608 354.507 130.419C354.867 130.23 355.272 130.136 355.72 130.136C356.181 130.136 356.59 130.227 356.947 130.408C357.305 130.589 357.594 130.84 357.816 131.16C358.04 131.479 358.182 131.843 358.243 132.251H357.091C357.013 131.929 356.858 131.666 356.626 131.462C356.395 131.258 356.092 131.156 355.72 131.156C355.153 131.156 354.711 131.402 354.394 131.896C354.079 132.39 353.921 133.076 353.918 133.954H353.975C354.108 133.735 354.272 133.549 354.466 133.395C354.662 133.239 354.881 133.12 355.123 133.037C355.367 132.951 355.624 132.908 355.894 132.908C356.342 132.908 356.747 133.018 357.11 133.237C357.475 133.453 357.766 133.753 357.982 134.136C358.199 134.518 358.307 134.957 358.307 135.45C358.307 135.944 358.195 136.391 357.971 136.791C357.749 137.191 357.437 137.508 357.034 137.743C356.631 137.974 356.16 138.088 355.622 138.083ZM355.618 137.101C355.915 137.101 356.181 137.028 356.415 136.882C356.649 136.735 356.834 136.539 356.97 136.292C357.106 136.046 357.174 135.77 357.174 135.465C357.174 135.168 357.107 134.897 356.974 134.653C356.843 134.409 356.661 134.215 356.43 134.071C356.201 133.928 355.939 133.856 355.644 133.856C355.42 133.856 355.212 133.899 355.021 133.985C354.832 134.07 354.666 134.189 354.522 134.34C354.379 134.491 354.266 134.664 354.183 134.861C354.102 135.055 354.062 135.26 354.062 135.477C354.062 135.766 354.128 136.034 354.262 136.281C354.398 136.528 354.583 136.727 354.817 136.878C355.054 137.026 355.321 137.101 355.618 137.101Z" fill="#9F9F9F"/>
<defs>
<clipPath id="clip0_57_16422">
<rect width="240" height="87" fill="white" transform="translate(175 37)"/>
</clipPath>
<clipPath id="clip1_57_16422">
<rect width="335.912" height="101.926" fill="white" transform="translate(175.49 26.9604)"/>
</clipPath>
<clipPath id="clip2_57_16422">
<rect width="339.457" height="68.2459" fill="white" transform="translate(11.522 35.2554)"/>
</clipPath>
<clipPath id="clip3_57_16422">
<path d="M281.847 85.775C281.847 82.3485 284.624 79.5708 288.051 79.5708H291.596C295.023 79.5708 297.8 82.3485 297.8 85.775V123.886H281.847V85.775Z" fill="white"/>
</clipPath>
<clipPath id="clip4_57_16422">
<path d="M308.437 74.2528C308.437 70.8263 311.214 68.0486 314.641 68.0486H318.186C321.612 68.0486 324.39 70.8263 324.39 74.2528V123.886H308.437V74.2528Z" fill="white"/>
</clipPath>
<clipPath id="clip5_57_16422">
<path d="M335.025 81.3436C335.025 77.9171 337.803 75.1394 341.23 75.1394H344.775C348.201 75.1394 350.979 77.9171 350.979 81.3436V123.887H335.025V81.3436Z" fill="white"/>
</clipPath>
</defs>
</svg>
