<svg width="28" height="36" viewBox="0 0 28 36" fill="none" xmlns="http://www.w3.org/2000/svg">
<path d="M3.99935 35.1665C3.08268 35.1665 2.29768 34.8398 1.64435 34.1865C0.991018 33.5332 0.664907 32.7487 0.666018 31.8332V15.1665C0.666018 14.2498 0.992685 13.4648 1.64602 12.8115C2.29935 12.1582 3.0838 11.8321 3.99935 11.8332H5.66602V8.49984C5.66602 6.19428 6.4788 4.22873 8.10435 2.60317C9.72991 0.977616 11.6949 0.165394 13.9994 0.166505C16.3049 0.166505 18.2705 0.979283 19.896 2.60484C21.5216 4.23039 22.3338 6.19539 22.3327 8.49984V11.8332H23.9994C24.916 11.8332 25.701 12.1598 26.3544 12.8132C27.0077 13.4665 27.3338 14.251 27.3327 15.1665V31.8332C27.3327 32.7498 27.006 33.5348 26.3527 34.1882C25.6994 34.8415 24.9149 35.1676 23.9994 35.1665H3.99935ZM13.9994 26.8332C14.916 26.8332 15.701 26.5065 16.3544 25.8532C17.0077 25.1998 17.3338 24.4154 17.3327 23.4998C17.3327 22.5832 17.006 21.7982 16.3527 21.1448C15.6994 20.4915 14.9149 20.1654 13.9994 20.1665C13.0827 20.1665 12.2977 20.4932 11.6444 21.1465C10.991 21.7998 10.6649 22.5843 10.666 23.4998C10.666 24.4165 10.9927 25.2015 11.646 25.8548C12.2994 26.5082 13.0838 26.8343 13.9994 26.8332ZM8.99935 11.8332H18.9994V8.49984C18.9994 7.11095 18.5132 5.93039 17.541 4.95817C16.5688 3.98595 15.3882 3.49984 13.9994 3.49984C12.6105 3.49984 11.4299 3.98595 10.4577 4.95817C9.48546 5.93039 8.99935 7.11095 8.99935 8.49984V11.8332Z" fill="#4399FF"/>
</svg>
