<svg width="105" height="121" viewBox="0 0 105 121" fill="none" xmlns="http://www.w3.org/2000/svg">
<circle cx="54" cy="59.5977" r="49" fill="#F4FBFE" stroke="#24B5F4" stroke-width="2"/>
<g filter="url(#filter0_d_308_652)">
<path d="M50 40.5977C50.3315 40.5977 50.6495 40.7294 50.8839 40.9638C51.1183 41.1982 51.25 41.5161 51.25 41.8477V48.0977H58.75V41.8477C58.75 41.5161 58.8817 41.1982 59.1161 40.9638C59.3505 40.7294 59.6685 40.5977 60 40.5977C60.3315 40.5977 60.6495 40.7294 60.8839 40.9638C61.1183 41.1982 61.25 41.5161 61.25 41.8477V48.0977H63.75C64.0815 48.0977 64.3995 48.2294 64.6339 48.4638C64.8683 48.6982 65 49.0161 65 49.3477V56.8477C65 59.1683 64.0781 61.3939 62.4372 63.0348C60.7962 64.6758 58.5706 65.5977 56.25 65.5977C56.245 66.6827 56.225 67.7102 56.15 68.6477C56.0475 69.9327 55.835 71.1552 55.3575 72.2077C54.8734 73.3208 54.0157 74.2298 52.9325 74.7777C51.8125 75.3477 50.4225 75.5977 48.75 75.5977C46.255 75.5977 44.725 76.4227 43.815 77.3927C42.9934 78.2603 42.5246 79.403 42.5 80.5977H40C40 79.0577 40.58 77.1802 41.9925 75.6777C43.435 74.1477 45.6525 73.0977 48.75 73.0977C50.2025 73.0977 51.155 72.8777 51.795 72.5502C52.3975 72.2427 52.795 71.8002 53.08 71.1752C53.3825 70.5102 53.5625 69.6227 53.655 68.4502C53.7225 67.6002 53.7425 66.6552 53.7475 65.5977C51.4273 65.597 49.2023 64.6748 47.5619 63.034C45.9215 61.3931 45 59.1679 45 56.8477V49.3477C45 49.0161 45.1317 48.6982 45.3661 48.4638C45.6005 48.2294 45.9185 48.0977 46.25 48.0977H48.75V41.8477C48.75 41.5161 48.8817 41.1982 49.1161 40.9638C49.3505 40.7294 49.6685 40.5977 50 40.5977Z" fill="#24B5F4"/>
</g>
<rect x="2" y="78.5977" width="36" height="36" rx="18" fill="#F4FBFE" stroke="#24B5F4" stroke-width="2"/>
<path d="M24.9219 101.723V103.598H15.3906V101.986L20.0195 96.9375C20.5273 96.3646 20.9277 95.8698 21.2207 95.4531C21.5137 95.0365 21.7188 94.6621 21.8359 94.3301C21.9596 93.9915 22.0215 93.6628 22.0215 93.3438C22.0215 92.8945 21.9368 92.5007 21.7676 92.1621C21.6048 91.8171 21.3639 91.5469 21.0449 91.3516C20.7259 91.1497 20.3385 91.0488 19.8828 91.0488C19.3555 91.0488 18.9128 91.1628 18.5547 91.3906C18.1966 91.6185 17.9264 91.9342 17.7441 92.3379C17.5618 92.735 17.4707 93.1908 17.4707 93.7051H15.1172C15.1172 92.8783 15.306 92.123 15.6836 91.4395C16.0612 90.7493 16.6081 90.2025 17.3242 89.7988C18.0404 89.3887 18.903 89.1836 19.9121 89.1836C20.8626 89.1836 21.6699 89.3431 22.334 89.6621C22.998 89.9811 23.5026 90.4336 23.8477 91.0195C24.1992 91.6055 24.375 92.2988 24.375 93.0996C24.375 93.5423 24.3034 93.9818 24.1602 94.418C24.0169 94.8542 23.8118 95.2904 23.5449 95.7266C23.2845 96.1562 22.9753 96.5892 22.6172 97.0254C22.2591 97.4551 21.8652 97.8913 21.4355 98.334L18.3594 101.723H24.9219Z" fill="#24B5F4"/>
<defs>
<filter id="filter0_d_308_652" x="0" y="0.597656" width="105" height="120" filterUnits="userSpaceOnUse" color-interpolation-filters="sRGB">
<feFlood flood-opacity="0" result="BackgroundImageFix"/>
<feColorMatrix in="SourceAlpha" type="matrix" values="0 0 0 0 0 0 0 0 0 0 0 0 0 0 0 0 0 0 127 0" result="hardAlpha"/>
<feOffset/>
<feGaussianBlur stdDeviation="20"/>
<feComposite in2="hardAlpha" operator="out"/>
<feColorMatrix type="matrix" values="0 0 0 0 0.141176 0 0 0 0 0.709804 0 0 0 0 0.956863 0 0 0 0.6 0"/>
<feBlend mode="normal" in2="BackgroundImageFix" result="effect1_dropShadow_308_652"/>
<feBlend mode="normal" in="SourceGraphic" in2="effect1_dropShadow_308_652" result="shape"/>
</filter>
</defs>
</svg>
