<svg width="40" height="37" viewBox="0 0 40 37" xmlns="http://www.w3.org/2000/svg">
<path d="M5.5625 26.8335C7.02503 29.368 9.12934 31.4726 11.6637 32.9355C14.198 34.3984 17.0729 35.168 19.9992 35.1668C22.9254 35.168 25.8003 34.3984 28.3347 32.9355C30.869 31.4726 32.9733 29.368 34.4358 26.8335M5.5625 10.1668C7.02503 7.63229 9.12934 5.52768 11.6637 4.06479C14.198 2.60189 17.0729 1.83231 19.9992 1.8335C22.9254 1.83231 25.8003 2.60189 28.3347 4.06479C30.869 5.52768 32.9733 7.63229 34.4358 10.1668" stroke-width="2.5" stroke-linecap="round" stroke-linejoin="round"/>
<path d="M21.666 35.0837C21.666 35.0837 24.0127 31.9953 25.491 26.8337M21.666 1.91699C21.666 1.91699 24.0127 5.00366 25.491 10.167M18.3327 35.0837C18.3327 35.0837 15.986 31.997 14.5077 26.8337M18.3327 1.91699C18.3327 1.91699 15.986 5.00366 14.5077 10.167M14.9993 15.167L17.4993 23.5003L19.9993 15.167L22.4993 23.5003L24.9993 15.167M1.66602 15.167L4.16602 23.5003L6.66602 15.167L9.16601 23.5003L11.666 15.167M28.3327 15.167L30.8327 23.5003L33.3327 15.167L35.8327 23.5003L38.3327 15.167" stroke-width="2.5" stroke-linecap="round" stroke-linejoin="round"/>
</svg>
