<svg width="28" height="34" viewBox="0 0 28 34" fill="none" xmlns="http://www.w3.org/2000/svg">
<path d="M13.9993 0.333496L14.1943 0.345163C14.5664 0.389036 14.9128 0.556962 15.1777 0.821848C15.4425 1.08673 15.6105 1.43313 15.6543 1.80516L15.666 2.00016V8.66683L15.6743 8.91683C15.734 9.71045 16.0756 10.4565 16.6374 11.0202C17.1993 11.5839 17.9443 11.9279 18.7377 11.9902L18.9993 12.0002H25.666L25.861 12.0118C26.233 12.0557 26.5794 12.2236 26.8443 12.4885C27.1092 12.7534 27.2771 13.0998 27.321 13.4718L27.3327 13.6668V28.6668C27.3328 29.9422 26.8455 31.1694 25.9705 32.0973C25.0956 33.0252 23.8992 33.5837 22.626 33.6585L22.3327 33.6668H5.66602C4.39066 33.6669 3.16349 33.1796 2.23558 32.3047C1.30767 31.4298 0.74917 30.2333 0.674349 28.9602L0.666016 28.6668V5.3335C0.665945 4.05814 1.15322 2.83097 2.02815 1.90306C2.90309 0.975151 4.09953 0.41665 5.37268 0.34183L5.66602 0.333496H13.9993Z" fill="#4399FF"/>
<path d="M25.6664 8.66687H18.9997L18.998 1.99854L25.6664 8.66687Z" fill="#4399FF"/>
</svg>
