<svg width="34" height="28" fill="none" xmlns="http://www.w3.org/2000/svg"><path d="M14.417 19.833c.666.667 1.527.994 2.583.98 1.056-.013 1.833-.395 2.333-1.146l9.334-14-14 9.333c-.75.5-1.146 1.264-1.187 2.292-.041 1.027.271 1.875.937 2.541ZM17 .667c1.639 0 3.216.23 4.73.688A15.37 15.37 0 0 1 26 3.417l-3.167 2a12.614 12.614 0 0 0-2.853-1.062A12.838 12.838 0 0 0 17 4c-3.694 0-6.84 1.298-9.438 3.895-2.598 2.597-3.896 5.743-3.895 9.438 0 1.167.16 2.32.48 3.459C4.467 21.93 4.917 23 5.5 24h23a12.183 12.183 0 0 0 1.397-3.292c.292-1.138.438-2.319.436-3.541 0-1-.118-1.973-.355-2.917a12.179 12.179 0 0 0-1.061-2.75l2-3.167a18.518 18.518 0 0 1 1.98 4.167c.486 1.472.743 3 .77 4.583a16.287 16.287 0 0 1-.542 4.542 17.254 17.254 0 0 1-1.708 4.125c-.306.5-.723.889-1.25 1.167a3.53 3.53 0 0 1-1.667.416h-23a3.53 3.53 0 0 1-1.667-.416 3.161 3.161 0 0 1-1.25-1.167 16.994 16.994 0 0 1-1.666-3.98 16.541 16.541 0 0 1-.584-4.437c0-2.305.438-4.465 1.314-6.48a16.957 16.957 0 0 1 3.583-5.29 16.905 16.905 0 0 1 5.31-3.585C12.567 1.103 14.72.666 17 .667Z" fill="#0085FF"/></svg>