<svg width="15" height="15" viewBox="0 0 15 15" fill="none" xmlns="http://www.w3.org/2000/svg">
<path d="M11.1522 12.913L11.8043 12.2609L10.5 10.9565C11.087 10.3043 11.5435 9.52174 11.8043 8.73913C12.3913 9 12.9783 9.19565 13.6304 9.39131L13.8261 8.54348C13.1739 8.41304 12.587 8.15217 12 7.8913C12 7.76087 12.0652 7.63044 12.0652 7.56522C12.1304 7.04348 12.1304 6.58696 12 6.13044C12.3261 6 12.6522 5.80435 12.913 5.54348C13.3043 5.15217 13.5 4.69565 13.5652 4.23913H15V3.3913H13.5652C13.5 2.93478 13.2391 2.47826 12.913 2.08696C12.587 1.69565 12.0652 1.5 11.6087 1.43478V0H10.7609V1.43478C10.3043 1.5 9.84783 1.76087 9.45652 2.08696C9.19565 2.34783 9 2.6087 8.86957 3C8.41304 2.93478 7.95652 2.86957 7.43478 2.93478C7.30435 2.93478 7.17391 2.93478 7.1087 3C6.84783 2.41304 6.65217 1.82609 6.45652 1.17391L5.54348 1.36957C5.67391 2.02174 5.93478 2.6087 6.19565 3.19565C5.41304 3.45652 4.63043 3.91304 3.97826 4.5L2.67391 3.19565L2.02174 3.84783L3.32609 5.15217C2.73913 5.80435 2.28261 6.58696 2.02174 7.36957C1.43478 7.1087 0.847826 6.91304 0.195652 6.71739L0 7.56522C0.652174 7.69565 1.23913 7.95652 1.82609 8.21739C1.82609 8.34783 1.76087 8.47826 1.76087 8.54348C1.56522 9.91304 2.02174 11.2174 2.86957 12.0652C3.78261 12.9783 5.02174 13.3696 6.3913 13.1739C6.52174 13.1739 6.65217 13.1739 6.71739 13.1087C6.97826 13.6957 7.17391 14.2826 7.36957 14.9348L8.21739 14.7391C8.08696 14.087 7.82609 13.5 7.56522 12.913C8.34783 12.6522 9.13044 12.1957 9.78261 11.6087L11.1522 12.913ZM7.04348 2.93478C7.56522 4.04348 8.21739 4.95652 9.06522 5.86957C9.91304 6.71739 10.8261 7.36957 12 7.8913L11.7391 8.73913C10.5 8.21739 9.3913 7.43478 8.41304 6.45652C7.5 5.54348 6.71739 4.36957 6.19565 3.19565L7.04348 2.93478ZM6.06522 10.6304V8.86957H4.30435V8.02174H6.06522V6.26087H6.91304V8.02174H8.67391V8.86957H6.91304V10.6304H6.06522Z" fill="#E26666"/>
</svg>
