<svg width="18" height="22" viewBox="0 0 18 22" fill="none" xmlns="http://www.w3.org/2000/svg">
<path d="M13.6245 13C11.8401 15.3514 9.90706 17.9054 8.64312 19.3243C8.60595 19.3243 8.60595 19.2838 8.56877 19.2432C7.9368 18.6351 7.15613 17.8243 6.33829 16.8919L5 18.3514C6.67286 20.2568 8.2342 21.6757 8.56877 21.9595C8.60595 22 8.64312 22 8.64312 22C8.64312 22 12.9926 16.8108 15 14.4595L13.6245 13Z" fill="#4EB594"/>
<path d="M9 4L4 6.14815C4 6.14815 4.43624 9.81482 5.54362 12.2593C6.51678 14.4074 8.7651 16.8519 9 17C9.2349 16.8519 11.5839 14.2593 12.557 12.1111C13.6644 9.66667 14 6.14815 14 6.14815L9 4Z" fill="#3D88C8"/>
<path d="M17.9318 3.65611L8.9968 0L0.061837 3.65611C0.061837 3.65611 -0.573704 8.68778 2.23015 13.3575C2.79093 14.2624 3.46385 15.1674 4.21155 16L5.5574 14.6968C4.92186 13.9729 4.3237 13.1765 3.87508 12.4163C2.26754 9.80996 1.93108 6.84163 1.89369 5.17647C2.67877 4.74208 8.32387 2.53394 8.9968 2.28054C9.63234 2.53394 15.3148 4.74208 16.0999 5.17647C16.0625 6.51584 15.8382 8.68778 14.941 10.8597L16.399 12.2715C18.4925 7.9276 17.9318 3.65611 17.9318 3.65611Z" fill="#3D88C8"/>
</svg>
