<svg width="26" height="34" fill="none" xmlns="http://www.w3.org/2000/svg"><path d="M22.5 11.583h-1.583V8.417A7.92 7.92 0 0 0 13 .5a7.92 7.92 0 0 0-7.917 7.917v3.166H3.5A3.176 3.176 0 0 0 .333 14.75v15.833A3.176 3.176 0 0 0 3.5 33.75h19a3.176 3.176 0 0 0 3.167-3.167V14.75a3.176 3.176 0 0 0-3.167-3.167ZM13 25.833a3.176 3.176 0 0 1-3.167-3.166A3.176 3.176 0 0 1 13 19.5a3.176 3.176 0 0 1 3.167 3.167A3.176 3.176 0 0 1 13 25.833Zm4.908-14.25H8.092V8.417c0-2.708 2.2-4.909 4.908-4.909a4.913 4.913 0 0 1 4.908 4.909v3.166Z" fill="#D53636" fill-opacity=".8"/></svg>