<svg width="130" height="42" fill="none" xmlns="http://www.w3.org/2000/svg"><g clip-path="url(#a)"><path d="M21.196 42C32.9 42 42.39 32.598 42.39 21S32.901 0 21.196 0C9.49 0 0 9.402 0 21s9.49 21 21.196 21Z" fill="#2972FF"/><path d="M33.612 28.966c-.835-2.285-1.988-4.259-3.267-6.086-.075-.136-.138-.271-.223-.407-.07-.273.052-.557.128-.82.118-.299.24-.583.335-.9.18-.43.321-.873.427-1.325.314-1.224.452-2.485.413-3.747v-1.233c0-.462 0-1.064-.048-1.5-.058-1.453-.255-2.725-.73-3.753a1.01 1.01 0 0 0-.077-.168v-.014a9.526 9.526 0 0 0-.464-.963v-.008a14.96 14.96 0 0 0-1.78-2.702c-.671-.82-1.422-1.568-2.395-2.077a3.542 3.542 0 0 0-1.65-.463h-.264a2.46 2.46 0 0 0-.734.15 1.11 1.11 0 0 0-.33.21c-.18.218-.3.48-.344.76a1.313 1.313 0 0 0 0 .427c.062.916.589 1.51.983 2.13.406.663.766 1.35 1.077 2.062v.016c.054.114.093.238.145.352v.017c.036.07.054.158.095.222a14.55 14.55 0 0 1 .855 3.933c.007.117.011.262.014.375a.392.392 0 0 1-.174.336c-.032.023-.066.042-.098.062-1.028.326-5.45.655-6.356.621-.534-.018-1.032-.136-1.442-.493a8.011 8.011 0 0 1-1.472-1.75c-.177-.36-.382-.73-.551-1.09a12.298 12.298 0 0 1-.688-2.26c-.12-.803-.28-1.6-.48-2.388-.221-.783-.483-1.49-1.032-1.858-.676-.448-1.464-.074-1.82.417a4.677 4.677 0 0 0-.45.836 7.876 7.876 0 0 0-.55 2.453c-.035.353-.051.709-.049 1.064.051.948.212 1.886.482 2.797a16.9 16.9 0 0 0 .613 1.6c.046.107.095.21.15.313a13.76 13.76 0 0 0 1.984 3.049c-1.149.844-2.27 1.719-2.837 3.136a4.961 4.961 0 0 0-.168 1.125c-.321.451-.79.818-1.15 1.249-.433.526-1.109 1.092-1.537 1.787-.231.33-.443.674-.636 1.028-.189.383-.315.852-.091 1.305.137.286.364.42.481.623a1.521 1.521 0 0 1-.166 1.803c-.188.205-.426.374-.551.661-.465.954-.354 2.744.948 2.72.236-.022.467-.075.688-.162.236 1.401 1.118 2.171 2.69 2.26.67.02 1.34-.06 1.984-.241.15-.056.307-.093.467-.112.15.046.296.102.442.165 1.024.346 2.136.672 3.207.938a21.1 21.1 0 0 0 4.102.647c.311.018.622.018.933 0 .365 0 .726-.05 1.077-.148-.215-.068-.33-.085-.551-.163a37.901 37.901 0 0 1-3.73-1.305c-1.354-.546-2.615-1.198-3.656-2.08a2.794 2.794 0 0 0-.335-.328c-.243-.317-.497-.613-.61-1.012-.066-.228-.032-.288.09-.498.123-.21.377-.653.223-.994-.154-.34-.777-.297-1.208-.217-.133.039-.269.07-.404.09a3.33 3.33 0 0 1-.558-.074c-.825-.137-1.689-.322-2.393-.66-.275-.13-.601-.299-.63-.588-.036-.37.533-.818.656-.954.616-.488 1.327-1.004 2.338-1.134.33-.039.689 0 1.038-.112-.486.038-.818-.136-1.167-.271a7.4 7.4 0 0 0-2.117-.44 6.92 6.92 0 0 0-1.392.091h-.208c-.349-.02-.154-.487-.054-.682.265-.512.725-.983 1.033-1.345.31-.291.602-.595.93-.864.456-.375.944-.71 1.459-1 .072-.379.183-.75.334-1.105.834-1.865 2.202-3.188 4.008-4.083.258-.104.528-.214.78-.335.443-.135.883-.29 1.334-.408a16.296 16.296 0 0 1 2.42-.346c.551-.011.88-.032 1.357 0 .623.063 1.243.168 1.854.312.254.076.8.252 1.17.409.197.081.494.326.706.291a.446.446 0 0 0 .202-.056c.164-.067.315-.162.447-.28a1.58 1.58 0 0 0 .426-.784c.08-.38.112-.77.095-1.16-.093-1.702-.713-2.883-1.279-4.115-.038-.056-.414-.863-.464-.966a29.466 29.466 0 0 0-2.301-3.9 2.224 2.224 0 0 1-.335-.57.707.707 0 0 1 .107-.699c.123-.147.413-.13.431-.13.236.061.467.143.689.242 2.179 1.023 3.35 3.042 4.098 5.481 0 0 .511 2.164.611 3.27v.362a1.994 1.994 0 0 1-.11.644c-.056.15-.116.3-.18.448-.053.117-.128.224-.172.347-.318.802-.633 1.792-.5 2.926.06.252.302.46.482.68.161.193.3.403.413.626.098.305.155.622.17.94a2.23 2.23 0 0 1-.008.337c-.04.403-.113.8-.215 1.191-.215.602-.434 1.063-1.092 1.344a.859.859 0 0 1-.085.028l-.089.025c.15.168.62.81.636.833 1.22 1.773 2.354 3.63 2.555 6.415v.665c-.109 2.3-.984 3.847-2.118 5.13.525-.192 1.014-.52 1.71-.438 1.008.109 1.24 1.27 1.283 2.366v.351c-.006.38-.031.76-.075 1.138-.024.188-.026.285-.046.4a21.286 21.286 0 0 0 3.527-2.512c-.277-2.86-.814-5.473-1.646-7.753v-.002ZM15.384 15.564a19.284 19.284 0 0 1-2.476-3.311 12.602 12.602 0 0 1-.343-.676 9.526 9.526 0 0 1-.636-2.296 5.3 5.3 0 0 1 .219-1.773c.034-.117.076-.232.127-.344.137-.318.32-.648.605-.65.338-.005.602.553.74.846.184.409.275.781.413 1.162v.02c.054.169.098.344.154.516v.014c.025.053.024.137.052.188v.015c.017.077.044.137.057.21.492 1.942.853 4.011 1.178 6.118-.022.055-.08-.03-.089-.04h-.001Z" fill="#fff"/><path d="M26.826 20.335c-1.068.354-2.136-.098-3.193-.185-.917-.1-1.926.616-2.264 1.47.72-.375 1.321-.238 2.114-.02 1.238.355 3.103.322 3.343-1.265ZM16.636 37.06c0-.44.16-1.056.575-1.158-.778-.224-1.628-.371-2.43-.569 0 0 .046 2.455.034 2.715 0 0 .01.592-.035 1.017-.07.648-.092 1.296-.176 1.898.917.297 1.852.532 2.802.7-.347-1.437-.742-2.85-.77-4.603Z" fill="#fff"/><path d="M58.29 23.642c-1.614 0-3.212 1.232-3.212 2.807 0 3.222 4.501 3.086 7.195 2.743v1.471C60.944 31.555 59.609 32 58.248 32c-5.284 0-7.743-4.761-7.743-9.349 0-4.186 2.765-9.045 7.543-9.045 3.888 0 7.127 3.495 7.127 7.366 0 1.23-1.872 3.082-3.03 3.082-1.308.004-2.566-.412-3.856-.412Zm-2.736-4.32c0 .582 1.568 1.883 2.355 1.883.953 0 2.487-1.333 2.487-2.225 0-1.096-1.363-2.26-2.487-2.26-1.43.006-2.355 1.101-2.355 2.613v-.013.002ZM73.74 31.079c-2.114 0-4.06-.685-4.303-3.462a90.682 90.682 0 0 1-.376-8.564c0-3.114.174-7.806.683-11.06.376-.406 1.023-.994 1.568-.994l.444.17c.993 2.33 1.263 6.166 1.263 8.327 0 2.496-.303 4.965-.303 7.425 0 3.903 1.636 4.762 3.272 4.995.886.175 1.775.105 2.459.175.988.104 1.534.48 1.57 1.302.134.859-.957 1.47-2.524 1.609-1.258.143-2.798.077-3.753.077Zm18.875.001c-.825.342-3.039.443-3.825.443-3.651 0-6.108.238-7.263-4.351a4.959 4.959 0 0 1-.103-1.232c0-3.528 1.877-5.067 3.647-6.027.82-.48 1.672-.825 2.325-1.2.576-.343.816-.654.816-1.026 0-.787-1.33-.89-1.91-1.1-.752-.271-1.362-.684-1.362-1.61 0-1.164 1.941-1.538 2.824-1.538 4.853 0 5.771 4.078 5.771 7.773 0 2.026.546 4.044.546 6.065-.002.77-.082 1.54-.24 2.294-.513.48-.48 1.16-1.226 1.508v.001ZM85 25.732c0 1.094.72 2.189 1.679 2.189 1.873 0 3.134-1.504 3.066-3.458-.066-1.746-1.496-1.955-2.183-1.955-1.054 0-2.56 2.026-2.56 3.224H85Zm27.097 5.31c-.344 0-.749-.205-1.091-.27-1.979-2.536-1.095-5.41-1.095-8.324 0-.612.134-3.455-.612-3.455-2.934 0-1.884 5.682-1.884 7.396 0 .995-.614 4.554-2.042 4.554-2.658 0-1.947-6.3-1.947-7.91 0-.928.243-4.177-1.16-4.177-1.33 0-1.708 2.296-1.708 3.32 0 1.543.344 3.083.344 4.657 0 1.338-.549 4.214-2.321 4.214-.992 0-1.738-3.254-1.882-6.849-.136-3.32-.036-6.885-.036-7.843 0-1.68 1.23-2.124 2.42-2.124 2.628 0 5.221-.65 7.849-.65 6.308 0 7.095 4.554 7.095 9.553 0 .687.099 2.538-.034 4.25-.158 1.981-.808 3.659-1.898 3.659h.002Zm15.727.038c-.823.342-3.038.443-3.822.443-3.65 0-6.105.238-7.264-4.351a4.997 4.997 0 0 1-.103-1.232c0-3.528 1.882-5.067 3.649-6.027.817-.48 1.673-.825 2.321-1.2.583-.343.817-.654.817-1.026 0-.787-1.331-.89-1.907-1.1-.754-.271-1.365-.684-1.365-1.61 0-1.164 1.941-1.538 2.824-1.538 4.841 0 5.765 4.078 5.765 7.773 0 2.026.546 4.044.546 6.065 0 .77-.081 1.54-.239 2.294-.507.48-.475 1.16-1.222 1.508v.001Zm-7.609-5.348c0 1.094.715 2.189 1.67 2.189 1.882 0 3.138-1.504 3.072-3.458-.067-1.746-1.502-1.955-2.176-1.955-1.063 0-2.566 2.026-2.566 3.224Z" fill="#22252A"/></g><defs><clipPath id="a"><path fill="#fff" d="M0 0h130v42H0z"/></clipPath></defs></svg>