<svg width="32" height="33" fill="none" xmlns="http://www.w3.org/2000/svg"><path d="M16 .667a1.584 1.584 0 0 1 1.583 1.583v.087a14.256 14.256 0 0 1 12.58 12.58h.087a1.583 1.583 0 0 1 0 3.166h-.087a14.256 14.256 0 0 1-12.58 12.58v.087a1.583 1.583 0 1 1-3.166 0v-.087a14.257 14.257 0 0 1-12.58-12.58H1.75a1.583 1.583 0 1 1 0-3.166h.087a14.256 14.256 0 0 1 12.58-12.58V2.25A1.584 1.584 0 0 1 16 .667Zm1.583 4.86V7a1.583 1.583 0 0 1-3.155.185L14.417 7V5.527a11.093 11.093 0 0 0-9.323 8.988l-.065.402H6.5a1.584 1.584 0 0 1 .185 3.155l-.185.011H5.028a11.093 11.093 0 0 0 8.987 9.323l.402.065V26a1.583 1.583 0 0 1 3.155-.185l.011.185v1.473a11.093 11.093 0 0 0 9.323-8.988l.065-.402h-1.47a1.584 1.584 0 0 1-.186-3.155l.185-.011h1.473a11.093 11.093 0 0 0-8.987-9.323l-.403-.067ZM16 14.125a2.375 2.375 0 1 1 0 4.75 2.375 2.375 0 0 1 0-4.75Z" fill="url(#a)"/><defs><linearGradient id="a" x1=".167" y1="16.81" x2="29.742" y2="16.81" gradientUnits="userSpaceOnUse"><stop stop-color="#27C58B"/><stop offset="1" stop-color="#029E81"/></linearGradient></defs></svg>