<svg width="28" height="14" viewBox="0 0 28 14" fill="none" xmlns="http://www.w3.org/2000/svg">
<path d="M27.1009 0.645195C26.9755 0.518734 26.8263 0.418359 26.6618 0.34986C26.4974 0.281361 26.3211 0.246094 26.143 0.246094C25.9648 0.246094 25.7885 0.281361 25.6241 0.34986C25.4597 0.418359 25.3104 0.518734 25.185 0.645195L16.6984 9.14538L10.9103 3.34367C10.7849 3.21721 10.6356 3.11683 10.4712 3.04833C10.3068 2.97983 10.1305 2.94457 9.95235 2.94457C9.77423 2.94457 9.59788 2.97983 9.43347 3.04833C9.26905 3.11683 9.11983 3.21721 8.9944 3.34367L0.899096 11.4391C0.772636 11.5645 0.672262 11.7137 0.603764 11.8782C0.535266 12.0426 0.5 12.2189 0.5 12.397C0.5 12.5752 0.535266 12.7515 0.603764 12.9159C0.672262 13.0803 0.772636 13.2296 0.899096 13.355C1.02452 13.4815 1.17375 13.5818 1.33816 13.6503C1.50258 13.7188 1.67893 13.7541 1.85704 13.7541C2.03515 13.7541 2.2115 13.7188 2.37592 13.6503C2.54033 13.5818 2.68956 13.4815 2.81499 13.355L9.95235 6.20405L15.7405 12.0058C15.8659 12.1322 16.0151 12.2326 16.1796 12.3011C16.344 12.3696 16.5203 12.4049 16.6984 12.4049C16.8765 12.4049 17.0529 12.3696 17.2173 12.3011C17.3817 12.2326 17.531 12.1322 17.6564 12.0058L27.1009 2.56111C27.2274 2.43568 27.3277 2.28645 27.3962 2.12204C27.4647 1.95762 27.5 1.78127 27.5 1.60315C27.5 1.42504 27.4647 1.24868 27.3962 1.08427C27.3277 0.919851 27.2274 0.770624 27.1009 0.645195Z" fill="#333333"/>
<path d="M27.1009 0.645195C26.9755 0.518734 26.8263 0.418359 26.6618 0.34986C26.4974 0.281361 26.3211 0.246094 26.143 0.246094C25.9648 0.246094 25.7885 0.281361 25.6241 0.34986C25.4597 0.418359 25.3104 0.518734 25.185 0.645195L16.6984 9.14538L10.9103 3.34367C10.7849 3.21721 10.6356 3.11683 10.4712 3.04833C10.3068 2.97983 10.1305 2.94457 9.95235 2.94457C9.77423 2.94457 9.59788 2.97983 9.43347 3.04833C9.26905 3.11683 9.11983 3.21721 8.9944 3.34367L0.899096 11.4391C0.772636 11.5645 0.672262 11.7137 0.603764 11.8782C0.535266 12.0426 0.5 12.2189 0.5 12.397C0.5 12.5752 0.535266 12.7515 0.603764 12.9159C0.672262 13.0803 0.772636 13.2296 0.899096 13.355C1.02452 13.4815 1.17375 13.5818 1.33816 13.6503C1.50258 13.7188 1.67893 13.7541 1.85704 13.7541C2.03515 13.7541 2.2115 13.7188 2.37592 13.6503C2.54033 13.5818 2.68956 13.4815 2.81499 13.355L9.95235 6.20405L15.7405 12.0058C15.8659 12.1322 16.0151 12.2326 16.1796 12.3011C16.344 12.3696 16.5203 12.4049 16.6984 12.4049C16.8765 12.4049 17.0529 12.3696 17.2173 12.3011C17.3817 12.2326 17.531 12.1322 17.6564 12.0058L27.1009 2.56111C27.2274 2.43568 27.3277 2.28645 27.3962 2.12204C27.4647 1.95762 27.5 1.78127 27.5 1.60315C27.5 1.42504 27.4647 1.24868 27.3962 1.08427C27.3277 0.919851 27.2274 0.770624 27.1009 0.645195Z" fill="white"/>
<path d="M27.1009 0.645195C26.9755 0.518734 26.8263 0.418359 26.6618 0.34986C26.4974 0.281361 26.3211 0.246094 26.143 0.246094C25.9648 0.246094 25.7885 0.281361 25.6241 0.34986C25.4597 0.418359 25.3104 0.518734 25.185 0.645195L16.6984 9.14538L10.9103 3.34367C10.7849 3.21721 10.6356 3.11683 10.4712 3.04833C10.3068 2.97983 10.1305 2.94457 9.95235 2.94457C9.77423 2.94457 9.59788 2.97983 9.43347 3.04833C9.26905 3.11683 9.11983 3.21721 8.9944 3.34367L0.899096 11.4391C0.772636 11.5645 0.672262 11.7137 0.603764 11.8782C0.535266 12.0426 0.5 12.2189 0.5 12.397C0.5 12.5752 0.535266 12.7515 0.603764 12.9159C0.672262 13.0803 0.772636 13.2296 0.899096 13.355C1.02452 13.4815 1.17375 13.5818 1.33816 13.6503C1.50258 13.7188 1.67893 13.7541 1.85704 13.7541C2.03515 13.7541 2.2115 13.7188 2.37592 13.6503C2.54033 13.5818 2.68956 13.4815 2.81499 13.355L9.95235 6.20405L15.7405 12.0058C15.8659 12.1322 16.0151 12.2326 16.1796 12.3011C16.344 12.3696 16.5203 12.4049 16.6984 12.4049C16.8765 12.4049 17.0529 12.3696 17.2173 12.3011C17.3817 12.2326 17.531 12.1322 17.6564 12.0058L27.1009 2.56111C27.2274 2.43568 27.3277 2.28645 27.3962 2.12204C27.4647 1.95762 27.5 1.78127 27.5 1.60315C27.5 1.42504 27.4647 1.24868 27.3962 1.08427C27.3277 0.919851 27.2274 0.770624 27.1009 0.645195Z" fill="url(#paint0_linear_129_15103)"/>
<defs>
<linearGradient id="paint0_linear_129_15103" x1="0.5" y1="0.246094" x2="11.3102" y2="21.8538" gradientUnits="userSpaceOnUse">
<stop stop-color="#2395FE"/>
<stop offset="1" stop-color="#139890"/>
</linearGradient>
</defs>
</svg>
