<svg width="15" height="15" viewBox="0 0 15 15" fill="none" xmlns="http://www.w3.org/2000/svg">
<path d="M14.6739 6.3913H13.2391C12.8478 3.84783 10.8261 1.82609 8.28261 1.43478V0H6.45652V1.43478C3.91304 1.82609 1.8913 3.84783 1.5 6.3913H0V8.21739H1.43478C1.82609 10.7609 3.84783 12.7826 6.3913 13.1739V14.6087H8.21739V13.1739C10.7609 12.7826 12.7826 10.7609 13.1739 8.21739H14.6087V6.3913H14.6739ZM11.3478 6.3913H9.91304C9.65217 5.6087 9 4.95652 8.21739 4.69565V3.26087C9.78261 3.65217 10.9565 4.82609 11.3478 6.3913ZM7.30435 8.21739C6.78261 8.21739 6.3913 7.82609 6.3913 7.30435C6.3913 6.78261 6.78261 6.3913 7.30435 6.3913C7.82609 6.3913 8.21739 6.78261 8.21739 7.30435C8.21739 7.82609 7.82609 8.21739 7.30435 8.21739ZM6.3913 3.26087V4.69565C5.6087 4.95652 4.95652 5.6087 4.69565 6.3913H3.26087C3.65217 4.82609 4.82609 3.65217 6.3913 3.26087ZM3.26087 8.21739H4.69565C4.95652 9 5.6087 9.58696 6.3913 9.91304V11.3478C4.82609 10.9565 3.65217 9.78261 3.26087 8.21739ZM8.21739 11.3478V9.91304C9 9.65217 9.58696 9 9.91304 8.21739H11.3478C10.9565 9.78261 9.78261 10.9565 8.21739 11.3478Z" fill="#27C58B"/>
</svg>
