<svg width="18" height="17" viewBox="0 0 18 17" fill="none" xmlns="http://www.w3.org/2000/svg">
<path d="M13.4516 12.9917L15.7784 15.3184C15.9349 15.4758 16.0227 15.6887 16.0227 15.9106C16.0227 16.1325 15.9349 16.3454 15.7784 16.5028C15.621 16.6593 15.4081 16.7471 15.1862 16.7471C14.9643 16.7471 14.7514 16.6593 14.594 16.5028L12.4184 14.3357C11.7004 15.0002 10.8042 15.4409 9.83961 15.604V8.0778C9.83961 7.85503 9.75111 7.64137 9.59358 7.48385C9.43605 7.32632 9.22239 7.23782 8.99961 7.23782C8.77683 7.23782 8.56317 7.32632 8.40564 7.48385C8.24811 7.64137 8.15961 7.85503 8.15961 8.0778V15.604C7.19483 15.4414 6.29854 15.0006 5.58081 14.3357L3.40521 16.5028C3.24782 16.6593 3.03493 16.7471 2.81301 16.7471C2.59109 16.7471 2.37819 16.6593 2.22081 16.5028C2.06436 16.3454 1.97654 16.1325 1.97654 15.9106C1.97654 15.6887 2.06436 15.4758 2.22081 15.3184L4.54761 12.9917C4.28324 12.496 4.10433 11.9593 4.01841 11.4041H1.43961C1.21683 11.4041 1.00317 11.3156 0.84564 11.1581C0.688109 11.0006 0.599609 10.7869 0.599609 10.5641C0.599609 10.3414 0.688109 10.1277 0.84564 9.97019C1.00317 9.81266 1.21683 9.72416 1.43961 9.72416H3.95961V7.54861L1.38081 4.96987C1.22436 4.81249 1.13654 4.5996 1.13654 4.37769C1.13654 4.15578 1.22436 3.94288 1.38081 3.7855C1.53819 3.62905 1.75109 3.54124 1.97301 3.54124C2.19493 3.54124 2.40782 3.62905 2.56521 3.7855L4.32921 5.54946H13.67L15.434 3.7855C15.5914 3.62905 15.8043 3.54124 16.0262 3.54124C16.2481 3.54124 16.461 3.62905 16.6184 3.7855C16.7749 3.94288 16.8627 4.15578 16.8627 4.37769C16.8627 4.5996 16.7749 4.81249 16.6184 4.96987L14.0396 7.54861V9.72416H16.5596C16.7824 9.72416 16.996 9.81266 17.1536 9.97019C17.3111 10.1277 17.3996 10.3414 17.3996 10.5641C17.3996 10.7869 17.3111 11.0006 17.1536 11.1581C16.996 11.3156 16.7824 11.4041 16.5596 11.4041H13.9808C13.8968 11.9669 13.712 12.5045 13.4516 12.9917ZM13.1996 4.68428H4.79961C4.79961 3.5704 5.24211 2.50213 6.02976 1.7145C6.81741 0.926864 7.8857 0.484375 8.99961 0.484375C10.1135 0.484375 11.1818 0.926864 11.9695 1.7145C12.7571 2.50213 13.1996 3.5704 13.1996 4.68428Z" fill="#A4A4A4"/>
</svg>
