<svg width="24" height="24" viewBox="0 0 24 24" fill="none" xmlns="http://www.w3.org/2000/svg">
<path d="M12 0C5.37256 0 0 5.36732 0 11.9883C0 18.6092 5.37256 23.9766 12 23.9766C18.6274 23.9766 24 18.6092 24 11.9883C24 5.36732 18.6274 0 12 0ZM17.5622 8.153C17.3816 10.0486 16.6002 14.6488 16.2025 16.772C16.0343 17.6703 15.7031 17.9716 15.3825 18.001C14.6857 18.0651 14.1564 17.541 13.4815 17.099C12.4253 16.4073 11.8287 15.9768 10.8034 15.3018C9.61868 14.5219 10.3867 14.0933 11.0619 13.3924C11.2386 13.2091 14.309 10.419 14.3685 10.1659C14.3759 10.1343 14.383 10.0161 14.3126 9.954C14.2423 9.89193 14.1389 9.91296 14.0641 9.92983C13.9582 9.95387 12.271 11.068 9.00247 13.2721C8.5236 13.6007 8.08982 13.7607 7.70114 13.7523C7.27268 13.7431 6.4485 13.5104 5.83577 13.3113C5.08427 13.0673 4.48698 12.9383 4.539 12.5238C4.5661 12.3079 4.86368 12.0872 5.43174 11.8616C8.93 10.3389 11.2627 9.33508 12.4299 8.85001C15.7624 7.46522 16.4549 7.22468 16.9062 7.21665C17.0055 7.21501 17.2275 7.23957 17.3712 7.35612C17.4668 7.43914 17.5278 7.555 17.542 7.68077C17.5664 7.83693 17.5731 7.99533 17.5622 8.153Z" fill="white"/>
</svg>
