<svg width="34" height="36" viewBox="0 0 34 36" fill="none" xmlns="http://www.w3.org/2000/svg">
<path d="M28.4337 11.4048L29.7504 8.48815L32.6671 7.17149C32.8125 7.1052 32.9359 6.99846 33.0224 6.864C33.1089 6.72954 33.1549 6.57303 33.1549 6.41315C33.1549 6.25327 33.1089 6.09677 33.0224 5.96231C32.9359 5.82785 32.8125 5.72111 32.6671 5.65482L29.7504 4.33815L28.4337 1.40482C28.3674 1.25933 28.2607 1.13598 28.1262 1.04948C27.9918 0.962984 27.8353 0.916992 27.6754 0.916992C27.5155 0.916992 27.359 0.962984 27.2245 1.04948C27.0901 1.13598 26.9833 1.25933 26.9171 1.40482L25.6004 4.32149L22.6671 5.63815C22.5216 5.70444 22.3982 5.81118 22.3117 5.94564C22.2252 6.0801 22.1792 6.23661 22.1792 6.39649C22.1792 6.55636 22.2252 6.71287 22.3117 6.84733C22.3982 6.98179 22.5216 7.08853 22.6671 7.15482L25.5837 8.47148L26.9004 11.4048C27.2004 12.0548 28.1337 12.0548 28.4337 11.4048ZM15.1671 13.9048L12.5171 8.07149C11.9337 6.77149 10.0671 6.77149 9.48372 8.07149L6.83372 13.9048L1.00039 16.5548C-0.299609 17.1548 -0.299609 19.0048 1.00039 19.5882L6.83372 22.2382L9.48372 28.0715C10.0837 29.3715 11.9337 29.3715 12.5171 28.0715L15.1671 22.2382L21.0004 19.5882C22.3004 18.9882 22.3004 17.1382 21.0004 16.5548L15.1671 13.9048ZM26.9004 24.7382L25.5837 27.6548L22.6671 28.9715C22.5216 29.0378 22.3982 29.1445 22.3117 29.279C22.2252 29.4134 22.1792 29.5699 22.1792 29.7298C22.1792 29.8897 22.2252 30.0462 22.3117 30.1807C22.3982 30.3151 22.5216 30.4219 22.6671 30.4882L25.5837 31.8048L26.9004 34.7382C26.9667 34.8836 27.0734 35.007 27.2079 35.0935C27.3423 35.18 27.4988 35.226 27.6587 35.226C27.8186 35.226 27.9751 35.18 28.1096 35.0935C28.244 35.007 28.3508 34.8836 28.4171 34.7382L29.7337 31.8215L32.6671 30.5048C32.8125 30.4385 32.9359 30.3318 33.0224 30.1973C33.1089 30.0629 33.1549 29.9064 33.1549 29.7465C33.1549 29.5866 33.1089 29.4301 33.0224 29.2956C32.9359 29.1612 32.8125 29.0544 32.6671 28.9882L29.7504 27.6715L28.4337 24.7382C28.3654 24.5925 28.2571 24.4692 28.1213 24.3829C27.9855 24.2966 27.828 24.2507 27.6671 24.2507C27.5062 24.2507 27.3486 24.2966 27.2128 24.3829C27.077 24.4692 26.9687 24.5925 26.9004 24.7382Z" fill="#EFB503"/>
</svg>
