<svg width="40" height="41" viewBox="0 0 40 41" fill="none" xmlns="http://www.w3.org/2000/svg">
<g clip-path="url(#clip0_304_801)">
<path d="M19.9993 3.8335L20.1943 3.84516C20.5664 3.88904 20.9128 4.05696 21.1777 4.32185C21.4425 4.58673 21.6105 4.93313 21.6543 5.30516L21.666 5.50016V12.1668L21.6743 12.4168C21.734 13.2104 22.0756 13.9565 22.6374 14.5202C23.1993 15.0839 23.9443 15.4279 24.7377 15.4902L24.9993 15.5002H31.666L31.861 15.5118C32.233 15.5557 32.5794 15.7236 32.8443 15.9885C33.1092 16.2534 33.2771 16.5998 33.321 16.9718L33.3327 17.1668V32.1668C33.3328 33.4422 32.8455 34.6694 31.9705 35.5973C31.0956 36.5252 29.8992 37.0837 28.626 37.1585L28.3327 37.1668H11.666C10.3907 37.1669 9.16349 36.6796 8.23558 35.8047C7.30767 34.9298 6.74917 33.7333 6.67435 32.4602L6.66602 32.1668V8.8335C6.66594 7.55814 7.15322 6.33097 8.02815 5.40306C8.90309 4.47515 10.0995 3.91665 11.3727 3.84183L11.666 3.8335H19.9993Z" fill="#EFB503"/>
<path d="M31.6664 12.1669H24.9997L24.998 5.49854L31.6664 12.1669Z" fill="#EFB503"/>
</g>
<defs>
<clipPath id="clip0_304_801">
<rect width="40" height="40" fill="white" transform="translate(0 0.5)"/>
</clipPath>
</defs>
</svg>
