<svg width="87" height="31" viewBox="0 0 87 31" fill="none" xmlns="http://www.w3.org/2000/svg">
<g clip-path="url(#clip0_9526_13311)">
<rect width="87" height="31" rx="4" fill="#FCFCFC"/>
<g clip-path="url(#clip1_9526_13311)">
<g clip-path="url(#clip2_9526_13311)">
<path d="M14.9157 25.6526C10.6161 26.7533 5.95243 27.9537 3.11728 28.4433C3.0695 28.4087 3.10409 28.361 3.09089 28.2787C2.79738 26.9743 2.48567 25.2928 2.22994 23.4337L-0.735358 23.9017C-0.210701 27.7023 0.585646 30.8268 0.773585 31.4725C0.786782 31.5548 0.834564 31.5895 0.834564 31.5895C0.834564 31.5895 10.8523 29.5441 15.4385 28.6515L14.9157 25.6526Z" fill="#4EB594"/>
<path d="M16.854 9.30827L7.72835 6.90739C7.72835 6.90739 4.92545 12.0773 4.21956 16.3676C3.59924 20.1378 4.51798 25.6068 4.71411 26.0402C5.18694 26.0922 10.9528 25.1822 14.3445 23.4228C18.2041 21.4207 21.9676 17.2388 21.9676 17.2388L16.854 9.30827Z" fill="#3D88C8"/>
<path d="M28.3498 17.4965L20.423 4.39599L5.50961 0.924672C5.50961 0.924672 -0.110239 6.96132 -0.988201 15.7108C-1.13613 17.4226 -1.1407 19.2384 -0.980534 21.0281L1.98477 20.5601C1.86419 19.0174 1.86057 17.414 2.0135 15.9969C2.44907 11.0739 4.85513 6.85302 6.39833 4.62556C7.81681 4.78158 17.1418 7.10879 18.244 7.39915C18.8142 8.32221 23.9674 16.4997 24.5558 17.7998C23.2283 19.5289 20.8664 22.181 17.6444 24.2091L18.1591 27.4203C24.9853 23.6415 28.3498 17.4965 28.3498 17.4965Z" fill="#3D88C8"/>
<path d="M15.4104 28.7017L14.9222 25.6552C10.6226 26.7559 5.95892 27.9563 3.12377 28.446C3.07598 28.4113 0.806463 31.6398 0.806463 31.6398C0.806463 31.6398 10.7764 29.5597 15.4104 28.7017Z" fill="#029E81"/>
<path d="M17.6414 24.2096L18.1561 27.4208C24.9823 23.642 28.3468 17.497 28.3468 17.497L20.4199 4.39648L18.241 7.39965C18.8112 8.32271 23.9644 16.5002 24.5528 17.8003C23.2253 19.5294 20.8634 22.1815 17.6414 24.2096Z" fill="#057BAA"/>
<path d="M21.9691 17.2371C21.9691 17.2371 18.2055 21.419 14.346 23.4211C10.9542 25.1805 5.18838 26.0905 4.71556 26.0385L16.8555 9.30664L21.9691 17.2371Z" fill="#057BAA"/>
</g>
</g>
<path d="M36.1592 10.5918H35.1729V9.89355H36.0225C36.3252 9.89355 36.571 9.84961 36.7598 9.76172C36.9486 9.67057 37.0853 9.54525 37.1699 9.38574C37.2578 9.22298 37.3018 9.03418 37.3018 8.81934C37.3018 8.62728 37.2529 8.4515 37.1553 8.29199C37.0609 8.13249 36.9144 8.00553 36.7158 7.91113C36.5173 7.81348 36.2617 7.76465 35.9492 7.76465C35.7148 7.76465 35.5016 7.80697 35.3096 7.8916C35.1175 7.97624 34.9645 8.09505 34.8506 8.24805C34.7399 8.40104 34.6846 8.58171 34.6846 8.79004H33.459C33.459 8.48079 33.5241 8.2041 33.6543 7.95996C33.7878 7.71257 33.9684 7.5026 34.1963 7.33008C34.4274 7.15755 34.6927 7.02572 34.9922 6.93457C35.2949 6.84017 35.6139 6.79297 35.9492 6.79297C36.3398 6.79297 36.693 6.83691 37.0088 6.9248C37.3245 7.00944 37.5964 7.13639 37.8242 7.30566C38.0521 7.47493 38.2262 7.68652 38.3467 7.94043C38.4671 8.19108 38.5273 8.48242 38.5273 8.81445C38.5273 9.05859 38.4704 9.28809 38.3564 9.50293C38.2458 9.71777 38.0863 9.90658 37.8779 10.0693C37.6696 10.2321 37.4189 10.3607 37.126 10.4551C36.8363 10.5462 36.514 10.5918 36.1592 10.5918ZM35.1729 10.167H36.1592C36.5531 10.167 36.903 10.2077 37.209 10.2891C37.515 10.3704 37.7738 10.4893 37.9854 10.6455C38.1969 10.8018 38.3581 10.9954 38.4688 11.2266C38.5794 11.4544 38.6348 11.7165 38.6348 12.0127C38.6348 12.3447 38.568 12.641 38.4346 12.9014C38.3044 13.1585 38.1188 13.3766 37.8779 13.5557C37.637 13.7347 37.3522 13.8698 37.0234 13.9609C36.6979 14.0521 36.3398 14.0977 35.9492 14.0977C35.6335 14.0977 35.321 14.0586 35.0117 13.9805C34.7057 13.8991 34.4274 13.7754 34.1768 13.6094C33.9294 13.4401 33.7308 13.2253 33.5811 12.9648C33.4313 12.7044 33.3564 12.3919 33.3564 12.0273H34.5869C34.5869 12.2292 34.6439 12.4147 34.7578 12.584C34.875 12.75 35.0345 12.8835 35.2363 12.9844C35.4414 13.082 35.679 13.1309 35.9492 13.1309C36.2585 13.1309 36.5205 13.082 36.7354 12.9844C36.9535 12.8867 37.1195 12.7533 37.2334 12.584C37.3506 12.4147 37.4092 12.2243 37.4092 12.0127C37.4092 11.8109 37.3783 11.6367 37.3164 11.4902C37.2578 11.3405 37.1699 11.2201 37.0527 11.1289C36.9355 11.0345 36.7907 10.9645 36.6182 10.9189C36.4456 10.8734 36.2471 10.8506 36.0225 10.8506H35.1729V10.167ZM42.6582 12.9404V10.4209C42.6582 10.2321 42.624 10.0693 42.5557 9.93262C42.4873 9.7959 42.3831 9.6901 42.2432 9.61523C42.1064 9.54036 41.9339 9.50293 41.7256 9.50293C41.5335 9.50293 41.3675 9.53548 41.2275 9.60059C41.0876 9.66569 40.9785 9.75358 40.9004 9.86426C40.8223 9.97493 40.7832 10.1003 40.7832 10.2402H39.6113C39.6113 10.0319 39.6618 9.83008 39.7627 9.63477C39.8636 9.43945 40.0101 9.2653 40.2021 9.1123C40.3942 8.95931 40.6237 8.83887 40.8906 8.75098C41.1576 8.66309 41.457 8.61914 41.7891 8.61914C42.1862 8.61914 42.5378 8.68587 42.8438 8.81934C43.153 8.9528 43.3955 9.15462 43.5713 9.4248C43.7503 9.69173 43.8398 10.027 43.8398 10.4307V12.7793C43.8398 13.0202 43.8561 13.2367 43.8887 13.4287C43.9245 13.6175 43.9749 13.7819 44.04 13.9219V14H42.834C42.7786 13.873 42.7347 13.7119 42.7021 13.5166C42.6729 13.318 42.6582 13.126 42.6582 12.9404ZM42.8291 10.7871L42.8389 11.5146H41.9941C41.776 11.5146 41.584 11.5358 41.418 11.5781C41.252 11.6172 41.1136 11.6758 41.0029 11.7539C40.8923 11.832 40.8092 11.9264 40.7539 12.0371C40.6986 12.1478 40.6709 12.2731 40.6709 12.4131C40.6709 12.5531 40.7035 12.6816 40.7686 12.7988C40.8337 12.9128 40.9281 13.0023 41.0518 13.0674C41.1787 13.1325 41.3317 13.165 41.5107 13.165C41.7516 13.165 41.9616 13.1162 42.1406 13.0186C42.3229 12.9176 42.4661 12.7956 42.5703 12.6523C42.6745 12.5059 42.7298 12.3675 42.7363 12.2373L43.1172 12.7598C43.0781 12.8932 43.0114 13.0365 42.917 13.1895C42.8226 13.3424 42.6989 13.4889 42.5459 13.6289C42.3962 13.7656 42.2155 13.8779 42.0039 13.9658C41.7956 14.0537 41.5547 14.0977 41.2812 14.0977C40.9362 14.0977 40.6286 14.0293 40.3584 13.8926C40.0882 13.7526 39.8766 13.5654 39.7236 13.3311C39.5706 13.0934 39.4941 12.8249 39.4941 12.5254C39.4941 12.2454 39.5462 11.998 39.6504 11.7832C39.7578 11.5651 39.9141 11.3828 40.1191 11.2363C40.3275 11.0898 40.5814 10.9792 40.8809 10.9043C41.1803 10.8262 41.5221 10.7871 41.9062 10.7871H42.8291ZM52.8779 13.0674L52.7852 15.5674H51.7061V14H51.0713V13.0674H52.8779ZM45.0752 8.7168H46.252V13.0625H47.9316V8.7168H49.1133V13.0625H50.7881V8.7168H51.9648V14H45.0752V8.7168ZM54.9678 12.2812L57.043 8.7168H58.2197V14H57.043V10.4307L54.9678 14H53.791V8.7168H54.9678V12.2812ZM67.2725 13.0674L67.1797 15.5674H66.1006V14H65.4658V13.0674H67.2725ZM59.4697 8.7168H60.6465V13.0625H62.3262V8.7168H63.5078V13.0625H65.1826V8.7168H66.3594V14H59.4697V8.7168ZM70.4756 14.0977C70.085 14.0977 69.7318 14.0342 69.416 13.9072C69.1035 13.777 68.8366 13.5964 68.6152 13.3652C68.3971 13.1341 68.2295 12.8623 68.1123 12.5498C67.9951 12.2373 67.9365 11.9004 67.9365 11.5391V11.3438C67.9365 10.9303 67.9967 10.556 68.1172 10.2207C68.2376 9.88542 68.4053 9.59896 68.6201 9.36133C68.835 9.12044 69.0889 8.93652 69.3818 8.80957C69.6748 8.68262 69.9922 8.61914 70.334 8.61914C70.7116 8.61914 71.042 8.68262 71.3252 8.80957C71.6084 8.93652 71.8428 9.11556 72.0283 9.34668C72.2171 9.57454 72.3571 9.84635 72.4482 10.1621C72.5426 10.4779 72.5898 10.8262 72.5898 11.207V11.71H68.5078V10.8652H71.4277V10.7725C71.4212 10.5609 71.3789 10.3623 71.3008 10.1768C71.2259 9.99121 71.1104 9.84147 70.9541 9.72754C70.7979 9.61361 70.5895 9.55664 70.3291 9.55664C70.1338 9.55664 69.9596 9.59896 69.8066 9.68359C69.6569 9.76497 69.5316 9.88379 69.4307 10.04C69.3298 10.1963 69.2516 10.3851 69.1963 10.6064C69.1442 10.8245 69.1182 11.0703 69.1182 11.3438V11.5391C69.1182 11.7702 69.1491 11.985 69.2109 12.1836C69.276 12.3789 69.3704 12.5498 69.4941 12.6963C69.6178 12.8428 69.7676 12.9583 69.9434 13.043C70.1191 13.1243 70.3193 13.165 70.5439 13.165C70.8271 13.165 71.0794 13.1081 71.3008 12.9941C71.5221 12.8802 71.7142 12.7191 71.877 12.5107L72.4971 13.1113C72.3831 13.2773 72.235 13.4368 72.0527 13.5898C71.8704 13.7396 71.6475 13.8617 71.3838 13.9561C71.1234 14.0505 70.8206 14.0977 70.4756 14.0977ZM77.1162 10.9238V11.8516H74.3818V10.9238H77.1162ZM74.7236 8.7168V14H73.5469V8.7168H74.7236ZM77.9658 8.7168V14H76.7891V8.7168H77.9658ZM33.3809 22.417V22.3047C33.3809 21.9238 33.4362 21.5706 33.5469 21.2451C33.6576 20.9163 33.8171 20.6315 34.0254 20.3906C34.237 20.1465 34.4941 19.9577 34.7969 19.8242C35.1029 19.6875 35.4479 19.6191 35.832 19.6191C36.2194 19.6191 36.5645 19.6875 36.8672 19.8242C37.1732 19.9577 37.432 20.1465 37.6436 20.3906C37.8551 20.6315 38.0163 20.9163 38.127 21.2451C38.2376 21.5706 38.293 21.9238 38.293 22.3047V22.417C38.293 22.7979 38.2376 23.151 38.127 23.4766C38.0163 23.8021 37.8551 24.0869 37.6436 24.3311C37.432 24.5719 37.1748 24.7607 36.8721 24.8975C36.5693 25.0309 36.2259 25.0977 35.8418 25.0977C35.4544 25.0977 35.1077 25.0309 34.8018 24.8975C34.499 24.7607 34.2419 24.5719 34.0303 24.3311C33.8187 24.0869 33.6576 23.8021 33.5469 23.4766C33.4362 23.151 33.3809 22.7979 33.3809 22.417ZM34.5576 22.3047V22.417C34.5576 22.6546 34.582 22.8792 34.6309 23.0908C34.6797 23.3024 34.7562 23.488 34.8604 23.6475C34.9645 23.807 35.098 23.9323 35.2607 24.0234C35.4235 24.1146 35.6172 24.1602 35.8418 24.1602C36.0599 24.1602 36.2487 24.1146 36.4082 24.0234C36.571 23.9323 36.7044 23.807 36.8086 23.6475C36.9128 23.488 36.9893 23.3024 37.0381 23.0908C37.0902 22.8792 37.1162 22.6546 37.1162 22.417V22.3047C37.1162 22.0703 37.0902 21.849 37.0381 21.6406C36.9893 21.429 36.9111 21.2419 36.8037 21.0791C36.6995 20.9163 36.5661 20.7894 36.4033 20.6982C36.2438 20.6038 36.0534 20.5566 35.832 20.5566C35.6107 20.5566 35.4186 20.6038 35.2559 20.6982C35.0964 20.7894 34.9645 20.9163 34.8604 21.0791C34.7562 21.2419 34.6797 21.429 34.6309 21.6406C34.582 21.849 34.5576 22.0703 34.5576 22.3047ZM41.6133 19.7168V25H40.4316V19.7168H41.6133ZM43.3467 19.7168V20.6445H38.7275V19.7168H43.3467ZM49.9385 17.4023H50.8906C50.8906 17.6921 50.8499 17.9313 50.7686 18.1201C50.6904 18.3057 50.5732 18.4587 50.417 18.5791C50.264 18.6963 50.0736 18.7907 49.8457 18.8623C49.6211 18.9339 49.3607 18.999 49.0645 19.0576C48.791 19.1162 48.5436 19.209 48.3223 19.3359C48.1042 19.4596 47.9202 19.6338 47.7705 19.8584C47.624 20.0798 47.5182 20.3646 47.4531 20.7129C47.388 21.0612 47.3685 21.486 47.3945 21.9873V22.3193L46.4619 22.4023V22.0703C46.4619 21.4486 46.5189 20.9066 46.6328 20.4443C46.7467 19.9821 46.9079 19.5931 47.1162 19.2773C47.3278 18.9583 47.5785 18.7044 47.8682 18.5156C48.1611 18.3268 48.4867 18.1966 48.8447 18.125C49.0889 18.0729 49.2923 18.0208 49.4551 17.9688C49.6178 17.9134 49.7383 17.8434 49.8164 17.7588C49.8978 17.6709 49.9385 17.5521 49.9385 17.4023ZM49.1133 20.0146C49.4648 20.0146 49.7773 20.0765 50.0508 20.2002C50.3242 20.3206 50.5553 20.4899 50.7441 20.708C50.9329 20.9261 51.0762 21.1833 51.1738 21.4795C51.2747 21.7757 51.3252 22.098 51.3252 22.4463V22.5537C51.3252 22.9183 51.2715 23.2552 51.1641 23.5645C51.0566 23.8737 50.8988 24.1439 50.6904 24.375C50.4821 24.6029 50.2266 24.7819 49.9238 24.9121C49.6243 25.0391 49.2809 25.1025 48.8936 25.1025C48.5094 25.1025 48.166 25.0358 47.8633 24.9023C47.5605 24.7689 47.305 24.5833 47.0967 24.3457C46.8883 24.1048 46.7305 23.8232 46.623 23.501C46.5156 23.1787 46.4619 22.8271 46.4619 22.4463V22.3389C46.4587 22.2705 46.4766 22.2038 46.5156 22.1387C46.5579 22.0736 46.6084 22.0036 46.667 21.9287C46.7256 21.8538 46.7777 21.7676 46.8232 21.6699C46.986 21.3411 47.1781 21.0531 47.3994 20.8057C47.6208 20.5583 47.873 20.3646 48.1562 20.2246C48.4427 20.0846 48.7617 20.0146 49.1133 20.0146ZM48.8838 20.9473C48.5908 20.9473 48.3516 21.0173 48.166 21.1572C47.9837 21.2939 47.8486 21.4762 47.7607 21.7041C47.6761 21.932 47.6338 22.1794 47.6338 22.4463V22.5537C47.6338 22.7718 47.6582 22.9785 47.707 23.1738C47.7559 23.3691 47.8291 23.5417 47.9268 23.6914C48.0277 23.8379 48.1579 23.9535 48.3174 24.0381C48.4801 24.1227 48.6722 24.165 48.8936 24.165C49.1182 24.165 49.3086 24.1227 49.4648 24.0381C49.6243 23.9535 49.7529 23.8379 49.8506 23.6914C49.9515 23.5417 50.0247 23.3691 50.0703 23.1738C50.1191 22.9785 50.1436 22.7718 50.1436 22.5537V22.4463C50.1436 22.2445 50.1191 22.054 50.0703 21.875C50.0247 21.696 49.9515 21.5381 49.8506 21.4014C49.7497 21.2614 49.6195 21.1507 49.46 21.0693C49.3005 20.988 49.1084 20.9473 48.8838 20.9473ZM52.0234 22.417V22.3047C52.0234 21.9238 52.0788 21.5706 52.1895 21.2451C52.3001 20.9163 52.4596 20.6315 52.668 20.3906C52.8796 20.1465 53.1367 19.9577 53.4395 19.8242C53.7454 19.6875 54.0905 19.6191 54.4746 19.6191C54.862 19.6191 55.207 19.6875 55.5098 19.8242C55.8158 19.9577 56.0745 20.1465 56.2861 20.3906C56.4977 20.6315 56.6589 20.9163 56.7695 21.2451C56.8802 21.5706 56.9355 21.9238 56.9355 22.3047V22.417C56.9355 22.7979 56.8802 23.151 56.7695 23.4766C56.6589 23.8021 56.4977 24.0869 56.2861 24.3311C56.0745 24.5719 55.8174 24.7607 55.5146 24.8975C55.2119 25.0309 54.8685 25.0977 54.4844 25.0977C54.097 25.0977 53.7503 25.0309 53.4443 24.8975C53.1416 24.7607 52.8844 24.5719 52.6729 24.3311C52.4613 24.0869 52.3001 23.8021 52.1895 23.4766C52.0788 23.151 52.0234 22.7979 52.0234 22.417ZM53.2002 22.3047V22.417C53.2002 22.6546 53.2246 22.8792 53.2734 23.0908C53.3223 23.3024 53.3988 23.488 53.5029 23.6475C53.6071 23.807 53.7406 23.9323 53.9033 24.0234C54.0661 24.1146 54.2598 24.1602 54.4844 24.1602C54.7025 24.1602 54.8913 24.1146 55.0508 24.0234C55.2135 23.9323 55.347 23.807 55.4512 23.6475C55.5553 23.488 55.6318 23.3024 55.6807 23.0908C55.7327 22.8792 55.7588 22.6546 55.7588 22.417V22.3047C55.7588 22.0703 55.7327 21.849 55.6807 21.6406C55.6318 21.429 55.5537 21.2419 55.4463 21.0791C55.3421 20.9163 55.2087 20.7894 55.0459 20.6982C54.8864 20.6038 54.696 20.5566 54.4746 20.5566C54.2533 20.5566 54.0612 20.6038 53.8984 20.6982C53.7389 20.7894 53.6071 20.9163 53.5029 21.0791C53.3988 21.2419 53.3223 21.429 53.2734 21.6406C53.2246 21.849 53.2002 22.0703 53.2002 22.3047ZM60.2559 19.7168V25H59.0742V19.7168H60.2559ZM61.9893 19.7168V20.6445H57.3701V19.7168H61.9893ZM62.3652 22.417V22.3047C62.3652 21.9238 62.4206 21.5706 62.5312 21.2451C62.6419 20.9163 62.8014 20.6315 63.0098 20.3906C63.2214 20.1465 63.4785 19.9577 63.7812 19.8242C64.0872 19.6875 64.4323 19.6191 64.8164 19.6191C65.2038 19.6191 65.5488 19.6875 65.8516 19.8242C66.1576 19.9577 66.4163 20.1465 66.6279 20.3906C66.8395 20.6315 67.0007 20.9163 67.1113 21.2451C67.222 21.5706 67.2773 21.9238 67.2773 22.3047V22.417C67.2773 22.7979 67.222 23.151 67.1113 23.4766C67.0007 23.8021 66.8395 24.0869 66.6279 24.3311C66.4163 24.5719 66.1592 24.7607 65.8564 24.8975C65.5537 25.0309 65.2103 25.0977 64.8262 25.0977C64.4388 25.0977 64.0921 25.0309 63.7861 24.8975C63.4834 24.7607 63.2262 24.5719 63.0146 24.3311C62.8031 24.0869 62.6419 23.8021 62.5312 23.4766C62.4206 23.151 62.3652 22.7979 62.3652 22.417ZM63.542 22.3047V22.417C63.542 22.6546 63.5664 22.8792 63.6152 23.0908C63.6641 23.3024 63.7406 23.488 63.8447 23.6475C63.9489 23.807 64.0824 23.9323 64.2451 24.0234C64.4079 24.1146 64.6016 24.1602 64.8262 24.1602C65.0443 24.1602 65.2331 24.1146 65.3926 24.0234C65.5553 23.9323 65.6888 23.807 65.793 23.6475C65.8971 23.488 65.9736 23.3024 66.0225 23.0908C66.0745 22.8792 66.1006 22.6546 66.1006 22.417V22.3047C66.1006 22.0703 66.0745 21.849 66.0225 21.6406C65.9736 21.429 65.8955 21.2419 65.7881 21.0791C65.6839 20.9163 65.5505 20.7894 65.3877 20.6982C65.2282 20.6038 65.0378 20.5566 64.8164 20.5566C64.5951 20.5566 64.403 20.6038 64.2402 20.6982C64.0807 20.7894 63.9489 20.9163 63.8447 21.0791C63.7406 21.2419 63.6641 21.429 63.6152 21.6406C63.5664 21.849 63.542 22.0703 63.542 22.3047ZM70.832 22.7393H69.1426L69.1328 21.9092H70.5195C70.7474 21.9092 70.9346 21.8864 71.0811 21.8408C71.2308 21.7952 71.3415 21.7269 71.4131 21.6357C71.4847 21.5413 71.5205 21.4274 71.5205 21.2939C71.5205 21.1833 71.4993 21.0872 71.457 21.0059C71.4147 20.9212 71.3496 20.8529 71.2617 20.8008C71.1771 20.7454 71.0697 20.7064 70.9395 20.6836C70.8125 20.6576 70.6644 20.6445 70.4951 20.6445H69.5332V25H68.3564V19.7168H70.4951C70.8337 19.7168 71.138 19.7461 71.4082 19.8047C71.6816 19.8633 71.9144 19.9528 72.1064 20.0732C72.2985 20.1937 72.445 20.3467 72.5459 20.5322C72.6501 20.7145 72.7021 20.9294 72.7021 21.1768C72.7021 21.3395 72.6663 21.4925 72.5947 21.6357C72.5264 21.779 72.4238 21.9059 72.2871 22.0166C72.1504 22.1273 71.9827 22.2184 71.7842 22.29C71.5856 22.3584 71.3577 22.4007 71.1006 22.417L70.832 22.7393ZM70.832 25H68.8008L69.2695 24.0723H70.832C71.0404 24.0723 71.2129 24.0462 71.3496 23.9941C71.4863 23.9421 71.5872 23.8672 71.6523 23.7695C71.7207 23.6686 71.7549 23.5498 71.7549 23.4131C71.7549 23.2731 71.7223 23.1527 71.6572 23.0518C71.5921 22.9508 71.4912 22.8743 71.3545 22.8223C71.221 22.7669 71.0469 22.7393 70.832 22.7393H69.4893L69.499 21.9092H71.0957L71.4326 22.2314C71.7679 22.2542 72.0462 22.3258 72.2676 22.4463C72.4889 22.5667 72.6549 22.7181 72.7656 22.9004C72.8763 23.0827 72.9316 23.2812 72.9316 23.4961C72.9316 23.7435 72.8844 23.9616 72.79 24.1504C72.6989 24.3392 72.5622 24.4971 72.3799 24.624C72.2008 24.7477 71.9811 24.8421 71.7207 24.9072C71.4603 24.9691 71.1641 25 70.832 25ZM75.3047 17.8906L75.1875 22.9053H74.1816L74.0596 17.8906H75.3047ZM74.0254 24.4434C74.0254 24.2643 74.084 24.1146 74.2012 23.9941C74.3216 23.8704 74.4876 23.8086 74.6992 23.8086C74.9076 23.8086 75.0719 23.8704 75.1924 23.9941C75.3128 24.1146 75.373 24.2643 75.373 24.4434C75.373 24.6159 75.3128 24.764 75.1924 24.8877C75.0719 25.0081 74.9076 25.0684 74.6992 25.0684C74.4876 25.0684 74.3216 25.0081 74.2012 24.8877C74.084 24.764 74.0254 24.6159 74.0254 24.4434Z" fill="#304249"/>
</g>
<rect x="0.5" y="0.5" width="86" height="30" rx="3.5" stroke="#C9CBCE"/>
<defs>
<clipPath id="clip0_9526_13311">
<rect width="87" height="31" rx="4" fill="white"/>
</clipPath>
<clipPath id="clip1_9526_13311">
<rect width="31" height="31" rx="3.87097" fill="white"/>
</clipPath>
<clipPath id="clip2_9526_13311">
<rect x="8.92383" y="-3.94727" width="28.4242" height="33.57" transform="rotate(35.9629 8.92383 -3.94727)" fill="white"/>
</clipPath>
</defs>
</svg>
