<svg width="40" height="37" viewBox="0 0 40 37" fill="none" xmlns="http://www.w3.org/2000/svg">
<path d="M21.666 35.0837C21.666 35.0837 24.0127 31.9953 25.491 26.8337M21.666 1.91699C21.666 1.91699 24.0127 5.00366 25.491 10.167M18.3327 35.0837C18.3327 35.0837 15.986 31.997 14.5077 26.8337M18.3327 1.91699C18.3327 1.91699 15.986 5.00366 14.5077 10.167M14.9993 15.167L17.4993 23.5003L19.9993 15.167L22.4993 23.5003L24.9993 15.167M1.66602 15.167L4.16602 23.5003L6.66602 15.167L9.16601 23.5003L11.666 15.167M28.3327 15.167L30.8327 23.5003L33.3327 15.167L35.8327 23.5003L38.3327 15.167" stroke-width="2.5" stroke-linecap="round" stroke-linejoin="round"/>
</svg>
