<svg width="654" height="258" viewBox="0 0 654 258" fill="none" xmlns="http://www.w3.org/2000/svg">
<rect width="653.6" height="258" rx="22.36" fill="white"/>
<path fill-rule="evenodd" clip-rule="evenodd" d="M78.4998 55.1952C78.4998 42.3244 68.066 31.8906 55.1952 31.8906C42.3244 31.8906 31.8906 42.3244 31.8906 55.1952C31.8906 68.0659 42.3244 78.4998 55.1952 78.4998C68.066 78.4998 78.4998 68.0659 78.4998 55.1952ZM58.3025 67.2239V52.0759H52.0879V67.2239H58.3025ZM55.1952 43.1664C56.9113 43.1664 58.3025 44.5576 58.3025 46.2737C58.3025 47.9898 56.9113 49.381 55.1952 49.381C53.4791 49.381 52.0879 47.9898 52.0879 46.2737C52.0879 44.5576 53.4791 43.1664 55.1952 43.1664Z" fill="#4399FF"/>
<path d="M104.958 66.6953V44.5214H113.707C115.389 44.5214 116.821 44.8426 118.005 45.485C119.189 46.1202 120.091 47.0044 120.712 48.1377C121.34 49.2637 121.654 50.5629 121.654 52.0354C121.654 53.5079 121.336 54.8072 120.701 55.9332C120.066 57.0592 119.146 57.9362 117.94 58.5642C116.742 59.1921 115.291 59.5061 113.588 59.5061H108.012V55.7491H112.83C113.732 55.7491 114.475 55.5939 115.06 55.2836C115.652 54.966 116.092 54.5293 116.381 53.9735C116.677 53.4105 116.825 52.7645 116.825 52.0354C116.825 51.2992 116.677 50.6568 116.381 50.1082C116.092 49.5524 115.652 49.1229 115.06 48.8198C114.468 48.5094 113.718 48.3542 112.808 48.3542H109.647V66.6953H104.958ZM128.908 67.0093C127.847 67.0093 126.901 66.8252 126.071 66.4571C125.241 66.0818 124.584 65.5296 124.101 64.8006C123.624 64.0643 123.386 63.1476 123.386 62.0505C123.386 61.1266 123.556 60.3506 123.895 59.7227C124.234 59.0947 124.696 58.5894 125.281 58.2069C125.866 57.8243 126.53 57.5356 127.273 57.3407C128.024 57.1458 128.811 57.0087 129.633 56.9293C130.601 56.8282 131.38 56.7344 131.972 56.6478C132.564 56.5539 132.993 56.4168 133.26 56.2363C133.528 56.0559 133.661 55.7888 133.661 55.4351V55.3702C133.661 54.6845 133.445 54.1539 133.011 53.7786C132.586 53.4032 131.979 53.2156 131.193 53.2156C130.362 53.2156 129.702 53.3996 129.211 53.7678C128.72 54.1287 128.396 54.5834 128.237 55.132L123.971 54.7855C124.187 53.775 124.613 52.9016 125.248 52.1654C125.884 51.4219 126.703 50.8517 127.706 50.4547C128.717 50.0505 129.886 49.8484 131.214 49.8484C132.138 49.8484 133.022 49.9566 133.867 50.1732C134.719 50.3897 135.473 50.7253 136.13 51.1801C136.794 51.6348 137.317 52.2195 137.7 52.9341C138.082 53.6414 138.273 54.4896 138.273 55.4784V66.6953H133.899V64.3891H133.769C133.502 64.9088 133.145 65.3672 132.697 65.7642C132.25 66.154 131.712 66.4607 131.084 66.6845C130.456 66.901 129.731 67.0093 128.908 67.0093ZM130.229 63.8261C130.907 63.8261 131.507 63.6926 132.026 63.4255C132.546 63.1512 132.954 62.7831 133.25 62.3212C133.546 61.8592 133.694 61.3359 133.694 60.7512V58.9864C133.549 59.0803 133.351 59.1669 133.098 59.2463C132.853 59.3185 132.575 59.387 132.264 59.452C131.954 59.5097 131.644 59.5639 131.333 59.6144C131.023 59.6577 130.741 59.6974 130.489 59.7335C129.947 59.8129 129.475 59.9392 129.07 60.1124C128.666 60.2857 128.352 60.5203 128.128 60.8162C127.905 61.1049 127.793 61.4658 127.793 61.8989C127.793 62.5269 128.02 63.0069 128.475 63.3389C128.937 63.6637 129.522 63.8261 130.229 63.8261ZM140.996 61.9855H145.468C145.49 62.5341 145.735 62.9672 146.204 63.2848C146.673 63.6024 147.28 63.7612 148.023 63.7612C148.774 63.7612 149.406 63.5879 149.918 63.2415C150.43 62.8878 150.687 62.3825 150.687 61.7257C150.687 61.3215 150.586 60.9714 150.384 60.6754C150.181 60.3723 149.9 60.1341 149.539 59.9609C149.178 59.7876 148.759 59.701 148.283 59.701H145.89V56.6802H148.283C148.998 56.6802 149.546 56.5142 149.929 56.1822C150.319 55.8502 150.513 55.4351 150.513 54.9371C150.513 54.3741 150.311 53.9229 149.907 53.5837C149.51 53.2372 148.972 53.064 148.294 53.064C147.608 53.064 147.038 53.2192 146.583 53.5296C146.136 53.8327 145.905 54.2297 145.89 54.7205H141.44C141.455 53.7245 141.754 52.8619 142.339 52.1329C142.931 51.4038 143.725 50.8408 144.721 50.4438C145.724 50.0469 146.847 49.8484 148.088 49.8484C149.445 49.8484 150.615 50.0396 151.596 50.4222C152.585 50.7975 153.343 51.3353 153.87 52.0354C154.404 52.7356 154.671 53.5693 154.671 54.5365C154.671 55.4171 154.382 56.1533 153.805 56.7452C153.227 57.3371 152.419 57.7594 151.38 58.012V58.1852C152.065 58.2285 152.686 58.4126 153.242 58.7374C153.798 59.0622 154.242 59.5097 154.574 60.08C154.906 60.643 155.072 61.3106 155.072 62.083C155.072 63.1152 154.769 63.9994 154.162 64.7356C153.563 65.4719 152.733 66.0385 151.672 66.4355C150.618 66.8252 149.409 67.0201 148.045 67.0201C146.717 67.0201 145.526 66.8288 144.472 66.4463C143.425 66.0565 142.592 65.4863 141.971 64.7356C141.357 63.9849 141.033 63.0682 140.996 61.9855ZM157.9 72.9317V50.0649H162.448V52.8583H162.653C162.855 52.4108 163.148 51.956 163.53 51.4941C163.92 51.0249 164.425 50.6351 165.046 50.3247C165.674 50.0072 166.454 49.8484 167.385 49.8484C168.597 49.8484 169.716 50.1659 170.741 50.8011C171.766 51.4291 172.585 52.3783 173.199 53.6487C173.812 54.9118 174.119 56.4962 174.119 58.4018C174.119 60.2568 173.82 61.8231 173.221 63.1007C172.629 64.3711 171.82 65.3347 170.795 65.9916C169.778 66.6412 168.637 66.966 167.374 66.966C166.479 66.966 165.717 66.818 165.089 66.5221C164.469 66.2261 163.96 65.8544 163.563 65.4069C163.166 64.9522 162.863 64.4938 162.653 64.0318H162.513V72.9317H157.9ZM162.415 58.3801C162.415 59.369 162.552 60.2315 162.827 60.9678C163.101 61.704 163.498 62.2779 164.018 62.6893C164.537 63.0935 165.169 63.2956 165.912 63.2956C166.663 63.2956 167.298 63.0899 167.818 62.6785C168.338 62.2598 168.731 61.6824 168.998 60.9461C169.272 60.2027 169.409 59.3473 169.409 58.3801C169.409 57.4201 169.276 56.5756 169.009 55.8466C168.742 55.1175 168.348 54.5473 167.829 54.1359C167.309 53.7245 166.67 53.5187 165.912 53.5187C165.162 53.5187 164.526 53.7172 164.007 54.1142C163.494 54.5112 163.101 55.0742 162.827 55.8033C162.552 56.5323 162.415 57.3912 162.415 58.3801ZM184.773 67.0201C183.062 67.0201 181.59 66.6737 180.356 65.9807C179.129 65.2806 178.183 64.2917 177.519 63.0141C176.855 61.7293 176.523 60.2099 176.523 58.4559C176.523 56.7452 176.855 55.2439 177.519 53.9518C178.183 52.6598 179.118 51.6529 180.323 50.9311C181.536 50.2093 182.958 49.8484 184.589 49.8484C185.686 49.8484 186.708 50.0252 187.653 50.3789C188.606 50.7253 189.436 51.2487 190.143 51.9488C190.858 52.649 191.414 53.5296 191.811 54.5906C192.208 55.6445 192.406 56.8787 192.406 58.2935V59.5603H178.363V56.7019H188.065C188.065 56.0378 187.92 55.4496 187.631 54.9371C187.343 54.4246 186.942 54.024 186.43 53.7353C185.924 53.4393 185.336 53.2914 184.665 53.2914C183.965 53.2914 183.344 53.4538 182.803 53.7786C182.268 54.0962 181.85 54.5257 181.547 55.067C181.243 55.6011 181.088 56.1966 181.081 56.8535V59.5711C181.081 60.3939 181.233 61.1049 181.536 61.704C181.846 62.3031 182.283 62.7651 182.846 63.0899C183.409 63.4147 184.077 63.5771 184.849 63.5771C185.361 63.5771 185.831 63.5049 186.256 63.3606C186.682 63.2162 187.047 62.9997 187.35 62.7109C187.653 62.4222 187.884 62.0685 188.043 61.6499L192.309 61.9314C192.092 62.9564 191.648 63.8514 190.977 64.6165C190.313 65.3744 189.454 65.9663 188.4 66.3922C187.354 66.8108 186.145 67.0201 184.773 67.0201ZM195.416 50.0649H199.823V63.0358H204.511V50.0649H208.918V63.0358H213.606V50.0649H218.012V66.6953H195.416V50.0649ZM225.995 60.6105L231.982 50.0649H236.529V66.6953H232.134V56.1172L226.168 66.6953H221.588V50.0649H225.995V60.6105ZM238.557 53.692V50.0649H253.628V53.692H248.269V66.6953H243.873V53.692H238.557ZM263.408 67.0201C261.697 67.0201 260.224 66.6737 258.99 65.9807C257.763 65.2806 256.817 64.2917 256.153 63.0141C255.489 61.7293 255.157 60.2099 255.157 58.4559C255.157 56.7452 255.489 55.2439 256.153 53.9518C256.817 52.6598 257.752 51.6529 258.958 50.9311C260.17 50.2093 261.592 49.8484 263.224 49.8484C264.321 49.8484 265.342 50.0252 266.288 50.3789C267.24 50.7253 268.07 51.2487 268.778 51.9488C269.492 52.649 270.048 53.5296 270.445 54.5906C270.842 55.6445 271.041 56.8787 271.041 58.2935V59.5603H256.998V56.7019H266.699C266.699 56.0378 266.555 55.4496 266.266 54.9371C265.977 54.4246 265.577 54.024 265.064 53.7353C264.559 53.4393 263.971 53.2914 263.299 53.2914C262.599 53.2914 261.978 53.4538 261.437 53.7786C260.903 54.0962 260.484 54.5257 260.181 55.067C259.878 55.6011 259.723 56.1966 259.716 56.8535V59.5711C259.716 60.3939 259.867 61.1049 260.17 61.704C260.481 62.3031 260.917 62.7651 261.48 63.0899C262.043 63.4147 262.711 63.5771 263.483 63.5771C263.996 63.5771 264.465 63.5049 264.891 63.3606C265.317 63.2162 265.681 62.9997 265.984 62.7109C266.288 62.4222 266.519 62.0685 266.677 61.6499L270.943 61.9314C270.727 62.9564 270.283 63.8514 269.612 64.6165C268.947 65.3744 268.088 65.9663 267.035 66.3922C265.988 66.8108 264.779 67.0201 263.408 67.0201ZM279.808 71.5675V63.0358H281.086C281.454 62.8048 281.75 62.4367 281.973 61.9314C282.204 61.4261 282.392 60.8306 282.536 60.1449C282.688 59.4592 282.803 58.7194 282.883 57.9254C282.969 57.1242 283.045 56.3157 283.11 55.5001L283.543 50.0649H296.298V63.0358H298.874V71.5675H294.479V66.6953H284.312V71.5675H279.808ZM285.676 63.0358H291.945V53.6162H287.463L287.289 55.5001C287.167 57.2757 286.99 58.7843 286.759 60.0258C286.528 61.2601 286.167 62.2634 285.676 63.0358ZM309.076 67.0201C307.394 67.0201 305.94 66.6628 304.713 65.9482C303.493 65.2264 302.551 64.2231 301.887 62.9383C301.223 61.6463 300.891 60.1485 300.891 58.4451C300.891 56.7272 301.223 55.2258 301.887 53.941C302.551 52.649 303.493 51.6457 304.713 50.9311C305.94 50.2093 307.394 49.8484 309.076 49.8484C310.758 49.8484 312.209 50.2093 313.429 50.9311C314.656 51.6457 315.601 52.649 316.265 53.941C316.93 55.2258 317.262 56.7272 317.262 58.4451C317.262 60.1485 316.93 61.6463 316.265 62.9383C315.601 64.2231 314.656 65.2264 313.429 65.9482C312.209 66.6628 310.758 67.0201 309.076 67.0201ZM309.098 63.4472C309.863 63.4472 310.502 63.2306 311.014 62.7976C311.527 62.3573 311.913 61.7582 312.173 61.0003C312.44 60.2424 312.573 59.3798 312.573 58.4126C312.573 57.4454 312.44 56.5828 312.173 55.8249C311.913 55.067 311.527 54.4679 311.014 54.0276C310.502 53.5873 309.863 53.3672 309.098 53.3672C308.326 53.3672 307.676 53.5873 307.149 54.0276C306.629 54.4679 306.236 55.067 305.969 55.8249C305.709 56.5828 305.579 57.4454 305.579 58.4126C305.579 59.3798 305.709 60.2424 305.969 61.0003C306.236 61.7582 306.629 62.3573 307.149 62.7976C307.676 63.2306 308.326 63.4472 309.098 63.4472ZM327.775 67.0201C326.071 67.0201 324.606 66.6592 323.379 65.9374C322.159 65.2084 321.221 64.1979 320.564 62.9058C319.914 61.6138 319.589 60.1269 319.589 58.4451C319.589 56.7416 319.918 55.2475 320.575 53.9626C321.239 52.6706 322.181 51.6637 323.401 50.9419C324.62 50.2129 326.071 49.8484 327.753 49.8484C329.204 49.8484 330.474 50.1118 331.564 50.6387C332.654 51.1656 333.517 51.9055 334.152 52.8583C334.787 53.8111 335.137 54.9299 335.202 56.2147H330.85C330.727 55.3846 330.402 54.7169 329.875 54.2117C329.355 53.6992 328.673 53.4429 327.829 53.4429C327.114 53.4429 326.49 53.6378 325.956 54.0276C325.429 54.4102 325.017 54.9696 324.721 55.7058C324.425 56.4421 324.278 57.3335 324.278 58.3801C324.278 59.4412 324.422 60.3434 324.711 61.0869C325.007 61.8303 325.422 62.397 325.956 62.7867C326.49 63.1765 327.114 63.3714 327.829 63.3714C328.356 63.3714 328.828 63.2631 329.247 63.0466C329.673 62.83 330.023 62.5161 330.297 62.1046C330.579 61.686 330.763 61.1843 330.85 60.5997H335.202C335.13 61.87 334.783 62.9888 334.163 63.9561C333.549 64.9161 332.701 65.6667 331.618 66.2081C330.536 66.7494 329.254 67.0201 327.775 67.0201ZM337.021 53.692V50.0649H352.092V53.692H346.733V66.6953H342.337V53.692H337.021ZM357.736 72.9317C357.151 72.9317 356.603 72.8848 356.09 72.791C355.585 72.7044 355.166 72.5925 354.834 72.4553L355.874 69.0123C356.415 69.1783 356.902 69.2686 357.335 69.283C357.776 69.2974 358.155 69.1964 358.472 68.9798C358.797 68.7633 359.06 68.3952 359.263 67.8755L359.533 67.1717L353.568 50.0649H358.418L361.861 62.2779H362.034L365.51 50.0649H370.393L363.929 68.4926C363.619 69.3877 363.196 70.1672 362.662 70.8313C362.135 71.5025 361.468 72.0186 360.659 72.3795C359.851 72.7477 358.876 72.9317 357.736 72.9317ZM372.753 66.6953V50.0649H387.294V66.6953H382.887V53.692H377.106V66.6953H372.753ZM398.032 66.6953V50.0649H402.644V56.5178H403.943L408.469 50.0649H413.883L408.003 58.3151L413.948 66.6953H408.469L404.366 60.7945H402.644V66.6953H398.032ZM437.743 51.689C437.591 51.162 437.378 50.6965 437.104 50.2923C436.83 49.8808 436.494 49.5344 436.097 49.2529C435.707 48.9641 435.26 48.744 434.754 48.5924C434.256 48.4408 433.704 48.365 433.098 48.365C431.965 48.365 430.969 48.6465 430.11 49.2096C429.258 49.7726 428.594 50.5918 428.117 51.6673C427.641 52.7356 427.403 54.042 427.403 55.5867C427.403 57.1314 427.637 58.4451 428.107 59.5278C428.576 60.6105 429.24 61.437 430.099 62.0072C430.958 62.5702 431.972 62.8517 433.141 62.8517C434.202 62.8517 435.108 62.664 435.859 62.2887C436.617 61.9061 437.194 61.3684 437.591 60.6754C437.995 59.9825 438.197 59.1633 438.197 58.2177L439.15 58.3584H433.434V54.8288H442.712V57.6222C442.712 59.5711 442.301 61.2457 441.478 62.646C440.655 64.0391 439.522 65.1146 438.078 65.8725C436.635 66.6231 434.982 66.9985 433.12 66.9985C431.041 66.9985 429.215 66.5401 427.641 65.6234C426.068 64.6995 424.84 63.3894 423.96 61.6932C423.086 59.9897 422.65 57.9687 422.65 55.63C422.65 53.8327 422.91 52.2303 423.429 50.8228C423.956 49.4081 424.692 48.2099 425.638 47.2282C426.584 46.2465 427.684 45.4995 428.94 44.987C430.196 44.4745 431.557 44.2183 433.022 44.2183C434.278 44.2183 435.447 44.4023 436.53 44.7704C437.613 45.1313 438.573 45.6438 439.41 46.3079C440.255 46.972 440.944 47.7623 441.478 48.679C442.012 49.5885 442.355 50.5918 442.507 51.689H437.743ZM453.661 67.0201C451.979 67.0201 450.525 66.6628 449.298 65.9482C448.078 65.2264 447.136 64.2231 446.472 62.9383C445.808 61.6463 445.476 60.1485 445.476 58.4451C445.476 56.7272 445.808 55.2258 446.472 53.941C447.136 52.649 448.078 51.6457 449.298 50.9311C450.525 50.2093 451.979 49.8484 453.661 49.8484C455.343 49.8484 456.794 50.2093 458.014 50.9311C459.241 51.6457 460.186 52.649 460.85 53.941C461.515 55.2258 461.847 56.7272 461.847 58.4451C461.847 60.1485 461.515 61.6463 460.85 62.9383C460.186 64.2231 459.241 65.2264 458.014 65.9482C456.794 66.6628 455.343 67.0201 453.661 67.0201ZM453.683 63.4472C454.448 63.4472 455.087 63.2306 455.599 62.7976C456.112 62.3573 456.498 61.7582 456.758 61.0003C457.025 60.2424 457.158 59.3798 457.158 58.4126C457.158 57.4454 457.025 56.5828 456.758 55.8249C456.498 55.067 456.112 54.4679 455.599 54.0276C455.087 53.5873 454.448 53.3672 453.683 53.3672C452.911 53.3672 452.261 53.5873 451.734 54.0276C451.214 54.4679 450.821 55.067 450.554 55.8249C450.294 56.5828 450.164 57.4454 450.164 58.4126C450.164 59.3798 450.294 60.2424 450.554 61.0003C450.821 61.7582 451.214 62.3573 451.734 62.7976C452.261 63.2306 452.911 63.4472 453.683 63.4472ZM472.36 67.0201C470.678 67.0201 469.223 66.6628 467.996 65.9482C466.777 65.2264 465.835 64.2231 465.17 62.9383C464.506 61.6463 464.174 60.1485 464.174 58.4451C464.174 56.7272 464.506 55.2258 465.17 53.941C465.835 52.649 466.777 51.6457 467.996 50.9311C469.223 50.2093 470.678 49.8484 472.36 49.8484C474.041 49.8484 475.492 50.2093 476.712 50.9311C477.939 51.6457 478.885 52.649 479.549 53.941C480.213 55.2258 480.545 56.7272 480.545 58.4451C480.545 60.1485 480.213 61.6463 479.549 62.9383C478.885 64.2231 477.939 65.2264 476.712 65.9482C475.492 66.6628 474.041 67.0201 472.36 67.0201ZM472.381 63.4472C473.146 63.4472 473.785 63.2306 474.298 62.7976C474.81 62.3573 475.196 61.7582 475.456 61.0003C475.723 60.2424 475.857 59.3798 475.857 58.4126C475.857 57.4454 475.723 56.5828 475.456 55.8249C475.196 55.067 474.81 54.4679 474.298 54.0276C473.785 53.5873 473.146 53.3672 472.381 53.3672C471.609 53.3672 470.959 53.5873 470.432 54.0276C469.913 54.4679 469.519 55.067 469.252 55.8249C468.992 56.5828 468.863 57.4454 468.863 58.4126C468.863 59.3798 468.992 60.2424 469.252 61.0003C469.519 61.7582 469.913 62.3573 470.432 62.7976C470.959 63.2306 471.609 63.4472 472.381 63.4472ZM491.036 73.2782C489.542 73.2782 488.261 73.0725 487.193 72.661C486.132 72.2568 485.287 71.7046 484.659 71.0045C484.031 70.3043 483.623 69.5176 483.436 68.6442L487.702 68.0704C487.832 68.4024 488.037 68.7128 488.319 69.0015C488.6 69.2902 488.972 69.5212 489.434 69.6944C489.903 69.8749 490.473 69.9651 491.145 69.9651C492.148 69.9651 492.974 69.7197 493.624 69.2289C494.281 68.7452 494.609 67.9332 494.609 66.7928V63.7503H494.414C494.212 64.2123 493.909 64.649 493.505 65.0604C493.101 65.4719 492.581 65.8075 491.946 66.0673C491.311 66.3272 490.553 66.4571 489.672 66.4571C488.423 66.4571 487.287 66.1684 486.262 65.5909C485.244 65.0063 484.432 64.1149 483.826 62.9167C483.226 61.7112 482.927 60.1882 482.927 58.3476C482.927 56.4637 483.234 54.8902 483.847 53.627C484.461 52.3638 485.276 51.4183 486.294 50.7903C487.319 50.1623 488.442 49.8484 489.661 49.8484C490.593 49.8484 491.372 50.0072 492 50.3247C492.628 50.6351 493.133 51.0249 493.516 51.4941C493.906 51.956 494.205 52.4108 494.414 52.8583H494.588V50.0649H499.168V66.8577C499.168 68.2725 498.821 69.4562 498.128 70.409C497.435 71.3618 496.475 72.0764 495.248 72.5528C494.028 73.0364 492.624 73.2782 491.036 73.2782ZM491.134 62.9924C491.877 62.9924 492.505 62.8084 493.018 62.4403C493.537 62.0649 493.934 61.5308 494.209 60.8379C494.49 60.1377 494.631 59.3004 494.631 58.326C494.631 57.3515 494.494 56.507 494.22 55.7924C493.945 55.0706 493.548 54.5112 493.029 54.1142C492.509 53.7172 491.877 53.5187 491.134 53.5187C490.376 53.5187 489.737 53.7245 489.217 54.1359C488.698 54.5401 488.304 55.1031 488.037 55.8249C487.77 56.5467 487.637 57.3804 487.637 58.326C487.637 59.286 487.77 60.116 488.037 60.8162C488.312 61.5091 488.705 62.0469 489.217 62.4294C489.737 62.8048 490.376 62.9924 491.134 62.9924ZM507.45 44.5214V66.6953H502.838V44.5214H507.45ZM518.724 67.0201C517.013 67.0201 515.541 66.6737 514.307 65.9807C513.079 65.2806 512.134 64.2917 511.47 63.0141C510.806 61.7293 510.474 60.2099 510.474 58.4559C510.474 56.7452 510.806 55.2439 511.47 53.9518C512.134 52.6598 513.069 51.6529 514.274 50.9311C515.487 50.2093 516.909 49.8484 518.54 49.8484C519.637 49.8484 520.658 50.0252 521.604 50.3789C522.557 50.7253 523.387 51.2487 524.094 51.9488C524.809 52.649 525.365 53.5296 525.762 54.5906C526.159 55.6445 526.357 56.8787 526.357 58.2935V59.5603H512.314V56.7019H522.015C522.015 56.0378 521.871 55.4496 521.582 54.9371C521.294 54.4246 520.893 54.024 520.381 53.7353C519.875 53.4393 519.287 53.2914 518.616 53.2914C517.916 53.2914 517.295 53.4538 516.753 53.7786C516.219 54.0962 515.801 54.5257 515.498 55.067C515.194 55.6011 515.039 56.1966 515.032 56.8535V59.5711C515.032 60.3939 515.184 61.1049 515.487 61.704C515.797 62.3031 516.234 62.7651 516.797 63.0899C517.36 63.4147 518.027 63.5771 518.8 63.5771C519.312 63.5771 519.781 63.5049 520.207 63.3606C520.633 63.2162 520.998 62.9997 521.301 62.7109C521.604 62.4222 521.835 62.0685 521.994 61.6499L526.26 61.9314C526.043 62.9564 525.599 63.8514 524.928 64.6165C524.264 65.3744 523.405 65.9663 522.351 66.3922C521.304 66.8108 520.095 67.0201 518.724 67.0201ZM540.332 66.6953H535.308L542.963 44.5214H549.005L556.649 66.6953H551.625L546.071 49.5885H545.897L540.332 66.6953ZM540.018 57.9795H551.885V61.6391H540.018V57.9795ZM564.585 66.966C563.322 66.966 562.178 66.6412 561.153 65.9916C560.135 65.3347 559.327 64.3711 558.727 63.1007C558.136 61.8231 557.84 60.2568 557.84 58.4018C557.84 56.4962 558.146 54.9118 558.76 53.6487C559.373 52.3783 560.189 51.4291 561.207 50.8011C562.232 50.1659 563.354 49.8484 564.574 49.8484C565.505 49.8484 566.281 50.0072 566.902 50.3247C567.53 50.6351 568.035 51.0249 568.418 51.4941C568.807 51.956 569.103 52.4108 569.305 52.8583H569.446V44.5214H574.048V66.6953H569.5V64.0318H569.305C569.089 64.4938 568.782 64.9522 568.385 65.4069C567.995 65.8544 567.487 66.2261 566.859 66.5221C566.238 66.818 565.48 66.966 564.585 66.966ZM566.047 63.2956C566.79 63.2956 567.418 63.0935 567.93 62.6893C568.45 62.2779 568.847 61.704 569.121 60.9678C569.403 60.2315 569.544 59.369 569.544 58.3801C569.544 57.3912 569.407 56.5323 569.132 55.8033C568.858 55.0742 568.461 54.5112 567.941 54.1142C567.422 53.7172 566.79 53.5187 566.047 53.5187C565.289 53.5187 564.65 53.7245 564.13 54.1359C563.61 54.5473 563.217 55.1175 562.95 55.8466C562.683 56.5756 562.549 57.4201 562.549 58.3801C562.549 59.3473 562.683 60.2027 562.95 60.9461C563.224 61.6824 563.618 62.2598 564.13 62.6785C564.65 63.0899 565.289 63.2956 566.047 63.2956ZM591.677 54.8072L587.454 55.067C587.382 54.7061 587.227 54.3813 586.989 54.0926C586.751 53.7966 586.437 53.562 586.047 53.3888C585.664 53.2084 585.206 53.1181 584.672 53.1181C583.957 53.1181 583.355 53.2697 582.864 53.5729C582.373 53.8688 582.127 54.2658 582.127 54.7639C582.127 55.1608 582.286 55.4965 582.604 55.7708C582.921 56.0451 583.466 56.2652 584.239 56.4312L587.249 57.0375C588.866 57.3696 590.071 57.9037 590.865 58.64C591.659 59.3762 592.056 60.3434 592.056 61.5416C592.056 62.6315 591.735 63.5879 591.092 64.4108C590.457 65.2337 589.584 65.8761 588.472 66.338C587.368 66.7928 586.094 67.0201 584.65 67.0201C582.449 67.0201 580.695 66.5618 579.388 65.6451C578.089 64.7212 577.327 63.4652 577.104 61.8773L581.64 61.6391C581.777 62.3103 582.109 62.8228 582.636 63.1765C583.163 63.523 583.838 63.6962 584.661 63.6962C585.469 63.6962 586.119 63.541 586.61 63.2306C587.108 62.913 587.361 62.5052 587.368 62.0072C587.361 61.5885 587.184 61.2457 586.837 60.9786C586.491 60.7043 585.957 60.495 585.235 60.3506L582.355 59.7768C580.731 59.452 579.522 58.889 578.728 58.0878C577.941 57.2866 577.548 56.2652 577.548 55.0237C577.548 53.9554 577.836 53.0351 578.414 52.2628C578.998 51.4905 579.818 50.895 580.872 50.4763C581.933 50.0577 583.174 49.8484 584.596 49.8484C586.696 49.8484 588.349 50.2923 589.555 51.1801C590.767 52.0679 591.475 53.2769 591.677 54.8072Z" fill="#070707"/>
<path d="M42.9081 119.941V121.257H33.6682V119.941H42.9081ZM33.9281 119.941V124.259H32.3266L32.3182 119.941H33.9281ZM44.3167 119.941L44.2999 124.251H42.6985V119.941H44.3167ZM41.3234 109.049V110.374H35.974V109.049H41.3234ZM42.7152 109.049V121.257H41.1054V109.049H42.7152ZM35.4206 109.049H37.0388L36.7873 113.963C36.7537 114.701 36.6839 115.382 36.5777 116.009C36.4714 116.629 36.3401 117.196 36.1836 117.711C36.0271 118.225 35.8482 118.686 35.647 119.094C35.4457 119.497 35.2305 119.846 35.0013 120.142C34.7722 120.433 34.5318 120.673 34.2803 120.863C34.0343 121.048 33.7856 121.179 33.534 121.257H32.7962V119.941H33.316C33.4614 119.784 33.6263 119.558 33.8107 119.262C34.0008 118.966 34.188 118.583 34.3725 118.113C34.5625 117.638 34.7274 117.059 34.8672 116.377C35.0125 115.695 35.1103 114.891 35.1606 113.963L35.4206 109.049ZM52.1815 112.185V113.468H47.7963V112.185H52.1815ZM53.5482 112.185V121.257H51.9971V112.185H53.5482ZM47.419 112.185H48.9786L48.7438 116.562C48.7047 117.238 48.6404 117.836 48.551 118.356C48.4671 118.87 48.3497 119.312 48.1988 119.681C48.0535 120.05 47.869 120.352 47.6454 120.587C47.4274 120.816 47.1647 120.986 46.8573 121.098C46.5498 121.204 46.1949 121.257 45.7924 121.257H45.3061V119.891L45.6415 119.865C45.8818 119.849 46.0859 119.793 46.2536 119.698C46.4268 119.603 46.5722 119.463 46.6896 119.279C46.807 119.088 46.902 118.845 46.9746 118.549C47.0529 118.253 47.1116 117.901 47.1507 117.493C47.1954 117.085 47.229 116.609 47.2513 116.067L47.419 112.185ZM57.8831 116.931H59.56L56.9356 121.257H55.2587L57.8831 116.931ZM59.1827 112.185H62.9726V121.257H61.4214V113.443H59.1827C58.7411 113.443 58.3806 113.518 58.1011 113.669C57.8216 113.815 57.6176 114.005 57.489 114.239C57.3605 114.474 57.2962 114.717 57.2962 114.969C57.2962 115.215 57.3549 115.452 57.4723 115.682C57.5896 115.905 57.7741 116.09 58.0256 116.235C58.2772 116.38 58.6014 116.453 58.9983 116.453H61.8407V117.727H58.9983C58.4784 117.727 58.0173 117.658 57.6148 117.518C57.2123 117.378 56.8713 117.185 56.5919 116.939C56.3124 116.688 56.1 116.394 55.9546 116.059C55.8093 115.718 55.7366 115.349 55.7366 114.952C55.7366 114.555 55.8121 114.189 55.963 113.854C56.1195 113.518 56.3431 113.225 56.6338 112.973C56.93 112.722 57.2906 112.529 57.7154 112.395C58.1458 112.255 58.6349 112.185 59.1827 112.185ZM73.118 116.922H71.4495V115.967H72.9923C73.4227 115.967 73.7637 115.913 74.0152 115.807C74.2667 115.695 74.4456 115.542 74.5518 115.346C74.658 115.15 74.7111 114.921 74.7111 114.659C74.7111 114.424 74.6496 114.203 74.5267 113.996C74.4093 113.784 74.2192 113.613 73.9565 113.485C73.6938 113.351 73.3416 113.284 72.9 113.284C72.5423 113.284 72.2181 113.348 71.9274 113.476C71.6368 113.599 71.4048 113.77 71.2315 113.988C71.0638 114.2 70.98 114.441 70.98 114.709H69.4288C69.4288 114.156 69.5853 113.68 69.8983 113.284C70.2169 112.881 70.639 112.571 71.1644 112.353C71.6954 112.135 72.274 112.026 72.9 112.026C73.4255 112.026 73.895 112.084 74.3087 112.202C74.7279 112.314 75.0828 112.481 75.3735 112.705C75.6642 112.923 75.885 113.197 76.0359 113.527C76.1924 113.851 76.2707 114.228 76.2707 114.659C76.2707 114.966 76.198 115.257 76.0527 115.531C75.9073 115.804 75.6977 116.048 75.4238 116.26C75.1499 116.467 74.8173 116.629 74.4261 116.746C74.0404 116.864 73.6044 116.922 73.118 116.922ZM71.4495 116.336H73.118C73.6603 116.336 74.1382 116.389 74.5518 116.495C74.9655 116.595 75.312 116.746 75.5915 116.948C75.871 117.149 76.0806 117.398 76.2204 117.694C76.3657 117.985 76.4384 118.32 76.4384 118.7C76.4384 119.125 76.3517 119.508 76.1784 119.849C76.0108 120.184 75.7704 120.469 75.4574 120.704C75.1443 120.939 74.7698 121.118 74.3338 121.241C73.9034 121.364 73.4255 121.425 72.9 121.425C72.3131 121.425 71.743 121.324 71.1896 121.123C70.6362 120.922 70.1806 120.612 69.8229 120.192C69.4651 119.768 69.2862 119.228 69.2862 118.574H70.8374C70.8374 118.848 70.9241 119.108 71.0973 119.354C71.2706 119.6 71.511 119.798 71.8184 119.949C72.1314 120.1 72.492 120.176 72.9 120.176C73.336 120.176 73.6994 120.109 73.99 119.974C74.2807 119.84 74.4987 119.661 74.6441 119.438C74.795 119.214 74.8704 118.971 74.8704 118.708C74.8704 118.367 74.8034 118.094 74.6692 117.887C74.5351 117.68 74.3282 117.529 74.0487 117.434C73.7748 117.333 73.4227 117.283 72.9923 117.283H71.4495V116.336ZM83.8001 119.706V115.036C83.8001 114.678 83.7274 114.368 83.5821 114.105C83.4424 113.837 83.23 113.63 82.9449 113.485C82.6598 113.339 82.3076 113.267 81.8884 113.267C81.4971 113.267 81.1534 113.334 80.8571 113.468C80.5664 113.602 80.3372 113.778 80.1696 113.996C80.0074 114.214 79.9264 114.449 79.9264 114.701H78.3752C78.3752 114.376 78.4591 114.055 78.6268 113.736C78.7945 113.418 79.0348 113.13 79.3479 112.873C79.6665 112.61 80.0466 112.403 80.4882 112.252C80.9354 112.096 81.4328 112.017 81.9806 112.017C82.6402 112.017 83.2216 112.129 83.7247 112.353C84.2333 112.576 84.6302 112.915 84.9153 113.367C85.2059 113.815 85.3513 114.376 85.3513 115.053V119.279C85.3513 119.58 85.3764 119.902 85.4267 120.243C85.4826 120.584 85.5637 120.877 85.6699 121.123V121.257H84.0517C83.9734 121.078 83.9119 120.841 83.8672 120.545C83.8225 120.243 83.8001 119.963 83.8001 119.706ZM84.0684 115.757L84.0852 116.847H82.5173C82.0757 116.847 81.6816 116.883 81.335 116.956C80.9885 117.023 80.6978 117.126 80.463 117.266C80.2282 117.406 80.0494 117.582 79.9264 117.794C79.8034 118.001 79.7419 118.244 79.7419 118.524C79.7419 118.809 79.8062 119.069 79.9348 119.304C80.0633 119.538 80.2562 119.726 80.5133 119.865C80.776 120 81.0975 120.067 81.4776 120.067C81.9527 120.067 82.3719 119.966 82.7353 119.765C83.0986 119.564 83.3865 119.318 83.5989 119.027C83.8169 118.736 83.9343 118.454 83.951 118.18L84.6134 118.926C84.5743 119.161 84.4681 119.421 84.2948 119.706C84.1215 119.991 83.8895 120.265 83.5989 120.528C83.3138 120.785 82.9728 121 82.576 121.173C82.1847 121.341 81.7431 121.425 81.2512 121.425C80.6363 121.425 80.0969 121.305 79.6329 121.064C79.1746 120.824 78.8168 120.503 78.5597 120.1C78.3082 119.692 78.1824 119.237 78.1824 118.734C78.1824 118.247 78.2774 117.82 78.4675 117.451C78.6575 117.076 78.9314 116.766 79.2892 116.52C79.6469 116.268 80.0773 116.078 80.5804 115.95C81.0835 115.821 81.6453 115.757 82.2657 115.757H84.0684ZM100.402 119.983L100.251 123.949H98.8674V121.257H97.6851V119.983H100.402ZM87.8331 112.185H89.3843V119.983H92.7046V112.185H94.2642V119.983H97.5761V112.185H99.1273V121.257H87.8331V112.185ZM103.689 118.801L107.872 112.185H109.432V121.257H107.872V114.642L103.689 121.257H102.146V112.185H103.689V118.801ZM115.62 112.185V121.257H114.06V112.185H115.62ZM118.664 112.185V113.443H111.075V112.185H118.664ZM121.464 115.304H124.189C124.921 115.304 125.539 115.433 126.042 115.69C126.545 115.941 126.925 116.291 127.182 116.738C127.445 117.18 127.576 117.683 127.576 118.247C127.576 118.666 127.504 119.061 127.358 119.429C127.213 119.793 126.995 120.111 126.704 120.385C126.419 120.659 126.064 120.874 125.64 121.031C125.22 121.182 124.737 121.257 124.189 121.257H120.332V112.185H121.883V119.983H124.189C124.636 119.983 124.994 119.902 125.262 119.74C125.531 119.578 125.723 119.368 125.841 119.111C125.958 118.854 126.017 118.585 126.017 118.306C126.017 118.032 125.958 117.764 125.841 117.501C125.723 117.238 125.531 117.02 125.262 116.847C124.994 116.668 124.636 116.579 124.189 116.579H121.464V115.304ZM130.805 112.185V121.257H129.253V112.185H130.805ZM139.332 113.929V124.745H137.772V112.185H139.198L139.332 113.929ZM145.444 116.646V116.822C145.444 117.481 145.366 118.094 145.209 118.658C145.053 119.217 144.824 119.703 144.522 120.117C144.226 120.531 143.859 120.852 143.423 121.081C142.987 121.31 142.487 121.425 141.923 121.425C141.347 121.425 140.838 121.33 140.397 121.14C139.955 120.95 139.581 120.673 139.273 120.31C138.966 119.947 138.72 119.511 138.535 119.002C138.356 118.493 138.233 117.92 138.166 117.283V116.344C138.233 115.673 138.359 115.072 138.544 114.541C138.728 114.01 138.971 113.557 139.273 113.183C139.581 112.803 139.952 112.515 140.388 112.319C140.824 112.118 141.327 112.017 141.897 112.017C142.468 112.017 142.974 112.129 143.415 112.353C143.857 112.571 144.228 112.884 144.53 113.292C144.832 113.7 145.059 114.189 145.209 114.759C145.366 115.324 145.444 115.953 145.444 116.646ZM143.885 116.822V116.646C143.885 116.193 143.837 115.768 143.742 115.371C143.647 114.969 143.499 114.617 143.298 114.315C143.102 114.007 142.851 113.767 142.543 113.594C142.236 113.415 141.87 113.325 141.445 113.325C141.053 113.325 140.712 113.393 140.422 113.527C140.137 113.661 139.894 113.842 139.692 114.072C139.491 114.295 139.326 114.552 139.198 114.843C139.075 115.128 138.982 115.424 138.921 115.732V117.903C139.033 118.295 139.189 118.664 139.39 119.01C139.592 119.351 139.86 119.628 140.195 119.84C140.531 120.047 140.953 120.151 141.461 120.151C141.881 120.151 142.241 120.064 142.543 119.891C142.851 119.712 143.102 119.469 143.298 119.161C143.499 118.854 143.647 118.502 143.742 118.105C143.837 117.702 143.885 117.275 143.885 116.822ZM151.188 121.425C150.556 121.425 149.983 121.319 149.469 121.106C148.96 120.888 148.521 120.584 148.152 120.192C147.789 119.801 147.51 119.337 147.314 118.801C147.118 118.264 147.021 117.677 147.021 117.04V116.688C147.021 115.95 147.13 115.293 147.348 114.717C147.566 114.136 147.862 113.644 148.236 113.242C148.611 112.839 149.036 112.534 149.511 112.328C149.986 112.121 150.478 112.017 150.986 112.017C151.635 112.017 152.194 112.129 152.663 112.353C153.139 112.576 153.527 112.889 153.829 113.292C154.131 113.689 154.354 114.158 154.5 114.701C154.645 115.237 154.718 115.824 154.718 116.461V117.157H147.943V115.891H153.166V115.774C153.144 115.371 153.06 114.98 152.915 114.6C152.775 114.22 152.552 113.907 152.244 113.661C151.937 113.415 151.517 113.292 150.986 113.292C150.634 113.292 150.31 113.367 150.014 113.518C149.718 113.664 149.463 113.882 149.251 114.172C149.038 114.463 148.874 114.818 148.756 115.237C148.639 115.656 148.58 116.14 148.58 116.688V117.04C148.58 117.47 148.639 117.876 148.756 118.256C148.879 118.63 149.055 118.96 149.284 119.245C149.519 119.53 149.801 119.754 150.131 119.916C150.467 120.078 150.847 120.159 151.272 120.159C151.819 120.159 152.283 120.047 152.663 119.824C153.043 119.6 153.376 119.301 153.661 118.926L154.6 119.673C154.405 119.969 154.156 120.251 153.854 120.519C153.552 120.788 153.18 121.006 152.739 121.173C152.303 121.341 151.786 121.425 151.188 121.425ZM158.214 112.185V121.257H156.663V112.185H158.214ZM164.167 112.185L159.866 117.384H157.694L157.459 116.025H159.237L162.281 112.185H164.167ZM162.499 121.257L159.162 117.149L160.159 116.025L164.469 121.257H162.499ZM171.881 112.185V113.468H167.496V112.185H171.881ZM173.248 112.185V121.257H171.697V112.185H173.248ZM167.119 112.185H168.678L168.443 116.562C168.404 117.238 168.34 117.836 168.25 118.356C168.167 118.87 168.049 119.312 167.898 119.681C167.753 120.05 167.569 120.352 167.345 120.587C167.127 120.816 166.864 120.986 166.557 121.098C166.249 121.204 165.894 121.257 165.492 121.257H165.006V119.891L165.341 119.865C165.581 119.849 165.785 119.793 165.953 119.698C166.126 119.603 166.272 119.463 166.389 119.279C166.506 119.088 166.602 118.845 166.674 118.549C166.752 118.253 166.811 117.901 166.85 117.493C166.895 117.085 166.929 116.609 166.951 116.067L167.119 112.185ZM181.096 119.706V115.036C181.096 114.678 181.023 114.368 180.878 114.105C180.738 113.837 180.526 113.63 180.241 113.485C179.955 113.339 179.603 113.267 179.184 113.267C178.793 113.267 178.449 113.334 178.153 113.468C177.862 113.602 177.633 113.778 177.465 113.996C177.303 114.214 177.222 114.449 177.222 114.701H175.671C175.671 114.376 175.755 114.055 175.922 113.736C176.09 113.418 176.331 113.13 176.644 112.873C176.962 112.61 177.342 112.403 177.784 112.252C178.231 112.096 178.729 112.017 179.276 112.017C179.936 112.017 180.517 112.129 181.02 112.353C181.529 112.576 181.926 112.915 182.211 113.367C182.502 113.815 182.647 114.376 182.647 115.053V119.279C182.647 119.58 182.672 119.902 182.722 120.243C182.778 120.584 182.859 120.877 182.966 121.123V121.257H181.347C181.269 121.078 181.208 120.841 181.163 120.545C181.118 120.243 181.096 119.963 181.096 119.706ZM181.364 115.757L181.381 116.847H179.813C179.371 116.847 178.977 116.883 178.631 116.956C178.284 117.023 177.993 117.126 177.759 117.266C177.524 117.406 177.345 117.582 177.222 117.794C177.099 118.001 177.038 118.244 177.038 118.524C177.038 118.809 177.102 119.069 177.23 119.304C177.359 119.538 177.552 119.726 177.809 119.865C178.072 120 178.393 120.067 178.773 120.067C179.248 120.067 179.668 119.966 180.031 119.765C180.394 119.564 180.682 119.318 180.895 119.027C181.113 118.736 181.23 118.454 181.247 118.18L181.909 118.926C181.87 119.161 181.764 119.421 181.591 119.706C181.417 119.991 181.185 120.265 180.895 120.528C180.609 120.785 180.269 121 179.872 121.173C179.48 121.341 179.039 121.425 178.547 121.425C177.932 121.425 177.393 121.305 176.929 121.064C176.47 120.824 176.113 120.503 175.855 120.1C175.604 119.692 175.478 119.237 175.478 118.734C175.478 118.247 175.573 117.82 175.763 117.451C175.953 117.076 176.227 116.766 176.585 116.52C176.943 116.268 177.373 116.078 177.876 115.95C178.379 115.821 178.941 115.757 179.561 115.757H181.364ZM190.302 119.195L193.388 112.185H194.88L190.839 121.257H189.766L185.741 112.185H187.233L190.302 119.195ZM186.781 112.185V121.257H185.229V112.185H186.781ZM193.773 121.257V112.185H195.333V121.257H193.773ZM203.986 116.118V117.375H199.19V116.118H203.986ZM199.517 112.185V121.257H197.966V112.185H199.517ZM205.244 112.185V121.257H203.684V112.185H205.244ZM209.017 115.304H211.742C212.474 115.304 213.092 115.433 213.595 115.69C214.098 115.941 214.478 116.291 214.735 116.738C214.998 117.18 215.129 117.683 215.129 118.247C215.129 118.666 215.057 119.061 214.911 119.429C214.766 119.793 214.548 120.111 214.257 120.385C213.972 120.659 213.617 120.874 213.192 121.031C212.773 121.182 212.29 121.257 211.742 121.257H207.885V112.185H209.436V119.983H211.742C212.189 119.983 212.547 119.902 212.815 119.74C213.083 119.578 213.276 119.368 213.394 119.111C213.511 118.854 213.57 118.585 213.57 118.306C213.57 118.032 213.511 117.764 213.394 117.501C213.276 117.238 213.083 117.02 212.815 116.847C212.547 116.668 212.189 116.579 211.742 116.579H209.017V115.304ZM218.357 112.185V121.257H216.806V112.185H218.357ZM222.122 112.185L224.109 115.489L226.121 112.185H227.941L224.973 116.663L228.033 121.257H226.239L224.143 117.853L222.047 121.257H220.244L223.296 116.663L220.336 112.185H222.122ZM235.537 112.185V121.257H233.986V112.185H235.537ZM241.491 112.185L237.189 117.384H235.018L234.783 116.025H236.56L239.604 112.185H241.491ZM239.822 121.257L236.485 117.149L237.483 116.025L241.792 121.257H239.822ZM248.492 119.706V115.036C248.492 114.678 248.419 114.368 248.274 114.105C248.134 113.837 247.922 113.63 247.637 113.485C247.351 113.339 246.999 113.267 246.58 113.267C246.189 113.267 245.845 113.334 245.549 113.468C245.258 113.602 245.029 113.778 244.861 113.996C244.699 114.214 244.618 114.449 244.618 114.701H243.067C243.067 114.376 243.151 114.055 243.318 113.736C243.486 113.418 243.726 113.13 244.04 112.873C244.358 112.61 244.738 112.403 245.18 112.252C245.627 112.096 246.125 112.017 246.672 112.017C247.332 112.017 247.913 112.129 248.416 112.353C248.925 112.576 249.322 112.915 249.607 113.367C249.898 113.815 250.043 114.376 250.043 115.053V119.279C250.043 119.58 250.068 119.902 250.118 120.243C250.174 120.584 250.255 120.877 250.362 121.123V121.257H248.743C248.665 121.078 248.604 120.841 248.559 120.545C248.514 120.243 248.492 119.963 248.492 119.706ZM248.76 115.757L248.777 116.847H247.209C246.767 116.847 246.373 116.883 246.027 116.956C245.68 117.023 245.389 117.126 245.155 117.266C244.92 117.406 244.741 117.582 244.618 117.794C244.495 118.001 244.434 118.244 244.434 118.524C244.434 118.809 244.498 119.069 244.626 119.304C244.755 119.538 244.948 119.726 245.205 119.865C245.468 120 245.789 120.067 246.169 120.067C246.644 120.067 247.064 119.966 247.427 119.765C247.79 119.564 248.078 119.318 248.291 119.027C248.509 118.736 248.626 118.454 248.643 118.18L249.305 118.926C249.266 119.161 249.16 119.421 248.986 119.706C248.813 119.991 248.581 120.265 248.291 120.528C248.005 120.785 247.664 121 247.268 121.173C246.876 121.341 246.435 121.425 245.943 121.425C245.328 121.425 244.789 121.305 244.325 121.064C243.866 120.824 243.508 120.503 243.251 120.1C243 119.692 242.874 119.237 242.874 118.734C242.874 118.247 242.969 117.82 243.159 117.451C243.349 117.076 243.623 116.766 243.981 116.52C244.339 116.268 244.769 116.078 245.272 115.95C245.775 115.821 246.337 115.757 246.957 115.757H248.76ZM257.698 119.195L260.784 112.185H262.276L258.235 121.257H257.162L253.137 112.185H254.629L257.698 119.195ZM254.177 112.185V121.257H252.625V112.185H254.177ZM261.169 121.257V112.185H262.729V121.257H261.169ZM271.273 112.185V113.468H266.687V112.185H271.273ZM266.913 112.185V121.257H265.362V112.185H266.913ZM272.648 112.185V121.257H271.088V112.185H272.648ZM280.488 119.706V115.036C280.488 114.678 280.415 114.368 280.27 114.105C280.13 113.837 279.918 113.63 279.632 113.485C279.347 113.339 278.995 113.267 278.576 113.267C278.185 113.267 277.841 113.334 277.545 113.468C277.254 113.602 277.025 113.778 276.857 113.996C276.695 114.214 276.614 114.449 276.614 114.701H275.063C275.063 114.376 275.147 114.055 275.314 113.736C275.482 113.418 275.722 113.13 276.035 112.873C276.354 112.61 276.734 112.403 277.176 112.252C277.623 112.096 278.12 112.017 278.668 112.017C279.328 112.017 279.909 112.129 280.412 112.353C280.921 112.576 281.318 112.915 281.603 113.367C281.894 113.815 282.039 114.376 282.039 115.053V119.279C282.039 119.58 282.064 119.902 282.114 120.243C282.17 120.584 282.251 120.877 282.357 121.123V121.257H280.739C280.661 121.078 280.599 120.841 280.555 120.545C280.51 120.243 280.488 119.963 280.488 119.706ZM280.756 115.757L280.773 116.847H279.205C278.763 116.847 278.369 116.883 278.023 116.956C277.676 117.023 277.385 117.126 277.151 117.266C276.916 117.406 276.737 117.582 276.614 117.794C276.491 118.001 276.43 118.244 276.43 118.524C276.43 118.809 276.494 119.069 276.622 119.304C276.751 119.538 276.944 119.726 277.201 119.865C277.464 120 277.785 120.067 278.165 120.067C278.64 120.067 279.059 119.966 279.423 119.765C279.786 119.564 280.074 119.318 280.286 119.027C280.504 118.736 280.622 118.454 280.639 118.18L281.301 118.926C281.262 119.161 281.156 119.421 280.982 119.706C280.809 119.991 280.577 120.265 280.286 120.528C280.001 120.785 279.66 121 279.264 121.173C278.872 121.341 278.431 121.425 277.939 121.425C277.324 121.425 276.784 121.305 276.321 121.064C275.862 120.824 275.504 120.503 275.247 120.1C274.996 119.692 274.87 119.237 274.87 118.734C274.87 118.247 274.965 117.82 275.155 117.451C275.345 117.076 275.619 116.766 275.977 116.52C276.334 116.268 276.765 116.078 277.268 115.95C277.771 115.821 278.333 115.757 278.953 115.757H280.756ZM290.633 116.118V117.375H285.837V116.118H290.633ZM286.164 112.185V121.257H284.613V112.185H286.164ZM291.891 112.185V121.257H290.331V112.185H291.891ZM296.066 118.801L300.25 112.185H301.81V121.257H300.25V114.642L296.066 121.257H294.524V112.185H296.066V118.801ZM305.977 118.801L310.161 112.185H311.721V121.257H310.161V114.642L305.977 121.257H304.434V112.185H305.977V118.801ZM309.314 108.898H310.572C310.572 109.334 310.471 109.723 310.27 110.064C310.069 110.399 309.781 110.662 309.406 110.852C309.032 111.042 308.587 111.137 308.073 111.137C307.296 111.137 306.681 110.93 306.229 110.517C305.781 110.097 305.558 109.558 305.558 108.898H306.816C306.816 109.228 306.911 109.519 307.101 109.77C307.291 110.022 307.615 110.148 308.073 110.148C308.52 110.148 308.839 110.022 309.029 109.77C309.219 109.519 309.314 109.228 309.314 108.898ZM324.625 116.118V117.375H319.829V116.118H324.625ZM320.156 112.185V121.257H318.604V112.185H320.156ZM325.882 112.185V121.257H324.323V112.185H325.882ZM333.73 119.706V115.036C333.73 114.678 333.658 114.368 333.512 114.105C333.373 113.837 333.16 113.63 332.875 113.485C332.59 113.339 332.238 113.267 331.819 113.267C331.427 113.267 331.084 113.334 330.787 113.468C330.497 113.602 330.267 113.778 330.1 113.996C329.938 114.214 329.857 114.449 329.857 114.701H328.305C328.305 114.376 328.389 114.055 328.557 113.736C328.725 113.418 328.965 113.13 329.278 112.873C329.597 112.61 329.977 112.403 330.418 112.252C330.866 112.096 331.363 112.017 331.911 112.017C332.57 112.017 333.152 112.129 333.655 112.353C334.164 112.576 334.56 112.915 334.845 113.367C335.136 113.815 335.281 114.376 335.281 115.053V119.279C335.281 119.58 335.307 119.902 335.357 120.243C335.413 120.584 335.494 120.877 335.6 121.123V121.257H333.982C333.904 121.078 333.842 120.841 333.797 120.545C333.753 120.243 333.73 119.963 333.73 119.706ZM333.999 115.757L334.015 116.847H332.447C332.006 116.847 331.612 116.883 331.265 116.956C330.919 117.023 330.628 117.126 330.393 117.266C330.158 117.406 329.98 117.582 329.857 117.794C329.734 118.001 329.672 118.244 329.672 118.524C329.672 118.809 329.736 119.069 329.865 119.304C329.994 119.538 330.186 119.726 330.444 119.865C330.706 120 331.028 120.067 331.408 120.067C331.883 120.067 332.302 119.966 332.665 119.765C333.029 119.564 333.317 119.318 333.529 119.027C333.747 118.736 333.864 118.454 333.881 118.18L334.544 118.926C334.505 119.161 334.398 119.421 334.225 119.706C334.052 119.991 333.82 120.265 333.529 120.528C333.244 120.785 332.903 121 332.506 121.173C332.115 121.341 331.673 121.425 331.181 121.425C330.567 121.425 330.027 121.305 329.563 121.064C329.105 120.824 328.747 120.503 328.49 120.1C328.238 119.692 328.113 119.237 328.113 118.734C328.113 118.247 328.208 117.82 328.398 117.451C328.588 117.076 328.862 116.766 329.219 116.52C329.577 116.268 330.008 116.078 330.511 115.95C331.014 115.821 331.575 115.757 332.196 115.757H333.999ZM342.937 119.195L346.022 112.185H347.515L343.473 121.257H342.4L338.375 112.185H339.868L342.937 119.195ZM339.415 112.185V121.257H337.864V112.185H339.415ZM346.408 121.257V112.185H347.967V121.257H346.408ZM360.88 116.118V117.375H356.084V116.118H360.88ZM356.411 112.185V121.257H354.86V112.185H356.411ZM362.138 112.185V121.257H360.578V112.185H362.138ZM368.401 121.425C367.769 121.425 367.196 121.319 366.682 121.106C366.173 120.888 365.735 120.584 365.366 120.192C365.002 119.801 364.723 119.337 364.527 118.801C364.332 118.264 364.234 117.677 364.234 117.04V116.688C364.234 115.95 364.343 115.293 364.561 114.717C364.779 114.136 365.075 113.644 365.45 113.242C365.824 112.839 366.249 112.534 366.724 112.328C367.199 112.121 367.691 112.017 368.2 112.017C368.848 112.017 369.407 112.129 369.877 112.353C370.352 112.576 370.74 112.889 371.042 113.292C371.344 113.689 371.568 114.158 371.713 114.701C371.858 115.237 371.931 115.824 371.931 116.461V117.157H365.156V115.891H370.38V115.774C370.357 115.371 370.274 114.98 370.128 114.6C369.988 114.22 369.765 113.907 369.457 113.661C369.15 113.415 368.731 113.292 368.2 113.292C367.848 113.292 367.523 113.367 367.227 113.518C366.931 113.664 366.676 113.882 366.464 114.172C366.252 114.463 366.087 114.818 365.969 115.237C365.852 115.656 365.793 116.14 365.793 116.688V117.04C365.793 117.47 365.852 117.876 365.969 118.256C366.092 118.63 366.268 118.96 366.498 119.245C366.732 119.53 367.015 119.754 367.344 119.916C367.68 120.078 368.06 120.159 368.485 120.159C369.033 120.159 369.497 120.047 369.877 119.824C370.257 119.6 370.589 119.301 370.874 118.926L371.813 119.673C371.618 119.969 371.369 120.251 371.067 120.519C370.765 120.788 370.394 121.006 369.952 121.173C369.516 121.341 368.999 121.425 368.401 121.425ZM373.331 116.822V116.629C373.331 115.975 373.426 115.368 373.616 114.81C373.806 114.245 374.08 113.756 374.438 113.342C374.796 112.923 375.229 112.599 375.738 112.37C376.246 112.135 376.816 112.017 377.448 112.017C378.085 112.017 378.658 112.135 379.167 112.37C379.681 112.599 380.117 112.923 380.475 113.342C380.838 113.756 381.115 114.245 381.305 114.81C381.495 115.368 381.59 115.975 381.59 116.629V116.822C381.59 117.476 381.495 118.082 381.305 118.641C381.115 119.2 380.838 119.689 380.475 120.109C380.117 120.522 379.684 120.846 379.175 121.081C378.672 121.31 378.102 121.425 377.465 121.425C376.828 121.425 376.255 121.31 375.746 121.081C375.237 120.846 374.801 120.522 374.438 120.109C374.08 119.689 373.806 119.2 373.616 118.641C373.426 118.082 373.331 117.476 373.331 116.822ZM374.882 116.629V116.822C374.882 117.275 374.935 117.702 375.042 118.105C375.148 118.502 375.307 118.854 375.52 119.161C375.738 119.469 376.009 119.712 376.333 119.891C376.657 120.064 377.034 120.151 377.465 120.151C377.89 120.151 378.261 120.064 378.58 119.891C378.904 119.712 379.172 119.469 379.385 119.161C379.597 118.854 379.757 118.502 379.863 118.105C379.975 117.702 380.03 117.275 380.03 116.822V116.629C380.03 116.182 379.975 115.76 379.863 115.363C379.757 114.96 379.594 114.605 379.376 114.298C379.164 113.985 378.896 113.739 378.572 113.56C378.253 113.381 377.878 113.292 377.448 113.292C377.023 113.292 376.649 113.381 376.324 113.56C376.006 113.739 375.738 113.985 375.52 114.298C375.307 114.605 375.148 114.96 375.042 115.363C374.935 115.76 374.882 116.182 374.882 116.629ZM389.354 108.236H390.629C390.629 108.784 390.545 109.22 390.377 109.544C390.209 109.863 389.98 110.109 389.69 110.282C389.405 110.455 389.08 110.586 388.717 110.676C388.359 110.765 387.988 110.852 387.602 110.936C387.121 111.036 386.674 111.196 386.26 111.414C385.852 111.626 385.5 111.928 385.204 112.319C384.913 112.711 384.698 113.219 384.558 113.845C384.424 114.471 384.388 115.246 384.449 116.168V116.939H383.175V116.168C383.175 115.134 383.273 114.231 383.468 113.46C383.669 112.688 383.952 112.037 384.315 111.506C384.678 110.975 385.109 110.553 385.606 110.24C386.109 109.927 386.663 109.712 387.266 109.594C387.702 109.51 388.077 109.421 388.39 109.326C388.703 109.225 388.941 109.091 389.103 108.923C389.27 108.756 389.354 108.527 389.354 108.236ZM387.518 112.705C388.111 112.705 388.639 112.808 389.103 113.015C389.567 113.222 389.961 113.51 390.285 113.879C390.609 114.248 390.855 114.684 391.023 115.187C391.196 115.684 391.283 116.227 391.283 116.813V116.998C391.283 117.63 391.19 118.216 391.006 118.759C390.827 119.295 390.562 119.765 390.209 120.167C389.863 120.564 389.438 120.874 388.935 121.098C388.438 121.322 387.87 121.433 387.233 121.433C386.596 121.433 386.026 121.322 385.522 121.098C385.025 120.874 384.6 120.564 384.248 120.167C383.896 119.765 383.627 119.295 383.443 118.759C383.264 118.216 383.175 117.63 383.175 116.998V116.813C383.175 116.674 383.2 116.537 383.25 116.403C383.3 116.268 383.362 116.131 383.435 115.992C383.513 115.852 383.583 115.704 383.644 115.547C383.851 115.044 384.133 114.578 384.491 114.147C384.854 113.717 385.288 113.37 385.791 113.107C386.299 112.839 386.875 112.705 387.518 112.705ZM387.216 113.971C386.646 113.971 386.176 114.102 385.808 114.365C385.444 114.628 385.173 114.977 384.994 115.413C384.815 115.844 384.726 116.31 384.726 116.813V116.998C384.726 117.423 384.776 117.825 384.877 118.205C384.977 118.585 385.128 118.924 385.33 119.22C385.536 119.511 385.796 119.74 386.109 119.907C386.428 120.075 386.802 120.159 387.233 120.159C387.663 120.159 388.035 120.075 388.348 119.907C388.661 119.74 388.918 119.511 389.119 119.22C389.321 118.924 389.472 118.585 389.572 118.205C389.673 117.825 389.723 117.423 389.723 116.998V116.813C389.723 116.433 389.673 116.073 389.572 115.732C389.472 115.391 389.318 115.089 389.111 114.826C388.91 114.564 388.65 114.357 388.331 114.206C388.018 114.049 387.647 113.971 387.216 113.971ZM393.957 112.185L395.945 115.489L397.957 112.185H399.776L396.808 116.663L399.869 121.257H398.074L395.978 117.853L393.882 121.257H392.079L395.131 116.663L392.171 112.185H393.957ZM400.85 116.822V116.629C400.85 115.975 400.945 115.368 401.135 114.81C401.325 114.245 401.599 113.756 401.956 113.342C402.314 112.923 402.747 112.599 403.256 112.37C403.765 112.135 404.335 112.017 404.966 112.017C405.604 112.017 406.177 112.135 406.685 112.37C407.2 112.599 407.636 112.923 407.993 113.342C408.357 113.756 408.633 114.245 408.823 114.81C409.013 115.368 409.109 115.975 409.109 116.629V116.822C409.109 117.476 409.013 118.082 408.823 118.641C408.633 119.2 408.357 119.689 407.993 120.109C407.636 120.522 407.202 120.846 406.694 121.081C406.191 121.31 405.62 121.425 404.983 121.425C404.346 121.425 403.773 121.31 403.264 121.081C402.756 120.846 402.32 120.522 401.956 120.109C401.599 119.689 401.325 119.2 401.135 118.641C400.945 118.082 400.85 117.476 400.85 116.822ZM402.401 116.629V116.822C402.401 117.275 402.454 117.702 402.56 118.105C402.666 118.502 402.826 118.854 403.038 119.161C403.256 119.469 403.527 119.712 403.851 119.891C404.176 120.064 404.553 120.151 404.983 120.151C405.408 120.151 405.78 120.064 406.098 119.891C406.423 119.712 406.691 119.469 406.903 119.161C407.116 118.854 407.275 118.502 407.381 118.105C407.493 117.702 407.549 117.275 407.549 116.822V116.629C407.549 116.182 407.493 115.76 407.381 115.363C407.275 114.96 407.113 114.605 406.895 114.298C406.683 113.985 406.414 113.739 406.09 113.56C405.771 113.381 405.397 113.292 404.966 113.292C404.542 113.292 404.167 113.381 403.843 113.56C403.524 113.739 403.256 113.985 403.038 114.298C402.826 114.605 402.666 114.96 402.56 115.363C402.454 115.76 402.401 116.182 402.401 116.629ZM412.085 112.185H413.636L413.502 115.581C413.469 116.442 413.371 117.185 413.209 117.811C413.047 118.437 412.84 118.971 412.588 119.413C412.337 119.849 412.054 120.215 411.741 120.511C411.434 120.807 411.115 121.056 410.785 121.257H410.014L410.056 119.991L410.375 119.983C410.559 119.765 410.738 119.541 410.911 119.312C411.085 119.077 411.244 118.801 411.389 118.482C411.534 118.158 411.655 117.764 411.75 117.3C411.85 116.83 411.915 116.257 411.943 115.581L412.085 112.185ZM412.471 112.185H417.929V121.257H416.378V113.619H412.471V112.185ZM409.662 119.983H419.095V123.932H417.543V121.257H411.213V123.932H409.654L409.662 119.983ZM422.49 118.801L426.674 112.185H428.234V121.257H426.674V114.642L422.49 121.257H420.948V112.185H422.49V118.801ZM435.939 119.195L439.025 112.185H440.517L436.476 121.257H435.403L431.378 112.185H432.871L435.939 119.195ZM432.418 112.185V121.257H430.867V112.185H432.418ZM439.411 121.257V112.185H440.97V121.257H439.411ZM443.058 116.822V116.629C443.058 115.975 443.153 115.368 443.343 114.81C443.533 114.245 443.807 113.756 444.165 113.342C444.523 112.923 444.956 112.599 445.464 112.37C445.973 112.135 446.543 112.017 447.175 112.017C447.812 112.017 448.385 112.135 448.894 112.37C449.408 112.599 449.844 112.923 450.202 113.342C450.565 113.756 450.842 114.245 451.032 114.81C451.222 115.368 451.317 115.975 451.317 116.629V116.822C451.317 117.476 451.222 118.082 451.032 118.641C450.842 119.2 450.565 119.689 450.202 120.109C449.844 120.522 449.411 120.846 448.902 121.081C448.399 121.31 447.829 121.425 447.192 121.425C446.554 121.425 445.981 121.31 445.473 121.081C444.964 120.846 444.528 120.522 444.165 120.109C443.807 119.689 443.533 119.2 443.343 118.641C443.153 118.082 443.058 117.476 443.058 116.822ZM444.609 116.629V116.822C444.609 117.275 444.662 117.702 444.769 118.105C444.875 118.502 445.034 118.854 445.246 119.161C445.464 119.469 445.736 119.712 446.06 119.891C446.384 120.064 446.761 120.151 447.192 120.151C447.617 120.151 447.988 120.064 448.307 119.891C448.631 119.712 448.899 119.469 449.112 119.161C449.324 118.854 449.483 118.502 449.59 118.105C449.701 117.702 449.757 117.275 449.757 116.822V116.629C449.757 116.182 449.701 115.76 449.59 115.363C449.483 114.96 449.321 114.605 449.103 114.298C448.891 113.985 448.623 113.739 448.298 113.56C447.98 113.381 447.605 113.292 447.175 113.292C446.75 113.292 446.376 113.381 446.051 113.56C445.733 113.739 445.464 113.985 445.246 114.298C445.034 114.605 444.875 114.96 444.769 115.363C444.662 115.76 444.609 116.182 444.609 116.629ZM463.567 112.185V113.468H458.981V112.185H463.567ZM459.207 112.185V121.257H457.656V112.185H459.207ZM464.942 112.185V121.257H463.382V112.185H464.942ZM467.021 116.822V116.629C467.021 115.975 467.116 115.368 467.306 114.81C467.497 114.245 467.77 113.756 468.128 113.342C468.486 112.923 468.919 112.599 469.428 112.37C469.936 112.135 470.507 112.017 471.138 112.017C471.776 112.017 472.348 112.135 472.857 112.37C473.371 112.599 473.807 112.923 474.165 113.342C474.528 113.756 474.805 114.245 474.995 114.81C475.185 115.368 475.28 115.975 475.28 116.629V116.822C475.28 117.476 475.185 118.082 474.995 118.641C474.805 119.2 474.528 119.689 474.165 120.109C473.807 120.522 473.374 120.846 472.866 121.081C472.362 121.31 471.792 121.425 471.155 121.425C470.518 121.425 469.945 121.31 469.436 121.081C468.928 120.846 468.492 120.522 468.128 120.109C467.77 119.689 467.497 119.2 467.306 118.641C467.116 118.082 467.021 117.476 467.021 116.822ZM468.573 116.629V116.822C468.573 117.275 468.626 117.702 468.732 118.105C468.838 118.502 468.997 118.854 469.21 119.161C469.428 119.469 469.699 119.712 470.023 119.891C470.347 120.064 470.725 120.151 471.155 120.151C471.58 120.151 471.952 120.064 472.27 119.891C472.594 119.712 472.863 119.469 473.075 119.161C473.288 118.854 473.447 118.502 473.553 118.105C473.665 117.702 473.721 117.275 473.721 116.822V116.629C473.721 116.182 473.665 115.76 473.553 115.363C473.447 114.96 473.285 114.605 473.067 114.298C472.854 113.985 472.586 113.739 472.262 113.56C471.943 113.381 471.569 113.292 471.138 113.292C470.713 113.292 470.339 113.381 470.015 113.56C469.696 113.739 469.428 113.985 469.21 114.298C468.997 114.605 468.838 114.96 468.732 115.363C468.626 115.76 468.573 116.182 468.573 116.629ZM483.154 112.185V113.468H478.768V112.185H483.154ZM484.52 112.185V121.257H482.969V112.185H484.52ZM478.391 112.185H479.951L479.716 116.562C479.677 117.238 479.612 117.836 479.523 118.356C479.439 118.87 479.322 119.312 479.171 119.681C479.025 120.05 478.841 120.352 478.617 120.587C478.399 120.816 478.137 120.986 477.829 121.098C477.522 121.204 477.167 121.257 476.764 121.257H476.278V119.891L476.613 119.865C476.854 119.849 477.058 119.793 477.226 119.698C477.399 119.603 477.544 119.463 477.662 119.279C477.779 119.088 477.874 118.845 477.947 118.549C478.025 118.253 478.084 117.901 478.123 117.493C478.167 117.085 478.201 116.609 478.223 116.067L478.391 112.185ZM489.568 120.318L492.092 112.185H493.752L490.113 122.658C490.029 122.881 489.917 123.122 489.777 123.379C489.643 123.641 489.47 123.89 489.258 124.125C489.045 124.36 488.788 124.55 488.486 124.695C488.19 124.846 487.835 124.921 487.421 124.921C487.298 124.921 487.142 124.905 486.952 124.871C486.762 124.838 486.628 124.81 486.549 124.787L486.541 123.53C486.586 123.535 486.656 123.541 486.751 123.546C486.851 123.558 486.921 123.563 486.96 123.563C487.312 123.563 487.611 123.516 487.857 123.421C488.103 123.331 488.31 123.177 488.478 122.959C488.651 122.747 488.799 122.454 488.922 122.079L489.568 120.318ZM487.715 112.185L490.071 119.228L490.473 120.863L489.358 121.433L486.021 112.185H487.715ZM501.994 112.185V121.257H500.443V112.185H501.994ZM501.466 116.352V117.627C501.153 117.744 500.834 117.85 500.51 117.945C500.191 118.035 499.853 118.107 499.495 118.163C499.143 118.214 498.76 118.239 498.347 118.239C497.631 118.239 497.011 118.116 496.485 117.87C495.96 117.618 495.554 117.241 495.269 116.738C494.984 116.229 494.842 115.589 494.842 114.818V112.168H496.393V114.818C496.393 115.321 496.468 115.729 496.619 116.042C496.77 116.355 496.991 116.587 497.282 116.738C497.572 116.883 497.927 116.956 498.347 116.956C498.749 116.956 499.126 116.931 499.478 116.881C499.836 116.825 500.177 116.752 500.501 116.663C500.831 116.573 501.153 116.47 501.466 116.352ZM506.169 118.801L510.353 112.185H511.913V121.257H510.353V114.642L506.169 121.257H504.627V112.185H506.169V118.801ZM518.101 112.185V121.257H516.541V112.185H518.101ZM521.144 112.185V113.443H513.556V112.185H521.144ZM523.945 115.304H526.67C527.402 115.304 528.02 115.433 528.523 115.69C529.026 115.941 529.406 116.291 529.663 116.738C529.926 117.18 530.057 117.683 530.057 118.247C530.057 118.666 529.985 119.061 529.839 119.429C529.694 119.793 529.476 120.111 529.185 120.385C528.9 120.659 528.545 120.874 528.12 121.031C527.701 121.182 527.218 121.257 526.67 121.257H522.813V112.185H524.364V119.983H526.67C527.117 119.983 527.475 119.902 527.743 119.74C528.011 119.578 528.204 119.368 528.322 119.111C528.439 118.854 528.498 118.585 528.498 118.306C528.498 118.032 528.439 117.764 528.322 117.501C528.204 117.238 528.011 117.02 527.743 116.847C527.475 116.668 527.117 116.579 526.67 116.579H523.945V115.304ZM537.889 112.185H539.44L539.306 115.581C539.272 116.442 539.174 117.185 539.012 117.811C538.85 118.437 538.643 118.971 538.392 119.413C538.14 119.849 537.858 120.215 537.545 120.511C537.237 120.807 536.919 121.056 536.589 121.257H535.818L535.86 119.991L536.178 119.983C536.363 119.765 536.541 119.541 536.715 119.312C536.888 119.077 537.047 118.801 537.193 118.482C537.338 118.158 537.458 117.764 537.553 117.3C537.654 116.83 537.718 116.257 537.746 115.581L537.889 112.185ZM538.274 112.185H543.733V121.257H542.182V113.619H538.274V112.185ZM535.465 119.983H544.898V123.932H543.347V121.257H537.017V123.932H535.457L535.465 119.983ZM546.206 116.822V116.629C546.206 115.975 546.301 115.368 546.491 114.81C546.681 114.245 546.955 113.756 547.313 113.342C547.671 112.923 548.104 112.599 548.613 112.37C549.121 112.135 549.691 112.017 550.323 112.017C550.96 112.017 551.533 112.135 552.042 112.37C552.556 112.599 552.992 112.923 553.35 113.342C553.713 113.756 553.99 114.245 554.18 114.81C554.37 115.368 554.465 115.975 554.465 116.629V116.822C554.465 117.476 554.37 118.082 554.18 118.641C553.99 119.2 553.713 119.689 553.35 120.109C552.992 120.522 552.559 120.846 552.05 121.081C551.547 121.31 550.977 121.425 550.34 121.425C549.703 121.425 549.13 121.31 548.621 121.081C548.112 120.846 547.676 120.522 547.313 120.109C546.955 119.689 546.681 119.2 546.491 118.641C546.301 118.082 546.206 117.476 546.206 116.822ZM547.757 116.629V116.822C547.757 117.275 547.81 117.702 547.917 118.105C548.023 118.502 548.182 118.854 548.395 119.161C548.613 119.469 548.884 119.712 549.208 119.891C549.532 120.064 549.909 120.151 550.34 120.151C550.765 120.151 551.136 120.064 551.455 119.891C551.779 119.712 552.048 119.469 552.26 119.161C552.472 118.854 552.632 118.502 552.738 118.105C552.85 117.702 552.906 117.275 552.906 116.822V116.629C552.906 116.182 552.85 115.76 552.738 115.363C552.632 114.96 552.47 114.605 552.252 114.298C552.039 113.985 551.771 113.739 551.447 113.56C551.128 113.381 550.753 113.292 550.323 113.292C549.898 113.292 549.524 113.381 549.2 113.56C548.881 113.739 548.613 113.985 548.395 114.298C548.182 114.605 548.023 114.96 547.917 115.363C547.81 115.76 547.757 116.182 547.757 116.629ZM560.041 120.151C560.41 120.151 560.751 120.075 561.064 119.924C561.377 119.773 561.634 119.566 561.835 119.304C562.037 119.035 562.151 118.731 562.179 118.39H563.655C563.627 118.926 563.445 119.427 563.11 119.891C562.78 120.349 562.347 120.721 561.81 121.006C561.273 121.285 560.684 121.425 560.041 121.425C559.359 121.425 558.764 121.305 558.255 121.064C557.752 120.824 557.333 120.494 556.997 120.075C556.668 119.656 556.419 119.175 556.251 118.633C556.089 118.085 556.008 117.507 556.008 116.897V116.545C556.008 115.936 556.089 115.36 556.251 114.818C556.419 114.27 556.668 113.787 556.997 113.367C557.333 112.948 557.752 112.618 558.255 112.378C558.764 112.138 559.359 112.017 560.041 112.017C560.751 112.017 561.371 112.163 561.902 112.453C562.433 112.739 562.85 113.13 563.152 113.627C563.459 114.119 563.627 114.678 563.655 115.304H562.179C562.151 114.93 562.045 114.592 561.86 114.29C561.682 113.988 561.436 113.747 561.123 113.569C560.815 113.384 560.455 113.292 560.041 113.292C559.566 113.292 559.166 113.387 558.842 113.577C558.523 113.761 558.269 114.013 558.079 114.332C557.894 114.645 557.76 114.994 557.676 115.38C557.598 115.76 557.559 116.148 557.559 116.545V116.897C557.559 117.294 557.598 117.685 557.676 118.071C557.755 118.457 557.886 118.806 558.071 119.119C558.261 119.432 558.515 119.684 558.834 119.874C559.158 120.058 559.56 120.151 560.041 120.151ZM569.096 112.185V121.257H567.537V112.185H569.096ZM572.14 112.185V113.443H564.552V112.185H572.14ZM576.316 120.318L578.839 112.185H580.5L576.861 122.658C576.777 122.881 576.665 123.122 576.525 123.379C576.391 123.641 576.218 123.89 576.005 124.125C575.793 124.36 575.536 124.55 575.234 124.695C574.938 124.846 574.583 124.921 574.169 124.921C574.046 124.921 573.89 124.905 573.7 124.871C573.51 124.838 573.375 124.81 573.297 124.787L573.289 123.53C573.333 123.535 573.403 123.541 573.498 123.546C573.599 123.558 573.669 123.563 573.708 123.563C574.06 123.563 574.359 123.516 574.605 123.421C574.851 123.331 575.058 123.177 575.226 122.959C575.399 122.747 575.547 122.454 575.67 122.079L576.316 120.318ZM574.463 112.185L576.819 119.228L577.221 120.863L576.106 121.433L572.769 112.185H574.463ZM587.945 112.185V113.468H583.359V112.185H587.945ZM583.585 112.185V121.257H582.034V112.185H583.585ZM589.32 112.185V121.257H587.761V112.185H589.32ZM34.7582 134.185V143.257H33.207V134.185H34.7582ZM40.7113 134.185L36.41 139.384H34.2383L34.0036 138.025H35.7811L38.8247 134.185H40.7113ZM39.0427 143.257L35.7056 139.149L36.7034 138.025L41.0131 143.257H39.0427ZM51.3766 132.131L47.3352 143.257H45.6834L50.3369 131.049H51.4018L51.3766 132.131ZM54.764 143.257L50.7142 132.131L50.6891 131.049H51.7539L56.4242 143.257H54.764ZM54.5544 138.738V140.063H47.6957V138.738H54.5544ZM62.5617 138.47H59.3001V137.153H62.5617C63.1934 137.153 63.7049 137.053 64.0961 136.851C64.4874 136.65 64.7725 136.371 64.9514 136.013C65.1358 135.655 65.2281 135.247 65.2281 134.789C65.2281 134.37 65.1358 133.975 64.9514 133.607C64.7725 133.238 64.4874 132.941 64.0961 132.718C63.7049 132.489 63.1934 132.374 62.5617 132.374H59.6774V143.257H58.0592V131.049H62.5617C63.4841 131.049 64.2638 131.209 64.9011 131.527C65.5383 131.846 66.0218 132.287 66.3516 132.852C66.6814 133.411 66.8463 134.051 66.8463 134.772C66.8463 135.555 66.6814 136.223 66.3516 136.776C66.0218 137.329 65.5383 137.751 64.9011 138.042C64.2638 138.327 63.4841 138.47 62.5617 138.47ZM70.6278 131.049V143.257H69.0096V131.049H70.6278ZM81.8549 139.266H78.8783L78.8615 138.025H81.2931C81.7738 138.025 82.1735 137.978 82.4921 137.883C82.8163 137.788 83.0595 137.645 83.2216 137.455C83.3837 137.265 83.4647 137.03 83.4647 136.751C83.4647 136.533 83.4172 136.343 83.3222 136.181C83.2328 136.013 83.0958 135.876 82.9113 135.77C82.7269 135.658 82.4977 135.577 82.2238 135.527C81.9555 135.471 81.6397 135.443 81.2763 135.443H79.2892V143.257H77.738V134.185H81.2763C81.8521 134.185 82.3691 134.235 82.8275 134.336C83.2914 134.437 83.6855 134.59 84.0097 134.797C84.3395 134.998 84.5911 135.256 84.7643 135.569C84.9376 135.882 85.0243 136.251 85.0243 136.675C85.0243 136.949 84.9684 137.209 84.8566 137.455C84.7448 137.701 84.5799 137.919 84.3619 138.109C84.1439 138.299 83.8756 138.456 83.557 138.579C83.2383 138.696 82.8722 138.772 82.4586 138.805L81.8549 139.266ZM81.8549 143.257H78.3165L79.0879 142H81.8549C82.2853 142 82.643 141.947 82.9281 141.84C83.2132 141.729 83.4256 141.572 83.5653 141.371C83.7107 141.164 83.7833 140.918 83.7833 140.633C83.7833 140.348 83.7107 140.105 83.5653 139.903C83.4256 139.697 83.2132 139.54 82.9281 139.434C82.643 139.322 82.2853 139.266 81.8549 139.266H79.4988L79.5155 138.025H82.4586L83.0203 138.495C83.5178 138.534 83.9399 138.657 84.2864 138.864C84.633 139.071 84.8957 139.333 85.0746 139.652C85.2535 139.965 85.3429 140.306 85.3429 140.675C85.3429 141.1 85.2618 141.474 85.0997 141.798C84.9432 142.123 84.714 142.394 84.4122 142.612C84.1103 142.824 83.7442 142.986 83.3138 143.098C82.8834 143.204 82.3971 143.257 81.8549 143.257ZM92.7717 141.706V137.036C92.7717 136.678 92.699 136.368 92.5537 136.105C92.414 135.837 92.2016 135.63 91.9165 135.485C91.6314 135.339 91.2792 135.267 90.86 135.267C90.4687 135.267 90.1249 135.334 89.8287 135.468C89.538 135.602 89.3088 135.778 89.1411 135.996C88.979 136.214 88.898 136.449 88.898 136.701H87.3468C87.3468 136.376 87.4307 136.055 87.5984 135.736C87.7661 135.418 88.0064 135.13 88.3194 134.873C88.6381 134.61 89.0182 134.403 89.4598 134.252C89.9069 134.096 90.4044 134.017 90.9522 134.017C91.6118 134.017 92.1932 134.129 92.6962 134.353C93.2049 134.576 93.6018 134.915 93.8869 135.367C94.1775 135.815 94.3229 136.376 94.3229 137.053V141.279C94.3229 141.58 94.348 141.902 94.3983 142.243C94.4542 142.584 94.5353 142.877 94.6415 143.123V143.257H93.0232C92.945 143.078 92.8835 142.841 92.8388 142.545C92.7941 142.243 92.7717 141.963 92.7717 141.706ZM93.04 137.757L93.0568 138.847H91.4889C91.0473 138.847 90.6532 138.883 90.3066 138.956C89.96 139.023 89.6694 139.126 89.4346 139.266C89.1998 139.406 89.021 139.582 88.898 139.794C88.775 140.001 88.7135 140.244 88.7135 140.524C88.7135 140.809 88.7778 141.069 88.9064 141.304C89.0349 141.538 89.2278 141.726 89.4849 141.865C89.7476 142 90.0691 142.067 90.4492 142.067C90.9243 142.067 91.3435 141.966 91.7069 141.765C92.0702 141.564 92.3581 141.318 92.5705 141.027C92.7885 140.736 92.9059 140.454 92.9226 140.18L93.585 140.926C93.5459 141.161 93.4397 141.421 93.2664 141.706C93.0931 141.991 92.8611 142.265 92.5705 142.528C92.2854 142.785 91.9444 143 91.5475 143.173C91.1563 143.341 90.7147 143.425 90.2228 143.425C89.6079 143.425 89.0685 143.305 88.6045 143.064C88.1462 142.824 87.7884 142.503 87.5313 142.1C87.2798 141.692 87.154 141.237 87.154 140.734C87.154 140.247 87.249 139.82 87.4391 139.451C87.6291 139.076 87.903 138.766 88.2608 138.52C88.6185 138.268 89.0489 138.078 89.552 137.95C90.0551 137.821 90.6168 137.757 91.2373 137.757H93.04ZM96.897 134.185H98.4481V141.983H101.768V134.185H103.328V141.983H106.64V134.185H108.191V143.257H96.897V134.185ZM114.429 143.425C113.798 143.425 113.225 143.319 112.71 143.106C112.202 142.888 111.763 142.584 111.394 142.192C111.031 141.801 110.751 141.337 110.556 140.801C110.36 140.264 110.262 139.677 110.262 139.04V138.688C110.262 137.95 110.371 137.293 110.589 136.717C110.807 136.136 111.103 135.644 111.478 135.242C111.852 134.839 112.277 134.534 112.752 134.328C113.228 134.121 113.719 134.017 114.228 134.017C114.876 134.017 115.435 134.129 115.905 134.353C116.38 134.576 116.769 134.889 117.07 135.292C117.372 135.689 117.596 136.158 117.741 136.701C117.887 137.237 117.959 137.824 117.959 138.461V139.157H111.184V137.891H116.408V137.774C116.386 137.371 116.302 136.98 116.157 136.6C116.017 136.22 115.793 135.907 115.486 135.661C115.178 135.415 114.759 135.292 114.228 135.292C113.876 135.292 113.552 135.367 113.255 135.518C112.959 135.664 112.705 135.882 112.492 136.172C112.28 136.463 112.115 136.818 111.998 137.237C111.88 137.656 111.822 138.14 111.822 138.688V139.04C111.822 139.47 111.88 139.876 111.998 140.256C112.121 140.63 112.297 140.96 112.526 141.245C112.761 141.53 113.043 141.754 113.373 141.916C113.708 142.078 114.088 142.159 114.513 142.159C115.061 142.159 115.525 142.047 115.905 141.824C116.285 141.6 116.618 141.301 116.903 140.926L117.842 141.673C117.646 141.969 117.397 142.251 117.096 142.519C116.794 142.788 116.422 143.006 115.98 143.173C115.544 143.341 115.027 143.425 114.429 143.425ZM125.631 134.185V135.468H121.439V143.257H119.888V134.185H125.631ZM126.403 138.822V138.629C126.403 137.975 126.498 137.368 126.688 136.81C126.878 136.245 127.152 135.756 127.509 135.342C127.867 134.923 128.3 134.599 128.809 134.37C129.318 134.135 129.888 134.017 130.519 134.017C131.157 134.017 131.73 134.135 132.238 134.37C132.753 134.599 133.189 134.923 133.546 135.342C133.91 135.756 134.186 136.245 134.376 136.81C134.566 137.368 134.662 137.975 134.662 138.629V138.822C134.662 139.476 134.566 140.082 134.376 140.641C134.186 141.2 133.91 141.689 133.546 142.109C133.189 142.522 132.755 142.846 132.247 143.081C131.744 143.31 131.173 143.425 130.536 143.425C129.899 143.425 129.326 143.31 128.817 143.081C128.309 142.846 127.873 142.522 127.509 142.109C127.152 141.689 126.878 141.2 126.688 140.641C126.498 140.082 126.403 139.476 126.403 138.822ZM127.954 138.629V138.822C127.954 139.275 128.007 139.702 128.113 140.105C128.219 140.502 128.379 140.854 128.591 141.161C128.809 141.469 129.08 141.712 129.404 141.891C129.729 142.064 130.106 142.151 130.536 142.151C130.961 142.151 131.333 142.064 131.651 141.891C131.976 141.712 132.244 141.469 132.456 141.161C132.669 140.854 132.828 140.502 132.934 140.105C133.046 139.702 133.102 139.275 133.102 138.822V138.629C133.102 138.182 133.046 137.76 132.934 137.363C132.828 136.96 132.666 136.605 132.448 136.298C132.236 135.985 131.967 135.739 131.643 135.56C131.324 135.381 130.95 135.292 130.519 135.292C130.095 135.292 129.72 135.381 129.396 135.56C129.077 135.739 128.809 135.985 128.591 136.298C128.379 136.605 128.219 136.96 128.113 137.363C128.007 137.76 127.954 138.182 127.954 138.629ZM150.123 137.178V141.647C149.972 141.871 149.732 142.123 149.402 142.402C149.072 142.676 148.616 142.916 148.035 143.123C147.459 143.324 146.716 143.425 145.805 143.425C145.061 143.425 144.377 143.296 143.75 143.039C143.13 142.777 142.591 142.396 142.132 141.899C141.679 141.396 141.327 140.787 141.076 140.071C140.83 139.35 140.707 138.534 140.707 137.623V136.675C140.707 135.764 140.813 134.951 141.025 134.235C141.243 133.52 141.562 132.913 141.981 132.416C142.401 131.913 142.915 131.533 143.524 131.276C144.133 131.013 144.832 130.882 145.62 130.882C146.554 130.882 147.334 131.044 147.96 131.368C148.591 131.686 149.083 132.128 149.435 132.693C149.793 133.257 150.022 133.9 150.123 134.621H148.505C148.432 134.18 148.287 133.777 148.069 133.414C147.856 133.05 147.552 132.76 147.155 132.542C146.758 132.318 146.246 132.206 145.62 132.206C145.056 132.206 144.567 132.31 144.153 132.517C143.739 132.723 143.398 133.02 143.13 133.405C142.862 133.791 142.66 134.258 142.526 134.806C142.398 135.353 142.333 135.971 142.333 136.659V137.623C142.333 138.327 142.415 138.956 142.577 139.509C142.744 140.063 142.982 140.535 143.289 140.926C143.597 141.312 143.963 141.606 144.388 141.807C144.818 142.008 145.293 142.109 145.813 142.109C146.389 142.109 146.856 142.061 147.213 141.966C147.571 141.865 147.851 141.748 148.052 141.614C148.253 141.474 148.407 141.343 148.513 141.22V138.486H145.687V137.178H150.123ZM152.16 138.822V138.629C152.16 137.975 152.255 137.368 152.445 136.81C152.635 136.245 152.909 135.756 153.267 135.342C153.625 134.923 154.058 134.599 154.567 134.37C155.075 134.135 155.646 134.017 156.277 134.017C156.914 134.017 157.487 134.135 157.996 134.37C158.51 134.599 158.946 134.923 159.304 135.342C159.667 135.756 159.944 136.245 160.134 136.81C160.324 137.368 160.419 137.975 160.419 138.629V138.822C160.419 139.476 160.324 140.082 160.134 140.641C159.944 141.2 159.667 141.689 159.304 142.109C158.946 142.522 158.513 142.846 158.004 143.081C157.501 143.31 156.931 143.425 156.294 143.425C155.657 143.425 155.084 143.31 154.575 143.081C154.066 142.846 153.63 142.522 153.267 142.109C152.909 141.689 152.635 141.2 152.445 140.641C152.255 140.082 152.16 139.476 152.16 138.822ZM153.711 138.629V138.822C153.711 139.275 153.765 139.702 153.871 140.105C153.977 140.502 154.136 140.854 154.349 141.161C154.567 141.469 154.838 141.712 155.162 141.891C155.486 142.064 155.864 142.151 156.294 142.151C156.719 142.151 157.091 142.064 157.409 141.891C157.733 141.712 158.002 141.469 158.214 141.161C158.426 140.854 158.586 140.502 158.692 140.105C158.804 139.702 158.86 139.275 158.86 138.822V138.629C158.86 138.182 158.804 137.76 158.692 137.363C158.586 136.96 158.424 136.605 158.206 136.298C157.993 135.985 157.725 135.739 157.401 135.56C157.082 135.381 156.708 135.292 156.277 135.292C155.852 135.292 155.478 135.381 155.154 135.56C154.835 135.739 154.567 135.985 154.349 136.298C154.136 136.605 153.977 136.96 153.871 137.363C153.765 137.76 153.711 138.182 153.711 138.629ZM161.954 138.822V138.629C161.954 137.975 162.049 137.368 162.239 136.81C162.429 136.245 162.703 135.756 163.06 135.342C163.418 134.923 163.851 134.599 164.36 134.37C164.869 134.135 165.439 134.017 166.07 134.017C166.708 134.017 167.281 134.135 167.789 134.37C168.304 134.599 168.74 134.923 169.097 135.342C169.461 135.756 169.737 136.245 169.927 136.81C170.117 137.368 170.213 137.975 170.213 138.629V138.822C170.213 139.476 170.117 140.082 169.927 140.641C169.737 141.2 169.461 141.689 169.097 142.109C168.74 142.522 168.306 142.846 167.798 143.081C167.295 143.31 166.724 143.425 166.087 143.425C165.45 143.425 164.877 143.31 164.368 143.081C163.86 142.846 163.424 142.522 163.06 142.109C162.703 141.689 162.429 141.2 162.239 140.641C162.049 140.082 161.954 139.476 161.954 138.822ZM163.505 138.629V138.822C163.505 139.275 163.558 139.702 163.664 140.105C163.77 140.502 163.93 140.854 164.142 141.161C164.36 141.469 164.631 141.712 164.955 141.891C165.28 142.064 165.657 142.151 166.087 142.151C166.512 142.151 166.884 142.064 167.202 141.891C167.527 141.712 167.795 141.469 168.007 141.161C168.22 140.854 168.379 140.502 168.485 140.105C168.597 139.702 168.653 139.275 168.653 138.822V138.629C168.653 138.182 168.597 137.76 168.485 137.363C168.379 136.96 168.217 136.605 167.999 136.298C167.787 135.985 167.518 135.739 167.194 135.56C166.875 135.381 166.501 135.292 166.07 135.292C165.646 135.292 165.271 135.381 164.947 135.56C164.628 135.739 164.36 135.985 164.142 136.298C163.93 136.605 163.77 136.96 163.664 137.363C163.558 137.76 163.505 138.182 163.505 138.629ZM178.035 134.185H179.444V143.064C179.444 143.864 179.282 144.546 178.958 145.11C178.634 145.675 178.181 146.103 177.599 146.393C177.024 146.689 176.358 146.838 175.604 146.838C175.291 146.838 174.922 146.787 174.497 146.687C174.078 146.592 173.664 146.427 173.256 146.192C172.854 145.963 172.516 145.653 172.242 145.261L173.055 144.339C173.435 144.797 173.832 145.116 174.246 145.295C174.665 145.474 175.078 145.563 175.486 145.563C175.978 145.563 176.403 145.471 176.761 145.286C177.119 145.102 177.395 144.828 177.591 144.465C177.792 144.107 177.893 143.665 177.893 143.14V136.181L178.035 134.185ZM171.789 138.822V138.646C171.789 137.953 171.87 137.324 172.032 136.759C172.2 136.189 172.437 135.7 172.745 135.292C173.058 134.884 173.435 134.571 173.877 134.353C174.318 134.129 174.816 134.017 175.369 134.017C175.939 134.017 176.437 134.118 176.862 134.319C177.292 134.515 177.655 134.803 177.952 135.183C178.253 135.557 178.491 136.01 178.664 136.541C178.838 137.072 178.958 137.673 179.025 138.344V139.115C178.963 139.78 178.843 140.379 178.664 140.91C178.491 141.441 178.253 141.893 177.952 142.268C177.655 142.642 177.292 142.93 176.862 143.132C176.431 143.327 175.928 143.425 175.352 143.425C174.81 143.425 174.318 143.31 173.877 143.081C173.441 142.852 173.066 142.531 172.753 142.117C172.44 141.703 172.2 141.217 172.032 140.658C171.87 140.094 171.789 139.481 171.789 138.822ZM173.34 138.646V138.822C173.34 139.275 173.385 139.699 173.474 140.096C173.569 140.493 173.712 140.843 173.902 141.144C174.097 141.446 174.346 141.684 174.648 141.857C174.95 142.025 175.31 142.109 175.73 142.109C176.244 142.109 176.669 142 177.004 141.782C177.339 141.564 177.605 141.276 177.801 140.918C178.002 140.56 178.158 140.172 178.27 139.753V137.732C178.209 137.424 178.114 137.128 177.985 136.843C177.862 136.552 177.7 136.295 177.499 136.072C177.303 135.842 177.06 135.661 176.769 135.527C176.479 135.393 176.138 135.325 175.746 135.325C175.322 135.325 174.955 135.415 174.648 135.594C174.346 135.767 174.097 136.007 173.902 136.315C173.712 136.617 173.569 136.969 173.474 137.371C173.385 137.768 173.34 138.193 173.34 138.646ZM183.485 130.378V143.257H181.926V130.378H183.485ZM189.74 143.425C189.109 143.425 188.536 143.319 188.022 143.106C187.513 142.888 187.074 142.584 186.705 142.192C186.342 141.801 186.062 141.337 185.867 140.801C185.671 140.264 185.573 139.677 185.573 139.04V138.688C185.573 137.95 185.682 137.293 185.9 136.717C186.118 136.136 186.414 135.644 186.789 135.242C187.164 134.839 187.588 134.534 188.063 134.328C188.539 134.121 189.031 134.017 189.539 134.017C190.188 134.017 190.747 134.129 191.216 134.353C191.691 134.576 192.08 134.889 192.382 135.292C192.683 135.689 192.907 136.158 193.052 136.701C193.198 137.237 193.27 137.824 193.27 138.461V139.157H186.496V137.891H191.719V137.774C191.697 137.371 191.613 136.98 191.468 136.6C191.328 136.22 191.104 135.907 190.797 135.661C190.489 135.415 190.07 135.292 189.539 135.292C189.187 135.292 188.863 135.367 188.567 135.518C188.27 135.664 188.016 135.882 187.804 136.172C187.591 136.463 187.426 136.818 187.309 137.237C187.191 137.656 187.133 138.14 187.133 138.688V139.04C187.133 139.47 187.191 139.876 187.309 140.256C187.432 140.63 187.608 140.96 187.837 141.245C188.072 141.53 188.354 141.754 188.684 141.916C189.019 142.078 189.399 142.159 189.824 142.159C190.372 142.159 190.836 142.047 191.216 141.824C191.596 141.6 191.929 141.301 192.214 140.926L193.153 141.673C192.957 141.969 192.709 142.251 192.407 142.519C192.105 142.788 191.733 143.006 191.292 143.173C190.856 143.341 190.339 143.425 189.74 143.425ZM204.095 132.131L200.054 143.257H198.402L203.055 131.049H204.12L204.095 132.131ZM207.482 143.257L203.433 132.131L203.407 131.049H204.472L209.143 143.257H207.482ZM207.273 138.738V140.063H200.414V138.738H207.273ZM216.261 141.497V130.378H217.821V143.257H216.395L216.261 141.497ZM210.157 138.822V138.646C210.157 137.953 210.241 137.324 210.409 136.759C210.582 136.189 210.825 135.7 211.138 135.292C211.457 134.884 211.834 134.571 212.27 134.353C212.712 134.129 213.204 134.017 213.746 134.017C214.316 134.017 214.813 134.118 215.238 134.319C215.669 134.515 216.032 134.803 216.328 135.183C216.63 135.557 216.868 136.01 217.041 136.541C217.214 137.072 217.334 137.673 217.401 138.344V139.115C217.34 139.78 217.22 140.379 217.041 140.91C216.868 141.441 216.63 141.893 216.328 142.268C216.032 142.642 215.669 142.93 215.238 143.132C214.808 143.327 214.305 143.425 213.729 143.425C213.198 143.425 212.712 143.31 212.27 143.081C211.834 142.852 211.457 142.531 211.138 142.117C210.825 141.703 210.582 141.217 210.409 140.658C210.241 140.094 210.157 139.481 210.157 138.822ZM211.717 138.646V138.822C211.717 139.275 211.761 139.699 211.851 140.096C211.946 140.493 212.091 140.843 212.287 141.144C212.482 141.446 212.731 141.684 213.033 141.857C213.335 142.025 213.695 142.109 214.115 142.109C214.629 142.109 215.051 142 215.381 141.782C215.716 141.564 215.984 141.276 216.186 140.918C216.387 140.56 216.543 140.172 216.655 139.753V137.732C216.588 137.424 216.49 137.128 216.362 136.843C216.239 136.552 216.077 136.295 215.875 136.072C215.68 135.842 215.437 135.661 215.146 135.527C214.861 135.393 214.523 135.325 214.131 135.325C213.707 135.325 213.34 135.415 213.033 135.594C212.731 135.767 212.482 136.007 212.287 136.315C212.091 136.617 211.946 136.969 211.851 137.371C211.761 137.768 211.717 138.193 211.717 138.646ZM225.518 140.851C225.518 140.627 225.467 140.421 225.367 140.23C225.272 140.035 225.073 139.859 224.772 139.702C224.475 139.54 224.028 139.4 223.43 139.283C222.927 139.177 222.471 139.051 222.063 138.906C221.661 138.76 221.317 138.584 221.032 138.377C220.753 138.171 220.537 137.927 220.386 137.648C220.235 137.368 220.16 137.041 220.16 136.667C220.16 136.309 220.238 135.971 220.395 135.652C220.557 135.334 220.783 135.052 221.074 134.806C221.37 134.56 221.725 134.367 222.139 134.227C222.552 134.087 223.014 134.017 223.522 134.017C224.249 134.017 224.869 134.146 225.384 134.403C225.898 134.66 226.292 135.004 226.566 135.434C226.84 135.859 226.977 136.332 226.977 136.851H225.426C225.426 136.6 225.35 136.357 225.199 136.122C225.054 135.882 224.839 135.683 224.554 135.527C224.274 135.37 223.93 135.292 223.522 135.292C223.092 135.292 222.742 135.359 222.474 135.493C222.211 135.622 222.019 135.787 221.896 135.988C221.778 136.189 221.72 136.401 221.72 136.625C221.72 136.793 221.747 136.944 221.803 137.078C221.865 137.206 221.971 137.327 222.122 137.438C222.273 137.545 222.485 137.645 222.759 137.74C223.033 137.835 223.382 137.93 223.807 138.025C224.551 138.193 225.163 138.394 225.644 138.629C226.124 138.864 226.482 139.152 226.717 139.493C226.952 139.834 227.069 140.247 227.069 140.734C227.069 141.13 226.985 141.494 226.817 141.824C226.655 142.153 226.418 142.438 226.105 142.679C225.797 142.914 225.428 143.098 224.998 143.232C224.573 143.361 224.095 143.425 223.564 143.425C222.765 143.425 222.088 143.282 221.535 142.997C220.982 142.712 220.562 142.343 220.277 141.891C219.992 141.438 219.85 140.96 219.85 140.457H221.409C221.432 140.882 221.555 141.22 221.778 141.471C222.002 141.717 222.276 141.893 222.6 142C222.924 142.1 223.246 142.151 223.564 142.151C223.989 142.151 224.344 142.095 224.629 141.983C224.92 141.871 225.14 141.717 225.291 141.522C225.442 141.326 225.518 141.102 225.518 140.851Z" fill="#333333"/>
<g filter="url(#filter0_d_49_4445)">
<rect x="31.8906" y="175.015" width="591.68" height="49.3046" rx="6.13279" fill="#4399FF"/>
<path d="M257.491 200.501H254.314V198.833H257.491C258.045 198.833 258.492 198.743 258.833 198.564C259.174 198.386 259.423 198.14 259.579 197.827C259.741 197.508 259.822 197.145 259.822 196.737C259.822 196.351 259.741 195.99 259.579 195.655C259.423 195.314 259.174 195.04 258.833 194.833C258.492 194.626 258.045 194.523 257.491 194.523H254.959V205.054H252.855V192.846H257.491C258.436 192.846 259.238 193.014 259.898 193.349C260.563 193.679 261.069 194.137 261.415 194.724C261.762 195.306 261.935 195.971 261.935 196.72C261.935 197.508 261.762 198.184 261.415 198.749C261.069 199.313 260.563 199.747 259.898 200.049C259.238 200.35 258.436 200.501 257.491 200.501ZM268.635 203.235V198.908C268.635 198.584 268.576 198.305 268.458 198.07C268.341 197.835 268.162 197.653 267.922 197.525C267.687 197.396 267.391 197.332 267.033 197.332C266.703 197.332 266.418 197.388 266.178 197.5C265.938 197.611 265.75 197.762 265.616 197.952C265.482 198.142 265.415 198.358 265.415 198.598H263.403C263.403 198.24 263.489 197.894 263.662 197.558C263.836 197.223 264.087 196.924 264.417 196.661C264.747 196.398 265.141 196.192 265.599 196.041C266.058 195.89 266.572 195.814 267.142 195.814C267.824 195.814 268.428 195.929 268.953 196.158C269.484 196.387 269.901 196.734 270.203 197.198C270.51 197.656 270.664 198.232 270.664 198.925V202.958C270.664 203.372 270.692 203.743 270.748 204.073C270.809 204.397 270.896 204.68 271.007 204.92V205.054H268.936C268.841 204.836 268.766 204.56 268.71 204.224C268.66 203.883 268.635 203.553 268.635 203.235ZM268.928 199.537L268.945 200.786H267.494C267.12 200.786 266.79 200.823 266.505 200.895C266.22 200.962 265.982 201.063 265.792 201.197C265.602 201.331 265.46 201.494 265.365 201.684C265.27 201.874 265.222 202.089 265.222 202.329C265.222 202.57 265.278 202.79 265.39 202.992C265.502 203.187 265.664 203.341 265.876 203.453C266.094 203.565 266.357 203.62 266.664 203.62C267.078 203.62 267.438 203.537 267.746 203.369C268.059 203.196 268.305 202.986 268.484 202.74C268.663 202.488 268.758 202.251 268.769 202.027L269.423 202.924C269.356 203.154 269.241 203.4 269.079 203.662C268.917 203.925 268.704 204.177 268.442 204.417C268.185 204.652 267.874 204.845 267.511 204.996C267.153 205.146 266.74 205.222 266.27 205.222C265.678 205.222 265.149 205.105 264.685 204.87C264.221 204.629 263.858 204.308 263.595 203.905C263.333 203.497 263.201 203.036 263.201 202.522C263.201 202.041 263.291 201.616 263.47 201.248C263.654 200.873 263.922 200.56 264.275 200.308C264.632 200.057 265.068 199.867 265.583 199.738C266.097 199.604 266.684 199.537 267.343 199.537H268.928ZM276.533 200.719H274.789V199.696H276.198C276.555 199.696 276.84 199.649 277.053 199.554C277.271 199.459 277.425 199.327 277.514 199.16C277.609 198.986 277.656 198.785 277.656 198.556C277.656 198.355 277.609 198.165 277.514 197.986C277.425 197.801 277.271 197.651 277.053 197.533C276.835 197.416 276.539 197.357 276.164 197.357C275.857 197.357 275.58 197.407 275.334 197.508C275.094 197.609 274.904 197.748 274.764 197.927C274.624 198.106 274.554 198.313 274.554 198.548H272.533C272.533 197.983 272.693 197.497 273.011 197.089C273.336 196.681 273.769 196.368 274.311 196.15C274.853 195.932 275.449 195.823 276.097 195.823C276.65 195.823 277.148 195.881 277.589 195.999C278.031 196.111 278.406 196.278 278.713 196.502C279.026 196.72 279.264 196.994 279.426 197.324C279.593 197.648 279.677 198.025 279.677 198.455C279.677 198.763 279.605 199.054 279.459 199.327C279.314 199.601 279.104 199.845 278.83 200.057C278.556 200.264 278.224 200.426 277.833 200.543C277.447 200.661 277.014 200.719 276.533 200.719ZM274.789 200.132H276.533C277.07 200.132 277.545 200.186 277.958 200.292C278.372 200.392 278.719 200.543 278.998 200.744C279.278 200.946 279.487 201.194 279.627 201.491C279.772 201.781 279.845 202.117 279.845 202.497C279.845 202.922 279.753 203.305 279.568 203.646C279.389 203.981 279.132 204.266 278.797 204.501C278.467 204.736 278.073 204.914 277.615 205.037C277.156 205.16 276.65 205.222 276.097 205.222C275.493 205.222 274.906 205.121 274.336 204.92C273.772 204.719 273.305 204.409 272.936 203.989C272.573 203.565 272.391 203.025 272.391 202.371H274.412C274.412 202.6 274.481 202.815 274.621 203.017C274.761 203.218 274.962 203.383 275.225 203.511C275.488 203.634 275.803 203.696 276.172 203.696C276.552 203.696 276.863 203.637 277.103 203.52C277.343 203.397 277.522 203.238 277.64 203.042C277.757 202.841 277.816 202.628 277.816 202.405C277.816 202.103 277.757 201.86 277.64 201.675C277.522 201.491 277.343 201.357 277.103 201.273C276.863 201.183 276.561 201.139 276.198 201.139H274.789V200.132ZM283.593 197.726V208.542H281.572V195.982H283.434L283.593 197.726ZM289.504 200.434V200.61C289.504 201.27 289.426 201.882 289.269 202.447C289.118 203.006 288.892 203.495 288.59 203.914C288.294 204.328 287.928 204.649 287.492 204.878C287.056 205.107 286.553 205.222 285.982 205.222C285.418 205.222 284.923 205.118 284.498 204.912C284.079 204.699 283.724 204.4 283.434 204.015C283.143 203.629 282.908 203.176 282.729 202.656C282.556 202.131 282.433 201.555 282.36 200.929V200.25C282.433 199.585 282.556 198.981 282.729 198.439C282.908 197.896 283.143 197.43 283.434 197.038C283.724 196.647 284.079 196.345 284.498 196.133C284.918 195.92 285.407 195.814 285.966 195.814C286.536 195.814 287.042 195.926 287.483 196.15C287.925 196.368 288.297 196.681 288.598 197.089C288.9 197.491 289.127 197.978 289.278 198.548C289.429 199.112 289.504 199.741 289.504 200.434ZM287.483 200.61V200.434C287.483 200.015 287.444 199.627 287.366 199.269C287.288 198.905 287.165 198.587 286.997 198.313C286.829 198.039 286.614 197.827 286.351 197.676C286.094 197.519 285.784 197.441 285.421 197.441C285.063 197.441 284.755 197.502 284.498 197.625C284.241 197.743 284.026 197.908 283.853 198.12C283.679 198.332 283.545 198.581 283.45 198.866C283.355 199.146 283.288 199.45 283.249 199.78V201.407C283.316 201.809 283.431 202.178 283.593 202.514C283.755 202.849 283.984 203.117 284.28 203.319C284.582 203.514 284.968 203.612 285.437 203.612C285.801 203.612 286.111 203.534 286.368 203.377C286.625 203.221 286.835 203.006 286.997 202.732C287.165 202.452 287.288 202.131 287.366 201.767C287.444 201.404 287.483 201.018 287.483 200.61ZM295.222 205.222C294.552 205.222 293.945 205.113 293.403 204.895C292.866 204.671 292.408 204.361 292.028 203.964C291.653 203.567 291.365 203.101 291.164 202.564C290.963 202.027 290.862 201.449 290.862 200.828V200.493C290.862 199.783 290.966 199.14 291.173 198.564C291.379 197.989 291.667 197.497 292.036 197.089C292.405 196.675 292.841 196.359 293.344 196.141C293.847 195.923 294.392 195.814 294.979 195.814C295.628 195.814 296.195 195.923 296.681 196.141C297.168 196.359 297.57 196.667 297.889 197.064C298.213 197.455 298.453 197.922 298.61 198.464C298.772 199.006 298.853 199.604 298.853 200.258V201.122H291.843V199.671H296.857V199.512C296.846 199.149 296.774 198.808 296.639 198.489C296.511 198.17 296.312 197.913 296.044 197.718C295.776 197.522 295.418 197.424 294.971 197.424C294.635 197.424 294.336 197.497 294.074 197.642C293.817 197.782 293.601 197.986 293.428 198.254C293.255 198.523 293.121 198.847 293.026 199.227C292.936 199.601 292.891 200.023 292.891 200.493V200.828C292.891 201.225 292.945 201.594 293.051 201.935C293.163 202.27 293.325 202.564 293.537 202.815C293.749 203.067 294.007 203.265 294.308 203.411C294.61 203.551 294.954 203.62 295.34 203.62C295.826 203.62 296.259 203.523 296.639 203.327C297.019 203.131 297.349 202.855 297.629 202.497L298.694 203.528C298.498 203.813 298.244 204.087 297.931 204.35C297.618 204.607 297.235 204.817 296.782 204.979C296.335 205.141 295.815 205.222 295.222 205.222ZM300.496 195.982H302.517V203.444H305.393V195.982H307.43V203.444H310.298V195.982H312.319V205.054H300.496V195.982ZM316.586 202.103L320.15 195.982H322.171V205.054H320.15V198.925L316.586 205.054H314.566V195.982H316.586V202.103ZM328.518 195.982V205.054H326.489V195.982H328.518ZM331.494 195.982V197.575H323.563V195.982H331.494ZM334.345 198.866H337.02C337.803 198.866 338.468 198.998 339.015 199.26C339.563 199.523 339.98 199.889 340.265 200.359C340.555 200.823 340.701 201.354 340.701 201.952C340.701 202.393 340.62 202.804 340.458 203.184C340.296 203.559 340.055 203.886 339.737 204.165C339.424 204.445 339.038 204.663 338.579 204.819C338.127 204.976 337.607 205.054 337.02 205.054H333.004V195.982H335.033V203.453H337.02C337.422 203.453 337.744 203.383 337.984 203.243C338.225 203.103 338.398 202.922 338.504 202.698C338.616 202.475 338.672 202.237 338.672 201.985C338.672 201.728 338.616 201.485 338.504 201.256C338.398 201.027 338.225 200.84 337.984 200.694C337.744 200.549 337.422 200.476 337.02 200.476H334.345V198.866ZM348.239 195.982H350.259L350.159 199.177C350.131 200.104 350.025 200.901 349.84 201.566C349.656 202.231 349.415 202.793 349.119 203.251C348.823 203.704 348.487 204.076 348.113 204.367C347.744 204.657 347.355 204.887 346.947 205.054H346.352V203.461L346.637 203.444C346.878 203.187 347.084 202.93 347.258 202.673C347.436 202.41 347.587 202.122 347.71 201.809C347.833 201.491 347.928 201.119 347.995 200.694C348.068 200.269 348.116 199.763 348.138 199.177L348.239 195.982ZM348.775 195.982H354.527V205.054H352.515V197.692H348.775V195.982ZM345.891 203.444H355.768V207.754H353.747V205.054H347.937V207.754H345.883L345.891 203.444ZM356.825 200.619V200.426C356.825 199.772 356.92 199.165 357.11 198.606C357.3 198.042 357.574 197.553 357.931 197.139C358.295 196.72 358.736 196.396 359.256 196.166C359.782 195.932 360.374 195.814 361.034 195.814C361.699 195.814 362.291 195.932 362.811 196.166C363.337 196.396 363.781 196.72 364.144 197.139C364.508 197.553 364.784 198.042 364.974 198.606C365.164 199.165 365.259 199.772 365.259 200.426V200.619C365.259 201.273 365.164 201.879 364.974 202.438C364.784 202.997 364.508 203.486 364.144 203.905C363.781 204.319 363.339 204.643 362.82 204.878C362.3 205.107 361.71 205.222 361.05 205.222C360.385 205.222 359.79 205.107 359.264 204.878C358.745 204.643 358.303 204.319 357.94 203.905C357.576 203.486 357.3 202.997 357.11 202.438C356.92 201.879 356.825 201.273 356.825 200.619ZM358.845 200.426V200.619C358.845 201.027 358.887 201.412 358.971 201.776C359.055 202.139 359.186 202.458 359.365 202.732C359.544 203.006 359.773 203.221 360.053 203.377C360.332 203.534 360.665 203.612 361.05 203.612C361.425 203.612 361.749 203.534 362.023 203.377C362.303 203.221 362.532 203.006 362.711 202.732C362.889 202.458 363.021 202.139 363.105 201.776C363.194 201.412 363.239 201.027 363.239 200.619V200.426C363.239 200.023 363.194 199.643 363.105 199.286C363.021 198.922 362.887 198.601 362.702 198.321C362.523 198.042 362.294 197.824 362.015 197.667C361.741 197.505 361.414 197.424 361.034 197.424C360.654 197.424 360.324 197.505 360.044 197.667C359.77 197.824 359.544 198.042 359.365 198.321C359.186 198.601 359.055 198.922 358.971 199.286C358.887 199.643 358.845 200.023 358.845 200.426ZM370.659 203.612C370.989 203.612 371.285 203.548 371.548 203.419C371.816 203.285 372.032 203.101 372.194 202.866C372.361 202.631 372.454 202.36 372.47 202.052H374.374C374.362 202.639 374.189 203.173 373.854 203.654C373.518 204.135 373.074 204.518 372.521 204.803C371.967 205.082 371.355 205.222 370.684 205.222C369.991 205.222 369.388 205.105 368.873 204.87C368.359 204.629 367.931 204.3 367.59 203.88C367.249 203.461 366.992 202.978 366.819 202.43C366.651 201.882 366.568 201.295 366.568 200.669V200.376C366.568 199.749 366.651 199.163 366.819 198.615C366.992 198.061 367.249 197.575 367.59 197.156C367.931 196.737 368.359 196.41 368.873 196.175C369.388 195.934 369.988 195.814 370.676 195.814C371.403 195.814 372.04 195.96 372.588 196.25C373.136 196.535 373.566 196.935 373.879 197.449C374.198 197.958 374.362 198.55 374.374 199.227H372.47C372.454 198.891 372.37 198.59 372.219 198.321C372.073 198.047 371.867 197.829 371.598 197.667C371.336 197.505 371.02 197.424 370.651 197.424C370.243 197.424 369.905 197.508 369.636 197.676C369.368 197.838 369.158 198.061 369.007 198.346C368.857 198.626 368.748 198.942 368.68 199.294C368.619 199.64 368.588 200.001 368.588 200.376V200.669C368.588 201.044 368.619 201.407 368.68 201.759C368.742 202.111 368.848 202.427 368.999 202.706C369.156 202.98 369.368 203.201 369.636 203.369C369.905 203.531 370.246 203.612 370.659 203.612ZM380.134 195.982V205.054H378.105V195.982H380.134ZM383.11 195.982V197.575H375.179V195.982H383.11ZM387.194 204.065L389.659 195.982H391.822L388.183 206.438C388.099 206.661 387.99 206.904 387.856 207.167C387.722 207.43 387.546 207.679 387.328 207.913C387.116 208.154 386.85 208.347 386.531 208.492C386.213 208.643 385.827 208.718 385.374 208.718C385.195 208.718 385.022 208.702 384.854 208.668C384.692 208.64 384.539 208.609 384.393 208.576L384.385 207.033C384.441 207.039 384.508 207.044 384.586 207.05C384.67 207.055 384.737 207.058 384.787 207.058C385.123 207.058 385.402 207.016 385.626 206.932C385.849 206.854 386.031 206.726 386.171 206.547C386.316 206.368 386.439 206.127 386.54 205.826L387.194 204.065ZM385.802 195.982L387.957 202.774L388.317 204.903L386.917 205.264L383.622 195.982H385.802ZM399.066 195.982V197.592H394.589V195.982H399.066ZM395.067 195.982V205.054H393.046V195.982H395.067ZM400.651 195.982V205.054H398.622V195.982H400.651Z" fill="white"/>
</g>
<defs>
<filter id="filter0_d_49_4445" x="13.4923" y="161.523" width="628.476" height="86.1014" filterUnits="userSpaceOnUse" color-interpolation-filters="sRGB">
<feFlood flood-opacity="0" result="BackgroundImageFix"/>
<feColorMatrix in="SourceAlpha" type="matrix" values="0 0 0 0 0 0 0 0 0 0 0 0 0 0 0 0 0 0 127 0" result="hardAlpha"/>
<feOffset dy="4.90623"/>
<feGaussianBlur stdDeviation="9.19918"/>
<feComposite in2="hardAlpha" operator="out"/>
<feColorMatrix type="matrix" values="0 0 0 0 0.262745 0 0 0 0 0.6 0 0 0 0 1 0 0 0 0.3 0"/>
<feBlend mode="normal" in2="BackgroundImageFix" result="effect1_dropShadow_49_4445"/>
<feBlend mode="normal" in="SourceGraphic" in2="effect1_dropShadow_49_4445" result="shape"/>
</filter>
</defs>
</svg>
