<svg width="654" height="258" viewBox="0 0 654 258" fill="none" xmlns="http://www.w3.org/2000/svg">
<rect width="654" height="258" rx="18.6125" fill="white"/>
<rect width="654" height="258" rx="18.6125" fill="white"/>
<path d="M287 37.2313C287 29.2784 293.447 22.8313 301.4 22.8313H354.6C362.553 22.8313 369 29.2784 369 37.2313V86.4313C369 94.3842 362.553 100.831 354.6 100.831H301.4C293.447 100.831 287 94.3842 287 86.4313V37.2313Z" fill="#438EDC" fill-opacity="0.1"/>
<g clip-path="url(#clip0_49_4883)">
<g clip-path="url(#clip1_49_4883)">
<path d="M331.135 39.9571L332.903 41.002C336.279 42.9312 337.485 47.2717 335.556 50.6477L318.435 80.3082C316.505 83.6841 312.165 84.8899 308.789 82.9607L307.021 81.9158C303.645 79.9866 302.439 75.6461 304.368 72.2701L321.489 42.5293C323.418 39.0729 327.759 37.8672 331.135 39.9571Z" fill="#FBBD04"/>
<path d="M323.096 40.7608L324.865 39.7158C328.24 37.7867 332.581 38.9924 334.51 42.3684L351.631 72.0289C353.56 75.4048 352.355 79.7454 348.979 81.6745L347.21 82.7195C343.834 84.6486 339.494 83.4429 337.565 80.0669L320.444 50.4868C318.595 47.1109 319.72 42.7703 323.096 40.7608Z" fill="#438EDC"/>
<path d="M312.084 83.3625C316.612 83.3625 320.282 79.6918 320.282 75.1637C320.282 70.6356 316.612 66.9648 312.084 66.9648C307.556 66.9648 303.885 70.6356 303.885 75.1637C303.885 79.6918 307.556 83.3625 312.084 83.3625Z" fill="#34A952"/>
</g>
</g>
<path d="M180.172 132.629H177.193V130.533H179.566C180.26 130.533 180.823 130.427 181.253 130.217C181.684 129.997 182 129.689 182.203 129.294C182.405 128.898 182.506 128.432 182.506 127.896C182.506 127.457 182.392 127.052 182.163 126.683C181.943 126.314 181.601 126.02 181.135 125.8C180.669 125.572 180.076 125.457 179.355 125.457C178.81 125.457 178.313 125.554 177.865 125.747C177.417 125.941 177.061 126.213 176.797 126.565C176.534 126.907 176.402 127.325 176.402 127.817H172.46C172.46 126.973 172.64 126.218 173 125.55C173.37 124.873 173.871 124.302 174.503 123.836C175.145 123.361 175.883 123.001 176.718 122.755C177.553 122.509 178.432 122.385 179.355 122.385C180.436 122.385 181.412 122.504 182.282 122.741C183.152 122.97 183.899 123.313 184.523 123.77C185.147 124.227 185.626 124.794 185.96 125.47C186.294 126.147 186.461 126.934 186.461 127.83C186.461 128.49 186.312 129.109 186.013 129.689C185.714 130.269 185.288 130.779 184.734 131.219C184.18 131.658 183.517 132.005 182.743 132.26C181.97 132.506 181.113 132.629 180.172 132.629ZM177.193 131.482H180.172C181.218 131.482 182.146 131.592 182.954 131.812C183.771 132.031 184.461 132.352 185.024 132.774C185.595 133.196 186.026 133.719 186.316 134.343C186.615 134.958 186.764 135.666 186.764 136.466C186.764 137.362 186.58 138.157 186.21 138.852C185.85 139.546 185.336 140.135 184.668 140.618C184.009 141.102 183.227 141.467 182.321 141.713C181.425 141.959 180.436 142.082 179.355 142.082C178.494 142.082 177.637 141.976 176.784 141.765C175.932 141.546 175.158 141.212 174.464 140.763C173.77 140.315 173.216 139.74 172.803 139.036C172.39 138.333 172.183 137.49 172.183 136.505H176.151C176.151 136.971 176.288 137.397 176.56 137.784C176.833 138.162 177.21 138.465 177.694 138.694C178.177 138.913 178.731 139.023 179.355 139.023C180.084 139.023 180.704 138.909 181.214 138.68C181.732 138.452 182.124 138.14 182.387 137.744C182.66 137.34 182.796 136.896 182.796 136.413C182.796 135.894 182.726 135.455 182.585 135.094C182.444 134.734 182.238 134.44 181.965 134.211C181.693 133.974 181.354 133.802 180.95 133.697C180.555 133.592 180.093 133.539 179.566 133.539H177.193V131.482ZM197.153 138.615V132.26C197.153 131.803 197.078 131.412 196.929 131.087C196.779 130.753 196.546 130.493 196.23 130.309C195.922 130.124 195.522 130.032 195.03 130.032C194.608 130.032 194.244 130.107 193.936 130.256C193.628 130.397 193.391 130.603 193.224 130.876C193.057 131.139 192.974 131.451 192.974 131.812H189.177C189.177 131.205 189.317 130.63 189.599 130.085C189.88 129.54 190.289 129.061 190.825 128.648C191.361 128.226 191.998 127.896 192.736 127.659C193.483 127.422 194.318 127.303 195.241 127.303C196.349 127.303 197.333 127.488 198.194 127.857C199.056 128.226 199.732 128.78 200.225 129.518C200.726 130.256 200.976 131.179 200.976 132.286V138.39C200.976 139.173 201.024 139.814 201.121 140.315C201.218 140.807 201.358 141.238 201.543 141.607V141.831H197.707C197.522 141.445 197.381 140.961 197.285 140.381C197.197 139.792 197.153 139.203 197.153 138.615ZM197.654 133.143L197.68 135.292H195.558C195.057 135.292 194.622 135.349 194.252 135.464C193.883 135.578 193.58 135.74 193.343 135.951C193.105 136.154 192.93 136.391 192.815 136.663C192.71 136.936 192.657 137.235 192.657 137.56C192.657 137.885 192.732 138.179 192.881 138.443C193.031 138.698 193.246 138.9 193.527 139.05C193.809 139.19 194.138 139.26 194.516 139.26C195.087 139.26 195.584 139.146 196.006 138.918C196.428 138.689 196.753 138.408 196.981 138.074C197.219 137.74 197.342 137.424 197.351 137.125L198.353 138.733C198.212 139.094 198.019 139.467 197.772 139.854C197.535 140.24 197.232 140.605 196.863 140.948C196.494 141.282 196.05 141.559 195.531 141.779C195.013 141.99 194.397 142.095 193.686 142.095C192.78 142.095 191.958 141.915 191.22 141.554C190.491 141.185 189.911 140.68 189.48 140.038C189.058 139.388 188.847 138.65 188.847 137.823C188.847 137.076 188.988 136.413 189.269 135.833C189.55 135.253 189.963 134.765 190.508 134.369C191.062 133.965 191.752 133.662 192.578 133.46C193.404 133.249 194.362 133.143 195.452 133.143H197.654ZM226.012 138.878L225.748 146.063H222.215V141.831H220.62V138.878H226.012ZM203.85 127.567H207.647V138.865H211.602V127.567H215.412V138.865H219.354V127.567H223.151V141.831H203.85V127.567ZM232.05 136.531L236.835 127.567H240.632V141.831H236.835V132.853L232.05 141.831H228.253V127.567H232.05V136.531ZM250.823 127.567V141.831H247.013V127.567H250.823ZM255.411 127.567V130.507H242.491V127.567H255.411ZM264.837 138.615V132.26C264.837 131.803 264.763 131.412 264.613 131.087C264.464 130.753 264.231 130.493 263.915 130.309C263.607 130.124 263.207 130.032 262.715 130.032C262.293 130.032 261.928 130.107 261.621 130.256C261.313 130.397 261.076 130.603 260.909 130.876C260.742 131.139 260.658 131.451 260.658 131.812H256.861C256.861 131.205 257.002 130.63 257.283 130.085C257.564 129.54 257.973 129.061 258.509 128.648C259.045 128.226 259.683 127.896 260.421 127.659C261.168 127.422 262.003 127.303 262.926 127.303C264.033 127.303 265.018 127.488 265.879 127.857C266.74 128.226 267.417 128.78 267.909 129.518C268.41 130.256 268.661 131.179 268.661 132.286V138.39C268.661 139.173 268.709 139.814 268.806 140.315C268.902 140.807 269.043 141.238 269.228 141.607V141.831H265.391C265.207 141.445 265.066 140.961 264.969 140.381C264.881 139.792 264.837 139.203 264.837 138.615ZM265.338 133.143L265.365 135.292H263.242C262.741 135.292 262.306 135.349 261.937 135.464C261.568 135.578 261.265 135.74 261.027 135.951C260.79 136.154 260.614 136.391 260.5 136.663C260.395 136.936 260.342 137.235 260.342 137.56C260.342 137.885 260.417 138.179 260.566 138.443C260.715 138.698 260.931 138.9 261.212 139.05C261.493 139.19 261.823 139.26 262.201 139.26C262.772 139.26 263.269 139.146 263.69 138.918C264.112 138.689 264.438 138.408 264.666 138.074C264.903 137.74 265.026 137.424 265.035 137.125L266.037 138.733C265.896 139.094 265.703 139.467 265.457 139.854C265.22 140.24 264.917 140.605 264.547 140.948C264.178 141.282 263.734 141.559 263.216 141.779C262.697 141.99 262.082 142.095 261.37 142.095C260.465 142.095 259.643 141.915 258.905 141.554C258.175 141.185 257.595 140.68 257.165 140.038C256.743 139.388 256.532 138.65 256.532 137.823C256.532 137.076 256.672 136.413 256.954 135.833C257.235 135.253 257.648 134.765 258.193 134.369C258.747 133.965 259.437 133.662 260.263 133.46C261.089 133.249 262.047 133.143 263.137 133.143H265.338ZM277.705 134.844V134.567C277.705 133.521 277.854 132.559 278.153 131.68C278.452 130.792 278.887 130.023 279.458 129.373C280.029 128.722 280.732 128.217 281.567 127.857C282.402 127.488 283.36 127.303 284.441 127.303C285.522 127.303 286.485 127.488 287.329 127.857C288.172 128.217 288.88 128.722 289.451 129.373C290.031 130.023 290.471 130.792 290.77 131.68C291.068 132.559 291.218 133.521 291.218 134.567V134.844C291.218 135.881 291.068 136.844 290.77 137.731C290.471 138.61 290.031 139.379 289.451 140.038C288.88 140.689 288.177 141.194 287.342 141.554C286.507 141.915 285.549 142.095 284.468 142.095C283.387 142.095 282.424 141.915 281.581 141.554C280.746 141.194 280.038 140.689 279.458 140.038C278.887 139.379 278.452 138.61 278.153 137.731C277.854 136.844 277.705 135.881 277.705 134.844ZM281.501 134.567V134.844C281.501 135.442 281.554 136 281.66 136.518C281.765 137.037 281.932 137.494 282.161 137.889C282.398 138.276 282.706 138.579 283.083 138.799C283.461 139.019 283.923 139.129 284.468 139.129C284.995 139.129 285.448 139.019 285.826 138.799C286.204 138.579 286.507 138.276 286.735 137.889C286.964 137.494 287.131 137.037 287.236 136.518C287.351 136 287.408 135.442 287.408 134.844V134.567C287.408 133.987 287.351 133.442 287.236 132.932C287.131 132.414 286.959 131.957 286.722 131.561C286.494 131.157 286.19 130.841 285.812 130.612C285.435 130.384 284.978 130.269 284.441 130.269C283.905 130.269 283.448 130.384 283.07 130.612C282.701 130.841 282.398 131.157 282.161 131.561C281.932 131.957 281.765 132.414 281.66 132.932C281.554 133.442 281.501 133.987 281.501 134.567ZM300.446 127.567V141.831H296.636V127.567H300.446ZM305.034 127.567V130.507H292.114V127.567H305.034ZM319.589 139.129C320.055 139.129 320.468 139.041 320.828 138.865C321.188 138.68 321.47 138.426 321.672 138.1C321.883 137.766 321.993 137.375 322.001 136.927H325.574C325.565 137.929 325.297 138.821 324.77 139.603C324.243 140.377 323.535 140.988 322.647 141.436C321.76 141.875 320.767 142.095 319.668 142.095C318.561 142.095 317.594 141.91 316.768 141.541C315.95 141.172 315.269 140.662 314.724 140.012C314.179 139.353 313.771 138.588 313.498 137.718C313.226 136.839 313.089 135.899 313.089 134.897V134.514C313.089 133.504 313.226 132.563 313.498 131.693C313.771 130.814 314.179 130.05 314.724 129.399C315.269 128.74 315.95 128.226 316.768 127.857C317.585 127.488 318.543 127.303 319.642 127.303C320.811 127.303 321.834 127.527 322.713 127.975C323.601 128.424 324.295 129.065 324.796 129.9C325.306 130.726 325.565 131.706 325.574 132.84H322.001C321.993 132.365 321.892 131.935 321.698 131.548C321.514 131.161 321.241 130.854 320.881 130.625C320.529 130.388 320.094 130.269 319.576 130.269C319.022 130.269 318.569 130.388 318.218 130.625C317.866 130.854 317.594 131.17 317.4 131.574C317.207 131.97 317.071 132.423 316.992 132.932C316.921 133.433 316.886 133.961 316.886 134.514V134.897C316.886 135.45 316.921 135.982 316.992 136.492C317.062 137.002 317.194 137.454 317.387 137.85C317.589 138.245 317.866 138.557 318.218 138.786C318.569 139.014 319.026 139.129 319.589 139.129ZM331.823 127.567V141.831H328.026V127.567H331.823ZM341.091 127.567L334.948 136.492H331.151L330.689 132.985H333.208L336.279 127.567H341.091ZM336.451 141.831L332.944 135.806L336.253 133.974L341.54 141.831H336.451ZM352.561 127.567V130.546H345.547V127.567H352.561ZM355.343 127.567V141.831H351.546V127.567H355.343ZM344.598 127.567H348.329L347.947 134.765C347.894 135.793 347.784 136.698 347.617 137.481C347.45 138.263 347.226 138.931 346.945 139.485C346.672 140.038 346.343 140.491 345.956 140.843C345.578 141.185 345.134 141.436 344.625 141.594C344.124 141.752 343.57 141.831 342.963 141.831H341.803L341.764 138.839L342.251 138.786C342.533 138.76 342.779 138.68 342.99 138.549C343.209 138.408 343.394 138.21 343.543 137.955C343.702 137.692 343.833 137.362 343.939 136.967C344.044 136.562 344.128 136.088 344.189 135.543C344.26 134.998 344.308 134.369 344.334 133.657L344.598 127.567ZM362.066 136.531L366.852 127.567H370.649V141.831H366.852V132.853L362.066 141.831H358.27V127.567H362.066V136.531ZM377.623 127.567V141.831H373.826V127.567H377.623ZM386.891 127.567L380.748 136.492H376.951L376.489 132.985H379.007L382.079 127.567H386.891ZM382.25 141.831L378.744 135.806L382.053 133.974L387.339 141.831H382.25ZM392.547 136.531L397.333 127.567H401.129V141.831H397.333V132.853L392.547 141.831H388.75V127.567H392.547V136.531ZM411.162 135.872H406.693L406.667 133.381H410.358C410.85 133.381 411.25 133.332 411.558 133.236C411.865 133.13 412.089 132.976 412.23 132.774C412.379 132.563 412.454 132.308 412.454 132.01C412.454 131.746 412.406 131.522 412.309 131.337C412.221 131.144 412.085 130.986 411.9 130.863C411.716 130.74 411.483 130.652 411.202 130.599C410.929 130.537 410.608 130.507 410.239 130.507H408.104V141.831H404.307V127.567H410.239C411.171 127.567 412.006 127.65 412.744 127.817C413.482 127.975 414.111 128.217 414.629 128.542C415.157 128.867 415.557 129.281 415.829 129.781C416.11 130.274 416.251 130.858 416.251 131.535C416.251 131.974 416.15 132.387 415.948 132.774C415.754 133.161 415.464 133.504 415.078 133.802C414.691 134.101 414.212 134.347 413.641 134.541C413.078 134.725 412.428 134.84 411.689 134.884L411.162 135.872ZM411.162 141.831H405.757L407.062 138.891H411.162C411.628 138.891 412.01 138.834 412.309 138.72C412.608 138.606 412.828 138.439 412.968 138.219C413.118 137.99 413.192 137.718 413.192 137.402C413.192 137.094 413.126 136.826 412.995 136.597C412.863 136.369 412.647 136.193 412.349 136.07C412.059 135.938 411.663 135.872 411.162 135.872H407.616L407.642 133.381H411.676L412.599 134.383C413.601 134.444 414.427 134.633 415.078 134.949C415.728 135.266 416.207 135.67 416.515 136.162C416.831 136.646 416.989 137.177 416.989 137.758C416.989 138.434 416.862 139.028 416.607 139.537C416.352 140.047 415.974 140.473 415.473 140.816C414.981 141.15 414.375 141.405 413.654 141.581C412.933 141.748 412.103 141.831 411.162 141.831ZM427.022 138.615V132.26C427.022 131.803 426.947 131.412 426.798 131.087C426.648 130.753 426.416 130.493 426.099 130.309C425.792 130.124 425.392 130.032 424.899 130.032C424.478 130.032 424.113 130.107 423.805 130.256C423.498 130.397 423.26 130.603 423.093 130.876C422.926 131.139 422.843 131.451 422.843 131.812H419.046C419.046 131.205 419.187 130.63 419.468 130.085C419.749 129.54 420.158 129.061 420.694 128.648C421.23 128.226 421.867 127.896 422.605 127.659C423.353 127.422 424.188 127.303 425.11 127.303C426.218 127.303 427.202 127.488 428.063 127.857C428.925 128.226 429.602 128.78 430.094 129.518C430.595 130.256 430.845 131.179 430.845 132.286V138.39C430.845 139.173 430.894 139.814 430.99 140.315C431.087 140.807 431.228 141.238 431.412 141.607V141.831H427.576C427.391 141.445 427.25 140.961 427.154 140.381C427.066 139.792 427.022 139.203 427.022 138.615ZM427.523 133.143L427.549 135.292H425.427C424.926 135.292 424.491 135.349 424.122 135.464C423.752 135.578 423.449 135.74 423.212 135.951C422.975 136.154 422.799 136.391 422.685 136.663C422.579 136.936 422.526 137.235 422.526 137.56C422.526 137.885 422.601 138.179 422.75 138.443C422.9 138.698 423.115 138.9 423.396 139.05C423.678 139.19 424.007 139.26 424.385 139.26C424.957 139.26 425.453 139.146 425.875 138.918C426.297 138.689 426.622 138.408 426.851 138.074C427.088 137.74 427.211 137.424 427.22 137.125L428.222 138.733C428.081 139.094 427.888 139.467 427.642 139.854C427.404 140.24 427.101 140.605 426.732 140.948C426.363 141.282 425.919 141.559 425.4 141.779C424.882 141.99 424.267 142.095 423.555 142.095C422.649 142.095 421.828 141.915 421.089 141.554C420.36 141.185 419.78 140.68 419.349 140.038C418.927 139.388 418.716 138.65 418.716 137.823C418.716 137.076 418.857 136.413 419.138 135.833C419.419 135.253 419.833 134.765 420.377 134.369C420.931 133.965 421.621 133.662 422.447 133.46C423.273 133.249 424.231 133.143 425.321 133.143H427.523ZM443.541 133.328V136.281H436.29V133.328H443.541ZM437.556 127.567V141.831H433.759V127.567H437.556ZM446.112 127.567V141.831H442.302V127.567H446.112ZM452.849 136.531L457.634 127.567H461.431V141.831H457.634V132.853L452.849 141.831H449.052V127.567H452.849V136.531ZM467.43 134.712H471.279L467.311 141.831H463.475L467.43 134.712ZM469.987 127.567H476.25V141.831H472.453V130.507H469.987C469.469 130.507 469.038 130.603 468.695 130.797C468.353 130.981 468.098 131.223 467.931 131.522C467.772 131.812 467.693 132.111 467.693 132.418C467.693 132.717 467.772 133.007 467.931 133.288C468.089 133.57 468.335 133.802 468.669 133.987C469.003 134.172 469.42 134.264 469.921 134.264H473.863V136.848H469.921C468.981 136.848 468.137 136.734 467.39 136.505C466.652 136.277 466.019 135.96 465.492 135.556C464.973 135.143 464.573 134.664 464.292 134.119C464.02 133.565 463.883 132.959 463.883 132.3C463.883 131.614 464.024 130.986 464.305 130.414C464.586 129.843 464.991 129.342 465.518 128.911C466.045 128.481 466.683 128.151 467.43 127.923C468.186 127.685 469.038 127.567 469.987 127.567ZM255.596 170.872H251.126L251.1 168.381H254.792C255.284 168.381 255.684 168.332 255.991 168.236C256.299 168.13 256.523 167.976 256.664 167.774C256.813 167.563 256.888 167.308 256.888 167.01C256.888 166.746 256.839 166.522 256.743 166.337C256.655 166.144 256.519 165.986 256.334 165.863C256.149 165.74 255.917 165.652 255.635 165.599C255.363 165.537 255.042 165.507 254.673 165.507H252.537V176.831H248.74V162.567H254.673C255.604 162.567 256.439 162.65 257.178 162.817C257.916 162.975 258.544 163.217 259.063 163.542C259.59 163.867 259.99 164.281 260.263 164.781C260.544 165.274 260.685 165.858 260.685 166.535C260.685 166.974 260.583 167.387 260.381 167.774C260.188 168.161 259.898 168.504 259.511 168.802C259.125 169.101 258.646 169.347 258.074 169.541C257.512 169.725 256.861 169.84 256.123 169.884L255.596 170.872ZM255.596 176.831H250.19L251.496 173.891H255.596C256.062 173.891 256.444 173.834 256.743 173.72C257.042 173.606 257.261 173.439 257.402 173.219C257.551 172.99 257.626 172.718 257.626 172.402C257.626 172.094 257.56 171.826 257.428 171.597C257.296 171.369 257.081 171.193 256.782 171.07C256.492 170.938 256.097 170.872 255.596 170.872H252.049L252.076 168.381H256.11L257.033 169.383C258.035 169.444 258.861 169.633 259.511 169.949C260.162 170.266 260.641 170.67 260.948 171.162C261.265 171.646 261.423 172.177 261.423 172.758C261.423 173.434 261.295 174.028 261.041 174.537C260.786 175.047 260.408 175.473 259.907 175.816C259.415 176.15 258.808 176.405 258.087 176.581C257.367 176.748 256.536 176.831 255.596 176.831ZM285.931 166.799V174.406C285.632 174.766 285.171 175.157 284.547 175.579C283.923 175.992 283.119 176.348 282.134 176.647C281.15 176.946 279.959 177.095 278.562 177.095C277.322 177.095 276.193 176.893 275.173 176.489C274.154 176.075 273.275 175.473 272.537 174.682C271.807 173.891 271.245 172.925 270.849 171.782C270.454 170.631 270.256 169.317 270.256 167.84V166.64C270.256 165.164 270.445 163.85 270.823 162.698C271.209 161.547 271.759 160.576 272.471 159.785C273.183 158.994 274.031 158.392 275.015 157.979C276 157.566 277.094 157.359 278.298 157.359C279.968 157.359 281.339 157.632 282.411 158.177C283.483 158.713 284.301 159.46 284.863 160.418C285.435 161.367 285.786 162.457 285.918 163.687H282.082C281.985 163.037 281.8 162.47 281.528 161.987C281.255 161.503 280.864 161.125 280.354 160.853C279.854 160.58 279.203 160.444 278.403 160.444C277.744 160.444 277.155 160.58 276.637 160.853C276.127 161.116 275.696 161.508 275.345 162.026C274.993 162.545 274.725 163.186 274.541 163.951C274.356 164.716 274.264 165.603 274.264 166.614V167.84C274.264 168.842 274.36 169.73 274.554 170.503C274.747 171.268 275.033 171.914 275.411 172.441C275.797 172.96 276.272 173.351 276.834 173.615C277.397 173.878 278.052 174.01 278.799 174.01C279.423 174.01 279.941 173.957 280.354 173.852C280.776 173.746 281.115 173.619 281.37 173.469C281.633 173.311 281.835 173.162 281.976 173.021V169.62H278.364V166.799H285.931ZM288.278 169.844V169.567C288.278 168.521 288.427 167.559 288.726 166.68C289.025 165.792 289.46 165.023 290.031 164.373C290.603 163.722 291.306 163.217 292.141 162.857C292.976 162.488 293.934 162.303 295.015 162.303C296.096 162.303 297.058 162.488 297.902 162.857C298.746 163.217 299.453 163.722 300.024 164.373C300.604 165.023 301.044 165.792 301.343 166.68C301.642 167.559 301.791 168.521 301.791 169.567V169.844C301.791 170.881 301.642 171.844 301.343 172.731C301.044 173.61 300.604 174.379 300.024 175.038C299.453 175.689 298.75 176.194 297.915 176.554C297.08 176.915 296.122 177.095 295.041 177.095C293.96 177.095 292.998 176.915 292.154 176.554C291.319 176.194 290.611 175.689 290.031 175.038C289.46 174.379 289.025 173.61 288.726 172.731C288.427 171.844 288.278 170.881 288.278 169.844ZM292.075 169.567V169.844C292.075 170.442 292.127 171 292.233 171.518C292.338 172.037 292.505 172.494 292.734 172.889C292.971 173.276 293.279 173.579 293.657 173.799C294.035 174.019 294.496 174.129 295.041 174.129C295.568 174.129 296.021 174.019 296.399 173.799C296.777 173.579 297.08 173.276 297.309 172.889C297.537 172.494 297.704 172.037 297.81 171.518C297.924 171 297.981 170.442 297.981 169.844V169.567C297.981 168.987 297.924 168.442 297.81 167.932C297.704 167.414 297.533 166.957 297.295 166.561C297.067 166.157 296.764 165.841 296.386 165.612C296.008 165.384 295.551 165.269 295.015 165.269C294.479 165.269 294.021 165.384 293.644 165.612C293.274 165.841 292.971 166.157 292.734 166.561C292.505 166.957 292.338 167.414 292.233 167.932C292.127 168.442 292.075 168.987 292.075 169.567ZM303.518 169.844V169.567C303.518 168.521 303.667 167.559 303.966 166.68C304.265 165.792 304.7 165.023 305.271 164.373C305.843 163.722 306.546 163.217 307.381 162.857C308.216 162.488 309.174 162.303 310.255 162.303C311.336 162.303 312.298 162.488 313.142 162.857C313.986 163.217 314.693 163.722 315.265 164.373C315.845 165.023 316.284 165.792 316.583 166.68C316.882 167.559 317.031 168.521 317.031 169.567V169.844C317.031 170.881 316.882 171.844 316.583 172.731C316.284 173.61 315.845 174.379 315.265 175.038C314.693 175.689 313.99 176.194 313.155 176.554C312.32 176.915 311.362 177.095 310.281 177.095C309.2 177.095 308.238 176.915 307.394 176.554C306.559 176.194 305.852 175.689 305.271 175.038C304.7 174.379 304.265 173.61 303.966 172.731C303.667 171.844 303.518 170.881 303.518 169.844ZM307.315 169.567V169.844C307.315 170.442 307.368 171 307.473 171.518C307.579 172.037 307.746 172.494 307.974 172.889C308.211 173.276 308.519 173.579 308.897 173.799C309.275 174.019 309.736 174.129 310.281 174.129C310.809 174.129 311.261 174.019 311.639 173.799C312.017 173.579 312.32 173.276 312.549 172.889C312.777 172.494 312.944 172.037 313.05 171.518C313.164 171 313.221 170.442 313.221 169.844V169.567C313.221 168.987 313.164 168.442 313.05 167.932C312.944 167.414 312.773 166.957 312.536 166.561C312.307 166.157 312.004 165.841 311.626 165.612C311.248 165.384 310.791 165.269 310.255 165.269C309.719 165.269 309.262 165.384 308.884 165.612C308.515 165.841 308.211 166.157 307.974 166.561C307.746 166.957 307.579 167.414 307.473 167.932C307.368 168.442 307.315 168.987 307.315 169.567ZM328.396 162.567H331.836V176.357C331.836 177.657 331.546 178.76 330.966 179.666C330.395 180.58 329.595 181.27 328.567 181.736C327.539 182.21 326.343 182.448 324.981 182.448C324.383 182.448 323.75 182.368 323.083 182.21C322.423 182.052 321.791 181.806 321.184 181.472C320.586 181.138 320.085 180.716 319.681 180.206L321.355 177.965C321.795 178.475 322.305 178.87 322.885 179.152C323.465 179.442 324.106 179.587 324.81 179.587C325.495 179.587 326.075 179.459 326.55 179.204C327.024 178.958 327.389 178.594 327.644 178.11C327.899 177.635 328.026 177.06 328.026 176.383V165.863L328.396 162.567ZM318.798 169.87V169.594C318.798 168.504 318.93 167.515 319.193 166.627C319.466 165.731 319.848 164.962 320.34 164.32C320.841 163.678 321.448 163.182 322.16 162.83C322.872 162.479 323.676 162.303 324.572 162.303C325.521 162.303 326.317 162.479 326.958 162.83C327.6 163.182 328.127 163.683 328.541 164.333C328.954 164.975 329.274 165.735 329.503 166.614C329.74 167.484 329.925 168.438 330.057 169.475V170.081C329.925 171.074 329.727 171.997 329.463 172.85C329.2 173.702 328.853 174.449 328.422 175.091C327.991 175.724 327.455 176.216 326.813 176.568C326.181 176.919 325.425 177.095 324.546 177.095C323.667 177.095 322.872 176.915 322.16 176.554C321.457 176.194 320.854 175.689 320.354 175.038C319.853 174.388 319.466 173.623 319.193 172.744C318.93 171.865 318.798 170.907 318.798 169.87ZM322.595 169.594V169.87C322.595 170.459 322.652 171.009 322.766 171.518C322.88 172.028 323.056 172.481 323.293 172.876C323.54 173.263 323.843 173.566 324.203 173.786C324.572 173.997 325.007 174.102 325.508 174.102C326.203 174.102 326.77 173.957 327.209 173.667C327.648 173.368 327.978 172.96 328.198 172.441C328.417 171.923 328.545 171.325 328.58 170.648V168.921C328.562 168.367 328.488 167.871 328.356 167.431C328.224 166.983 328.04 166.601 327.802 166.284C327.565 165.968 327.257 165.722 326.879 165.546C326.501 165.37 326.053 165.282 325.535 165.282C325.034 165.282 324.599 165.397 324.229 165.625C323.869 165.845 323.566 166.148 323.32 166.535C323.083 166.922 322.902 167.379 322.779 167.906C322.656 168.425 322.595 168.987 322.595 169.594ZM338.797 156.581V176.831H334.987V156.581H338.797ZM348.5 177.095C347.393 177.095 346.4 176.919 345.521 176.568C344.642 176.207 343.895 175.711 343.28 175.078C342.673 174.445 342.208 173.711 341.882 172.876C341.557 172.032 341.395 171.136 341.395 170.187V169.659C341.395 168.578 341.548 167.59 341.856 166.693C342.164 165.797 342.603 165.019 343.174 164.36C343.754 163.7 344.458 163.195 345.284 162.844C346.11 162.483 347.042 162.303 348.079 162.303C349.089 162.303 349.986 162.47 350.768 162.804C351.55 163.138 352.205 163.613 352.732 164.228C353.269 164.843 353.673 165.581 353.945 166.443C354.218 167.295 354.354 168.244 354.354 169.29V170.872H343.016V168.341H350.623V168.051C350.623 167.524 350.526 167.053 350.333 166.64C350.148 166.219 349.867 165.885 349.489 165.638C349.111 165.392 348.628 165.269 348.039 165.269C347.538 165.269 347.107 165.379 346.747 165.599C346.387 165.819 346.092 166.126 345.864 166.522C345.644 166.917 345.477 167.383 345.363 167.919C345.257 168.447 345.205 169.027 345.205 169.659V170.187C345.205 170.758 345.284 171.285 345.442 171.769C345.609 172.252 345.842 172.67 346.141 173.021C346.448 173.373 346.817 173.645 347.248 173.839C347.688 174.032 348.184 174.129 348.738 174.129C349.423 174.129 350.061 173.997 350.649 173.733C351.247 173.461 351.761 173.052 352.192 172.507L354.038 174.511C353.739 174.942 353.33 175.355 352.812 175.75C352.302 176.146 351.687 176.471 350.966 176.726C350.245 176.972 349.423 177.095 348.5 177.095ZM371.282 160.919L366.061 176.831H361.855L368.988 157.636H371.664L371.282 160.919ZM375.619 176.831L370.385 160.919L369.963 157.636H372.666L379.838 176.831H375.619ZM375.382 169.686V172.784H365.244V169.686H375.382ZM389.805 173.72V156.581H393.628V176.831H390.187L389.805 173.72ZM380.787 169.87V169.594C380.787 168.504 380.91 167.515 381.156 166.627C381.402 165.731 381.763 164.962 382.237 164.32C382.712 163.678 383.296 163.182 383.991 162.83C384.685 162.479 385.476 162.303 386.364 162.303C387.199 162.303 387.928 162.479 388.552 162.83C389.185 163.182 389.721 163.683 390.161 164.333C390.609 164.975 390.969 165.735 391.242 166.614C391.514 167.484 391.712 168.438 391.835 169.475V170.081C391.712 171.074 391.514 171.997 391.242 172.85C390.969 173.702 390.609 174.449 390.161 175.091C389.721 175.724 389.185 176.216 388.552 176.568C387.919 176.919 387.181 177.095 386.337 177.095C385.45 177.095 384.659 176.915 383.964 176.554C383.279 176.194 382.699 175.689 382.224 175.038C381.758 174.388 381.402 173.623 381.156 172.744C380.91 171.865 380.787 170.907 380.787 169.87ZM384.584 169.594V169.87C384.584 170.459 384.628 171.009 384.716 171.518C384.812 172.028 384.966 172.481 385.177 172.876C385.397 173.263 385.678 173.566 386.021 173.786C386.373 173.997 386.799 174.102 387.3 174.102C387.95 174.102 388.486 173.957 388.908 173.667C389.33 173.368 389.651 172.96 389.871 172.441C390.099 171.923 390.231 171.325 390.266 170.648V168.921C390.24 168.367 390.161 167.871 390.029 167.431C389.906 166.983 389.721 166.601 389.475 166.284C389.238 165.968 388.939 165.722 388.579 165.546C388.227 165.37 387.81 165.282 387.326 165.282C386.834 165.282 386.412 165.397 386.061 165.625C385.709 165.845 385.423 166.148 385.204 166.535C384.993 166.922 384.834 167.379 384.729 167.906C384.632 168.425 384.584 168.987 384.584 169.594ZM404.307 172.889C404.307 172.617 404.228 172.371 404.069 172.151C403.911 171.931 403.617 171.729 403.186 171.545C402.764 171.351 402.153 171.176 401.354 171.017C400.633 170.859 399.96 170.661 399.336 170.424C398.721 170.178 398.185 169.884 397.728 169.541C397.28 169.198 396.928 168.794 396.673 168.328C396.418 167.853 396.291 167.313 396.291 166.706C396.291 166.109 396.418 165.546 396.673 165.019C396.937 164.491 397.311 164.026 397.794 163.621C398.286 163.208 398.884 162.887 399.587 162.659C400.299 162.422 401.099 162.303 401.986 162.303C403.226 162.303 404.289 162.501 405.177 162.896C406.073 163.292 406.759 163.837 407.233 164.531C407.717 165.217 407.958 165.999 407.958 166.878H404.162C404.162 166.509 404.083 166.179 403.924 165.889C403.775 165.59 403.538 165.357 403.212 165.19C402.896 165.014 402.483 164.927 401.973 164.927C401.551 164.927 401.187 165.001 400.879 165.151C400.571 165.291 400.334 165.485 400.167 165.731C400.009 165.968 399.93 166.232 399.93 166.522C399.93 166.741 399.974 166.939 400.062 167.115C400.158 167.282 400.312 167.436 400.523 167.576C400.734 167.717 401.006 167.849 401.34 167.972C401.683 168.086 402.105 168.192 402.606 168.288C403.634 168.499 404.553 168.776 405.361 169.119C406.17 169.453 406.812 169.91 407.286 170.49C407.761 171.061 407.998 171.813 407.998 172.744C407.998 173.377 407.857 173.957 407.576 174.485C407.295 175.012 406.891 175.473 406.363 175.869C405.836 176.256 405.203 176.559 404.465 176.779C403.735 176.99 402.914 177.095 402 177.095C400.672 177.095 399.547 176.858 398.625 176.383C397.71 175.908 397.016 175.306 396.542 174.577C396.076 173.839 395.843 173.083 395.843 172.309H399.442C399.459 172.828 399.591 173.245 399.837 173.562C400.092 173.878 400.413 174.107 400.8 174.247C401.195 174.388 401.622 174.458 402.079 174.458C402.571 174.458 402.979 174.392 403.305 174.26C403.63 174.12 403.876 173.935 404.043 173.707C404.219 173.469 404.307 173.197 404.307 172.889Z" fill="#333333"/>
<path d="M283.762 220.118H279.992L279.971 218.258H283.264C283.82 218.258 284.291 218.177 284.677 218.014C285.07 217.845 285.368 217.604 285.571 217.292C285.774 216.974 285.876 216.591 285.876 216.144C285.876 215.649 285.781 215.246 285.591 214.935C285.402 214.623 285.11 214.396 284.717 214.254C284.331 214.111 283.837 214.04 283.234 214.04H280.764V226.805H278.213V212.008H283.234C284.047 212.008 284.772 212.086 285.408 212.241C286.052 212.397 286.598 212.641 287.045 212.973C287.499 213.298 287.841 213.712 288.071 214.213C288.308 214.714 288.427 215.311 288.427 216.002C288.427 216.612 288.281 217.17 287.99 217.679C287.698 218.18 287.268 218.59 286.699 218.908C286.13 219.227 285.422 219.416 284.575 219.477L283.762 220.118ZM283.65 226.805H279.189L280.337 224.783H283.65C284.226 224.783 284.707 224.688 285.093 224.498C285.48 224.301 285.768 224.034 285.957 223.695C286.154 223.35 286.252 222.946 286.252 222.486C286.252 222.005 286.167 221.588 285.998 221.236C285.829 220.877 285.561 220.602 285.195 220.412C284.829 220.216 284.351 220.118 283.762 220.118H280.896L280.916 218.258H284.646L285.226 218.959C286.039 218.986 286.706 219.166 287.228 219.498C287.756 219.83 288.149 220.26 288.407 220.788C288.664 221.317 288.793 221.886 288.793 222.496C288.793 223.438 288.586 224.227 288.173 224.864C287.766 225.501 287.18 225.985 286.415 226.317C285.649 226.642 284.728 226.805 283.65 226.805ZM293.762 215.809V226.805H291.313V215.809H293.762ZM300.937 215.809L295.988 222.425H293.193L292.868 220.209H294.911L297.878 215.809H300.937ZM298.071 226.805L294.758 222.008L296.689 220.616L301.293 226.805H298.071ZM310.013 215.809V217.76H304.647V215.809H310.013ZM311.934 215.809V226.805H309.484V215.809H311.934ZM304.047 215.809H306.466L306.171 221.246C306.131 222.052 306.049 222.763 305.927 223.38C305.812 223.99 305.656 224.515 305.46 224.955C305.263 225.389 305.023 225.741 304.738 226.012C304.454 226.283 304.122 226.483 303.742 226.612C303.363 226.741 302.936 226.805 302.462 226.805H301.7L301.689 224.793L302.076 224.762C302.326 224.742 302.543 224.677 302.726 224.569C302.909 224.454 303.065 224.291 303.194 224.081C303.329 223.871 303.437 223.6 303.519 223.268C303.607 222.936 303.675 222.543 303.722 222.089C303.776 221.635 303.817 221.107 303.844 220.504L304.047 215.809ZM314.637 225.585C314.637 225.206 314.766 224.888 315.023 224.63C315.281 224.366 315.63 224.234 316.07 224.234C316.517 224.234 316.866 224.366 317.117 224.63C317.374 224.888 317.503 225.206 317.503 225.585C317.503 225.965 317.374 226.283 317.117 226.541C316.866 226.798 316.517 226.927 316.07 226.927C315.63 226.927 315.281 226.798 315.023 226.541C314.766 226.283 314.637 225.965 314.637 225.585Z" fill="#27C58B"/>
<rect x="325.77" y="209.29" width="53.5208" height="20.8137" rx="10.4068" fill="#27C58B" fill-opacity="0.68"/>
<g filter="url(#filter0_ddd_49_4883)">
<rect x="349.555" y="204.831" width="29.7338" height="29.7338" rx="14.8669" fill="#27C58B"/>
</g>
<defs>
<filter id="filter0_ddd_49_4883" x="342.121" y="198.885" width="44.6013" height="44.6008" filterUnits="userSpaceOnUse" color-interpolation-filters="sRGB">
<feFlood flood-opacity="0" result="BackgroundImageFix"/>
<feColorMatrix in="SourceAlpha" type="matrix" values="0 0 0 0 0 0 0 0 0 0 0 0 0 0 0 0 0 0 127 0" result="hardAlpha"/>
<feOffset dy="1.48669"/>
<feGaussianBlur stdDeviation="3.71672"/>
<feComposite in2="hardAlpha" operator="out"/>
<feColorMatrix type="matrix" values="0 0 0 0 0 0 0 0 0 0 0 0 0 0 0 0 0 0 0.12 0"/>
<feBlend mode="normal" in2="BackgroundImageFix" result="effect1_dropShadow_49_4883"/>
<feColorMatrix in="SourceAlpha" type="matrix" values="0 0 0 0 0 0 0 0 0 0 0 0 0 0 0 0 0 0 127 0" result="hardAlpha"/>
<feMorphology radius="2.97338" operator="erode" in="SourceAlpha" result="effect2_dropShadow_49_4883"/>
<feOffset dy="4.46007"/>
<feGaussianBlur stdDeviation="0.743345"/>
<feComposite in2="hardAlpha" operator="out"/>
<feColorMatrix type="matrix" values="0 0 0 0 0 0 0 0 0 0 0 0 0 0 0 0 0 0 0.2 0"/>
<feBlend mode="normal" in2="effect1_dropShadow_49_4883" result="effect2_dropShadow_49_4883"/>
<feColorMatrix in="SourceAlpha" type="matrix" values="0 0 0 0 0 0 0 0 0 0 0 0 0 0 0 0 0 0 127 0" result="hardAlpha"/>
<feOffset dy="2.97338"/>
<feGaussianBlur stdDeviation="1.48669"/>
<feComposite in2="hardAlpha" operator="out"/>
<feColorMatrix type="matrix" values="0 0 0 0 0 0 0 0 0 0 0 0 0 0 0 0 0 0 0.14 0"/>
<feBlend mode="normal" in2="effect2_dropShadow_49_4883" result="effect3_dropShadow_49_4883"/>
<feBlend mode="normal" in="SourceGraphic" in2="effect3_dropShadow_49_4883" result="shape"/>
</filter>
<clipPath id="clip0_49_4883">
<rect width="50" height="46.46" fill="white" transform="translate(303 38.8313)"/>
</clipPath>
<clipPath id="clip1_49_4883">
<rect width="49.9967" height="46.46" fill="white" transform="translate(303.002 38.8313)"/>
</clipPath>
</defs>
</svg>
