<svg width="23" height="22" viewBox="0 0 23 22" fill="none" xmlns="http://www.w3.org/2000/svg">
<path d="M1.4375 0H4.3125C4.69375 0 5.05938 0.128827 5.32897 0.35814C5.59855 0.587453 5.75 0.898468 5.75 1.22277V22H0V1.22277C0 0.898468 0.151449 0.587453 0.421032 0.35814C0.690617 0.128827 1.05625 0 1.4375 0ZM10.0625 7.33659H12.9375C13.3187 7.33659 13.6844 7.46542 13.954 7.69473C14.2235 7.92405 14.375 8.23506 14.375 8.55936V22H8.625V8.55936C8.625 8.23506 8.77645 7.92405 9.04603 7.69473C9.31562 7.46542 9.68125 7.33659 10.0625 7.33659ZM18.6875 14.6732H21.5625C21.9437 14.6732 22.3094 14.802 22.579 15.0313C22.8485 15.2606 23 15.5717 23 15.896V22H17.25V15.896C17.25 15.5717 17.4015 15.2606 17.671 15.0313C17.9406 14.802 18.3063 14.6732 18.6875 14.6732Z" fill="#EFB503"/>
</svg>
