<svg width="380" height="148" viewBox="0 0 380 148" fill="none" xmlns="http://www.w3.org/2000/svg">
<rect width="380" height="148" rx="12.4084" fill="white"/>
<rect width="380" height="148" rx="12.4084" fill="white"/>
<path d="M161.702 124.524H159.188L159.175 123.284H161.37C161.74 123.284 162.054 123.23 162.312 123.122C162.574 123.009 162.773 122.849 162.908 122.641C163.044 122.428 163.111 122.173 163.111 121.875C163.111 121.545 163.048 121.277 162.922 121.069C162.795 120.861 162.601 120.71 162.339 120.615C162.081 120.52 161.752 120.473 161.35 120.473H159.703V128.982H158.003V119.118H161.35C161.892 119.118 162.375 119.17 162.8 119.273C163.229 119.377 163.592 119.54 163.89 119.761C164.193 119.978 164.421 120.254 164.575 120.588C164.733 120.922 164.812 121.32 164.812 121.78C164.812 122.187 164.715 122.559 164.521 122.898C164.326 123.232 164.04 123.506 163.66 123.718C163.281 123.93 162.809 124.057 162.244 124.097L161.702 124.524ZM161.628 128.982H158.653L159.419 127.634H161.628C162.011 127.634 162.332 127.571 162.59 127.444C162.847 127.313 163.039 127.135 163.166 126.909C163.296 126.679 163.362 126.41 163.362 126.103C163.362 125.782 163.306 125.504 163.193 125.27C163.08 125.03 162.901 124.847 162.657 124.721C162.413 124.59 162.095 124.524 161.702 124.524H159.791L159.805 123.284H162.291L162.678 123.752C163.22 123.77 163.665 123.89 164.012 124.111C164.365 124.332 164.627 124.619 164.798 124.971C164.97 125.324 165.056 125.703 165.056 126.11C165.056 126.738 164.918 127.264 164.643 127.688C164.372 128.113 163.981 128.436 163.47 128.657C162.96 128.874 162.346 128.982 161.628 128.982ZM168.369 121.652V128.982H166.736V121.652H168.369ZM173.152 121.652L169.853 126.062H167.99L167.773 124.585H169.135L171.113 121.652H173.152ZM171.242 128.982L169.033 125.784L170.32 124.856L173.389 128.982H171.242ZM179.203 121.652V122.952H175.625V121.652H179.203ZM180.483 121.652V128.982H178.85V121.652H180.483ZM175.225 121.652H176.838L176.642 125.276C176.614 125.814 176.56 126.288 176.479 126.699C176.402 127.106 176.298 127.456 176.167 127.749C176.036 128.038 175.876 128.273 175.686 128.454C175.497 128.635 175.275 128.768 175.022 128.854C174.769 128.94 174.485 128.982 174.169 128.982H173.66L173.654 127.641L173.911 127.621C174.078 127.607 174.223 127.564 174.345 127.492C174.467 127.415 174.571 127.307 174.656 127.167C174.747 127.027 174.819 126.846 174.873 126.625C174.932 126.403 174.977 126.141 175.009 125.839C175.045 125.536 175.072 125.184 175.09 124.782L175.225 121.652ZM182.285 128.169C182.285 127.916 182.371 127.704 182.543 127.533C182.714 127.356 182.947 127.268 183.241 127.268C183.539 127.268 183.771 127.356 183.939 127.533C184.11 127.704 184.196 127.916 184.196 128.169C184.196 128.422 184.11 128.635 183.939 128.806C183.771 128.978 183.539 129.064 183.241 129.064C182.947 129.064 182.714 128.978 182.543 128.806C182.371 128.635 182.285 128.422 182.285 128.169Z" fill="#27C58B"/>
<rect x="189.707" y="116.973" width="35.6805" height="13.8758" rx="6.93788" fill="#27C58B" fill-opacity="0.68"/>
<g filter="url(#filter0_ddd_3_1608)">
<rect x="205.564" y="114" width="19.8225" height="19.8225" rx="9.91126" fill="#27C58B"/>
</g>
<rect x="170.5" y="16" width="40" height="37.1084" rx="6.74699" fill="#FDF7E4"/>
<g clip-path="url(#clip0_3_1608)">
<path d="M178.723 34.0727C178.723 27.5761 184.039 22.2607 190.535 22.2607C197.032 22.2607 202.347 27.5761 202.347 34.0727C202.347 40.5693 197.032 45.8847 190.535 45.8847C184.039 45.8847 178.723 40.5693 178.723 34.0727Z" fill="#1A4A7F"/>
<path fill-rule="evenodd" clip-rule="evenodd" d="M188.841 45.8848C186.455 45.5148 184.219 44.4051 182.504 42.7035L193.24 32.9378L187.126 34.4175C185.411 34.8614 183.697 33.8256 183.324 32.124C183.324 32.124 183.324 32.124 183.324 32.05C182.951 30.3485 183.995 28.6469 185.71 28.203L198.533 25.0957C203.603 29.3127 204.274 36.7849 200.024 41.7417C198.831 43.1474 197.34 44.2571 195.626 44.997C195.626 44.5531 195.626 44.1092 195.775 43.7393L197.788 37.7467C197.713 37.7467 188.841 45.8848 188.841 45.8848Z" fill="url(#paint0_linear_3_1608)"/>
</g>
<path d="M91.9482 69.9736H89.9619V68.5762H91.5439C92.0068 68.5762 92.3818 68.5059 92.6689 68.3652C92.9561 68.2188 93.167 68.0137 93.3018 67.75C93.4365 67.4863 93.5039 67.1758 93.5039 66.8184C93.5039 66.5254 93.4277 66.2559 93.2754 66.0098C93.1289 65.7637 92.9004 65.5674 92.5898 65.4209C92.2793 65.2686 91.8838 65.1924 91.4033 65.1924C91.04 65.1924 90.709 65.2568 90.4102 65.3857C90.1113 65.5146 89.874 65.6963 89.6982 65.9307C89.5225 66.1592 89.4346 66.4375 89.4346 66.7656H86.8066C86.8066 66.2031 86.9268 65.6992 87.167 65.2539C87.4131 64.8027 87.7471 64.4219 88.1689 64.1113C88.5967 63.7949 89.0889 63.5547 89.6455 63.3906C90.2021 63.2266 90.7881 63.1445 91.4033 63.1445C92.124 63.1445 92.7744 63.2236 93.3545 63.3818C93.9346 63.5342 94.4326 63.7627 94.8486 64.0674C95.2646 64.3721 95.584 64.75 95.8066 65.2012C96.0293 65.6523 96.1406 66.1768 96.1406 66.7744C96.1406 67.2139 96.041 67.627 95.8418 68.0137C95.6426 68.4004 95.3584 68.7402 94.9893 69.0332C94.6201 69.3262 94.1777 69.5576 93.6621 69.7275C93.1465 69.8916 92.5752 69.9736 91.9482 69.9736ZM89.9619 69.209H91.9482C92.6455 69.209 93.2637 69.2822 93.8027 69.4287C94.3477 69.5752 94.8076 69.7891 95.1826 70.0703C95.5635 70.3516 95.8506 70.7002 96.0439 71.1162C96.2432 71.5264 96.3428 71.998 96.3428 72.5312C96.3428 73.1289 96.2197 73.6592 95.9736 74.1221C95.7334 74.585 95.3906 74.9775 94.9453 75.2998C94.5059 75.6221 93.9844 75.8652 93.3809 76.0293C92.7832 76.1934 92.124 76.2754 91.4033 76.2754C90.8291 76.2754 90.2578 76.2051 89.6895 76.0645C89.1211 75.918 88.6055 75.6953 88.1426 75.3965C87.6797 75.0977 87.3105 74.7139 87.0352 74.2451C86.7598 73.7764 86.6221 73.2139 86.6221 72.5576H89.2676C89.2676 72.8682 89.3584 73.1523 89.54 73.4102C89.7217 73.6621 89.9736 73.8643 90.2959 74.0166C90.6182 74.1631 90.9873 74.2363 91.4033 74.2363C91.8896 74.2363 92.3027 74.1602 92.6426 74.0078C92.9883 73.8555 93.249 73.6475 93.4248 73.3838C93.6064 73.1143 93.6973 72.8184 93.6973 72.4961C93.6973 72.1504 93.6504 71.8574 93.5566 71.6172C93.4629 71.377 93.3252 71.1807 93.1436 71.0283C92.9619 70.8701 92.7363 70.7559 92.4668 70.6855C92.2031 70.6152 91.8955 70.5801 91.5439 70.5801H89.9619V69.209ZM103.269 73.9639V69.7275C103.269 69.4229 103.219 69.1621 103.119 68.9453C103.02 68.7227 102.864 68.5498 102.653 68.4268C102.448 68.3037 102.182 68.2422 101.854 68.2422C101.572 68.2422 101.329 68.292 101.124 68.3916C100.919 68.4854 100.761 68.623 100.649 68.8047C100.538 68.9805 100.482 69.1885 100.482 69.4287H97.9512C97.9512 69.0244 98.0449 68.6406 98.2324 68.2773C98.4199 67.9141 98.6924 67.5947 99.0498 67.3193C99.4072 67.0381 99.832 66.8184 100.324 66.6602C100.822 66.502 101.379 66.4229 101.994 66.4229C102.732 66.4229 103.389 66.5459 103.963 66.792C104.537 67.0381 104.988 67.4072 105.316 67.8994C105.65 68.3916 105.817 69.0068 105.817 69.7451V73.8145C105.817 74.3359 105.85 74.7637 105.914 75.0977C105.979 75.4258 106.072 75.7129 106.195 75.959V76.1084H103.638C103.515 75.8506 103.421 75.5283 103.356 75.1416C103.298 74.749 103.269 74.3564 103.269 73.9639ZM103.603 70.3164L103.62 71.749H102.205C101.871 71.749 101.581 71.7871 101.335 71.8633C101.089 71.9395 100.887 72.0479 100.729 72.1885C100.57 72.3232 100.453 72.4814 100.377 72.6631C100.307 72.8447 100.271 73.0439 100.271 73.2607C100.271 73.4775 100.321 73.6738 100.421 73.8496C100.521 74.0195 100.664 74.1543 100.852 74.2539C101.039 74.3477 101.259 74.3945 101.511 74.3945C101.892 74.3945 102.223 74.3184 102.504 74.166C102.785 74.0137 103.002 73.8262 103.154 73.6035C103.312 73.3809 103.395 73.1699 103.4 72.9707L104.068 74.043C103.975 74.2832 103.846 74.5322 103.682 74.79C103.523 75.0479 103.321 75.291 103.075 75.5195C102.829 75.7422 102.533 75.9268 102.188 76.0732C101.842 76.2139 101.432 76.2842 100.957 76.2842C100.354 76.2842 99.8057 76.1641 99.3135 75.9238C98.8271 75.6777 98.4404 75.3408 98.1533 74.9131C97.8721 74.4795 97.7314 73.9873 97.7314 73.4365C97.7314 72.9385 97.8252 72.4961 98.0127 72.1094C98.2002 71.7227 98.4756 71.3975 98.8389 71.1338C99.208 70.8643 99.668 70.6621 100.219 70.5273C100.77 70.3867 101.408 70.3164 102.135 70.3164H103.603ZM122.508 74.1396L122.332 78.9297H119.977V76.1084H118.913V74.1396H122.508ZM107.733 66.5986H110.265V74.1309H112.901V66.5986H115.441V74.1309H118.069V66.5986H120.601V76.1084H107.733V66.5986ZM126.533 72.5752L129.724 66.5986H132.255V76.1084H129.724V70.123L126.533 76.1084H124.002V66.5986H126.533V72.5752ZM139.049 66.5986V76.1084H136.509V66.5986H139.049ZM142.107 66.5986V68.5586H133.494V66.5986H142.107ZM148.392 73.9639V69.7275C148.392 69.4229 148.342 69.1621 148.242 68.9453C148.143 68.7227 147.987 68.5498 147.776 68.4268C147.571 68.3037 147.305 68.2422 146.977 68.2422C146.695 68.2422 146.452 68.292 146.247 68.3916C146.042 68.4854 145.884 68.623 145.772 68.8047C145.661 68.9805 145.605 69.1885 145.605 69.4287H143.074C143.074 69.0244 143.168 68.6406 143.355 68.2773C143.543 67.9141 143.815 67.5947 144.173 67.3193C144.53 67.0381 144.955 66.8184 145.447 66.6602C145.945 66.502 146.502 66.4229 147.117 66.4229C147.855 66.4229 148.512 66.5459 149.086 66.792C149.66 67.0381 150.111 67.4072 150.439 67.8994C150.773 68.3916 150.94 69.0068 150.94 69.7451V73.8145C150.94 74.3359 150.973 74.7637 151.037 75.0977C151.102 75.4258 151.195 75.7129 151.318 75.959V76.1084H148.761C148.638 75.8506 148.544 75.5283 148.479 75.1416C148.421 74.749 148.392 74.3564 148.392 73.9639ZM148.726 70.3164L148.743 71.749H147.328C146.994 71.749 146.704 71.7871 146.458 71.8633C146.212 71.9395 146.01 72.0479 145.852 72.1885C145.693 72.3232 145.576 72.4814 145.5 72.6631C145.43 72.8447 145.395 73.0439 145.395 73.2607C145.395 73.4775 145.444 73.6738 145.544 73.8496C145.644 74.0195 145.787 74.1543 145.975 74.2539C146.162 74.3477 146.382 74.3945 146.634 74.3945C147.015 74.3945 147.346 74.3184 147.627 74.166C147.908 74.0137 148.125 73.8262 148.277 73.6035C148.436 73.3809 148.518 73.1699 148.523 72.9707L149.191 74.043C149.098 74.2832 148.969 74.5322 148.805 74.79C148.646 75.0479 148.444 75.291 148.198 75.5195C147.952 75.7422 147.656 75.9268 147.311 76.0732C146.965 76.2139 146.555 76.2842 146.08 76.2842C145.477 76.2842 144.929 76.1641 144.437 75.9238C143.95 75.6777 143.563 75.3408 143.276 74.9131C142.995 74.4795 142.854 73.9873 142.854 73.4365C142.854 72.9385 142.948 72.4961 143.136 72.1094C143.323 71.7227 143.599 71.3975 143.962 71.1338C144.331 70.8643 144.791 70.6621 145.342 70.5273C145.893 70.3867 146.531 70.3164 147.258 70.3164H148.726ZM156.97 71.4502V71.2656C156.97 70.5684 157.069 69.9268 157.269 69.3408C157.468 68.749 157.758 68.2363 158.139 67.8027C158.52 67.3691 158.988 67.0322 159.545 66.792C160.102 66.5459 160.74 66.4229 161.461 66.4229C162.182 66.4229 162.823 66.5459 163.386 66.792C163.948 67.0322 164.42 67.3691 164.801 67.8027C165.188 68.2363 165.48 68.749 165.68 69.3408C165.879 69.9268 165.979 70.5684 165.979 71.2656V71.4502C165.979 72.1416 165.879 72.7832 165.68 73.375C165.48 73.9609 165.188 74.4736 164.801 74.9131C164.42 75.3467 163.951 75.6836 163.395 75.9238C162.838 76.1641 162.199 76.2842 161.479 76.2842C160.758 76.2842 160.116 76.1641 159.554 75.9238C158.997 75.6836 158.525 75.3467 158.139 74.9131C157.758 74.4736 157.468 73.9609 157.269 73.375C157.069 72.7832 156.97 72.1416 156.97 71.4502ZM159.501 71.2656V71.4502C159.501 71.8486 159.536 72.2207 159.606 72.5664C159.677 72.9121 159.788 73.2168 159.94 73.4805C160.099 73.7383 160.304 73.9404 160.556 74.0869C160.808 74.2334 161.115 74.3066 161.479 74.3066C161.83 74.3066 162.132 74.2334 162.384 74.0869C162.636 73.9404 162.838 73.7383 162.99 73.4805C163.143 73.2168 163.254 72.9121 163.324 72.5664C163.4 72.2207 163.438 71.8486 163.438 71.4502V71.2656C163.438 70.8789 163.4 70.5156 163.324 70.1758C163.254 69.8301 163.14 69.5254 162.981 69.2617C162.829 68.9922 162.627 68.7812 162.375 68.6289C162.123 68.4766 161.818 68.4004 161.461 68.4004C161.104 68.4004 160.799 68.4766 160.547 68.6289C160.301 68.7812 160.099 68.9922 159.94 69.2617C159.788 69.5254 159.677 69.8301 159.606 70.1758C159.536 70.5156 159.501 70.8789 159.501 71.2656ZM172.131 66.5986V76.1084H169.591V66.5986H172.131ZM175.189 66.5986V68.5586H166.576V66.5986H175.189ZM184.893 74.3066C185.203 74.3066 185.479 74.248 185.719 74.1309C185.959 74.0078 186.146 73.8379 186.281 73.6211C186.422 73.3984 186.495 73.1377 186.501 72.8389H188.883C188.877 73.5068 188.698 74.1016 188.347 74.623C187.995 75.1387 187.523 75.5459 186.932 75.8447C186.34 76.1377 185.678 76.2842 184.945 76.2842C184.207 76.2842 183.562 76.1611 183.012 75.915C182.467 75.6689 182.013 75.3291 181.649 74.8955C181.286 74.4561 181.014 73.9463 180.832 73.3662C180.65 72.7803 180.56 72.1533 180.56 71.4854V71.2305C180.56 70.5566 180.65 69.9297 180.832 69.3496C181.014 68.7637 181.286 68.2539 181.649 67.8203C182.013 67.3809 182.467 67.0381 183.012 66.792C183.557 66.5459 184.195 66.4229 184.928 66.4229C185.707 66.4229 186.39 66.5723 186.976 66.8711C187.567 67.1699 188.03 67.5977 188.364 68.1543C188.704 68.7051 188.877 69.3584 188.883 70.1143H186.501C186.495 69.7979 186.428 69.5107 186.299 69.2529C186.176 68.9951 185.994 68.79 185.754 68.6377C185.52 68.4795 185.229 68.4004 184.884 68.4004C184.515 68.4004 184.213 68.4795 183.979 68.6377C183.744 68.79 183.562 69.001 183.434 69.2705C183.305 69.5342 183.214 69.8359 183.161 70.1758C183.114 70.5098 183.091 70.8613 183.091 71.2305V71.4854C183.091 71.8545 183.114 72.209 183.161 72.5488C183.208 72.8887 183.296 73.1904 183.425 73.4541C183.56 73.7178 183.744 73.9258 183.979 74.0781C184.213 74.2305 184.518 74.3066 184.893 74.3066ZM193.049 66.5986V76.1084H190.518V66.5986H193.049ZM199.228 66.5986L195.132 72.5488H192.601L192.293 70.2109H193.972L196.02 66.5986H199.228ZM196.134 76.1084L193.796 72.0918L196.002 70.8701L199.526 76.1084H196.134ZM206.874 66.5986V68.585H202.198V66.5986H206.874ZM208.729 66.5986V76.1084H206.197V66.5986H208.729ZM201.565 66.5986H204.053L203.798 71.3975C203.763 72.083 203.689 72.6865 203.578 73.208C203.467 73.7295 203.317 74.1748 203.13 74.5439C202.948 74.9131 202.729 75.2148 202.471 75.4492C202.219 75.6777 201.923 75.8447 201.583 75.9502C201.249 76.0557 200.88 76.1084 200.476 76.1084H199.702L199.676 74.1133L200.001 74.0781C200.188 74.0605 200.353 74.0078 200.493 73.9199C200.64 73.8262 200.763 73.6943 200.862 73.5244C200.968 73.3486 201.056 73.1289 201.126 72.8652C201.196 72.5957 201.252 72.2793 201.293 71.916C201.34 71.5527 201.372 71.1338 201.39 70.6592L201.565 66.5986ZM213.211 72.5752L216.401 66.5986H218.933V76.1084H216.401V70.123L213.211 76.1084H210.68V66.5986H213.211V72.5752ZM223.582 66.5986V76.1084H221.051V66.5986H223.582ZM229.761 66.5986L225.665 72.5488H223.134L222.826 70.2109H224.505L226.553 66.5986H229.761ZM226.667 76.1084L224.329 72.0918L226.535 70.8701L230.06 76.1084H226.667ZM233.531 72.5752L236.722 66.5986H239.253V76.1084H236.722V70.123L233.531 76.1084H231V66.5986H233.531V72.5752ZM245.941 72.1357H242.962L242.944 70.4746H245.405C245.733 70.4746 246 70.4424 246.205 70.3779C246.41 70.3076 246.56 70.2051 246.653 70.0703C246.753 69.9297 246.803 69.7598 246.803 69.5605C246.803 69.3848 246.771 69.2354 246.706 69.1123C246.647 68.9834 246.557 68.8779 246.434 68.7959C246.311 68.7139 246.155 68.6553 245.968 68.6201C245.786 68.5791 245.572 68.5586 245.326 68.5586H243.902V76.1084H241.371V66.5986H245.326C245.947 66.5986 246.504 66.6543 246.996 66.7656C247.488 66.8711 247.907 67.0322 248.253 67.249C248.604 67.4658 248.871 67.7412 249.053 68.0752C249.24 68.4033 249.334 68.793 249.334 69.2441C249.334 69.5371 249.267 69.8125 249.132 70.0703C249.003 70.3281 248.81 70.5566 248.552 70.7559C248.294 70.9551 247.975 71.1191 247.594 71.248C247.219 71.3711 246.785 71.4473 246.293 71.4766L245.941 72.1357ZM245.941 76.1084H242.338L243.208 74.1484H245.941C246.252 74.1484 246.507 74.1104 246.706 74.0342C246.905 73.958 247.052 73.8467 247.146 73.7002C247.245 73.5479 247.295 73.3662 247.295 73.1553C247.295 72.9502 247.251 72.7715 247.163 72.6191C247.075 72.4668 246.932 72.3496 246.732 72.2676C246.539 72.1797 246.275 72.1357 245.941 72.1357H243.577L243.595 70.4746H246.284L246.899 71.1426C247.567 71.1836 248.118 71.3096 248.552 71.5205C248.985 71.7314 249.305 72.001 249.51 72.3291C249.721 72.6514 249.826 73.0059 249.826 73.3926C249.826 73.8438 249.741 74.2393 249.571 74.5791C249.401 74.9189 249.149 75.2031 248.815 75.4316C248.487 75.6543 248.083 75.8242 247.603 75.9414C247.122 76.0527 246.568 76.1084 245.941 76.1084ZM256.515 73.9639V69.7275C256.515 69.4229 256.465 69.1621 256.365 68.9453C256.266 68.7227 256.11 68.5498 255.899 68.4268C255.694 68.3037 255.428 68.2422 255.1 68.2422C254.818 68.2422 254.575 68.292 254.37 68.3916C254.165 68.4854 254.007 68.623 253.896 68.8047C253.784 68.9805 253.729 69.1885 253.729 69.4287H251.197C251.197 69.0244 251.291 68.6406 251.479 68.2773C251.666 67.9141 251.938 67.5947 252.296 67.3193C252.653 67.0381 253.078 66.8184 253.57 66.6602C254.068 66.502 254.625 66.4229 255.24 66.4229C255.979 66.4229 256.635 66.5459 257.209 66.792C257.783 67.0381 258.234 67.4072 258.562 67.8994C258.896 68.3916 259.063 69.0068 259.063 69.7451V73.8145C259.063 74.3359 259.096 74.7637 259.16 75.0977C259.225 75.4258 259.318 75.7129 259.441 75.959V76.1084H256.884C256.761 75.8506 256.667 75.5283 256.603 75.1416C256.544 74.749 256.515 74.3564 256.515 73.9639ZM256.849 70.3164L256.866 71.749H255.451C255.117 71.749 254.827 71.7871 254.581 71.8633C254.335 71.9395 254.133 72.0479 253.975 72.1885C253.816 72.3232 253.699 72.4814 253.623 72.6631C253.553 72.8447 253.518 73.0439 253.518 73.2607C253.518 73.4775 253.567 73.6738 253.667 73.8496C253.767 74.0195 253.91 74.1543 254.098 74.2539C254.285 74.3477 254.505 74.3945 254.757 74.3945C255.138 74.3945 255.469 74.3184 255.75 74.166C256.031 74.0137 256.248 73.8262 256.4 73.6035C256.559 73.3809 256.641 73.1699 256.646 72.9707L257.314 74.043C257.221 74.2832 257.092 74.5322 256.928 74.79C256.77 75.0479 256.567 75.291 256.321 75.5195C256.075 75.7422 255.779 75.9268 255.434 76.0732C255.088 76.2139 254.678 76.2842 254.203 76.2842C253.6 76.2842 253.052 76.1641 252.56 75.9238C252.073 75.6777 251.687 75.3408 251.399 74.9131C251.118 74.4795 250.978 73.9873 250.978 73.4365C250.978 72.9385 251.071 72.4961 251.259 72.1094C251.446 71.7227 251.722 71.3975 252.085 71.1338C252.454 70.8643 252.914 70.6621 253.465 70.5273C254.016 70.3867 254.654 70.3164 255.381 70.3164H256.849ZM267.527 70.4395V72.4082H262.693V70.4395H267.527ZM263.537 66.5986V76.1084H261.006V66.5986H263.537ZM269.241 66.5986V76.1084H266.701V66.5986H269.241ZM273.732 72.5752L276.923 66.5986H279.454V76.1084H276.923V70.123L273.732 76.1084H271.201V66.5986H273.732V72.5752ZM283.453 71.3623H286.02L283.374 76.1084H280.816L283.453 71.3623ZM285.158 66.5986H289.333V76.1084H286.802V68.5586H285.158C284.812 68.5586 284.525 68.623 284.297 68.752C284.068 68.875 283.898 69.0361 283.787 69.2354C283.682 69.4287 283.629 69.6279 283.629 69.833C283.629 70.0322 283.682 70.2256 283.787 70.4131C283.893 70.6006 284.057 70.7559 284.279 70.8789C284.502 71.002 284.78 71.0635 285.114 71.0635H287.742V72.7861H285.114C284.487 72.7861 283.925 72.71 283.427 72.5576C282.935 72.4053 282.513 72.1943 282.161 71.9248C281.815 71.6494 281.549 71.3301 281.361 70.9668C281.18 70.5977 281.089 70.1934 281.089 69.7539C281.089 69.2969 281.183 68.8779 281.37 68.4971C281.558 68.1162 281.827 67.7822 282.179 67.4951C282.53 67.208 282.955 66.9883 283.453 66.8359C283.957 66.6777 284.525 66.5986 285.158 66.5986ZM124.6 95.1357H121.62L121.603 93.4746H124.063C124.392 93.4746 124.658 93.4424 124.863 93.3779C125.068 93.3076 125.218 93.2051 125.312 93.0703C125.411 92.9297 125.461 92.7598 125.461 92.5605C125.461 92.3848 125.429 92.2354 125.364 92.1123C125.306 91.9834 125.215 91.8779 125.092 91.7959C124.969 91.7139 124.813 91.6553 124.626 91.6201C124.444 91.5791 124.23 91.5586 123.984 91.5586H122.561V99.1084H120.029V89.5986H123.984C124.605 89.5986 125.162 89.6543 125.654 89.7656C126.146 89.8711 126.565 90.0322 126.911 90.249C127.263 90.4658 127.529 90.7412 127.711 91.0752C127.898 91.4033 127.992 91.793 127.992 92.2441C127.992 92.5371 127.925 92.8125 127.79 93.0703C127.661 93.3281 127.468 93.5566 127.21 93.7559C126.952 93.9551 126.633 94.1191 126.252 94.248C125.877 94.3711 125.443 94.4473 124.951 94.4766L124.6 95.1357ZM124.6 99.1084H120.996L121.866 97.1484H124.6C124.91 97.1484 125.165 97.1104 125.364 97.0342C125.563 96.958 125.71 96.8467 125.804 96.7002C125.903 96.5479 125.953 96.3662 125.953 96.1553C125.953 95.9502 125.909 95.7715 125.821 95.6191C125.733 95.4668 125.59 95.3496 125.391 95.2676C125.197 95.1797 124.934 95.1357 124.6 95.1357H122.235L122.253 93.4746H124.942L125.558 94.1426C126.226 94.1836 126.776 94.3096 127.21 94.5205C127.644 94.7314 127.963 95.001 128.168 95.3291C128.379 95.6514 128.484 96.0059 128.484 96.3926C128.484 96.8438 128.399 97.2393 128.229 97.5791C128.06 97.9189 127.808 98.2031 127.474 98.4316C127.146 98.6543 126.741 98.8242 126.261 98.9414C125.78 99.0527 125.227 99.1084 124.6 99.1084ZM141.483 94.459H138.003L137.115 94.0898C136.113 93.7734 135.346 93.2988 134.812 92.666C134.285 92.0332 134.021 91.2275 134.021 90.249C134.021 89.3877 134.212 88.667 134.593 88.0869C134.979 87.501 135.524 87.0586 136.228 86.7598C136.937 86.4609 137.777 86.3115 138.75 86.3115H143.215V99.1084H140.569V88.377H138.75C138.029 88.377 137.499 88.5557 137.159 88.9131C136.819 89.2705 136.649 89.7773 136.649 90.4336C136.649 90.9141 136.729 91.3096 136.887 91.6201C137.045 91.9248 137.276 92.1533 137.581 92.3057C137.886 92.4521 138.27 92.5254 138.732 92.5254H141.475L141.483 94.459ZM138.943 93.3955L136.104 99.1084H133.248L136.096 93.3955H138.943ZM151.723 93.4395V95.4082H146.889V93.4395H151.723ZM147.732 89.5986V99.1084H145.201V89.5986H147.732ZM153.437 89.5986V99.1084H150.896V89.5986H153.437ZM157.119 89.5986H159.65L159.571 92.7803C159.548 93.7998 159.431 94.6758 159.22 95.4082C159.009 96.1406 158.728 96.7559 158.376 97.2539C158.024 97.752 157.623 98.1504 157.172 98.4492C156.727 98.7422 156.258 98.9619 155.766 99.1084H155.291L155.265 97.1572L155.528 97.1309C155.827 96.8203 156.073 96.5186 156.267 96.2256C156.46 95.9268 156.609 95.6133 156.715 95.2852C156.82 94.957 156.896 94.5908 156.943 94.1865C156.996 93.7822 157.028 93.3135 157.04 92.7803L157.119 89.5986ZM157.805 89.5986H164.106V99.1084H161.584V91.6289H157.805V89.5986ZM154.711 97.1309H165.469V101.965H162.938V99.1084H157.304V101.965H154.711V97.1309ZM171.138 99.2842C170.399 99.2842 169.737 99.167 169.151 98.9326C168.565 98.6924 168.067 98.3613 167.657 97.9395C167.253 97.5176 166.942 97.0283 166.726 96.4717C166.509 95.9092 166.4 95.3115 166.4 94.6787V94.3271C166.4 93.6064 166.503 92.9473 166.708 92.3496C166.913 91.752 167.206 91.2334 167.587 90.7939C167.974 90.3545 168.442 90.0176 168.993 89.7832C169.544 89.543 170.165 89.4229 170.856 89.4229C171.53 89.4229 172.128 89.5342 172.649 89.7568C173.171 89.9795 173.607 90.2959 173.959 90.7061C174.316 91.1162 174.586 91.6084 174.768 92.1826C174.949 92.751 175.04 93.3838 175.04 94.0811V95.1357H167.481V93.4482H172.553V93.2549C172.553 92.9033 172.488 92.5898 172.359 92.3145C172.236 92.0332 172.049 91.8105 171.797 91.6465C171.545 91.4824 171.223 91.4004 170.83 91.4004C170.496 91.4004 170.209 91.4736 169.969 91.6201C169.729 91.7666 169.532 91.9717 169.38 92.2354C169.233 92.499 169.122 92.8096 169.046 93.167C168.976 93.5186 168.94 93.9053 168.94 94.3271V94.6787C168.94 95.0596 168.993 95.4111 169.099 95.7334C169.21 96.0557 169.365 96.334 169.564 96.5684C169.77 96.8027 170.016 96.9844 170.303 97.1133C170.596 97.2422 170.927 97.3066 171.296 97.3066C171.753 97.3066 172.178 97.2188 172.57 97.043C172.969 96.8613 173.312 96.5889 173.599 96.2256L174.829 97.5615C174.63 97.8486 174.357 98.124 174.012 98.3877C173.672 98.6514 173.262 98.8682 172.781 99.0381C172.301 99.2021 171.753 99.2842 171.138 99.2842ZM179.18 89.5986V99.1084H176.648V89.5986H179.18ZM185.358 89.5986L181.263 95.5488H178.731L178.424 93.2109H180.103L182.15 89.5986H185.358ZM182.265 99.1084L179.927 95.0918L182.133 93.8701L185.657 99.1084H182.265ZM190.395 97.3066C190.705 97.3066 190.98 97.248 191.221 97.1309C191.461 97.0078 191.648 96.8379 191.783 96.6211C191.924 96.3984 191.997 96.1377 192.003 95.8389H194.385C194.379 96.5068 194.2 97.1016 193.849 97.623C193.497 98.1387 193.025 98.5459 192.434 98.8447C191.842 99.1377 191.18 99.2842 190.447 99.2842C189.709 99.2842 189.064 99.1611 188.514 98.915C187.969 98.6689 187.515 98.3291 187.151 97.8955C186.788 97.4561 186.516 96.9463 186.334 96.3662C186.152 95.7803 186.062 95.1533 186.062 94.4854V94.2305C186.062 93.5566 186.152 92.9297 186.334 92.3496C186.516 91.7637 186.788 91.2539 187.151 90.8203C187.515 90.3809 187.969 90.0381 188.514 89.792C189.059 89.5459 189.697 89.4229 190.43 89.4229C191.209 89.4229 191.892 89.5723 192.478 89.8711C193.069 90.1699 193.532 90.5977 193.866 91.1543C194.206 91.7051 194.379 92.3584 194.385 93.1143H192.003C191.997 92.7979 191.93 92.5107 191.801 92.2529C191.678 91.9951 191.496 91.79 191.256 91.6377C191.021 91.4795 190.731 91.4004 190.386 91.4004C190.017 91.4004 189.715 91.4795 189.48 91.6377C189.246 91.79 189.064 92.001 188.936 92.2705C188.807 92.5342 188.716 92.8359 188.663 93.1758C188.616 93.5098 188.593 93.8613 188.593 94.2305V94.4854C188.593 94.8545 188.616 95.209 188.663 95.5488C188.71 95.8887 188.798 96.1904 188.927 96.4541C189.062 96.7178 189.246 96.9258 189.48 97.0781C189.715 97.2305 190.02 97.3066 190.395 97.3066ZM210.645 97.0518V99.1084H201.425V97.0518H210.645ZM202.207 97.0518V102.246H199.729L199.588 97.0518H202.207ZM212.543 97.0518L212.314 102.255H209.897V97.0518H212.543ZM209.194 86.3115V88.377H203.033V86.3115H209.194ZM211.075 86.3115V99.1084H208.447V86.3115H211.075ZM202.708 86.3115H205.345L205.002 91.5234C204.949 92.3848 204.855 93.1465 204.721 93.8086C204.592 94.4648 204.434 95.042 204.246 95.54C204.064 96.0381 203.862 96.4746 203.64 96.8496C203.417 97.2188 203.183 97.541 202.937 97.8164C202.69 98.0859 202.441 98.3262 202.189 98.5371C201.938 98.7422 201.691 98.9326 201.451 99.1084H199.939V97.0518H200.528C200.698 96.9111 200.877 96.7178 201.064 96.4717C201.258 96.2256 201.439 95.8945 201.609 95.4785C201.785 95.0566 201.938 94.5234 202.066 93.8789C202.201 93.2344 202.301 92.4492 202.365 91.5234L202.708 86.3115ZM216.27 95.5752L219.46 89.5986H221.991V99.1084H219.46V93.123L216.27 99.1084H213.738V89.5986H216.27V95.5752ZM226.474 91.4268V102.765H223.942V89.5986H226.289L226.474 91.4268ZM232.494 94.248V94.4326C232.494 95.124 232.412 95.7656 232.248 96.3574C232.09 96.9492 231.855 97.4648 231.545 97.9043C231.234 98.3379 230.848 98.6777 230.385 98.9238C229.928 99.1641 229.4 99.2842 228.803 99.2842C228.223 99.2842 227.719 99.167 227.291 98.9326C226.863 98.6982 226.503 98.3701 226.21 97.9482C225.923 97.5205 225.691 97.0254 225.516 96.4629C225.34 95.9004 225.205 95.2969 225.111 94.6523V94.1689C225.205 93.4775 225.34 92.8447 225.516 92.2705C225.691 91.6904 225.923 91.1895 226.21 90.7676C226.503 90.3398 226.86 90.0088 227.282 89.7744C227.71 89.54 228.211 89.4229 228.785 89.4229C229.389 89.4229 229.919 89.5371 230.376 89.7656C230.839 89.9941 231.226 90.3223 231.536 90.75C231.853 91.1777 232.09 91.6875 232.248 92.2793C232.412 92.8711 232.494 93.5273 232.494 94.248ZM229.954 94.4326V94.248C229.954 93.8438 229.919 93.4717 229.849 93.1318C229.784 92.7861 229.679 92.4844 229.532 92.2266C229.392 91.9688 229.204 91.7695 228.97 91.6289C228.741 91.4824 228.463 91.4092 228.135 91.4092C227.789 91.4092 227.493 91.4648 227.247 91.5762C227.007 91.6875 226.811 91.8486 226.658 92.0596C226.506 92.2705 226.392 92.5225 226.315 92.8154C226.239 93.1084 226.192 93.4395 226.175 93.8086V95.0303C226.204 95.4639 226.286 95.8535 226.421 96.1992C226.556 96.5391 226.764 96.8086 227.045 97.0078C227.326 97.207 227.695 97.3066 228.152 97.3066C228.486 97.3066 228.768 97.2334 228.996 97.0869C229.225 96.9346 229.409 96.7266 229.55 96.4629C229.696 96.1992 229.799 95.8945 229.857 95.5488C229.922 95.2031 229.954 94.8311 229.954 94.4326ZM238.444 99.2842C237.706 99.2842 237.044 99.167 236.458 98.9326C235.872 98.6924 235.374 98.3613 234.964 97.9395C234.56 97.5176 234.249 97.0283 234.032 96.4717C233.815 95.9092 233.707 95.3115 233.707 94.6787V94.3271C233.707 93.6064 233.81 92.9473 234.015 92.3496C234.22 91.752 234.513 91.2334 234.894 90.7939C235.28 90.3545 235.749 90.0176 236.3 89.7832C236.851 89.543 237.472 89.4229 238.163 89.4229C238.837 89.4229 239.435 89.5342 239.956 89.7568C240.478 89.9795 240.914 90.2959 241.266 90.7061C241.623 91.1162 241.893 91.6084 242.074 92.1826C242.256 92.751 242.347 93.3838 242.347 94.0811V95.1357H234.788V93.4482H239.859V93.2549C239.859 92.9033 239.795 92.5898 239.666 92.3145C239.543 92.0332 239.355 91.8105 239.104 91.6465C238.852 91.4824 238.529 91.4004 238.137 91.4004C237.803 91.4004 237.516 91.4736 237.275 91.6201C237.035 91.7666 236.839 91.9717 236.687 92.2354C236.54 92.499 236.429 92.8096 236.353 93.167C236.282 93.5186 236.247 93.9053 236.247 94.3271V94.6787C236.247 95.0596 236.3 95.4111 236.405 95.7334C236.517 96.0557 236.672 96.334 236.871 96.5684C237.076 96.8027 237.322 96.9844 237.609 97.1133C237.902 97.2422 238.233 97.3066 238.603 97.3066C239.06 97.3066 239.484 97.2188 239.877 97.043C240.275 96.8613 240.618 96.5889 240.905 96.2256L242.136 97.5615C241.937 97.8486 241.664 98.124 241.318 98.3877C240.979 98.6514 240.568 98.8682 240.088 99.0381C239.607 99.2021 239.06 99.2842 238.444 99.2842ZM246.486 89.5986V99.1084H243.955V89.5986H246.486ZM252.665 89.5986L248.569 95.5488H246.038L245.73 93.2109H247.409L249.457 89.5986H252.665ZM249.571 99.1084L247.233 95.0918L249.439 93.8701L252.964 99.1084H249.571ZM258.756 89.5986V99.1084H256.216V89.5986H258.756ZM261.814 89.5986V91.5586H253.201V89.5986H261.814Z" fill="#333333"/>
<defs>
<filter id="filter0_ddd_3_1608" x="200.609" y="110.035" width="29.7338" height="29.7335" filterUnits="userSpaceOnUse" color-interpolation-filters="sRGB">
<feFlood flood-opacity="0" result="BackgroundImageFix"/>
<feColorMatrix in="SourceAlpha" type="matrix" values="0 0 0 0 0 0 0 0 0 0 0 0 0 0 0 0 0 0 127 0" result="hardAlpha"/>
<feOffset dy="0.991126"/>
<feGaussianBlur stdDeviation="2.47782"/>
<feComposite in2="hardAlpha" operator="out"/>
<feColorMatrix type="matrix" values="0 0 0 0 0 0 0 0 0 0 0 0 0 0 0 0 0 0 0.12 0"/>
<feBlend mode="normal" in2="BackgroundImageFix" result="effect1_dropShadow_3_1608"/>
<feColorMatrix in="SourceAlpha" type="matrix" values="0 0 0 0 0 0 0 0 0 0 0 0 0 0 0 0 0 0 127 0" result="hardAlpha"/>
<feMorphology radius="1.98225" operator="erode" in="SourceAlpha" result="effect2_dropShadow_3_1608"/>
<feOffset dy="2.97338"/>
<feGaussianBlur stdDeviation="0.495563"/>
<feComposite in2="hardAlpha" operator="out"/>
<feColorMatrix type="matrix" values="0 0 0 0 0 0 0 0 0 0 0 0 0 0 0 0 0 0 0.2 0"/>
<feBlend mode="normal" in2="effect1_dropShadow_3_1608" result="effect2_dropShadow_3_1608"/>
<feColorMatrix in="SourceAlpha" type="matrix" values="0 0 0 0 0 0 0 0 0 0 0 0 0 0 0 0 0 0 127 0" result="hardAlpha"/>
<feOffset dy="1.98225"/>
<feGaussianBlur stdDeviation="0.991126"/>
<feComposite in2="hardAlpha" operator="out"/>
<feColorMatrix type="matrix" values="0 0 0 0 0 0 0 0 0 0 0 0 0 0 0 0 0 0 0.14 0"/>
<feBlend mode="normal" in2="effect2_dropShadow_3_1608" result="effect3_dropShadow_3_1608"/>
<feBlend mode="normal" in="SourceGraphic" in2="effect3_dropShadow_3_1608" result="shape"/>
</filter>
<linearGradient id="paint0_linear_3_1608" x1="206.602" y1="22.2227" x2="166.052" y2="59.7207" gradientUnits="userSpaceOnUse">
<stop stop-color="#FFB800"/>
<stop offset="1" stop-color="#FFF11D"/>
</linearGradient>
<clipPath id="clip0_3_1608">
<rect width="24.0964" height="23.6239" fill="white" transform="translate(178.723 22.2607)"/>
</clipPath>
</defs>
</svg>
