<svg width="404" height="148" viewBox="0 0 404 148" fill="none" xmlns="http://www.w3.org/2000/svg">
<rect width="380" height="148" rx="12.4084" fill="white"/>
<rect width="380" height="148" rx="12.4084" fill="white"/>
<rect x="16.32" y="16.32" width="348.36" height="115.36" rx="6.08025" fill="white"/>
<path d="M27.5675 41.6695L30.3939 37.0887H31.4921V43.459H30.3939V38.8738L27.5675 43.459H26.4737V37.0887H27.5675V41.6695ZM34.6641 41.197H33.754V40.6632H34.4891C34.6757 40.6632 34.8245 40.6385 34.9353 40.5889C35.0491 40.5393 35.1293 40.4707 35.176 40.3832C35.2255 40.2928 35.2503 40.1878 35.2503 40.0682C35.2503 39.9632 35.2255 39.864 35.176 39.7707C35.1293 39.6745 35.0491 39.5957 34.9353 39.5345C34.8216 39.4732 34.667 39.4426 34.4716 39.4426C34.3111 39.4426 34.1668 39.4688 34.0384 39.5213C33.913 39.5738 33.8138 39.6467 33.7409 39.7401C33.668 39.8334 33.6315 39.9413 33.6315 40.0638H32.5771C32.5771 39.7693 32.6602 39.5155 32.8265 39.3026C32.9957 39.0896 33.2217 38.9263 33.5046 38.8125C33.7876 38.6988 34.0982 38.6419 34.4366 38.6419C34.7253 38.6419 34.9849 38.6725 35.2153 38.7338C35.4458 38.7921 35.6412 38.8796 35.8016 38.9963C35.965 39.1101 36.0889 39.253 36.1735 39.4251C36.261 39.5942 36.3048 39.7911 36.3048 40.0157C36.3048 40.1761 36.2668 40.3278 36.191 40.4707C36.1152 40.6137 36.0058 40.7405 35.8629 40.8514C35.7199 40.9593 35.5464 41.0439 35.3422 41.1051C35.141 41.1664 34.9149 41.197 34.6641 41.197ZM33.754 40.8908H34.6641C34.9441 40.8908 35.192 40.9185 35.4078 40.9739C35.6237 41.0264 35.8045 41.1051 35.9504 41.2101C36.0962 41.3151 36.2056 41.4449 36.2785 41.5995C36.3543 41.7512 36.3923 41.9262 36.3923 42.1246C36.3923 42.3462 36.3441 42.546 36.2479 42.724C36.1545 42.899 36.0204 43.0477 35.8454 43.1702C35.6733 43.2927 35.4676 43.3861 35.2285 43.4502C34.9893 43.5144 34.7253 43.5465 34.4366 43.5465C34.1215 43.5465 33.8153 43.494 33.5178 43.389C33.2232 43.284 32.9796 43.1221 32.7871 42.9033C32.5975 42.6817 32.5027 42.4002 32.5027 42.0589H33.5571C33.5571 42.1785 33.5936 42.2908 33.6665 42.3958C33.7394 42.5008 33.8444 42.5869 33.9815 42.654C34.1186 42.7181 34.2834 42.7502 34.4759 42.7502C34.6743 42.7502 34.8362 42.7196 34.9616 42.6583C35.087 42.5942 35.1803 42.511 35.2416 42.4089C35.3028 42.3039 35.3335 42.1931 35.3335 42.0764C35.3335 41.9189 35.3028 41.792 35.2416 41.6958C35.1803 41.5995 35.087 41.5295 34.9616 41.4858C34.8362 41.4391 34.6786 41.4158 34.4891 41.4158H33.754V40.8908ZM40.1024 42.1814L41.5112 38.725H42.4256L40.4612 43.459H39.7436L37.7836 38.725H38.698L40.1024 42.1814ZM38.4267 38.725V43.459H37.3723V38.725H38.4267ZM41.7781 43.459V38.725H42.8369V43.459H41.7781ZM46.1052 43.5465C45.7551 43.5465 45.4387 43.4896 45.1557 43.3759C44.8757 43.2592 44.6365 43.0973 44.4382 42.8902C44.2428 42.6831 44.0926 42.4396 43.9876 42.1596C43.8826 41.8795 43.8301 41.5777 43.8301 41.2539V41.0789C43.8301 40.7085 43.884 40.373 43.9919 40.0726C44.0999 39.7722 44.2501 39.5155 44.4426 39.3026C44.6351 39.0867 44.8626 38.9219 45.1251 38.8082C45.3876 38.6944 45.672 38.6375 45.9783 38.6375C46.3166 38.6375 46.6127 38.6944 46.8664 38.8082C47.1202 38.9219 47.3302 39.0824 47.4965 39.2894C47.6656 39.4936 47.7911 39.7372 47.8727 40.0201C47.9573 40.303 47.9996 40.6151 47.9996 40.9564V41.407H44.342V40.6501H46.9583V40.567C46.9525 40.3774 46.9146 40.1995 46.8446 40.0332C46.7775 39.867 46.6739 39.7328 46.5339 39.6307C46.3939 39.5286 46.2072 39.4776 45.9739 39.4776C45.7989 39.4776 45.6428 39.5155 45.5058 39.5913C45.3716 39.6642 45.2593 39.7707 45.1689 39.9107C45.0784 40.0507 45.0084 40.2199 44.9589 40.4182C44.9122 40.6137 44.8889 40.8339 44.8889 41.0789V41.2539C44.8889 41.461 44.9166 41.6535 44.972 41.8314C45.0303 42.0064 45.1149 42.1596 45.2257 42.2908C45.3366 42.4221 45.4707 42.5256 45.6283 42.6014C45.7858 42.6744 45.9651 42.7108 46.1664 42.7108C46.4202 42.7108 46.6462 42.6598 46.8446 42.5577C47.0429 42.4556 47.215 42.3112 47.3608 42.1246L47.9165 42.6627C47.8144 42.8115 47.6817 42.9544 47.5183 43.0915C47.355 43.2256 47.1552 43.335 46.9189 43.4196C46.6856 43.5042 46.4143 43.5465 46.1052 43.5465ZM52.0554 40.7026V41.5339H49.6053V40.7026H52.0554ZM49.9116 38.725V43.459H48.8571V38.725H49.9116ZM52.8167 38.725V43.459H51.7623V38.725H52.8167ZM56.028 43.5465C55.678 43.5465 55.3616 43.4896 55.0786 43.3759C54.7986 43.2592 54.5594 43.0973 54.3611 42.8902C54.1657 42.6831 54.0155 42.4396 53.9105 42.1596C53.8055 41.8795 53.753 41.5777 53.753 41.2539V41.0789C53.753 40.7085 53.8069 40.373 53.9148 40.0726C54.0228 39.7722 54.173 39.5155 54.3655 39.3026C54.558 39.0867 54.7855 38.9219 55.048 38.8082C55.3105 38.6944 55.5949 38.6375 55.9012 38.6375C56.2395 38.6375 56.5356 38.6944 56.7893 38.8082C57.0431 38.9219 57.2531 39.0824 57.4194 39.2894C57.5885 39.4936 57.7139 39.7372 57.7956 40.0201C57.8802 40.303 57.9225 40.6151 57.9225 40.9564V41.407H54.2649V40.6501H56.8812V40.567C56.8754 40.3774 56.8375 40.1995 56.7675 40.0332C56.7004 39.867 56.5968 39.7328 56.4568 39.6307C56.3168 39.5286 56.1301 39.4776 55.8968 39.4776C55.7218 39.4776 55.5657 39.5155 55.4286 39.5913C55.2945 39.6642 55.1822 39.7707 55.0918 39.9107C55.0013 40.0507 54.9313 40.2199 54.8818 40.4182C54.8351 40.6137 54.8117 40.8339 54.8117 41.0789V41.2539C54.8117 41.461 54.8395 41.6535 54.8949 41.8314C54.9532 42.0064 55.0378 42.1596 55.1486 42.2908C55.2595 42.4221 55.3936 42.5256 55.5512 42.6014C55.7087 42.6744 55.888 42.7108 56.0893 42.7108C56.3431 42.7108 56.5691 42.6598 56.7675 42.5577C56.9658 42.4556 57.1379 42.3112 57.2837 42.1246L57.8394 42.6627C57.7373 42.8115 57.6046 42.9544 57.4412 43.0915C57.2779 43.2256 57.0781 43.335 56.8418 43.4196C56.6085 43.5042 56.3372 43.5465 56.028 43.5465ZM61.9783 40.7026V41.5339H59.5282V40.7026H61.9783ZM59.8345 38.725V43.459H58.78V38.725H59.8345ZM62.7396 38.725V43.459H61.6852V38.725H62.7396ZM64.9534 41.9189L66.8129 38.725H67.8673V43.459H66.8129V40.2607L64.9534 43.459H63.899V38.725H64.9534V41.9189ZM71.0699 43.5465C70.7199 43.5465 70.4034 43.4896 70.1205 43.3759C69.8405 43.2592 69.6013 43.0973 69.403 42.8902C69.2075 42.6831 69.0573 42.4396 68.9523 42.1596C68.8473 41.8795 68.7948 41.5777 68.7948 41.2539V41.0789C68.7948 40.7085 68.8488 40.373 68.9567 40.0726C69.0646 39.7722 69.2148 39.5155 69.4073 39.3026C69.5998 39.0867 69.8274 38.9219 70.0899 38.8082C70.3524 38.6944 70.6368 38.6375 70.943 38.6375C71.2814 38.6375 71.5774 38.6944 71.8312 38.8082C72.0849 38.9219 72.295 39.0824 72.4612 39.2894C72.6304 39.4936 72.7558 39.7372 72.8375 40.0201C72.9221 40.303 72.9644 40.6151 72.9644 40.9564V41.407H69.3067V40.6501H71.9231V40.567C71.9172 40.3774 71.8793 40.1995 71.8093 40.0332C71.7422 39.867 71.6387 39.7328 71.4987 39.6307C71.3587 39.5286 71.172 39.4776 70.9386 39.4776C70.7636 39.4776 70.6076 39.5155 70.4705 39.5913C70.3363 39.6642 70.224 39.7707 70.1336 39.9107C70.0432 40.0507 69.9732 40.2199 69.9236 40.4182C69.8769 40.6137 69.8536 40.8339 69.8536 41.0789V41.2539C69.8536 41.461 69.8813 41.6535 69.9367 41.8314C69.9951 42.0064 70.0797 42.1596 70.1905 42.2908C70.3013 42.4221 70.4355 42.5256 70.593 42.6014C70.7505 42.6744 70.9299 42.7108 71.1312 42.7108C71.3849 42.7108 71.611 42.6598 71.8093 42.5577C72.0076 42.4556 72.1797 42.3112 72.3256 42.1246L72.8812 42.6627C72.7791 42.8115 72.6464 42.9544 72.4831 43.0915C72.3197 43.2256 72.1199 43.335 71.8837 43.4196C71.6503 43.5042 71.3791 43.5465 71.0699 43.5465ZM79.1946 38.725V39.5651H76.8583V38.725H79.1946ZM77.1076 38.725V43.459H76.0532V38.725H77.1076ZM80.0215 38.725V43.459H78.9627V38.725H80.0215ZM80.9359 41.1445V41.0439C80.9359 40.7026 80.9855 40.3862 81.0847 40.0945C81.1838 39.7999 81.3268 39.5447 81.5134 39.3288C81.703 39.1101 81.9335 38.9409 82.2047 38.8213C82.4789 38.6988 82.7881 38.6375 83.1323 38.6375C83.4794 38.6375 83.7885 38.6988 84.0598 38.8213C84.334 38.9409 84.5659 39.1101 84.7554 39.3288C84.945 39.5447 85.0894 39.7999 85.1886 40.0945C85.2878 40.3862 85.3373 40.7026 85.3373 41.0439V41.1445C85.3373 41.4858 85.2878 41.8023 85.1886 42.0939C85.0894 42.3856 84.945 42.6408 84.7554 42.8596C84.5659 43.0754 84.3354 43.2446 84.0642 43.3671C83.7929 43.4867 83.4852 43.5465 83.141 43.5465C82.7939 43.5465 82.4833 43.4867 82.2091 43.3671C81.9378 43.2446 81.7074 43.0754 81.5178 42.8596C81.3282 42.6408 81.1838 42.3856 81.0847 42.0939C80.9855 41.8023 80.9359 41.4858 80.9359 41.1445ZM81.9903 41.0439V41.1445C81.9903 41.3574 82.0122 41.5587 82.056 41.7483C82.0997 41.9379 82.1683 42.1041 82.2616 42.2471C82.3549 42.39 82.4745 42.5023 82.6204 42.5839C82.7662 42.6656 82.9398 42.7065 83.141 42.7065C83.3364 42.7065 83.5056 42.6656 83.6485 42.5839C83.7944 42.5023 83.914 42.39 84.0073 42.2471C84.1006 42.1041 84.1692 41.9379 84.2129 41.7483C84.2596 41.5587 84.2829 41.3574 84.2829 41.1445V41.0439C84.2829 40.8339 84.2596 40.6355 84.2129 40.4489C84.1692 40.2593 84.0992 40.0916 84.0029 39.9457C83.9096 39.7999 83.79 39.6861 83.6442 39.6045C83.5012 39.5199 83.3306 39.4776 83.1323 39.4776C82.9339 39.4776 82.7618 39.5199 82.616 39.6045C82.4731 39.6861 82.3549 39.7999 82.2616 39.9457C82.1683 40.0916 82.0997 40.2593 82.056 40.4489C82.0122 40.6355 81.9903 40.8339 81.9903 41.0439ZM88.1812 41.197H87.2712V40.6632H88.0062C88.1929 40.6632 88.3416 40.6385 88.4525 40.5889C88.5662 40.5393 88.6464 40.4707 88.6931 40.3832C88.7427 40.2928 88.7675 40.1878 88.7675 40.0682C88.7675 39.9632 88.7427 39.864 88.6931 39.7707C88.6464 39.6745 88.5662 39.5957 88.4525 39.5345C88.3387 39.4732 88.1841 39.4426 87.9887 39.4426C87.8283 39.4426 87.6839 39.4688 87.5556 39.5213C87.4301 39.5738 87.331 39.6467 87.2581 39.7401C87.1851 39.8334 87.1487 39.9413 87.1487 40.0638H86.0943C86.0943 39.7693 86.1774 39.5155 86.3436 39.3026C86.5128 39.0896 86.7389 38.9263 87.0218 38.8125C87.3047 38.6988 87.6154 38.6419 87.9537 38.6419C88.2425 38.6419 88.5021 38.6725 88.7325 38.7338C88.9629 38.7921 89.1583 38.8796 89.3188 38.9963C89.4821 39.1101 89.6061 39.253 89.6906 39.4251C89.7782 39.5942 89.8219 39.7911 89.8219 40.0157C89.8219 40.1761 89.784 40.3278 89.7081 40.4707C89.6323 40.6137 89.5229 40.7405 89.38 40.8514C89.2371 40.9593 89.0635 41.0439 88.8594 41.1051C88.6581 41.1664 88.4321 41.197 88.1812 41.197ZM87.2712 40.8908H88.1812C88.4612 40.8908 88.7092 40.9185 88.925 40.9739C89.1408 41.0264 89.3217 41.1051 89.4675 41.2101C89.6134 41.3151 89.7227 41.4449 89.7957 41.5995C89.8715 41.7512 89.9094 41.9262 89.9094 42.1246C89.9094 42.3462 89.8613 42.546 89.765 42.724C89.6717 42.899 89.5375 43.0477 89.3625 43.1702C89.1904 43.2927 88.9848 43.3861 88.7456 43.4502C88.5064 43.5144 88.2425 43.5465 87.9537 43.5465C87.6387 43.5465 87.3324 43.494 87.0349 43.389C86.7403 43.284 86.4968 43.1221 86.3043 42.9033C86.1147 42.6817 86.0199 42.4002 86.0199 42.0589H87.0743C87.0743 42.1785 87.1108 42.2908 87.1837 42.3958C87.2566 42.5008 87.3616 42.5869 87.4987 42.654C87.6358 42.7181 87.8006 42.7502 87.9931 42.7502C88.1914 42.7502 88.3533 42.7196 88.4787 42.6583C88.6041 42.5942 88.6975 42.511 88.7587 42.4089C88.82 42.3039 88.8506 42.1931 88.8506 42.0764C88.8506 41.9189 88.82 41.792 88.7587 41.6958C88.6975 41.5995 88.6041 41.5295 88.4787 41.4858C88.3533 41.4391 88.1958 41.4158 88.0062 41.4158H87.2712V40.8908ZM91.8957 41.9189L93.7552 38.725H94.8096V43.459H93.7552V40.2607L91.8957 43.459H90.8413V38.725H91.8957V41.9189ZM95.9603 43.459V38.725H97.0147V42.619H98.8698V38.725H99.9286V43.459H95.9603ZM100.572 42.6233L100.489 44.8634H99.5217V43.459H98.9529V42.6233H100.572ZM102.405 41.9189L104.264 38.725H105.319V43.459H104.264V40.2607L102.405 43.459H101.35V38.725H102.405V41.9189ZM107.524 41.9189L109.383 38.725H110.438V43.459H109.383V40.2607L107.524 43.459H106.469V38.725H107.524V41.9189ZM109.103 36.905H109.886C109.886 37.1471 109.828 37.3614 109.711 37.5481C109.598 37.7319 109.434 37.8763 109.221 37.9813C109.011 38.0863 108.761 38.1388 108.469 38.1388C108.028 38.1388 107.68 38.025 107.423 37.7975C107.169 37.5671 107.043 37.2696 107.043 36.905H107.826C107.826 37.0683 107.874 37.2127 107.97 37.3381C108.069 37.4606 108.236 37.5219 108.469 37.5219C108.699 37.5219 108.863 37.4606 108.959 37.3381C109.055 37.2127 109.103 37.0683 109.103 36.905ZM115.719 42.7065C115.891 42.7065 116.045 42.6729 116.182 42.6058C116.322 42.5358 116.435 42.4396 116.519 42.3171C116.607 42.1946 116.655 42.0531 116.664 41.8927H117.657C117.651 42.1989 117.561 42.4775 117.386 42.7283C117.211 42.9792 116.979 43.179 116.69 43.3277C116.401 43.4736 116.082 43.5465 115.732 43.5465C115.37 43.5465 115.055 43.4852 114.787 43.3627C114.518 43.2373 114.295 43.0652 114.117 42.8465C113.939 42.6277 113.805 42.3754 113.715 42.0896C113.627 41.8037 113.583 41.4974 113.583 41.1708V41.0176C113.583 40.691 113.627 40.3847 113.715 40.0988C113.805 39.8101 113.939 39.5563 114.117 39.3376C114.295 39.1188 114.518 38.9482 114.787 38.8257C115.055 38.7003 115.369 38.6375 115.727 38.6375C116.106 38.6375 116.439 38.7134 116.725 38.8651C117.011 39.0138 117.235 39.2224 117.399 39.4907C117.565 39.7561 117.651 40.0653 117.657 40.4182H116.664C116.655 40.2432 116.611 40.0857 116.532 39.9457C116.457 39.8028 116.349 39.689 116.209 39.6045C116.071 39.5199 115.907 39.4776 115.714 39.4776C115.501 39.4776 115.325 39.5213 115.185 39.6088C115.045 39.6934 114.935 39.8101 114.857 39.9588C114.778 40.1047 114.721 40.2695 114.686 40.4532C114.654 40.6341 114.638 40.8222 114.638 41.0176V41.1708C114.638 41.3662 114.654 41.5558 114.686 41.7395C114.718 41.9233 114.774 42.0881 114.852 42.2339C114.934 42.3769 115.045 42.4921 115.185 42.5796C115.325 42.6642 115.503 42.7065 115.719 42.7065ZM121.135 42.5096V40.252C121.135 40.0828 121.104 39.937 121.043 39.8145C120.982 39.692 120.889 39.5972 120.763 39.5301C120.641 39.463 120.486 39.4294 120.299 39.4294C120.127 39.4294 119.979 39.4586 119.853 39.517C119.728 39.5753 119.63 39.654 119.56 39.7532C119.49 39.8524 119.455 39.9647 119.455 40.0901H118.405C118.405 39.9034 118.45 39.7226 118.541 39.5476C118.631 39.3726 118.762 39.2165 118.934 39.0794C119.106 38.9423 119.312 38.8344 119.551 38.7557C119.79 38.6769 120.059 38.6375 120.356 38.6375C120.712 38.6375 121.027 38.6973 121.301 38.8169C121.578 38.9365 121.796 39.1174 121.953 39.3594C122.114 39.5986 122.194 39.899 122.194 40.2607V42.3652C122.194 42.581 122.208 42.775 122.238 42.9471C122.27 43.1163 122.315 43.2636 122.373 43.389V43.459H121.293C121.243 43.3452 121.204 43.2008 121.174 43.0258C121.148 42.8479 121.135 42.6758 121.135 42.5096ZM121.288 40.5801L121.297 41.232H120.54C120.345 41.232 120.173 41.251 120.024 41.2889C119.875 41.3239 119.751 41.3764 119.652 41.4464C119.553 41.5164 119.478 41.601 119.429 41.7002C119.379 41.7993 119.354 41.9116 119.354 42.0371C119.354 42.1625 119.384 42.2777 119.442 42.3827C119.5 42.4848 119.585 42.565 119.696 42.6233C119.809 42.6817 119.946 42.7108 120.107 42.7108C120.323 42.7108 120.511 42.6671 120.671 42.5796C120.835 42.4892 120.963 42.3798 121.056 42.2514C121.15 42.1202 121.199 41.9962 121.205 41.8795L121.546 42.3477C121.511 42.4673 121.452 42.5956 121.367 42.7327C121.282 42.8698 121.171 43.001 121.034 43.1265C120.9 43.249 120.738 43.3496 120.549 43.4284C120.362 43.5071 120.146 43.5465 119.901 43.5465C119.592 43.5465 119.316 43.4852 119.074 43.3627C118.832 43.2373 118.643 43.0696 118.506 42.8596C118.368 42.6467 118.3 42.406 118.3 42.1377C118.3 41.8868 118.347 41.6652 118.44 41.4727C118.536 41.2772 118.676 41.1139 118.86 40.9826C119.047 40.8514 119.274 40.7522 119.542 40.6851C119.811 40.6151 120.117 40.5801 120.461 40.5801H121.288ZM124.386 41.9189L126.245 38.725H127.3V43.459H126.245V40.2607L124.386 43.459H123.331V38.725H124.386V41.9189ZM125.965 36.905H126.748C126.748 37.1471 126.69 37.3614 126.573 37.5481C126.46 37.7319 126.296 37.8763 126.083 37.9813C125.873 38.0863 125.623 38.1388 125.331 38.1388C124.89 38.1388 124.542 38.025 124.285 37.7975C124.031 37.5671 123.905 37.2696 123.905 36.905H124.688C124.688 37.0683 124.736 37.2127 124.832 37.3381C124.931 37.4606 125.097 37.5219 125.331 37.5219C125.561 37.5219 125.725 37.4606 125.821 37.3381C125.917 37.2127 125.965 37.0683 125.965 36.905ZM130.612 38.725V43.459H129.553V38.725H130.612ZM132.165 38.725V39.5563H128.026V38.725H132.165ZM135.468 42.5096V40.252C135.468 40.0828 135.437 39.937 135.376 39.8145C135.315 39.692 135.222 39.5972 135.096 39.5301C134.974 39.463 134.819 39.4294 134.632 39.4294C134.46 39.4294 134.312 39.4586 134.186 39.517C134.061 39.5753 133.963 39.654 133.893 39.7532C133.823 39.8524 133.788 39.9647 133.788 40.0901H132.738C132.738 39.9034 132.783 39.7226 132.874 39.5476C132.964 39.3726 133.095 39.2165 133.267 39.0794C133.439 38.9423 133.645 38.8344 133.884 38.7557C134.123 38.6769 134.392 38.6375 134.689 38.6375C135.045 38.6375 135.36 38.6973 135.634 38.8169C135.911 38.9365 136.129 39.1174 136.286 39.3594C136.447 39.5986 136.527 39.899 136.527 40.2607V42.3652C136.527 42.581 136.541 42.775 136.571 42.9471C136.603 43.1163 136.648 43.2636 136.706 43.389V43.459H135.626C135.576 43.3452 135.537 43.2008 135.507 43.0258C135.481 42.8479 135.468 42.6758 135.468 42.5096ZM135.621 40.5801L135.63 41.232H134.873C134.678 41.232 134.506 41.251 134.357 41.2889C134.208 41.3239 134.084 41.3764 133.985 41.4464C133.886 41.5164 133.811 41.601 133.762 41.7002C133.712 41.7993 133.687 41.9116 133.687 42.0371C133.687 42.1625 133.717 42.2777 133.775 42.3827C133.833 42.4848 133.918 42.565 134.029 42.6233C134.142 42.6817 134.28 42.7108 134.44 42.7108C134.656 42.7108 134.844 42.6671 135.004 42.5796C135.168 42.4892 135.296 42.3798 135.389 42.2514C135.483 42.1202 135.532 41.9962 135.538 41.8795L135.879 42.3477C135.844 42.4673 135.785 42.5956 135.7 42.7327C135.615 42.8698 135.505 43.001 135.367 43.1265C135.233 43.249 135.071 43.3496 134.882 43.4284C134.695 43.5071 134.479 43.5465 134.234 43.5465C133.925 43.5465 133.649 43.4852 133.407 43.3627C133.165 43.2373 132.976 43.0696 132.839 42.8596C132.702 42.6467 132.633 42.406 132.633 42.1377C132.633 41.8868 132.68 41.6652 132.773 41.4727C132.869 41.2772 133.009 41.1139 133.193 40.9826C133.38 40.8514 133.607 40.7522 133.876 40.6851C134.144 40.6151 134.45 40.5801 134.794 40.5801H135.621Z" fill="#333333"/>
<rect x="26" y="57" width="329" height="25" rx="5.12021" fill="#F8F8F8"/>
<rect x="26.32" y="57.32" width="328.36" height="24.36" rx="4.80019" stroke="#C0C0C0" stroke-opacity="0.3" stroke-width="0.640026"/>
<path d="M35.272 70.1211L37.7002 65.9559H39.1221V72.3262H37.7002V68.1654L35.272 72.3262H33.85V65.9559H35.272V70.1211ZM42.6135 67.5922V72.3262H41.2397V67.5922H42.6135ZM44.1229 67.5922V68.6466H39.7565V67.5922H44.1229ZM44.3854 70.0073V69.9155C44.3854 69.5684 44.435 69.249 44.5342 68.9573C44.6334 68.6627 44.7792 68.4075 44.9717 68.1916C45.1642 67.9758 45.4005 67.8081 45.6805 67.6885C45.9605 67.566 46.2814 67.5047 46.643 67.5047C47.0105 67.5047 47.3343 67.566 47.6143 67.6885C47.8972 67.8081 48.135 67.9758 48.3275 68.1916C48.52 68.4075 48.6658 68.6627 48.765 68.9573C48.8642 69.249 48.9137 69.5684 48.9137 69.9155V70.0073C48.9137 70.3515 48.8642 70.6709 48.765 70.9655C48.6658 71.2572 48.52 71.5124 48.3275 71.7311C48.135 71.947 47.8987 72.1147 47.6187 72.2343C47.3387 72.3539 47.0164 72.4137 46.6518 72.4137C46.2901 72.4137 45.9678 72.3539 45.6849 72.2343C45.4019 72.1147 45.1642 71.947 44.9717 71.7311C44.7792 71.5124 44.6334 71.2572 44.5342 70.9655C44.435 70.6709 44.3854 70.3515 44.3854 70.0073ZM45.7549 69.9155V70.0073C45.7549 70.194 45.7695 70.369 45.7986 70.5323C45.8307 70.6957 45.8818 70.8386 45.9518 70.9611C46.0218 71.0836 46.1136 71.1799 46.2274 71.2499C46.3441 71.317 46.4855 71.3505 46.6518 71.3505C46.818 71.3505 46.958 71.317 47.0718 71.2499C47.1856 71.1799 47.2774 71.0836 47.3474 70.9611C47.4174 70.8386 47.467 70.6957 47.4962 70.5323C47.5283 70.369 47.5443 70.194 47.5443 70.0073V69.9155C47.5443 69.7317 47.5283 69.5596 47.4962 69.3992C47.467 69.2358 47.4174 69.0915 47.3474 68.966C47.2774 68.8406 47.1841 68.7429 47.0674 68.6729C46.9537 68.6029 46.8122 68.5679 46.643 68.5679C46.4797 68.5679 46.3411 68.6029 46.2274 68.6729C46.1136 68.7429 46.0218 68.8406 45.9518 68.966C45.8818 69.0915 45.8307 69.2358 45.7986 69.3992C45.7695 69.5596 45.7549 69.7317 45.7549 69.9155ZM52.8952 67.5922V68.6554H50.9788V72.3262H49.6138V67.5922H52.8952ZM53.1008 70.0073V69.9155C53.1008 69.5684 53.1504 69.249 53.2495 68.9573C53.3487 68.6627 53.4946 68.4075 53.6871 68.1916C53.8796 67.9758 54.1158 67.8081 54.3958 67.6885C54.6759 67.566 54.9967 67.5047 55.3584 67.5047C55.7259 67.5047 56.0497 67.566 56.3297 67.6885C56.6126 67.8081 56.8503 67.9758 57.0428 68.1916C57.2353 68.4075 57.3812 68.6627 57.4803 68.9573C57.5795 69.249 57.6291 69.5684 57.6291 69.9155V70.0073C57.6291 70.3515 57.5795 70.6709 57.4803 70.9655C57.3812 71.2572 57.2353 71.5124 57.0428 71.7311C56.8503 71.947 56.6141 72.1147 56.334 72.2343C56.054 72.3539 55.7317 72.4137 55.3671 72.4137C55.0055 72.4137 54.6831 72.3539 54.4002 72.2343C54.1173 72.1147 53.8796 71.947 53.6871 71.7311C53.4946 71.5124 53.3487 71.2572 53.2495 70.9655C53.1504 70.6709 53.1008 70.3515 53.1008 70.0073ZM54.4702 69.9155V70.0073C54.4702 70.194 54.4848 70.369 54.514 70.5323C54.5461 70.6957 54.5971 70.8386 54.6671 70.9611C54.7371 71.0836 54.829 71.1799 54.9427 71.2499C55.0594 71.317 55.2009 71.3505 55.3671 71.3505C55.5334 71.3505 55.6734 71.317 55.7871 71.2499C55.9009 71.1799 55.9928 71.0836 56.0628 70.9611C56.1328 70.8386 56.1824 70.6957 56.2115 70.5323C56.2436 70.369 56.2597 70.194 56.2597 70.0073V69.9155C56.2597 69.7317 56.2436 69.5596 56.2115 69.3992C56.1824 69.2358 56.1328 69.0915 56.0628 68.966C55.9928 68.8406 55.8994 68.7429 55.7828 68.6729C55.669 68.6029 55.5276 68.5679 55.3584 68.5679C55.195 68.5679 55.0565 68.6029 54.9427 68.6729C54.829 68.7429 54.7371 68.8406 54.6671 68.966C54.5971 69.0915 54.5461 69.2358 54.514 69.3992C54.4848 69.5596 54.4702 69.7317 54.4702 69.9155ZM61.9299 70.4536L63.3781 67.5922H64.7431V72.3262H63.3781V69.4561L61.9299 72.3262H60.5605V67.5922H61.9299V70.4536ZM69.8358 71.3505C69.9817 71.3505 70.1086 71.3228 70.2165 71.2674C70.3244 71.212 70.4075 71.1347 70.4659 71.0355C70.5271 70.9334 70.5577 70.8109 70.5577 70.668H71.844C71.844 71.0122 71.7551 71.3155 71.5772 71.578C71.4022 71.8405 71.1659 72.0462 70.8684 72.1949C70.5709 72.3408 70.2354 72.4137 69.8621 72.4137C69.4946 72.4137 69.1737 72.3539 68.8996 72.2343C68.6254 72.1118 68.3964 71.9412 68.2126 71.7224C68.0289 71.5036 67.8903 71.2499 67.797 70.9611C67.7066 70.6694 67.6614 70.3544 67.6614 70.0161V69.9023C67.6614 69.5669 67.7066 69.2533 67.797 68.9617C67.8903 68.67 68.0289 68.4148 68.2126 68.196C68.3964 67.9772 68.6239 67.8081 68.8952 67.6885C69.1694 67.566 69.4902 67.5047 69.8577 67.5047C70.2456 67.5047 70.5884 67.5791 70.8859 67.7279C71.1863 67.8766 71.4211 68.091 71.5903 68.371C71.7595 68.6481 71.844 68.9821 71.844 69.3729H70.5577C70.5577 69.2213 70.53 69.0856 70.4746 68.966C70.4221 68.8435 70.3404 68.7473 70.2296 68.6773C70.1217 68.6044 69.9875 68.5679 69.8271 68.5679C69.6608 68.5679 69.5237 68.6044 69.4158 68.6773C69.3108 68.7473 69.2306 68.845 69.1752 68.9704C69.1198 69.0958 69.0818 69.2388 69.0614 69.3992C69.041 69.5567 69.0308 69.7244 69.0308 69.9023V70.0161C69.0308 70.1969 69.041 70.369 69.0614 70.5323C69.0818 70.6928 69.1198 70.8342 69.1752 70.9567C69.2335 71.0792 69.3152 71.1755 69.4202 71.2455C69.5252 71.3155 69.6637 71.3505 69.8358 71.3505ZM73.8916 68.5023V74.1462H72.5266V67.5922H73.7997L73.8916 68.5023ZM76.8449 69.9067V69.9986C76.8449 70.3428 76.8055 70.6621 76.7267 70.9567C76.648 71.2484 76.5299 71.5036 76.3723 71.7224C76.2178 71.9412 76.0267 72.1118 75.7992 72.2343C75.5717 72.3539 75.3077 72.4137 75.0073 72.4137C74.7214 72.4137 74.4735 72.3539 74.2635 72.2343C74.0564 72.1118 73.8814 71.9426 73.7385 71.7268C73.5985 71.508 73.4847 71.2586 73.3972 70.9786C73.3126 70.6957 73.247 70.3938 73.2003 70.073V69.8936C73.247 69.5523 73.3141 69.2358 73.4016 68.9442C73.4891 68.6525 73.6029 68.4002 73.7429 68.1873C73.8829 67.9714 74.0564 67.8037 74.2635 67.6841C74.4706 67.5645 74.7171 67.5047 75.0029 67.5047C75.3004 67.5047 75.5644 67.5616 75.7948 67.6754C76.0253 67.7891 76.2178 67.9525 76.3723 68.1654C76.5299 68.3754 76.648 68.6277 76.7267 68.9223C76.8055 69.2169 76.8449 69.545 76.8449 69.9067ZM75.4754 69.9986V69.9067C75.4754 69.7142 75.4609 69.5377 75.4317 69.3773C75.4025 69.214 75.3559 69.0725 75.2917 68.9529C75.2275 68.8304 75.1429 68.7356 75.0379 68.6685C74.9329 68.6014 74.8046 68.5679 74.6529 68.5679C74.4896 68.5679 74.351 68.5941 74.2373 68.6466C74.1235 68.6992 74.0316 68.7764 73.9616 68.8785C73.8916 68.9777 73.8406 69.1002 73.8085 69.246C73.7793 69.3919 73.7633 69.5581 73.7604 69.7448V70.2261C73.7633 70.4448 73.7939 70.6403 73.8522 70.8124C73.9135 70.9815 74.0083 71.1142 74.1366 71.2105C74.2679 71.3038 74.4429 71.3505 74.6617 71.3505C74.8162 71.3505 74.9446 71.317 75.0467 71.2499C75.1517 71.1799 75.2348 71.0822 75.2961 70.9567C75.3602 70.8313 75.4054 70.6869 75.4317 70.5236C75.4609 70.3603 75.4754 70.1853 75.4754 69.9986ZM79.8025 72.4137C79.4262 72.4137 79.0893 72.3539 78.7918 72.2343C78.4943 72.1147 78.242 71.9499 78.0349 71.7399C77.8307 71.527 77.6747 71.282 77.5668 71.0049C77.4589 70.7278 77.4049 70.4317 77.4049 70.1167V69.9505C77.4049 69.5975 77.4545 69.2723 77.5536 68.9748C77.6528 68.6773 77.7972 68.4191 77.9868 68.2004C78.1793 67.9787 78.4156 67.8081 78.6956 67.6885C78.9756 67.566 79.295 67.5047 79.6537 67.5047C79.9892 67.5047 80.2881 67.5601 80.5506 67.671C80.8132 67.7789 81.0348 67.935 81.2157 68.1391C81.3965 68.3404 81.5336 68.5839 81.6269 68.8698C81.7232 69.1527 81.7713 69.4706 81.7713 69.8236V70.3836H77.9562V69.5042H80.4325V69.3992C80.4325 69.2329 80.4019 69.0871 80.3406 68.9617C80.2823 68.8362 80.1948 68.74 80.0781 68.6729C79.9644 68.6029 79.82 68.5679 79.645 68.5679C79.4787 68.5679 79.3402 68.6029 79.2293 68.6729C79.1185 68.7429 79.0295 68.8421 78.9625 68.9704C78.8983 69.0958 78.8516 69.2431 78.8224 69.4123C78.7933 69.5786 78.7787 69.7579 78.7787 69.9505V70.1167C78.7787 70.3005 78.8035 70.4682 78.8531 70.6199C78.9027 70.7715 78.9756 70.9013 79.0718 71.0092C79.1681 71.1172 79.2848 71.2018 79.4218 71.263C79.5589 71.3243 79.715 71.3549 79.89 71.3549C80.1058 71.3549 80.3115 71.314 80.5069 71.2324C80.7023 71.1478 80.8715 71.0165 81.0144 70.8386L81.6532 71.5693C81.5569 71.7093 81.4213 71.8449 81.2463 71.9762C81.0742 72.1045 80.8671 72.2095 80.625 72.2912C80.3829 72.3728 80.1088 72.4137 79.8025 72.4137ZM83.2939 67.5922H84.6589L84.6327 69.1279C84.621 69.65 84.5598 70.0992 84.4489 70.4755C84.341 70.8488 84.1937 71.1609 84.007 71.4118C83.8233 71.6626 83.6118 71.8609 83.3726 72.0068C83.1364 72.1526 82.887 72.2591 82.6245 72.3262H82.4276L82.4057 71.2805L82.5238 71.263C82.6872 71.0997 82.817 70.9422 82.9132 70.7905C83.0095 70.6359 83.081 70.4784 83.1276 70.318C83.1772 70.1546 83.2107 69.9767 83.2282 69.7842C83.2457 69.5917 83.2574 69.3729 83.2632 69.1279L83.2939 67.5922ZM83.6701 67.5922H86.8771V72.3262H85.5121V68.6685H83.6701V67.5922ZM82.1126 71.263H87.5684V73.7569H86.199V72.3262H83.5126V73.7569H82.1126V71.263ZM91.3355 69.4736V70.528H88.951V69.4736H91.3355ZM89.4279 67.5922V72.3262H88.0628V67.5922H89.4279ZM92.2367 67.5922V72.3262H90.8629V67.5922H92.2367ZM95.3606 72.4137C94.9843 72.4137 94.6475 72.3539 94.3499 72.2343C94.0524 72.1147 93.8001 71.9499 93.593 71.7399C93.3889 71.527 93.2328 71.282 93.1249 71.0049C93.017 70.7278 92.963 70.4317 92.963 70.1167V69.9505C92.963 69.5975 93.0126 69.2723 93.1118 68.9748C93.2109 68.6773 93.3553 68.4191 93.5449 68.2004C93.7374 67.9787 93.9737 67.8081 94.2537 67.6885C94.5337 67.566 94.8531 67.5047 95.2119 67.5047C95.5473 67.5047 95.8463 67.5601 96.1088 67.671C96.3713 67.7789 96.593 67.935 96.7738 68.1391C96.9546 68.3404 97.0917 68.5839 97.1851 68.8698C97.2813 69.1527 97.3294 69.4706 97.3294 69.8236V70.3836H93.5143V69.5042H95.9906V69.3992C95.9906 69.2329 95.96 69.0871 95.8988 68.9617C95.8404 68.8362 95.7529 68.74 95.6362 68.6729C95.5225 68.6029 95.3781 68.5679 95.2031 68.5679C95.0369 68.5679 94.8983 68.6029 94.7875 68.6729C94.6766 68.7429 94.5877 68.8421 94.5206 68.9704C94.4564 69.0958 94.4097 69.2431 94.3806 69.4123C94.3514 69.5786 94.3368 69.7579 94.3368 69.9505V70.1167C94.3368 70.3005 94.3616 70.4682 94.4112 70.6199C94.4608 70.7715 94.5337 70.9013 94.63 71.0092C94.7262 71.1172 94.8429 71.2018 94.98 71.263C95.1171 71.3243 95.2731 71.3549 95.4481 71.3549C95.664 71.3549 95.8696 71.314 96.065 71.2324C96.2604 71.1478 96.4296 71.0165 96.5725 70.8386L97.2113 71.5693C97.1151 71.7093 96.9794 71.8449 96.8044 71.9762C96.6323 72.1045 96.4252 72.2095 96.1831 72.2912C95.9411 72.3728 95.6669 72.4137 95.3606 72.4137ZM100.226 72.4137C99.8495 72.4137 99.5127 72.3539 99.2151 72.2343C98.9176 72.1147 98.6653 71.9499 98.4582 71.7399C98.2541 71.527 98.098 71.282 97.9901 71.0049C97.8822 70.7278 97.8282 70.4317 97.8282 70.1167V69.9505C97.8282 69.5975 97.8778 69.2723 97.977 68.9748C98.0761 68.6773 98.2205 68.4191 98.4101 68.2004C98.6026 67.9787 98.8389 67.8081 99.1189 67.6885C99.3989 67.566 99.7183 67.5047 100.077 67.5047C100.412 67.5047 100.711 67.5601 100.974 67.671C101.236 67.7789 101.458 67.935 101.639 68.1391C101.82 68.3404 101.957 68.5839 102.05 68.8698C102.147 69.1527 102.195 69.4706 102.195 69.8236V70.3836H98.3795V69.5042H100.856V69.3992C100.856 69.2329 100.825 69.0871 100.764 68.9617C100.706 68.8362 100.618 68.74 100.501 68.6729C100.388 68.6029 100.243 68.5679 100.068 68.5679C99.902 68.5679 99.7635 68.6029 99.6527 68.6729C99.5418 68.7429 99.4529 68.8421 99.3858 68.9704C99.3216 69.0958 99.2749 69.2431 99.2458 69.4123C99.2166 69.5786 99.202 69.7579 99.202 69.9505V70.1167C99.202 70.3005 99.2268 70.4682 99.2764 70.6199C99.326 70.7715 99.3989 70.9013 99.4952 71.0092C99.5914 71.1172 99.7081 71.2018 99.8452 71.263C99.9823 71.3243 100.138 71.3549 100.313 71.3549C100.529 71.3549 100.735 71.314 100.93 71.2324C101.126 71.1478 101.295 71.0165 101.438 70.8386L102.077 71.5693C101.98 71.7093 101.845 71.8449 101.67 71.9762C101.498 72.1045 101.29 72.2095 101.048 72.2912C100.806 72.3728 100.532 72.4137 100.226 72.4137ZM102.93 71.6786C102.93 71.4803 103 71.314 103.14 71.1799C103.283 71.0457 103.468 70.9786 103.695 70.9786C103.926 70.9786 104.11 71.0457 104.247 71.1799C104.387 71.314 104.457 71.4803 104.457 71.6786C104.457 71.8741 104.387 72.0389 104.247 72.173C104.11 72.3072 103.926 72.3743 103.695 72.3743C103.468 72.3743 103.283 72.3072 103.14 72.173C103 72.0389 102.93 71.8741 102.93 71.6786ZM102.93 68.126C102.93 67.9277 103 67.7614 103.14 67.6272C103.283 67.4931 103.468 67.426 103.695 67.426C103.926 67.426 104.11 67.4931 104.247 67.6272C104.387 67.7614 104.457 67.9277 104.457 68.126C104.457 68.3214 104.387 68.4862 104.247 68.6204C104.11 68.7546 103.926 68.8217 103.695 68.8217C103.468 68.8217 103.283 68.7546 103.14 68.6204C103 68.4862 102.93 68.3214 102.93 68.126Z" fill="#333333"/>
<path d="M34.9886 90.4434V94.0996H34.2469V89.7619H34.9685L34.9886 90.4434ZM36.3436 89.7378L36.3396 90.4274C36.2781 90.414 36.2193 90.406 36.1632 90.4033C36.1098 90.398 36.0483 90.3953 35.9788 90.3953C35.8077 90.3953 35.6567 90.422 35.5258 90.4755C35.3948 90.5289 35.2839 90.6038 35.193 90.7C35.1022 90.7962 35.03 90.9111 34.9765 91.0448C34.9258 91.1757 34.8924 91.32 34.8763 91.4777L34.6679 91.598C34.6679 91.3361 34.6932 91.0902 34.744 90.8603C34.7975 90.6305 34.879 90.4274 34.9886 90.251C35.0982 90.0719 35.2371 89.9329 35.4055 89.834C35.5766 89.7325 35.7797 89.6817 36.0149 89.6817C36.0683 89.6817 36.1298 89.6884 36.1993 89.7017C36.2688 89.7124 36.3169 89.7245 36.3436 89.7378ZM39.4265 93.3579V91.1249C39.4265 90.9539 39.3918 90.8056 39.3223 90.6799C39.2555 90.5517 39.1539 90.4528 39.0176 90.3833C38.8813 90.3138 38.7129 90.279 38.5125 90.279C38.3254 90.279 38.161 90.3111 38.0194 90.3753C37.8804 90.4394 37.7708 90.5236 37.6906 90.6278C37.6131 90.7321 37.5744 90.8443 37.5744 90.9646H36.8327C36.8327 90.8096 36.8728 90.6559 36.953 90.5035C37.0332 90.3512 37.1481 90.2136 37.2978 90.0906C37.4501 89.965 37.6318 89.8661 37.843 89.794C38.0568 89.7191 38.2947 89.6817 38.5566 89.6817C38.8719 89.6817 39.1499 89.7352 39.3904 89.8421C39.6337 89.949 39.8234 90.1107 39.9597 90.3271C40.0987 90.541 40.1682 90.8096 40.1682 91.133V93.1535C40.1682 93.2978 40.1802 93.4515 40.2043 93.6145C40.231 93.7776 40.2698 93.9179 40.3205 94.0355V94.0996H39.5468C39.5094 94.0141 39.48 93.9005 39.4586 93.7588C39.4372 93.6145 39.4265 93.4809 39.4265 93.3579ZM39.5548 91.4697L39.5628 91.9909H38.8132C38.602 91.9909 38.4136 92.0083 38.2479 92.043C38.0822 92.0751 37.9432 92.1245 37.8309 92.1913C37.7187 92.2581 37.6332 92.3423 37.5744 92.4439C37.5156 92.5428 37.4862 92.659 37.4862 92.7927C37.4862 92.929 37.5169 93.0533 37.5784 93.1655C37.6399 93.2778 37.7321 93.3673 37.855 93.4341C37.9806 93.4983 38.1343 93.5303 38.316 93.5303C38.5432 93.5303 38.7437 93.4822 38.9174 93.386C39.0911 93.2898 39.2288 93.1722 39.3303 93.0332C39.4345 92.8942 39.4907 92.7593 39.4987 92.6283L39.8154 92.9851C39.7967 93.0974 39.7459 93.2216 39.6631 93.3579C39.5802 93.4943 39.4693 93.6252 39.3303 93.7508C39.194 93.8738 39.031 93.9767 38.8412 94.0595C38.6541 94.1397 38.443 94.1798 38.2078 94.1798C37.9138 94.1798 37.6559 94.1223 37.4341 94.0074C37.2149 93.8925 37.0438 93.7388 36.9209 93.5464C36.8006 93.3513 36.7405 93.1334 36.7405 92.8929C36.7405 92.6604 36.7859 92.4559 36.8768 92.2795C36.9677 92.1005 37.0986 91.9521 37.2697 91.8345C37.4407 91.7143 37.6465 91.6234 37.8871 91.5619C38.1276 91.5004 38.3962 91.4697 38.6929 91.4697H39.5548ZM42.0725 90.6238V94.0996H41.3268V89.7619H42.0324L42.0725 90.6238ZM41.9201 91.7664L41.5753 91.7543C41.578 91.4577 41.6168 91.1837 41.6916 90.9325C41.7664 90.6786 41.8774 90.4581 42.0244 90.271C42.1714 90.0839 42.3544 89.9396 42.5736 89.8381C42.7927 89.7338 43.0466 89.6817 43.3353 89.6817C43.5384 89.6817 43.7255 89.7111 43.8966 89.7699C44.0676 89.826 44.2159 89.9156 44.3416 90.0385C44.4672 90.1614 44.5647 90.3191 44.6342 90.5116C44.7037 90.704 44.7384 90.9365 44.7384 91.2091V94.0996H43.9968V91.2452C43.9968 91.018 43.958 90.8363 43.8805 90.7C43.8057 90.5637 43.6988 90.4648 43.5598 90.4033C43.4208 90.3392 43.2578 90.3071 43.0707 90.3071C42.8515 90.3071 42.6685 90.3459 42.5215 90.4234C42.3745 90.5009 42.2569 90.6078 42.1687 90.7441C42.0805 90.8804 42.0163 91.0367 41.9762 91.2131C41.9388 91.3869 41.9201 91.5713 41.9201 91.7664ZM44.7304 91.3575L44.2333 91.5098C44.236 91.2719 44.2747 91.0434 44.3496 90.8243C44.4271 90.6051 44.538 90.41 44.6823 90.2389C44.8293 90.0679 45.0097 89.9329 45.2235 89.834C45.4373 89.7325 45.6819 89.6817 45.9572 89.6817C46.1897 89.6817 46.3955 89.7124 46.5746 89.7739C46.7563 89.8354 46.9086 89.9303 47.0316 90.0585C47.1572 90.1842 47.2521 90.3459 47.3162 90.5436C47.3804 90.7414 47.4124 90.9766 47.4124 91.2492V94.0996H46.6668V91.2412C46.6668 90.998 46.628 90.8096 46.5505 90.6759C46.4757 90.5396 46.3688 90.4447 46.2298 90.3913C46.0935 90.3352 45.9304 90.3071 45.7407 90.3071C45.5777 90.3071 45.4333 90.3352 45.3077 90.3913C45.1821 90.4474 45.0765 90.5249 44.991 90.6238C44.9055 90.72 44.84 90.8309 44.7946 90.9566C44.7518 91.0822 44.7304 91.2158 44.7304 91.3575ZM48.5309 87.9418H49.2766V93.2577L49.2125 94.0996H48.5309V87.9418ZM52.2072 91.8947V91.9789C52.2072 92.2942 52.1698 92.5869 52.0949 92.8568C52.0201 93.1241 51.9105 93.3566 51.7662 93.5544C51.6219 93.7522 51.4455 93.9058 51.237 94.0154C51.0286 94.125 50.7893 94.1798 50.5194 94.1798C50.2441 94.1798 50.0022 94.133 49.7938 94.0395C49.588 93.9433 49.4143 93.8056 49.2726 93.6265C49.131 93.4475 49.0174 93.231 48.9318 92.9771C48.849 92.7232 48.7915 92.4372 48.7595 92.1192V91.7503C48.7915 91.4296 48.849 91.1423 48.9318 90.8884C49.0174 90.6345 49.131 90.418 49.2726 90.2389C49.4143 90.0572 49.588 89.9196 49.7938 89.826C49.9996 89.7298 50.2388 89.6817 50.5114 89.6817C50.784 89.6817 51.0259 89.7352 51.237 89.8421C51.4482 89.9463 51.6246 90.096 51.7662 90.2911C51.9105 90.4862 52.0201 90.72 52.0949 90.9926C52.1698 91.2626 52.2072 91.5633 52.2072 91.8947ZM51.4615 91.9789V91.8947C51.4615 91.6782 51.4415 91.4751 51.4014 91.2853C51.3613 91.0929 51.2972 90.9245 51.209 90.7802C51.1208 90.6332 51.0045 90.5182 50.8602 90.4354C50.7159 90.3499 50.5381 90.3071 50.327 90.3071C50.1399 90.3071 49.9769 90.3392 49.8379 90.4033C49.7016 90.4675 49.5853 90.5543 49.4891 90.6639C49.3929 90.7708 49.314 90.8938 49.2526 91.0327C49.1938 91.169 49.1497 91.3107 49.1203 91.4577V92.4239C49.163 92.6109 49.2325 92.7913 49.3287 92.9651C49.4276 93.1361 49.5586 93.2764 49.7216 93.386C49.8873 93.4956 50.0918 93.5504 50.335 93.5504C50.5354 93.5504 50.7065 93.5103 50.8481 93.4301C50.9925 93.3473 51.1087 93.2337 51.1969 93.0893C51.2878 92.945 51.3546 92.778 51.3974 92.5882C51.4401 92.3985 51.4615 92.1953 51.4615 91.9789ZM53.9511 87.9418V94.0996H53.2054V87.9418H53.9511ZM56.9418 94.1798C56.6398 94.1798 56.3659 94.129 56.12 94.0274C55.8768 93.9232 55.667 93.7776 55.4906 93.5905C55.3168 93.4034 55.1832 93.1816 55.0897 92.925C54.9961 92.6684 54.9493 92.3878 54.9493 92.0831V91.9147C54.9493 91.5619 55.0015 91.2479 55.1057 90.9726C55.2099 90.6946 55.3516 90.4594 55.5306 90.267C55.7097 90.0746 55.9128 89.9289 56.14 89.83C56.3672 89.7311 56.6024 89.6817 56.8456 89.6817C57.1556 89.6817 57.4229 89.7352 57.6474 89.8421C57.8746 89.949 58.0603 90.0986 58.2046 90.2911C58.349 90.4808 58.4559 90.7053 58.5254 90.9646C58.5949 91.2212 58.6296 91.5018 58.6296 91.8065V92.1392H55.3903V91.5339H57.8879V91.4777C57.8772 91.2853 57.8372 91.0982 57.7677 90.9165C57.7009 90.7347 57.5939 90.5851 57.4469 90.4675C57.3 90.3499 57.0995 90.2911 56.8456 90.2911C56.6772 90.2911 56.5222 90.3271 56.3806 90.3993C56.2389 90.4688 56.1173 90.573 56.0157 90.712C55.9142 90.851 55.8353 91.0207 55.7792 91.2212C55.7231 91.4216 55.695 91.6528 55.695 91.9147V92.0831C55.695 92.2889 55.7231 92.4826 55.7792 92.6644C55.838 92.8435 55.9222 93.0011 56.0318 93.1375C56.144 93.2738 56.279 93.3807 56.4367 93.4582C56.597 93.5357 56.7788 93.5744 56.9819 93.5744C57.2438 93.5744 57.4657 93.521 57.6474 93.4141C57.8291 93.3072 57.9882 93.1642 58.1245 92.9851L58.5735 93.3419C58.4799 93.4836 58.361 93.6185 58.2167 93.7468C58.0724 93.8751 57.8946 93.9793 57.6835 94.0595C57.475 94.1397 57.2278 94.1798 56.9418 94.1798ZM60.2372 90.4434V94.0996H59.4955V89.7619H60.2172L60.2372 90.4434ZM61.5922 89.7378L61.5882 90.4274C61.5268 90.414 61.468 90.406 61.4118 90.4033C61.3584 90.398 61.2969 90.3953 61.2274 90.3953C61.0564 90.3953 60.9054 90.422 60.7744 90.4755C60.6435 90.5289 60.5325 90.6038 60.4417 90.7C60.3508 90.7962 60.2786 90.9111 60.2252 91.0448C60.1744 91.1757 60.141 91.32 60.125 91.4777L59.9165 91.598C59.9165 91.3361 59.9419 91.0902 59.9927 90.8603C60.0461 90.6305 60.1276 90.4274 60.2372 90.251C60.3468 90.0719 60.4858 89.9329 60.6541 89.834C60.8252 89.7325 61.0283 89.6817 61.2635 89.6817C61.317 89.6817 61.3784 89.6884 61.4479 89.7017C61.5174 89.7124 61.5655 89.7245 61.5922 89.7378ZM61.7927 93.7067C61.7927 93.5811 61.8314 93.4755 61.909 93.39C61.9891 93.3018 62.1041 93.2577 62.2537 93.2577C62.4034 93.2577 62.517 93.3018 62.5945 93.39C62.6747 93.4755 62.7148 93.5811 62.7148 93.7067C62.7148 93.8297 62.6747 93.9339 62.5945 94.0194C62.517 94.105 62.4034 94.1477 62.2537 94.1477C62.1041 94.1477 61.9891 94.105 61.909 94.0194C61.8314 93.9339 61.7927 93.8297 61.7927 93.7067ZM64.6872 90.4434V94.0996H63.9455V89.7619H64.6671L64.6872 90.4434ZM66.0422 89.7378L66.0382 90.4274C65.9767 90.414 65.9179 90.406 65.8618 90.4033C65.8084 90.398 65.7469 90.3953 65.6774 90.3953C65.5064 90.3953 65.3554 90.422 65.2244 90.4755C65.0934 90.5289 64.9825 90.6038 64.8916 90.7C64.8008 90.7962 64.7286 90.9111 64.6752 91.0448C64.6244 91.1757 64.591 91.32 64.5749 91.4777L64.3665 91.598C64.3665 91.3361 64.3919 91.0902 64.4426 90.8603C64.4961 90.6305 64.5776 90.4274 64.6872 90.251C64.7968 90.0719 64.9357 89.9329 65.1041 89.834C65.2752 89.7325 65.4783 89.6817 65.7135 89.6817C65.7669 89.6817 65.8284 89.6884 65.8979 89.7017C65.9674 89.7124 66.0155 89.7245 66.0422 89.7378ZM69.3817 93.0974V89.7619H70.1274V94.0996H69.4178L69.3817 93.0974ZM69.522 92.1833L69.8307 92.1753C69.8307 92.4639 69.8 92.7312 69.7385 92.9771C69.6797 93.2203 69.5835 93.4314 69.4499 93.6105C69.3162 93.7896 69.1412 93.9299 68.9247 94.0315C68.7082 94.1303 68.445 94.1798 68.1349 94.1798C67.9238 94.1798 67.73 94.1491 67.5536 94.0876C67.3799 94.0261 67.2302 93.9312 67.1046 93.8029C66.979 93.6747 66.8814 93.5076 66.812 93.3018C66.7451 93.096 66.7117 92.8488 66.7117 92.5602V89.7619H67.4534V92.5682C67.4534 92.7633 67.4748 92.925 67.5175 93.0533C67.563 93.1789 67.6231 93.2791 67.6979 93.3539C67.7754 93.4261 67.861 93.4769 67.9545 93.5063C68.0507 93.5357 68.1496 93.5504 68.2512 93.5504C68.5666 93.5504 68.8165 93.4902 69.0009 93.37C69.1853 93.247 69.3176 93.0827 69.3978 92.8769C69.4806 92.6684 69.522 92.4372 69.522 92.1833Z" fill="#333333"/>
<path d="M37.0899 113.907V111.47C37.0899 111.284 37.052 111.122 36.9761 110.985C36.9032 110.845 36.7924 110.737 36.6436 110.661C36.4949 110.585 36.3111 110.547 36.0924 110.547C35.8882 110.547 35.7088 110.582 35.5542 110.652C35.4025 110.722 35.283 110.814 35.1955 110.928C35.1109 111.042 35.0686 111.164 35.0686 111.295H34.2592C34.2592 111.126 34.3029 110.959 34.3904 110.792C34.4779 110.626 34.6033 110.476 34.7667 110.342C34.9329 110.205 35.1313 110.097 35.3617 110.018C35.5951 109.936 35.8546 109.895 36.1405 109.895C36.4847 109.895 36.788 109.954 37.0505 110.07C37.316 110.187 37.523 110.363 37.6718 110.6C37.8235 110.833 37.8993 111.126 37.8993 111.479V113.684C37.8993 113.842 37.9124 114.009 37.9387 114.187C37.9679 114.365 38.0101 114.518 38.0656 114.647V114.717H37.2212C37.1803 114.623 37.1482 114.499 37.1249 114.345C37.1016 114.187 37.0899 114.042 37.0899 113.907ZM37.2299 111.847L37.2387 112.415H36.4205C36.1901 112.415 35.9844 112.434 35.8036 112.472C35.6228 112.507 35.4711 112.561 35.3486 112.634C35.2261 112.707 35.1327 112.799 35.0686 112.91C35.0044 113.018 34.9723 113.145 34.9723 113.29C34.9723 113.439 35.0059 113.575 35.0729 113.697C35.14 113.82 35.2407 113.918 35.3748 113.991C35.5119 114.061 35.6796 114.096 35.878 114.096C36.1259 114.096 36.3447 114.043 36.5343 113.938C36.7238 113.833 36.8741 113.705 36.9849 113.553C37.0987 113.401 37.1599 113.254 37.1687 113.111L37.5143 113.5C37.4939 113.623 37.4385 113.759 37.348 113.907C37.2576 114.056 37.1366 114.199 36.9849 114.336C36.8361 114.47 36.6582 114.583 36.4511 114.673C36.247 114.761 36.0165 114.804 35.7598 114.804C35.439 114.804 35.1575 114.742 34.9154 114.616C34.6763 114.491 34.4896 114.323 34.3554 114.113C34.2242 113.9 34.1585 113.662 34.1585 113.4C34.1585 113.146 34.2081 112.923 34.3073 112.73C34.4065 112.535 34.5494 112.373 34.7361 112.245C34.9227 112.114 35.1473 112.014 35.4098 111.947C35.6723 111.88 35.9655 111.847 36.2892 111.847H37.2299ZM42.0689 113.623V109.983H42.8826V114.717H42.1082L42.0689 113.623ZM42.222 112.625L42.5589 112.617C42.5589 112.932 42.5253 113.223 42.4582 113.492C42.3941 113.757 42.2891 113.988 42.1432 114.183C41.9974 114.378 41.8063 114.532 41.5701 114.642C41.3338 114.75 41.0465 114.804 40.7082 114.804C40.4777 114.804 40.2663 114.771 40.0738 114.704C39.8842 114.637 39.7208 114.533 39.5838 114.393C39.4467 114.253 39.3402 114.071 39.2644 113.846C39.1914 113.622 39.155 113.352 39.155 113.037V109.983H39.9644V113.045C39.9644 113.258 39.9877 113.435 40.0344 113.575C40.084 113.712 40.1496 113.821 40.2313 113.903C40.3159 113.982 40.4092 114.037 40.5113 114.069C40.6163 114.101 40.7242 114.117 40.8351 114.117C41.1792 114.117 41.452 114.052 41.6532 113.921C41.8545 113.786 41.9988 113.607 42.0864 113.382C42.1768 113.155 42.222 112.903 42.222 112.625ZM46.0984 109.983V110.604H43.5389V109.983H46.0984ZM44.4052 108.832H45.2146V113.544C45.2146 113.705 45.2394 113.826 45.289 113.907C45.3386 113.989 45.4027 114.043 45.4815 114.069C45.5602 114.096 45.6448 114.109 45.7352 114.109C45.8023 114.109 45.8723 114.103 45.9453 114.091C46.0211 114.077 46.078 114.065 46.1159 114.056L46.1203 114.717C46.0561 114.737 45.9715 114.756 45.8665 114.774C45.7644 114.794 45.6405 114.804 45.4946 114.804C45.2963 114.804 45.114 114.765 44.9477 114.686C44.7815 114.607 44.6487 114.476 44.5496 114.292C44.4533 114.106 44.4052 113.855 44.4052 113.54V108.832ZM46.7459 112.402V112.302C46.7459 111.96 46.7955 111.644 46.8947 111.352C46.9938 111.058 47.1368 110.802 47.3234 110.587C47.5101 110.368 47.7362 110.199 48.0016 110.079C48.267 109.957 48.5645 109.895 48.8941 109.895C49.2266 109.895 49.5256 109.957 49.791 110.079C50.0594 110.199 50.2869 110.368 50.4736 110.587C50.6632 110.802 50.8075 111.058 50.9067 111.352C51.0059 111.644 51.0555 111.96 51.0555 112.302V112.402C51.0555 112.744 51.0059 113.06 50.9067 113.352C50.8075 113.643 50.6632 113.899 50.4736 114.117C50.2869 114.333 50.0608 114.502 49.7954 114.625C49.5329 114.745 49.2354 114.804 48.9029 114.804C48.5704 114.804 48.2714 114.745 48.006 114.625C47.7405 114.502 47.513 114.333 47.3234 114.117C47.1368 113.899 46.9938 113.643 46.8947 113.352C46.7955 113.06 46.7459 112.744 46.7459 112.402ZM47.5553 112.302V112.402C47.5553 112.639 47.583 112.862 47.6385 113.072C47.6939 113.279 47.777 113.463 47.8878 113.623C48.0016 113.783 48.1431 113.91 48.3122 114.004C48.4814 114.094 48.6783 114.139 48.9029 114.139C49.1246 114.139 49.3185 114.094 49.4848 114.004C49.6539 113.91 49.794 113.783 49.9048 113.623C50.0156 113.463 50.0988 113.279 50.1542 113.072C50.2125 112.862 50.2417 112.639 50.2417 112.402V112.302C50.2417 112.068 50.2125 111.848 50.1542 111.641C50.0988 111.431 50.0142 111.246 49.9004 111.085C49.7896 110.922 49.6496 110.794 49.4804 110.7C49.3141 110.607 49.1187 110.56 48.8941 110.56C48.6725 110.56 48.477 110.607 48.3079 110.7C48.1416 110.794 48.0016 110.922 47.8878 111.085C47.777 111.246 47.6939 111.431 47.6385 111.641C47.583 111.848 47.5553 112.068 47.5553 112.302ZM52.8755 110.924V114.717H52.0618V109.983H52.8318L52.8755 110.924ZM52.7093 112.17L52.333 112.157C52.3359 111.834 52.3782 111.535 52.4599 111.26C52.5416 110.983 52.6626 110.743 52.823 110.539C52.9835 110.334 53.1833 110.177 53.4224 110.066C53.6616 109.952 53.9387 109.895 54.2537 109.895C54.4754 109.895 54.6796 109.927 54.8662 109.992C55.0529 110.053 55.2148 110.151 55.3519 110.285C55.489 110.419 55.5954 110.591 55.6713 110.801C55.7471 111.011 55.785 111.265 55.785 111.562V114.717H54.9756V111.602C54.9756 111.354 54.9333 111.155 54.8487 111.007C54.7671 110.858 54.6504 110.75 54.4987 110.683C54.3471 110.613 54.1691 110.578 53.965 110.578C53.7258 110.578 53.526 110.62 53.3656 110.705C53.2051 110.789 53.0768 110.906 52.9805 111.055C52.8843 111.204 52.8143 111.374 52.7705 111.567C52.7297 111.756 52.7093 111.958 52.7093 112.17ZM55.7763 111.724L55.2338 111.89C55.2367 111.631 55.279 111.381 55.3606 111.142C55.4452 110.903 55.5663 110.69 55.7238 110.504C55.8842 110.317 56.0811 110.17 56.3144 110.062C56.5478 109.951 56.8147 109.895 57.1151 109.895C57.3688 109.895 57.5934 109.929 57.7889 109.996C57.9872 110.063 58.1535 110.167 58.2876 110.307C58.4247 110.444 58.5283 110.62 58.5983 110.836C58.6683 111.052 58.7033 111.309 58.7033 111.606V114.717H57.8895V111.597C57.8895 111.332 57.8472 111.126 57.7626 110.98C57.6809 110.832 57.5643 110.728 57.4126 110.67C57.2638 110.609 57.0859 110.578 56.8788 110.578C56.7009 110.578 56.5434 110.609 56.4063 110.67C56.2692 110.731 56.154 110.816 56.0607 110.924C55.9673 111.029 55.8959 111.15 55.8463 111.287C55.7996 111.424 55.7763 111.57 55.7763 111.724ZM59.7139 112.402V112.302C59.7139 111.96 59.7635 111.644 59.8627 111.352C59.9619 111.058 60.1048 110.802 60.2915 110.587C60.4781 110.368 60.7042 110.199 60.9696 110.079C61.235 109.957 61.5325 109.895 61.8621 109.895C62.1947 109.895 62.4936 109.957 62.7591 110.079C63.0274 110.199 63.2549 110.368 63.4416 110.587C63.6312 110.802 63.7756 111.058 63.8747 111.352C63.9739 111.644 64.0235 111.96 64.0235 112.302V112.402C64.0235 112.744 63.9739 113.06 63.8747 113.352C63.7756 113.643 63.6312 113.899 63.4416 114.117C63.2549 114.333 63.0289 114.502 62.7634 114.625C62.5009 114.745 62.2034 114.804 61.8709 114.804C61.5384 114.804 61.2394 114.745 60.974 114.625C60.7086 114.502 60.481 114.333 60.2915 114.117C60.1048 113.899 59.9619 113.643 59.8627 113.352C59.7635 113.06 59.7139 112.744 59.7139 112.402ZM60.5233 112.302V112.402C60.5233 112.639 60.5511 112.862 60.6065 113.072C60.6619 113.279 60.745 113.463 60.8559 113.623C60.9696 113.783 61.1111 113.91 61.2802 114.004C61.4494 114.094 61.6463 114.139 61.8709 114.139C62.0926 114.139 62.2865 114.094 62.4528 114.004C62.622 113.91 62.762 113.783 62.8728 113.623C62.9836 113.463 63.0668 113.279 63.1222 113.072C63.1805 112.862 63.2097 112.639 63.2097 112.402V112.302C63.2097 112.068 63.1805 111.848 63.1222 111.641C63.0668 111.431 62.9822 111.246 62.8684 111.085C62.7576 110.922 62.6176 110.794 62.4484 110.7C62.2822 110.607 62.0867 110.56 61.8621 110.56C61.6405 110.56 61.445 110.607 61.2759 110.7C61.1096 110.794 60.9696 110.922 60.8559 111.085C60.745 111.246 60.6619 111.431 60.6065 111.641C60.5511 111.848 60.5233 112.068 60.5233 112.302ZM66.723 111.676V112.341H64.5879V111.676H66.723ZM68.3243 110.994V114.717H67.5149V109.983H68.2805L68.3243 110.994ZM68.1318 112.17L67.7949 112.157C67.7978 111.834 67.8459 111.535 67.9393 111.26C68.0326 110.983 68.1639 110.743 68.333 110.539C68.5022 110.334 68.7035 110.177 68.9368 110.066C69.1731 109.952 69.4341 109.895 69.72 109.895C69.9533 109.895 70.1633 109.927 70.35 109.992C70.5367 110.053 70.6956 110.152 70.8269 110.289C70.9611 110.426 71.0631 110.604 71.1331 110.823C71.2031 111.039 71.2381 111.303 71.2381 111.615V114.717H70.4244V111.606C70.4244 111.358 70.3879 111.16 70.315 111.011C70.2421 110.859 70.1356 110.75 69.9956 110.683C69.8556 110.613 69.6835 110.578 69.4793 110.578C69.2781 110.578 69.0943 110.62 68.9281 110.705C68.7647 110.789 68.6232 110.906 68.5037 111.055C68.387 111.204 68.2951 111.374 68.228 111.567C68.1639 111.756 68.1318 111.958 68.1318 112.17ZM73.907 113.986L75.2021 109.983H76.029L74.327 114.717H73.7845L73.907 113.986ZM72.8263 109.983L74.1608 114.008L74.2526 114.717H73.7101L71.9951 109.983H72.8263ZM79.5641 113.461C79.5641 113.344 79.5379 113.237 79.4854 113.137C79.4358 113.035 79.3322 112.943 79.1747 112.862C79.0201 112.777 78.7868 112.704 78.4747 112.643C78.2122 112.588 77.9745 112.522 77.7615 112.446C77.5515 112.37 77.3721 112.278 77.2234 112.17C77.0775 112.063 76.9653 111.936 76.8865 111.79C76.8077 111.644 76.7684 111.473 76.7684 111.278C76.7684 111.091 76.8092 110.915 76.8909 110.749C76.9755 110.582 77.0936 110.435 77.2453 110.307C77.3999 110.178 77.5851 110.078 77.8009 110.005C78.0168 109.932 78.2574 109.895 78.5228 109.895C78.902 109.895 79.2258 109.962 79.4941 110.097C79.7624 110.231 79.9681 110.41 80.111 110.635C80.2539 110.856 80.3254 111.103 80.3254 111.374H79.516C79.516 111.243 79.4766 111.116 79.3978 110.994C79.322 110.868 79.2097 110.765 79.061 110.683C78.9151 110.601 78.7357 110.56 78.5228 110.56C78.2982 110.56 78.1159 110.595 77.9759 110.665C77.8388 110.732 77.7382 110.819 77.674 110.924C77.6128 111.029 77.5822 111.139 77.5822 111.256C77.5822 111.344 77.5967 111.422 77.6259 111.492C77.658 111.559 77.7134 111.622 77.7922 111.68C77.8709 111.736 77.9818 111.788 78.1247 111.838C78.2676 111.888 78.4499 111.937 78.6716 111.987C79.0595 112.074 79.3789 112.179 79.6297 112.302C79.8806 112.424 80.0673 112.574 80.1898 112.752C80.3123 112.93 80.3735 113.146 80.3735 113.4C80.3735 113.607 80.3298 113.797 80.2423 113.969C80.1577 114.141 80.0337 114.289 79.8704 114.415C79.7099 114.537 79.5174 114.634 79.2928 114.704C79.0712 114.771 78.8218 114.804 78.5447 114.804C78.1276 114.804 77.7747 114.73 77.4859 114.581C77.1971 114.432 76.9784 114.24 76.8296 114.004C76.6809 113.767 76.6065 113.518 76.6065 113.255H77.4203C77.4319 113.477 77.4961 113.654 77.6128 113.785C77.7294 113.913 77.8724 114.005 78.0415 114.061C78.2107 114.113 78.3784 114.139 78.5447 114.139C78.7664 114.139 78.9516 114.11 79.1003 114.052C79.252 113.993 79.3672 113.913 79.446 113.811C79.5247 113.709 79.5641 113.592 79.5641 113.461ZM81.4323 107.997H82.2461V113.798L82.1761 114.717H81.4323V107.997ZM85.4443 112.31V112.402C85.4443 112.747 85.4035 113.066 85.3218 113.36C85.2402 113.652 85.1206 113.906 84.9631 114.122C84.8056 114.338 84.6131 114.505 84.3856 114.625C84.158 114.745 83.897 114.804 83.6024 114.804C83.302 114.804 83.038 114.753 82.8105 114.651C82.5859 114.546 82.3963 114.396 82.2417 114.201C82.0871 114.005 81.9632 113.769 81.8698 113.492C81.7794 113.215 81.7167 112.903 81.6817 112.555V112.153C81.7167 111.803 81.7794 111.489 81.8698 111.212C81.9632 110.935 82.0871 110.699 82.2417 110.504C82.3963 110.305 82.5859 110.155 82.8105 110.053C83.0351 109.948 83.2961 109.895 83.5936 109.895C83.8912 109.895 84.1551 109.954 84.3856 110.07C84.616 110.184 84.8085 110.347 84.9631 110.56C85.1206 110.773 85.2402 111.029 85.3218 111.326C85.4035 111.621 85.4443 111.949 85.4443 112.31ZM84.6306 112.402V112.31C84.6306 112.074 84.6087 111.853 84.5649 111.645C84.5212 111.435 84.4512 111.252 84.3549 111.094C84.2587 110.934 84.1318 110.808 83.9743 110.718C83.8168 110.625 83.6228 110.578 83.3924 110.578C83.1882 110.578 83.0103 110.613 82.8586 110.683C82.7099 110.753 82.583 110.848 82.478 110.967C82.373 111.084 82.2869 111.218 82.2198 111.37C82.1557 111.519 82.1075 111.673 82.0755 111.834V112.888C82.1221 113.092 82.198 113.289 82.303 113.479C82.4109 113.665 82.5538 113.818 82.7317 113.938C82.9126 114.058 83.1357 114.117 83.4011 114.117C83.6199 114.117 83.8066 114.074 83.9612 113.986C84.1187 113.896 84.2455 113.772 84.3418 113.614C84.441 113.457 84.5139 113.274 84.5606 113.067C84.6072 112.86 84.6306 112.639 84.6306 112.402ZM86.4813 114.288C86.4813 114.151 86.5236 114.036 86.6081 113.942C86.6956 113.846 86.8211 113.798 86.9844 113.798C87.1477 113.798 87.2717 113.846 87.3563 113.942C87.4438 114.036 87.4876 114.151 87.4876 114.288C87.4876 114.422 87.4438 114.536 87.3563 114.629C87.2717 114.723 87.1477 114.769 86.9844 114.769C86.8211 114.769 86.6956 114.723 86.6081 114.629C86.5236 114.536 86.4813 114.422 86.4813 114.288ZM89.6401 110.727V114.717H88.8307V109.983H89.6183L89.6401 110.727ZM91.1189 109.957L91.1146 110.709C91.0475 110.695 90.9833 110.686 90.9221 110.683C90.8637 110.677 90.7966 110.674 90.7208 110.674C90.5341 110.674 90.3693 110.703 90.2264 110.762C90.0835 110.82 89.9624 110.902 89.8633 111.007C89.7641 111.112 89.6853 111.237 89.627 111.383C89.5716 111.526 89.5351 111.683 89.5176 111.855L89.2901 111.987C89.2901 111.701 89.3178 111.432 89.3733 111.182C89.4316 110.931 89.5205 110.709 89.6401 110.517C89.7597 110.321 89.9114 110.17 90.0952 110.062C90.2818 109.951 90.5035 109.895 90.7602 109.895C90.8185 109.895 90.8856 109.903 90.9614 109.917C91.0373 109.929 91.0898 109.942 91.1189 109.957ZM94.7635 113.623V109.983H95.5773V114.717H94.8028L94.7635 113.623ZM94.9166 112.625L95.2535 112.617C95.2535 112.932 95.2199 113.223 95.1529 113.492C95.0887 113.757 94.9837 113.988 94.8378 114.183C94.692 114.378 94.501 114.532 94.2647 114.642C94.0284 114.75 93.7411 114.804 93.4028 114.804C93.1724 114.804 92.9609 114.771 92.7684 114.704C92.5788 114.637 92.4155 114.533 92.2784 114.393C92.1413 114.253 92.0348 114.071 91.959 113.846C91.8861 113.622 91.8496 113.352 91.8496 113.037V109.983H92.659V113.045C92.659 113.258 92.6823 113.435 92.729 113.575C92.7786 113.712 92.8442 113.821 92.9259 113.903C93.0105 113.982 93.1038 114.037 93.2059 114.069C93.3109 114.101 93.4188 114.117 93.5297 114.117C93.8738 114.117 94.1466 114.052 94.3478 113.921C94.5491 113.786 94.6935 113.607 94.781 113.382C94.8714 113.155 94.9166 112.903 94.9166 112.625Z" fill="#333333"/>
<rect x="16.32" y="16.32" width="348.36" height="115.36" rx="6.08025" stroke="#E7E7E7" stroke-width="0.640026"/>
<rect x="233.799" y="104.44" width="55.1271" height="12.9021" rx="2.0526" fill="#FFF4F4" stroke="#FFDFDF" stroke-width="0.586458"/>
<rect x="233.799" y="104.44" width="55.1271" height="12.9021" rx="2.0526" fill="#FFF4F4" stroke="#FFDFDF" stroke-width="0.586458"/>
<path d="M250.017 108.499V114.904H249.208V109.51L247.576 110.105V109.374L249.89 108.499H250.017ZM253.421 111.872L252.774 111.706L253.093 108.534H256.361V109.282H253.78L253.587 111.015C253.704 110.948 253.851 110.885 254.029 110.827C254.21 110.768 254.417 110.739 254.651 110.739C254.945 110.739 255.209 110.79 255.443 110.892C255.676 110.991 255.874 111.134 256.038 111.321C256.204 111.508 256.331 111.732 256.418 111.995C256.506 112.257 256.549 112.55 256.549 112.874C256.549 113.18 256.507 113.462 256.423 113.719C256.341 113.975 256.217 114.2 256.051 114.392C255.884 114.582 255.674 114.729 255.421 114.834C255.17 114.939 254.874 114.992 254.532 114.992C254.276 114.992 254.032 114.957 253.802 114.887C253.574 114.814 253.37 114.704 253.189 114.559C253.011 114.41 252.866 114.226 252.752 114.007C252.641 113.786 252.571 113.526 252.542 113.229H253.312C253.347 113.468 253.417 113.669 253.522 113.832C253.627 113.996 253.764 114.12 253.933 114.204C254.105 114.286 254.305 114.327 254.532 114.327C254.725 114.327 254.896 114.293 255.044 114.226C255.193 114.159 255.319 114.063 255.421 113.937C255.523 113.812 255.6 113.66 255.653 113.482C255.708 113.304 255.736 113.105 255.736 112.883C255.736 112.682 255.708 112.495 255.653 112.323C255.597 112.151 255.514 112.001 255.403 111.872C255.295 111.744 255.163 111.645 255.005 111.575C254.847 111.502 254.667 111.465 254.462 111.465C254.191 111.465 253.986 111.502 253.846 111.575C253.708 111.648 253.567 111.747 253.421 111.872ZM261.555 108.534V108.989L258.916 114.904H258.063L260.697 109.199H257.249V108.534H261.555ZM263.659 111.321H264.237C264.52 111.321 264.753 111.274 264.937 111.181C265.123 111.085 265.262 110.955 265.352 110.792C265.446 110.625 265.492 110.439 265.492 110.232C265.492 109.987 265.451 109.781 265.37 109.615C265.288 109.448 265.166 109.323 265.002 109.238C264.839 109.154 264.632 109.112 264.381 109.112C264.153 109.112 263.952 109.157 263.777 109.247C263.605 109.335 263.47 109.46 263.37 109.623C263.274 109.787 263.226 109.979 263.226 110.201H262.417C262.417 109.877 262.498 109.583 262.662 109.317C262.825 109.052 263.054 108.84 263.348 108.683C263.646 108.525 263.99 108.447 264.381 108.447C264.766 108.447 265.103 108.515 265.392 108.652C265.68 108.786 265.905 108.988 266.065 109.256C266.226 109.521 266.306 109.852 266.306 110.249C266.306 110.41 266.268 110.582 266.192 110.765C266.119 110.946 266.004 111.115 265.847 111.273C265.692 111.43 265.491 111.56 265.243 111.662C264.995 111.761 264.697 111.811 264.35 111.811H263.659V111.321ZM263.659 111.986V111.5H264.35C264.756 111.5 265.091 111.549 265.357 111.645C265.622 111.741 265.831 111.869 265.982 112.03C266.137 112.19 266.245 112.367 266.306 112.559C266.37 112.749 266.402 112.938 266.402 113.128C266.402 113.425 266.351 113.689 266.249 113.92C266.15 114.15 266.009 114.346 265.825 114.506C265.644 114.667 265.431 114.788 265.186 114.869C264.941 114.951 264.674 114.992 264.385 114.992C264.108 114.992 263.847 114.952 263.602 114.874C263.36 114.795 263.146 114.681 262.959 114.532C262.772 114.381 262.627 114.196 262.522 113.977C262.417 113.755 262.364 113.503 262.364 113.22H263.173C263.173 113.442 263.222 113.635 263.318 113.802C263.417 113.968 263.557 114.098 263.738 114.191C263.922 114.282 264.137 114.327 264.385 114.327C264.633 114.327 264.846 114.284 265.024 114.2C265.205 114.112 265.344 113.981 265.44 113.806C265.539 113.631 265.589 113.411 265.589 113.145C265.589 112.88 265.533 112.663 265.422 112.494C265.311 112.321 265.154 112.195 264.95 112.113C264.749 112.028 264.511 111.986 264.237 111.986H263.659Z" fill="#333333"/>
<path d="M278.85 113.219C278.615 113.524 278.156 113.524 277.921 113.219L276.065 110.808C275.768 110.422 276.043 109.864 276.53 109.864H280.241C280.728 109.864 281.003 110.422 280.706 110.808L278.85 113.219Z" fill="#DD5E5E"/>
<rect x="295.385" y="104.442" width="55.1271" height="12.9021" rx="2.0526" fill="#F4FFF4" stroke="#27C58B" stroke-width="0.586458"/>
<path d="M312.143 111.762V112.427H307.54V111.951L310.393 107.536H311.053L310.345 108.814L308.459 111.762H312.143ZM311.255 107.536V113.906H310.445V107.536H311.255ZM318.207 107.527H318.277V108.214H318.207C317.778 108.214 317.419 108.284 317.131 108.424C316.842 108.561 316.613 108.746 316.444 108.98C316.274 109.21 316.152 109.47 316.076 109.759C316.003 110.047 315.967 110.34 315.967 110.638V111.574C315.967 111.857 316 112.108 316.067 112.327C316.134 112.543 316.226 112.725 316.343 112.874C316.46 113.022 316.591 113.135 316.737 113.211C316.886 113.286 317.04 113.324 317.201 113.324C317.387 113.324 317.554 113.289 317.699 113.219C317.845 113.146 317.968 113.046 318.067 112.917C318.169 112.786 318.246 112.632 318.299 112.454C318.351 112.276 318.377 112.08 318.377 111.867C318.377 111.678 318.354 111.496 318.307 111.321C318.261 111.143 318.189 110.985 318.093 110.848C317.997 110.708 317.876 110.599 317.73 110.52C317.587 110.438 317.416 110.397 317.218 110.397C316.993 110.397 316.783 110.453 316.588 110.564C316.396 110.672 316.237 110.814 316.111 110.992C315.989 111.167 315.919 111.358 315.901 111.566L315.472 111.561C315.513 111.234 315.589 110.956 315.7 110.725C315.814 110.492 315.954 110.303 316.12 110.157C316.289 110.008 316.477 109.9 316.684 109.833C316.894 109.763 317.116 109.728 317.349 109.728C317.667 109.728 317.941 109.788 318.172 109.907C318.402 110.027 318.592 110.187 318.741 110.389C318.889 110.587 318.999 110.812 319.069 111.062C319.142 111.31 319.178 111.566 319.178 111.828C319.178 112.128 319.136 112.41 319.051 112.672C318.967 112.935 318.84 113.165 318.671 113.364C318.504 113.562 318.299 113.717 318.054 113.827C317.809 113.938 317.524 113.994 317.201 113.994C316.856 113.994 316.556 113.924 316.299 113.784C316.043 113.641 315.83 113.451 315.661 113.215C315.491 112.979 315.364 112.716 315.28 112.427C315.195 112.139 315.153 111.846 315.153 111.548V111.167C315.153 110.718 315.198 110.278 315.289 109.846C315.379 109.414 315.535 109.024 315.757 108.674C315.981 108.324 316.292 108.045 316.689 107.838C317.085 107.631 317.591 107.527 318.207 107.527ZM321.164 110.874L320.517 110.708L320.836 107.536H324.105V108.284H321.523L321.331 110.017C321.447 109.95 321.595 109.887 321.773 109.829C321.953 109.77 322.161 109.741 322.394 109.741C322.689 109.741 322.952 109.792 323.186 109.894C323.419 109.993 323.617 110.136 323.781 110.323C323.947 110.51 324.074 110.734 324.161 110.997C324.249 111.259 324.293 111.552 324.293 111.876C324.293 112.182 324.25 112.464 324.166 112.721C324.084 112.977 323.96 113.202 323.794 113.394C323.628 113.584 323.418 113.731 323.164 113.836C322.913 113.941 322.617 113.994 322.276 113.994C322.019 113.994 321.776 113.959 321.545 113.889C321.318 113.816 321.113 113.706 320.933 113.561C320.755 113.412 320.609 113.228 320.495 113.009C320.384 112.788 320.314 112.528 320.285 112.231H321.055C321.09 112.47 321.16 112.671 321.265 112.834C321.37 112.998 321.507 113.122 321.676 113.206C321.848 113.288 322.048 113.329 322.276 113.329C322.468 113.329 322.639 113.295 322.788 113.228C322.936 113.161 323.062 113.065 323.164 112.939C323.266 112.814 323.343 112.662 323.396 112.484C323.451 112.306 323.479 112.107 323.479 111.885C323.479 111.684 323.451 111.497 323.396 111.325C323.34 111.153 323.257 111.003 323.146 110.874C323.039 110.746 322.906 110.647 322.748 110.577C322.591 110.504 322.41 110.467 322.206 110.467C321.935 110.467 321.729 110.504 321.589 110.577C321.452 110.65 321.31 110.749 321.164 110.874ZM326.362 110.323H326.94C327.223 110.323 327.456 110.276 327.64 110.183C327.826 110.087 327.965 109.957 328.055 109.794C328.149 109.627 328.195 109.441 328.195 109.234C328.195 108.989 328.155 108.783 328.073 108.617C327.991 108.45 327.869 108.325 327.705 108.24C327.542 108.156 327.335 108.114 327.084 108.114C326.857 108.114 326.655 108.159 326.48 108.249C326.308 108.337 326.173 108.462 326.073 108.625C325.977 108.789 325.929 108.981 325.929 109.203H325.12C325.12 108.879 325.201 108.585 325.365 108.319C325.528 108.054 325.757 107.842 326.052 107.685C326.349 107.527 326.693 107.448 327.084 107.448C327.469 107.448 327.806 107.517 328.095 107.654C328.384 107.788 328.608 107.99 328.769 108.258C328.929 108.523 329.009 108.854 329.009 109.251C329.009 109.411 328.971 109.584 328.895 109.767C328.822 109.948 328.707 110.117 328.55 110.275C328.395 110.432 328.194 110.562 327.946 110.664C327.698 110.763 327.401 110.813 327.053 110.813H326.362V110.323ZM326.362 110.988V110.502H327.053C327.459 110.502 327.794 110.55 328.06 110.647C328.325 110.743 328.534 110.871 328.685 111.032C328.84 111.192 328.948 111.369 329.009 111.561C329.073 111.751 329.105 111.94 329.105 112.13C329.105 112.427 329.054 112.691 328.952 112.922C328.853 113.152 328.712 113.348 328.528 113.508C328.347 113.669 328.134 113.79 327.889 113.871C327.644 113.953 327.377 113.994 327.088 113.994C326.811 113.994 326.55 113.954 326.305 113.876C326.063 113.797 325.849 113.683 325.662 113.534C325.475 113.383 325.33 113.197 325.225 112.979C325.12 112.757 325.067 112.505 325.067 112.222H325.877C325.877 112.443 325.925 112.637 326.021 112.804C326.12 112.97 326.26 113.1 326.441 113.193C326.625 113.284 326.841 113.329 327.088 113.329C327.336 113.329 327.549 113.286 327.727 113.202C327.908 113.114 328.047 112.983 328.143 112.808C328.242 112.633 328.292 112.413 328.292 112.147C328.292 111.882 328.236 111.665 328.125 111.496C328.015 111.323 327.857 111.197 327.653 111.115C327.452 111.03 327.214 110.988 326.94 110.988H326.362Z" fill="#333333"/>
<path d="M339.788 109.149C339.553 108.844 339.093 108.844 338.858 109.149L337.003 111.559C336.706 111.945 336.981 112.504 337.467 112.504H341.179C341.665 112.504 341.94 111.945 341.644 111.559L339.788 109.149Z" fill="#27C58B"/>
<path d="M259.281 44.7051V45.8711H252.994V44.7051H259.281ZM253.357 44.7051V47.9688H251.951L251.898 44.7051H253.357ZM260.418 44.7051L260.33 47.9629H258.947V44.7051H260.418ZM258.25 37.3398V38.5117H254.312V37.3398H258.25ZM259.375 37.3398V45.8711H257.91V37.3398H259.375ZM254.02 37.3398H255.49L255.285 40.7969C255.254 41.3438 255.197 41.8359 255.115 42.2734C255.033 42.7109 254.934 43.1035 254.816 43.4512C254.703 43.7949 254.574 44.0996 254.43 44.3652C254.285 44.627 254.131 44.8535 253.967 45.0449C253.803 45.2363 253.635 45.4004 253.463 45.5371C253.295 45.6699 253.129 45.7812 252.965 45.8711H252.18V44.7051H252.561C252.666 44.6074 252.783 44.4668 252.912 44.2832C253.041 44.0957 253.166 43.8516 253.287 43.5508C253.412 43.2461 253.521 42.8691 253.615 42.4199C253.709 41.9707 253.773 41.4297 253.809 40.7969L254.02 37.3398ZM261.121 42.7715V42.6367C261.121 42.1797 261.188 41.7559 261.32 41.3652C261.453 40.9707 261.645 40.6289 261.895 40.3398C262.148 40.0469 262.457 39.8203 262.82 39.6602C263.188 39.4961 263.602 39.4141 264.062 39.4141C264.527 39.4141 264.941 39.4961 265.305 39.6602C265.672 39.8203 265.982 40.0469 266.236 40.3398C266.49 40.6289 266.684 40.9707 266.816 41.3652C266.949 41.7559 267.016 42.1797 267.016 42.6367V42.7715C267.016 43.2285 266.949 43.6523 266.816 44.043C266.684 44.4336 266.49 44.7754 266.236 45.0684C265.982 45.3574 265.674 45.584 265.311 45.748C264.947 45.9082 264.535 45.9883 264.074 45.9883C263.609 45.9883 263.193 45.9082 262.826 45.748C262.463 45.584 262.154 45.3574 261.9 45.0684C261.646 44.7754 261.453 44.4336 261.32 44.043C261.188 43.6523 261.121 43.2285 261.121 42.7715ZM262.533 42.6367V42.7715C262.533 43.0566 262.562 43.3262 262.621 43.5801C262.68 43.834 262.771 44.0566 262.896 44.248C263.021 44.4395 263.182 44.5898 263.377 44.6992C263.572 44.8086 263.805 44.8633 264.074 44.8633C264.336 44.8633 264.562 44.8086 264.754 44.6992C264.949 44.5898 265.109 44.4395 265.234 44.248C265.359 44.0566 265.451 43.834 265.51 43.5801C265.572 43.3262 265.604 43.0566 265.604 42.7715V42.6367C265.604 42.3555 265.572 42.0898 265.51 41.8398C265.451 41.5859 265.357 41.3613 265.229 41.166C265.104 40.9707 264.943 40.8184 264.748 40.709C264.557 40.5957 264.328 40.5391 264.062 40.5391C263.797 40.5391 263.566 40.5957 263.371 40.709C263.18 40.8184 263.021 40.9707 262.896 41.166C262.771 41.3613 262.68 41.5859 262.621 41.8398C262.562 42.0898 262.533 42.3555 262.533 42.6367ZM268.217 45.168C268.217 44.9492 268.291 44.7656 268.439 44.6172C268.588 44.4648 268.789 44.3887 269.043 44.3887C269.301 44.3887 269.502 44.4648 269.646 44.6172C269.795 44.7656 269.869 44.9492 269.869 45.168C269.869 45.3867 269.795 45.5703 269.646 45.7188C269.502 45.8672 269.301 45.9414 269.043 45.9414C268.789 45.9414 268.588 45.8672 268.439 45.7188C268.291 45.5703 268.217 45.3867 268.217 45.168ZM268.223 40.1758C268.223 39.957 268.297 39.7734 268.445 39.625C268.594 39.4727 268.795 39.3965 269.049 39.3965C269.307 39.3965 269.508 39.4727 269.652 39.625C269.801 39.7734 269.875 39.957 269.875 40.1758C269.875 40.3945 269.801 40.5781 269.652 40.7266C269.508 40.875 269.307 40.9492 269.049 40.9492C268.795 40.9492 268.594 40.875 268.445 40.7266C268.297 40.5781 268.223 40.3945 268.223 40.1758Z" fill="#333333"/>
<path d="M311.024 38.3398V46.8711H309.56V39.5117H305.769V46.8711H304.304V38.3398H311.024ZM312.384 43.7715V43.6367C312.384 43.1797 312.45 42.7559 312.583 42.3652C312.716 41.9707 312.907 41.6289 313.157 41.3398C313.411 41.0469 313.72 40.8203 314.083 40.6602C314.45 40.4961 314.864 40.4141 315.325 40.4141C315.79 40.4141 316.204 40.4961 316.567 40.6602C316.935 40.8203 317.245 41.0469 317.499 41.3398C317.753 41.6289 317.946 41.9707 318.079 42.3652C318.212 42.7559 318.278 43.1797 318.278 43.6367V43.7715C318.278 44.2285 318.212 44.6523 318.079 45.043C317.946 45.4336 317.753 45.7754 317.499 46.0684C317.245 46.3574 316.937 46.584 316.573 46.748C316.21 46.9082 315.798 46.9883 315.337 46.9883C314.872 46.9883 314.456 46.9082 314.089 46.748C313.726 46.584 313.417 46.3574 313.163 46.0684C312.909 45.7754 312.716 45.4336 312.583 45.043C312.45 44.6523 312.384 44.2285 312.384 43.7715ZM313.796 43.6367V43.7715C313.796 44.0566 313.825 44.3262 313.884 44.5801C313.942 44.834 314.034 45.0566 314.159 45.248C314.284 45.4395 314.444 45.5898 314.64 45.6992C314.835 45.8086 315.067 45.8633 315.337 45.8633C315.599 45.8633 315.825 45.8086 316.017 45.6992C316.212 45.5898 316.372 45.4395 316.497 45.248C316.622 45.0566 316.714 44.834 316.772 44.5801C316.835 44.3262 316.866 44.0566 316.866 43.7715V43.6367C316.866 43.3555 316.835 43.0898 316.772 42.8398C316.714 42.5859 316.62 42.3613 316.491 42.166C316.366 41.9707 316.206 41.8184 316.011 41.709C315.819 41.5957 315.591 41.5391 315.325 41.5391C315.06 41.5391 314.829 41.5957 314.634 41.709C314.442 41.8184 314.284 41.9707 314.159 42.166C314.034 42.3613 313.942 42.5859 313.884 42.8398C313.825 43.0898 313.796 43.3555 313.796 43.6367ZM322.052 45.8633C322.282 45.8633 322.489 45.8184 322.673 45.7285C322.86 45.6348 323.011 45.5059 323.124 45.3418C323.241 45.1777 323.306 44.9883 323.317 44.7734H324.647C324.64 45.1836 324.519 45.5566 324.284 45.8926C324.05 46.2285 323.739 46.4961 323.353 46.6953C322.966 46.8906 322.538 46.9883 322.069 46.9883C321.585 46.9883 321.163 46.9062 320.804 46.7422C320.444 46.5742 320.146 46.3438 319.907 46.0508C319.669 45.7578 319.489 45.4199 319.368 45.0371C319.251 44.6543 319.192 44.2441 319.192 43.8066V43.6016C319.192 43.1641 319.251 42.7539 319.368 42.3711C319.489 41.9844 319.669 41.6445 319.907 41.3516C320.146 41.0586 320.444 40.8301 320.804 40.666C321.163 40.498 321.583 40.4141 322.063 40.4141C322.571 40.4141 323.017 40.5156 323.399 40.7188C323.782 40.918 324.083 41.1973 324.302 41.5566C324.524 41.9121 324.64 42.3262 324.647 42.7988H323.317C323.306 42.5645 323.247 42.3535 323.142 42.166C323.04 41.9746 322.896 41.8223 322.708 41.709C322.524 41.5957 322.304 41.5391 322.046 41.5391C321.761 41.5391 321.524 41.5977 321.337 41.7148C321.149 41.8281 321.003 41.9844 320.897 42.1836C320.792 42.3789 320.716 42.5996 320.669 42.8457C320.626 43.0879 320.604 43.3398 320.604 43.6016V43.8066C320.604 44.0684 320.626 44.3223 320.669 44.5684C320.712 44.8145 320.786 45.0352 320.892 45.2305C321.001 45.4219 321.149 45.5762 321.337 45.6934C321.524 45.8066 321.763 45.8633 322.052 45.8633ZM329.991 40.5312V41.6562H326.897V40.5312H329.991ZM331.099 40.5312V46.8711H329.687V40.5312H331.099ZM326.552 40.5312H327.946L327.776 43.666C327.753 44.1309 327.706 44.541 327.636 44.8965C327.569 45.248 327.479 45.5508 327.366 45.8047C327.253 46.0547 327.114 46.2578 326.95 46.4141C326.786 46.5703 326.595 46.6855 326.376 46.7598C326.157 46.834 325.911 46.8711 325.638 46.8711H325.198L325.192 45.7109L325.415 45.6934C325.56 45.6816 325.685 45.6445 325.79 45.582C325.896 45.5156 325.985 45.4219 326.06 45.3008C326.138 45.1797 326.2 45.0234 326.247 44.832C326.298 44.6406 326.337 44.4141 326.364 44.1523C326.396 43.8906 326.419 43.5859 326.435 43.2383L326.552 40.5312ZM335.394 46.9883C334.925 46.9883 334.501 46.9121 334.122 46.7598C333.747 46.6035 333.427 46.3867 333.161 46.1094C332.899 45.832 332.698 45.5059 332.558 45.1309C332.417 44.7559 332.347 44.3516 332.347 43.918V43.6836C332.347 43.1875 332.419 42.7383 332.563 42.3359C332.708 41.9336 332.909 41.5898 333.167 41.3047C333.425 41.0156 333.729 40.7949 334.081 40.6426C334.433 40.4902 334.813 40.4141 335.224 40.4141C335.677 40.4141 336.073 40.4902 336.413 40.6426C336.753 40.7949 337.034 41.0098 337.257 41.2871C337.483 41.5605 337.651 41.8867 337.761 42.2656C337.874 42.6445 337.931 43.0625 337.931 43.5195V44.123H333.032V43.1094H336.536V42.998C336.528 42.7441 336.478 42.5059 336.384 42.2832C336.294 42.0605 336.155 41.8809 335.968 41.7441C335.78 41.6074 335.53 41.5391 335.218 41.5391C334.983 41.5391 334.774 41.5898 334.591 41.6914C334.411 41.7891 334.261 41.9316 334.14 42.1191C334.019 42.3066 333.925 42.5332 333.858 42.7988C333.796 43.0605 333.765 43.3555 333.765 43.6836V43.918C333.765 44.1953 333.802 44.4531 333.876 44.6914C333.954 44.9258 334.067 45.1309 334.216 45.3066C334.364 45.4824 334.544 45.6211 334.755 45.7227C334.966 45.8203 335.206 45.8691 335.476 45.8691C335.815 45.8691 336.118 45.8008 336.384 45.6641C336.649 45.5273 336.88 45.334 337.075 45.084L337.819 45.8047C337.683 46.0039 337.505 46.1953 337.286 46.3789C337.067 46.5586 336.8 46.7051 336.483 46.8184C336.171 46.9316 335.808 46.9883 335.394 46.9883ZM339.05 46.168C339.05 45.9492 339.124 45.7656 339.272 45.6172C339.421 45.4648 339.622 45.3887 339.876 45.3887C340.134 45.3887 340.335 45.4648 340.479 45.6172C340.628 45.7656 340.702 45.9492 340.702 46.168C340.702 46.3867 340.628 46.5703 340.479 46.7188C340.335 46.8672 340.134 46.9414 339.876 46.9414C339.622 46.9414 339.421 46.8672 339.272 46.7188C339.124 46.5703 339.05 46.3867 339.05 46.168ZM339.056 41.1758C339.056 40.957 339.13 40.7734 339.278 40.625C339.427 40.4727 339.628 40.3965 339.882 40.3965C340.14 40.3965 340.341 40.4727 340.485 40.625C340.634 40.7734 340.708 40.957 340.708 41.1758C340.708 41.3945 340.634 41.5781 340.485 41.7266C340.341 41.875 340.14 41.9492 339.882 41.9492C339.628 41.9492 339.427 41.875 339.278 41.7266C339.13 41.5781 339.056 41.3945 339.056 41.1758Z" fill="#2FB794"/>
<rect x="233.8" y="85.0882" width="55.1271" height="12.9021" rx="2.0526" fill="#FFF4F4" stroke="#FFDFDF" stroke-width="0.586458"/>
<path d="M250.465 89.1757H250.535V89.8626H250.465C250.036 89.8626 249.677 89.9326 249.388 90.0726C249.099 90.2097 248.871 90.3949 248.701 90.6282C248.532 90.8587 248.41 91.1183 248.334 91.407C248.261 91.6958 248.224 91.9889 248.224 92.2864V93.2227C248.224 93.5056 248.258 93.7565 248.325 93.9752C248.392 94.1911 248.484 94.3734 248.601 94.5221C248.717 94.6709 248.849 94.7832 248.994 94.859C249.143 94.9349 249.298 94.9728 249.458 94.9728C249.645 94.9728 249.811 94.9378 249.957 94.8678C250.103 94.7949 250.225 94.6942 250.325 94.5659C250.427 94.4346 250.504 94.2801 250.556 94.1021C250.609 93.9242 250.635 93.7288 250.635 93.5159C250.635 93.3263 250.612 93.144 250.565 92.969C250.519 92.791 250.447 92.6335 250.351 92.4964C250.255 92.3564 250.133 92.2471 249.988 92.1683C249.845 92.0866 249.674 92.0458 249.476 92.0458C249.251 92.0458 249.041 92.1012 248.846 92.2121C248.653 92.32 248.494 92.4629 248.369 92.6408C248.246 92.8158 248.176 93.0069 248.159 93.214L247.73 93.2096C247.771 92.8829 247.847 92.6044 247.958 92.3739C248.071 92.1406 248.211 91.951 248.378 91.8052C248.547 91.6564 248.735 91.5485 248.942 91.4814C249.152 91.4114 249.374 91.3764 249.607 91.3764C249.925 91.3764 250.199 91.4362 250.43 91.5558C250.66 91.6754 250.85 91.8358 250.998 92.037C251.147 92.2354 251.256 92.46 251.326 92.7108C251.399 92.9587 251.436 93.214 251.436 93.4765C251.436 93.7769 251.394 94.0584 251.309 94.3209C251.224 94.5834 251.097 94.8138 250.928 95.0122C250.762 95.2105 250.556 95.3651 250.311 95.4759C250.066 95.5868 249.782 95.6422 249.458 95.6422C249.114 95.6422 248.814 95.5722 248.557 95.4322C248.3 95.2893 248.087 95.0997 247.918 94.8634C247.749 94.6272 247.622 94.3646 247.538 94.0759C247.453 93.7871 247.411 93.494 247.411 93.1965V92.8158C247.411 92.3666 247.456 91.9262 247.546 91.4945C247.637 91.0628 247.793 90.672 248.014 90.322C248.239 89.972 248.55 89.6934 248.946 89.4863C249.343 89.2792 249.849 89.1757 250.465 89.1757ZM256.572 94.8897V95.5547H252.403V94.9728L254.49 92.6496C254.746 92.3637 254.945 92.1216 255.085 91.9233C255.228 91.722 255.327 91.5427 255.382 91.3851C255.441 91.2247 255.47 91.0614 255.47 90.8951C255.47 90.6851 255.426 90.4955 255.338 90.3264C255.254 90.1543 255.128 90.0172 254.962 89.9151C254.796 89.813 254.595 89.762 254.358 89.762C254.076 89.762 253.839 89.8174 253.65 89.9282C253.463 90.0361 253.323 90.1878 253.23 90.3832C253.136 90.5787 253.09 90.8032 253.09 91.057H252.28C252.28 90.6982 252.359 90.3701 252.517 90.0726C252.674 89.7751 252.907 89.5388 253.217 89.3638C253.526 89.1859 253.906 89.0969 254.358 89.0969C254.761 89.0969 255.105 89.1684 255.391 89.3113C255.677 89.4513 255.896 89.6497 256.047 89.9063C256.202 90.1601 256.279 90.4576 256.279 90.7989C256.279 90.9855 256.247 91.1751 256.183 91.3676C256.122 91.5572 256.036 91.7468 255.925 91.9364C255.817 92.126 255.69 92.3127 255.544 92.4964C255.401 92.6802 255.248 92.861 255.085 93.039L253.378 94.8897H256.572ZM258.62 91.9714H259.197C259.48 91.9714 259.714 91.9248 259.897 91.8314C260.084 91.7352 260.223 91.6054 260.313 91.442C260.406 91.2758 260.453 91.0891 260.453 90.882C260.453 90.637 260.412 90.4314 260.331 90.2651C260.249 90.0988 260.126 89.9734 259.963 89.8888C259.8 89.8042 259.593 89.762 259.342 89.762C259.114 89.762 258.913 89.8072 258.738 89.8976C258.566 89.9851 258.43 90.1105 258.331 90.2739C258.235 90.4372 258.187 90.6297 258.187 90.8514H257.377C257.377 90.5276 257.459 90.233 257.622 89.9676C257.786 89.7022 258.015 89.4907 258.309 89.3332C258.607 89.1757 258.951 89.0969 259.342 89.0969C259.727 89.0969 260.064 89.1655 260.352 89.3026C260.641 89.4367 260.866 89.638 261.026 89.9063C261.187 90.1718 261.267 90.5028 261.267 90.8995C261.267 91.0599 261.229 91.232 261.153 91.4158C261.08 91.5966 260.965 91.7658 260.807 91.9233C260.653 92.0808 260.452 92.2106 260.204 92.3127C259.956 92.4119 259.658 92.4614 259.311 92.4614H258.62V91.9714ZM258.62 92.6364V92.1508H259.311C259.717 92.1508 260.052 92.1989 260.317 92.2952C260.583 92.3914 260.791 92.5198 260.943 92.6802C261.098 92.8406 261.206 93.0171 261.267 93.2096C261.331 93.3992 261.363 93.5888 261.363 93.7784C261.363 94.0759 261.312 94.3398 261.21 94.5703C261.111 94.8007 260.969 94.9961 260.786 95.1565C260.605 95.317 260.392 95.438 260.147 95.5197C259.902 95.6014 259.635 95.6422 259.346 95.6422C259.069 95.6422 258.808 95.6028 258.563 95.5241C258.321 95.4453 258.107 95.3316 257.92 95.1828C257.733 95.0311 257.587 94.8459 257.482 94.6272C257.377 94.4055 257.325 94.1532 257.325 93.8702H258.134C258.134 94.0919 258.182 94.2859 258.279 94.4521C258.378 94.6184 258.518 94.7482 258.699 94.8415C258.882 94.932 259.098 94.9772 259.346 94.9772C259.594 94.9772 259.807 94.9349 259.985 94.8503C260.166 94.7628 260.304 94.6315 260.401 94.4565C260.5 94.2815 260.549 94.0613 260.549 93.7959C260.549 93.5304 260.494 93.3131 260.383 93.144C260.272 92.9719 260.115 92.845 259.911 92.7633C259.709 92.6787 259.472 92.6364 259.197 92.6364H258.62ZM265.139 89.1494V95.5547H264.329V90.1601L262.698 90.7551V90.0245L265.012 89.1494H265.139Z" fill="#333333"/>
<path d="M278.851 93.869C278.616 94.1739 278.157 94.1739 277.922 93.869L276.066 91.4583C275.769 91.0726 276.044 90.5141 276.531 90.5141H280.242C280.729 90.5141 281.004 91.0726 280.707 91.4583L278.851 93.869Z" fill="#DD5E5E"/>
<rect x="295.385" y="85.0882" width="55.1271" height="12.9021" rx="2.0526" fill="#F4FFF4" stroke="#27C58B" stroke-width="0.586458"/>
<path d="M308.463 93.8765H308.546C309.013 93.8765 309.392 93.8109 309.684 93.6797C309.975 93.5484 310.2 93.3719 310.357 93.1503C310.515 92.9286 310.623 92.6792 310.681 92.4021C310.74 92.1221 310.769 91.8348 310.769 91.5402V90.5645C310.769 90.2758 310.735 90.0191 310.668 89.7945C310.604 89.5699 310.514 89.3818 310.397 89.2301C310.283 89.0784 310.153 88.9632 310.007 88.8845C309.862 88.8057 309.707 88.7663 309.544 88.7663C309.357 88.7663 309.189 88.8042 309.041 88.8801C308.895 88.953 308.771 89.0566 308.669 89.1907C308.57 89.3249 308.494 89.4824 308.441 89.6632C308.389 89.8441 308.362 90.041 308.362 90.2539C308.362 90.4435 308.386 90.6272 308.432 90.8052C308.479 90.9831 308.551 91.1435 308.647 91.2864C308.743 91.4294 308.863 91.5431 309.006 91.6277C309.151 91.7094 309.322 91.7502 309.517 91.7502C309.698 91.7502 309.867 91.7152 310.025 91.6452C310.185 91.5723 310.327 91.4746 310.449 91.3521C310.575 91.2266 310.674 91.0852 310.747 90.9277C310.823 90.7702 310.866 90.6054 310.878 90.4333H311.263C311.263 90.6754 311.215 90.9145 311.119 91.1508C311.025 91.3841 310.894 91.5971 310.725 91.7896C310.556 91.9821 310.357 92.1367 310.13 92.2533C309.902 92.3671 309.655 92.424 309.386 92.424C309.071 92.424 308.798 92.3627 308.568 92.2402C308.338 92.1177 308.148 91.9544 307.999 91.7502C307.853 91.546 307.744 91.3185 307.671 91.0677C307.601 90.8139 307.566 90.5572 307.566 90.2976C307.566 89.9943 307.608 89.7099 307.693 89.4445C307.778 89.1791 307.903 88.9457 308.069 88.7445C308.236 88.5403 308.441 88.3813 308.686 88.2676C308.934 88.1538 309.22 88.0969 309.544 88.0969C309.908 88.0969 310.219 88.1698 310.476 88.3157C310.732 88.4615 310.941 88.657 311.101 88.902C311.265 89.147 311.384 89.4226 311.46 89.7289C311.536 90.0351 311.574 90.3501 311.574 90.6739V90.967C311.574 91.2966 311.552 91.6321 311.508 91.9733C311.467 92.3117 311.387 92.6354 311.268 92.9446C311.151 93.2538 310.98 93.5309 310.756 93.7759C310.531 94.018 310.238 94.2105 309.876 94.3534C309.517 94.4934 309.074 94.5634 308.546 94.5634H308.463V93.8765ZM316.102 90.9714H316.68C316.963 90.9714 317.196 90.9248 317.38 90.8314C317.566 90.7352 317.705 90.6054 317.795 90.442C317.889 90.2758 317.935 90.0891 317.935 89.882C317.935 89.637 317.894 89.4314 317.813 89.2651C317.731 89.0988 317.609 88.9734 317.445 88.8888C317.282 88.8042 317.075 88.762 316.824 88.762C316.596 88.762 316.395 88.8072 316.22 88.8976C316.048 88.9851 315.913 89.1105 315.813 89.2739C315.717 89.4372 315.669 89.6297 315.669 89.8514H314.86C314.86 89.5276 314.941 89.233 315.105 88.9676C315.268 88.7022 315.497 88.4907 315.791 88.3332C316.089 88.1757 316.433 88.0969 316.824 88.0969C317.209 88.0969 317.546 88.1655 317.835 88.3026C318.123 88.4367 318.348 88.638 318.508 88.9063C318.669 89.1718 318.749 89.5028 318.749 89.8995C318.749 90.0599 318.711 90.232 318.635 90.4158C318.562 90.5966 318.447 90.7658 318.29 90.9233C318.135 91.0808 317.934 91.2106 317.686 91.3127C317.438 91.4119 317.14 91.4614 316.793 91.4614H316.102V90.9714ZM316.102 91.6364V91.1508H316.793C317.199 91.1508 317.534 91.1989 317.8 91.2952C318.065 91.3914 318.274 91.5198 318.425 91.6802C318.58 91.8406 318.688 92.0171 318.749 92.2096C318.813 92.3992 318.845 92.5888 318.845 92.7784C318.845 93.0759 318.794 93.3398 318.692 93.5703C318.593 93.8007 318.452 93.9961 318.268 94.1565C318.087 94.317 317.874 94.438 317.629 94.5197C317.384 94.6014 317.117 94.6422 316.828 94.6422C316.551 94.6422 316.29 94.6028 316.045 94.5241C315.803 94.4453 315.589 94.3316 315.402 94.1828C315.215 94.0311 315.07 93.8459 314.965 93.6272C314.86 93.4055 314.807 93.1532 314.807 92.8702H315.616C315.616 93.0919 315.665 93.2859 315.761 93.4521C315.86 93.6184 316 93.7482 316.181 93.8415C316.365 93.932 316.58 93.9772 316.828 93.9772C317.076 93.9772 317.289 93.9349 317.467 93.8503C317.648 93.7628 317.787 93.6315 317.883 93.4565C317.982 93.2815 318.032 93.0613 318.032 92.7959C318.032 92.5304 317.976 92.3131 317.865 92.144C317.754 91.9719 317.597 91.845 317.393 91.7633C317.192 91.6787 316.954 91.6364 316.68 91.6364H316.102ZM323.977 92.8309C323.977 93.2188 323.887 93.5484 323.706 93.8197C323.528 94.088 323.286 94.2922 322.98 94.4322C322.677 94.5722 322.334 94.6422 321.952 94.6422C321.57 94.6422 321.225 94.5722 320.919 94.4322C320.613 94.2922 320.371 94.088 320.193 93.8197C320.015 93.5484 319.926 93.2188 319.926 92.8309C319.926 92.5771 319.974 92.3452 320.07 92.1352C320.17 91.9223 320.308 91.7371 320.486 91.5796C320.667 91.4221 320.88 91.301 321.125 91.2164C321.373 91.1289 321.645 91.0852 321.943 91.0852C322.334 91.0852 322.682 91.161 322.989 91.3127C323.295 91.4614 323.536 91.6671 323.711 91.9296C323.888 92.1921 323.977 92.4925 323.977 92.8309ZM323.164 92.8134C323.164 92.5771 323.113 92.3686 323.011 92.1877C322.908 92.004 322.765 91.861 322.582 91.759C322.398 91.6569 322.185 91.6058 321.943 91.6058C321.695 91.6058 321.481 91.6569 321.3 91.759C321.122 91.861 320.983 92.004 320.884 92.1877C320.785 92.3686 320.735 92.5771 320.735 92.8134C320.735 93.0584 320.784 93.2684 320.88 93.4434C320.979 93.6155 321.119 93.7482 321.3 93.8415C321.484 93.932 321.701 93.9772 321.952 93.9772C322.203 93.9772 322.418 93.932 322.599 93.8415C322.78 93.7482 322.919 93.6155 323.015 93.4434C323.114 93.2684 323.164 93.0584 323.164 92.8134ZM323.829 89.8426C323.829 90.1518 323.747 90.4304 323.584 90.6783C323.42 90.9262 323.197 91.1216 322.914 91.2646C322.631 91.4075 322.31 91.4789 321.952 91.4789C321.587 91.4789 321.262 91.4075 320.976 91.2646C320.693 91.1216 320.471 90.9262 320.311 90.6783C320.151 90.4304 320.07 90.1518 320.07 89.8426C320.07 89.4722 320.151 89.1572 320.311 88.8976C320.474 88.638 320.697 88.4397 320.98 88.3026C321.263 88.1655 321.586 88.0969 321.947 88.0969C322.312 88.0969 322.636 88.1655 322.919 88.3026C323.202 88.4397 323.423 88.638 323.584 88.8976C323.747 89.1572 323.829 89.4722 323.829 89.8426ZM323.019 89.8557C323.019 89.6428 322.974 89.4547 322.884 89.2914C322.793 89.128 322.668 88.9997 322.507 88.9063C322.347 88.8101 322.16 88.762 321.947 88.762C321.734 88.762 321.548 88.8072 321.387 88.8976C321.23 88.9851 321.106 89.1105 321.015 89.2739C320.928 89.4372 320.884 89.6312 320.884 89.8557C320.884 90.0745 320.928 90.2656 321.015 90.4289C321.106 90.5922 321.231 90.7191 321.392 90.8095C321.552 90.9 321.739 90.9452 321.952 90.9452C322.165 90.9452 322.35 90.9 322.507 90.8095C322.668 90.7191 322.793 90.5922 322.884 90.4289C322.974 90.2656 323.019 90.0745 323.019 89.8557ZM329.175 93.8897V94.5547H325.006V93.9728L327.093 91.6496C327.349 91.3637 327.548 91.1216 327.688 90.9233C327.83 90.722 327.93 90.5427 327.985 90.3851C328.043 90.2247 328.073 90.0614 328.073 89.8951C328.073 89.6851 328.029 89.4955 327.941 89.3264C327.857 89.1543 327.731 89.0172 327.565 88.9151C327.399 88.813 327.198 88.762 326.961 88.762C326.678 88.762 326.442 88.8174 326.253 88.9282C326.066 89.0361 325.926 89.1878 325.832 89.3832C325.739 89.5787 325.692 89.8032 325.692 90.057H324.883C324.883 89.6982 324.962 89.3701 325.119 89.0726C325.277 88.7751 325.51 88.5388 325.819 88.3638C326.129 88.1859 326.509 88.0969 326.961 88.0969C327.364 88.0969 327.708 88.1684 327.994 88.3113C328.28 88.4513 328.498 88.6497 328.65 88.9063C328.805 89.1601 328.882 89.4576 328.882 89.7989C328.882 89.9855 328.85 90.1751 328.786 90.3676C328.724 90.5572 328.638 90.7468 328.528 90.9364C328.42 91.126 328.293 91.3127 328.147 91.4964C328.004 91.6802 327.851 91.861 327.688 92.039L325.981 93.8897H329.175Z" fill="#333333"/>
<path d="M339.608 89.797C339.373 89.4921 338.913 89.4921 338.679 89.797L336.823 92.2078C336.526 92.5934 336.801 93.152 337.288 93.152H340.999C341.486 93.152 341.761 92.5934 341.464 92.2078L339.608 89.797Z" fill="#27C58B"/>
<rect x="233.799" y="59.8674" width="55.1271" height="18.7667" rx="2.0526" fill="#FFF4F4" stroke="#FFDFDF" stroke-width="0.586458"/>
<path d="M247.509 66.2475V72.6309H246.249V67.7L244.735 68.1813V67.1881L247.373 66.2475H247.509ZM253.941 71.6464V72.6309H249.583V71.7908L251.644 69.5814C251.851 69.3509 252.014 69.1482 252.134 68.9732C252.253 68.7953 252.339 68.6363 252.392 68.4963C252.447 68.3534 252.475 68.2178 252.475 68.0894C252.475 67.8969 252.443 67.7321 252.379 67.595C252.314 67.455 252.22 67.3471 252.094 67.2713C251.972 67.1954 251.82 67.1575 251.639 67.1575C251.447 67.1575 251.28 67.2042 251.14 67.2975C251.003 67.3909 250.898 67.5207 250.825 67.6869C250.755 67.8532 250.72 68.0413 250.72 68.2513H249.456C249.456 67.8721 249.546 67.525 249.727 67.21C249.908 66.8921 250.163 66.6398 250.493 66.4531C250.823 66.2635 251.213 66.1687 251.666 66.1687C252.112 66.1687 252.488 66.2416 252.794 66.3875C253.103 66.5304 253.337 66.7375 253.494 67.0088C253.655 67.2771 253.735 67.5979 253.735 67.9713C253.735 68.1813 253.701 68.3869 253.634 68.5882C253.567 68.7865 253.471 68.9849 253.346 69.1832C253.223 69.3786 253.074 69.577 252.899 69.7782C252.724 69.9795 252.53 70.1881 252.317 70.4039L251.21 71.6464H253.941ZM261.287 66.2606V66.9388L258.823 72.6309H257.493L259.956 67.245H256.784V66.2606H261.287ZM265.176 66.2475V72.6309H263.916V67.7L262.402 68.1813V67.1881L265.04 66.2475H265.176ZM270.501 66.195H270.684V67.2013H270.61C270.278 67.2013 269.981 67.2509 269.722 67.35C269.462 67.4492 269.242 67.5907 269.061 67.7744C268.883 67.9553 268.746 68.174 268.65 68.4307C268.557 68.6874 268.51 68.9747 268.51 69.2926V70.3514C268.51 70.5789 268.532 70.7802 268.576 70.9552C268.622 71.1273 268.688 71.2716 268.772 71.3883C268.86 71.5021 268.962 71.5881 269.079 71.6464C269.195 71.7019 269.327 71.7296 269.472 71.7296C269.61 71.7296 269.734 71.7004 269.844 71.6421C269.958 71.5837 270.054 71.5021 270.133 71.3971C270.215 71.2891 270.276 71.1637 270.317 71.0208C270.361 70.875 270.383 70.716 270.383 70.5439C270.383 70.3718 270.361 70.2128 270.317 70.067C270.276 69.9212 270.215 69.7957 270.133 69.6907C270.051 69.5828 269.952 69.4997 269.836 69.4414C269.719 69.383 269.588 69.3539 269.442 69.3539C269.244 69.3539 269.069 69.4005 268.917 69.4939C268.768 69.5843 268.651 69.701 268.567 69.8439C268.482 69.9868 268.437 70.137 268.431 70.2945L268.051 70.0495C268.059 69.8249 268.106 69.612 268.191 69.4107C268.278 69.2095 268.398 69.0315 268.549 68.877C268.704 68.7195 268.889 68.5969 269.105 68.5094C269.321 68.419 269.564 68.3738 269.836 68.3738C270.133 68.3738 270.394 68.4307 270.619 68.5444C270.846 68.6582 271.036 68.8142 271.188 69.0126C271.339 69.2109 271.453 69.4399 271.529 69.6995C271.605 69.9591 271.643 70.2362 271.643 70.5308C271.643 70.84 271.592 71.1273 271.489 71.3927C271.39 71.6581 271.246 71.89 271.056 72.0883C270.87 72.2867 270.645 72.4413 270.383 72.5521C270.12 72.6629 269.825 72.7184 269.499 72.7184C269.16 72.7184 268.853 72.6571 268.576 72.5346C268.301 72.4092 268.065 72.2342 267.867 72.0096C267.668 71.785 267.515 71.5181 267.407 71.2089C267.302 70.8997 267.25 70.5614 267.25 70.1939V69.7039C267.25 69.1905 267.324 68.7209 267.473 68.2951C267.625 67.8663 267.842 67.4959 268.125 67.1838C268.408 66.8688 268.749 66.6252 269.149 66.4531C269.548 66.281 269.999 66.195 270.501 66.195Z" fill="#333333"/>
<path d="M278.2 71.2869C278.434 71.5919 278.894 71.5919 279.129 71.2869L280.985 68.8762C281.282 68.4906 281.007 67.932 280.52 67.932H276.808C276.322 67.932 276.047 68.4906 276.344 68.8762L278.2 71.2869Z" fill="#DD5E5E"/>
<rect x="295.385" y="59.8694" width="55.1271" height="18.7667" rx="2.0526" fill="#F4FFF4" stroke="#27C58B" stroke-width="0.586458"/>
<path d="M339.954 67.8039C339.72 67.4989 339.26 67.4989 339.025 67.8039L337.169 70.2146C336.872 70.6002 337.147 71.1588 337.634 71.1588H341.345C341.832 71.1588 342.107 70.6002 341.81 70.2146L339.954 67.8039Z" fill="#27C58B"/>
<path d="M309.705 72.2832V73.2676H305.348V72.4275L307.408 70.2181C307.615 69.9877 307.779 69.7849 307.898 69.6099C308.018 69.432 308.104 69.273 308.156 69.133C308.212 68.9901 308.239 68.8545 308.239 68.7261C308.239 68.5336 308.207 68.3688 308.143 68.2318C308.079 68.0917 307.984 67.9838 307.859 67.908C307.736 67.8322 307.585 67.7942 307.404 67.7942C307.211 67.7942 307.045 67.8409 306.905 67.9342C306.768 68.0276 306.663 68.1574 306.59 68.3236C306.52 68.4899 306.485 68.678 306.485 68.888H305.221C305.221 68.5088 305.311 68.1617 305.492 67.8467C305.673 67.5288 305.928 67.2765 306.258 67.0898C306.587 66.9002 306.978 66.8054 307.43 66.8054C307.876 66.8054 308.253 66.8784 308.559 67.0242C308.868 67.1671 309.101 67.3742 309.259 67.6455C309.419 67.9138 309.5 68.2347 309.5 68.608C309.5 68.818 309.466 69.0237 309.399 69.2249C309.332 69.4233 309.236 69.6216 309.11 69.8199C308.988 70.0154 308.839 70.2137 308.664 70.415C308.489 70.6162 308.295 70.8248 308.082 71.0406L306.975 72.2832H309.705ZM311.385 72.3094H311.468C311.818 72.3094 312.119 72.2671 312.37 72.1825C312.623 72.095 312.832 71.9696 312.995 71.8063C313.159 71.6429 313.28 71.4431 313.358 71.2069C313.437 70.9677 313.477 70.6964 313.477 70.3931V69.1855C313.477 68.9551 313.453 68.7524 313.407 68.5774C313.363 68.4024 313.299 68.258 313.214 68.1442C313.132 68.0276 313.036 67.9401 312.925 67.8817C312.817 67.8234 312.698 67.7942 312.567 67.7942C312.427 67.7942 312.303 67.8292 312.195 67.8992C312.087 67.9663 311.995 68.0582 311.919 68.1749C311.846 68.2915 311.789 68.4257 311.748 68.5774C311.71 68.7261 311.692 68.8822 311.692 69.0455C311.692 69.2089 311.71 69.3649 311.748 69.5137C311.786 69.6595 311.843 69.7893 311.919 69.9031C311.995 70.0139 312.09 70.1029 312.203 70.17C312.317 70.2341 312.451 70.2662 312.606 70.2662C312.755 70.2662 312.887 70.2385 313.004 70.1831C313.124 70.1247 313.224 70.0489 313.306 69.9556C313.391 69.8622 313.455 69.7587 313.498 69.6449C313.545 69.5312 313.568 69.416 313.568 69.2993L313.984 69.5268C313.984 69.731 313.94 69.9322 313.853 70.1306C313.765 70.3289 313.643 70.5098 313.485 70.6731C313.331 70.8335 313.151 70.9619 312.947 71.0581C312.743 71.1544 312.524 71.2025 312.291 71.2025C311.993 71.2025 311.729 71.1485 311.499 71.0406C311.269 70.9298 311.073 70.7781 310.913 70.5856C310.755 70.3902 310.636 70.1627 310.554 69.9031C310.472 69.6435 310.431 69.362 310.431 69.0587C310.431 68.7495 310.481 68.4593 310.58 68.188C310.682 67.9167 310.827 67.6776 311.013 67.4705C311.203 67.2634 311.429 67.1015 311.692 66.9848C311.957 66.8652 312.252 66.8054 312.575 66.8054C312.899 66.8054 313.194 66.8682 313.459 66.9936C313.725 67.119 313.952 67.2969 314.142 67.5273C314.331 67.7549 314.477 68.0276 314.579 68.3455C314.684 68.6634 314.737 69.0164 314.737 69.4043V69.8418C314.737 70.256 314.691 70.641 314.601 70.9969C314.513 71.3527 314.381 71.675 314.203 71.9638C314.028 72.2496 313.809 72.4946 313.547 72.6988C313.287 72.903 312.985 73.059 312.641 73.1669C312.297 73.2749 311.912 73.3288 311.486 73.3288H311.385V72.3094ZM322.227 72.2832V73.2676H317.869V72.4275L319.93 70.2181C320.137 69.9877 320.3 69.7849 320.42 69.6099C320.54 69.432 320.626 69.273 320.678 69.133C320.734 68.9901 320.761 68.8545 320.761 68.7261C320.761 68.5336 320.729 68.3688 320.665 68.2318C320.601 68.0917 320.506 67.9838 320.381 67.908C320.258 67.8322 320.106 67.7942 319.926 67.7942C319.733 67.7942 319.567 67.8409 319.427 67.9342C319.29 68.0276 319.185 68.1574 319.112 68.3236C319.042 68.4899 319.007 68.678 319.007 68.888H317.742C317.742 68.5088 317.833 68.1617 318.014 67.8467C318.194 67.5288 318.45 67.2765 318.779 67.0898C319.109 66.9002 319.5 66.8054 319.952 66.8054C320.398 66.8054 320.774 66.8784 321.081 67.0242C321.39 67.1671 321.623 67.3742 321.781 67.6455C321.941 67.9138 322.021 68.2347 322.021 68.608C322.021 68.818 321.988 69.0237 321.921 69.2249C321.854 69.4233 321.757 69.6216 321.632 69.8199C321.509 70.0154 321.361 70.2137 321.186 70.415C321.011 70.6162 320.817 70.8248 320.604 71.0406L319.497 72.2832H322.227ZM326.265 66.8317H326.449V67.838H326.375C326.042 67.838 325.746 67.8876 325.486 67.9867C325.227 68.0859 325.007 68.2274 324.826 68.4111C324.648 68.592 324.511 68.8107 324.415 69.0674C324.321 69.3241 324.275 69.6114 324.275 69.9293V70.9881C324.275 71.2156 324.296 71.4169 324.34 71.5919C324.387 71.764 324.452 71.9084 324.537 72.025C324.625 72.1388 324.727 72.2248 324.843 72.2832C324.96 72.3386 325.091 72.3663 325.237 72.3663C325.374 72.3663 325.498 72.3371 325.609 72.2788C325.723 72.2205 325.819 72.1388 325.898 72.0338C325.979 71.9259 326.041 71.8004 326.081 71.6575C326.125 71.5117 326.147 71.3527 326.147 71.1806C326.147 71.0085 326.125 70.8496 326.081 70.7037C326.041 70.5579 325.979 70.4325 325.898 70.3275C325.816 70.2195 325.717 70.1364 325.6 70.0781C325.484 70.0197 325.352 69.9906 325.206 69.9906C325.008 69.9906 324.833 70.0372 324.681 70.1306C324.533 70.221 324.416 70.3377 324.331 70.4806C324.247 70.6235 324.202 70.7737 324.196 70.9312L323.815 70.6862C323.824 70.4616 323.871 70.2487 323.955 70.0474C324.043 69.8462 324.162 69.6683 324.314 69.5137C324.468 69.3562 324.654 69.2337 324.87 69.1462C325.085 69.0557 325.329 69.0105 325.6 69.0105C325.898 69.0105 326.159 69.0674 326.383 69.1812C326.611 69.2949 326.8 69.451 326.952 69.6493C327.104 69.8476 327.218 70.0766 327.293 70.3362C327.369 70.5958 327.407 70.8729 327.407 71.1675C327.407 71.4767 327.356 71.764 327.254 72.0294C327.155 72.2948 327.01 72.5267 326.821 72.7251C326.634 72.9234 326.41 73.078 326.147 73.1888C325.885 73.2997 325.59 73.3551 325.263 73.3551C324.925 73.3551 324.617 73.2938 324.34 73.1713C324.066 73.0459 323.83 72.8709 323.631 72.6463C323.433 72.4217 323.28 72.1548 323.172 71.8456C323.067 71.5365 323.014 71.1981 323.014 70.8306V70.3406C323.014 69.8272 323.089 69.3576 323.238 68.9318C323.389 68.503 323.607 68.1326 323.889 67.8205C324.172 67.5055 324.514 67.2619 324.913 67.0898C325.313 66.9177 325.764 66.8317 326.265 66.8317ZM332.447 69.5224V70.625C332.447 71.1033 332.396 71.516 332.294 71.8631C332.192 72.2073 332.045 72.4903 331.852 72.7119C331.663 72.9307 331.437 73.0926 331.174 73.1976C330.912 73.3026 330.62 73.3551 330.299 73.3551C330.042 73.3551 329.803 73.323 329.582 73.2588C329.36 73.1917 329.16 73.0882 328.982 72.9482C328.807 72.8082 328.656 72.6317 328.527 72.4188C328.402 72.203 328.306 71.9463 328.238 71.6488C328.171 71.3513 328.138 71.01 328.138 70.625V69.5224C328.138 69.0441 328.189 68.6343 328.291 68.293C328.396 67.9488 328.543 67.6674 328.733 67.4486C328.925 67.2298 329.153 67.0694 329.415 66.9673C329.678 66.8623 329.97 66.8098 330.29 66.8098C330.547 66.8098 330.785 66.8434 331.004 66.9104C331.225 66.9746 331.425 67.0752 331.603 67.2123C331.781 67.3494 331.933 67.5259 332.058 67.7417C332.183 67.9547 332.28 68.2099 332.347 68.5074C332.414 68.802 332.447 69.1403 332.447 69.5224ZM331.183 70.7912V69.3518C331.183 69.1214 331.17 68.9201 331.144 68.748C331.12 68.5759 331.084 68.4301 331.034 68.3105C330.985 68.188 330.923 68.0888 330.85 68.013C330.777 67.9372 330.694 67.8817 330.601 67.8467C330.508 67.8117 330.404 67.7942 330.29 67.7942C330.147 67.7942 330.021 67.8219 329.91 67.8774C329.802 67.9328 329.71 68.0217 329.634 68.1442C329.558 68.2638 329.5 68.4243 329.459 68.6255C329.421 68.8239 329.402 69.066 329.402 69.3518V70.7912C329.402 71.0217 329.414 71.2244 329.437 71.3994C329.463 71.5744 329.501 71.7246 329.551 71.85C329.603 71.9725 329.665 72.0732 329.735 72.1519C329.808 72.2277 329.891 72.2832 329.984 72.3182C330.08 72.3532 330.185 72.3707 330.299 72.3707C330.439 72.3707 330.563 72.343 330.671 72.2875C330.782 72.2292 330.875 72.1388 330.951 72.0163C331.03 71.8909 331.088 71.7275 331.126 71.5263C331.164 71.325 331.183 71.08 331.183 70.7912Z" fill="#333333"/>
</svg>
