<svg width="26" height="26" viewBox="0 0 26 26" fill="none" xmlns="http://www.w3.org/2000/svg">
<path fill-rule="evenodd" clip-rule="evenodd" d="M18.5551 6.0558C18.5551 4.58237 17.9698 3.1693 16.9279 2.12743C15.886 1.08556 14.4729 0.500244 12.9995 0.500244C11.5261 0.500244 10.113 1.08556 9.07114 2.12743C8.02927 3.1693 7.44396 4.58237 7.44396 6.0558C7.44396 7.52922 8.02927 8.9423 9.07114 9.98417C10.113 11.026 11.5261 11.6114 12.9995 11.6114C14.4729 11.6114 15.886 11.026 16.9279 9.98417C17.9698 8.9423 18.5551 7.52922 18.5551 6.0558ZM18.5551 14.3891C20.3968 14.3891 22.1632 15.1208 23.4655 16.4231C24.7679 17.7254 25.4995 19.4918 25.4995 21.3336C25.4995 22.4386 25.0605 23.4985 24.2791 24.2799C23.4977 25.0613 22.4379 25.5002 21.3328 25.5002H4.66618C3.56111 25.5002 2.5013 25.0613 1.7199 24.2799C0.938499 23.4985 0.499514 22.4386 0.499512 21.3336C0.499512 19.4918 1.23116 17.7254 2.53349 16.4231C3.83583 15.1208 5.60217 14.3891 7.44396 14.3891H18.5551Z" fill="#27C58B"/>
</svg>
