<svg width="82" height="79" viewBox="0 0 82 79" fill="none" xmlns="http://www.w3.org/2000/svg">
<path d="M0 14.5602C0 6.60726 6.4471 0.160156 14.4 0.160156H67.6C75.5529 0.160156 82 6.60726 82 14.5602V63.7602C82 71.7131 75.5529 78.1602 67.6 78.1602H14.4C6.4471 78.1602 0 71.7131 0 63.7602V14.5602Z" fill="#438EDC" fill-opacity="0.1"/>
<g clip-path="url(#clip0_49_6547)">
<g clip-path="url(#clip1_49_6547)">
<path d="M44.1347 17.2859L45.9031 18.3309C49.279 20.26 50.4848 24.6006 48.5556 27.9766L31.4346 57.637C29.5054 61.013 25.1649 62.2187 21.7889 60.2896L20.0205 59.2446C16.6445 57.3155 15.4388 52.9749 17.3679 49.5989L34.489 19.8581C36.4181 16.4018 40.7587 15.196 44.1347 17.2859Z" fill="#FBBD04"/>
<path d="M36.0961 18.0896L37.8645 17.0447C41.2405 15.1156 45.581 16.3213 47.5102 19.6973L64.6312 49.3577C66.5604 52.7337 65.3547 57.0742 61.9787 59.0034L60.2103 60.0483C56.8343 61.9775 52.4938 60.7718 50.5646 57.3958L33.4436 27.8157C31.5948 24.4397 32.7201 20.0992 36.0961 18.0896Z" fill="#438EDC"/>
<path d="M25.0836 60.6916C29.6117 60.6916 33.2824 57.0209 33.2824 52.4928C33.2824 47.9647 29.6117 44.2939 25.0836 44.2939C20.5555 44.2939 16.8848 47.9647 16.8848 52.4928C16.8848 57.0209 20.5555 60.6916 25.0836 60.6916Z" fill="#34A952"/>
</g>
</g>
<defs>
<clipPath id="clip0_49_6547">
<rect width="50" height="46.46" fill="white" transform="translate(16 16.1602)"/>
</clipPath>
<clipPath id="clip1_49_6547">
<rect width="49.9967" height="46.46" fill="white" transform="translate(16.002 16.1602)"/>
</clipPath>
</defs>
</svg>
