<svg width="130" height="120" viewBox="0 0 130 120" fill="none" xmlns="http://www.w3.org/2000/svg">
<circle cx="65" cy="60" r="49" fill="#F4FFF4" stroke="#29B74D" stroke-width="2"/>
<rect x="13" y="81" width="36" height="36" rx="18" fill="#F4FFF4" stroke="#29B74D" stroke-width="2"/>
<path d="M32.8164 91.7324V106H30.4629V94.5254L26.9766 95.707V93.7637L32.5332 91.7324H32.8164Z" fill="#29B74D"/>
<g filter="url(#filter0_d_79_7745)">
<path d="M54.005 53.9843L46.7979 60L54.005 66.0156C54.2487 66.2106 54.451 66.4523 54.6 66.7266C54.7491 67.0008 54.8418 67.3021 54.8728 67.6127C54.9039 67.9233 54.8725 68.2369 54.7807 68.5353C54.6888 68.8336 54.5383 69.1105 54.338 69.3499C54.1377 69.5893 53.8915 69.7862 53.6141 69.9292C53.3366 70.0721 53.0334 70.1582 52.7222 70.1823C52.411 70.2065 52.0981 70.1683 51.8018 70.0699C51.5056 69.9715 51.232 69.8149 50.9972 69.6093L41.6222 61.7968C41.3595 61.5769 41.1482 61.302 41.0033 60.9915C40.8583 60.6811 40.7832 60.3426 40.7832 60C40.7832 59.6573 40.8583 59.3189 41.0033 59.0084C41.1482 58.698 41.3595 58.4231 41.6222 58.2031L50.9972 50.3906C51.4755 50.0078 52.0848 49.8276 52.6944 49.8885C53.304 49.9494 53.8655 50.2465 54.2588 50.7164C54.652 51.1862 54.8456 51.7913 54.7982 52.4021C54.7507 53.0129 54.466 53.5809 54.005 53.9843ZM88.38 58.2031L79.005 50.3906C78.5266 50.0078 77.9174 49.8276 77.3078 49.8885C76.6981 49.9494 76.1366 50.2465 75.7434 50.7164C75.3502 51.1862 75.1565 51.7913 75.204 52.4021C75.2514 53.0129 75.5361 53.5809 75.9972 53.9843L83.2237 60L75.9972 66.0156C75.759 66.2116 75.5623 66.453 75.4184 66.7259C75.2745 66.9987 75.1864 67.2974 75.1591 67.6046C75.1319 67.9118 75.166 68.2214 75.2596 68.5153C75.3532 68.8092 75.5043 69.0815 75.7042 69.3164C75.9258 69.5772 76.201 69.7872 76.5111 69.9321C76.8212 70.0771 77.1588 70.1535 77.5011 70.1562C78.051 70.156 78.5834 69.9624 79.005 69.6093L88.38 61.7968C88.6427 61.5769 88.8539 61.302 88.9989 60.9915C89.1438 60.6811 89.2189 60.3426 89.2189 60C89.2189 59.6573 89.1438 59.3189 88.9989 59.0084C88.8539 58.698 88.6427 58.4231 88.38 58.2031ZM72.0518 40.6054C71.4663 40.3973 70.8223 40.4282 70.2594 40.6914C69.6964 40.9546 69.2598 41.4289 69.044 42.0117L56.544 76.3867C56.3359 76.9722 56.3668 77.6162 56.63 78.1792C56.8932 78.7421 57.3675 79.1787 57.9503 79.3945C58.207 79.4871 58.4781 79.5334 58.7511 79.5312C59.2329 79.5321 59.7034 79.3844 60.0983 79.1083C60.4932 78.8322 60.7935 78.4411 60.9581 77.9883L73.4581 43.6132C73.6662 43.0277 73.6354 42.3837 73.3722 41.8208C73.109 41.2578 72.6346 40.8212 72.0518 40.6054Z" fill="#2AB74E"/>
</g>
<defs>
<filter id="filter0_d_79_7745" x="0.783203" y="0.468933" width="128.436" height="119.062" filterUnits="userSpaceOnUse" color-interpolation-filters="sRGB">
<feFlood flood-opacity="0" result="BackgroundImageFix"/>
<feColorMatrix in="SourceAlpha" type="matrix" values="0 0 0 0 0 0 0 0 0 0 0 0 0 0 0 0 0 0 127 0" result="hardAlpha"/>
<feOffset/>
<feGaussianBlur stdDeviation="20"/>
<feComposite in2="hardAlpha" operator="out"/>
<feColorMatrix type="matrix" values="0 0 0 0 0.164706 0 0 0 0 0.717647 0 0 0 0 0.305882 0 0 0 0.6 0"/>
<feBlend mode="normal" in2="BackgroundImageFix" result="effect1_dropShadow_79_7745"/>
<feBlend mode="normal" in="SourceGraphic" in2="effect1_dropShadow_79_7745" result="shape"/>
</filter>
</defs>
</svg>
