<svg width="27" height="29" fill="none" xmlns="http://www.w3.org/2000/svg"><path d="M4.214 5.906h8.205V1.803a1.025 1.025 0 1 1 2.051 0v4.103h8.205a4.115 4.115 0 0 1 4.103 4.102v14.36a4.115 4.115 0 0 1-4.103 4.102H4.214A4.116 4.116 0 0 1 .11 24.367V10.008a4.115 4.115 0 0 1 4.103-4.102Zm16.41 7.692a1.538 1.538 0 1 0-3.077 0 1.538 1.538 0 0 0 3.077 0Zm-3.59 9.743h1.026a2.051 2.051 0 0 0 0-4.102h-1.026v4.102Zm-5.128 0h3.077V19.24h-3.077v4.102Zm-3.077 0h1.026V19.24H8.829a2.051 2.051 0 1 0 0 4.102Zm-1.026-8.205a1.538 1.538 0 1 0 0-3.076 1.538 1.538 0 0 0 0 3.076Z" fill="#DB5454"/></svg>