<svg width="87" height="31" fill="none" xmlns="http://www.w3.org/2000/svg"><g clip-path="url(#a)"><rect width="87" height="31" rx="4" fill="#FCFCFC"/><g clip-path="url(#b)"><g clip-path="url(#c)"><path d="M14.916 25.653c-4.3 1.1-8.964 2.3-11.799 2.79-.047-.034-.013-.082-.026-.164a59.745 59.745 0 0 1-.861-4.845l-2.965.468c.524 3.8 1.32 6.925 1.509 7.57a.183.183 0 0 0 .06.117s10.018-2.045 14.604-2.938l-.522-2.998Z" fill="#4EB594"/><path d="m16.854 9.308-9.126-2.4s-2.803 5.17-3.508 9.46c-.62 3.77.298 9.239.494 9.672.473.052 6.239-.858 9.63-2.617 3.86-2.002 7.624-6.184 7.624-6.184l-5.114-7.93Z" fill="#3D88C8"/><path d="M28.35 17.497 20.423 4.396 5.51.925S-.11 6.96-.988 15.71a30.655 30.655 0 0 0 .007 5.317l2.966-.468c-.12-1.543-.124-3.146.028-4.563.436-4.923 2.842-9.144 4.385-11.371 1.419.156 10.744 2.483 11.846 2.773.57.923 5.723 9.1 6.312 10.4-1.328 1.73-3.69 4.382-6.912 6.41l.515 3.211c6.826-3.779 10.19-9.924 10.19-9.924Z" fill="#3D88C8"/><path d="m15.41 28.702-.488-3.047c-4.3 1.1-8.963 2.301-11.798 2.791C3.076 28.411.806 31.64.806 31.64s9.97-2.08 14.604-2.938Z" fill="#029E81"/><path d="m17.641 24.21.515 3.21c6.826-3.778 10.19-9.923 10.19-9.923l-7.926-13.1L18.24 7.4c.57.923 5.723 9.1 6.312 10.4-1.328 1.73-3.69 4.381-6.912 6.41Z" fill="#057BAA"/><path d="M21.97 17.237s-3.764 4.182-7.624 6.184c-3.392 1.76-9.158 2.67-9.63 2.617l12.14-16.731 5.113 7.93Z" fill="#057BAA"/></g></g><path d="M36.16 10.592h-.987v-.698h.85c.302 0 .548-.044.737-.132a.875.875 0 0 0 .41-.376c.088-.163.132-.352.132-.567a.98.98 0 0 0-.586-.908c-.199-.098-.454-.146-.767-.146a1.57 1.57 0 0 0-.64.127 1.123 1.123 0 0 0-.458.356.9.9 0 0 0-.166.542h-1.226c0-.31.065-.586.195-.83.134-.247.314-.457.542-.63.231-.172.497-.304.796-.395a3.18 3.18 0 0 1 .957-.142c.39 0 .744.044 1.06.132.316.084.587.211.815.38.228.17.402.382.523.635.12.251.18.542.18.874 0 .245-.057.474-.17.689a1.71 1.71 0 0 1-.48.566 2.408 2.408 0 0 1-.751.386c-.29.091-.612.137-.967.137Zm-.987-.425h.986c.394 0 .744.04 1.05.122.306.081.565.2.776.357.212.156.373.35.484.58.11.228.166.49.166.787 0 .332-.067.628-.2.888a1.85 1.85 0 0 1-.557.655 2.565 2.565 0 0 1-.855.405 3.974 3.974 0 0 1-1.074.137c-.316 0-.628-.04-.937-.118a2.806 2.806 0 0 1-.835-.37 1.946 1.946 0 0 1-.596-.645c-.15-.26-.225-.573-.225-.938h1.23c0 .202.058.388.172.557.117.166.276.3.478.4.205.098.443.147.713.147.31 0 .572-.049.786-.147a1.13 1.13 0 0 0 .498-.4.98.98 0 0 0 .176-.571c0-.202-.03-.376-.093-.523a.83.83 0 0 0-.263-.361 1.152 1.152 0 0 0-.435-.21 2.346 2.346 0 0 0-.596-.068h-.85v-.684Zm7.485 2.773v-2.52c0-.188-.034-.35-.102-.487a.719.719 0 0 0-.313-.318 1.07 1.07 0 0 0-.517-.112c-.193 0-.358.032-.498.098a.805.805 0 0 0-.328.263.636.636 0 0 0-.117.376h-1.172c0-.208.05-.41.152-.605.1-.196.247-.37.44-.523a2.17 2.17 0 0 1 .688-.361c.267-.088.566-.132.898-.132.397 0 .749.067 1.055.2.309.134.551.336.727.606.18.267.269.602.269 1.006v2.348c0 .241.016.458.049.65.035.188.086.353.151.493V14h-1.206a2.084 2.084 0 0 1-.132-.483 3.961 3.961 0 0 1-.044-.577Zm.171-2.153.01.728h-.845c-.218 0-.41.02-.576.063-.166.04-.304.098-.415.176a.763.763 0 0 0-.332.66c0 .14.032.268.098.385.065.114.16.203.283.268.127.066.28.098.459.098.24 0 .45-.049.63-.146.182-.101.325-.223.43-.367a.797.797 0 0 0 .165-.415l.381.523a1.79 1.79 0 0 1-.2.43 2.092 2.092 0 0 1-.371.439 1.844 1.844 0 0 1-1.265.469c-.345 0-.652-.069-.923-.205a1.642 1.642 0 0 1-.634-.562 1.456 1.456 0 0 1-.23-.806c0-.28.052-.527.156-.742.108-.218.264-.4.47-.547a2.27 2.27 0 0 1 .76-.332 4.09 4.09 0 0 1 1.026-.117h.923Zm10.049 2.28-.093 2.5h-1.079V14h-.635v-.933h1.807Zm-7.803-4.35h1.177v4.345h1.68V8.718h1.181v4.345h1.675V8.718h1.177V14h-6.89V8.717Zm9.893 3.564 2.075-3.564h1.177V14h-1.177v-3.57L54.968 14H53.79V8.717h1.177v3.564Zm12.304.786-.092 2.5H66.1V14h-.634v-.933h1.806Zm-7.802-4.35h1.177v4.345h1.68V8.718h1.18v4.345h1.676V8.718h1.176V14h-6.89V8.717Zm11.006 5.38c-.391 0-.744-.063-1.06-.19-.313-.13-.58-.31-.8-.542a2.402 2.402 0 0 1-.504-.815 2.855 2.855 0 0 1-.175-1.01v-.196c0-.414.06-.788.18-1.123a2.55 2.55 0 0 1 .503-.86c.215-.24.469-.424.762-.551.293-.127.61-.19.952-.19a2.4 2.4 0 0 1 .991.19c.283.127.518.306.703.537.19.228.33.5.42.815.095.316.142.664.142 1.045v.503h-4.082v-.845h2.92v-.092a1.652 1.652 0 0 0-.127-.596 1.012 1.012 0 0 0-.347-.45c-.156-.113-.364-.17-.625-.17a1.03 1.03 0 0 0-.898.483c-.101.156-.18.345-.235.566a3.182 3.182 0 0 0-.078.738v.195c0 .231.031.446.093.645.065.195.16.366.283.512.124.147.274.262.45.347.175.081.375.122.6.122.283 0 .535-.057.757-.17.221-.115.413-.276.576-.484l.62.6a2.42 2.42 0 0 1-.444.479 2.22 2.22 0 0 1-.67.366 2.66 2.66 0 0 1-.907.142Zm6.64-3.173v.928h-2.734v-.928h2.734Zm-2.392-2.207V14h-1.177V8.717h1.177Zm3.242 0V14h-1.177V8.717h1.177Zm-44.585 13.7v-.112c0-.381.055-.734.166-1.06.11-.329.27-.614.478-.854a2.16 2.16 0 0 1 .772-.567 2.511 2.511 0 0 1 1.035-.205 2.5 2.5 0 0 1 1.035.205c.306.134.565.322.777.567.211.24.372.525.483.854.11.326.166.679.166 1.06v.112c0 .38-.055.734-.166 1.06-.11.325-.272.61-.483.854-.212.24-.47.43-.772.567-.303.133-.646.2-1.03.2-.388 0-.734-.067-1.04-.2a2.241 2.241 0 0 1-.772-.567 2.536 2.536 0 0 1-.483-.854 3.271 3.271 0 0 1-.166-1.06Zm1.177-.112v.112c0 .238.024.462.073.674.049.211.125.397.23.556.104.16.237.285.4.376.162.092.356.137.58.137a1.113 1.113 0 0 0 .967-.512c.105-.16.181-.346.23-.557a2.81 2.81 0 0 0 .078-.674v-.112a2.73 2.73 0 0 0-.078-.664 1.706 1.706 0 0 0-.234-.562 1.12 1.12 0 0 0-.972-.522c-.221 0-.413.047-.576.141-.16.091-.291.218-.396.381a1.77 1.77 0 0 0-.23.562 2.9 2.9 0 0 0-.072.664Zm7.055-2.588V25h-1.181v-5.283h1.181Zm1.734 0v.928h-4.62v-.928h4.62Zm6.591-2.315h.953c0 .29-.041.53-.122.718a1.116 1.116 0 0 1-.352.46 1.837 1.837 0 0 1-.571.282 7.188 7.188 0 0 1-.781.196 2.56 2.56 0 0 0-.743.278 1.622 1.622 0 0 0-.552.522c-.146.222-.252.507-.317.855s-.085.773-.059 1.274v.332l-.932.083v-.332c0-.621.057-1.163.17-1.626.115-.462.276-.85.484-1.167.212-.319.462-.573.752-.761.293-.19.619-.32.977-.391a6.53 6.53 0 0 0 .61-.156.863.863 0 0 0 .361-.21.504.504 0 0 0 .122-.357Zm-.825 2.613c.352 0 .664.061.938.185.273.12.504.29.693.508.189.218.332.475.43.772a3 3 0 0 1 .151.966v.108c0 .364-.053.701-.16 1.01a2.34 2.34 0 0 1-.475.811 2.2 2.2 0 0 1-.766.537c-.3.127-.643.19-1.03.19-.385 0-.728-.066-1.03-.2a2.165 2.165 0 0 1-.767-.556 2.47 2.47 0 0 1-.474-.845 3.318 3.318 0 0 1-.161-1.055v-.107a.352.352 0 0 1 .054-.2c.042-.065.092-.135.151-.21.059-.075.11-.161.156-.26.163-.328.355-.616.576-.863.222-.248.474-.441.757-.581.287-.14.606-.21.957-.21Zm-.23.932c-.292 0-.531.07-.717.21a1.21 1.21 0 0 0-.405.547 2.116 2.116 0 0 0-.127.742v.108c0 .218.024.425.073.62.049.195.122.368.22.517.1.147.23.262.39.347.163.085.355.127.577.127.224 0 .415-.042.57-.127.16-.085.289-.2.387-.347.1-.15.174-.322.22-.517a2.55 2.55 0 0 0 .073-.62v-.108c0-.202-.025-.392-.074-.571a1.349 1.349 0 0 0-.22-.474c-.1-.14-.23-.25-.39-.332a1.256 1.256 0 0 0-.576-.122Zm3.14 1.47v-.112c0-.381.056-.734.166-1.06a2.5 2.5 0 0 1 .479-.854 2.16 2.16 0 0 1 .772-.567 2.511 2.511 0 0 1 1.035-.205c.387 0 .732.069 1.035.205.306.134.565.322.776.567.212.24.373.525.483.854.111.326.166.679.166 1.06v.112c0 .38-.055.734-.166 1.06-.11.325-.271.61-.483.854-.212.24-.469.43-.771.567a2.53 2.53 0 0 1-1.03.2 2.58 2.58 0 0 1-1.04-.2 2.241 2.241 0 0 1-.772-.567 2.535 2.535 0 0 1-.483-.854 3.271 3.271 0 0 1-.167-1.06Zm1.177-.112v.112c0 .238.025.462.073.674.05.211.126.397.23.556.104.16.238.285.4.376.163.092.357.137.581.137a1.118 1.118 0 0 0 .967-.512c.104-.16.18-.346.23-.557.052-.212.078-.436.078-.674v-.112c0-.235-.026-.456-.078-.664a1.708 1.708 0 0 0-.235-.562 1.12 1.12 0 0 0-.971-.522c-.222 0-.414.047-.577.141-.16.091-.29.218-.395.381-.104.163-.18.35-.23.562a2.95 2.95 0 0 0-.073.664Zm7.056-2.588V25h-1.182v-5.283h1.182Zm1.733 0v.928H57.37v-.928h4.62Zm.376 2.7v-.112c0-.381.056-.734.166-1.06.11-.329.27-.614.479-.854a2.16 2.16 0 0 1 .771-.567 2.512 2.512 0 0 1 1.035-.205c.388 0 .733.069 1.036.205.306.134.564.322.776.567.212.24.373.525.483.854.111.326.166.679.166 1.06v.112c0 .38-.055.734-.166 1.06-.11.325-.272.61-.483.854a2.26 2.26 0 0 1-.772.567 2.53 2.53 0 0 1-1.03.2c-.387 0-.734-.067-1.04-.2a2.242 2.242 0 0 1-.771-.567 2.538 2.538 0 0 1-.484-.854 3.274 3.274 0 0 1-.166-1.06Zm1.177-.112v.112c0 .238.024.462.073.674.05.211.126.397.23.556.104.16.237.285.4.376.163.092.357.137.581.137a1.118 1.118 0 0 0 .967-.512c.104-.16.18-.346.23-.557.052-.212.078-.436.078-.674v-.112a2.68 2.68 0 0 0-.079-.664 1.708 1.708 0 0 0-.234-.562 1.12 1.12 0 0 0-.972-.522c-.22 0-.413.047-.576.141-.16.091-.291.218-.395.381-.104.163-.18.35-.23.562-.049.208-.073.43-.073.664Zm7.29.434h-1.69l-.01-.83h1.387c.228 0 .416-.023.562-.068a.647.647 0 0 0 .332-.205.55.55 0 0 0 .108-.342.616.616 0 0 0-.064-.288.492.492 0 0 0-.195-.205.852.852 0 0 0-.323-.117 2.236 2.236 0 0 0-.444-.04h-.962V25h-1.177v-5.283h2.14c.338 0 .642.03.912.088.274.058.506.148.698.268.193.12.339.274.44.46.104.181.156.396.156.644 0 .163-.036.316-.107.459-.069.143-.171.27-.308.38a1.72 1.72 0 0 1-.503.274c-.198.068-.426.11-.683.127l-.269.322Zm0 2.261h-2.031l.468-.928h1.563c.208 0 .38-.026.518-.078a.61.61 0 0 0 .302-.224.62.62 0 0 0 .103-.357c0-.14-.033-.26-.098-.361a.598.598 0 0 0-.302-.23 1.381 1.381 0 0 0-.523-.083h-1.343l.01-.83h1.597l.337.322c.335.023.613.095.835.215.22.12.387.272.498.454.11.183.166.381.166.596 0 .248-.048.466-.142.654a1.215 1.215 0 0 1-.41.474c-.18.124-.399.218-.66.283-.26.062-.556.093-.888.093Zm4.473-7.11-.118 5.015h-1.005l-.122-5.014h1.245Zm-1.28 6.553a.62.62 0 0 1 .176-.449c.12-.124.287-.185.498-.185.209 0 .373.061.493.185.12.12.181.27.181.45 0 .172-.06.32-.18.444-.121.12-.285.18-.494.18-.211 0-.377-.06-.498-.18a.623.623 0 0 1-.176-.445Z" fill="#304249"/></g><rect x=".5" y=".5" width="86" height="30" rx="3.5" stroke="#C9CBCE"/><defs><clipPath id="a"><rect width="87" height="31" rx="4" fill="#fff"/></clipPath><clipPath id="b"><rect width="31" height="31" rx="3.871" fill="#fff"/></clipPath><clipPath id="c"><path transform="rotate(35.963 8.924 -3.947)" fill="#fff" d="M8.924-3.947h28.424v33.57H8.924z"/></clipPath></defs></svg>