<svg width="51" height="40" fill="none" xmlns="http://www.w3.org/2000/svg"><path d="M21.125 28.75c1 1 2.292 1.49 3.875 1.47 1.583-.02 2.75-.593 3.5-1.72l14-21-21 14c-1.125.75-1.718 1.896-1.78 3.438-.062 1.541.407 2.812 1.405 3.812ZM25 0c2.458 0 4.823.344 7.095 1.032A23.057 23.057 0 0 1 38.5 4.125l-4.75 3a18.921 18.921 0 0 0-4.28-1.593A19.258 19.258 0 0 0 25 5c-5.542 0-10.26 1.947-14.158 5.842C6.946 14.738 4.998 19.457 5 25c0 1.75.24 3.48.72 5.188A20.593 20.593 0 0 0 7.75 35h34.5a18.274 18.274 0 0 0 2.095-4.938c.438-1.708.657-3.479.655-5.312 0-1.5-.178-2.958-.532-4.375a18.264 18.264 0 0 0-1.593-4.125l3-4.75a27.772 27.772 0 0 1 2.97 6.25A23.01 23.01 0 0 1 50 24.625c.042 2.375-.23 4.646-.813 6.813a25.876 25.876 0 0 1-2.562 6.187 4.742 4.742 0 0 1-1.875 1.75 5.294 5.294 0 0 1-2.5.625H7.75a5.294 5.294 0 0 1-2.5-.625 4.743 4.743 0 0 1-1.875-1.75 25.49 25.49 0 0 1-2.5-5.97C.292 29.55 0 27.332 0 25c0-3.458.657-6.698 1.97-9.72 1.313-3.022 3.105-5.667 5.375-7.935 2.27-2.272 4.925-4.064 7.965-5.377C18.35.654 21.58-.002 25 0Z" fill="#27C58B"/></svg>