<svg width="22" height="13" fill="none" xmlns="http://www.w3.org/2000/svg"><path d="M6.682 1.039a.778.778 0 0 0-1.085 0L.224 6.272a.738.738 0 0 0 0 1.057l5.373 5.234a.779.779 0 0 0 1.066-.019.737.737 0 0 0 .019-1.038L2.619 7.548h16.762l-4.063 3.958a.748.748 0 0 0-.244.534.731.731 0 0 0 .225.542.77.77 0 0 0 .556.219.787.787 0 0 0 .548-.238l5.373-5.234a.738.738 0 0 0 0-1.057L16.402 1.04a.767.767 0 0 0-.547-.24.785.785 0 0 0-.556.219.746.746 0 0 0-.225.542.732.732 0 0 0 .244.533l4.063 3.958H2.619l4.063-3.958a.738.738 0 0 0 0-1.056Z" fill="#111"/></svg>