<svg width="166" height="151" fill="none" xmlns="http://www.w3.org/2000/svg"><g filter="url(#a)"><path d="M83 68a15 15 0 1 0 0-30 15 15 0 0 0 0 30Zm-20-5a10 10 0 1 1-20 0 10 10 0 0 1 20 0ZM40.45 99.63a3.9 3.9 0 0 1-1.79-2.21 15 15 0 0 1 12.96-19.362c4.41-.406 5.366 4.957 3.166 8.802a32.417 32.417 0 0 0-4.111 12.775c-.17 1.644-1.505 3.13-3.118 2.772a24.862 24.862 0 0 1-7.107-2.777Zm74.75 3.27a24.855 24.855 0 0 0 10.35-3.27 3.903 3.903 0 0 0 1.785-2.21 15.004 15.004 0 0 0-4.845-16.05 15 15 0 0 0-8.113-3.318c-4.412-.406-5.366 4.958-3.164 8.802a32.426 32.426 0 0 1 4.117 12.781 11.603 11.603 0 0 1-.13 3.265ZM123 63a10.002 10.002 0 0 1-17.071 7.071 9.997 9.997 0 0 1 0-14.142A10 10 0 0 1 123 63Zm-63.48 40.95a4.221 4.221 0 0 1-1.385-3.55 25 25 0 0 1 49.735 0 4.209 4.209 0 0 1-.269 1.94 4.208 4.208 0 0 1-1.116 1.61A34.873 34.873 0 0 1 83 113a34.87 34.87 0 0 1-23.48-9.05Z" fill="#29B74D"/></g><defs><filter id="a" x=".492" y=".5" width="165.012" height="150" filterUnits="userSpaceOnUse" color-interpolation-filters="sRGB"><feFlood flood-opacity="0" result="BackgroundImageFix"/><feColorMatrix in="SourceAlpha" values="0 0 0 0 0 0 0 0 0 0 0 0 0 0 0 0 0 0 127 0" result="hardAlpha"/><feOffset/><feGaussianBlur stdDeviation="18.75"/><feComposite in2="hardAlpha" operator="out"/><feColorMatrix values="0 0 0 0 0.160784 0 0 0 0 0.717647 0 0 0 0 0.301961 0 0 0 0.3 0"/><feBlend in2="BackgroundImageFix" result="effect1_dropShadow_54_6113"/><feBlend in="SourceGraphic" in2="effect1_dropShadow_54_6113" result="shape"/></filter></defs></svg>