<svg width="82" height="79" fill="none" xmlns="http://www.w3.org/2000/svg"><path d="M0 14.56C0 6.607 6.447.16 14.4.16h53.2C75.553.16 82 6.607 82 14.56v49.2c0 7.953-6.447 14.4-14.4 14.4H14.4C6.447 78.16 0 71.713 0 63.76v-49.2Z" fill="#57B36E" fill-opacity=".1"/><g clip-path="url(#a)"><g clip-path="url(#b)"><g clip-path="url(#c)"><mask id="d" style="mask-type:luminance" maskUnits="userSpaceOnUse" x="19" y="16" width="44" height="50"><path d="M62.037 16.02h-42.32v49.938h42.32V16.02Z" fill="#fff"/></mask><g mask="url(#d)"><path d="M59.746 49.338c-1.344 3.656-3.323 6.836-6.013 9.385-3.003 2.942-6.96 5.33-11.706 6.997-.16.077-.314.077-.474.16-.237.078-.474.078-.634.078h-.077c-.236 0-.473 0-.71-.077-.16 0-.314-.077-.474-.161-4.745-1.667-8.703-4.055-11.706-6.997-2.69-2.542-4.669-5.722-6.014-9.385-2.46-6.598-2.3-13.917-2.146-19.723v-.077c0-.476 0-.953.077-1.59-.077-2.703 2.139-5.008 4.912-5.169 5.693-.315 10.125-2.227 13.922-5.883.634-.56 1.422-.876 2.216-.876.794 0 1.505.316 2.14.876 3.79 3.733 8.221 5.568 13.914 5.883 2.767.161 4.906 2.466 4.982 5.17 0 .552 0 1.036.077 1.589.007 5.883.167 13.202-2.285 19.8Z" fill="#57B36E"/></g><mask id="e" style="mask-type:luminance" maskUnits="userSpaceOnUse" x="19" y="16" width="44" height="50"><path d="M62.037 16.02h-42.32v49.938h42.32V16.02Z" fill="#fff"/></mask><g mask="url(#e)"><path d="M59.743 49.338c-1.347 3.656-3.33 6.836-6.025 9.385-3.01 2.942-6.975 5.33-11.73 6.997-.16.077-.314.077-.475.16-.237.078-.474.078-.635.078V16.02c.796 0 1.508.316 2.143.876 3.799 3.74 8.24 5.568 13.943 5.883 2.772.161 4.916 2.466 4.992 5.17 0 .552 0 1.036.077 1.589.007 5.883.168 13.202-2.29 19.8Z" fill="#57B36E"/></g><path d="M52.728 40.99c0 6.763-5.492 12.272-12.235 12.272h-.076c-6.742 0-12.234-5.509-12.234-12.272 0-6.764 5.492-12.273 12.234-12.273h.076c6.743 0 12.235 5.509 12.235 12.273Z" fill="#fff"/><path d="M52.728 41.031c0 6.74-5.319 12.231-11.85 12.231V28.717c6.531.083 11.85 5.573 11.85 12.314Z" fill="#E1EBF0"/><path d="M49.019 40.566c-.161 0-.316-.164-.316-.32v-.813c0-4.128-3.344-7.528-7.403-7.528-4.058 0-7.41 3.4-7.41 7.528v.812c0 .164-.16.321-.315.321-.161 0-.315-.164-.315-.32v-.813c0-4.534 3.582-8.177 8.04-8.177 4.459 0 8.041 3.643 8.041 8.177v.812c-.007.243-.168.321-.322.321Z" fill="#848484"/><path d="M48.122 43.952h-.946c-.19 0-.373-.181-.373-.354 0-.181.19-.355.373-.355h.946c.282 0 .473-.18.473-.448V40.92c0-.181.19-.355.373-.355s.374.181.374.355v1.874c-.091.708-.556 1.157-1.22 1.157Z" fill="#848484"/><path d="M38.336 43.952h4.232v3.386h-4.232v-3.386Z" fill="#CBCBCB"/><path d="M46.726 43.246c.074-.24.074-.48.074-.804v-5.445c0-1.763-1.374-3.202-3.059-3.202h-6.577c-1.685 0-3.06 1.439-3.06 3.202v5.445c0 1.764 1.375 3.203 3.06 3.203h6.658c.768 0 1.455-.318 1.988-.805" fill="#E5E5E5"/><path d="M36.644 43.683v1.962a3.253 3.253 0 0 1-2.54-3.196v-1.883c1.472.332 2.54 1.558 2.54 3.117Zm11.002-3.117v1.883c0 .245 0 .57-.082.823l-1.014 1.637c-.425.325-.932.57-1.438.736v-1.883c-.09-1.645 1.006-2.871 2.534-3.196Z" fill="#CBCBCB"/><path d="M40.029 38.45c0 1.14-.897 2.116-2.116 2.116a2.101 2.101 0 0 1-2.116-2.116c0-1.14.897-2.116 2.116-2.116 1.14.079 2.116.975 2.116 2.116Zm5.926.001c0 1.14-.897 2.116-2.116 2.116-1.22 0-2.116-.897-2.116-2.116 0-1.14.896-2.116 2.116-2.116 1.219-.007 2.116.975 2.116 2.116Z" fill="#fff"/><path d="M38.337 38.873a.845.845 0 0 1-.847-.846c0-.512.334-.846.847-.846.423 0 .846.334.846.846a.845.845 0 0 1-.846.846Zm5.079 0a.845.845 0 0 1-.847-.846c0-.512.334-.846.847-.846.505 0 .846.334.846.846a.845.845 0 0 1-.846.846Zm-7.619 5.083c0 .458-.327.842-.717.842h-.258c-.39 0-.718-.384-.718-.842 0-.458.328-.841.718-.841h.258c.396-.075.717.31.717.841Z" fill="#444"/><path d="M40.03 42.259h.846v3.385h-.847V42.26Zm.846 0h.846v3.385h-.846V42.26Zm1.692 0v3.385h.847v-2.148c0-.655-.305-1.15-.847-1.237Zm-3.385 0a1.34 1.34 0 0 0-.846 1.237v2.148h.846V42.26Z" fill="#7B7B7B"/><path d="M34.105 38.198v3.044c0 .467-.314.859-.796 1.017h-.711c-.551 0-1.033-.467-1.033-1.017v-3.044c0-.543.475-1.017 1.033-1.017h.711c.482.158.796.543.796 1.017Z" fill="#686868"/><path d="M34.105 38.198v3.044c0 .467-.334.859-.846 1.017-.505-.158-.847-.543-.847-1.017v-3.044c0-.468.334-.86.846-1.017.513.158.847.543.847 1.017Z" fill="#7B7B7B"/><path d="M50.187 38.198v3.044c0 .467-.314.859-.796 1.017h-.711c-.551 0-1.032-.467-1.032-1.017v-3.044c0-.543.474-1.017 1.032-1.017h.71c.482.158.796.543.796 1.017Z" fill="#686868"/><path d="M50.186 38.198v3.044c0 .467-.334.859-.846 1.017-.505-.158-.847-.543-.847-1.017v-3.044c0-.468.334-.86.847-1.017.512.158.846.543.846 1.017Z" fill="#7B7B7B"/><path d="M46.672 43.105h.259c.39 0 .717.386.717.847 0 .46-.327.846-.717.846h-.259c-.39 0-.717-.386-.717-.846 0-.46.327-.846.717-.846Z" fill="#444"/><path d="M32.412 43.641v-1.874c0-.18.191-.354.373-.354.191 0 .374.181.374.354v1.874c0 .268.19.45.473.45h.946c.19 0 .373.18.373.353 0 .181-.19.355-.373.355h-.946c-.656 0-1.22-.536-1.22-1.158Z" fill="#848484"/><path d="m47.647 48.938-12.696.091v-.09c0-1.32.874-2.449 2.061-2.449h8.65c1.028 0 1.985 1.129 1.985 2.448Z" fill="#CBCBCB"/><path d="m46.8 48.938-10.156.091v-.09c0-1.32.86-2.449 2.03-2.449h6.172c1.012 0 1.954 1.129 1.954 2.448Z" fill="#E5E5E5"/><path d="M40.456 28.717c-6.757 0-12.248 5.491-12.248 12.248 0 6.756 5.491 12.247 12.248 12.247 6.756 0 12.247-5.491 12.247-12.248 0-6.756-5.491-12.247-12.247-12.247Zm0 23.06c-5.916 0-10.812-4.815-10.812-10.813 0-2.619 1.012-5.156 2.701-7.098l15.21 15.21c-2.032 1.688-4.48 2.7-7.1 2.7Zm8.11-3.714-15.209-15.21c1.942-1.688 4.39-2.7 7.099-2.7 5.915 0 10.811 4.814 10.811 10.812 0 2.619-1.012 5.156-2.7 7.098Z" fill="#E84C4F"/></g></g></g><defs><clipPath id="a"><path fill="#fff" transform="translate(15 12.16)" d="M0 0h51.121v59.11H0z"/></clipPath><clipPath id="b"><path fill="#fff" transform="translate(19.719 5.403)" d="M0 0h48.259v62.737H0z"/></clipPath><clipPath id="c"><path fill="#fff" transform="translate(19.719 16.02)" d="M0 0h42.32v55.016H0z"/></clipPath></defs></svg>