<svg width="30" height="30" fill="none" xmlns="http://www.w3.org/2000/svg"><path d="M5.783 11.098A9.921 9.921 0 0 1 7.92 7.92a9.9 9.9 0 0 1 3.178-2.137 10.15 10.15 0 0 1 7.662-.051 3.112 3.112 0 0 0 3.115 3.017A3.117 3.117 0 0 0 25 5.625 3.117 3.117 0 0 0 21.875 2.5c-.861 0-1.64.345-2.204.906-3.038-1.216-6.528-1.197-9.543.074A12.475 12.475 0 0 0 2.5 15h2.499c0-1.357.264-2.67.783-3.902Zm18.433 7.804a9.924 9.924 0 0 1-2.137 3.177 9.914 9.914 0 0 1-3.178 2.137 10.15 10.15 0 0 1-7.662.051 3.11 3.11 0 0 0-3.114-3.017A3.117 3.117 0 0 0 5 24.375 3.117 3.117 0 0 0 8.125 27.5c.861 0 1.64-.345 2.204-.906A12.46 12.46 0 0 0 15 27.5a12.479 12.479 0 0 0 11.521-7.628c.65-1.542.982-3.199.979-4.872H25a9.991 9.991 0 0 1-.784 3.902Z" fill="#57B36E"/><path d="M15 9.327A5.68 5.68 0 0 0 9.327 15 5.68 5.68 0 0 0 15 20.672 5.68 5.68 0 0 0 20.672 15 5.68 5.68 0 0 0 15 9.327Z" fill="#57B36E"/></svg>