<svg width="24" height="24" fill="none" xmlns="http://www.w3.org/2000/svg"><g clip-path="url(#a)"><rect width="24" height="24" rx="3.84" fill="url(#b)"/><rect width="24" height="24" rx="3.84" fill="url(#c)"/><g filter="url(#d)"><path d="M8.621 10.152 6.407 12l2.214 1.848a.72.72 0 1 1-.924 1.104l-2.88-2.4a.72.72 0 0 1 0-1.104l2.88-2.4a.72.72 0 0 1 .924 1.104Zm10.56 1.296-2.88-2.4a.72.72 0 0 0-.924 1.104L17.597 12l-2.22 1.848a.713.713 0 0 0-.09 1.014.732.732 0 0 0 .552.258.72.72 0 0 0 .462-.168l2.88-2.4a.72.72 0 0 0 0-1.104Zm-5.016-5.406a.726.726 0 0 0-.924.432l-3.84 10.56a.726.726 0 0 0 .432.924.72.72 0 0 0 .924-.432l3.84-10.56a.726.726 0 0 0-.432-.924Z" fill="#F4F8FD"/></g></g><defs><linearGradient id="b" x1="-4.154" y1="-1.385" x2="27.231" y2="24" gradientUnits="userSpaceOnUse"><stop stop-color="#43D88A"/><stop offset="1" stop-color="#18B7C0"/></linearGradient><linearGradient id="c" x1="-4.154" y1="-1.385" x2="27.231" y2="24" gradientUnits="userSpaceOnUse"><stop stop-color="#F9BF14"/><stop offset="1" stop-color="#F97616"/></linearGradient><clipPath id="a"><rect width="24" height="24" rx="3.84" fill="#fff"/></clipPath><filter id="d" x="-15.707" y="-14.266" width="55.413" height="52.533" filterUnits="userSpaceOnUse" color-interpolation-filters="sRGB"><feFlood flood-opacity="0" result="BackgroundImageFix"/><feColorMatrix in="SourceAlpha" values="0 0 0 0 0 0 0 0 0 0 0 0 0 0 0 0 0 0 127 0" result="hardAlpha"/><feOffset/><feGaussianBlur stdDeviation="10.133"/><feComposite in2="hardAlpha" operator="out"/><feColorMatrix values="0 0 0 0 0.121569 0 0 0 0 0.443137 0 0 0 0 0.823529 0 0 0 1 0"/><feBlend in2="BackgroundImageFix" result="effect1_dropShadow_370_10940"/><feBlend in="SourceGraphic" in2="effect1_dropShadow_370_10940" result="shape"/></filter></defs></svg>