<svg width="30" height="30" fill="none" xmlns="http://www.w3.org/2000/svg"><g clip-path="url(#a)"><path d="M15.307 12.273v5.81h8.237c-.361 1.868-1.447 3.45-3.075 4.513l4.967 3.777c2.895-2.618 4.565-6.463 4.565-11.031a16.9 16.9 0 0 0-.279-3.068H15.307Z" fill="#4285F4"/><path d="m6.729 17.855-1.12.84-3.966 3.028C4.16 26.62 9.323 30 15.307 30c4.132 0 7.597-1.336 10.13-3.627l-4.968-3.777c-1.364.9-3.103 1.445-5.163 1.445-3.98 0-7.36-2.631-8.571-6.177l-.006-.009Z" fill="#34A853"/><path d="M1.642 8.277a14.575 14.575 0 0 0 0 13.446c0 .013 5.093-3.873 5.093-3.873A8.826 8.826 0 0 1 6.248 15c0-.996.18-1.95.487-2.85L1.642 8.277Z" fill="#FBBC05"/><path d="M15.307 5.973c2.254 0 4.258.763 5.858 2.236l4.383-4.295C22.89 1.486 19.44 0 15.307 0 9.323 0 4.16 3.368 1.643 8.277l5.092 3.873c1.21-3.545 4.592-6.177 8.572-6.177Z" fill="#EA4335"/></g><defs><clipPath id="a"><path fill="#fff" d="M0 0h30v30H0z"/></clipPath></defs></svg>