<svg width="30" height="30" fill="none" xmlns="http://www.w3.org/2000/svg"><g clip-path="url(#a)" fill="#111"><path d="m12.413 23.079 3.847-3.743-3.847-3.743-3.847 3.743 3.847 3.743Zm.025-16.037 2.91-2.831-2.91-2.832-2.91 2.832 2.91 2.831Zm-7.76 16.014 3.847-3.744-3.847-3.743-3.847 3.743 3.847 3.744Zm0-15.102 3.847-3.743L4.678.468.831 4.21l3.847 3.743Zm7.734 21.578 2.679-2.606-2.678-2.606-2.679 2.606 2.678 2.606Zm0-14.902 2.91-2.831-2.91-2.831-2.91 2.83 2.91 2.832ZM4.678 29.41l2.62-2.549-2.62-2.548L2.06 26.86l2.62 2.549Zm0-13.905 3.847-3.743-3.847-3.743-3.847 3.743 3.847 3.743Zm15.468 4.802.97-.944-.97-.944-.97.944.97.944Zm.001-14.157 1.94-1.888-1.94-1.888-1.94 1.888 1.94 1.887Zm7.779 14.157.97-.944-.97-.944-.97.944.97.944Zm-3.88 3.756.97-.944-.97-.944-.97.944.97.944Zm-6.791 0 .97-.944-.97-.944-.97.944.97.944ZM27.927 6.13l1.92-1.868-1.92-1.868-1.92 1.868 1.92 1.867Zm-7.781 21.708.97-.944-.97-.943-.97.944.97.944Zm-.001-14.137 1.961-1.908-1.96-1.908-1.962 1.908 1.961 1.908Zm7.781 14.137.97-.944-.97-.943-.97.944.97.944Zm0-14.158 1.94-1.887-1.94-1.888-1.94 1.888 1.94 1.888Zm-3.88-3.775 1.94-1.887-1.94-1.888-1.94 1.888 1.94 1.887Zm0 7.551 1.94-1.888-1.94-1.887-1.94 1.887 1.94 1.888Zm-6.79 0 1.94-1.888-1.94-1.887-1.94 1.887 1.94 1.888Zm-.971-7.551 1.94-1.887-1.94-1.888-1.94 1.888 1.94 1.887Z"/></g><defs><clipPath id="a"><path fill="#fff" d="M0 0h30v30H0z"/></clipPath></defs></svg>