<svg width="40" height="36" viewBox="0 0 40 36" fill="none" xmlns="http://www.w3.org/2000/svg">
<path d="M25.508 14C27.44 14 29.008 15.568 29.008 17.5V26.998C29.008 29.3855 28.0596 31.6752 26.3714 33.3634C24.6832 35.0516 22.3935 36 20.006 36C17.6185 36 15.3288 35.0516 13.6406 33.3634C11.9524 31.6752 11.004 29.3855 11.004 26.998V17.5C11.004 15.568 12.57 14 14.504 14H25.508ZM10.262 14C9.54164 14.8669 9.10834 15.9362 9.022 17.06L9.002 17.5V26.998C9.002 28.692 9.386 30.296 10.07 31.728C8.88456 32.0451 7.64207 32.0854 6.43859 31.8456C5.23511 31.6059 4.1029 31.0925 3.12949 30.3453C2.15609 29.5981 1.36758 28.6371 0.824926 27.5364C0.282275 26.4358 2.45995e-05 25.2251 0 23.998V17.5C3.28092e-05 16.6216 0.330342 15.7754 0.92536 15.1292C1.52038 14.4831 2.3366 14.0843 3.212 14.012L3.5 14H10.262ZM29.75 14H36.5C38.432 14 40 15.568 40 17.5V24C40.0003 25.2263 39.7186 26.4363 39.1768 27.5364C38.6349 28.6366 37.8474 29.5974 36.8751 30.3447C35.9028 31.092 34.7717 31.6058 33.5692 31.8464C32.3667 32.0869 31.125 32.0478 29.94 31.732C30.54 30.476 30.908 29.092 30.99 27.628L31.008 26.998V17.5C31.008 16.17 30.538 14.95 29.75 14ZM20 0C21.5913 0 23.1174 0.632141 24.2426 1.75736C25.3679 2.88258 26 4.4087 26 6C26 7.5913 25.3679 9.11742 24.2426 10.2426C23.1174 11.3679 21.5913 12 20 12C18.4087 12 16.8826 11.3679 15.7574 10.2426C14.6321 9.11742 14 7.5913 14 6C14 4.4087 14.6321 2.88258 15.7574 1.75736C16.8826 0.632141 18.4087 0 20 0ZM33 2C34.3261 2 35.5978 2.52678 36.5355 3.46447C37.4732 4.40215 38 5.67392 38 7C38 8.32608 37.4732 9.59785 36.5355 10.5355C35.5978 11.4732 34.3261 12 33 12C31.6739 12 30.4021 11.4732 29.4645 10.5355C28.5268 9.59785 28 8.32608 28 7C28 5.67392 28.5268 4.40215 29.4645 3.46447C30.4021 2.52678 31.6739 2 33 2ZM7 2C8.32608 2 9.59785 2.52678 10.5355 3.46447C11.4732 4.40215 12 5.67392 12 7C12 8.32608 11.4732 9.59785 10.5355 10.5355C9.59785 11.4732 8.32608 12 7 12C5.67392 12 4.40215 11.4732 3.46447 10.5355C2.52678 9.59785 2 8.32608 2 7C2 5.67392 2.52678 4.40215 3.46447 3.46447C4.40215 2.52678 5.67392 2 7 2Z" fill="black"/>
<path d="M25.508 14C27.44 14 29.008 15.568 29.008 17.5V26.998C29.008 29.3855 28.0596 31.6752 26.3714 33.3634C24.6832 35.0516 22.3935 36 20.006 36C17.6185 36 15.3288 35.0516 13.6406 33.3634C11.9524 31.6752 11.004 29.3855 11.004 26.998V17.5C11.004 15.568 12.57 14 14.504 14H25.508ZM10.262 14C9.54164 14.8669 9.10834 15.9362 9.022 17.06L9.002 17.5V26.998C9.002 28.692 9.386 30.296 10.07 31.728C8.88456 32.0451 7.64207 32.0854 6.43859 31.8456C5.23511 31.6059 4.1029 31.0925 3.12949 30.3453C2.15609 29.5981 1.36758 28.6371 0.824926 27.5364C0.282275 26.4358 2.45995e-05 25.2251 0 23.998V17.5C3.28092e-05 16.6216 0.330342 15.7754 0.92536 15.1292C1.52038 14.4831 2.3366 14.0843 3.212 14.012L3.5 14H10.262ZM29.75 14H36.5C38.432 14 40 15.568 40 17.5V24C40.0003 25.2263 39.7186 26.4363 39.1768 27.5364C38.6349 28.6366 37.8474 29.5974 36.8751 30.3447C35.9028 31.092 34.7717 31.6058 33.5692 31.8464C32.3667 32.0869 31.125 32.0478 29.94 31.732C30.54 30.476 30.908 29.092 30.99 27.628L31.008 26.998V17.5C31.008 16.17 30.538 14.95 29.75 14ZM20 0C21.5913 0 23.1174 0.632141 24.2426 1.75736C25.3679 2.88258 26 4.4087 26 6C26 7.5913 25.3679 9.11742 24.2426 10.2426C23.1174 11.3679 21.5913 12 20 12C18.4087 12 16.8826 11.3679 15.7574 10.2426C14.6321 9.11742 14 7.5913 14 6C14 4.4087 14.6321 2.88258 15.7574 1.75736C16.8826 0.632141 18.4087 0 20 0ZM33 2C34.3261 2 35.5978 2.52678 36.5355 3.46447C37.4732 4.40215 38 5.67392 38 7C38 8.32608 37.4732 9.59785 36.5355 10.5355C35.5978 11.4732 34.3261 12 33 12C31.6739 12 30.4021 11.4732 29.4645 10.5355C28.5268 9.59785 28 8.32608 28 7C28 5.67392 28.5268 4.40215 29.4645 3.46447C30.4021 2.52678 31.6739 2 33 2ZM7 2C8.32608 2 9.59785 2.52678 10.5355 3.46447C11.4732 4.40215 12 5.67392 12 7C12 8.32608 11.4732 9.59785 10.5355 10.5355C9.59785 11.4732 8.32608 12 7 12C5.67392 12 4.40215 11.4732 3.46447 10.5355C2.52678 9.59785 2 8.32608 2 7C2 5.67392 2.52678 4.40215 3.46447 3.46447C4.40215 2.52678 5.67392 2 7 2Z" fill="url(#paint0_linear_9749_16412)" fill-opacity="0.8"/>
<defs>
<linearGradient id="paint0_linear_9749_16412" x1="-6.92308" y1="-2.07692" x2="40.9442" y2="40.941" gradientUnits="userSpaceOnUse">
<stop stop-color="#EF2DDC"/>
<stop offset="1" stop-color="#7443FF"/>
</linearGradient>
</defs>
</svg>
