<svg width="75" height="74" fill="none" xmlns="http://www.w3.org/2000/svg"><path d="M.64 35.244c0-16.537 0-24.821 5.14-29.944C10.902.16 19.186.16 35.723.16h3.632C55.893.16 64.16.16 69.3 5.3c5.139 5.139 5.139 13.407 5.139 29.944v3.632c0 16.537 0 24.805-5.14 29.945-5.139 5.14-13.407 5.14-29.944 5.14h-3.632c-16.537 0-24.805 0-29.945-5.14C.64 63.68.64 55.413.64 38.876v-3.632Z" fill="#07F"/><path d="M40.68 60.993c13.297 0 24.076-10.78 24.076-24.076 0-13.297-10.78-24.076-24.076-24.076-13.296 0-24.076 10.78-24.076 24.076 0 13.297 10.78 24.076 24.076 24.076Z" fill="#00D9ED"/><path fill-rule="evenodd" clip-rule="evenodd" d="M63.096 9.91v4.62h4.556c2.594 0 3.923 3.113 2.123 4.978l-6.241 6.517a2.932 2.932 0 0 1-2.124.908h-5.902l-6.112 6.582a8.979 8.979 0 0 1 .697 3.438 8.836 8.836 0 0 1-8.836 8.835 8.836 8.836 0 1 1 0-17.671c.827 0 1.638.113 2.4.324l7.02-7.555v-4.848c0-.81.34-1.589.924-2.14l6.518-6.145c1.88-1.767 4.96-.437 4.96 2.14l.017.017Z" fill="#fff"/></svg>