<svg width="30" height="30" viewBox="0 0 30 30" fill="none" xmlns="http://www.w3.org/2000/svg">
<path d="M14.9999 29.318C16.8802 29.318 18.7421 28.9477 20.4793 28.2281C22.2164 27.5085 23.7949 26.4539 25.1244 25.1243C26.454 23.7947 27.5087 22.2163 28.2282 20.4792C28.9478 18.742 29.3181 16.8801 29.3181 14.9998C29.3181 13.1195 28.9478 11.2577 28.2282 9.52049C27.5087 7.78333 26.454 6.20491 25.1244 4.87534C23.7949 3.54577 22.2164 2.4911 20.4793 1.77155C18.7421 1.05199 16.8802 0.681641 14.9999 0.681641C11.2025 0.681641 7.56064 2.19016 4.87546 4.87534C2.19028 7.56052 0.681763 11.2024 0.681763 14.9998C0.681763 18.7972 2.19028 22.4391 4.87546 25.1243C7.56064 27.8095 11.2025 29.318 14.9999 29.318Z" fill="#FC3F1D"/>
<path d="M17.2495 23.9524H20.3654V6.04102H15.8245C11.2563 6.04102 8.85632 8.38647 8.85632 11.8365C8.85632 14.5774 10.1722 16.2206 12.5177 17.891L8.43359 23.9456H11.8222L16.3631 17.1683L14.7813 16.1183C12.8722 14.8228 11.9381 13.8274 11.9381 11.6592C11.9381 9.75693 13.2813 8.46829 15.8381 8.46829H17.2359V23.9456H17.2427L17.2495 23.9524Z" fill="white"/>
</svg>
