<svg width="24" height="24" viewBox="0 0 24 24" fill="none" xmlns="http://www.w3.org/2000/svg">
<path d="M12 0C5.37251 0 0 5.37255 0 12.0001C0 18.6277 5.37251 24.0002 12 24.0002C18.6275 24.0002 24 18.6277 24 12.0001C24 5.37255 18.6275 0 12 0ZM13.0362 18.5063V20.1964H11.4196V18.5253C8.76675 18.162 7.60506 15.9823 7.60506 15.9823L9.25636 14.6009C9.25636 14.6009 10.3107 16.4364 12.218 16.4364C13.2715 16.4364 14.0707 15.8724 14.0707 14.9089C14.0707 12.6565 8.0022 12.9298 8.0022 8.75115C8.0022 6.9347 9.43883 5.62603 11.4187 5.31641V3.62794H13.0354V5.31641C14.4159 5.49805 16.0506 6.22463 16.0506 7.7876V8.98646H13.9073V8.40519C13.9073 7.80577 13.1435 7.40615 12.289 7.40615C11.1991 7.40615 10.4007 7.95108 10.4007 8.71399C10.4007 11.0209 16.4692 10.4578 16.4692 14.8362C16.4692 16.6362 15.1251 18.1967 13.0362 18.5063Z" fill="#333333"/>
<path d="M12 0C5.37251 0 0 5.37255 0 12.0001C0 18.6277 5.37251 24.0002 12 24.0002C18.6275 24.0002 24 18.6277 24 12.0001C24 5.37255 18.6275 0 12 0ZM13.0362 18.5063V20.1964H11.4196V18.5253C8.76675 18.162 7.60506 15.9823 7.60506 15.9823L9.25636 14.6009C9.25636 14.6009 10.3107 16.4364 12.218 16.4364C13.2715 16.4364 14.0707 15.8724 14.0707 14.9089C14.0707 12.6565 8.0022 12.9298 8.0022 8.75115C8.0022 6.9347 9.43883 5.62603 11.4187 5.31641V3.62794H13.0354V5.31641C14.4159 5.49805 16.0506 6.22463 16.0506 7.7876V8.98646H13.9073V8.40519C13.9073 7.80577 13.1435 7.40615 12.289 7.40615C11.1991 7.40615 10.4007 7.95108 10.4007 8.71399C10.4007 11.0209 16.4692 10.4578 16.4692 14.8362C16.4692 16.6362 15.1251 18.1967 13.0362 18.5063Z" fill="white"/>
<path d="M12 0C5.37251 0 0 5.37255 0 12.0001C0 18.6277 5.37251 24.0002 12 24.0002C18.6275 24.0002 24 18.6277 24 12.0001C24 5.37255 18.6275 0 12 0ZM13.0362 18.5063V20.1964H11.4196V18.5253C8.76675 18.162 7.60506 15.9823 7.60506 15.9823L9.25636 14.6009C9.25636 14.6009 10.3107 16.4364 12.218 16.4364C13.2715 16.4364 14.0707 15.8724 14.0707 14.9089C14.0707 12.6565 8.0022 12.9298 8.0022 8.75115C8.0022 6.9347 9.43883 5.62603 11.4187 5.31641V3.62794H13.0354V5.31641C14.4159 5.49805 16.0506 6.22463 16.0506 7.7876V8.98646H13.9073V8.40519C13.9073 7.80577 13.1435 7.40615 12.289 7.40615C11.1991 7.40615 10.4007 7.95108 10.4007 8.71399C10.4007 11.0209 16.4692 10.4578 16.4692 14.8362C16.4692 16.6362 15.1251 18.1967 13.0362 18.5063Z" fill="url(#paint0_linear_129_15096)"/>
<defs>
<linearGradient id="paint0_linear_129_15096" x1="0" y1="0" x2="24.0002" y2="24" gradientUnits="userSpaceOnUse">
<stop stop-color="#2395FE"/>
<stop offset="1" stop-color="#139890"/>
</linearGradient>
</defs>
</svg>
