<svg width="23" height="23" viewBox="0 0 23 23" fill="none" xmlns="http://www.w3.org/2000/svg">
<path d="M21.5625 0.462891H18.6875C18.3063 0.462891 17.9406 0.591717 17.671 0.82103C17.4015 1.05034 17.25 1.36136 17.25 1.68566V22.4629H23V1.68566C23 1.36136 22.8486 1.05034 22.579 0.82103C22.3094 0.591717 21.9437 0.462891 21.5625 0.462891ZM12.9375 7.79948H10.0625C9.68125 7.79948 9.31562 7.92831 9.04603 8.15762C8.77645 8.38694 8.625 8.69795 8.625 9.02225V22.4629H14.375V9.02225C14.375 8.69795 14.2235 8.38694 13.954 8.15762C13.6844 7.92831 13.3187 7.79948 12.9375 7.79948ZM4.3125 15.1361H1.4375C1.05625 15.1361 0.690617 15.2649 0.421034 15.4942C0.15145 15.7235 0 16.0345 0 16.3588V22.4629H5.75V16.3588C5.75 16.0345 5.59855 15.7235 5.32897 15.4942C5.05938 15.2649 4.69375 15.1361 4.3125 15.1361Z" fill="#333333"/>
<path d="M21.5625 0.462891H18.6875C18.3063 0.462891 17.9406 0.591717 17.671 0.82103C17.4015 1.05034 17.25 1.36136 17.25 1.68566V22.4629H23V1.68566C23 1.36136 22.8486 1.05034 22.579 0.82103C22.3094 0.591717 21.9437 0.462891 21.5625 0.462891ZM12.9375 7.79948H10.0625C9.68125 7.79948 9.31562 7.92831 9.04603 8.15762C8.77645 8.38694 8.625 8.69795 8.625 9.02225V22.4629H14.375V9.02225C14.375 8.69795 14.2235 8.38694 13.954 8.15762C13.6844 7.92831 13.3187 7.79948 12.9375 7.79948ZM4.3125 15.1361H1.4375C1.05625 15.1361 0.690617 15.2649 0.421034 15.4942C0.15145 15.7235 0 16.0345 0 16.3588V22.4629H5.75V16.3588C5.75 16.0345 5.59855 15.7235 5.32897 15.4942C5.05938 15.2649 4.69375 15.1361 4.3125 15.1361Z" fill="white"/>
<path d="M21.5625 0.462891H18.6875C18.3063 0.462891 17.9406 0.591717 17.671 0.82103C17.4015 1.05034 17.25 1.36136 17.25 1.68566V22.4629H23V1.68566C23 1.36136 22.8486 1.05034 22.579 0.82103C22.3094 0.591717 21.9437 0.462891 21.5625 0.462891ZM12.9375 7.79948H10.0625C9.68125 7.79948 9.31562 7.92831 9.04603 8.15762C8.77645 8.38694 8.625 8.69795 8.625 9.02225V22.4629H14.375V9.02225C14.375 8.69795 14.2235 8.38694 13.954 8.15762C13.6844 7.92831 13.3187 7.79948 12.9375 7.79948ZM4.3125 15.1361H1.4375C1.05625 15.1361 0.690617 15.2649 0.421034 15.4942C0.15145 15.7235 0 16.0345 0 16.3588V22.4629H5.75V16.3588C5.75 16.0345 5.59855 15.7235 5.32897 15.4942C5.05938 15.2649 4.69375 15.1361 4.3125 15.1361Z" fill="url(#paint0_linear_129_15086)"/>
<defs>
<linearGradient id="paint0_linear_129_15086" x1="0" y1="0.462891" x2="21.9783" y2="23.4402" gradientUnits="userSpaceOnUse">
<stop stop-color="#2395FE"/>
<stop offset="1" stop-color="#139890"/>
</linearGradient>
</defs>
</svg>
