<svg width="654" height="258" fill="none" xmlns="http://www.w3.org/2000/svg"><rect width="654" height="258" rx="18.613" fill="#fff"/><rect width="654" height="258" rx="18.613" fill="#fff"/><path d="M287 37.232c0-7.953 6.447-14.4 14.4-14.4h53.2c7.953 0 14.4 6.447 14.4 14.4v49.2c0 7.953-6.447 14.4-14.4 14.4h-53.2c-7.953 0-14.4-6.447-14.4-14.4v-49.2Z" fill="#57B36E" fill-opacity=".1"/><g clip-path="url(#a)"><g clip-path="url(#b)"><g clip-path="url(#c)"><mask id="d" style="mask-type:luminance" maskUnits="userSpaceOnUse" x="306" y="38" width="44" height="51"><path d="M349.038 38.691h-42.319V88.63h42.319V38.69Z" fill="#fff"/></mask><g mask="url(#d)"><path d="M346.748 72.009c-1.344 3.656-3.323 6.835-6.013 9.385-3.003 2.941-6.961 5.33-11.706 6.997-.16.077-.314.077-.474.16-.237.078-.474.078-.634.078h-.077c-.237 0-.473 0-.71-.077-.161 0-.314-.077-.474-.161-4.745-1.667-8.703-4.056-11.706-6.997-2.69-2.543-4.669-5.722-6.014-9.385-2.46-6.598-2.299-13.917-2.146-19.723v-.077c0-.476 0-.953.077-1.59-.077-2.703 2.139-5.008 4.912-5.169 5.693-.315 10.125-2.227 13.922-5.883.634-.56 1.422-.876 2.216-.876.794 0 1.505.316 2.139.876 3.791 3.733 8.222 5.568 13.915 5.883 2.767.161 4.906 2.465 4.982 5.169 0 .553 0 1.037.077 1.59.007 5.883.167 13.202-2.286 19.8Z" fill="#57B36E"/></g><mask id="e" style="mask-type:luminance" maskUnits="userSpaceOnUse" x="306" y="38" width="44" height="51"><path d="M349.038 38.691h-42.319V88.63h42.319V38.69Z" fill="#fff"/></mask><g mask="url(#e)"><path d="M346.744 72.009c-1.347 3.656-3.33 6.835-6.025 9.385-3.009 2.941-6.975 5.33-11.73 6.997-.161.077-.314.077-.475.16a2.023 2.023 0 0 1-.635.078V38.69c.796 0 1.508.316 2.143.876 3.799 3.74 8.239 5.568 13.943 5.883 2.772.161 4.916 2.465 4.993 5.169 0 .553 0 1.037.076 1.59.007 5.883.168 13.202-2.29 19.8Z" fill="#57B36E"/></g><path d="M339.729 63.66c0 6.763-5.492 12.272-12.235 12.272h-.076c-6.742 0-12.234-5.509-12.234-12.273 0-6.763 5.492-12.272 12.234-12.272h.076c6.743 0 12.235 5.509 12.235 12.273Z" fill="#fff"/><path d="M339.73 63.7c0 6.742-5.319 12.232-11.849 12.232V51.387c6.53.083 11.849 5.573 11.849 12.314Z" fill="#E1EBF0"/><path d="M336.021 63.236c-.162 0-.316-.164-.316-.32v-.813c0-4.128-3.344-7.529-7.403-7.529-4.058 0-7.409 3.401-7.409 7.529v.812c0 .164-.162.321-.316.321-.161 0-.315-.164-.315-.32v-.813c0-4.534 3.582-8.177 8.04-8.177 4.459 0 8.041 3.643 8.041 8.177v.812c-.007.243-.168.321-.322.321Z" fill="#848484"/><path d="M335.124 66.62h-.946c-.191 0-.373-.181-.373-.354 0-.181.191-.355.373-.355h.946c.282 0 .473-.18.473-.448v-1.874c0-.181.191-.355.373-.355.183 0 .374.181.374.355v1.874c-.091.708-.556 1.157-1.22 1.157Z" fill="#848484"/><path d="M325.338 66.621h4.232v3.386h-4.232V66.62Z" fill="#CBCBCB"/><path d="M333.727 65.916c.074-.24.074-.48.074-.804v-5.445c0-1.763-1.374-3.202-3.059-3.202h-6.577c-1.685 0-3.06 1.439-3.06 3.202v5.445c0 1.764 1.375 3.202 3.06 3.202h6.658c.768 0 1.455-.317 1.988-.804" fill="#E5E5E5"/><path d="M323.645 66.35v1.963a3.253 3.253 0 0 1-2.54-3.196v-1.883c1.472.332 2.54 1.559 2.54 3.117Zm11.002-3.116v1.883c0 .245 0 .57-.082.822l-1.014 1.638c-.425.325-.932.57-1.438.736V66.43c-.09-1.645 1.006-2.871 2.534-3.196Z" fill="#CBCBCB"/><path d="M327.029 61.12c0 1.14-.897 2.116-2.116 2.116a2.101 2.101 0 0 1-2.116-2.116c0-1.14.896-2.116 2.116-2.116 1.14.079 2.116.975 2.116 2.116Zm5.926 0c0 1.14-.897 2.116-2.116 2.116-1.22 0-2.116-.897-2.116-2.116 0-1.14.896-2.116 2.116-2.116 1.219-.007 2.116.975 2.116 2.116Z" fill="#fff"/><path d="M325.339 61.544a.845.845 0 0 1-.847-.846c0-.512.334-.846.847-.846.423 0 .846.334.846.846a.845.845 0 0 1-.846.846Zm5.078 0a.846.846 0 0 1-.847-.846c0-.512.334-.846.847-.846.505 0 .846.334.846.846a.845.845 0 0 1-.846.846Zm-7.619 5.084c0 .458-.327.842-.717.842h-.258c-.39 0-.718-.384-.718-.842 0-.458.328-.841.718-.841h.258c.396-.075.717.31.717.841Z" fill="#444"/><path d="M327.029 64.93h.847v3.385h-.847V64.93Zm.848 0h.846v3.385h-.846V64.93Zm1.691 0v3.385h.847v-2.148c0-.655-.305-1.15-.847-1.237Zm-3.384 0a1.34 1.34 0 0 0-.846 1.237v2.148h.846V64.93Z" fill="#7B7B7B"/><path d="M321.106 60.869v3.044c0 .467-.314.859-.796 1.017h-.711c-.551 0-1.033-.467-1.033-1.017v-3.044c0-.543.475-1.017 1.033-1.017h.711c.482.158.796.542.796 1.017Z" fill="#686868"/><path d="M321.107 60.869v3.044c0 .467-.334.859-.847 1.017-.504-.158-.846-.543-.846-1.017v-3.044c0-.468.334-.86.846-1.017.513.158.847.542.847 1.017Z" fill="#7B7B7B"/><path d="M337.188 60.869v3.044c0 .467-.314.859-.796 1.017h-.711c-.551 0-1.033-.467-1.033-1.017v-3.044c0-.543.475-1.017 1.033-1.017h.711c.482.158.796.542.796 1.017Z" fill="#686868"/><path d="M337.187 60.869v3.044c0 .467-.334.859-.846 1.017-.505-.158-.847-.543-.847-1.017v-3.044c0-.468.334-.86.847-1.017.512.158.846.542.846 1.017Z" fill="#7B7B7B"/><path d="M333.674 65.773h.259c.39 0 .717.386.717.847 0 .46-.327.846-.717.846h-.259c-.39 0-.717-.386-.717-.846 0-.46.327-.847.717-.847Z" fill="#444"/><path d="M319.414 66.31v-1.874c0-.18.191-.354.373-.354.191 0 .374.181.374.354v1.874c0 .268.191.449.473.449h.946c.191 0 .373.181.373.354 0 .181-.191.355-.373.355h-.946c-.656 0-1.22-.536-1.22-1.158Z" fill="#848484"/><path d="m334.649 71.608-12.696.091v-.09c0-1.32.874-2.449 2.061-2.449h8.651c1.027 0 1.984 1.129 1.984 2.448Z" fill="#CBCBCB"/><path d="m333.801 71.608-10.156.091v-.09c0-1.32.86-2.449 2.029-2.449h6.173c1.012 0 1.954 1.129 1.954 2.448Z" fill="#E5E5E5"/><path d="M327.457 51.387c-6.757 0-12.248 5.491-12.248 12.248 0 6.756 5.491 12.247 12.248 12.247 6.756 0 12.247-5.491 12.247-12.248 0-6.756-5.491-12.247-12.247-12.247Zm0 23.06c-5.916 0-10.812-4.815-10.812-10.813 0-2.619 1.012-5.156 2.701-7.098l15.209 15.21c-2.031 1.688-4.479 2.7-7.098 2.7Zm8.11-3.714-15.209-15.21c1.942-1.688 4.39-2.7 7.099-2.7 5.915 0 10.811 4.814 10.811 10.812 0 2.619-1.012 5.156-2.701 7.098Z" fill="#E84C4F"/></g></g></g><path d="M180.172 132.63h-2.979v-2.096h2.373c.694 0 1.257-.106 1.687-.317.431-.219.747-.527.95-.923.202-.395.303-.861.303-1.397 0-.439-.114-.844-.343-1.213-.22-.369-.562-.663-1.028-.883-.466-.229-1.059-.343-1.78-.343-.545 0-1.042.097-1.49.29a2.583 2.583 0 0 0-1.068.817c-.263.343-.395.761-.395 1.253h-3.942c0-.844.18-1.6.54-2.268a5.227 5.227 0 0 1 1.503-1.714 7.044 7.044 0 0 1 2.215-1.081 9.284 9.284 0 0 1 2.637-.369c1.081 0 2.057.119 2.927.356.87.229 1.617.571 2.241 1.029a4.612 4.612 0 0 1 1.437 1.7c.334.677.501 1.464.501 2.36a4 4 0 0 1-.448 1.859 4.682 4.682 0 0 1-1.279 1.529c-.554.44-1.217.787-1.991 1.042-.773.246-1.63.369-2.571.369Zm-2.979-1.147h2.979c1.046 0 1.974.11 2.782.329.817.22 1.507.541 2.07.963a4.052 4.052 0 0 1 1.292 1.569c.299.615.448 1.323.448 2.122 0 .897-.184 1.692-.554 2.387a5.01 5.01 0 0 1-1.542 1.766c-.659.484-1.441.848-2.347 1.094-.896.246-1.885.37-2.966.37a10.67 10.67 0 0 1-2.571-.317 7.877 7.877 0 0 1-2.32-1.002 5.117 5.117 0 0 1-1.661-1.727c-.413-.703-.62-1.547-.62-2.531h3.968c0 .466.137.892.409 1.279.273.378.65.681 1.134.909.483.22 1.037.33 1.661.33.729 0 1.349-.114 1.859-.343.518-.228.91-.54 1.173-.936.273-.404.409-.848.409-1.331 0-.519-.07-.958-.211-1.319a2.144 2.144 0 0 0-.62-.883 2.462 2.462 0 0 0-1.015-.514 5.378 5.378 0 0 0-1.384-.158h-2.373v-2.057Zm19.96 7.132v-6.354c0-.457-.075-.848-.224-1.174a1.67 1.67 0 0 0-.699-.777c-.308-.185-.708-.277-1.2-.277-.422 0-.786.074-1.094.224a1.58 1.58 0 0 0-.712.619c-.167.264-.25.576-.25.936h-3.797c0-.606.14-1.182.422-1.727a4.322 4.322 0 0 1 1.226-1.437 6.063 6.063 0 0 1 1.911-.988c.747-.238 1.582-.356 2.505-.356 1.108 0 2.092.184 2.953.553.862.37 1.538.923 2.031 1.662.501.738.751 1.661.751 2.768v6.104c0 .782.048 1.424.145 1.925.097.492.237.923.422 1.292v.224h-3.836c-.185-.387-.326-.87-.422-1.45a11.942 11.942 0 0 1-.132-1.767Zm.501-5.471.026 2.149h-2.122c-.501 0-.936.057-1.306.171a2.435 2.435 0 0 0-.909.488 1.89 1.89 0 0 0-.528.712 2.475 2.475 0 0 0-.158.897c0 .325.075.619.224.883.15.255.365.457.646.606.282.141.611.211.989.211.571 0 1.068-.114 1.49-.343.422-.228.747-.509.975-.843.238-.334.361-.651.37-.95l1.002 1.609c-.141.36-.334.734-.581 1.12-.237.387-.54.752-.909 1.095a4.669 4.669 0 0 1-1.332.83c-.518.211-1.134.317-1.845.317-.906 0-1.728-.18-2.466-.541a4.495 4.495 0 0 1-1.74-1.516c-.422-.65-.633-1.389-.633-2.215 0-.747.141-1.41.422-1.991a3.884 3.884 0 0 1 1.239-1.463c.554-.404 1.244-.707 2.07-.91.826-.21 1.784-.316 2.874-.316h2.202Zm28.358 5.735-.264 7.185h-3.533v-4.232h-1.595v-2.953h5.392Zm-22.162-11.312h3.797v11.299h3.955v-11.299h3.81v11.299h3.942v-11.299h3.797v14.265H203.85v-14.265Zm28.2 8.965 4.785-8.965h3.797v14.265h-3.797v-8.978l-4.785 8.978h-3.797v-14.265h3.797v8.965Zm18.773-8.965v14.265h-3.81v-14.265h3.81Zm4.588 0v2.94h-12.92v-2.94h12.92Zm9.426 11.048v-6.354c0-.457-.074-.848-.224-1.174a1.662 1.662 0 0 0-.698-.777c-.308-.185-.708-.277-1.2-.277-.422 0-.787.074-1.094.224a1.58 1.58 0 0 0-.712.619 1.714 1.714 0 0 0-.251.936h-3.797c0-.606.141-1.182.422-1.727a4.322 4.322 0 0 1 1.226-1.437 6.068 6.068 0 0 1 1.912-.988c.747-.238 1.582-.356 2.505-.356 1.107 0 2.092.184 2.953.553.861.37 1.538.923 2.03 1.662.501.738.752 1.661.752 2.768v6.104c0 .782.048 1.424.145 1.925.096.492.237.923.422 1.292v.224h-3.837c-.184-.387-.325-.87-.422-1.45a11.942 11.942 0 0 1-.132-1.767Zm.501-5.471.027 2.149h-2.123c-.501 0-.936.057-1.305.171a2.447 2.447 0 0 0-.91.488c-.237.202-.413.44-.527.712a2.475 2.475 0 0 0-.158.897c0 .325.075.619.224.883.149.255.365.457.646.606.281.141.611.211.989.211.571 0 1.068-.114 1.489-.343.422-.228.748-.509.976-.843.237-.334.36-.651.369-.95l1.002 1.609c-.141.36-.334.734-.58 1.12-.237.387-.54.752-.91 1.095a4.677 4.677 0 0 1-1.331.83c-.519.211-1.134.317-1.846.317-.905 0-1.727-.18-2.465-.541a4.48 4.48 0 0 1-1.74-1.516c-.422-.65-.633-1.389-.633-2.215 0-.747.14-1.41.422-1.991a3.884 3.884 0 0 1 1.239-1.463c.554-.404 1.244-.707 2.07-.91.826-.21 1.784-.316 2.874-.316h2.201Zm12.367 1.701v-.277c0-1.046.149-2.008.448-2.887a6.68 6.68 0 0 1 1.305-2.307 5.847 5.847 0 0 1 2.109-1.517c.835-.369 1.793-.553 2.874-.553 1.081 0 2.044.184 2.888.553a5.828 5.828 0 0 1 2.122 1.517c.58.65 1.02 1.419 1.319 2.307.298.879.448 1.841.448 2.887v.277a9.02 9.02 0 0 1-.448 2.887 6.73 6.73 0 0 1-1.319 2.307 5.844 5.844 0 0 1-2.109 1.516c-.835.361-1.793.541-2.874.541-1.081 0-2.044-.18-2.887-.541a5.976 5.976 0 0 1-2.123-1.516 6.85 6.85 0 0 1-1.305-2.307c-.299-.888-.448-1.85-.448-2.887Zm3.796-.277v.277c0 .597.053 1.155.159 1.674.105.519.272.976.501 1.371.237.387.545.69.922.91.378.22.84.329 1.385.329.527 0 .98-.109 1.358-.329.378-.22.681-.523.909-.91a4.49 4.49 0 0 0 .501-1.371 7.73 7.73 0 0 0 .172-1.674v-.277c0-.58-.057-1.125-.172-1.635a4.32 4.32 0 0 0-.514-1.371 2.547 2.547 0 0 0-.91-.949c-.377-.229-.834-.343-1.371-.343-.536 0-.993.114-1.371.343a2.691 2.691 0 0 0-.909.949 4.509 4.509 0 0 0-.501 1.371 8.027 8.027 0 0 0-.159 1.635Zm18.945-7.001v14.265h-3.81v-14.265h3.81Zm4.588 0v2.94h-12.92v-2.94h12.92Zm14.555 11.562c.466 0 .879-.087 1.239-.263a2.1 2.1 0 0 0 .844-.765c.211-.334.321-.725.329-1.173h3.573c-.009 1.002-.277 1.894-.804 2.676-.527.773-1.235 1.384-2.123 1.833-.887.439-1.88.659-2.979.659-1.107 0-2.074-.185-2.9-.554a5.662 5.662 0 0 1-2.044-1.529 6.707 6.707 0 0 1-1.226-2.294 9.499 9.499 0 0 1-.409-2.822v-.382c0-1.011.137-1.951.409-2.821a6.546 6.546 0 0 1 1.226-2.294 5.606 5.606 0 0 1 2.044-1.543c.817-.369 1.775-.553 2.874-.553 1.169 0 2.192.224 3.071.672a5.006 5.006 0 0 1 2.083 1.925c.51.826.769 1.806.778 2.94h-3.573a2.954 2.954 0 0 0-.303-1.292 2.18 2.18 0 0 0-.817-.923c-.352-.237-.787-.356-1.305-.356-.554 0-1.007.119-1.358.356a2.274 2.274 0 0 0-.818.949 4.74 4.74 0 0 0-.408 1.358 11.274 11.274 0 0 0-.106 1.582v.382c0 .554.035 1.086.106 1.596.07.509.202.962.395 1.358.202.395.479.707.831.936.351.228.808.342 1.371.342Zm12.234-11.562v14.265h-3.797v-14.265h3.797Zm9.268 0-6.143 8.926h-3.797l-.462-3.507h2.519l3.071-5.419h4.812Zm-4.64 14.265-3.507-6.025 3.309-1.832 5.287 7.857h-5.089Zm16.11-14.265v2.98h-7.014v-2.98h7.014Zm2.782 0v14.265h-3.797v-14.265h3.797Zm-10.745 0h3.731l-.382 7.199c-.053 1.028-.163 1.933-.33 2.715-.167.783-.391 1.451-.672 2.004-.273.554-.602 1.007-.989 1.358a3.496 3.496 0 0 1-1.331.752 5.506 5.506 0 0 1-1.662.237h-1.16l-.039-2.993.487-.052c.282-.027.528-.106.739-.238.219-.14.404-.338.553-.593.159-.264.29-.593.396-.989.105-.404.189-.879.25-1.424.071-.544.119-1.173.145-1.885l.264-6.091Zm17.468 8.965 4.786-8.965h3.797v14.265h-3.797v-8.978l-4.786 8.978h-3.796v-14.265h3.796v8.965Zm15.557-8.965v14.265h-3.797v-14.265h3.797Zm9.268 0-6.143 8.926h-3.797l-.462-3.507h2.518l3.072-5.419h4.812Zm-4.641 14.265-3.506-6.025 3.309-1.832 5.286 7.857h-5.089Zm10.297-5.3 4.786-8.965h3.796v14.265h-3.796v-8.978l-4.786 8.978h-3.797v-14.265h3.797v8.965Zm18.615-.659h-4.469l-.026-2.492h3.691c.492 0 .892-.048 1.2-.145.307-.105.531-.259.672-.461.149-.211.224-.466.224-.765 0-.263-.048-.488-.145-.672a1.121 1.121 0 0 0-.409-.475 1.854 1.854 0 0 0-.698-.263 4.39 4.39 0 0 0-.963-.093h-2.135v11.325h-3.797v-14.265h5.932c.932 0 1.767.084 2.505.251.738.158 1.367.4 1.885.725.528.325.928.738 1.2 1.239.281.492.422 1.077.422 1.754 0 .439-.101.852-.303 1.239a3.007 3.007 0 0 1-.87 1.028c-.387.299-.866.545-1.437.739-.563.184-1.213.298-1.952.342l-.527.989Zm0 5.959h-5.405l1.305-2.94h4.1c.466 0 .848-.057 1.147-.171.299-.115.519-.282.659-.501.15-.229.224-.501.224-.818 0-.307-.066-.575-.197-.804-.132-.228-.348-.404-.646-.527-.29-.132-.686-.198-1.187-.198h-3.546l.026-2.492h4.034l.923 1.002c1.002.062 1.828.251 2.479.567.65.317 1.129.721 1.437 1.213.316.483.474 1.015.474 1.595 0 .677-.127 1.27-.382 1.78s-.633.936-1.134 1.279c-.492.334-1.098.589-1.819.765-.721.167-1.551.25-2.492.25Zm15.86-3.217v-6.354c0-.457-.075-.848-.224-1.174a1.664 1.664 0 0 0-.699-.777c-.307-.185-.707-.277-1.2-.277-.421 0-.786.074-1.094.224-.307.14-.545.347-.712.619-.167.264-.25.576-.25.936h-3.797c0-.606.141-1.182.422-1.727a4.322 4.322 0 0 1 1.226-1.437 6.063 6.063 0 0 1 1.911-.988c.748-.238 1.583-.356 2.505-.356 1.108 0 2.092.184 2.953.553.862.37 1.539.923 2.031 1.662.501.738.751 1.661.751 2.768v6.104c0 .782.049 1.424.145 1.925.097.492.238.923.422 1.292v.224h-3.836c-.185-.387-.326-.87-.422-1.45a11.942 11.942 0 0 1-.132-1.767Zm.501-5.471.026 2.149h-2.122c-.501 0-.936.057-1.305.171-.37.115-.673.277-.91.488-.237.202-.413.44-.527.712a2.454 2.454 0 0 0-.159.897c0 .325.075.619.224.883.15.255.365.457.646.606.282.141.611.211.989.211.572 0 1.068-.114 1.49-.343.422-.228.747-.509.976-.843.237-.334.36-.651.369-.95l1.002 1.609c-.141.36-.334.734-.58 1.12a5.264 5.264 0 0 1-.91 1.095 4.669 4.669 0 0 1-1.332.83c-.518.211-1.133.317-1.845.317-.906 0-1.727-.18-2.466-.541a4.495 4.495 0 0 1-1.74-1.516c-.422-.65-.633-1.389-.633-2.215 0-.747.141-1.41.422-1.991a3.893 3.893 0 0 1 1.239-1.463c.554-.404 1.244-.707 2.07-.91.826-.21 1.784-.316 2.874-.316h2.202Zm16.018.185v2.953h-7.251v-2.953h7.251Zm-5.985-5.762v14.265h-3.797v-14.265h3.797Zm8.556 0v14.265h-3.81v-14.265h3.81Zm6.737 8.965 4.785-8.965h3.797v14.265h-3.797v-8.978l-4.785 8.978h-3.797v-14.265h3.797v8.965Zm14.581-1.819h3.849l-3.968 7.119h-3.836l3.955-7.119Zm2.557-7.146h6.263v14.265h-3.797v-11.325h-2.466c-.518 0-.949.097-1.292.29a1.862 1.862 0 0 0-.764.725c-.159.29-.238.589-.238.897 0 .299.079.589.238.87.158.281.404.514.738.699.334.184.751.277 1.252.277h3.942v2.584h-3.942c-.94 0-1.784-.115-2.531-.343-.738-.229-1.371-.545-1.898-.949a4.42 4.42 0 0 1-1.2-1.437 4.075 4.075 0 0 1-.409-1.82c0-.685.141-1.314.422-1.885a4.502 4.502 0 0 1 1.213-1.503c.527-.431 1.165-.76 1.912-.989.756-.237 1.608-.356 2.557-.356ZM272.51 170.873h-4.469l-.026-2.492h3.691c.492 0 .892-.048 1.2-.145.307-.105.532-.259.672-.461.15-.211.224-.466.224-.765 0-.263-.048-.488-.145-.672a1.126 1.126 0 0 0-.408-.475 1.866 1.866 0 0 0-.699-.263 4.384 4.384 0 0 0-.963-.093h-2.135v11.325h-3.797v-14.265h5.932c.932 0 1.767.084 2.505.251.739.158 1.367.4 1.886.725.527.325.927.738 1.199 1.239.281.492.422 1.077.422 1.754 0 .439-.101.852-.303 1.239a2.996 2.996 0 0 1-.87 1.028c-.387.299-.866.545-1.437.739-.563.184-1.213.298-1.951.342l-.528.989Zm0 5.959h-5.405l1.305-2.94h4.1c.466 0 .848-.057 1.147-.171.299-.115.519-.282.659-.501.15-.229.225-.501.225-.818 0-.307-.066-.575-.198-.804-.132-.228-.347-.404-.646-.527-.29-.132-.686-.198-1.187-.198h-3.546l.026-2.492h4.034l.923 1.002c1.002.062 1.828.251 2.479.567.65.317 1.129.721 1.437 1.213.316.483.474 1.015.474 1.595 0 .677-.127 1.27-.382 1.78s-.633.936-1.134 1.279c-.492.334-1.098.589-1.819.765-.721.167-1.551.25-2.492.25Zm22.927-15.913-5.221 15.913h-4.206l7.133-19.195h2.676l-.382 3.282Zm4.337 15.913-5.234-15.913-.422-3.282h2.703l7.172 19.195h-4.219Zm-.237-7.145v3.098h-10.139v-3.098h10.139Zm15.345-1.358v2.953h-7.251v-2.953h7.251Zm-5.985-5.762v14.265H305.1v-14.265h3.797Zm8.556 0v14.265h-3.81v-14.265h3.81Zm10.217 0v14.265h-3.81v-14.265h3.81Zm4.588 0v2.94h-12.92v-2.94h12.92Zm5.722 8.965 4.786-8.965h3.796v14.265h-3.796v-8.978l-4.786 8.978h-3.797v-14.265h3.797v8.965Zm20.25-15.24h3.072c0 .712-.088 1.323-.264 1.833a3.19 3.19 0 0 1-.844 1.292c-.386.351-.905.65-1.555.896-.651.246-1.455.457-2.413.633-.738.149-1.38.395-1.925.738-.536.343-.98.813-1.331 1.411-.343.589-.589 1.336-.739 2.241-.149.896-.202 1.977-.158 3.243v.633l-2.953.409v-.633c.009-1.723.163-3.221.462-4.496.307-1.274.742-2.346 1.305-3.217.562-.879 1.239-1.577 2.03-2.096a7.65 7.65 0 0 1 2.637-1.107c.65-.141 1.169-.277 1.555-.409.396-.141.682-.316.857-.527.176-.211.264-.492.264-.844Zm-1.661 7.08c.967 0 1.824.167 2.571.501a5.126 5.126 0 0 1 1.885 1.384c.51.597.896 1.301 1.16 2.109.264.809.396 1.692.396 2.65v.277c0 .976-.15 1.881-.449 2.716a6.101 6.101 0 0 1-1.292 2.162 5.881 5.881 0 0 1-2.109 1.437c-.835.334-1.789.501-2.861.501-1.081 0-2.043-.18-2.887-.541a6.04 6.04 0 0 1-2.123-1.542 6.976 6.976 0 0 1-1.305-2.334c-.29-.896-.435-1.872-.435-2.926v-.29c0-.15.066-.295.198-.435.14-.15.303-.317.488-.501.193-.185.364-.418.514-.699.527-.976 1.103-1.793 1.727-2.452.624-.668 1.305-1.169 2.043-1.503.747-.343 1.574-.514 2.479-.514Zm-.725 2.966c-.712 0-1.283.171-1.714.514-.431.334-.743.782-.936 1.345a5.707 5.707 0 0 0-.277 1.819v.277c0 .536.053 1.037.158 1.503.106.457.273.866.501 1.226.229.352.532.628.91.831.378.193.839.29 1.384.29.527 0 .976-.097 1.345-.29.378-.203.681-.479.91-.831.228-.36.395-.769.5-1.226.106-.466.159-.967.159-1.503v-.277c0-.501-.053-.971-.159-1.411a3.46 3.46 0 0 0-.5-1.173 2.368 2.368 0 0 0-.91-.804c-.378-.193-.835-.29-1.371-.29Zm8.437 3.507v-.277c0-1.046.15-2.008.448-2.887a6.666 6.666 0 0 1 1.306-2.307 5.847 5.847 0 0 1 2.109-1.517c.835-.369 1.793-.553 2.874-.553 1.081 0 2.044.184 2.887.553a5.823 5.823 0 0 1 2.123 1.517 6.565 6.565 0 0 1 1.318 2.307c.299.879.448 1.841.448 2.887v.277c0 1.037-.149 1.999-.448 2.887a6.729 6.729 0 0 1-1.318 2.307 5.848 5.848 0 0 1-2.11 1.516c-.835.361-1.793.541-2.874.541-1.081 0-2.043-.18-2.887-.541a5.972 5.972 0 0 1-2.122-1.516 6.835 6.835 0 0 1-1.306-2.307 9.02 9.02 0 0 1-.448-2.887Zm3.797-.277v.277c0 .597.053 1.155.158 1.674.106.519.273.976.501 1.371.238.387.545.69.923.91.378.22.84.329 1.384.329.528 0 .98-.109 1.358-.329.378-.22.681-.523.91-.91a4.49 4.49 0 0 0 .501-1.371 7.795 7.795 0 0 0 .171-1.674v-.277c0-.58-.057-1.125-.171-1.635a4.32 4.32 0 0 0-.514-1.371 2.555 2.555 0 0 0-.91-.949c-.378-.229-.835-.343-1.371-.343s-.993.114-1.371.343a2.703 2.703 0 0 0-.91.949 4.562 4.562 0 0 0-.501 1.371 8.1 8.1 0 0 0-.158 1.635Zm18.945-7.001v14.265h-3.81v-14.265h3.81Zm4.588 0v2.94h-12.92v-2.94h12.92Z" fill="#333"/><path d="M283.762 220.117h-3.77l-.021-1.859h3.293c.556 0 1.027-.082 1.413-.244.393-.17.691-.41.894-.722.203-.318.305-.701.305-1.148 0-.495-.095-.898-.285-1.21-.189-.311-.481-.538-.874-.681-.386-.142-.88-.213-1.483-.213h-2.47v12.765h-2.551v-14.798h5.021c.813 0 1.538.078 2.174.234.644.156 1.19.4 1.637.732.454.325.796.738 1.026 1.24.237.501.356 1.097.356 1.789 0 .609-.146 1.168-.437 1.676-.292.502-.722.912-1.291 1.23-.569.319-1.277.508-2.124.569l-.813.64Zm-.112 6.688h-4.461l1.148-2.023h3.313c.576 0 1.057-.095 1.443-.284.387-.197.675-.464.864-.803.197-.346.295-.749.295-1.21 0-.481-.085-.897-.254-1.25a1.75 1.75 0 0 0-.803-.823c-.366-.196-.844-.295-1.433-.295h-2.866l.02-1.859h3.73l.58.701c.813.027 1.48.207 2.002.539.528.332.921.762 1.179 1.29.257.529.386 1.098.386 1.708 0 .941-.207 1.731-.62 2.368-.407.636-.993 1.121-1.758 1.453-.766.325-1.687.488-2.765.488Zm10.112-10.997v10.997h-2.449v-10.997h2.449Zm7.175 0-4.949 6.616h-2.795l-.325-2.215h2.043l2.967-4.401h3.059Zm-2.866 10.997-3.313-4.797 1.931-1.393 4.604 6.19h-3.222Zm11.942-10.997v1.952h-5.366v-1.952h5.366Zm1.921 0v10.997h-2.45v-10.997h2.45Zm-7.887 0h2.419l-.295 5.438a14.9 14.9 0 0 1-.244 2.134 7.135 7.135 0 0 1-.467 1.575 3.34 3.34 0 0 1-.722 1.057 2.665 2.665 0 0 1-.996.6 3.988 3.988 0 0 1-1.28.193h-.762l-.011-2.013.387-.03c.25-.02.467-.085.65-.193.183-.115.339-.278.468-.488.135-.21.243-.481.325-.813a7.78 7.78 0 0 0 .203-1.179c.054-.454.095-.982.122-1.585l.203-4.696Zm10.59 9.777c0-.379.129-.698.386-.955.258-.264.607-.397 1.047-.397.447 0 .796.133 1.047.397.257.257.386.576.386.955 0 .38-.129.698-.386.955-.251.258-.6.387-1.047.387-.44 0-.789-.129-1.047-.387a1.297 1.297 0 0 1-.386-.955Z" fill="#27C58B"/><rect x="325.77" y="209.289" width="53.521" height="20.814" rx="10.407" fill="#27C58B" fill-opacity=".68"/><g filter="url(#f)"><rect x="349.555" y="204.832" width="29.734" height="29.734" rx="14.867" fill="#27C58B"/></g><defs><clipPath id="a"><path fill="#fff" transform="translate(302 34.832)" d="M0 0h51.121v59.11H0z"/></clipPath><clipPath id="b"><path fill="#fff" transform="translate(306.719 28.074)" d="M0 0h48.259v62.737H0z"/></clipPath><clipPath id="c"><path fill="#fff" transform="translate(306.719 38.691)" d="M0 0h42.32v55.016H0z"/></clipPath><filter id="f" x="342.121" y="198.885" width="44.601" height="44.601" filterUnits="userSpaceOnUse" color-interpolation-filters="sRGB"><feFlood flood-opacity="0" result="BackgroundImageFix"/><feColorMatrix in="SourceAlpha" values="0 0 0 0 0 0 0 0 0 0 0 0 0 0 0 0 0 0 127 0" result="hardAlpha"/><feOffset dy="1.487"/><feGaussianBlur stdDeviation="3.717"/><feComposite in2="hardAlpha" operator="out"/><feColorMatrix values="0 0 0 0 0 0 0 0 0 0 0 0 0 0 0 0 0 0 0.12 0"/><feBlend in2="BackgroundImageFix" result="effect1_dropShadow_54_5696"/><feColorMatrix in="SourceAlpha" values="0 0 0 0 0 0 0 0 0 0 0 0 0 0 0 0 0 0 127 0" result="hardAlpha"/><feMorphology radius="2.973" in="SourceAlpha" result="effect2_dropShadow_54_5696"/><feOffset dy="4.46"/><feGaussianBlur stdDeviation=".743"/><feComposite in2="hardAlpha" operator="out"/><feColorMatrix values="0 0 0 0 0 0 0 0 0 0 0 0 0 0 0 0 0 0 0.2 0"/><feBlend in2="effect1_dropShadow_54_5696" result="effect2_dropShadow_54_5696"/><feColorMatrix in="SourceAlpha" values="0 0 0 0 0 0 0 0 0 0 0 0 0 0 0 0 0 0 127 0" result="hardAlpha"/><feOffset dy="2.973"/><feGaussianBlur stdDeviation="1.487"/><feComposite in2="hardAlpha" operator="out"/><feColorMatrix values="0 0 0 0 0 0 0 0 0 0 0 0 0 0 0 0 0 0 0.14 0"/><feBlend in2="effect2_dropShadow_54_5696" result="effect3_dropShadow_54_5696"/><feBlend in="SourceGraphic" in2="effect3_dropShadow_54_5696" result="shape"/></filter></defs></svg>