<svg width="654" height="258" viewBox="0 0 654 258" fill="none" xmlns="http://www.w3.org/2000/svg">
<rect width="653.6" height="258" rx="22.36" fill="white"/>
<path fill-rule="evenodd" clip-rule="evenodd" d="M78.4998 55.1954C78.4998 42.3246 68.066 31.8908 55.1952 31.8908C42.3244 31.8908 31.8906 42.3246 31.8906 55.1954C31.8906 68.0662 42.3244 78.5 55.1952 78.5C68.066 78.5 78.4998 68.0662 78.4998 55.1954ZM58.3025 67.2242V52.0762H52.0879V67.2242H58.3025ZM55.1952 43.1667C56.9113 43.1667 58.3025 44.5578 58.3025 46.2739C58.3025 47.99 56.9113 49.3812 55.1952 49.3812C53.4791 49.3812 52.0879 47.99 52.0879 46.2739C52.0879 44.5578 53.4791 43.1667 55.1952 43.1667Z" fill="#29B74D"/>
<path d="M123.808 44.5214V66.6953H119.174V48.3326H110.21V66.6953H105.576V44.5214H123.808ZM135.699 67.0201C134.017 67.0201 132.563 66.6628 131.336 65.9482C130.116 65.2264 129.174 64.2231 128.51 62.9383C127.846 61.6463 127.514 60.1485 127.514 58.4451C127.514 56.7272 127.846 55.2258 128.51 53.941C129.174 52.649 130.116 51.6457 131.336 50.9311C132.563 50.2093 134.017 49.8484 135.699 49.8484C137.381 49.8484 138.832 50.2093 140.052 50.9311C141.279 51.6457 142.224 52.649 142.888 53.941C143.553 55.2258 143.885 56.7272 143.885 58.4451C143.885 60.1485 143.553 61.6463 142.888 62.9383C142.224 64.2231 141.279 65.2264 140.052 65.9482C138.832 66.6628 137.381 67.0201 135.699 67.0201ZM135.721 63.4472C136.486 63.4472 137.125 63.2306 137.637 62.7976C138.15 62.3573 138.536 61.7582 138.796 61.0003C139.063 60.2424 139.196 59.3798 139.196 58.4126C139.196 57.4454 139.063 56.5828 138.796 55.8249C138.536 55.067 138.15 54.4679 137.637 54.0276C137.125 53.5873 136.486 53.3672 135.721 53.3672C134.949 53.3672 134.299 53.5873 133.772 54.0276C133.252 54.4679 132.859 55.067 132.592 55.8249C132.332 56.5828 132.202 57.4454 132.202 58.4126C132.202 59.3798 132.332 60.2424 132.592 61.0003C132.859 61.7582 133.252 62.3573 133.772 62.7976C134.299 63.2306 134.949 63.4472 135.721 63.4472ZM145.584 71.5675V63.0358H146.862C147.23 62.8048 147.526 62.4367 147.75 61.9314C147.981 61.4261 148.169 60.8306 148.313 60.1449C148.464 59.4592 148.58 58.7194 148.659 57.9254C148.746 57.1242 148.822 56.3157 148.887 55.5001L149.32 50.0649H162.074V63.0358H164.651V71.5675H160.255V66.6953H150.089V71.5675H145.584ZM151.453 63.0358H157.722V53.6162H153.239L153.066 55.5001C152.943 57.2757 152.766 58.7843 152.535 60.0258C152.304 61.2601 151.944 62.2634 151.453 63.0358ZM167.339 66.6953V50.0649H171.951V56.5178H173.25L177.776 50.0649H183.19L177.311 58.3151L183.255 66.6953H177.776L173.673 60.7945H171.951V66.6953H167.339ZM184.229 66.6953L184.207 63.0358H184.76C185.149 63.0358 185.485 62.9419 185.766 62.7542C186.055 62.5594 186.293 62.2454 186.481 61.8123C186.669 61.3792 186.817 60.8054 186.925 60.0908C187.033 59.369 187.105 58.4812 187.142 57.4273L187.412 50.0649H200.058V66.6953H195.662V53.692H191.559L191.299 58.7699C191.234 60.163 191.065 61.3612 190.79 62.3645C190.523 63.3678 190.151 64.1906 189.675 64.8331C189.199 65.4682 188.625 65.9374 187.954 66.2406C187.282 66.5437 186.503 66.6953 185.615 66.6953H184.229ZM212.826 56.6369V60.2965H203.807V56.6369H212.826ZM207.369 50.0649V66.6953H202.768V50.0649H207.369ZM217.807 67.0201C216.161 67.0201 214.739 66.652 213.541 65.9158C212.342 65.1795 211.419 64.1618 210.769 62.8625C210.127 61.5633 209.805 60.0727 209.805 58.3909C209.805 56.7091 210.127 55.2258 210.769 53.941C211.419 52.6562 212.342 51.6529 213.541 50.9311C214.739 50.2093 216.161 49.8484 217.807 49.8484C219.46 49.8484 220.881 50.2093 222.072 50.9311C223.271 51.6529 224.191 52.6562 224.833 53.941C225.483 55.2258 225.808 56.7091 225.808 58.3909C225.808 60.0727 225.483 61.5633 224.833 62.8625C224.191 64.1618 223.271 65.1795 222.072 65.9158C220.881 66.652 219.46 67.0201 217.807 67.0201ZM217.807 63.2956C218.666 63.2956 219.358 63.0863 219.885 62.6676C220.412 62.2418 220.798 61.6607 221.044 60.9245C221.289 60.181 221.412 59.3365 221.412 58.3909C221.412 57.4454 221.289 56.6081 221.044 55.879C220.798 55.1428 220.412 54.5654 219.885 54.1467C219.358 53.7281 218.666 53.5187 217.807 53.5187C216.955 53.5187 216.262 53.7281 215.728 54.1467C215.194 54.5581 214.8 55.1284 214.548 55.8574C214.302 56.5864 214.179 57.4309 214.179 58.3909C214.179 59.3437 214.302 60.1882 214.548 60.9245C214.8 61.6607 215.194 62.2418 215.728 62.6676C216.262 63.0863 216.955 63.2956 217.807 63.2956ZM243.375 50.0649V66.6953H239.001V50.0649H243.375ZM241.242 57.3624V61.0003C240.888 61.1591 240.448 61.3106 239.921 61.455C239.394 61.5921 238.842 61.704 238.264 61.7906C237.687 61.8773 237.146 61.9206 236.64 61.9206C234.251 61.9206 232.371 61.4297 230.999 60.4481C229.628 59.4592 228.942 57.8821 228.942 55.7166V50.0432H233.295V55.7166C233.295 56.359 233.403 56.8679 233.62 57.2433C233.843 57.6186 234.197 57.8893 234.681 58.0553C235.171 58.2141 235.825 58.2935 236.64 58.2935C237.398 58.2935 238.142 58.2141 238.871 58.0553C239.6 57.8965 240.39 57.6655 241.242 57.3624ZM251.362 60.6105L257.35 50.0649H261.897V66.6953H257.501V56.1172L251.536 66.6953H246.956V50.0649H251.362V60.6105ZM263.925 53.692V50.0649H278.996V53.692H273.636V66.6953H269.241V53.692H263.925ZM288.775 67.0201C287.065 67.0201 285.592 66.6737 284.358 65.9807C283.131 65.2806 282.185 64.2917 281.521 63.0141C280.857 61.7293 280.525 60.2099 280.525 58.4559C280.525 56.7452 280.857 55.2439 281.521 53.9518C282.185 52.6598 283.12 51.6529 284.326 50.9311C285.538 50.2093 286.96 49.8484 288.591 49.8484C289.689 49.8484 290.71 50.0252 291.655 50.3789C292.608 50.7253 293.438 51.2487 294.146 51.9488C294.86 52.649 295.416 53.5296 295.813 54.5906C296.21 55.6445 296.409 56.8787 296.409 58.2935V59.5603H282.366V56.7019H292.067C292.067 56.0378 291.923 55.4496 291.634 54.9371C291.345 54.4246 290.944 54.024 290.432 53.7353C289.927 53.4393 289.338 53.2914 288.667 53.2914C287.967 53.2914 287.346 53.4538 286.805 53.7786C286.271 54.0962 285.852 54.5257 285.549 55.067C285.246 55.6011 285.091 56.1966 285.083 56.8535V59.5711C285.083 60.3939 285.235 61.1049 285.538 61.704C285.849 62.3031 286.285 62.7651 286.848 63.0899C287.411 63.4147 288.079 63.5771 288.851 63.5771C289.364 63.5771 289.833 63.5049 290.259 63.3606C290.685 63.2162 291.049 62.9997 291.352 62.7109C291.655 62.4222 291.886 62.0685 292.045 61.6499L296.311 61.9314C296.095 62.9564 295.651 63.8514 294.979 64.6165C294.315 65.3744 293.456 65.9663 292.403 66.3922C291.356 66.8108 290.147 67.0201 288.775 67.0201ZM306.933 67.0201C305.229 67.0201 303.764 66.6592 302.537 65.9374C301.317 65.2084 300.379 64.1979 299.722 62.9058C299.072 61.6138 298.747 60.1269 298.747 58.4451C298.747 56.7416 299.076 55.2475 299.732 53.9626C300.397 52.6706 301.339 51.6637 302.558 50.9419C303.778 50.2129 305.229 49.8484 306.911 49.8484C308.362 49.8484 309.632 50.1118 310.722 50.6387C311.812 51.1656 312.674 51.9055 313.31 52.8583C313.945 53.8111 314.295 54.9299 314.36 56.2147H310.007C309.885 55.3846 309.56 54.7169 309.033 54.2117C308.513 53.6992 307.831 53.4429 306.987 53.4429C306.272 53.4429 305.648 53.6378 305.114 54.0276C304.587 54.4102 304.175 54.9696 303.879 55.7058C303.583 56.4421 303.435 57.3335 303.435 58.3801C303.435 59.4412 303.58 60.3434 303.868 61.0869C304.164 61.8303 304.579 62.397 305.114 62.7867C305.648 63.1765 306.272 63.3714 306.987 63.3714C307.514 63.3714 307.986 63.2631 308.405 63.0466C308.831 62.83 309.181 62.5161 309.455 62.1046C309.737 61.686 309.921 61.1843 310.007 60.5997H314.36C314.288 61.87 313.941 62.9888 313.32 63.9561C312.707 64.9161 311.859 65.6667 310.776 66.2081C309.693 66.7494 308.412 67.0201 306.933 67.0201ZM320.204 55.1753H325.173C327.375 55.1753 329.093 55.7022 330.327 56.756C331.561 57.8027 332.179 59.203 332.179 60.957C332.179 62.0974 331.901 63.1007 331.345 63.9669C330.789 64.8258 329.988 65.4971 328.941 65.9807C327.895 66.4571 326.639 66.6953 325.173 66.6953H317.313V50.0649H321.72V63.0682H325.173C325.946 63.0682 326.581 62.8733 327.079 62.4836C327.577 62.0938 327.83 61.5958 327.837 60.9894C327.83 60.347 327.577 59.8237 327.079 59.4195C326.581 59.0081 325.946 58.8024 325.173 58.8024H320.204V55.1753ZM342.294 66.6953V50.0649H346.906V56.5178H348.205L352.731 50.0649H358.145L352.266 58.3151L358.21 66.6953H352.731L348.628 60.7945H346.906V66.6953H342.294ZM374.729 67.0201C373.026 67.0201 371.56 66.6592 370.333 65.9374C369.113 65.2084 368.175 64.1979 367.518 62.9058C366.869 61.6138 366.544 60.1269 366.544 58.4451C366.544 56.7416 366.872 55.2475 367.529 53.9626C368.193 52.6706 369.135 51.6637 370.355 50.9419C371.575 50.2129 373.026 49.8484 374.707 49.8484C376.158 49.8484 377.429 50.1118 378.519 50.6387C379.608 51.1656 380.471 51.9055 381.106 52.8583C381.741 53.8111 382.091 54.9299 382.156 56.2147H377.804C377.681 55.3846 377.356 54.7169 376.83 54.2117C376.31 53.6992 375.628 53.4429 374.783 53.4429C374.069 53.4429 373.444 53.6378 372.91 54.0276C372.383 54.4102 371.972 54.9696 371.676 55.7058C371.38 56.4421 371.232 57.3335 371.232 58.3801C371.232 59.4412 371.376 60.3434 371.665 61.0869C371.961 61.8303 372.376 62.397 372.91 62.7867C373.444 63.1765 374.069 63.3714 374.783 63.3714C375.31 63.3714 375.783 63.2631 376.202 63.0466C376.627 62.83 376.977 62.5161 377.252 62.1046C377.533 61.686 377.717 61.1843 377.804 60.5997H382.156C382.084 61.87 381.738 62.9888 381.117 63.9561C380.504 64.9161 379.655 65.6667 378.573 66.2081C377.49 66.7494 376.209 67.0201 374.729 67.0201ZM392.688 67.0201C390.978 67.0201 389.505 66.6737 388.271 65.9807C387.044 65.2806 386.098 64.2917 385.434 63.0141C384.77 61.7293 384.438 60.2099 384.438 58.4559C384.438 56.7452 384.77 55.2439 385.434 53.9518C386.098 52.6598 387.033 51.6529 388.239 50.9311C389.451 50.2093 390.873 49.8484 392.504 49.8484C393.602 49.8484 394.623 50.0252 395.569 50.3789C396.521 50.7253 397.351 51.2487 398.059 51.9488C398.773 52.649 399.329 53.5296 399.726 54.5906C400.123 55.6445 400.322 56.8787 400.322 58.2935V59.5603H386.279V56.7019H395.98C395.98 56.0378 395.836 55.4496 395.547 54.9371C395.258 54.4246 394.858 54.024 394.345 53.7353C393.84 53.4393 393.252 53.2914 392.58 53.2914C391.88 53.2914 391.259 53.4538 390.718 53.7786C390.184 54.0962 389.765 54.5257 389.462 55.067C389.159 55.6011 389.004 56.1966 388.996 56.8535V59.5711C388.996 60.3939 389.148 61.1049 389.451 61.704C389.762 62.3031 390.198 62.7651 390.761 63.0899C391.324 63.4147 391.992 63.5771 392.764 63.5771C393.277 63.5771 393.746 63.5049 394.172 63.3606C394.598 63.2162 394.962 62.9997 395.265 62.7109C395.569 62.4222 395.799 62.0685 395.958 61.6499L400.224 61.9314C400.008 62.9564 399.564 63.8514 398.892 64.6165C398.228 65.3744 397.369 65.9663 396.316 66.3922C395.269 66.8108 394.06 67.0201 392.688 67.0201ZM403.332 72.9317V50.0649H407.879V52.8583H408.085C408.287 52.4108 408.579 51.956 408.962 51.4941C409.351 51.0249 409.857 50.6351 410.477 50.3247C411.105 50.0072 411.885 49.8484 412.816 49.8484C414.029 49.8484 415.148 50.1659 416.172 50.8011C417.197 51.4291 418.017 52.3783 418.63 53.6487C419.244 54.9118 419.551 56.4962 419.551 58.4018C419.551 60.2568 419.251 61.8231 418.652 63.1007C418.06 64.3711 417.252 65.3347 416.227 65.9916C415.209 66.6412 414.068 66.966 412.805 66.966C411.91 66.966 411.149 66.818 410.521 66.5221C409.9 66.2261 409.391 65.8544 408.994 65.4069C408.597 64.9522 408.294 64.4938 408.085 64.0318H407.944V72.9317H403.332ZM407.846 58.3801C407.846 59.369 407.984 60.2315 408.258 60.9678C408.532 61.704 408.929 62.2779 409.449 62.6893C409.969 63.0935 410.6 63.2956 411.344 63.2956C412.094 63.2956 412.729 63.0899 413.249 62.6785C413.769 62.2598 414.162 61.6824 414.429 60.9461C414.704 60.2027 414.841 59.3473 414.841 58.3801C414.841 57.4201 414.707 56.5756 414.44 55.8466C414.173 55.1175 413.78 54.5473 413.26 54.1359C412.74 53.7245 412.101 53.5187 411.344 53.5187C410.593 53.5187 409.958 53.7172 409.438 54.1142C408.926 54.5112 408.532 55.0742 408.258 55.8033C407.984 56.5323 407.846 57.3912 407.846 58.3801ZM422.625 66.6953V50.0649H429.717C431.767 50.0649 433.388 50.4547 434.579 51.2342C435.77 52.0138 436.365 53.1217 436.365 54.5581C436.365 55.4604 436.029 56.2111 435.358 56.8102C434.687 57.4093 433.756 57.8135 432.565 58.0228C433.561 58.095 434.409 58.3224 435.109 58.7049C435.816 59.0803 436.354 59.5675 436.722 60.1666C437.098 60.7657 437.285 61.4297 437.285 62.1588C437.285 63.1043 437.033 63.9164 436.527 64.5949C436.029 65.2734 435.297 65.7931 434.33 66.154C433.37 66.5149 432.197 66.6953 430.811 66.6953H422.625ZM426.924 63.2415H430.811C431.453 63.2415 431.955 63.0899 432.316 62.7867C432.684 62.4764 432.868 62.0541 432.868 61.52C432.868 60.9281 432.684 60.4625 432.316 60.1233C431.955 59.784 431.453 59.6144 430.811 59.6144H426.924V63.2415ZM426.924 56.9076H429.815C430.277 56.9076 430.67 56.8427 430.995 56.7127C431.327 56.5756 431.579 56.3807 431.753 56.1281C431.933 55.8754 432.023 55.5759 432.023 55.2294C432.023 54.7169 431.818 54.3163 431.406 54.0276C430.995 53.7389 430.432 53.5945 429.717 53.5945H426.924V56.9076ZM444.599 60.6105L450.586 50.0649H455.134V66.6953H450.738V56.1172L444.772 66.6953H440.192V50.0649H444.599V60.6105ZM466.345 67.0201C464.642 67.0201 463.177 66.6592 461.949 65.9374C460.73 65.2084 459.791 64.1979 459.134 62.9058C458.485 61.6138 458.16 60.1269 458.16 58.4451C458.16 56.7416 458.488 55.2475 459.145 53.9626C459.809 52.6706 460.751 51.6637 461.971 50.9419C463.191 50.2129 464.642 49.8484 466.324 49.8484C467.774 49.8484 469.045 50.1118 470.135 50.6387C471.225 51.1656 472.087 51.9055 472.722 52.8583C473.358 53.8111 473.708 54.9299 473.773 56.2147H469.42C469.297 55.3846 468.973 54.7169 468.446 54.2117C467.926 53.6992 467.244 53.4429 466.399 53.4429C465.685 53.4429 465.06 53.6378 464.526 54.0276C463.999 54.4102 463.588 54.9696 463.292 55.7058C462.996 56.4421 462.848 57.3335 462.848 58.3801C462.848 59.4412 462.992 60.3434 463.281 61.0869C463.577 61.8303 463.992 62.397 464.526 62.7867C465.06 63.1765 465.685 63.3714 466.399 63.3714C466.926 63.3714 467.399 63.2631 467.818 63.0466C468.244 62.83 468.594 62.5161 468.868 62.1046C469.149 61.686 469.334 61.1843 469.42 60.5997H473.773C473.7 61.87 473.354 62.9888 472.733 63.9561C472.12 64.9161 471.272 65.6667 470.189 66.2081C469.106 66.7494 467.825 67.0201 466.345 67.0201ZM479.573 72.9317C478.989 72.9317 478.44 72.8848 477.928 72.791C477.422 72.7044 477.004 72.5925 476.672 72.4553L477.711 69.0123C478.252 69.1783 478.74 69.2686 479.173 69.283C479.613 69.2974 479.992 69.1964 480.309 68.9798C480.634 68.7633 480.898 68.3952 481.1 67.8755L481.371 67.1717L475.405 50.0649H480.255L483.698 62.2779H483.872L487.347 50.0649H492.23L485.766 68.4926C485.456 69.3877 485.034 70.1672 484.5 70.8313C483.973 71.5025 483.305 72.0186 482.497 72.3795C481.688 72.7477 480.714 72.9317 479.573 72.9317Z" fill="#070707"/>
<path d="M42.9081 119.941V121.258H33.6682V119.941H42.9081ZM33.9281 119.941V124.26H32.3266L32.3182 119.941H33.9281ZM44.3167 119.941L44.2999 124.251H42.6985V119.941H44.3167ZM41.3234 109.05V110.375H35.974V109.05H41.3234ZM42.7152 109.05V121.258H41.1054V109.05H42.7152ZM35.4206 109.05H37.0388L36.7873 113.963C36.7537 114.701 36.6839 115.383 36.5777 116.009C36.4714 116.629 36.3401 117.197 36.1836 117.711C36.0271 118.225 35.8482 118.687 35.647 119.095C35.4457 119.497 35.2305 119.846 35.0013 120.143C34.7722 120.433 34.5318 120.674 34.2803 120.864C34.0343 121.048 33.7856 121.18 33.534 121.258H32.7962V119.941H33.316C33.4614 119.785 33.6263 119.559 33.8107 119.262C34.0008 118.966 34.188 118.583 34.3725 118.114C34.5625 117.638 34.7274 117.06 34.8672 116.378C35.0125 115.696 35.1103 114.891 35.1606 113.963L35.4206 109.05ZM52.1815 112.186V113.468H47.7963V112.186H52.1815ZM53.5482 112.186V121.258H51.9971V112.186H53.5482ZM47.419 112.186H48.9786L48.7438 116.562C48.7047 117.239 48.6404 117.837 48.551 118.357C48.4671 118.871 48.3497 119.313 48.1988 119.681C48.0535 120.05 47.869 120.352 47.6454 120.587C47.4274 120.816 47.1647 120.987 46.8573 121.099C46.5498 121.205 46.1949 121.258 45.7924 121.258H45.3061V119.891L45.6415 119.866C45.8818 119.849 46.0859 119.793 46.2536 119.698C46.4268 119.603 46.5722 119.463 46.6896 119.279C46.807 119.089 46.902 118.846 46.9746 118.55C47.0529 118.253 47.1116 117.901 47.1507 117.493C47.1954 117.085 47.229 116.61 47.2513 116.068L47.419 112.186ZM57.8831 116.931H59.56L56.9356 121.258H55.2587L57.8831 116.931ZM59.1827 112.186H62.9726V121.258H61.4214V113.443H59.1827C58.7411 113.443 58.3806 113.519 58.1011 113.67C57.8216 113.815 57.6176 114.005 57.489 114.24C57.3605 114.475 57.2962 114.718 57.2962 114.969C57.2962 115.215 57.3549 115.453 57.4723 115.682C57.5896 115.906 57.7741 116.09 58.0256 116.235C58.2772 116.381 58.6014 116.453 58.9983 116.453H61.8407V117.728H58.9983C58.4784 117.728 58.0173 117.658 57.6148 117.518C57.2123 117.379 56.8713 117.186 56.5919 116.94C56.3124 116.688 56.1 116.395 55.9546 116.059C55.8093 115.718 55.7366 115.349 55.7366 114.953C55.7366 114.556 55.8121 114.19 55.963 113.854C56.1195 113.519 56.3431 113.225 56.6338 112.974C56.93 112.722 57.2906 112.529 57.7154 112.395C58.1458 112.255 58.6349 112.186 59.1827 112.186ZM73.118 116.923H71.4495V115.967H72.9923C73.4227 115.967 73.7637 115.914 74.0152 115.808C74.2667 115.696 74.4456 115.542 74.5518 115.347C74.658 115.151 74.7111 114.922 74.7111 114.659C74.7111 114.424 74.6496 114.204 74.5267 113.997C74.4093 113.784 74.2192 113.614 73.9565 113.485C73.6938 113.351 73.3416 113.284 72.9 113.284C72.5423 113.284 72.2181 113.348 71.9274 113.477C71.6368 113.6 71.4048 113.77 71.2315 113.988C71.0638 114.201 70.98 114.441 70.98 114.709H69.4288C69.4288 114.156 69.5853 113.681 69.8983 113.284C70.2169 112.882 70.639 112.571 71.1644 112.353C71.6954 112.135 72.274 112.026 72.9 112.026C73.4255 112.026 73.895 112.085 74.3087 112.202C74.7279 112.314 75.0828 112.482 75.3735 112.705C75.6642 112.923 75.885 113.197 76.0359 113.527C76.1924 113.851 76.2707 114.229 76.2707 114.659C76.2707 114.967 76.198 115.257 76.0527 115.531C75.9073 115.805 75.6977 116.048 75.4238 116.261C75.1499 116.467 74.8173 116.629 74.4261 116.747C74.0404 116.864 73.6044 116.923 73.118 116.923ZM71.4495 116.336H73.118C73.6603 116.336 74.1382 116.389 74.5518 116.495C74.9655 116.596 75.312 116.747 75.5915 116.948C75.871 117.149 76.0806 117.398 76.2204 117.694C76.3657 117.985 76.4384 118.32 76.4384 118.7C76.4384 119.125 76.3517 119.508 76.1784 119.849C76.0108 120.185 75.7704 120.47 75.4574 120.704C75.1443 120.939 74.7698 121.118 74.3338 121.241C73.9034 121.364 73.4255 121.426 72.9 121.426C72.3131 121.426 71.743 121.325 71.1896 121.124C70.6362 120.922 70.1806 120.612 69.8229 120.193C69.4651 119.768 69.2862 119.229 69.2862 118.575H70.8374C70.8374 118.849 70.9241 119.109 71.0973 119.354C71.2706 119.6 71.511 119.799 71.8184 119.95C72.1314 120.101 72.492 120.176 72.9 120.176C73.336 120.176 73.6994 120.109 73.99 119.975C74.2807 119.841 74.4987 119.662 74.6441 119.438C74.795 119.215 74.8704 118.972 74.8704 118.709C74.8704 118.368 74.8034 118.094 74.6692 117.887C74.5351 117.68 74.3282 117.529 74.0487 117.434C73.7748 117.334 73.4227 117.283 72.9923 117.283H71.4495V116.336ZM83.8001 119.707V115.036C83.8001 114.679 83.7274 114.368 83.5821 114.106C83.4424 113.837 83.23 113.631 82.9449 113.485C82.6598 113.34 82.3076 113.267 81.8884 113.267C81.4971 113.267 81.1534 113.334 80.8571 113.468C80.5664 113.603 80.3372 113.779 80.1696 113.997C80.0074 114.215 79.9264 114.449 79.9264 114.701H78.3752C78.3752 114.377 78.4591 114.055 78.6268 113.737C78.7945 113.418 79.0348 113.13 79.3479 112.873C79.6665 112.61 80.0466 112.404 80.4882 112.253C80.9354 112.096 81.4328 112.018 81.9806 112.018C82.6402 112.018 83.2216 112.13 83.7247 112.353C84.2333 112.577 84.6302 112.915 84.9153 113.368C85.2059 113.815 85.3513 114.377 85.3513 115.053V119.279C85.3513 119.581 85.3764 119.902 85.4267 120.243C85.4826 120.584 85.5637 120.878 85.6699 121.124V121.258H84.0517C83.9734 121.079 83.9119 120.841 83.8672 120.545C83.8225 120.243 83.8001 119.964 83.8001 119.707ZM84.0684 115.757L84.0852 116.847H82.5173C82.0757 116.847 81.6816 116.884 81.335 116.956C80.9885 117.024 80.6978 117.127 80.463 117.267C80.2282 117.406 80.0494 117.583 79.9264 117.795C79.8034 118.002 79.7419 118.245 79.7419 118.524C79.7419 118.809 79.8062 119.069 79.9348 119.304C80.0633 119.539 80.2562 119.726 80.5133 119.866C80.776 120 81.0975 120.067 81.4776 120.067C81.9527 120.067 82.3719 119.967 82.7353 119.765C83.0986 119.564 83.3865 119.318 83.5989 119.027C83.8169 118.737 83.9343 118.455 83.951 118.181L84.6134 118.927C84.5743 119.162 84.4681 119.422 84.2948 119.707C84.1215 119.992 83.8895 120.266 83.5989 120.528C83.3138 120.785 82.9728 121.001 82.576 121.174C82.1847 121.342 81.7431 121.426 81.2512 121.426C80.6363 121.426 80.0969 121.305 79.6329 121.065C79.1746 120.825 78.8168 120.503 78.5597 120.101C78.3082 119.693 78.1824 119.237 78.1824 118.734C78.1824 118.248 78.2774 117.82 78.4675 117.451C78.6575 117.077 78.9314 116.766 79.2892 116.52C79.6469 116.269 80.0773 116.079 80.5804 115.95C81.0835 115.822 81.6453 115.757 82.2657 115.757H84.0684ZM100.402 119.983L100.251 123.949H98.8674V121.258H97.6851V119.983H100.402ZM87.8331 112.186H89.3843V119.983H92.7046V112.186H94.2642V119.983H97.5761V112.186H99.1273V121.258H87.8331V112.186ZM103.689 118.801L107.872 112.186H109.432V121.258H107.872V114.642L103.689 121.258H102.146V112.186H103.689V118.801ZM115.62 112.186V121.258H114.06V112.186H115.62ZM118.664 112.186V113.443H111.075V112.186H118.664ZM121.464 115.305H124.189C124.921 115.305 125.539 115.433 126.042 115.69C126.545 115.942 126.925 116.291 127.182 116.738C127.445 117.18 127.576 117.683 127.576 118.248C127.576 118.667 127.504 119.061 127.358 119.43C127.213 119.793 126.995 120.112 126.704 120.386C126.419 120.66 126.064 120.875 125.64 121.031C125.22 121.182 124.737 121.258 124.189 121.258H120.332V112.186H121.883V119.983H124.189C124.636 119.983 124.994 119.902 125.262 119.74C125.531 119.578 125.723 119.368 125.841 119.111C125.958 118.854 126.017 118.586 126.017 118.306C126.017 118.033 125.958 117.764 125.841 117.501C125.723 117.239 125.531 117.021 125.262 116.847C124.994 116.669 124.636 116.579 124.189 116.579H121.464V115.305ZM130.805 112.186V121.258H129.253V112.186H130.805ZM139.332 113.93V124.746H137.772V112.186H139.198L139.332 113.93ZM145.444 116.646V116.822C145.444 117.482 145.366 118.094 145.209 118.659C145.053 119.218 144.824 119.704 144.522 120.117C144.226 120.531 143.859 120.853 143.423 121.082C142.987 121.311 142.487 121.426 141.923 121.426C141.347 121.426 140.838 121.33 140.397 121.14C139.955 120.95 139.581 120.674 139.273 120.31C138.966 119.947 138.72 119.511 138.535 119.002C138.356 118.494 138.233 117.921 138.166 117.283V116.344C138.233 115.674 138.359 115.073 138.544 114.542C138.728 114.011 138.971 113.558 139.273 113.183C139.581 112.803 139.952 112.515 140.388 112.32C140.824 112.119 141.327 112.018 141.897 112.018C142.468 112.018 142.974 112.13 143.415 112.353C143.857 112.571 144.228 112.884 144.53 113.292C144.832 113.7 145.059 114.19 145.209 114.76C145.366 115.324 145.444 115.953 145.444 116.646ZM143.885 116.822V116.646C143.885 116.193 143.837 115.769 143.742 115.372C143.647 114.969 143.499 114.617 143.298 114.315C143.102 114.008 142.851 113.768 142.543 113.594C142.236 113.415 141.87 113.326 141.445 113.326C141.053 113.326 140.712 113.393 140.422 113.527C140.137 113.661 139.894 113.843 139.692 114.072C139.491 114.296 139.326 114.553 139.198 114.844C139.075 115.129 138.982 115.425 138.921 115.732V117.904C139.033 118.295 139.189 118.664 139.39 119.011C139.592 119.352 139.86 119.628 140.195 119.841C140.531 120.048 140.953 120.151 141.461 120.151C141.881 120.151 142.241 120.064 142.543 119.891C142.851 119.712 143.102 119.469 143.298 119.162C143.499 118.854 143.647 118.502 143.742 118.105C143.837 117.703 143.885 117.275 143.885 116.822ZM151.188 121.426C150.556 121.426 149.983 121.319 149.469 121.107C148.96 120.889 148.521 120.584 148.152 120.193C147.789 119.802 147.51 119.338 147.314 118.801C147.118 118.264 147.021 117.678 147.021 117.04V116.688C147.021 115.95 147.13 115.294 147.348 114.718C147.566 114.136 147.862 113.645 148.236 113.242C148.611 112.84 149.036 112.535 149.511 112.328C149.986 112.121 150.478 112.018 150.986 112.018C151.635 112.018 152.194 112.13 152.663 112.353C153.139 112.577 153.527 112.89 153.829 113.292C154.131 113.689 154.354 114.159 154.5 114.701C154.645 115.238 154.718 115.825 154.718 116.462V117.158H147.943V115.892H153.166V115.774C153.144 115.372 153.06 114.98 152.915 114.6C152.775 114.22 152.552 113.907 152.244 113.661C151.937 113.415 151.517 113.292 150.986 113.292C150.634 113.292 150.31 113.368 150.014 113.519C149.718 113.664 149.463 113.882 149.251 114.173C149.038 114.463 148.874 114.818 148.756 115.238C148.639 115.657 148.58 116.14 148.58 116.688V117.04C148.58 117.471 148.639 117.876 148.756 118.256C148.879 118.631 149.055 118.96 149.284 119.245C149.519 119.531 149.801 119.754 150.131 119.916C150.467 120.078 150.847 120.159 151.272 120.159C151.819 120.159 152.283 120.048 152.663 119.824C153.043 119.6 153.376 119.301 153.661 118.927L154.6 119.673C154.405 119.969 154.156 120.252 153.854 120.52C153.552 120.788 153.18 121.006 152.739 121.174C152.303 121.342 151.786 121.426 151.188 121.426ZM158.214 112.186V121.258H156.663V112.186H158.214ZM164.167 112.186L159.866 117.384H157.694L157.459 116.026H159.237L162.281 112.186H164.167ZM162.499 121.258L159.162 117.149L160.159 116.026L164.469 121.258H162.499ZM171.881 112.186V113.468H167.496V112.186H171.881ZM173.248 112.186V121.258H171.697V112.186H173.248ZM167.119 112.186H168.678L168.443 116.562C168.404 117.239 168.34 117.837 168.25 118.357C168.167 118.871 168.049 119.313 167.898 119.681C167.753 120.05 167.569 120.352 167.345 120.587C167.127 120.816 166.864 120.987 166.557 121.099C166.249 121.205 165.894 121.258 165.492 121.258H165.006V119.891L165.341 119.866C165.581 119.849 165.785 119.793 165.953 119.698C166.126 119.603 166.272 119.463 166.389 119.279C166.506 119.089 166.602 118.846 166.674 118.55C166.752 118.253 166.811 117.901 166.85 117.493C166.895 117.085 166.929 116.61 166.951 116.068L167.119 112.186ZM181.096 119.707V115.036C181.096 114.679 181.023 114.368 180.878 114.106C180.738 113.837 180.526 113.631 180.241 113.485C179.955 113.34 179.603 113.267 179.184 113.267C178.793 113.267 178.449 113.334 178.153 113.468C177.862 113.603 177.633 113.779 177.465 113.997C177.303 114.215 177.222 114.449 177.222 114.701H175.671C175.671 114.377 175.755 114.055 175.922 113.737C176.09 113.418 176.331 113.13 176.644 112.873C176.962 112.61 177.342 112.404 177.784 112.253C178.231 112.096 178.729 112.018 179.276 112.018C179.936 112.018 180.517 112.13 181.02 112.353C181.529 112.577 181.926 112.915 182.211 113.368C182.502 113.815 182.647 114.377 182.647 115.053V119.279C182.647 119.581 182.672 119.902 182.722 120.243C182.778 120.584 182.859 120.878 182.966 121.124V121.258H181.347C181.269 121.079 181.208 120.841 181.163 120.545C181.118 120.243 181.096 119.964 181.096 119.707ZM181.364 115.757L181.381 116.847H179.813C179.371 116.847 178.977 116.884 178.631 116.956C178.284 117.024 177.993 117.127 177.759 117.267C177.524 117.406 177.345 117.583 177.222 117.795C177.099 118.002 177.038 118.245 177.038 118.524C177.038 118.809 177.102 119.069 177.23 119.304C177.359 119.539 177.552 119.726 177.809 119.866C178.072 120 178.393 120.067 178.773 120.067C179.248 120.067 179.668 119.967 180.031 119.765C180.394 119.564 180.682 119.318 180.895 119.027C181.113 118.737 181.23 118.455 181.247 118.181L181.909 118.927C181.87 119.162 181.764 119.422 181.591 119.707C181.417 119.992 181.185 120.266 180.895 120.528C180.609 120.785 180.269 121.001 179.872 121.174C179.48 121.342 179.039 121.426 178.547 121.426C177.932 121.426 177.393 121.305 176.929 121.065C176.47 120.825 176.113 120.503 175.855 120.101C175.604 119.693 175.478 119.237 175.478 118.734C175.478 118.248 175.573 117.82 175.763 117.451C175.953 117.077 176.227 116.766 176.585 116.52C176.943 116.269 177.373 116.079 177.876 115.95C178.379 115.822 178.941 115.757 179.561 115.757H181.364ZM190.302 119.195L193.388 112.186H194.88L190.839 121.258H189.766L185.741 112.186H187.233L190.302 119.195ZM186.781 112.186V121.258H185.229V112.186H186.781ZM193.773 121.258V112.186H195.333V121.258H193.773ZM203.986 116.118V117.376H199.19V116.118H203.986ZM199.517 112.186V121.258H197.966V112.186H199.517ZM205.244 112.186V121.258H203.684V112.186H205.244ZM209.017 115.305H211.742C212.474 115.305 213.092 115.433 213.595 115.69C214.098 115.942 214.478 116.291 214.735 116.738C214.998 117.18 215.129 117.683 215.129 118.248C215.129 118.667 215.057 119.061 214.911 119.43C214.766 119.793 214.548 120.112 214.257 120.386C213.972 120.66 213.617 120.875 213.192 121.031C212.773 121.182 212.29 121.258 211.742 121.258H207.885V112.186H209.436V119.983H211.742C212.189 119.983 212.547 119.902 212.815 119.74C213.083 119.578 213.276 119.368 213.394 119.111C213.511 118.854 213.57 118.586 213.57 118.306C213.57 118.033 213.511 117.764 213.394 117.501C213.276 117.239 213.083 117.021 212.815 116.847C212.547 116.669 212.189 116.579 211.742 116.579H209.017V115.305ZM218.357 112.186V121.258H216.806V112.186H218.357ZM222.122 112.186L224.109 115.489L226.121 112.186H227.941L224.973 116.663L228.033 121.258H226.239L224.143 117.854L222.047 121.258H220.244L223.296 116.663L220.336 112.186H222.122ZM235.537 112.186V121.258H233.986V112.186H235.537ZM241.491 112.186L237.189 117.384H235.018L234.783 116.026H236.56L239.604 112.186H241.491ZM239.822 121.258L236.485 117.149L237.483 116.026L241.792 121.258H239.822ZM248.492 119.707V115.036C248.492 114.679 248.419 114.368 248.274 114.106C248.134 113.837 247.922 113.631 247.637 113.485C247.351 113.34 246.999 113.267 246.58 113.267C246.189 113.267 245.845 113.334 245.549 113.468C245.258 113.603 245.029 113.779 244.861 113.997C244.699 114.215 244.618 114.449 244.618 114.701H243.067C243.067 114.377 243.151 114.055 243.318 113.737C243.486 113.418 243.726 113.13 244.04 112.873C244.358 112.61 244.738 112.404 245.18 112.253C245.627 112.096 246.125 112.018 246.672 112.018C247.332 112.018 247.913 112.13 248.416 112.353C248.925 112.577 249.322 112.915 249.607 113.368C249.898 113.815 250.043 114.377 250.043 115.053V119.279C250.043 119.581 250.068 119.902 250.118 120.243C250.174 120.584 250.255 120.878 250.362 121.124V121.258H248.743C248.665 121.079 248.604 120.841 248.559 120.545C248.514 120.243 248.492 119.964 248.492 119.707ZM248.76 115.757L248.777 116.847H247.209C246.767 116.847 246.373 116.884 246.027 116.956C245.68 117.024 245.389 117.127 245.155 117.267C244.92 117.406 244.741 117.583 244.618 117.795C244.495 118.002 244.434 118.245 244.434 118.524C244.434 118.809 244.498 119.069 244.626 119.304C244.755 119.539 244.948 119.726 245.205 119.866C245.468 120 245.789 120.067 246.169 120.067C246.644 120.067 247.064 119.967 247.427 119.765C247.79 119.564 248.078 119.318 248.291 119.027C248.509 118.737 248.626 118.455 248.643 118.181L249.305 118.927C249.266 119.162 249.16 119.422 248.986 119.707C248.813 119.992 248.581 120.266 248.291 120.528C248.005 120.785 247.664 121.001 247.268 121.174C246.876 121.342 246.435 121.426 245.943 121.426C245.328 121.426 244.789 121.305 244.325 121.065C243.866 120.825 243.508 120.503 243.251 120.101C243 119.693 242.874 119.237 242.874 118.734C242.874 118.248 242.969 117.82 243.159 117.451C243.349 117.077 243.623 116.766 243.981 116.52C244.339 116.269 244.769 116.079 245.272 115.95C245.775 115.822 246.337 115.757 246.957 115.757H248.76ZM257.698 119.195L260.784 112.186H262.276L258.235 121.258H257.162L253.137 112.186H254.629L257.698 119.195ZM254.177 112.186V121.258H252.625V112.186H254.177ZM261.169 121.258V112.186H262.729V121.258H261.169ZM271.273 112.186V113.468H266.687V112.186H271.273ZM266.913 112.186V121.258H265.362V112.186H266.913ZM272.648 112.186V121.258H271.088V112.186H272.648ZM280.488 119.707V115.036C280.488 114.679 280.415 114.368 280.27 114.106C280.13 113.837 279.918 113.631 279.632 113.485C279.347 113.34 278.995 113.267 278.576 113.267C278.185 113.267 277.841 113.334 277.545 113.468C277.254 113.603 277.025 113.779 276.857 113.997C276.695 114.215 276.614 114.449 276.614 114.701H275.063C275.063 114.377 275.147 114.055 275.314 113.737C275.482 113.418 275.722 113.13 276.035 112.873C276.354 112.61 276.734 112.404 277.176 112.253C277.623 112.096 278.12 112.018 278.668 112.018C279.328 112.018 279.909 112.13 280.412 112.353C280.921 112.577 281.318 112.915 281.603 113.368C281.894 113.815 282.039 114.377 282.039 115.053V119.279C282.039 119.581 282.064 119.902 282.114 120.243C282.17 120.584 282.251 120.878 282.357 121.124V121.258H280.739C280.661 121.079 280.599 120.841 280.555 120.545C280.51 120.243 280.488 119.964 280.488 119.707ZM280.756 115.757L280.773 116.847H279.205C278.763 116.847 278.369 116.884 278.023 116.956C277.676 117.024 277.385 117.127 277.151 117.267C276.916 117.406 276.737 117.583 276.614 117.795C276.491 118.002 276.43 118.245 276.43 118.524C276.43 118.809 276.494 119.069 276.622 119.304C276.751 119.539 276.944 119.726 277.201 119.866C277.464 120 277.785 120.067 278.165 120.067C278.64 120.067 279.059 119.967 279.423 119.765C279.786 119.564 280.074 119.318 280.286 119.027C280.504 118.737 280.622 118.455 280.639 118.181L281.301 118.927C281.262 119.162 281.156 119.422 280.982 119.707C280.809 119.992 280.577 120.266 280.286 120.528C280.001 120.785 279.66 121.001 279.264 121.174C278.872 121.342 278.431 121.426 277.939 121.426C277.324 121.426 276.784 121.305 276.321 121.065C275.862 120.825 275.504 120.503 275.247 120.101C274.996 119.693 274.87 119.237 274.87 118.734C274.87 118.248 274.965 117.82 275.155 117.451C275.345 117.077 275.619 116.766 275.977 116.52C276.334 116.269 276.765 116.079 277.268 115.95C277.771 115.822 278.333 115.757 278.953 115.757H280.756ZM290.633 116.118V117.376H285.837V116.118H290.633ZM286.164 112.186V121.258H284.613V112.186H286.164ZM291.891 112.186V121.258H290.331V112.186H291.891ZM296.066 118.801L300.25 112.186H301.81V121.258H300.25V114.642L296.066 121.258H294.524V112.186H296.066V118.801ZM305.977 118.801L310.161 112.186H311.721V121.258H310.161V114.642L305.977 121.258H304.434V112.186H305.977V118.801ZM309.314 108.899H310.572C310.572 109.335 310.471 109.723 310.27 110.064C310.069 110.4 309.781 110.662 309.406 110.852C309.032 111.042 308.587 111.138 308.073 111.138C307.296 111.138 306.681 110.931 306.229 110.517C305.781 110.098 305.558 109.558 305.558 108.899H306.816C306.816 109.229 306.911 109.519 307.101 109.771C307.291 110.022 307.615 110.148 308.073 110.148C308.52 110.148 308.839 110.022 309.029 109.771C309.219 109.519 309.314 109.229 309.314 108.899ZM318.059 116.822V116.629C318.059 115.975 318.154 115.369 318.344 114.81C318.535 114.245 318.808 113.756 319.166 113.343C319.524 112.923 319.957 112.599 320.466 112.37C320.974 112.135 321.545 112.018 322.176 112.018C322.813 112.018 323.386 112.135 323.895 112.37C324.409 112.599 324.845 112.923 325.203 113.343C325.566 113.756 325.843 114.245 326.033 114.81C326.223 115.369 326.318 115.975 326.318 116.629V116.822C326.318 117.476 326.223 118.083 326.033 118.642C325.843 119.201 325.566 119.69 325.203 120.109C324.845 120.523 324.412 120.847 323.903 121.082C323.4 121.311 322.83 121.426 322.193 121.426C321.556 121.426 320.983 121.311 320.474 121.082C319.965 120.847 319.529 120.523 319.166 120.109C318.808 119.69 318.535 119.201 318.344 118.642C318.154 118.083 318.059 117.476 318.059 116.822ZM319.611 116.629V116.822C319.611 117.275 319.664 117.703 319.77 118.105C319.876 118.502 320.035 118.854 320.248 119.162C320.466 119.469 320.737 119.712 321.061 119.891C321.385 120.064 321.763 120.151 322.193 120.151C322.618 120.151 322.99 120.064 323.308 119.891C323.632 119.712 323.901 119.469 324.113 119.162C324.326 118.854 324.485 118.502 324.591 118.105C324.703 117.703 324.759 117.275 324.759 116.822V116.629C324.759 116.182 324.703 115.76 324.591 115.363C324.485 114.961 324.323 114.606 324.105 114.299C323.892 113.986 323.624 113.74 323.3 113.561C322.981 113.382 322.607 113.292 322.176 113.292C321.751 113.292 321.377 113.382 321.053 113.561C320.734 113.74 320.466 113.986 320.248 114.299C320.035 114.606 319.876 114.961 319.77 115.363C319.664 115.76 319.611 116.182 319.611 116.629ZM331.777 112.186V121.258H330.217V112.186H331.777ZM334.82 112.186V113.443H327.232V112.186H334.82ZM344.236 120.151C344.605 120.151 344.946 120.076 345.259 119.925C345.572 119.774 345.829 119.567 346.031 119.304C346.232 119.036 346.346 118.731 346.374 118.39H347.85C347.822 118.927 347.64 119.427 347.305 119.891C346.975 120.349 346.542 120.721 346.005 121.006C345.469 121.286 344.879 121.426 344.236 121.426C343.554 121.426 342.959 121.305 342.45 121.065C341.947 120.825 341.528 120.495 341.193 120.076C340.863 119.656 340.614 119.176 340.446 118.633C340.284 118.086 340.203 117.507 340.203 116.898V116.546C340.203 115.936 340.284 115.361 340.446 114.818C340.614 114.271 340.863 113.787 341.193 113.368C341.528 112.949 341.947 112.619 342.45 112.378C342.959 112.138 343.554 112.018 344.236 112.018C344.946 112.018 345.567 112.163 346.098 112.454C346.629 112.739 347.045 113.13 347.347 113.628C347.654 114.12 347.822 114.679 347.85 115.305H346.374C346.346 114.93 346.24 114.592 346.056 114.29C345.877 113.988 345.631 113.748 345.318 113.569C345.011 113.385 344.65 113.292 344.236 113.292C343.761 113.292 343.362 113.387 343.037 113.577C342.719 113.762 342.464 114.013 342.274 114.332C342.09 114.645 341.956 114.994 341.872 115.38C341.794 115.76 341.754 116.149 341.754 116.546V116.898C341.754 117.295 341.794 117.686 341.872 118.072C341.95 118.457 342.081 118.807 342.266 119.12C342.456 119.433 342.71 119.684 343.029 119.874C343.353 120.059 343.756 120.151 344.236 120.151ZM351.279 112.186V121.258H349.728V112.186H351.279ZM357.233 112.186L352.931 117.384H350.76L350.525 116.026H352.302L355.346 112.186H357.233ZM355.564 121.258L352.227 117.149L353.225 116.026L357.534 121.258H355.564ZM364.946 112.186V113.468H360.561V112.186H364.946ZM366.313 112.186V121.258H364.762V112.186H366.313ZM360.184 112.186H361.743L361.509 116.562C361.47 117.239 361.405 117.837 361.316 118.357C361.232 118.871 361.115 119.313 360.964 119.681C360.818 120.05 360.634 120.352 360.41 120.587C360.192 120.816 359.93 120.987 359.622 121.099C359.315 121.205 358.96 121.258 358.557 121.258H358.071V119.891L358.406 119.866C358.647 119.849 358.851 119.793 359.018 119.698C359.192 119.603 359.337 119.463 359.454 119.279C359.572 119.089 359.667 118.846 359.74 118.55C359.818 118.253 359.877 117.901 359.916 117.493C359.96 117.085 359.994 116.61 360.016 116.068L360.184 112.186ZM370.489 118.801L374.673 112.186H376.232V121.258H374.673V114.642L370.489 121.258H368.946V112.186H370.489V118.801ZM380.408 112.186V121.258H378.857V112.186H380.408ZM386.361 112.186L382.06 117.384H379.888L379.653 116.026H381.431L384.474 112.186H386.361ZM384.692 121.258L381.355 117.149L382.353 116.026L386.663 121.258H384.692ZM389.69 118.801L393.874 112.186H395.433V121.258H393.874V114.642L389.69 121.258H388.147V112.186H389.69V118.801ZM402.183 117.267H399.206L399.189 116.026H401.621C402.102 116.026 402.501 115.978 402.82 115.883C403.144 115.788 403.387 115.646 403.549 115.456C403.712 115.266 403.793 115.031 403.793 114.751C403.793 114.533 403.745 114.343 403.65 114.181C403.561 114.013 403.424 113.877 403.239 113.77C403.055 113.659 402.826 113.577 402.552 113.527C402.283 113.471 401.968 113.443 401.604 113.443H399.617V121.258H398.066V112.186H401.604C402.18 112.186 402.697 112.236 403.155 112.337C403.619 112.437 404.013 112.591 404.338 112.798C404.667 112.999 404.919 113.256 405.092 113.569C405.266 113.882 405.352 114.251 405.352 114.676C405.352 114.95 405.296 115.21 405.184 115.456C405.073 115.702 404.908 115.92 404.69 116.11C404.472 116.3 404.203 116.456 403.885 116.579C403.566 116.697 403.2 116.772 402.786 116.806L402.183 117.267ZM402.183 121.258H398.644L399.416 120H402.183C402.613 120 402.971 119.947 403.256 119.841C403.541 119.729 403.753 119.572 403.893 119.371C404.039 119.164 404.111 118.918 404.111 118.633C404.111 118.348 404.039 118.105 403.893 117.904C403.753 117.697 403.541 117.541 403.256 117.434C402.971 117.323 402.613 117.267 402.183 117.267H399.827L399.843 116.026H402.786L403.348 116.495C403.846 116.534 404.268 116.657 404.614 116.864C404.961 117.071 405.224 117.334 405.402 117.652C405.581 117.965 405.671 118.306 405.671 118.675C405.671 119.1 405.59 119.475 405.428 119.799C405.271 120.123 405.042 120.394 404.74 120.612C404.438 120.825 404.072 120.987 403.642 121.099C403.211 121.205 402.725 121.258 402.183 121.258ZM413.1 119.707V115.036C413.1 114.679 413.027 114.368 412.882 114.106C412.742 113.837 412.529 113.631 412.244 113.485C411.959 113.34 411.607 113.267 411.188 113.267C410.797 113.267 410.453 113.334 410.157 113.468C409.866 113.603 409.637 113.779 409.469 113.997C409.307 114.215 409.226 114.449 409.226 114.701H407.675C407.675 114.377 407.759 114.055 407.926 113.737C408.094 113.418 408.334 113.13 408.647 112.873C408.966 112.61 409.346 112.404 409.788 112.253C410.235 112.096 410.732 112.018 411.28 112.018C411.94 112.018 412.521 112.13 413.024 112.353C413.533 112.577 413.93 112.915 414.215 113.368C414.505 113.815 414.651 114.377 414.651 115.053V119.279C414.651 119.581 414.676 119.902 414.726 120.243C414.782 120.584 414.863 120.878 414.969 121.124V121.258H413.351C413.273 121.079 413.211 120.841 413.167 120.545C413.122 120.243 413.1 119.964 413.1 119.707ZM413.368 115.757L413.385 116.847H411.817C411.375 116.847 410.981 116.884 410.635 116.956C410.288 117.024 409.997 117.127 409.763 117.267C409.528 117.406 409.349 117.583 409.226 117.795C409.103 118.002 409.041 118.245 409.041 118.524C409.041 118.809 409.106 119.069 409.234 119.304C409.363 119.539 409.556 119.726 409.813 119.866C410.076 120 410.397 120.067 410.777 120.067C411.252 120.067 411.671 119.967 412.035 119.765C412.398 119.564 412.686 119.318 412.898 119.027C413.116 118.737 413.234 118.455 413.251 118.181L413.913 118.927C413.874 119.162 413.768 119.422 413.594 119.707C413.421 119.992 413.189 120.266 412.898 120.528C412.613 120.785 412.272 121.001 411.875 121.174C411.484 121.342 411.043 121.426 410.551 121.426C409.936 121.426 409.396 121.305 408.932 121.065C408.474 120.825 408.116 120.503 407.859 120.101C407.608 119.693 407.482 119.237 407.482 118.734C407.482 118.248 407.577 117.82 407.767 117.451C407.957 117.077 408.231 116.766 408.589 116.52C408.946 116.269 409.377 116.079 409.88 115.95C410.383 115.822 410.945 115.757 411.565 115.757H413.368ZM423.245 116.118V117.376H418.449V116.118H423.245ZM418.776 112.186V121.258H417.225V112.186H418.776ZM424.503 112.186V121.258H422.943V112.186H424.503ZM428.678 118.801L432.862 112.186H434.422V121.258H432.862V114.642L428.678 121.258H427.136V112.186H428.678V118.801ZM438.748 116.931H440.425L437.801 121.258H436.124L438.748 116.931ZM440.048 112.186H443.838V121.258H442.287V113.443H440.048C439.606 113.443 439.246 113.519 438.966 113.67C438.687 113.815 438.483 114.005 438.354 114.24C438.226 114.475 438.161 114.718 438.161 114.969C438.161 115.215 438.22 115.453 438.337 115.682C438.455 115.906 438.639 116.09 438.891 116.235C439.142 116.381 439.467 116.453 439.863 116.453H442.706V117.728H439.863C439.344 117.728 438.882 117.658 438.48 117.518C438.078 117.379 437.737 117.186 437.457 116.94C437.178 116.688 436.965 116.395 436.82 116.059C436.675 115.718 436.602 115.349 436.602 114.953C436.602 114.556 436.677 114.19 436.828 113.854C436.985 113.519 437.208 113.225 437.499 112.974C437.795 112.722 438.156 112.529 438.581 112.395C439.011 112.255 439.5 112.186 440.048 112.186ZM452.273 118.801L456.457 112.186H458.016V121.258H456.457V114.642L452.273 121.258H450.73V112.186H452.273V118.801ZM475.196 116.881V117.057C475.196 117.694 475.127 118.281 474.987 118.818C474.847 119.349 474.637 119.81 474.358 120.201C474.084 120.593 473.743 120.897 473.335 121.115C472.927 121.328 472.455 121.434 471.918 121.434C471.476 121.434 471.088 121.375 470.753 121.258C470.417 121.135 470.132 120.959 469.897 120.73C469.668 120.5 469.484 120.226 469.344 119.908C469.21 119.584 469.118 119.22 469.067 118.818V114.793C469.118 114.363 469.21 113.977 469.344 113.636C469.484 113.295 469.668 113.005 469.897 112.764C470.132 112.524 470.414 112.339 470.744 112.211C471.074 112.082 471.46 112.018 471.901 112.018C472.337 112.018 472.729 112.096 473.075 112.253C473.427 112.404 473.735 112.622 473.997 112.907C474.266 113.192 474.487 113.536 474.66 113.938C474.839 114.335 474.973 114.782 475.062 115.28C475.152 115.777 475.196 116.311 475.196 116.881ZM473.645 117.057V116.881C473.645 116.49 473.617 116.118 473.561 115.766C473.511 115.408 473.43 115.081 473.318 114.785C473.212 114.483 473.072 114.22 472.899 113.997C472.726 113.773 472.516 113.6 472.27 113.477C472.03 113.354 471.753 113.292 471.44 113.292C471.105 113.292 470.825 113.334 470.602 113.418C470.384 113.502 470.213 113.614 470.09 113.754C469.967 113.888 469.878 114.03 469.822 114.181V119.438C469.889 119.561 469.987 119.679 470.115 119.79C470.244 119.897 470.417 119.986 470.635 120.059C470.853 120.126 471.127 120.159 471.457 120.159C471.848 120.159 472.181 120.081 472.455 119.925C472.734 119.763 472.961 119.539 473.134 119.254C473.313 118.969 473.441 118.639 473.52 118.264C473.603 117.89 473.645 117.488 473.645 117.057ZM464.422 117.057V116.881C464.422 116.311 464.467 115.777 464.556 115.28C464.646 114.782 464.78 114.335 464.959 113.938C465.138 113.536 465.358 113.192 465.621 112.907C465.889 112.622 466.197 112.404 466.543 112.253C466.896 112.096 467.29 112.018 467.726 112.018C468.156 112.018 468.531 112.082 468.849 112.211C469.173 112.339 469.447 112.524 469.671 112.764C469.895 113.005 470.073 113.295 470.208 113.636C470.342 113.977 470.437 114.363 470.493 114.793V118.659C470.442 119.083 470.35 119.466 470.216 119.807C470.082 120.148 469.903 120.442 469.679 120.688C469.456 120.928 469.179 121.112 468.849 121.241C468.525 121.37 468.145 121.434 467.709 121.434C467.172 121.434 466.7 121.328 466.292 121.115C465.884 120.897 465.54 120.593 465.261 120.201C464.987 119.81 464.777 119.349 464.632 118.818C464.492 118.281 464.422 117.694 464.422 117.057ZM465.982 116.881V117.057C465.982 117.488 466.018 117.89 466.091 118.264C466.169 118.639 466.289 118.969 466.451 119.254C466.619 119.539 466.837 119.763 467.105 119.925C467.374 120.081 467.703 120.159 468.095 120.159C468.43 120.159 468.707 120.117 468.925 120.034C469.143 119.95 469.316 119.841 469.445 119.707C469.573 119.572 469.671 119.433 469.738 119.287V114.181C469.682 114.03 469.59 113.888 469.461 113.754C469.338 113.614 469.168 113.502 468.95 113.418C468.732 113.334 468.452 113.292 468.111 113.292C467.72 113.292 467.388 113.387 467.114 113.577C466.84 113.768 466.619 114.027 466.451 114.357C466.289 114.687 466.169 115.07 466.091 115.506C466.018 115.936 465.982 116.395 465.982 116.881ZM468.967 124.746V108.379H470.526V124.746H468.967ZM478.777 113.93V124.746H477.217V112.186H478.643L478.777 113.93ZM484.889 116.646V116.822C484.889 117.482 484.811 118.094 484.654 118.659C484.498 119.218 484.269 119.704 483.967 120.117C483.671 120.531 483.304 120.853 482.868 121.082C482.432 121.311 481.932 121.426 481.368 121.426C480.792 121.426 480.283 121.33 479.842 121.14C479.4 120.95 479.025 120.674 478.718 120.31C478.411 119.947 478.165 119.511 477.98 119.002C477.801 118.494 477.678 117.921 477.611 117.283V116.344C477.678 115.674 477.804 115.073 477.989 114.542C478.173 114.011 478.416 113.558 478.718 113.183C479.025 112.803 479.397 112.515 479.833 112.32C480.269 112.119 480.772 112.018 481.342 112.018C481.913 112.018 482.418 112.13 482.86 112.353C483.302 112.571 483.673 112.884 483.975 113.292C484.277 113.7 484.503 114.19 484.654 114.76C484.811 115.324 484.889 115.953 484.889 116.646ZM483.33 116.822V116.646C483.33 116.193 483.282 115.769 483.187 115.372C483.092 114.969 482.944 114.617 482.743 114.315C482.547 114.008 482.296 113.768 481.988 113.594C481.681 113.415 481.314 113.326 480.89 113.326C480.498 113.326 480.157 113.393 479.867 113.527C479.582 113.661 479.339 113.843 479.137 114.072C478.936 114.296 478.771 114.553 478.643 114.844C478.52 115.129 478.427 115.425 478.366 115.732V117.904C478.478 118.295 478.634 118.664 478.835 119.011C479.037 119.352 479.305 119.628 479.64 119.841C479.976 120.048 480.398 120.151 480.906 120.151C481.326 120.151 481.686 120.064 481.988 119.891C482.296 119.712 482.547 119.469 482.743 119.162C482.944 118.854 483.092 118.502 483.187 118.105C483.282 117.703 483.33 117.275 483.33 116.822ZM486.457 116.822V116.629C486.457 115.975 486.552 115.369 486.742 114.81C486.932 114.245 487.206 113.756 487.564 113.343C487.922 112.923 488.355 112.599 488.863 112.37C489.372 112.135 489.942 112.018 490.574 112.018C491.211 112.018 491.784 112.135 492.293 112.37C492.807 112.599 493.243 112.923 493.601 113.343C493.964 113.756 494.241 114.245 494.431 114.81C494.621 115.369 494.716 115.975 494.716 116.629V116.822C494.716 117.476 494.621 118.083 494.431 118.642C494.241 119.201 493.964 119.69 493.601 120.109C493.243 120.523 492.81 120.847 492.301 121.082C491.798 121.311 491.228 121.426 490.591 121.426C489.953 121.426 489.381 121.311 488.872 121.082C488.363 120.847 487.927 120.523 487.564 120.109C487.206 119.69 486.932 119.201 486.742 118.642C486.552 118.083 486.457 117.476 486.457 116.822ZM488.008 116.629V116.822C488.008 117.275 488.061 117.703 488.168 118.105C488.274 118.502 488.433 118.854 488.645 119.162C488.863 119.469 489.135 119.712 489.459 119.891C489.783 120.064 490.16 120.151 490.591 120.151C491.016 120.151 491.387 120.064 491.706 119.891C492.03 119.712 492.298 119.469 492.511 119.162C492.723 118.854 492.883 118.502 492.989 118.105C493.101 117.703 493.156 117.275 493.156 116.822V116.629C493.156 116.182 493.101 115.76 492.989 115.363C492.883 114.961 492.72 114.606 492.502 114.299C492.29 113.986 492.022 113.74 491.698 113.561C491.379 113.382 491.004 113.292 490.574 113.292C490.149 113.292 489.775 113.382 489.45 113.561C489.132 113.74 488.863 113.986 488.645 114.299C488.433 114.606 488.274 114.961 488.168 115.363C488.061 115.76 488.008 116.182 488.008 116.629ZM497.693 112.186H499.244L499.11 115.581C499.076 116.442 498.978 117.186 498.816 117.812C498.654 118.438 498.447 118.972 498.196 119.413C497.944 119.849 497.662 120.215 497.349 120.512C497.041 120.808 496.723 121.057 496.393 121.258H495.622L495.663 119.992L495.982 119.983C496.167 119.765 496.345 119.542 496.519 119.313C496.692 119.078 496.851 118.801 496.997 118.482C497.142 118.158 497.262 117.764 497.357 117.3C497.458 116.831 497.522 116.258 497.55 115.581L497.693 112.186ZM498.078 112.186H503.537V121.258H501.985V113.619H498.078V112.186ZM495.269 119.983H504.702V123.933H503.151V121.258H496.821V123.933H495.261L495.269 119.983ZM511.77 119.707V115.036C511.77 114.679 511.698 114.368 511.552 114.106C511.413 113.837 511.2 113.631 510.915 113.485C510.63 113.34 510.278 113.267 509.859 113.267C509.467 113.267 509.124 113.334 508.827 113.468C508.537 113.603 508.308 113.779 508.14 113.997C507.978 114.215 507.897 114.449 507.897 114.701H506.346C506.346 114.377 506.429 114.055 506.597 113.737C506.765 113.418 507.005 113.13 507.318 112.873C507.637 112.61 508.017 112.404 508.458 112.253C508.906 112.096 509.403 112.018 509.951 112.018C510.611 112.018 511.192 112.13 511.695 112.353C512.204 112.577 512.6 112.915 512.886 113.368C513.176 113.815 513.322 114.377 513.322 115.053V119.279C513.322 119.581 513.347 119.902 513.397 120.243C513.453 120.584 513.534 120.878 513.64 121.124V121.258H512.022C511.944 121.079 511.882 120.841 511.837 120.545C511.793 120.243 511.77 119.964 511.77 119.707ZM512.039 115.757L512.055 116.847H510.488C510.046 116.847 509.652 116.884 509.305 116.956C508.959 117.024 508.668 117.127 508.433 117.267C508.199 117.406 508.02 117.583 507.897 117.795C507.774 118.002 507.712 118.245 507.712 118.524C507.712 118.809 507.776 119.069 507.905 119.304C508.034 119.539 508.226 119.726 508.484 119.866C508.746 120 509.068 120.067 509.448 120.067C509.923 120.067 510.342 119.967 510.706 119.765C511.069 119.564 511.357 119.318 511.569 119.027C511.787 118.737 511.905 118.455 511.921 118.181L512.584 118.927C512.545 119.162 512.438 119.422 512.265 119.707C512.092 119.992 511.86 120.266 511.569 120.528C511.284 120.785 510.943 121.001 510.546 121.174C510.155 121.342 509.713 121.426 509.221 121.426C508.607 121.426 508.067 121.305 507.603 121.065C507.145 120.825 506.787 120.503 506.53 120.101C506.278 119.693 506.153 119.237 506.153 118.734C506.153 118.248 506.248 117.82 506.438 117.451C506.628 117.077 506.902 116.766 507.259 116.52C507.617 116.269 508.048 116.079 508.551 115.95C509.054 115.822 509.616 115.757 510.236 115.757H512.039ZM524.28 117.267H521.304L521.287 116.026H523.719C524.199 116.026 524.599 115.978 524.918 115.883C525.242 115.788 525.485 115.646 525.647 115.456C525.809 115.266 525.89 115.031 525.89 114.751C525.89 114.533 525.843 114.343 525.748 114.181C525.658 114.013 525.521 113.877 525.337 113.77C525.152 113.659 524.923 113.577 524.649 113.527C524.381 113.471 524.065 113.443 523.702 113.443H521.715V121.258H520.163V112.186H523.702C524.278 112.186 524.795 112.236 525.253 112.337C525.717 112.437 526.111 112.591 526.435 112.798C526.765 112.999 527.017 113.256 527.19 113.569C527.363 113.882 527.45 114.251 527.45 114.676C527.45 114.95 527.394 115.21 527.282 115.456C527.17 115.702 527.005 115.92 526.787 116.11C526.569 116.3 526.301 116.456 525.982 116.579C525.664 116.697 525.298 116.772 524.884 116.806L524.28 117.267ZM524.28 121.258H520.742L521.513 120H524.28C524.711 120 525.068 119.947 525.354 119.841C525.639 119.729 525.851 119.572 525.991 119.371C526.136 119.164 526.209 118.918 526.209 118.633C526.209 118.348 526.136 118.105 525.991 117.904C525.851 117.697 525.639 117.541 525.354 117.434C525.068 117.323 524.711 117.267 524.28 117.267H521.924L521.941 116.026H524.884L525.446 116.495C525.943 116.534 526.365 116.657 526.712 116.864C527.058 117.071 527.321 117.334 527.5 117.652C527.679 117.965 527.768 118.306 527.768 118.675C527.768 119.1 527.687 119.475 527.525 119.799C527.369 120.123 527.14 120.394 526.838 120.612C526.536 120.825 526.17 120.987 525.739 121.099C525.309 121.205 524.823 121.258 524.28 121.258ZM535.197 119.707V115.036C535.197 114.679 535.124 114.368 534.979 114.106C534.839 113.837 534.627 113.631 534.342 113.485C534.057 113.34 533.705 113.267 533.285 113.267C532.894 113.267 532.55 113.334 532.254 113.468C531.963 113.603 531.734 113.779 531.567 113.997C531.404 114.215 531.323 114.449 531.323 114.701H529.772C529.772 114.377 529.856 114.055 530.024 113.737C530.192 113.418 530.432 113.13 530.745 112.873C531.064 112.61 531.444 112.404 531.885 112.253C532.332 112.096 532.83 112.018 533.378 112.018C534.037 112.018 534.619 112.13 535.122 112.353C535.63 112.577 536.027 112.915 536.312 113.368C536.603 113.815 536.748 114.377 536.748 115.053V119.279C536.748 119.581 536.773 119.902 536.824 120.243C536.88 120.584 536.961 120.878 537.067 121.124V121.258H535.449C535.37 121.079 535.309 120.841 535.264 120.545C535.22 120.243 535.197 119.964 535.197 119.707ZM535.465 115.757L535.482 116.847H533.914C533.473 116.847 533.079 116.884 532.732 116.956C532.385 117.024 532.095 117.127 531.86 117.267C531.625 117.406 531.446 117.583 531.323 117.795C531.2 118.002 531.139 118.245 531.139 118.524C531.139 118.809 531.203 119.069 531.332 119.304C531.46 119.539 531.653 119.726 531.91 119.866C532.173 120 532.494 120.067 532.875 120.067C533.35 120.067 533.769 119.967 534.132 119.765C534.496 119.564 534.784 119.318 534.996 119.027C535.214 118.737 535.331 118.455 535.348 118.181L536.01 118.927C535.971 119.162 535.865 119.422 535.692 119.707C535.519 119.992 535.287 120.266 534.996 120.528C534.711 120.785 534.37 121.001 533.973 121.174C533.582 121.342 533.14 121.426 532.648 121.426C532.033 121.426 531.494 121.305 531.03 121.065C530.572 120.825 530.214 120.503 529.957 120.101C529.705 119.693 529.579 119.237 529.579 118.734C529.579 118.248 529.674 117.82 529.865 117.451C530.055 117.077 530.328 116.766 530.686 116.52C531.044 116.269 531.474 116.079 531.977 115.95C532.481 115.822 533.042 115.757 533.663 115.757H535.465ZM544.404 119.195L547.489 112.186H548.982L544.94 121.258H543.867L539.842 112.186H541.335L544.404 119.195ZM540.882 112.186V121.258H539.331V112.186H540.882ZM547.875 121.258V112.186H549.434V121.258H547.875ZM39.2272 138.118V139.376H34.4312V138.118H39.2272ZM34.7582 134.186V143.258H33.207V134.186H34.7582ZM40.4849 134.186V143.258H38.9254V134.186H40.4849ZM46.7483 143.426C46.1166 143.426 45.5437 143.319 45.0294 143.107C44.5207 142.889 44.0819 142.584 43.713 142.193C43.3497 141.802 43.0702 141.338 42.8745 140.801C42.6789 140.264 42.5811 139.678 42.5811 139.04V138.688C42.5811 137.95 42.6901 137.294 42.9081 136.718C43.1261 136.136 43.4223 135.645 43.7969 135.242C44.1714 134.84 44.5962 134.535 45.0713 134.328C45.5465 134.121 46.0384 134.018 46.547 134.018C47.1954 134.018 47.7544 134.13 48.224 134.353C48.6991 134.577 49.0876 134.89 49.3894 135.292C49.6913 135.689 49.9149 136.159 50.0602 136.701C50.2055 137.238 50.2782 137.825 50.2782 138.462V139.158H43.5034V137.892H48.727V137.774C48.7047 137.372 48.6208 136.98 48.4755 136.6C48.3358 136.22 48.1122 135.907 47.8047 135.661C47.4973 135.415 47.0781 135.292 46.547 135.292C46.1949 135.292 45.8707 135.368 45.5744 135.519C45.2781 135.664 45.0238 135.882 44.8114 136.173C44.599 136.463 44.4341 136.818 44.3167 137.238C44.1993 137.657 44.1406 138.14 44.1406 138.688V139.04C44.1406 139.471 44.1993 139.876 44.3167 140.256C44.4397 140.631 44.6158 140.96 44.8449 141.245C45.0797 141.531 45.362 141.754 45.6918 141.916C46.0272 142.078 46.4073 142.159 46.8321 142.159C47.3799 142.159 47.8439 142.048 48.224 141.824C48.6041 141.6 48.9367 141.301 49.2217 140.927L50.1608 141.673C49.9652 141.969 49.7164 142.252 49.4146 142.52C49.1127 142.788 48.741 143.006 48.2994 143.174C47.8634 143.342 47.3464 143.426 46.7483 143.426ZM51.6784 138.822V138.629C51.6784 137.975 51.7735 137.369 51.9635 136.81C52.1536 136.245 52.4275 135.756 52.7852 135.343C53.143 134.923 53.5762 134.599 54.0848 134.37C54.5935 134.135 55.1637 134.018 55.7953 134.018C56.4326 134.018 57.0055 134.135 57.5142 134.37C58.0284 134.599 58.4644 134.923 58.8222 135.343C59.1855 135.756 59.4622 136.245 59.6523 136.81C59.8423 137.369 59.9373 137.975 59.9373 138.629V138.822C59.9373 139.476 59.8423 140.083 59.6523 140.642C59.4622 141.201 59.1855 141.69 58.8222 142.109C58.4644 142.523 58.0312 142.847 57.5226 143.082C57.0195 143.311 56.4493 143.426 55.8121 143.426C55.1749 143.426 54.6019 143.311 54.0932 143.082C53.5846 142.847 53.1486 142.523 52.7852 142.109C52.4275 141.69 52.1536 141.201 51.9635 140.642C51.7735 140.083 51.6784 139.476 51.6784 138.822ZM53.2296 138.629V138.822C53.2296 139.275 53.2827 139.703 53.3889 140.105C53.4951 140.502 53.6544 140.854 53.8668 141.162C54.0848 141.469 54.3559 141.712 54.6802 141.891C55.0044 142.064 55.3817 142.151 55.8121 142.151C56.2369 142.151 56.6086 142.064 56.9272 141.891C57.2515 141.712 57.5198 141.469 57.7322 141.162C57.9446 140.854 58.1039 140.502 58.2101 140.105C58.3219 139.703 58.3778 139.275 58.3778 138.822V138.629C58.3778 138.182 58.3219 137.76 58.2101 137.363C58.1039 136.961 57.9418 136.606 57.7238 136.299C57.5114 135.986 57.2431 135.74 56.9189 135.561C56.6002 135.382 56.2257 135.292 55.7953 135.292C55.3705 135.292 54.996 135.382 54.6718 135.561C54.3532 135.74 54.0848 135.986 53.8668 136.299C53.6544 136.606 53.4951 136.961 53.3889 137.363C53.2827 137.76 53.2296 138.182 53.2296 138.629ZM67.7015 130.236H68.976C68.976 130.784 68.8922 131.22 68.7245 131.544C68.5568 131.863 68.3276 132.109 68.0369 132.282C67.7519 132.456 67.4276 132.587 67.0643 132.676C66.7066 132.766 66.3348 132.852 65.9492 132.936C65.4684 133.037 65.0212 133.196 64.6076 133.414C64.1995 133.627 63.8474 133.928 63.5511 134.32C63.2605 134.711 63.0453 135.22 62.9055 135.846C62.7714 136.472 62.735 137.246 62.7965 138.168V138.94H61.522V138.168C61.522 137.134 61.6199 136.231 61.8155 135.46C62.0167 134.689 62.299 134.037 62.6624 133.506C63.0257 132.975 63.4561 132.553 63.9536 132.24C64.4567 131.927 65.0101 131.712 65.6138 131.595C66.0498 131.511 66.4243 131.421 66.7373 131.326C67.0503 131.226 67.2879 131.092 67.45 130.924C67.6177 130.756 67.7015 130.527 67.7015 130.236ZM65.8653 134.705C66.4578 134.705 66.9861 134.809 67.45 135.016C67.914 135.223 68.308 135.51 68.6322 135.879C68.9565 136.248 69.2024 136.684 69.3701 137.187C69.5434 137.685 69.63 138.227 69.63 138.814V138.998C69.63 139.63 69.5378 140.217 69.3533 140.759C69.1745 141.296 68.9089 141.765 68.5568 142.168C68.2102 142.565 67.7854 142.875 67.2823 143.099C66.7848 143.322 66.2175 143.434 65.5802 143.434C64.943 143.434 64.3728 143.322 63.8698 143.099C63.3723 142.875 62.9474 142.565 62.5953 142.168C62.2431 141.765 61.9748 141.296 61.7904 140.759C61.6115 140.217 61.522 139.63 61.522 138.998V138.814C61.522 138.674 61.5472 138.537 61.5975 138.403C61.6478 138.269 61.7093 138.132 61.782 137.992C61.8602 137.852 61.9301 137.704 61.9916 137.548C62.1984 137.045 62.4807 136.578 62.8384 136.148C63.2018 135.717 63.635 135.371 64.1381 135.108C64.6467 134.84 65.2225 134.705 65.8653 134.705ZM65.5635 135.972C64.9933 135.972 64.5238 136.103 64.1548 136.366C63.7915 136.628 63.5204 136.978 63.3415 137.414C63.1626 137.844 63.0732 138.311 63.0732 138.814V138.998C63.0732 139.423 63.1235 139.826 63.2241 140.206C63.3247 140.586 63.4757 140.924 63.6769 141.22C63.8837 141.511 64.1437 141.74 64.4567 141.908C64.7753 142.076 65.1498 142.159 65.5802 142.159C66.0106 142.159 66.3824 142.076 66.6954 141.908C67.0084 141.74 67.2655 141.511 67.4668 141.22C67.668 140.924 67.8189 140.586 67.9195 140.206C68.0202 139.826 68.0705 139.423 68.0705 138.998V138.814C68.0705 138.434 68.0202 138.073 67.9195 137.732C67.8189 137.391 67.6652 137.089 67.4584 136.827C67.2572 136.564 66.9972 136.357 66.6786 136.206C66.3656 136.05 65.9939 135.972 65.5635 135.972ZM72.3047 134.186L74.2919 137.489L76.3042 134.186H78.1237L75.1555 138.663L78.2159 143.258H76.4216L74.3254 139.854L72.2293 143.258H70.4266L73.4786 138.663L70.5188 134.186H72.3047ZM79.1969 138.822V138.629C79.1969 137.975 79.292 137.369 79.482 136.81C79.6721 136.245 79.946 135.756 80.3037 135.343C80.6615 134.923 81.0947 134.599 81.6033 134.37C82.112 134.135 82.6822 134.018 83.3138 134.018C83.951 134.018 84.524 134.135 85.0327 134.37C85.5469 134.599 85.9829 134.923 86.3407 135.343C86.704 135.756 86.9807 136.245 87.1708 136.81C87.3608 137.369 87.4558 137.975 87.4558 138.629V138.822C87.4558 139.476 87.3608 140.083 87.1708 140.642C86.9807 141.201 86.704 141.69 86.3407 142.109C85.9829 142.523 85.5497 142.847 85.041 143.082C84.538 143.311 83.9678 143.426 83.3306 143.426C82.6933 143.426 82.1204 143.311 81.6117 143.082C81.103 142.847 80.667 142.523 80.3037 142.109C79.946 141.69 79.6721 141.201 79.482 140.642C79.292 140.083 79.1969 139.476 79.1969 138.822ZM80.7481 138.629V138.822C80.7481 139.275 80.8012 139.703 80.9074 140.105C81.0136 140.502 81.1729 140.854 81.3853 141.162C81.6033 141.469 81.8744 141.712 82.1986 141.891C82.5228 142.064 82.9002 142.151 83.3306 142.151C83.7554 142.151 84.1271 142.064 84.4457 141.891C84.7699 141.712 85.0383 141.469 85.2507 141.162C85.4631 140.854 85.6224 140.502 85.7286 140.105C85.8404 139.703 85.8963 139.275 85.8963 138.822V138.629C85.8963 138.182 85.8404 137.76 85.7286 137.363C85.6224 136.961 85.4603 136.606 85.2423 136.299C85.0299 135.986 84.7616 135.74 84.4373 135.561C84.1187 135.382 83.7442 135.292 83.3138 135.292C82.889 135.292 82.5145 135.382 82.1903 135.561C81.8716 135.74 81.6033 135.986 81.3853 136.299C81.1729 136.606 81.0136 136.961 80.9074 137.363C80.8012 137.76 80.7481 138.182 80.7481 138.629ZM90.4324 134.186H91.9835L91.8494 137.581C91.8159 138.442 91.718 139.186 91.5559 139.812C91.3938 140.438 91.187 140.972 90.9355 141.413C90.6839 141.849 90.4016 142.215 90.0886 142.512C89.7812 142.808 89.4626 143.057 89.1328 143.258H88.3614L88.4033 141.992L88.7219 141.983C88.9064 141.765 89.0852 141.542 89.2585 141.313C89.4318 141.078 89.5911 140.801 89.7365 140.482C89.8818 140.158 90.002 139.764 90.097 139.3C90.1976 138.831 90.2619 138.258 90.2898 137.581L90.4324 134.186ZM90.8181 134.186H96.2765V143.258H94.7253V135.619H90.8181V134.186ZM88.0092 141.983H97.442V145.933H95.8908V143.258H89.5604V145.933H88.0008L88.0092 141.983ZM100.838 140.801L105.022 134.186H106.581V143.258H105.022V136.642L100.838 143.258H99.295V134.186H100.838V140.801ZM114.287 141.195L117.372 134.186H118.865L114.823 143.258H113.75L109.726 134.186H111.218L114.287 141.195ZM110.765 134.186V143.258H109.214V134.186H110.765ZM117.758 143.258V134.186H119.318V143.258H117.758ZM121.405 138.822V138.629C121.405 137.975 121.5 137.369 121.69 136.81C121.88 136.245 122.154 135.756 122.512 135.343C122.87 134.923 123.303 134.599 123.812 134.37C124.32 134.135 124.891 134.018 125.522 134.018C126.159 134.018 126.732 134.135 127.241 134.37C127.755 134.599 128.191 134.923 128.549 135.343C128.912 135.756 129.189 136.245 129.379 136.81C129.569 137.369 129.664 137.975 129.664 138.629V138.822C129.664 139.476 129.569 140.083 129.379 140.642C129.189 141.201 128.912 141.69 128.549 142.109C128.191 142.523 127.758 142.847 127.249 143.082C126.746 143.311 126.176 143.426 125.539 143.426C124.902 143.426 124.329 143.311 123.82 143.082C123.311 142.847 122.875 142.523 122.512 142.109C122.154 141.69 121.88 141.201 121.69 140.642C121.5 140.083 121.405 139.476 121.405 138.822ZM122.957 138.629V138.822C122.957 139.275 123.01 139.703 123.116 140.105C123.222 140.502 123.381 140.854 123.594 141.162C123.812 141.469 124.083 141.712 124.407 141.891C124.731 142.064 125.109 142.151 125.539 142.151C125.964 142.151 126.336 142.064 126.654 141.891C126.978 141.712 127.247 141.469 127.459 141.162C127.671 140.854 127.831 140.502 127.937 140.105C128.049 139.703 128.105 139.275 128.105 138.822V138.629C128.105 138.182 128.049 137.76 127.937 137.363C127.831 136.961 127.669 136.606 127.451 136.299C127.238 135.986 126.97 135.74 126.646 135.561C126.327 135.382 125.953 135.292 125.522 135.292C125.097 135.292 124.723 135.382 124.399 135.561C124.08 135.74 123.812 135.986 123.594 136.299C123.381 136.606 123.222 136.961 123.116 137.363C123.01 137.76 122.957 138.182 122.957 138.629ZM141.914 134.186V135.468H137.328V134.186H141.914ZM137.554 134.186V143.258H136.003V134.186H137.554ZM143.289 134.186V143.258H141.73V134.186H143.289ZM145.369 138.822V138.629C145.369 137.975 145.464 137.369 145.654 136.81C145.844 136.245 146.118 135.756 146.476 135.343C146.833 134.923 147.266 134.599 147.775 134.37C148.284 134.135 148.854 134.018 149.486 134.018C150.123 134.018 150.696 134.135 151.204 134.37C151.719 134.599 152.155 134.923 152.512 135.343C152.876 135.756 153.153 136.245 153.343 136.81C153.533 137.369 153.628 137.975 153.628 138.629V138.822C153.628 139.476 153.533 140.083 153.343 140.642C153.153 141.201 152.876 141.69 152.512 142.109C152.155 142.523 151.722 142.847 151.213 143.082C150.71 143.311 150.14 143.426 149.502 143.426C148.865 143.426 148.292 143.311 147.784 143.082C147.275 142.847 146.839 142.523 146.476 142.109C146.118 141.69 145.844 141.201 145.654 140.642C145.464 140.083 145.369 139.476 145.369 138.822ZM146.92 138.629V138.822C146.92 139.275 146.973 139.703 147.079 140.105C147.185 140.502 147.345 140.854 147.557 141.162C147.775 141.469 148.046 141.712 148.37 141.891C148.695 142.064 149.072 142.151 149.502 142.151C149.927 142.151 150.299 142.064 150.618 141.891C150.942 141.712 151.21 141.469 151.422 141.162C151.635 140.854 151.794 140.502 151.9 140.105C152.012 139.703 152.068 139.275 152.068 138.822V138.629C152.068 138.182 152.012 137.76 151.9 137.363C151.794 136.961 151.632 136.606 151.414 136.299C151.202 135.986 150.933 135.74 150.609 135.561C150.291 135.382 149.916 135.292 149.486 135.292C149.061 135.292 148.686 135.382 148.362 135.561C148.043 135.74 147.775 135.986 147.557 136.299C147.345 136.606 147.185 136.961 147.079 137.363C146.973 137.76 146.92 138.182 146.92 138.629ZM156.604 134.186H158.155L158.021 137.581C157.988 138.442 157.89 139.186 157.728 139.812C157.566 140.438 157.359 140.972 157.107 141.413C156.856 141.849 156.573 142.215 156.26 142.512C155.953 142.808 155.634 143.057 155.305 143.258H154.533L154.575 141.992L154.894 141.983C155.078 141.765 155.257 141.542 155.43 141.313C155.604 141.078 155.763 140.801 155.908 140.482C156.054 140.158 156.174 139.764 156.269 139.3C156.369 138.831 156.434 138.258 156.462 137.581L156.604 134.186ZM156.99 134.186H162.448V143.258H160.897V135.619H156.99V134.186ZM154.181 141.983H163.614V145.933H162.063V143.258H155.732V145.933H154.173L154.181 141.983ZM167.018 134.186V143.258H165.467V134.186H167.018ZM172.971 134.186L168.67 139.384H166.498L166.263 138.026H168.041L171.085 134.186H172.971ZM171.303 143.258L167.965 139.149L168.963 138.026L173.273 143.258H171.303ZM180.685 134.186V135.468H176.3V134.186H180.685ZM182.052 134.186V143.258H180.501V134.186H182.052ZM175.922 134.186H177.482L177.247 138.562C177.208 139.239 177.144 139.837 177.054 140.357C176.971 140.871 176.853 141.313 176.702 141.681C176.557 142.05 176.372 142.352 176.149 142.587C175.931 142.816 175.668 142.987 175.361 143.099C175.053 143.205 174.698 143.258 174.296 143.258H173.81V141.891L174.145 141.866C174.385 141.849 174.589 141.793 174.757 141.698C174.93 141.603 175.076 141.463 175.193 141.279C175.31 141.089 175.405 140.846 175.478 140.55C175.556 140.253 175.615 139.901 175.654 139.493C175.699 139.085 175.732 138.61 175.755 138.068L175.922 134.186ZM189.715 138.034V139.3H184.894V138.034H189.715ZM186.244 134.186V143.258H184.693V134.186H186.244ZM188.39 138.822V138.629C188.39 137.975 188.486 137.369 188.676 136.81C188.866 136.245 189.14 135.756 189.497 135.343C189.861 134.923 190.294 134.599 190.797 134.37C191.306 134.135 191.876 134.018 192.507 134.018C193.15 134.018 193.726 134.135 194.235 134.37C194.743 134.599 195.176 134.923 195.534 135.343C195.898 135.756 196.174 136.245 196.364 136.81C196.554 137.369 196.649 137.975 196.649 138.629V138.822C196.649 139.476 196.554 140.083 196.364 140.642C196.174 141.201 195.9 141.69 195.543 142.109C195.185 142.523 194.752 142.847 194.243 143.082C193.734 143.311 193.161 143.426 192.524 143.426C191.887 143.426 191.314 143.311 190.805 143.082C190.297 142.847 189.861 142.523 189.497 142.109C189.14 141.69 188.866 141.201 188.676 140.642C188.486 140.083 188.39 139.476 188.39 138.822ZM189.95 138.629V138.822C189.95 139.275 190.003 139.703 190.109 140.105C190.216 140.502 190.375 140.854 190.587 141.162C190.805 141.469 191.074 141.712 191.392 141.891C191.716 142.064 192.094 142.151 192.524 142.151C192.955 142.151 193.329 142.064 193.648 141.891C193.972 141.712 194.24 141.469 194.453 141.162C194.665 140.854 194.824 140.502 194.931 140.105C195.042 139.703 195.098 139.275 195.098 138.822V138.629C195.098 138.182 195.042 137.76 194.931 137.363C194.824 136.961 194.662 136.606 194.444 136.299C194.232 135.986 193.963 135.74 193.639 135.561C193.315 135.382 192.938 135.292 192.507 135.292C192.083 135.292 191.711 135.382 191.392 135.561C191.074 135.74 190.805 135.986 190.587 136.299C190.375 136.606 190.216 136.961 190.109 137.363C190.003 137.76 189.95 138.182 189.95 138.629ZM205.411 134.186V143.258H203.86V134.186H205.411ZM204.883 138.353V139.627C204.57 139.745 204.251 139.851 203.927 139.946C203.609 140.035 203.27 140.108 202.913 140.164C202.561 140.214 202.178 140.239 201.764 140.239C201.049 140.239 200.428 140.116 199.903 139.87C199.377 139.619 198.972 139.242 198.687 138.738C198.402 138.23 198.259 137.59 198.259 136.818V134.169H199.81V136.818C199.81 137.321 199.886 137.73 200.037 138.043C200.188 138.356 200.408 138.588 200.699 138.738C200.99 138.884 201.345 138.956 201.764 138.956C202.166 138.956 202.544 138.931 202.896 138.881C203.254 138.825 203.595 138.752 203.919 138.663C204.249 138.574 204.57 138.47 204.883 138.353ZM209.587 140.801L213.771 134.186H215.33V143.258H213.771V136.642L209.587 143.258H208.044V134.186H209.587V140.801ZM221.518 134.186V143.258H219.959V134.186H221.518ZM224.562 134.186V135.443H216.974V134.186H224.562ZM227.362 137.305H230.087C230.82 137.305 231.437 137.433 231.94 137.69C232.444 137.942 232.824 138.291 233.081 138.738C233.343 139.18 233.475 139.683 233.475 140.248C233.475 140.667 233.402 141.061 233.257 141.43C233.112 141.793 232.894 142.112 232.603 142.386C232.318 142.66 231.963 142.875 231.538 143.031C231.119 143.182 230.635 143.258 230.087 143.258H226.23V134.186H227.782V141.983H230.087C230.535 141.983 230.892 141.902 231.161 141.74C231.429 141.578 231.622 141.368 231.739 141.111C231.857 140.854 231.915 140.586 231.915 140.306C231.915 140.033 231.857 139.764 231.739 139.501C231.622 139.239 231.429 139.021 231.161 138.847C230.892 138.669 230.535 138.579 230.087 138.579H227.362V137.305ZM243.302 142.151C243.671 142.151 244.012 142.076 244.325 141.925C244.638 141.774 244.895 141.567 245.096 141.304C245.297 141.036 245.412 140.731 245.44 140.39H246.915C246.888 140.927 246.706 141.427 246.37 141.891C246.041 142.349 245.607 142.721 245.071 143.006C244.534 143.286 243.945 143.426 243.302 143.426C242.62 143.426 242.024 143.305 241.516 143.065C241.013 142.825 240.593 142.495 240.258 142.076C239.928 141.656 239.679 141.176 239.512 140.633C239.35 140.086 239.269 139.507 239.269 138.898V138.546C239.269 137.936 239.35 137.361 239.512 136.818C239.679 136.271 239.928 135.787 240.258 135.368C240.593 134.949 241.013 134.619 241.516 134.378C242.024 134.138 242.62 134.018 243.302 134.018C244.012 134.018 244.632 134.163 245.163 134.454C245.694 134.739 246.111 135.13 246.412 135.628C246.72 136.12 246.888 136.679 246.915 137.305H245.44C245.412 136.93 245.306 136.592 245.121 136.29C244.942 135.988 244.696 135.748 244.383 135.569C244.076 135.385 243.715 135.292 243.302 135.292C242.827 135.292 242.427 135.387 242.103 135.577C241.784 135.762 241.53 136.013 241.34 136.332C241.155 136.645 241.021 136.994 240.937 137.38C240.859 137.76 240.82 138.149 240.82 138.546V138.898C240.82 139.295 240.859 139.686 240.937 140.072C241.015 140.457 241.147 140.807 241.331 141.12C241.521 141.433 241.776 141.684 242.094 141.874C242.418 142.059 242.821 142.151 243.302 142.151ZM252.424 143.426C251.793 143.426 251.22 143.319 250.705 143.107C250.197 142.889 249.758 142.584 249.389 142.193C249.026 141.802 248.746 141.338 248.55 140.801C248.355 140.264 248.257 139.678 248.257 139.04V138.688C248.257 137.95 248.366 137.294 248.584 136.718C248.802 136.136 249.098 135.645 249.473 135.242C249.847 134.84 250.272 134.535 250.747 134.328C251.222 134.121 251.714 134.018 252.223 134.018C252.871 134.018 253.43 134.13 253.9 134.353C254.375 134.577 254.764 134.89 255.065 135.292C255.367 135.689 255.591 136.159 255.736 136.701C255.881 137.238 255.954 137.825 255.954 138.462V139.158H249.179V137.892H254.403V137.774C254.381 137.372 254.297 136.98 254.151 136.6C254.012 136.22 253.788 135.907 253.481 135.661C253.173 135.415 252.754 135.292 252.223 135.292C251.871 135.292 251.547 135.368 251.25 135.519C250.954 135.664 250.7 135.882 250.487 136.173C250.275 136.463 250.11 136.818 249.993 137.238C249.875 137.657 249.817 138.14 249.817 138.688V139.04C249.817 139.471 249.875 139.876 249.993 140.256C250.116 140.631 250.292 140.96 250.521 141.245C250.756 141.531 251.038 141.754 251.368 141.916C251.703 142.078 252.083 142.159 252.508 142.159C253.056 142.159 253.52 142.048 253.9 141.824C254.28 141.6 254.613 141.301 254.898 140.927L255.837 141.673C255.641 141.969 255.392 142.252 255.091 142.52C254.789 142.788 254.417 143.006 253.975 143.174C253.539 143.342 253.022 143.426 252.424 143.426ZM259.316 135.93V146.746H257.757V134.186H259.182L259.316 135.93ZM265.429 138.646V138.822C265.429 139.482 265.351 140.094 265.194 140.659C265.038 141.218 264.808 141.704 264.507 142.117C264.21 142.531 263.844 142.853 263.408 143.082C262.972 143.311 262.472 143.426 261.907 143.426C261.332 143.426 260.823 143.33 260.381 143.14C259.94 142.95 259.565 142.674 259.258 142.31C258.95 141.947 258.704 141.511 258.52 141.002C258.341 140.494 258.218 139.921 258.151 139.283V138.344C258.218 137.674 258.344 137.073 258.528 136.542C258.713 136.011 258.956 135.558 259.258 135.183C259.565 134.803 259.937 134.515 260.373 134.32C260.809 134.119 261.312 134.018 261.882 134.018C262.452 134.018 262.958 134.13 263.4 134.353C263.841 134.571 264.213 134.884 264.515 135.292C264.817 135.7 265.043 136.19 265.194 136.76C265.351 137.324 265.429 137.953 265.429 138.646ZM263.869 138.822V138.646C263.869 138.193 263.822 137.769 263.727 137.372C263.632 136.969 263.484 136.617 263.282 136.315C263.087 136.008 262.835 135.768 262.528 135.594C262.22 135.415 261.854 135.326 261.429 135.326C261.038 135.326 260.697 135.393 260.406 135.527C260.121 135.661 259.878 135.843 259.677 136.072C259.476 136.296 259.311 136.553 259.182 136.844C259.059 137.129 258.967 137.425 258.906 137.732V139.904C259.017 140.295 259.174 140.664 259.375 141.011C259.576 141.352 259.845 141.628 260.18 141.841C260.515 142.048 260.937 142.151 261.446 142.151C261.865 142.151 262.226 142.064 262.528 141.891C262.835 141.712 263.087 141.469 263.282 141.162C263.484 140.854 263.632 140.502 263.727 140.105C263.822 139.703 263.869 139.275 263.869 138.822ZM271.667 139.267H268.69L268.674 138.026H271.105C271.586 138.026 271.986 137.978 272.304 137.883C272.628 137.788 272.872 137.646 273.034 137.456C273.196 137.266 273.277 137.031 273.277 136.751C273.277 136.533 273.229 136.343 273.134 136.181C273.045 136.013 272.908 135.877 272.723 135.77C272.539 135.659 272.31 135.577 272.036 135.527C271.768 135.471 271.452 135.443 271.088 135.443H269.101V143.258H267.55V134.186H271.088C271.664 134.186 272.181 134.236 272.64 134.337C273.104 134.437 273.498 134.591 273.822 134.798C274.152 134.999 274.403 135.256 274.576 135.569C274.75 135.882 274.836 136.251 274.836 136.676C274.836 136.95 274.781 137.21 274.669 137.456C274.557 137.702 274.392 137.92 274.174 138.11C273.956 138.3 273.688 138.456 273.369 138.579C273.05 138.697 272.684 138.772 272.271 138.806L271.667 139.267ZM271.667 143.258H268.129L268.9 142H271.667C272.097 142 272.455 141.947 272.74 141.841C273.025 141.729 273.238 141.572 273.377 141.371C273.523 141.164 273.595 140.918 273.595 140.633C273.595 140.348 273.523 140.105 273.377 139.904C273.238 139.697 273.025 139.541 272.74 139.434C272.455 139.323 272.097 139.267 271.667 139.267H269.311L269.328 138.026H272.271L272.832 138.495C273.33 138.534 273.752 138.657 274.099 138.864C274.445 139.071 274.708 139.334 274.887 139.652C275.066 139.965 275.155 140.306 275.155 140.675C275.155 141.1 275.074 141.475 274.912 141.799C274.755 142.123 274.526 142.394 274.224 142.612C273.922 142.825 273.556 142.987 273.126 143.099C272.696 143.205 272.209 143.258 271.667 143.258ZM278.911 140.801L283.095 134.186H284.655V143.258H283.095V136.642L278.911 143.258H277.369V134.186H278.911V140.801ZM290.776 142.151C291.145 142.151 291.486 142.076 291.799 141.925C292.112 141.774 292.369 141.567 292.57 141.304C292.771 141.036 292.886 140.731 292.914 140.39H294.389C294.362 140.927 294.18 141.427 293.844 141.891C293.515 142.349 293.081 142.721 292.545 143.006C292.008 143.286 291.419 143.426 290.776 143.426C290.094 143.426 289.498 143.305 288.99 143.065C288.487 142.825 288.067 142.495 287.732 142.076C287.402 141.656 287.153 141.176 286.986 140.633C286.824 140.086 286.743 139.507 286.743 138.898V138.546C286.743 137.936 286.824 137.361 286.986 136.818C287.153 136.271 287.402 135.787 287.732 135.368C288.067 134.949 288.487 134.619 288.99 134.378C289.498 134.138 290.094 134.018 290.776 134.018C291.486 134.018 292.106 134.163 292.637 134.454C293.168 134.739 293.585 135.13 293.886 135.628C294.194 136.12 294.362 136.679 294.389 137.305H292.914C292.886 136.93 292.78 136.592 292.595 136.29C292.416 135.988 292.17 135.748 291.857 135.569C291.55 135.385 291.189 135.292 290.776 135.292C290.301 135.292 289.901 135.387 289.577 135.577C289.258 135.762 289.004 136.013 288.814 136.332C288.629 136.645 288.495 136.994 288.411 137.38C288.333 137.76 288.294 138.149 288.294 138.546V138.898C288.294 139.295 288.333 139.686 288.411 140.072C288.489 140.457 288.621 140.807 288.805 141.12C288.995 141.433 289.25 141.684 289.568 141.874C289.892 142.059 290.295 142.151 290.776 142.151ZM300.091 134.261V133.247C300.091 132.906 300.147 132.551 300.259 132.182C300.376 131.807 300.544 131.449 300.762 131.108C300.98 130.762 301.243 130.463 301.55 130.211L302.43 130.823C302.173 131.192 301.975 131.572 301.835 131.964C301.695 132.349 301.625 132.769 301.625 133.221V134.261H300.091ZM302.732 134.261V133.247C302.732 132.906 302.788 132.551 302.9 132.182C303.017 131.807 303.185 131.449 303.403 131.108C303.621 130.762 303.884 130.463 304.191 130.211L305.072 130.823C304.814 131.192 304.616 131.572 304.476 131.964C304.336 132.349 304.267 132.769 304.267 133.221V134.261H302.732ZM310.211 132.131L306.17 143.258H304.518L309.172 131.05H310.236L310.211 132.131ZM313.599 143.258L309.549 132.131L309.524 131.05H310.589L315.259 143.258H313.599ZM313.389 138.738V140.063H306.53V138.738H313.389ZM322.813 138.118V139.376H318.017V138.118H322.813ZM318.344 134.186V143.258H316.793V134.186H318.344ZM324.071 134.186V143.258H322.512V134.186H324.071ZM330.267 134.186V143.258H328.708V134.186H330.267ZM333.311 134.186V135.443H325.723V134.186H333.311ZM336.514 140.801L340.698 134.186H342.258V143.258H340.698V136.642L336.514 143.258H334.971V134.186H336.514V140.801ZM350.567 130.236H351.841C351.841 130.784 351.757 131.22 351.59 131.544C351.422 131.863 351.193 132.109 350.902 132.282C350.617 132.456 350.293 132.587 349.93 132.676C349.572 132.766 349.2 132.852 348.814 132.936C348.334 133.037 347.886 133.196 347.473 133.414C347.065 133.627 346.713 133.928 346.416 134.32C346.126 134.711 345.91 135.22 345.771 135.846C345.637 136.472 345.6 137.246 345.662 138.168V138.94H344.387V138.168C344.387 137.134 344.485 136.231 344.681 135.46C344.882 134.689 345.164 134.037 345.528 133.506C345.891 132.975 346.321 132.553 346.819 132.24C347.322 131.927 347.875 131.712 348.479 131.595C348.915 131.511 349.289 131.421 349.603 131.326C349.916 131.226 350.153 131.092 350.315 130.924C350.483 130.756 350.567 130.527 350.567 130.236ZM348.731 134.705C349.323 134.705 349.851 134.809 350.315 135.016C350.779 135.223 351.173 135.51 351.497 135.879C351.822 136.248 352.068 136.684 352.235 137.187C352.409 137.685 352.495 138.227 352.495 138.814V138.998C352.495 139.63 352.403 140.217 352.219 140.759C352.04 141.296 351.774 141.765 351.422 142.168C351.075 142.565 350.651 142.875 350.148 143.099C349.65 143.322 349.083 143.434 348.445 143.434C347.808 143.434 347.238 143.322 346.735 143.099C346.237 142.875 345.813 142.565 345.46 142.168C345.108 141.765 344.84 141.296 344.656 140.759C344.477 140.217 344.387 139.63 344.387 138.998V138.814C344.387 138.674 344.412 138.537 344.463 138.403C344.513 138.269 344.575 138.132 344.647 137.992C344.725 137.852 344.795 137.704 344.857 137.548C345.064 137.045 345.346 136.578 345.704 136.148C346.067 135.717 346.5 135.371 347.003 135.108C347.512 134.84 348.088 134.705 348.731 134.705ZM348.429 135.972C347.859 135.972 347.389 136.103 347.02 136.366C346.657 136.628 346.386 136.978 346.207 137.414C346.028 137.844 345.938 138.311 345.938 138.814V138.998C345.938 139.423 345.989 139.826 346.089 140.206C346.19 140.586 346.341 140.924 346.542 141.22C346.749 141.511 347.009 141.74 347.322 141.908C347.641 142.076 348.015 142.159 348.445 142.159C348.876 142.159 349.248 142.076 349.561 141.908C349.874 141.74 350.131 141.511 350.332 141.22C350.533 140.924 350.684 140.586 350.785 140.206C350.885 139.826 350.936 139.423 350.936 138.998V138.814C350.936 138.434 350.885 138.073 350.785 137.732C350.684 137.391 350.53 137.089 350.324 136.827C350.122 136.564 349.862 136.357 349.544 136.206C349.231 136.05 348.859 135.972 348.429 135.972ZM353.845 138.822V138.629C353.845 137.975 353.94 137.369 354.13 136.81C354.32 136.245 354.594 135.756 354.952 135.343C355.31 134.923 355.743 134.599 356.252 134.37C356.76 134.135 357.33 134.018 357.962 134.018C358.599 134.018 359.172 134.135 359.681 134.37C360.195 134.599 360.631 134.923 360.989 135.343C361.352 135.756 361.629 136.245 361.819 136.81C362.009 137.369 362.104 137.975 362.104 138.629V138.822C362.104 139.476 362.009 140.083 361.819 140.642C361.629 141.201 361.352 141.69 360.989 142.109C360.631 142.523 360.198 142.847 359.689 143.082C359.186 143.311 358.616 143.426 357.979 143.426C357.342 143.426 356.769 143.311 356.26 143.082C355.751 142.847 355.315 142.523 354.952 142.109C354.594 141.69 354.32 141.201 354.13 140.642C353.94 140.083 353.845 139.476 353.845 138.822ZM355.396 138.629V138.822C355.396 139.275 355.449 139.703 355.556 140.105C355.662 140.502 355.821 140.854 356.034 141.162C356.252 141.469 356.523 141.712 356.847 141.891C357.171 142.064 357.548 142.151 357.979 142.151C358.404 142.151 358.775 142.064 359.094 141.891C359.418 141.712 359.686 141.469 359.899 141.162C360.111 140.854 360.271 140.502 360.377 140.105C360.489 139.703 360.545 139.275 360.545 138.822V138.629C360.545 138.182 360.489 137.76 360.377 137.363C360.271 136.961 360.108 136.606 359.89 136.299C359.678 135.986 359.41 135.74 359.086 135.561C358.767 135.382 358.392 135.292 357.962 135.292C357.537 135.292 357.163 135.382 356.838 135.561C356.52 135.74 356.252 135.986 356.034 136.299C355.821 136.606 355.662 136.961 355.556 137.363C355.449 137.76 355.396 138.182 355.396 138.629ZM367.562 134.186V143.258H366.003V134.186H367.562ZM370.606 134.186V135.443H363.018V134.186H370.606ZM373.918 130.379V131.452C373.918 131.788 373.859 132.143 373.742 132.517C373.63 132.886 373.465 133.244 373.247 133.59C373.029 133.931 372.767 134.23 372.459 134.487L371.57 133.875C371.833 133.506 372.031 133.129 372.166 132.743C372.305 132.352 372.375 131.93 372.375 131.477V130.379H373.918ZM376.492 130.379V131.452C376.492 131.788 376.433 132.143 376.316 132.517C376.204 132.886 376.039 133.244 375.821 133.59C375.603 133.931 375.341 134.23 375.033 134.487L374.144 133.875C374.407 133.506 374.606 133.129 374.74 132.743C374.879 132.352 374.949 131.93 374.949 131.477V130.379H376.492ZM378.412 142.436C378.412 142.173 378.493 141.953 378.655 141.774C378.823 141.589 379.063 141.497 379.376 141.497C379.689 141.497 379.927 141.589 380.089 141.774C380.257 141.953 380.341 142.173 380.341 142.436C380.341 142.693 380.257 142.911 380.089 143.09C379.927 143.269 379.689 143.358 379.376 143.358C379.063 143.358 378.823 143.269 378.655 143.09C378.493 142.911 378.412 142.693 378.412 142.436Z" fill="#333333"/>
<g filter="url(#filter0_d_54_5259)">
<rect x="31.8906" y="175.016" width="591.68" height="49.3046" rx="6.13279" fill="#29B74D"/>
<path d="M306.978 197.944V199.613H300.496V197.944H306.978ZM301.016 192.847V205.055H298.912V192.847H301.016ZM308.596 192.847V205.055H306.5V192.847H308.596ZM316.016 203.235V198.909C316.016 198.585 315.958 198.305 315.84 198.07C315.723 197.835 315.544 197.654 315.304 197.525C315.069 197.397 314.773 197.332 314.415 197.332C314.085 197.332 313.8 197.388 313.56 197.5C313.319 197.612 313.132 197.763 312.998 197.953C312.864 198.143 312.797 198.358 312.797 198.598H310.784C310.784 198.241 310.871 197.894 311.044 197.559C311.218 197.223 311.469 196.924 311.799 196.662C312.129 196.399 312.523 196.192 312.981 196.041C313.439 195.89 313.954 195.815 314.524 195.815C315.206 195.815 315.81 195.929 316.335 196.159C316.866 196.388 317.282 196.734 317.584 197.198C317.892 197.657 318.045 198.232 318.045 198.925V202.959C318.045 203.372 318.073 203.744 318.129 204.074C318.191 204.398 318.277 204.68 318.389 204.921V205.055H316.318C316.223 204.837 316.148 204.56 316.092 204.225C316.041 203.884 316.016 203.554 316.016 203.235ZM316.31 199.538L316.327 200.787H314.876C314.502 200.787 314.172 200.823 313.887 200.896C313.602 200.963 313.364 201.064 313.174 201.198C312.984 201.332 312.841 201.494 312.746 201.684C312.651 201.874 312.604 202.089 312.604 202.33C312.604 202.57 312.66 202.791 312.771 202.992C312.883 203.188 313.045 203.341 313.258 203.453C313.476 203.565 313.739 203.621 314.046 203.621C314.46 203.621 314.82 203.537 315.128 203.369C315.441 203.196 315.687 202.986 315.865 202.741C316.044 202.489 316.139 202.251 316.15 202.028L316.804 202.925C316.737 203.154 316.623 203.4 316.461 203.663C316.299 203.926 316.086 204.177 315.823 204.417C315.566 204.652 315.256 204.845 314.893 204.996C314.535 205.147 314.121 205.222 313.652 205.222C313.059 205.222 312.531 205.105 312.067 204.87C311.603 204.63 311.24 204.308 310.977 203.906C310.714 203.498 310.583 203.037 310.583 202.523C310.583 202.042 310.673 201.617 310.851 201.248C311.036 200.874 311.304 200.561 311.656 200.309C312.014 200.057 312.45 199.867 312.964 199.739C313.479 199.605 314.066 199.538 314.725 199.538H316.31ZM327.445 195.982V205.055H325.424V195.982H327.445ZM326.589 199.999V201.6C326.343 201.706 326.067 201.804 325.759 201.894C325.457 201.978 325.139 202.047 324.803 202.103C324.468 202.154 324.13 202.179 323.789 202.179C322.99 202.179 322.299 202.056 321.718 201.81C321.142 201.564 320.698 201.187 320.385 200.678C320.077 200.164 319.924 199.512 319.924 198.724V195.974H321.936V198.724C321.936 199.177 322.003 199.538 322.137 199.806C322.277 200.074 322.484 200.267 322.758 200.384C323.032 200.502 323.375 200.561 323.789 200.561C324.135 200.561 324.462 200.538 324.77 200.493C325.077 200.443 325.382 200.376 325.684 200.292C325.986 200.208 326.288 200.111 326.589 199.999ZM334.714 203.235V198.909C334.714 198.585 334.655 198.305 334.538 198.07C334.421 197.835 334.242 197.654 334.001 197.525C333.767 197.397 333.47 197.332 333.113 197.332C332.783 197.332 332.498 197.388 332.257 197.5C332.017 197.612 331.83 197.763 331.696 197.953C331.562 198.143 331.494 198.358 331.494 198.598H329.482C329.482 198.241 329.569 197.894 329.742 197.559C329.915 197.223 330.167 196.924 330.497 196.662C330.826 196.399 331.221 196.192 331.679 196.041C332.137 195.89 332.652 195.815 333.222 195.815C333.904 195.815 334.507 195.929 335.033 196.159C335.564 196.388 335.98 196.734 336.282 197.198C336.59 197.657 336.743 198.232 336.743 198.925V202.959C336.743 203.372 336.771 203.744 336.827 204.074C336.889 204.398 336.975 204.68 337.087 204.921V205.055H335.016C334.921 204.837 334.846 204.56 334.79 204.225C334.739 203.884 334.714 203.554 334.714 203.235ZM335.008 199.538L335.024 200.787H333.574C333.199 200.787 332.87 200.823 332.584 200.896C332.299 200.963 332.062 201.064 331.872 201.198C331.682 201.332 331.539 201.494 331.444 201.684C331.349 201.874 331.302 202.089 331.302 202.33C331.302 202.57 331.357 202.791 331.469 202.992C331.581 203.188 331.743 203.341 331.956 203.453C332.174 203.565 332.436 203.621 332.744 203.621C333.157 203.621 333.518 203.537 333.825 203.369C334.138 203.196 334.384 202.986 334.563 202.741C334.742 202.489 334.837 202.251 334.848 202.028L335.502 202.925C335.435 203.154 335.321 203.4 335.159 203.663C334.996 203.926 334.784 204.177 334.521 204.417C334.264 204.652 333.954 204.845 333.591 204.996C333.233 205.147 332.819 205.222 332.35 205.222C331.757 205.222 331.229 205.105 330.765 204.87C330.301 204.63 329.938 204.308 329.675 203.906C329.412 203.498 329.281 203.037 329.281 202.523C329.281 202.042 329.37 201.617 329.549 201.248C329.734 200.874 330.002 200.561 330.354 200.309C330.712 200.057 331.148 199.867 331.662 199.739C332.176 199.605 332.763 199.538 333.423 199.538H335.008ZM342.931 195.982V205.055H340.902V195.982H342.931ZM345.908 195.982V197.576H337.976V195.982H345.908ZM348.758 198.867H351.433C352.216 198.867 352.881 198.998 353.429 199.261C353.977 199.524 354.393 199.89 354.678 200.359C354.969 200.823 355.114 201.354 355.114 201.952C355.114 202.394 355.033 202.805 354.871 203.185C354.709 203.559 354.468 203.886 354.15 204.166C353.837 204.445 353.451 204.663 352.993 204.82C352.54 204.976 352.02 205.055 351.433 205.055H347.417V195.982H349.446V203.453H351.433C351.836 203.453 352.157 203.383 352.397 203.244C352.638 203.104 352.811 202.922 352.917 202.699C353.029 202.475 353.085 202.237 353.085 201.986C353.085 201.729 353.029 201.486 352.917 201.256C352.811 201.027 352.638 200.84 352.397 200.695C352.157 200.549 351.836 200.477 351.433 200.477H348.758V198.867Z" fill="white"/>
</g>
<defs>
<filter id="filter0_d_54_5259" x="13.4923" y="161.523" width="628.476" height="86.1014" filterUnits="userSpaceOnUse" color-interpolation-filters="sRGB">
<feFlood flood-opacity="0" result="BackgroundImageFix"/>
<feColorMatrix in="SourceAlpha" type="matrix" values="0 0 0 0 0 0 0 0 0 0 0 0 0 0 0 0 0 0 127 0" result="hardAlpha"/>
<feOffset dy="4.90623"/>
<feGaussianBlur stdDeviation="9.19918"/>
<feComposite in2="hardAlpha" operator="out"/>
<feColorMatrix type="matrix" values="0 0 0 0 0.160784 0 0 0 0 0.717647 0 0 0 0 0.301961 0 0 0 0.3 0"/>
<feBlend mode="normal" in2="BackgroundImageFix" result="effect1_dropShadow_54_5259"/>
<feBlend mode="normal" in="SourceGraphic" in2="effect1_dropShadow_54_5259" result="shape"/>
</filter>
</defs>
</svg>
