<svg width="34" height="36" fill="none" xmlns="http://www.w3.org/2000/svg"><path d="m28.434 11.406 1.316-2.917 2.917-1.317a.834.834 0 0 0 0-1.516L29.75 4.339l-1.316-2.933a.833.833 0 0 0-1.517 0L25.6 4.322 22.667 5.64a.833.833 0 0 0 0 1.517l2.917 1.316 1.316 2.934c.3.65 1.234.65 1.534 0Zm-13.267 2.5-2.65-5.834c-.583-1.3-2.45-1.3-3.033 0l-2.65 5.834L1 16.556c-1.3.6-1.3 2.45 0 3.033l5.834 2.65 2.65 5.834c.6 1.3 2.45 1.3 3.033 0l2.65-5.834L21 19.59c1.3-.6 1.3-2.45 0-3.033l-5.833-2.65ZM26.9 24.739l-1.316 2.917-2.917 1.317a.834.834 0 0 0 0 1.516l2.917 1.317 1.316 2.933a.833.833 0 0 0 1.517 0l1.317-2.916 2.933-1.317a.834.834 0 0 0 0-1.517l-2.917-1.317-1.316-2.933a.846.846 0 0 0-1.534 0Z" fill="#29B74D"/></svg>