<svg width="663" height="258" fill="none" xmlns="http://www.w3.org/2000/svg"><rect x=".002" width="662.432" height="258" rx="21.631" fill="#fff"/><rect x=".002" width="662.432" height="258" rx="21.631" fill="#fff"/><circle cx="44.816" cy="93.183" r="8.907" fill="#E57575" stroke="#E57575" stroke-width="3.817"/><path d="M71.019 100V86.516h8.407v1.751h-6.373v3.687h3.016c1 0 1.85.163 2.547.488.703.324 1.238.783 1.607 1.376.373.592.56 1.29.56 2.093 0 .804-.187 1.512-.56 2.127-.369.615-.904 1.095-1.606 1.442-.698.347-1.548.52-2.549.52h-5.05Zm2.034-1.712h3.016c.579 0 1.068-.114 1.468-.342a2.35 2.35 0 0 0 1.23-2.061c0-.606-.232-1.126-.697-1.56-.465-.44-1.132-.659-2.001-.659h-3.016v4.622Zm14.235 1.916c-.948 0-1.776-.217-2.483-.652a4.395 4.395 0 0 1-1.646-1.824c-.39-.78-.586-1.694-.586-2.738 0-1.05.196-1.967.587-2.753.39-.785.939-1.395 1.645-1.83.707-.434 1.535-.652 2.483-.652.948 0 1.775.218 2.482.652.707.435 1.255 1.045 1.646 1.83.39.786.586 1.704.586 2.753 0 1.044-.195 1.957-.586 2.739-.39.78-.94 1.389-1.646 1.823-.707.435-1.534.652-2.482.652Zm.006-1.652c.615 0 1.124-.163 1.528-.488.404-.324.702-.757.895-1.297.198-.54.296-1.134.296-1.784a5.13 5.13 0 0 0-.296-1.778c-.193-.544-.491-.98-.895-1.31-.404-.33-.913-.494-1.528-.494-.619 0-1.132.165-1.54.494-.404.33-.705.766-.902 1.31a5.245 5.245 0 0 0-.29 1.778c0 .65.097 1.244.29 1.784.197.54.498.973.902 1.297.408.325.921.488 1.54.488Zm5.687-6.966v-1.7h8.533v1.7h-3.298V100h-1.923v-8.414h-3.312Zm12.097 1.777h2.936c1.238 0 2.191.308 2.858.922.667.615 1.001 1.407 1.001 2.377 0 .632-.15 1.2-.448 1.705-.299.505-.735.904-1.31 1.198-.575.29-1.276.435-2.101.435h-4.418V89.887h1.929V98.3h2.489c.566 0 1.032-.147 1.396-.44a1.41 1.41 0 0 0 .547-1.14 1.49 1.49 0 0 0-.547-1.192c-.364-.311-.83-.467-1.396-.467h-2.936v-1.699Zm8.23 6.637V89.887h1.968V100h-1.968Z" fill="#000"/><rect x="132.537" y="88" width="42" height="10" rx="5" fill="#D9D9D9"/><path d="M188.529 100.184c-.905 0-1.712-.155-2.423-.467-.707-.312-1.267-.744-1.679-1.297a3.447 3.447 0 0 1-.659-1.936h2.068c.026.4.16.746.401 1.04.246.29.567.514.962.672.395.158.834.237 1.316.237.532 0 1.001-.092 1.409-.277.413-.184.736-.44.968-.77.233-.334.349-.718.349-1.152 0-.452-.116-.85-.349-1.192-.228-.347-.564-.619-1.007-.816-.439-.198-.97-.296-1.593-.296h-1.139v-1.66h1.139c.5 0 .939-.09 1.316-.27.382-.18.681-.43.896-.75.215-.325.322-.705.322-1.14 0-.416-.094-.778-.283-1.086a1.896 1.896 0 0 0-.79-.73c-.338-.176-.737-.264-1.198-.264-.439 0-.849.081-1.231.244a2.27 2.27 0 0 0-.922.685 1.764 1.764 0 0 0-.382 1.06h-1.969c.022-.729.237-1.37.646-1.923a4.169 4.169 0 0 1 1.633-1.297c.675-.312 1.426-.468 2.251-.468.865 0 1.611.17 2.239.507.632.334 1.119.78 1.461 1.337.347.558.518 1.168.514 1.83.004.755-.206 1.396-.632 1.923-.421.527-.983.88-1.686 1.06v.105c.896.136 1.589.492 2.081 1.067.496.575.742 1.288.737 2.14a3.325 3.325 0 0 1-.618 1.995c-.413.588-.977 1.051-1.693 1.389-.715.334-1.534.5-2.455.5Zm10.225.04a4.138 4.138 0 0 1-1.739-.356 2.928 2.928 0 0 1-1.231-1.046c-.298-.457-.448-1.017-.448-1.68 0-.57.11-1.04.33-1.408a2.41 2.41 0 0 1 .889-.876c.373-.215.79-.378 1.251-.487.46-.11.93-.194 1.408-.25l1.475-.172c.378-.048.652-.125.823-.23.172-.105.257-.277.257-.514v-.046c0-.575-.162-1.02-.487-1.336-.321-.316-.799-.474-1.435-.474-.663 0-1.186.147-1.567.44-.378.29-.639.613-.784.969l-1.85-.422c.219-.614.54-1.11.961-1.488a3.9 3.9 0 0 1 1.468-.83 5.738 5.738 0 0 1 1.745-.263c.404 0 .832.049 1.284.145.457.092.882.263 1.277.514.4.25.727.608.981 1.073.255.46.382 1.06.382 1.797V100h-1.922v-1.383h-.079a2.81 2.81 0 0 1-.573.75c-.255.247-.582.45-.981.613-.4.163-.878.244-1.435.244Zm.428-1.58c.544 0 1.009-.108 1.395-.323.391-.215.687-.496.889-.843a2.18 2.18 0 0 0 .31-1.126V95.05c-.071.07-.207.136-.409.197a6.285 6.285 0 0 1-.678.152c-.254.04-.502.077-.744.112-.241.03-.443.057-.605.079a4.93 4.93 0 0 0-1.047.243 1.798 1.798 0 0 0-.751.494c-.184.21-.276.492-.276.843 0 .487.18.856.54 1.106.359.246.818.369 1.376.369Zm14.986-12.523.817 1.244a2.687 2.687 0 0 1-1.034.593 5.913 5.913 0 0 1-1.323.217c-.501.026-1.073.05-1.719.073-.728.021-1.327.18-1.797.474-.47.29-.832.72-1.086 1.29-.251.566-.413 1.277-.488 2.133h.125c.33-.627.786-1.097 1.37-1.409.588-.311 1.249-.467 1.982-.467.816 0 1.543.186 2.179.56.637.373 1.137.919 1.501 1.639.369.715.553 1.591.553 2.627 0 1.049-.193 1.955-.579 2.72a4.198 4.198 0 0 1-1.62 1.77c-.693.413-1.512.619-2.456.619-.943 0-1.766-.213-2.469-.638-.698-.43-1.24-1.067-1.626-1.91-.382-.843-.573-1.883-.573-3.12v-1.002c0-2.313.413-4.053 1.238-5.22.825-1.168 2.059-1.767 3.7-1.798a31.284 31.284 0 0 1 1.422-.007c.417.005.782-.015 1.093-.059a1.6 1.6 0 0 0 .79-.33ZM210.6 98.55c.549 0 1.02-.138 1.416-.414.399-.281.706-.678.921-1.192.215-.514.323-1.12.323-1.817 0-.685-.108-1.266-.323-1.745-.215-.478-.522-.843-.921-1.093-.4-.255-.878-.382-1.436-.382a2.69 2.69 0 0 0-1.106.218c-.325.14-.603.348-.836.625a3.006 3.006 0 0 0-.533 1.014 4.88 4.88 0 0 0-.198 1.363c0 1.044.239 1.876.718 2.495.483.62 1.141.928 1.975.928Zm6.051 1.449-.007-1.705h.362c.281 0 .516-.06.705-.178.193-.123.351-.33.474-.619.123-.29.217-.69.283-1.198.066-.514.114-1.159.145-1.936l.177-4.477h7.059V100h-1.93v-8.414h-3.305l-.158 3.436a13.766 13.766 0 0 1-.257 2.186c-.127.624-.313 1.144-.559 1.56a2.436 2.436 0 0 1-.948.93c-.387.201-.856.302-1.409.302h-.632Zm16.083.204c-.948 0-1.776-.217-2.482-.652a4.39 4.39 0 0 1-1.646-1.824c-.391-.78-.586-1.694-.586-2.738 0-1.05.195-1.967.586-2.753.39-.785.939-1.395 1.646-1.83.706-.434 1.534-.652 2.482-.652.948 0 1.775.218 2.482.652.707.435 1.255 1.045 1.646 1.83.391.786.586 1.704.586 2.753 0 1.044-.195 1.957-.586 2.739-.391.78-.939 1.389-1.646 1.823-.707.435-1.534.652-2.482.652Zm.006-1.652c.615 0 1.124-.163 1.528-.488.404-.324.702-.757.895-1.297.198-.54.297-1.134.297-1.784a5.13 5.13 0 0 0-.297-1.778c-.193-.544-.491-.98-.895-1.31-.404-.33-.913-.494-1.528-.494-.618 0-1.132.165-1.54.494-.404.33-.705.766-.902 1.31a5.247 5.247 0 0 0-.29 1.778c0 .65.097 1.244.29 1.784.197.54.498.973.902 1.297.408.325.922.488 1.54.488Zm6.905 1.448V89.887h1.969v4.24h.948l3.338-4.24h2.436l-3.917 4.918 3.963 5.195h-2.442l-3.049-4.043h-1.277V100h-1.969Zm12.196-2.759 4.457-7.354h2.12V100h-1.929v-7.361L252.051 100h-2.139V89.887h1.929v7.354Zm9.224 6.551V89.887h1.923v1.64h.164c.114-.211.279-.455.494-.731.215-.277.513-.518.895-.725.382-.21.887-.316 1.515-.316.816 0 1.545.207 2.186.62.64.412 1.143 1.007 1.507 1.783.369.777.553 1.712.553 2.805 0 1.093-.182 2.03-.546 2.812-.364.776-.865 1.376-1.501 1.797-.637.417-1.363.626-2.18.626-.614 0-1.117-.104-1.507-.31a2.856 2.856 0 0 1-.909-.724 5.57 5.57 0 0 1-.507-.738h-.118v5.366h-1.969Zm1.929-8.849c0 .712.103 1.335.31 1.87.206.536.504.955.895 1.258.391.298.869.448 1.435.448.588 0 1.08-.156 1.475-.468.395-.316.694-.744.896-1.284.206-.54.309-1.148.309-1.823 0-.668-.101-1.267-.303-1.798-.197-.531-.496-.95-.895-1.258-.395-.307-.889-.46-1.482-.46-.57 0-1.053.147-1.448.44-.391.295-.687.705-.889 1.232-.202.527-.303 1.141-.303 1.844Zm13.774 5.261c-.948 0-1.776-.217-2.482-.652a4.39 4.39 0 0 1-1.646-1.824c-.391-.78-.586-1.694-.586-2.738 0-1.05.195-1.967.586-2.753.39-.785.939-1.395 1.646-1.83.706-.434 1.534-.652 2.482-.652.948 0 1.775.218 2.482.652.707.435 1.255 1.045 1.646 1.83.391.786.586 1.704.586 2.753 0 1.044-.195 1.957-.586 2.739-.391.78-.939 1.389-1.646 1.823-.707.435-1.534.652-2.482.652Zm.007-1.652c.614 0 1.123-.163 1.527-.488.404-.324.702-.757.895-1.297.198-.54.297-1.134.297-1.784a5.13 5.13 0 0 0-.297-1.778c-.193-.544-.491-.98-.895-1.31-.404-.33-.913-.494-1.527-.494-.619 0-1.133.165-1.541.494-.404.33-.705.766-.902 1.31a5.247 5.247 0 0 0-.29 1.778c0 .65.097 1.244.29 1.784.197.54.498.973.902 1.297.408.325.922.488 1.541.488ZM283.68 100V89.887h4.194c1.141 0 2.045.243 2.712.73.667.484 1.001 1.14 1.001 1.97 0 .592-.189 1.062-.566 1.408-.378.347-.878.58-1.501.698a3.18 3.18 0 0 1 1.244.409c.377.215.68.504.909.869.232.364.349.798.349 1.303 0 .536-.139 1.01-.415 1.422-.277.409-.678.729-1.205.962-.522.228-1.152.342-1.89.342h-4.832Zm1.85-1.646h2.982c.487 0 .869-.116 1.146-.349.276-.233.415-.549.415-.948 0-.47-.139-.838-.415-1.106-.277-.272-.659-.408-1.146-.408h-2.982v2.811Zm0-4.253h2.363c.369 0 .685-.053.948-.158.268-.106.472-.255.613-.448.145-.198.217-.43.217-.698 0-.39-.16-.696-.481-.915-.32-.22-.759-.33-1.316-.33h-2.344v2.549Zm11.594 6.123c-.641 0-1.22-.119-1.738-.356a2.928 2.928 0 0 1-1.231-1.046c-.299-.457-.448-1.017-.448-1.68 0-.57.11-1.04.329-1.408.22-.37.516-.661.889-.876.373-.215.79-.378 1.251-.487.461-.11.931-.194 1.409-.25l1.475-.172c.377-.048.652-.125.823-.23.171-.105.257-.277.257-.514v-.046c0-.575-.163-1.02-.488-1.336-.32-.316-.798-.474-1.435-.474-.663 0-1.185.147-1.567.44-.377.29-.639.613-.783.969l-1.851-.422c.22-.614.54-1.11.962-1.488a3.9 3.9 0 0 1 1.468-.83 5.733 5.733 0 0 1 1.745-.263c.404 0 .832.049 1.284.145a3.76 3.76 0 0 1 1.277.514c.399.25.726.608.981 1.073.255.46.382 1.06.382 1.797V100h-1.923v-1.383h-.079a2.788 2.788 0 0 1-.573.75 3.03 3.03 0 0 1-.981.613c-.399.163-.877.244-1.435.244Zm.428-1.58c.544 0 1.01-.108 1.396-.323.391-.215.687-.496.889-.843.206-.35.309-.726.309-1.126V95.05c-.07.07-.206.136-.408.197a6.396 6.396 0 0 1-.678.152c-.255.04-.503.077-.744.112-.242.03-.443.057-.606.079a4.93 4.93 0 0 0-1.047.243 1.794 1.794 0 0 0-.75.494c-.185.21-.277.492-.277.843 0 .487.18.856.54 1.106.36.246.819.369 1.376.369Zm14.039-4.55V95.8h-5.478v-1.705h5.478Zm-4.925-4.207V100h-1.929V89.887h1.929Zm6.301 0V100h-1.923V89.887h1.923Zm6.893 10.317c-.948 0-1.775-.217-2.482-.652a4.403 4.403 0 0 1-1.646-1.824c-.39-.78-.586-1.694-.586-2.738 0-1.05.196-1.967.586-2.753.391-.785.94-1.395 1.646-1.83.707-.434 1.534-.652 2.482-.652.949 0 1.776.218 2.483.652.706.435 1.255 1.045 1.646 1.83.39.786.586 1.704.586 2.753 0 1.044-.196 1.957-.586 2.739a4.403 4.403 0 0 1-1.646 1.823c-.707.435-1.534.652-2.483.652Zm.007-1.652c.615 0 1.124-.163 1.528-.488.403-.324.702-.757.895-1.297.198-.54.296-1.134.296-1.784a5.13 5.13 0 0 0-.296-1.778c-.193-.544-.492-.98-.895-1.31-.404-.33-.913-.494-1.528-.494-.619 0-1.132.165-1.541.494-.403.33-.704.766-.902 1.31a5.247 5.247 0 0 0-.289 1.778c0 .65.096 1.244.289 1.784.198.54.499.973.902 1.297.409.325.922.488 1.541.488Z" fill="#000"/><circle opacity=".8" cx="44.816" cy="130.265" r="10.816" fill="#616B89"/><path d="M81.56 123.965v13.484h-2.028v-11.746h-6.347v11.746h-2.028v-13.484H81.56Zm7.212 13.688c-.948 0-1.775-.217-2.482-.651a4.4 4.4 0 0 1-1.646-1.824c-.39-.782-.586-1.695-.586-2.739 0-1.049.195-1.967.586-2.752a4.39 4.39 0 0 1 1.646-1.831c.707-.434 1.534-.652 2.482-.652.948 0 1.776.218 2.483.652.706.435 1.255 1.045 1.646 1.831.39.785.586 1.703.586 2.752 0 1.044-.196 1.957-.586 2.739a4.4 4.4 0 0 1-1.646 1.824c-.707.434-1.534.651-2.483.651Zm.007-1.652c.615 0 1.124-.163 1.528-.487.403-.325.702-.758.895-1.298a5.152 5.152 0 0 0 .296-1.784c0-.645-.099-1.238-.296-1.778-.193-.544-.492-.981-.895-1.31-.404-.329-.913-.494-1.528-.494-.619 0-1.132.165-1.54.494-.404.329-.705.766-.903 1.31a5.248 5.248 0 0 0-.29 1.778c0 .65.097 1.245.29 1.784.198.54.499.973.902 1.298.409.324.922.487 1.541.487Zm5.917 4.365v-4.622h.823c.211-.193.389-.424.534-.691.149-.268.274-.586.375-.955.105-.369.193-.799.263-1.291.07-.496.132-1.062.185-1.698l.316-3.773h6.873v8.408h1.554v4.622h-1.922v-2.917h-7.052v2.917h-1.949Zm2.93-4.622h4.517v-6.722h-3.187l-.21 2.087a28.545 28.545 0 0 1-.382 2.765c-.154.777-.4 1.4-.738 1.87Zm14.177 1.909c-.948 0-1.775-.217-2.482-.651a4.407 4.407 0 0 1-1.646-1.824c-.39-.782-.586-1.695-.586-2.739 0-1.049.196-1.967.586-2.752.391-.786.94-1.396 1.646-1.831.707-.434 1.534-.652 2.482-.652.948 0 1.776.218 2.483.652.706.435 1.255 1.045 1.646 1.831.39.785.586 1.703.586 2.752 0 1.044-.196 1.957-.586 2.739a4.407 4.407 0 0 1-1.646 1.824c-.707.434-1.535.651-2.483.651Zm.007-1.652c.614 0 1.124-.163 1.527-.487.404-.325.703-.758.896-1.298a5.164 5.164 0 0 0 .296-1.784c0-.645-.099-1.238-.296-1.778-.193-.544-.492-.981-.896-1.31-.403-.329-.913-.494-1.527-.494-.619 0-1.132.165-1.541.494-.404.329-.704.766-.902 1.31a5.25 5.25 0 0 0-.289 1.778c0 .65.096 1.245.289 1.784.198.54.498.973.902 1.298.409.324.922.487 1.541.487Zm6.306-1.225h2.015c.026.413.212.731.559.955.351.224.806.336 1.363.336.566 0 1.049-.121 1.449-.363.399-.245.599-.625.599-1.139a1.4 1.4 0 0 0-.231-.803 1.472 1.472 0 0 0-.638-.54 2.274 2.274 0 0 0-.968-.191h-1.646v-1.547h1.646c.557 0 .974-.127 1.251-.382.276-.254.415-.573.415-.954 0-.413-.15-.744-.448-.995-.294-.254-.705-.382-1.231-.382-.536 0-.981.121-1.337.363-.355.237-.542.544-.56.921h-1.988a2.457 2.457 0 0 1 .514-1.488c.333-.43.781-.763 1.343-1 .566-.242 1.209-.363 1.929-.363.75 0 1.4.121 1.949.363.548.241.972.575 1.27 1 .303.426.455.916.455 1.469 0 .557-.167 1.014-.501 1.369-.329.351-.759.604-1.29.757v.106c.391.026.737.144 1.04.355.303.211.54.49.711.836.171.347.257.74.257 1.179 0 .619-.171 1.154-.514 1.606-.338.452-.807.801-1.409 1.047-.596.242-1.279.362-2.047.362-.746 0-1.416-.116-2.008-.349-.588-.237-1.056-.57-1.403-1a2.544 2.544 0 0 1-.546-1.528Zm9.96 6.466v-13.906h1.922v1.64h.165c.114-.211.279-.455.494-.731.215-.277.513-.518.895-.725.382-.21.887-.316 1.515-.316.816 0 1.545.207 2.185.619.641.413 1.144 1.008 1.508 1.785.369.777.553 1.711.553 2.804 0 1.093-.182 2.031-.546 2.812-.365.777-.865 1.376-1.501 1.797-.637.417-1.363.626-2.18.626-.614 0-1.117-.103-1.507-.31-.387-.206-.69-.447-.909-.724a5.358 5.358 0 0 1-.507-.737h-.119v5.366h-1.968Zm1.929-8.849c0 .711.103 1.334.309 1.87.207.535.505.954.896 1.257.39.299.869.448 1.435.448.588 0 1.08-.156 1.475-.468.395-.316.694-.744.895-1.284.207-.539.31-1.147.31-1.823 0-.668-.101-1.267-.303-1.798-.198-.531-.496-.95-.895-1.257-.395-.308-.889-.461-1.482-.461-.57 0-1.053.147-1.448.441-.391.294-.687.704-.889 1.231-.202.527-.303 1.141-.303 1.844Zm11.443 2.298 4.457-7.355h2.12v10.113h-1.929v-7.361l-4.437 7.361h-2.14v-10.113h1.929v7.355Zm7.97-5.656v-1.699h8.533v1.699h-3.299v8.414h-1.922v-8.414h-3.312Zm14.503 8.618c-.996 0-1.854-.213-2.574-.638a4.332 4.332 0 0 1-1.66-1.811c-.386-.781-.579-1.696-.579-2.745 0-1.036.193-1.949.579-2.739.391-.791.935-1.407 1.633-1.851.703-.443 1.523-.665 2.463-.665.57 0 1.123.095 1.659.284a4.024 4.024 0 0 1 1.442.888c.426.404.761.929 1.007 1.574.246.641.369 1.42.369 2.337v.698h-8.039v-1.475h6.11c0-.518-.106-.976-.316-1.376a2.39 2.39 0 0 0-.889-.954c-.378-.233-.821-.349-1.33-.349-.553 0-1.036.136-1.449.408a2.747 2.747 0 0 0-.948 1.053 3.051 3.051 0 0 0-.329 1.403v1.152c0 .676.119 1.251.356 1.725.241.474.577.836 1.007 1.086.43.246.933.369 1.508.369.373 0 .713-.053 1.02-.158.308-.11.573-.272.797-.487.224-.215.395-.481.514-.797l1.863.336a3.375 3.375 0 0 1-.803 1.442 3.91 3.91 0 0 1-1.442.955c-.575.223-1.232.335-1.969.335Zm5.726-.204-.006-1.705h.362c.281 0 .516-.059.705-.178.193-.123.351-.329.474-.619.122-.289.217-.689.283-1.198.066-.514.114-1.159.145-1.936l.177-4.477h7.058v10.113h-1.929v-8.414h-3.305l-.158 3.437a13.776 13.776 0 0 1-.257 2.186c-.127.623-.314 1.143-.559 1.56a2.43 2.43 0 0 1-.948.928c-.387.202-.856.303-1.409.303h-.633Zm13.305-6.636h2.937c1.237 0 2.19.307 2.857.921.667.615 1.001 1.407 1.001 2.377 0 .632-.149 1.201-.448 1.705-.298.505-.735.905-1.31 1.199-.575.289-1.275.434-2.1.434h-4.418v-10.113h1.929v8.415h2.489c.566 0 1.031-.148 1.395-.442.365-.298.547-.678.547-1.139 0-.487-.182-.884-.547-1.191-.364-.312-.829-.468-1.395-.468h-2.937v-1.698Zm15.856.73v1.706h-5.478v-1.706h5.478Zm-4.925-4.207v10.113h-1.929v-10.113h1.929Zm6.301 0v10.113h-1.922v-10.113h1.922Zm4.115 3.477h2.937c1.238 0 2.19.307 2.857.921.667.615 1.001 1.407 1.001 2.377 0 .632-.149 1.201-.448 1.705-.298.505-.735.905-1.31 1.199-.575.289-1.275.434-2.1.434h-4.418v-10.113h1.929v8.415h2.489c.566 0 1.031-.148 1.396-.442.364-.298.546-.678.546-1.139 0-.487-.182-.884-.546-1.191-.365-.312-.83-.468-1.396-.468h-2.937v-1.698Zm8.23 6.636v-10.113h1.969v10.113h-1.969Zm8.969.204c-.996 0-1.854-.213-2.574-.638a4.336 4.336 0 0 1-1.659-1.811c-.386-.781-.579-1.696-.579-2.745 0-1.036.193-1.949.579-2.739.391-.791.935-1.407 1.633-1.851.702-.443 1.523-.665 2.462-.665.571 0 1.124.095 1.659.284a4.007 4.007 0 0 1 1.442.888c.426.404.762.929 1.008 1.574.245.641.368 1.42.368 2.337v.698h-8.039v-1.475h6.11c0-.518-.105-.976-.316-1.376a2.384 2.384 0 0 0-.889-.954c-.377-.233-.82-.349-1.33-.349-.553 0-1.036.136-1.448.408a2.747 2.747 0 0 0-.948 1.053c-.22.431-.329.898-.329 1.403v1.152c0 .676.118 1.251.355 1.725.242.474.577.836 1.007 1.086.431.246.933.369 1.508.369.373 0 .713-.053 1.021-.158a2.2 2.2 0 0 0 .796-.487c.224-.215.395-.481.514-.797l1.863.336a3.375 3.375 0 0 1-.803 1.442 3.91 3.91 0 0 1-1.442.955c-.575.223-1.231.335-1.969.335Z" fill="#000"/><circle cx="44.816" cy="167.718" r="10.816" fill="#75A0E5"/><path d="M71.019 174.902v-13.484h2.034v5.86h6.722v-5.86h2.041v13.484h-2.04v-5.879h-6.723v5.879h-2.034Zm17.96.204c-.996 0-1.854-.212-2.574-.638a4.332 4.332 0 0 1-1.659-1.811c-.386-.781-.58-1.696-.58-2.745 0-1.036.194-1.949.58-2.739.39-.79.935-1.407 1.633-1.85.702-.444 1.523-.665 2.462-.665.571 0 1.124.094 1.66.283a4.007 4.007 0 0 1 1.442.889c.425.403.761.928 1.007 1.573.246.641.369 1.42.369 2.337v.698h-8.04v-1.474h6.11c0-.518-.105-.977-.316-1.377a2.39 2.39 0 0 0-.888-.954c-.378-.233-.821-.349-1.33-.349-.553 0-1.036.136-1.449.408a2.745 2.745 0 0 0-.948 1.053 3.04 3.04 0 0 0-.33 1.403v1.152c0 .676.12 1.251.356 1.725a2.57 2.57 0 0 0 1.008 1.086c.43.246.932.369 1.507.369.374 0 .714-.052 1.021-.158.307-.11.573-.272.797-.487.224-.215.395-.481.513-.797l1.864.336a3.375 3.375 0 0 1-.804 1.442 3.905 3.905 0 0 1-1.442.955c-.575.224-1.23.335-1.968.335Zm14.774-10.317v8.5h1.481v4.872h-1.942v-3.259h-7.79v-10.113h1.93v8.415h4.398v-8.415h1.923Zm7.914 10.317c-.997 0-1.855-.212-2.575-.638a4.336 4.336 0 0 1-1.659-1.811c-.386-.781-.579-1.696-.579-2.745 0-1.036.193-1.949.579-2.739.391-.79.935-1.407 1.633-1.85.702-.444 1.523-.665 2.462-.665.571 0 1.124.094 1.66.283a4.013 4.013 0 0 1 1.442.889c.425.403.761.928 1.007 1.573.246.641.369 1.42.369 2.337v.698h-8.039v-1.474h6.11c0-.518-.106-.977-.317-1.377a2.381 2.381 0 0 0-.888-.954c-.378-.233-.821-.349-1.33-.349-.553 0-1.036.136-1.449.408a2.747 2.747 0 0 0-.948 1.053 3.051 3.051 0 0 0-.329 1.403v1.152c0 .676.118 1.251.355 1.725.242.474.578.836 1.008 1.086.43.246.933.369 1.508.369a3.11 3.11 0 0 0 1.02-.158c.307-.11.573-.272.797-.487.224-.215.395-.481.513-.797l1.864.336a3.377 3.377 0 0 1-.804 1.442 3.902 3.902 0 0 1-1.442.955c-.575.224-1.231.335-1.968.335Zm5.726-.204-.006-1.705h.362c.281 0 .516-.059.704-.178.193-.123.351-.329.474-.619.123-.289.218-.689.283-1.198.066-.513.115-1.159.145-1.936l.178-4.477h7.058v10.113h-1.929v-8.414h-3.305l-.158 3.437c-.04.834-.125 1.562-.257 2.186-.127.623-.314 1.143-.56 1.56a2.418 2.418 0 0 1-.948.928c-.386.202-.856.303-1.409.303h-.632Zm16.182.204c-.996 0-1.854-.212-2.574-.638a4.324 4.324 0 0 1-1.659-1.811c-.387-.781-.58-1.696-.58-2.745 0-1.036.193-1.949.58-2.739.39-.79.935-1.407 1.632-1.85.703-.444 1.524-.665 2.463-.665.571 0 1.124.094 1.659.283a4.004 4.004 0 0 1 1.442.889c.426.403.762.928 1.007 1.573.246.641.369 1.42.369 2.337v.698h-8.039v-1.474h6.11c0-.518-.105-.977-.316-1.377a2.39 2.39 0 0 0-.889-.954c-.377-.233-.821-.349-1.33-.349-.553 0-1.036.136-1.448.408a2.741 2.741 0 0 0-.949 1.053 3.051 3.051 0 0 0-.329 1.403v1.152c0 .676.119 1.251.356 1.725.241.474.577.836 1.007 1.086.43.246.933.369 1.508.369a3.11 3.11 0 0 0 1.02-.158c.308-.11.573-.272.797-.487.224-.215.395-.481.514-.797l1.863.336a3.375 3.375 0 0 1-.803 1.442 3.91 3.91 0 0 1-1.442.955c-.575.224-1.231.335-1.969.335Zm6.523-.204v-10.113h4.194c1.142 0 2.046.244 2.713.731.667.483 1.001 1.139 1.001 1.969 0 .592-.189 1.062-.566 1.409-.378.346-.878.579-1.502.698.452.052.867.188 1.245.408.377.215.68.505.908.869.233.364.349.799.349 1.304 0 .535-.138 1.009-.415 1.422-.276.408-.678.728-1.204.961-.523.228-1.153.342-1.89.342h-4.833Zm1.85-1.646h2.983c.487 0 .869-.116 1.146-.349.276-.232.414-.548.414-.948 0-.469-.138-.838-.414-1.106-.277-.272-.659-.408-1.146-.408h-2.983v2.811Zm0-4.253h2.364c.369 0 .685-.053.948-.158a1.34 1.34 0 0 0 .613-.448c.144-.197.217-.43.217-.698 0-.39-.16-.695-.481-.915-.32-.219-.759-.329-1.317-.329h-2.344v2.548Zm10.133-.737h2.937c1.238 0 2.19.307 2.857.921.667.615 1.001 1.407 1.001 2.377 0 .632-.149 1.201-.448 1.706-.298.504-.735.904-1.31 1.198-.575.289-1.275.434-2.1.434H150.6v-10.113h1.929v8.415h2.489c.566 0 1.031-.147 1.396-.441.364-.299.546-.679.546-1.14 0-.487-.182-.884-.546-1.191-.365-.312-.83-.468-1.396-.468h-2.937v-1.698Zm8.23 6.636v-10.113h1.969v10.113h-1.969Zm8.969.204c-.996 0-1.854-.212-2.574-.638a4.336 4.336 0 0 1-1.659-1.811c-.386-.781-.58-1.696-.58-2.745 0-1.036.194-1.949.58-2.739.391-.79.935-1.407 1.633-1.85.702-.444 1.523-.665 2.462-.665.571 0 1.124.094 1.659.283a4.004 4.004 0 0 1 1.442.889c.426.403.762.928 1.008 1.573.245.641.368 1.42.368 2.337v.698h-8.039v-1.474h6.11c0-.518-.105-.977-.316-1.377a2.39 2.39 0 0 0-.889-.954c-.377-.233-.821-.349-1.33-.349-.553 0-1.036.136-1.448.408a2.747 2.747 0 0 0-.948 1.053c-.22.431-.329.898-.329 1.403v1.152c0 .676.118 1.251.355 1.725.241.474.577.836 1.007 1.086.431.246.933.369 1.508.369a3.12 3.12 0 0 0 1.021-.158 2.2 2.2 0 0 0 .796-.487c.224-.215.395-.481.514-.797l1.863.336a3.375 3.375 0 0 1-.803 1.442 3.91 3.91 0 0 1-1.442.955c-.575.224-1.231.335-1.969.335Zm11.43-.204v-10.113h1.969v4.24h.948l3.338-4.24h2.436l-3.917 4.919 3.963 5.194h-2.442l-3.049-4.042h-1.277v4.042h-1.969Zm9.47 0-.007-1.705h.362c.281 0 .516-.059.705-.178.193-.123.351-.329.474-.619.123-.289.217-.689.283-1.198a22.78 22.78 0 0 0 .145-1.936l.178-4.477h7.058v10.113h-1.929v-8.414h-3.306l-.158 3.437a13.902 13.902 0 0 1-.256 2.186c-.128.623-.314 1.143-.56 1.56a2.43 2.43 0 0 1-.948.928c-.386.202-.856.303-1.409.303h-.632Zm13.752-2.758 4.458-7.355h2.12v10.113h-1.929v-7.361l-4.438 7.361h-2.14v-10.113h1.929v7.355Zm9.224 2.758v-10.113h1.969v4.24h.948l3.338-4.24h2.436l-3.917 4.919 3.964 5.194h-2.443l-3.049-4.042h-1.277v4.042h-1.969Zm12.196-2.758 4.457-7.355h2.12v10.113H230v-7.361l-4.438 7.361h-2.139v-10.113h1.929v7.355Z" fill="#000"/><circle cx="44.816" cy="205.167" r="8.907" fill="#27C58B" stroke="#27C58B" stroke-width="3.817"/><path d="m84.527 210.554-.178 4.984H82.32v-3.186h-.948v-1.798h3.154Zm-11.964 1.798v-13.485h1.95v11.72h6.504v-11.72h1.956v13.485h-10.41Zm18.396.204c-.996 0-1.854-.213-2.574-.639a4.332 4.332 0 0 1-1.66-1.811c-.385-.781-.579-1.696-.579-2.745 0-1.036.194-1.949.58-2.739.39-.79.935-1.407 1.633-1.85.702-.444 1.523-.665 2.462-.665.57 0 1.124.094 1.66.283a4.02 4.02 0 0 1 1.441.889c.426.404.762.928 1.007 1.573.246.641.37 1.42.37 2.338v.698h-8.04v-1.475h6.11c0-.518-.105-.977-.316-1.376a2.392 2.392 0 0 0-.889-.955c-.377-.233-.82-.349-1.33-.349-.553 0-1.036.136-1.448.408a2.74 2.74 0 0 0-.948 1.054c-.22.43-.33.897-.33 1.402v1.152c0 .676.119 1.251.356 1.725a2.57 2.57 0 0 0 1.007 1.087c.43.246.933.368 1.508.368a3.11 3.11 0 0 0 1.02-.158 2.114 2.114 0 0 0 1.31-1.283l1.864.335a3.368 3.368 0 0 1-.803 1.442 3.893 3.893 0 0 1-1.442.955c-.575.224-1.231.336-1.969.336Zm5.727-.204-.007-1.706h.362c.281 0 .516-.059.705-.177.193-.123.35-.33.474-.619.123-.29.217-.69.283-1.199.066-.513.114-1.158.145-1.935l.178-4.478h7.058v10.114h-1.929v-8.415h-3.306l-.158 3.437a13.888 13.888 0 0 1-.256 2.186c-.128.623-.314 1.143-.56 1.56a2.438 2.438 0 0 1-.948.929c-.386.202-.856.303-1.41.303h-.631Zm16.182.204c-.997 0-1.855-.213-2.575-.639a4.336 4.336 0 0 1-1.659-1.811c-.386-.781-.579-1.696-.579-2.745 0-1.036.193-1.949.579-2.739.391-.79.935-1.407 1.633-1.85.702-.444 1.523-.665 2.462-.665.571 0 1.124.094 1.66.283a4.014 4.014 0 0 1 1.441.889c.426.404.762.928 1.008 1.573.246.641.369 1.42.369 2.338v.698h-8.04v-1.475h6.11c0-.518-.105-.977-.316-1.376a2.39 2.39 0 0 0-.888-.955c-.378-.233-.821-.349-1.33-.349-.553 0-1.036.136-1.449.408a2.742 2.742 0 0 0-.948 1.054c-.219.43-.329.897-.329 1.402v1.152c0 .676.118 1.251.355 1.725.242.474.578.837 1.008 1.087.43.246.932.368 1.507.368.374 0 .714-.052 1.021-.158a2.2 2.2 0 0 0 .797-.487c.223-.215.395-.48.513-.796l1.863.335a3.369 3.369 0 0 1-.803 1.442 3.89 3.89 0 0 1-1.442.955c-.575.224-1.231.336-1.968.336Zm6.523-.204v-10.114h4.194c1.141 0 2.045.244 2.712.731.668.483 1.001 1.139 1.001 1.969 0 .592-.189 1.062-.566 1.409-.377.347-.878.579-1.501.698.452.052.867.189 1.244.408.378.215.681.505.909.869.232.364.349.799.349 1.304 0 .535-.138 1.009-.415 1.422-.277.408-.678.729-1.205.961-.522.228-1.152.343-1.89.343h-4.832Zm1.85-1.646h2.982c.488 0 .87-.117 1.146-.349.277-.233.415-.549.415-.949 0-.469-.138-.838-.415-1.106-.276-.272-.658-.408-1.146-.408h-2.982v2.812Zm0-4.254h2.364c.368 0 .684-.052.948-.158.267-.105.472-.254.612-.447a1.15 1.15 0 0 0 .217-.698c0-.391-.16-.696-.48-.916-.321-.219-.76-.329-1.317-.329h-2.344v2.548Zm10.133-.737h2.936c1.238 0 2.191.307 2.858.922.667.614 1 1.406 1 2.376 0 .633-.149 1.201-.447 1.706-.299.504-.735.904-1.31 1.198-.575.29-1.276.435-2.101.435h-4.418v-10.114h1.929v8.415h2.489c.566 0 1.032-.147 1.396-.441a1.41 1.41 0 0 0 .547-1.139c0-.488-.183-.885-.547-1.192-.364-.312-.83-.467-1.396-.467h-2.936v-1.699Zm8.23 6.637v-10.114h1.968v10.114h-1.968Zm8.969.204c-.996 0-1.855-.213-2.574-.639a4.332 4.332 0 0 1-1.66-1.811c-.386-.781-.579-1.696-.579-2.745 0-1.036.193-1.949.579-2.739.391-.79.935-1.407 1.633-1.85.703-.444 1.523-.665 2.463-.665.57 0 1.123.094 1.659.283a4.027 4.027 0 0 1 1.442.889c.426.404.761.928 1.007 1.573.246.641.369 1.42.369 2.338v.698h-8.039v-1.475h6.11c0-.518-.106-.977-.316-1.376a2.393 2.393 0 0 0-.889-.955c-.378-.233-.821-.349-1.33-.349-.553 0-1.036.136-1.449.408a2.742 2.742 0 0 0-.948 1.054c-.219.43-.329.897-.329 1.402v1.152c0 .676.119 1.251.356 1.725a2.57 2.57 0 0 0 1.007 1.087c.43.246.933.368 1.508.368a3.11 3.11 0 0 0 1.02-.158 2.105 2.105 0 0 0 1.31-1.283l1.864.335a3.37 3.37 0 0 1-.804 1.442 3.886 3.886 0 0 1-1.441.955c-.575.224-1.232.336-1.969.336Zm11.43-.204v-10.114h1.968v4.241h.949l3.338-4.241h2.436l-3.918 4.919 3.964 5.195h-2.443l-3.048-4.043h-1.278v4.043h-1.968Zm9.469 0-.006-1.706h.362c.281 0 .516-.059.704-.177.193-.123.351-.33.474-.619.123-.29.218-.69.284-1.199.065-.513.114-1.158.144-1.935l.178-4.478h7.058v10.114h-1.929v-8.415h-3.305l-.158 3.437c-.04.834-.125 1.563-.257 2.186-.127.623-.314 1.143-.56 1.56a2.427 2.427 0 0 1-.948.929c-.386.202-.856.303-1.409.303h-.632Zm13.753-2.759 4.457-7.355h2.12v10.114h-1.929v-7.361l-4.438 7.361h-2.139v-10.114h1.929v7.355Zm9.224 2.759v-10.114h1.969v4.241h.948l3.338-4.241h2.436l-3.918 4.919 3.964 5.195h-2.443l-3.048-4.043h-1.277v4.043h-1.969Zm12.195-2.759 4.458-7.355h2.12v10.114h-1.929v-7.361l-4.438 7.361h-2.14v-10.114h1.929v7.355Z" fill="#000"/><g clip-path="url(#a)"><g clip-path="url(#b)"><g clip-path="url(#c)"><path d="m184 149.905 5.267 1.957c5.266 1.958 16.145 9.925 26.333 6.421 20.745-7.134 22.232-79.775 32.766-75.432 10.533 4.342 6.922 89.625 30.434 90.996 14.017.817 21.067-18.563 31.6-29.869 10.533-11.306 21.067-17.709 31.6-5.462 10.533 12.247 17.936 4.02 28.469 5.462 10.533 1.442 21.907 41.966 34.731-3.719 12.824-45.686 15.768-50.219 26.301-49.679 10.534.54 23.105 15.716 36.899 50.581 13.794 34.866 16.908 36.302 31.6 35.764 15.59-.571 21.067-35.432 31.6-42.73 10.533-7.297 21.067 9.869 31.6 5.732 10.533-4.138 21.067-29.579 31.6-25.874 10.533 3.705 21.067 36.556 31.6 32.072 10.533-4.485 21.067-46.305 26.333-67.215L658 58" stroke="#8189A1" stroke-width="6.483" stroke-linecap="round"/></g><path d="M198.122 152.318 193 150.351V330h430.267V146.552c-10.245 4.506-20.489-28.504-30.734-32.227-10.244-3.723-20.489 21.842-30.733 25.999-10.244 4.158-20.489-13.092-30.733-5.759-10.245 7.333-15.571 42.363-30.734 42.937-14.289.54-17.317-.903-30.733-35.937-13.416-35.035-23.777-46.762-34.021-47.304-10.245-.542-14.974.49-27.446 46.397-12.472 45.907-25.322 9.938-35.566 8.489-10.244-1.449-15.656 2.066-25.9-10.24-10.245-12.307-20.489-5.873-30.734 5.488-10.244 11.361-17.1 30.835-30.733 30.014-22.867-1.378-19.355-87.075-29.6-91.438-10.244-4.363-11.691 68.629-31.867 75.798-9.909 3.521-20.489-4.485-25.611-6.451Z" fill="#8189A1" fill-opacity=".2"/></g><path fill="#27C58B" d="M352.271 182.625h27.811v33.341h-27.811z"/><path fill="#6695E2" d="M352.271 182.625h27.811v22.672h-27.811z"/><path fill="#27C58B" d="M352.271 171.953h27.811v44.01h-27.811z"/><path fill="#4F5A7C" d="M352.271 149.281h27.811v33.341h-27.811z"/><path fill="#6695E2" d="M352.271 154.16h27.811v29.356h-27.811z"/><path d="M352.271 98.54a9.27 9.27 0 0 1 9.271-9.27h9.27a9.27 9.27 0 0 1 9.27 9.27v50.743h-27.811V98.54Z" fill="#E26666"/><path fill="#27C58B" d="M398.625 180.43h27.811v26.484h-27.811z"/><path fill="#27C58B" d="M398.625 193.762h27.811v22.2h-27.811z"/><path fill="#27C58B" d="M398.625 171.156h27.811v44.01h-27.811z"/><path fill="#6695E2" d="M398.625 149.527h27.811v21.631h-27.811z"/><path fill="#4F5A7C" d="M398.625 128.332h27.811v21.187h-27.811z"/><path d="M398.625 84.634a9.27 9.27 0 0 1 9.27-9.27h9.271a9.27 9.27 0 0 1 9.27 9.27v54.077h-27.811V84.634Z" fill="#E26666"/><path fill="#27C58B" d="M444.977 171.156h27.811v44.807h-27.811z"/><path fill="#6695E2" d="M444.977 147.98h27.811v23.176h-27.811z"/><path fill="#4F5A7C" d="M444.977 148.469h27.811v6.505h-27.811z"/><path d="M444.977 147.981a9.27 9.27 0 0 1 9.27-9.27h9.27a9.27 9.27 0 0 1 9.271 9.27v2.115h-27.811v-2.115Z" fill="#E26666"/><g clip-path="url(#d)"><path fill="#27C58B" d="M491.33 163.43h27.811v52.532H491.33z"/><path d="M491.33 147.981a9.27 9.27 0 0 1 9.27-9.27h9.271a9.27 9.27 0 0 1 9.27 9.27v2.115H491.33v-2.115Z" fill="#E26666"/><path fill="#4F5A7C" d="M491.33 143.348h27.811v9.27H491.33z"/><path fill="#6695E2" d="M491.33 147.98h27.811v15.451H491.33z"/></g><g clip-path="url(#e)"><path fill="#27C58B" d="M537.682 143.344h27.811v72.618h-27.811z"/><path d="M537.684 127.895a9.27 9.27 0 0 1 9.27-9.27h9.27a9.27 9.27 0 0 1 9.271 9.27v2.115h-27.811v-2.115Z" fill="#E26666"/><path fill="#4F5A7C" d="M537.684 118.625h27.811v13.905h-27.811z"/><path fill="#6695E2" d="M537.682 127.898h27.811v15.451h-27.811z"/></g><g clip-path="url(#f)"><path fill="#27C58B" d="M584.031 166.52h27.811v61.802h-27.811z"/><path d="M584.031 140.255a9.271 9.271 0 0 1 9.271-9.271h9.27a9.27 9.27 0 0 1 9.27 9.271v2.114h-27.811v-2.114Z" fill="#E26666"/><path fill="#4F5A7C" d="M584.031 130.984h27.811v13.905h-27.811z"/><path d="M584.031 140.255a9.271 9.271 0 0 1 9.271-9.271h9.27a9.27 9.27 0 0 1 9.27 9.271v2.114h-27.811v-2.114Z" fill="#E26666"/><path fill="#6695E2" d="M584.031 144.891h27.811v21.631h-27.811z"/></g></g><path d="M52.685 36.324h-4.807a4.7 4.7 0 0 0-.538-1.657 4.217 4.217 0 0 0-1.042-1.25 4.588 4.588 0 0 0-1.47-.791 5.627 5.627 0 0 0-1.79-.274c-1.162 0-2.175.289-3.039.867-.863.57-1.532 1.404-2.008 2.502-.475 1.09-.713 2.414-.713 3.972 0 1.602.238 2.948.713 4.038.483 1.09 1.156 1.913 2.02 2.47.862.555 1.861.833 2.995.833.636 0 1.225-.084 1.767-.252a4.642 4.642 0 0 0 1.46-.735c.424-.33.775-.728 1.053-1.197a4.66 4.66 0 0 0 .592-1.602l4.807.022a8.694 8.694 0 0 1-.933 2.985 8.969 8.969 0 0 1-1.986 2.557c-.827.746-1.815 1.339-2.963 1.778-1.141.431-2.433.647-3.874.647-2.004 0-3.797-.454-5.377-1.36-1.573-.908-2.816-2.221-3.73-3.94-.908-1.72-1.361-3.8-1.361-6.244 0-2.45.46-4.536 1.382-6.255.922-1.72 2.173-3.029 3.753-3.928 1.58-.908 3.358-1.361 5.333-1.361 1.302 0 2.51.183 3.621.549 1.12.365 2.111.9 2.974 1.602a8.24 8.24 0 0 1 2.107 2.556c.549 1.01.9 2.166 1.054 3.468Zm2.441 1.427v-3.676h15.275v3.676H64.97V50.93h-4.455V37.75h-5.388Zm22.312 13.497c-1.076 0-2.034-.187-2.875-.56a4.629 4.629 0 0 1-1.997-1.679c-.483-.746-.725-1.675-.725-2.787 0-.936.172-1.723.516-2.36a4.178 4.178 0 0 1 1.405-1.535 6.813 6.813 0 0 1 2.019-.878 15.26 15.26 0 0 1 2.392-.417c.98-.103 1.77-.198 2.37-.286.6-.095 1.035-.234 1.306-.417.27-.182.406-.453.406-.812v-.066c0-.694-.22-1.232-.658-1.613-.432-.38-1.046-.57-1.844-.57-.841 0-1.51.186-2.008.56-.497.365-.827.826-.988 1.382l-4.323-.351c.22-1.024.651-1.91 1.295-2.656.644-.753 1.474-1.331 2.49-1.733 1.025-.41 2.21-.615 3.556-.615.936 0 1.833.11 2.689.33a7.023 7.023 0 0 1 2.293 1.02 4.96 4.96 0 0 1 1.591 1.778c.388.716.582 1.576.582 2.578V50.93h-4.433v-2.338h-.132c-.27.527-.633.992-1.087 1.394a5.03 5.03 0 0 1-1.635.933c-.636.22-1.371.329-2.205.329Zm1.339-3.226c.687 0 1.294-.136 1.821-.406a3.22 3.22 0 0 0 1.24-1.12c.3-.468.45-.998.45-1.59v-1.79a2.507 2.507 0 0 1-.603.264c-.25.073-.53.143-.845.209-.315.058-.63.113-.944.164l-.856.12a5.784 5.784 0 0 0-1.438.385c-.41.175-.728.413-.954.713-.227.293-.34.659-.34 1.098 0 .636.23 1.122.69 1.459.47.33 1.062.494 1.779.494ZM88.864 37.75v-3.676h15.275v3.676h-5.432v13.18h-4.455V37.75h-5.388Zm22.575 7.012 6.068-10.688h4.609V50.93h-4.455V40.209l-6.047 10.72h-4.641V34.075h4.466v10.689Zm22.04 6.496c-1.726 0-3.212-.366-4.455-1.098a7.408 7.408 0 0 1-2.853-3.072c-.659-1.31-.988-2.816-.988-4.521 0-1.726.333-3.24.999-4.543.673-1.31 1.627-2.33 2.864-3.062 1.236-.739 2.707-1.108 4.411-1.108 1.47 0 2.758.267 3.863.801 1.104.534 1.979 1.284 2.622 2.25.644.965.999 2.1 1.065 3.401h-4.412c-.124-.84-.453-1.518-.987-2.03-.527-.52-1.218-.779-2.074-.779-.724 0-1.357.198-1.899.593-.534.387-.951.954-1.25 1.7-.3.747-.45 1.65-.45 2.711 0 1.075.146 1.99.439 2.743.299.754.72 1.328 1.261 1.723.542.395 1.175.593 1.899.593a3.08 3.08 0 0 0 1.437-.33 2.77 2.77 0 0 0 1.065-.954c.285-.424.472-.933.559-1.525h4.412c-.073 1.287-.425 2.421-1.054 3.401-.622.973-1.481 1.734-2.578 2.283-1.098.549-2.396.823-3.896.823Zm9.371-13.508v-3.676h15.275v3.676h-5.432v13.18h-4.455V37.75h-5.388Zm22.575 7.012 6.069-10.688h4.608V50.93h-4.455V40.209l-6.046 10.72h-4.642V34.075h4.466v10.689Zm14.425 6.167V34.075h4.675v6.54h1.316l4.587-6.54h5.487l-5.959 8.361 6.025 8.494h-5.553l-4.159-5.98h-1.744v5.98h-4.675Zm22.912.318c-1.075 0-2.033-.187-2.875-.56a4.629 4.629 0 0 1-1.997-1.679c-.483-.746-.724-1.675-.724-2.787 0-.936.172-1.723.516-2.36a4.173 4.173 0 0 1 1.404-1.535 6.823 6.823 0 0 1 2.019-.878 15.386 15.386 0 0 1 2.393-.417c.98-.103 1.77-.198 2.37-.286.6-.095 1.035-.234 1.306-.417.27-.182.406-.453.406-.812v-.066c0-.694-.22-1.232-.659-1.613-.431-.38-1.046-.57-1.843-.57-.842 0-1.511.186-2.008.56-.498.365-.827.826-.988 1.382l-4.324-.351c.22-1.024.652-1.91 1.295-2.656.644-.753 1.474-1.331 2.491-1.733 1.024-.41 2.21-.615 3.556-.615.936 0 1.832.11 2.688.33a7.04 7.04 0 0 1 2.294 1.02 4.962 4.962 0 0 1 1.591 1.778c.387.716.581 1.576.581 2.578v11.37h-4.433v-2.338h-.132a4.73 4.73 0 0 1-1.086 1.394 5.038 5.038 0 0 1-1.635.933c-.636.22-1.372.329-2.206.329Zm1.339-3.226c.688 0 1.295-.136 1.822-.406.526-.278.94-.651 1.24-1.12.3-.468.45-.998.45-1.59v-1.79a2.523 2.523 0 0 1-.604.264c-.249.073-.53.143-.845.209a41.57 41.57 0 0 1-.944.164l-.856.12a5.79 5.79 0 0 0-1.437.385c-.41.175-.728.413-.955.713-.227.293-.34.659-.34 1.098 0 .636.231 1.122.691 1.459.469.33 1.061.494 1.778.494Zm18.932 2.908V34.075h7.188c2.077 0 3.72.395 4.927 1.185 1.207.79 1.81 1.913 1.81 3.369 0 .914-.34 1.675-1.02 2.282-.681.607-1.624 1.017-2.831 1.229 1.009.073 1.869.304 2.578.691.717.38 1.262.874 1.635 1.482a3.72 3.72 0 0 1 .571 2.019c0 .958-.256 1.781-.768 2.469-.505.688-1.247 1.214-2.228 1.58-.973.366-2.162.549-3.566.549h-8.296Zm4.356-3.5h3.94c.651 0 1.159-.154 1.525-.462.373-.314.56-.742.56-1.284 0-.6-.187-1.071-.56-1.415-.366-.344-.874-.516-1.525-.516h-3.94v3.676Zm0-6.42h2.93c.469 0 .867-.066 1.196-.198.337-.139.593-.336.769-.592.182-.256.274-.56.274-.911 0-.52-.209-.926-.626-1.218-.417-.293-.987-.44-1.711-.44h-2.832v3.359Zm17.914 3.753 6.069-10.688h4.609V50.93h-4.456V40.209l-6.046 10.72h-4.642V34.075h4.466v10.689Zm13.558 1.393h4.532c.022.556.271.995.746 1.317.476.322 1.09.483 1.844.483.761 0 1.401-.176 1.92-.527.52-.358.779-.87.779-1.536 0-.41-.102-.765-.307-1.065a2.086 2.086 0 0 0-.856-.724c-.366-.175-.79-.263-1.273-.263h-2.425v-3.062h2.425c.724 0 1.28-.168 1.668-.505.395-.336.593-.757.593-1.261 0-.571-.205-1.028-.615-1.372-.402-.351-.947-.527-1.635-.527-.695 0-1.273.158-1.734.472-.453.307-.687.71-.702 1.207h-4.51c.015-1.01.318-1.884.911-2.623.6-.738 1.404-1.309 2.414-1.711 1.017-.403 2.154-.604 3.413-.604 1.375 0 2.56.194 3.555.582 1.002.38 1.77.925 2.305 1.635.541.71.812 1.554.812 2.535 0 .892-.293 1.638-.878 2.238-.586.6-1.405 1.028-2.458 1.284v.176a4.2 4.2 0 0 1 1.887.56 3.7 3.7 0 0 1 1.35 1.36c.336.57.505 1.247.505 2.03 0 1.046-.308 1.942-.922 2.688-.607.747-1.449 1.321-2.524 1.723-1.068.395-2.294.593-3.676.593-1.346 0-2.553-.194-3.621-.582-1.061-.395-1.906-.973-2.535-1.733-.622-.761-.951-1.69-.988-2.788Zm21.599-1.393 6.068-10.688h4.609V50.93h-4.456V40.209l-6.046 10.72h-4.642V34.075h4.467v10.689Zm12.731-7.012v-3.676h15.275v3.676h-5.431v13.18h-4.456V37.75h-5.388Zm25.121 13.508c-1.704 0-3.178-.362-4.422-1.087a7.435 7.435 0 0 1-2.864-3.05c-.673-1.31-1.01-2.828-1.01-4.554 0-1.741.337-3.263 1.01-4.565.673-1.31 1.628-2.326 2.864-3.05 1.244-.732 2.718-1.098 4.422-1.098 1.705 0 3.175.366 4.412 1.097a7.337 7.337 0 0 1 2.875 3.051c.673 1.302 1.009 2.824 1.009 4.565 0 1.726-.336 3.244-1.009 4.554a7.416 7.416 0 0 1-2.875 3.05c-1.237.725-2.707 1.087-4.412 1.087Zm.022-3.621c.776 0 1.423-.22 1.943-.659.519-.446.91-1.053 1.174-1.821.27-.769.406-1.643.406-2.623 0-.98-.136-1.854-.406-2.623-.264-.768-.655-1.375-1.174-1.821-.52-.447-1.167-.67-1.943-.67-.783 0-1.441.224-1.975.67-.527.446-.925 1.053-1.196 1.821-.263.769-.395 1.643-.395 2.623 0 .98.132 1.855.395 2.623.271.768.669 1.375 1.196 1.821.534.44 1.192.659 1.975.659Zm11.314 3.292V34.075h7.187c2.078 0 3.72.395 4.927 1.185 1.208.79 1.811 1.913 1.811 3.369 0 .914-.34 1.675-1.02 2.282-.681.607-1.625 1.017-2.832 1.229 1.01.073 1.87.304 2.579.691.717.38 1.262.874 1.635 1.482a3.72 3.72 0 0 1 .571 2.019c0 .958-.256 1.781-.768 2.469-.505.688-1.248 1.214-2.228 1.58-.973.366-2.162.549-3.566.549h-8.296Zm4.356-3.5h3.94c.651 0 1.159-.154 1.525-.462.373-.314.56-.742.56-1.284 0-.6-.187-1.071-.56-1.415-.366-.344-.874-.516-1.525-.516h-3.94v3.676Zm0-6.42h2.93c.468 0 .867-.066 1.196-.198.337-.139.593-.336.768-.592.183-.256.275-.56.275-.911 0-.52-.209-.926-.626-1.218-.417-.293-.987-.44-1.712-.44h-2.831v3.359Z" fill="#070707"/><path d="M394.223 227.61v13.484h-2.041v-11.443h-.079l-3.226 2.107v-1.949l3.365-2.199h1.981Zm3.365 10.85v-1.646l5.827-9.204h1.297v2.423h-.823l-4.168 6.597v.105h7.987v1.725h-10.12Zm6.393 2.634v-3.134l.013-.751v-9.599h1.929v13.484h-1.942Zm6.837.125c-.359 0-.669-.127-.928-.382a1.275 1.275 0 0 1-.388-.935c0-.36.129-.667.388-.922.259-.259.569-.388.928-.388.36 0 .67.129.929.388.259.255.388.562.388.922 0 .241-.061.463-.184.665a1.362 1.362 0 0 1-.474.474 1.253 1.253 0 0 1-.659.178Zm8.133.099c-1.04-.005-1.929-.279-2.666-.823-.738-.545-1.302-1.337-1.692-2.377-.391-1.041-.586-2.294-.586-3.76 0-1.461.195-2.71.586-3.746.395-1.036.961-1.826 1.698-2.37.742-.545 1.629-.817 2.66-.817 1.032 0 1.916.275 2.654.823.737.545 1.301 1.335 1.692 2.371.395 1.031.592 2.278.592 3.739 0 1.471-.195 2.726-.586 3.766-.39 1.036-.954 1.829-1.692 2.377-.737.544-1.624.817-2.66.817Zm0-1.758c.913 0 1.627-.446 2.14-1.337.518-.891.777-2.179.777-3.865 0-1.119-.118-2.065-.355-2.837-.233-.777-.569-1.366-1.008-1.765a2.202 2.202 0 0 0-1.554-.606c-.908 0-1.621.448-2.139 1.343-.518.896-.78 2.184-.784 3.865 0 1.124.116 2.074.349 2.851.237.773.573 1.359 1.007 1.758a2.25 2.25 0 0 0 1.567.593Zm11.982 1.718a5.435 5.435 0 0 1-1.778-.329 4.17 4.17 0 0 1-1.58-1.054c-.474-.491-.854-1.152-1.139-1.981-.281-.83-.422-1.866-.422-3.108 0-1.176.117-2.221.349-3.134.237-.913.578-1.683 1.021-2.311.443-.632.979-1.113 1.606-1.442.628-.329 1.333-.494 2.114-.494.803 0 1.516.158 2.14.474a4.018 4.018 0 0 1 1.514 1.311c.391.557.639 1.191.744 1.902h-2.008a2.6 2.6 0 0 0-.81-1.376c-.404-.355-.93-.533-1.58-.533-.988 0-1.758.43-2.311 1.29-.549.861-.825 2.057-.83 3.589h.099a3.67 3.67 0 0 1 .856-.975 4.031 4.031 0 0 1 2.489-.849 4.02 4.02 0 0 1 2.12.573c.636.377 1.143.9 1.521 1.567.377.667.566 1.431.566 2.291 0 .86-.195 1.639-.586 2.337a4.304 4.304 0 0 1-1.633 1.66c-.702.403-1.523.601-2.462.592Zm-.007-1.712c.518 0 .981-.127 1.389-.382.409-.254.731-.597.968-1.027.237-.43.356-.911.356-1.442 0-.518-.117-.989-.349-1.415a2.629 2.629 0 0 0-.948-1.014 2.53 2.53 0 0 0-1.37-.375c-.39 0-.753.074-1.086.223-.329.15-.619.356-.869.619-.25.264-.448.567-.593.909-.14.338-.21.696-.21 1.073 0 .505.116.972.348 1.403.238.43.56.776.968 1.04.413.259.878.388 1.396.388Zm56.001-11.956v13.484h-2.042v-11.443h-.079l-3.226 2.107v-1.949l3.365-2.199h1.982Zm8.355 13.668a5.435 5.435 0 0 1-1.778-.329 4.17 4.17 0 0 1-1.58-1.054c-.474-.491-.854-1.152-1.139-1.981-.281-.83-.422-1.866-.422-3.108 0-1.176.117-2.221.349-3.134.237-.913.578-1.683 1.021-2.311.443-.632.979-1.113 1.606-1.442.628-.329 1.333-.494 2.114-.494.803 0 1.516.158 2.14.474a4.018 4.018 0 0 1 1.514 1.311c.391.557.639 1.191.744 1.902h-2.008a2.6 2.6 0 0 0-.81-1.376c-.404-.355-.931-.533-1.58-.533-.988 0-1.758.43-2.311 1.29-.549.861-.825 2.057-.83 3.589h.099a3.67 3.67 0 0 1 .856-.975 4.031 4.031 0 0 1 2.489-.849 4.02 4.02 0 0 1 2.12.573c.636.377 1.143.9 1.521 1.567.377.667.566 1.431.566 2.291 0 .86-.195 1.639-.586 2.337a4.304 4.304 0 0 1-1.633 1.66c-.702.403-1.523.601-2.462.592Zm-.007-1.712c.518 0 .981-.127 1.389-.382.409-.254.731-.597.968-1.027.237-.43.356-.911.356-1.442 0-.518-.117-.989-.349-1.415a2.636 2.636 0 0 0-.948-1.014 2.53 2.53 0 0 0-1.37-.375c-.39 0-.753.074-1.086.223-.329.15-.619.356-.869.619-.25.264-.448.567-.593.909-.14.338-.211.696-.211 1.073 0 .505.117.972.349 1.403.237.43.56.776.968 1.04.413.259.878.388 1.396.388Zm7.794 1.653c-.36 0-.669-.127-.928-.382a1.276 1.276 0 0 1-.389-.935c0-.36.13-.667.389-.922.259-.259.568-.388.928-.388.36 0 .669.129.928.388.259.255.389.562.389.922a1.345 1.345 0 0 1-.659 1.139 1.25 1.25 0 0 1-.658.178Zm8.133.099c-1.04-.005-1.929-.279-2.667-.823-.737-.545-1.301-1.337-1.692-2.377-.39-1.041-.586-2.294-.586-3.76 0-1.461.196-2.71.586-3.746.395-1.036.962-1.826 1.699-2.37.742-.545 1.628-.817 2.66-.817 1.031 0 1.916.275 2.653.823.738.545 1.302 1.335 1.692 2.371.395 1.031.593 2.278.593 3.739 0 1.471-.195 2.726-.586 3.766-.391 1.036-.955 1.829-1.692 2.377-.738.544-1.624.817-2.66.817Zm0-1.758c.913 0 1.626-.446 2.14-1.337.518-.891.777-2.179.777-3.865 0-1.119-.119-2.065-.356-2.837-.233-.777-.568-1.366-1.007-1.765a2.205 2.205 0 0 0-1.554-.606c-.909 0-1.622.448-2.14 1.343-.518.896-.779 2.184-.783 3.865 0 1.124.116 2.074.349 2.851.237.773.572 1.359 1.007 1.758.434.395.957.593 1.567.593Zm11.981 1.718a5.43 5.43 0 0 1-1.777-.329 4.165 4.165 0 0 1-1.581-1.054c-.474-.491-.853-1.152-1.139-1.981-.281-.83-.421-1.866-.421-3.108 0-1.176.116-2.221.349-3.134.237-.913.577-1.683 1.02-2.311.444-.632.979-1.113 1.607-1.442.628-.329 1.332-.494 2.113-.494.804 0 1.517.158 2.14.474a4.028 4.028 0 0 1 1.515 1.311c.39.557.638 1.191.744 1.902h-2.009a2.604 2.604 0 0 0-.809-1.376c-.404-.355-.931-.533-1.581-.533-.987 0-1.758.43-2.311 1.29-.548.861-.825 2.057-.829 3.589h.099c.232-.382.518-.707.855-.975.343-.272.725-.48 1.146-.625a4.04 4.04 0 0 1 1.343-.224c.782 0 1.488.191 2.12.573.637.377 1.144.9 1.521 1.567.378.667.566 1.431.566 2.291 0 .86-.195 1.639-.586 2.337a4.301 4.301 0 0 1-1.632 1.66c-.703.403-1.523.601-2.463.592Zm-.006-1.712c.518 0 .981-.127 1.389-.382.408-.254.731-.597.968-1.027.237-.43.355-.911.355-1.442 0-.518-.116-.989-.349-1.415a2.629 2.629 0 0 0-.948-1.014 2.526 2.526 0 0 0-1.369-.375c-.391 0-.753.074-1.087.223-.329.15-.619.356-.869.619-.25.264-.447.567-.592.909a2.76 2.76 0 0 0-.211 1.073 2.869 2.869 0 0 0 1.317 2.443 2.57 2.57 0 0 0 1.396.388Zm60.453-11.956v13.484h-2.041v-11.443h-.079l-3.226 2.107v-1.949l3.364-2.199h1.982Zm8.204 13.668c-.944 0-1.778-.162-2.502-.487-.72-.325-1.284-.773-1.692-1.343a3.238 3.238 0 0 1-.606-1.949 3.442 3.442 0 0 1 1.33-2.779 3.048 3.048 0 0 1 1.383-.619v-.079a2.716 2.716 0 0 1-1.613-1.079 3.163 3.163 0 0 1-.6-1.923 3.154 3.154 0 0 1 .547-1.843c.373-.545.884-.973 1.534-1.284.65-.312 1.389-.468 2.219-.468.821 0 1.554.158 2.199.474.649.312 1.161.74 1.534 1.284a3.19 3.19 0 0 1 .566 1.837 3.205 3.205 0 0 1-.619 1.923 2.74 2.74 0 0 1-1.593 1.079v.079c.505.088.959.295 1.363.619.408.321.733.722.974 1.205a3.46 3.46 0 0 1 .376 1.574 3.31 3.31 0 0 1-.619 1.949c-.409.57-.975 1.018-1.699 1.343-.72.325-1.547.487-2.482.487Zm0-1.666c.557 0 1.04-.092 1.448-.276.408-.189.725-.45.948-.784a2.14 2.14 0 0 0 .343-1.185 2.229 2.229 0 0 0-.369-1.244 2.47 2.47 0 0 0-.968-.85c-.408-.206-.875-.309-1.402-.309-.531 0-1.003.103-1.416.309a2.46 2.46 0 0 0-.974.85c-.237.36-.354.775-.349 1.244-.005.452.103.847.322 1.185.224.334.543.595.955.784.413.184.9.276 1.462.276Zm0-6.274c.448 0 .845-.09 1.192-.27.346-.18.618-.43.816-.751.202-.32.305-.695.309-1.126a2.087 2.087 0 0 0-.302-1.106 1.94 1.94 0 0 0-.81-.731 2.643 2.643 0 0 0-1.205-.263c-.465 0-.874.088-1.225.263a1.928 1.928 0 0 0-.81.731 2.041 2.041 0 0 0-.283 1.106c-.004.431.092.806.29 1.126.197.321.47.571.816.751.351.18.755.27 1.212.27Zm8.083 7.881c-.36 0-.669-.127-.928-.382a1.275 1.275 0 0 1-.388-.935c0-.36.129-.667.388-.922.259-.259.568-.388.928-.388.36 0 .67.129.929.388.259.255.388.562.388.922 0 .241-.061.463-.184.665a1.362 1.362 0 0 1-.474.474 1.253 1.253 0 0 1-.659.178Zm8.133.099c-1.04-.005-1.929-.279-2.666-.823-.738-.545-1.302-1.337-1.692-2.377-.391-1.041-.586-2.294-.586-3.76 0-1.461.195-2.71.586-3.746.395-1.036.961-1.826 1.698-2.37.742-.545 1.629-.817 2.66-.817 1.032 0 1.916.275 2.654.823.737.545 1.301 1.335 1.692 2.371.395 1.031.592 2.278.592 3.739 0 1.471-.195 2.726-.586 3.766-.39 1.036-.954 1.829-1.692 2.377-.737.544-1.624.817-2.66.817Zm0-1.758c.913 0 1.627-.446 2.14-1.337.518-.891.777-2.179.777-3.865 0-1.119-.118-2.065-.356-2.837-.232-.777-.568-1.366-1.007-1.765a2.202 2.202 0 0 0-1.554-.606c-.908 0-1.622.448-2.14 1.343-.517.896-.779 2.184-.783 3.865 0 1.124.116 2.074.349 2.851.237.773.573 1.359 1.007 1.758a2.25 2.25 0 0 0 1.567.593Zm11.982 1.718a5.435 5.435 0 0 1-1.778-.329 4.17 4.17 0 0 1-1.58-1.054c-.474-.491-.854-1.152-1.139-1.981-.281-.83-.422-1.866-.422-3.108 0-1.176.117-2.221.349-3.134.237-.913.577-1.683 1.021-2.311.443-.632.979-1.113 1.606-1.442.628-.329 1.332-.494 2.114-.494.803 0 1.516.158 2.14.474a4.018 4.018 0 0 1 1.514 1.311c.391.557.639 1.191.744 1.902h-2.008a2.6 2.6 0 0 0-.81-1.376c-.404-.355-.931-.533-1.58-.533-.988 0-1.758.43-2.311 1.29-.549.861-.825 2.057-.83 3.589h.099a3.67 3.67 0 0 1 .856-.975 4.031 4.031 0 0 1 2.489-.849 4.02 4.02 0 0 1 2.12.573c.636.377 1.143.9 1.521 1.567.377.667.566 1.431.566 2.291 0 .86-.195 1.639-.586 2.337a4.304 4.304 0 0 1-1.633 1.66c-.702.403-1.523.601-2.462.592Zm-.007-1.712c.518 0 .981-.127 1.389-.382.408-.254.731-.597.968-1.027.237-.43.356-.911.356-1.442 0-.518-.117-.989-.349-1.415a2.644 2.644 0 0 0-.948-1.014 2.53 2.53 0 0 0-1.37-.375c-.391 0-.753.074-1.086.223-.329.15-.619.356-.869.619a3.013 3.013 0 0 0-.593.909c-.14.338-.211.696-.211 1.073 0 .505.117.972.349 1.403.237.43.56.776.968 1.04.413.259.878.388 1.396.388Z" fill="#9F9F9F"/><defs><clipPath id="a"><path fill="#fff" transform="translate(305 65)" d="M0 0h307v151H0z"/></clipPath><clipPath id="b"><path fill="#fff" transform="translate(352 47)" d="M0 0h539v178H0z"/></clipPath><clipPath id="c"><path fill="#fff" transform="translate(20.09 61.46)" d="M0 0h591.756v118.969H0z"/></clipPath><clipPath id="d"><path d="M491.33 149.526c0-5.973 4.842-10.815 10.815-10.815h6.181c5.973 0 10.815 4.842 10.815 10.815v66.438H491.33v-66.438Z" fill="#fff"/></clipPath><clipPath id="e"><path d="M537.684 129.44c0-5.973 4.842-10.815 10.815-10.815h6.18c5.973 0 10.816 4.842 10.816 10.815v86.523h-27.811V129.44Z" fill="#fff"/></clipPath><clipPath id="f"><path d="M584.031 141.8c0-5.973 4.842-10.816 10.816-10.816h6.18c5.973 0 10.815 4.843 10.815 10.816v74.162h-27.811V141.8Z" fill="#fff"/></clipPath></defs></svg>