<svg width="654" height="258" fill="none" xmlns="http://www.w3.org/2000/svg"><rect width="653.6" height="258" rx="22.36" fill="#fff"/><path fill-rule="evenodd" clip-rule="evenodd" d="M78.5 55.195c0-12.87-10.434-23.304-23.305-23.304-12.87 0-23.304 10.434-23.304 23.304 0 12.871 10.433 23.305 23.304 23.305C68.066 78.5 78.5 68.066 78.5 55.195Zm-20.197 12.03v-15.15h-6.215v15.148h6.215Zm-3.108-24.058a3.107 3.107 0 1 1 0 6.214 3.107 3.107 0 0 1 0-6.214Z" fill="#29B74D"/><path d="M123.808 44.521v22.174h-4.634V48.333h-8.964v18.362h-4.634V44.521h18.232Zm11.891 22.5c-1.682 0-3.136-.358-4.363-1.073a7.334 7.334 0 0 1-2.826-3.01c-.664-1.292-.996-2.79-.996-4.493 0-1.718.332-3.22.996-4.504.664-1.292 1.606-2.295 2.826-3.01 1.227-.722 2.681-1.083 4.363-1.083 1.682 0 3.133.361 4.353 1.083 1.227.715 2.172 1.718 2.836 3.01.665 1.285.997 2.786.997 4.504 0 1.703-.332 3.201-.997 4.493a7.312 7.312 0 0 1-2.836 3.01c-1.22.715-2.671 1.072-4.353 1.072Zm.022-3.574c.765 0 1.404-.216 1.916-.65.513-.44.899-1.039 1.159-1.797.267-.758.4-1.62.4-2.587 0-.968-.133-1.83-.4-2.588-.26-.758-.646-1.357-1.159-1.797-.512-.44-1.151-.66-1.916-.66-.772 0-1.422.22-1.949.66-.52.44-.913 1.039-1.18 1.797-.26.758-.39 1.62-.39 2.588 0 .967.13 1.83.39 2.587.267.758.66 1.357 1.18 1.798.527.433 1.177.65 1.949.65Zm9.863 8.12v-8.531h1.278c.368-.231.664-.6.888-1.105.231-.505.419-1.1.563-1.786.151-.686.267-1.426.346-2.22.087-.8.163-1.61.228-2.425l.433-5.435h12.754v12.97h2.577v8.532h-4.396v-4.872h-10.166v4.873h-4.505Zm5.869-8.531h6.269v-9.42h-4.483l-.173 1.884c-.123 1.776-.3 3.284-.531 4.526-.231 1.234-.591 2.237-1.082 3.01Zm15.886 3.66V50.064h4.612v6.453h1.299l4.526-6.453h5.414l-5.879 8.25 5.944 8.38h-5.479l-4.103-5.9h-1.722v5.9h-4.612Zm16.89 0-.022-3.66h.553c.389 0 .725-.094 1.006-.282.289-.195.527-.509.715-.942.188-.433.336-1.007.444-1.721.108-.722.18-1.61.217-2.664l.27-7.362h12.646v16.63h-4.396V53.692h-4.103l-.26 5.078c-.065 1.393-.234 2.591-.509 3.594-.267 1.004-.639 1.827-1.115 2.47a4.417 4.417 0 0 1-1.721 1.407c-.672.303-1.451.454-2.339.454h-1.386Zm28.597-10.06v3.66h-9.019v-3.66h9.019Zm-5.457-6.571v16.63h-4.601v-16.63h4.601Zm10.438 16.955c-1.646 0-3.068-.368-4.266-1.104-1.199-.736-2.122-1.754-2.772-3.053-.642-1.3-.964-2.79-.964-4.472 0-1.682.322-3.165.964-4.45.65-1.285 1.573-2.288 2.772-3.01 1.198-.722 2.62-1.083 4.266-1.083 1.653 0 3.074.361 4.265 1.083 1.199.722 2.119 1.725 2.761 3.01.65 1.285.975 2.768.975 4.45 0 1.682-.325 3.172-.975 4.471-.642 1.3-1.562 2.318-2.761 3.054-1.191.736-2.612 1.104-4.265 1.104Zm0-3.724c.859 0 1.551-.21 2.078-.628.527-.426.913-1.007 1.159-1.743.245-.744.368-1.588.368-2.534 0-.946-.123-1.783-.368-2.512-.246-.736-.632-1.314-1.159-1.732-.527-.419-1.219-.628-2.078-.628-.852 0-1.545.21-2.079.628-.534.411-.928.981-1.18 1.71-.246.73-.369 1.574-.369 2.534 0 .953.123 1.797.369 2.534.252.736.646 1.317 1.18 1.743.534.418 1.227.628 2.079.628Zm25.568-13.231v16.63h-4.374v-16.63h4.374Zm-2.133 7.297V61a9.25 9.25 0 0 1-1.321.455c-.527.137-1.079.249-1.657.336-.577.086-1.118.13-1.624.13-2.389 0-4.269-.491-5.641-1.473-1.371-.989-2.057-2.566-2.057-4.731v-5.674h4.353v5.674c0 .642.108 1.15.325 1.526.223.376.577.646 1.061.812.49.16 1.144.239 1.959.239.758 0 1.502-.08 2.231-.239a19.53 19.53 0 0 0 2.371-.693Zm10.12 3.248 5.988-10.545h4.547v16.63h-4.396V56.117l-5.965 10.578h-4.58v-16.63h4.406V60.61Zm12.563-6.918v-3.627h15.071v3.627h-5.36v13.003h-4.395V53.692h-5.316Zm24.85 13.328c-1.71 0-3.183-.346-4.417-1.04a7.119 7.119 0 0 1-2.837-2.966c-.664-1.285-.996-2.804-.996-4.558 0-1.71.332-3.212.996-4.504.664-1.292 1.599-2.3 2.805-3.02 1.212-.723 2.634-1.084 4.265-1.084 1.098 0 2.119.177 3.064.53.953.347 1.783.87 2.491 1.57.714.701 1.27 1.582 1.667 2.643.397 1.053.596 2.288.596 3.703v1.266h-14.043v-2.858h9.701c0-.664-.144-1.252-.433-1.765a3.107 3.107 0 0 0-1.202-1.202c-.505-.296-1.094-.444-1.765-.444-.7 0-1.321.163-1.862.488a3.416 3.416 0 0 0-1.256 1.288 3.649 3.649 0 0 0-.466 1.786v2.718c0 .823.152 1.534.455 2.133.311.6.747 1.061 1.31 1.386.563.325 1.231.487 2.003.487.513 0 .982-.072 1.408-.216.426-.145.79-.361 1.093-.65a2.83 2.83 0 0 0 .693-1.061l4.266.281a5.813 5.813 0 0 1-1.332 2.686c-.664.757-1.523 1.35-2.576 1.775-1.047.419-2.256.628-3.628.628Zm18.158 0c-1.704 0-3.169-.36-4.396-1.083a7.318 7.318 0 0 1-2.815-3.031c-.65-1.292-.975-2.78-.975-4.46 0-1.704.329-3.198.985-4.483.665-1.292 1.607-2.3 2.826-3.021 1.22-.73 2.671-1.094 4.353-1.094 1.451 0 2.721.264 3.811.79 1.09.528 1.952 1.268 2.588 2.22.635.953.985 2.072 1.05 3.357h-4.353c-.122-.83-.447-1.498-.974-2.003-.52-.513-1.202-.77-2.046-.77-.715 0-1.339.196-1.873.586-.527.382-.939.942-1.235 1.678-.296.736-.444 1.627-.444 2.674 0 1.061.145 1.963.433 2.707.296.743.711 1.31 1.246 1.7.534.39 1.158.584 1.873.584.527 0 .999-.108 1.418-.324.426-.217.776-.53 1.05-.942.282-.419.466-.92.552-1.505h4.353c-.072 1.27-.419 2.389-1.04 3.356-.613.96-1.461 1.71-2.544 2.252-1.083.541-2.364.812-3.843.812Zm13.271-11.845h4.969c2.202 0 3.92.527 5.154 1.581 1.234 1.047 1.852 2.447 1.852 4.201 0 1.14-.278 2.144-.834 3.01-.556.859-1.357 1.53-2.404 2.014-1.046.476-2.302.714-3.768.714h-7.86v-16.63h4.407v13.003h3.453c.773 0 1.408-.195 1.906-.584.498-.39.751-.888.758-1.495a1.959 1.959 0 0 0-.758-1.57c-.498-.41-1.133-.617-1.906-.617h-4.969v-3.627Zm22.09 11.52v-16.63h4.612v6.453h1.299l4.526-6.453h5.414l-5.879 8.25 5.944 8.38h-5.479l-4.103-5.9h-1.722v5.9h-4.612Zm32.435.325c-1.703 0-3.169-.36-4.396-1.083a7.318 7.318 0 0 1-2.815-3.031c-.649-1.292-.974-2.78-.974-4.46 0-1.704.328-3.198.985-4.483.664-1.292 1.606-2.3 2.826-3.021 1.22-.73 2.671-1.094 4.352-1.094 1.451 0 2.722.264 3.812.79 1.089.528 1.952 1.268 2.587 2.22.635.953.985 2.072 1.05 3.357h-4.352c-.123-.83-.448-1.498-.974-2.003-.52-.513-1.202-.77-2.047-.77-.714 0-1.339.196-1.873.586-.527.382-.938.942-1.234 1.678-.296.736-.444 1.627-.444 2.674 0 1.061.144 1.963.433 2.707.296.743.711 1.31 1.245 1.7.534.39 1.159.584 1.873.584.527 0 1-.108 1.419-.324a2.75 2.75 0 0 0 1.05-.942c.281-.419.465-.92.552-1.505h4.352c-.072 1.27-.418 2.389-1.039 3.356-.613.96-1.462 1.71-2.544 2.252-1.083.541-2.364.812-3.844.812Zm17.959 0c-1.71 0-3.183-.346-4.417-1.04a7.119 7.119 0 0 1-2.837-2.966c-.664-1.285-.996-2.804-.996-4.558 0-1.71.332-3.212.996-4.504.664-1.292 1.599-2.3 2.805-3.02 1.212-.723 2.634-1.084 4.265-1.084a8.68 8.68 0 0 1 3.065.53c.952.347 1.782.87 2.49 1.57.714.701 1.27 1.582 1.667 2.643.397 1.053.596 2.288.596 3.703v1.266h-14.043v-2.858h9.701c0-.664-.144-1.252-.433-1.765a3.1 3.1 0 0 0-1.202-1.202c-.505-.296-1.093-.444-1.765-.444-.7 0-1.321.163-1.862.488a3.416 3.416 0 0 0-1.256 1.288 3.649 3.649 0 0 0-.466 1.786v2.718c0 .823.152 1.534.455 2.133.311.6.747 1.061 1.31 1.386.563.325 1.231.487 2.003.487.513 0 .982-.072 1.408-.216.426-.145.79-.361 1.093-.65.304-.289.534-.642.693-1.061l4.266.281a5.813 5.813 0 0 1-1.332 2.686c-.664.757-1.523 1.35-2.576 1.775-1.047.419-2.256.628-3.628.628Zm10.644 5.912V50.065h4.547v2.793h.206a6.08 6.08 0 0 1 .877-1.364c.389-.47.895-.859 1.515-1.17.628-.317 1.408-.476 2.339-.476 1.213 0 2.332.318 3.356.953 1.025.628 1.845 1.577 2.458 2.848.614 1.263.921 2.847.921 4.753 0 1.855-.3 3.421-.899 4.699-.592 1.27-1.4 2.234-2.425 2.89-1.018.65-2.159.975-3.422.975-.895 0-1.656-.148-2.284-.444-.621-.296-1.13-.668-1.527-1.115a5.65 5.65 0 0 1-.909-1.375h-.141v8.9h-4.612Zm4.514-14.552c0 .989.138 1.851.412 2.588.274.736.671 1.31 1.191 1.721.52.404 1.151.607 1.895.607.75 0 1.385-.206 1.905-.617.52-.42.913-.997 1.18-1.733.275-.743.412-1.599.412-2.566 0-.96-.134-1.804-.401-2.533-.267-.73-.66-1.3-1.18-1.711-.52-.412-1.159-.617-1.916-.617-.751 0-1.386.198-1.906.595-.512.397-.906.96-1.18 1.69-.274.728-.412 1.587-.412 2.576Zm14.779 8.315v-16.63h7.092c2.05 0 3.671.39 4.862 1.17 1.191.779 1.786 1.887 1.786 3.323 0 .902-.336 1.653-1.007 2.252-.671.6-1.602 1.003-2.793 1.213.996.072 1.844.3 2.544.682.707.375 1.245.863 1.613 1.462a3.67 3.67 0 0 1 .563 1.992c0 .945-.252 1.757-.758 2.436-.498.678-1.23 1.198-2.197 1.559-.96.36-2.133.541-3.519.541h-8.186Zm4.299-3.453h3.887c.642 0 1.144-.152 1.505-.455.368-.31.552-.733.552-1.267 0-.592-.184-1.058-.552-1.397-.361-.339-.863-.509-1.505-.509h-3.887v3.628Zm0-6.334h2.891c.462 0 .855-.065 1.18-.195.332-.137.584-.332.758-.585.18-.253.27-.552.27-.899 0-.512-.205-.913-.617-1.201-.411-.29-.974-.434-1.689-.434h-2.793v3.314Zm17.675 3.703 5.987-10.546h4.548v16.63h-4.396V56.117l-5.966 10.578h-4.58v-16.63h4.407V60.61Zm21.746 6.41c-1.703 0-3.168-.362-4.396-1.084a7.325 7.325 0 0 1-2.815-3.031c-.649-1.292-.974-2.78-.974-4.46 0-1.704.328-3.198.985-4.483.664-1.292 1.606-2.3 2.826-3.021 1.22-.73 2.671-1.094 4.353-1.094 1.45 0 2.721.264 3.811.79 1.09.528 1.952 1.268 2.587 2.22.636.953.986 2.072 1.051 3.357h-4.353c-.123-.83-.447-1.498-.974-2.003-.52-.513-1.202-.77-2.047-.77-.714 0-1.339.196-1.873.586-.527.382-.938.942-1.234 1.678-.296.736-.444 1.627-.444 2.674 0 1.061.144 1.963.433 2.707.296.743.711 1.31 1.245 1.7.534.39 1.159.584 1.873.584.527 0 1-.108 1.419-.324.426-.217.776-.53 1.05-.942.281-.419.466-.92.552-1.505h4.353c-.073 1.27-.419 2.389-1.04 3.356-.613.96-1.461 1.71-2.544 2.252-1.083.541-2.364.812-3.844.812Zm13.228 5.91a9.134 9.134 0 0 1-1.645-.14 5.975 5.975 0 0 1-1.256-.336l1.039-3.443c.541.166 1.029.257 1.462.271.44.014.819-.087 1.136-.303.325-.217.589-.585.791-1.105l.271-.703-5.966-17.107h4.85l3.443 12.213h.174l3.475-12.213h4.883l-6.464 18.428a7.728 7.728 0 0 1-1.266 2.338 5.196 5.196 0 0 1-2.003 1.548c-.809.369-1.783.553-2.924.553Z" fill="#070707"/><path d="M42.908 119.941v1.317h-9.24v-1.317h9.24Zm-8.98 0v4.319h-1.601l-.009-4.319h1.61Zm10.389 0-.017 4.31h-1.601v-4.31h1.618Zm-2.994-10.891v1.325h-5.349v-1.325h5.35Zm1.392 0v12.208h-1.61V109.05h1.61Zm-7.294 0h1.618l-.252 4.913a16.85 16.85 0 0 1-.21 2.046c-.106.62-.237 1.188-.393 1.702a9.18 9.18 0 0 1-.537 1.384 6.409 6.409 0 0 1-.646 1.048c-.229.29-.47.531-.72.721a2.478 2.478 0 0 1-.747.394h-.738v-1.317h.52a4.51 4.51 0 0 0 .495-.679c.19-.296.377-.679.562-1.148.19-.476.354-1.054.494-1.736.146-.682.243-1.487.294-2.415l.26-4.913Zm16.76 3.136v1.282h-4.385v-1.282h4.386Zm1.367 0v9.072h-1.55v-9.072h1.55Zm-6.129 0h1.56l-.235 4.376c-.04.677-.104 1.275-.193 1.795a6.108 6.108 0 0 1-.352 1.324c-.145.369-.33.671-.554.906-.218.229-.48.4-.788.512a3.264 3.264 0 0 1-1.065.159h-.486v-1.367l.336-.025c.24-.017.444-.073.612-.168a1.21 1.21 0 0 0 .436-.419c.117-.19.212-.433.285-.729.078-.297.137-.649.176-1.057.044-.408.078-.883.1-1.425l.168-3.882Zm10.464 4.745h1.677l-2.624 4.327h-1.677l2.624-4.327Zm1.3-4.745h3.79v9.072H61.42v-7.815h-2.238c-.442 0-.802.076-1.082.227a1.41 1.41 0 0 0-.612.57 1.5 1.5 0 0 0-.017 1.442c.118.224.302.408.554.553.251.146.575.218.972.218h2.843v1.275h-2.843a4.2 4.2 0 0 1-1.383-.21 3.019 3.019 0 0 1-1.023-.578 2.526 2.526 0 0 1-.637-.881 2.793 2.793 0 0 1-.218-1.106c0-.397.075-.763.226-1.099.157-.335.38-.629.67-.88a3.073 3.073 0 0 1 1.082-.579c.43-.14.92-.209 1.468-.209Zm13.935 4.737H71.45v-.956h1.542c.43 0 .772-.053 1.023-.159.252-.112.43-.266.537-.461.106-.196.16-.425.16-.688 0-.235-.062-.455-.185-.662-.118-.213-.308-.383-.57-.512-.263-.134-.615-.201-1.057-.201-.358 0-.682.064-.973.193-.29.123-.522.293-.696.511a1.135 1.135 0 0 0-.251.721h-1.551c0-.553.156-1.028.47-1.425a3.09 3.09 0 0 1 1.265-.931 4.526 4.526 0 0 1 1.736-.327c.525 0 .995.059 1.409.176.419.112.774.28 1.065.503.29.218.511.492.662.822.156.324.235.702.235 1.132 0 .308-.073.598-.218.872a2.28 2.28 0 0 1-.63.73 3.164 3.164 0 0 1-.997.486 4.502 4.502 0 0 1-1.308.176Zm-1.668-.587h1.668c.542 0 1.02.053 1.434.159.413.101.76.252 1.04.453.279.201.489.45.628.746.146.291.218.626.218 1.006a2.5 2.5 0 0 1-.26 1.149 2.39 2.39 0 0 1-.72.855 3.38 3.38 0 0 1-1.124.537 5.21 5.21 0 0 1-1.434.185 4.973 4.973 0 0 1-1.71-.302 3.202 3.202 0 0 1-1.367-.931c-.358-.425-.537-.964-.537-1.618h1.551c0 .274.087.534.26.779.174.246.414.445.721.596a2.46 2.46 0 0 0 1.082.226c.436 0 .8-.067 1.09-.201.29-.134.509-.313.654-.537.151-.223.226-.466.226-.729 0-.341-.067-.615-.2-.822-.135-.207-.342-.358-.621-.453-.274-.1-.626-.151-1.057-.151H71.45v-.947Zm12.35 3.371v-4.671a1.89 1.89 0 0 0-.218-.93 1.427 1.427 0 0 0-.637-.621c-.285-.145-.637-.218-1.057-.218a2.48 2.48 0 0 0-1.03.201 1.8 1.8 0 0 0-.688.529 1.155 1.155 0 0 0-.244.704h-1.55c0-.324.083-.646.25-.964.168-.319.409-.607.722-.864a3.6 3.6 0 0 1 1.14-.62 4.482 4.482 0 0 1 1.493-.235c.66 0 1.24.112 1.744.335.508.224.905.562 1.19 1.015.29.447.436 1.009.436 1.685v4.226c0 .302.025.623.076.964.056.341.137.635.243.881v.134h-1.618a2.902 2.902 0 0 1-.185-.713 5.748 5.748 0 0 1-.067-.838Zm.268-3.95.017 1.09h-1.568a5.84 5.84 0 0 0-1.182.109 2.72 2.72 0 0 0-.872.311 1.471 1.471 0 0 0-.537.528 1.4 1.4 0 0 0-.184.729c0 .285.064.545.193.78a1.4 1.4 0 0 0 .578.562c.263.134.584.201.965.201.475 0 .894-.1 1.257-.302.364-.201.651-.447.864-.738.218-.29.335-.572.352-.846l.662.746c-.039.235-.145.495-.318.78a3.755 3.755 0 0 1-1.719 1.467 3.327 3.327 0 0 1-1.325.252c-.615 0-1.154-.121-1.618-.361a2.767 2.767 0 0 1-1.073-.964 2.554 2.554 0 0 1-.378-1.367c0-.486.095-.914.285-1.283a2.48 2.48 0 0 1 .822-.931 3.923 3.923 0 0 1 1.291-.57 6.839 6.839 0 0 1 1.686-.193h1.802Zm16.334 4.226-.151 3.966h-1.384v-2.691h-1.182v-1.275h2.717Zm-12.569-7.797h1.551v7.797h3.32v-7.797h1.56v7.797h3.312v-7.797h1.551v9.072H87.833v-9.072Zm15.856 6.615 4.183-6.615h1.56v9.072h-1.56v-6.616l-4.183 6.616h-1.543v-9.072h1.543v6.615Zm11.931-6.615v9.072h-1.56v-9.072h1.56Zm3.044 0v1.257h-7.589v-1.257h7.589Zm2.8 3.119h2.725c.732 0 1.35.128 1.853.385.503.252.883.601 1.14 1.048.263.442.394.945.394 1.51 0 .419-.072.813-.218 1.182a2.651 2.651 0 0 1-.654.956c-.285.274-.64.489-1.064.645-.42.151-.903.227-1.451.227h-3.857v-9.072h1.551v7.797h2.306c.447 0 .805-.081 1.073-.243a1.42 1.42 0 0 0 .579-.629 1.92 1.92 0 0 0 0-1.61 1.515 1.515 0 0 0-.579-.654c-.268-.178-.626-.268-1.073-.268h-2.725v-1.274Zm9.341-3.119v9.072h-1.552v-9.072h1.552Zm8.527 1.744v10.816h-1.56v-12.56h1.426l.134 1.744Zm6.112 2.716v.176a6.84 6.84 0 0 1-.235 1.837 4.488 4.488 0 0 1-.687 1.458 3.125 3.125 0 0 1-1.099.965c-.436.229-.936.344-1.5.344-.576 0-1.085-.096-1.526-.286a3.005 3.005 0 0 1-1.124-.83 4.253 4.253 0 0 1-.738-1.308 7.544 7.544 0 0 1-.369-1.719v-.939c.067-.67.193-1.271.378-1.802.184-.531.427-.984.729-1.359.308-.38.679-.668 1.115-.863.436-.201.939-.302 1.509-.302.571 0 1.077.112 1.518.335.442.218.813.531 1.115.939.302.408.529.898.679 1.468a7.03 7.03 0 0 1 .235 1.886Zm-1.559.176v-.176c0-.453-.048-.877-.143-1.274a3.224 3.224 0 0 0-.444-1.057 2.126 2.126 0 0 0-.755-.721c-.307-.179-.673-.268-1.098-.268-.392 0-.733.067-1.023.201a2.223 2.223 0 0 0-.73.545 2.887 2.887 0 0 0-.494.772 4.4 4.4 0 0 0-.277.888v2.172c.112.391.268.76.469 1.107.202.341.47.617.805.83.336.207.758.31 1.266.31.42 0 .78-.087 1.082-.26.308-.179.559-.422.755-.729.201-.308.349-.66.444-1.057.095-.402.143-.83.143-1.283Zm7.303 4.604a4.469 4.469 0 0 1-1.719-.319 3.901 3.901 0 0 1-1.317-.914 4.07 4.07 0 0 1-.838-1.392 5.096 5.096 0 0 1-.293-1.761v-.352c0-.738.109-1.394.327-1.97a4.415 4.415 0 0 1 .888-1.476c.375-.402.8-.707 1.275-.914.475-.207.967-.31 1.475-.31.649 0 1.208.112 1.677.335.476.224.864.537 1.166.939.302.397.525.867.671 1.409.145.537.218 1.124.218 1.761v.696h-6.775v-1.266h5.223v-.118a3.87 3.87 0 0 0-.251-1.174 2.11 2.11 0 0 0-.671-.939c-.307-.246-.727-.369-1.258-.369a2.108 2.108 0 0 0-1.735.881 3.28 3.28 0 0 0-.495 1.065 5.407 5.407 0 0 0-.176 1.45v.352c0 .431.059.836.176 1.216.123.375.299.704.528.989.235.286.517.509.847.671.336.162.716.243 1.141.243.547 0 1.011-.111 1.391-.335a3.46 3.46 0 0 0 .998-.897l.939.746a4.312 4.312 0 0 1-.746.847 3.58 3.58 0 0 1-1.115.654c-.436.168-.953.252-1.551.252Zm7.026-9.24v9.072h-1.551v-9.072h1.551Zm5.953 0-4.301 5.198h-2.172l-.235-1.358h1.778l3.044-3.84h1.886Zm-1.668 9.072-3.337-4.109.997-1.123 4.31 5.232h-1.97Zm9.382-9.072v1.282h-4.385v-1.282h4.385Zm1.367 0v9.072h-1.551v-9.072h1.551Zm-6.129 0h1.559l-.235 4.376a16.047 16.047 0 0 1-.193 1.795 6.052 6.052 0 0 1-.352 1.324 2.755 2.755 0 0 1-.553.906c-.218.229-.481.4-.788.512a3.269 3.269 0 0 1-1.065.159h-.486v-1.367l.335-.025c.24-.017.444-.073.612-.168.173-.095.319-.235.436-.419.117-.19.213-.433.285-.729.078-.297.137-.649.176-1.057.045-.408.079-.883.101-1.425l.168-3.882Zm13.977 7.521v-4.671c0-.357-.073-.668-.218-.93a1.429 1.429 0 0 0-.637-.621c-.286-.145-.638-.218-1.057-.218a2.48 2.48 0 0 0-1.031.201c-.291.135-.52.311-.688.529a1.156 1.156 0 0 0-.243.704h-1.551c0-.324.084-.646.251-.964.168-.319.409-.607.722-.864a3.587 3.587 0 0 1 1.14-.62 4.482 4.482 0 0 1 1.492-.235c.66 0 1.241.112 1.744.335.509.224.906.562 1.191 1.015.291.447.436 1.009.436 1.685v4.226c0 .302.025.623.075.964.056.341.137.635.244.881v.134h-1.619a2.932 2.932 0 0 1-.184-.713 5.705 5.705 0 0 1-.067-.838Zm.268-3.95.017 1.09h-1.568a5.83 5.83 0 0 0-1.182.109 2.709 2.709 0 0 0-.872.311 1.471 1.471 0 0 0-.537.528 1.4 1.4 0 0 0-.184.729c0 .285.064.545.192.78.129.235.322.422.579.562.263.134.584.201.964.201.475 0 .895-.1 1.258-.302.363-.201.651-.447.864-.738.218-.29.335-.572.352-.846l.662.746c-.039.235-.145.495-.318.78a3.75 3.75 0 0 1-1.719 1.467 3.33 3.33 0 0 1-1.325.252c-.615 0-1.154-.121-1.618-.361a2.771 2.771 0 0 1-1.074-.964 2.558 2.558 0 0 1-.377-1.367c0-.486.095-.914.285-1.283a2.48 2.48 0 0 1 .822-.931 3.925 3.925 0 0 1 1.291-.57 6.838 6.838 0 0 1 1.685-.193h1.803Zm8.938 3.438 3.086-7.009h1.492l-4.041 9.072h-1.073l-4.025-9.072h1.492l3.069 7.009Zm-3.521-7.009v9.072h-1.552v-9.072h1.552Zm6.992 9.072v-9.072h1.56v9.072h-1.56Zm10.213-5.14v1.258h-4.796v-1.258h4.796Zm-4.469-3.932v9.072h-1.551v-9.072h1.551Zm5.727 0v9.072h-1.56v-9.072h1.56Zm3.773 3.119h2.725c.732 0 1.35.128 1.853.385.503.252.883.601 1.14 1.048.263.442.394.945.394 1.51 0 .419-.072.813-.218 1.182a2.651 2.651 0 0 1-.654.956c-.285.274-.64.489-1.065.645-.419.151-.902.227-1.45.227h-3.857v-9.072h1.551v7.797h2.306c.447 0 .805-.081 1.073-.243.268-.162.461-.372.579-.629a1.92 1.92 0 0 0 0-1.61 1.521 1.521 0 0 0-.579-.654c-.268-.178-.626-.268-1.073-.268h-2.725v-1.274Zm9.34-3.119v9.072h-1.551v-9.072h1.551Zm3.765 0 1.987 3.303 2.012-3.303h1.82l-2.968 4.477 3.06 4.595h-1.794l-2.096-3.404-2.096 3.404h-1.803l3.052-4.595-2.96-4.477h1.786Zm13.415 0v9.072h-1.551v-9.072h1.551Zm5.954 0-4.302 5.198h-2.171l-.235-1.358h1.777l3.044-3.84h1.887Zm-1.669 9.072-3.337-4.109.998-1.123 4.309 5.232h-1.97Zm8.67-1.551v-4.671c0-.357-.073-.668-.218-.93a1.429 1.429 0 0 0-.637-.621c-.286-.145-.638-.218-1.057-.218a2.48 2.48 0 0 0-1.031.201c-.291.135-.52.311-.688.529a1.156 1.156 0 0 0-.243.704h-1.551c0-.324.084-.646.251-.964a2.81 2.81 0 0 1 .722-.864 3.587 3.587 0 0 1 1.14-.62 4.482 4.482 0 0 1 1.492-.235c.66 0 1.241.112 1.744.335.509.224.906.562 1.191 1.015.291.447.436 1.009.436 1.685v4.226c0 .302.025.623.075.964.056.341.137.635.244.881v.134h-1.619a2.932 2.932 0 0 1-.184-.713 5.705 5.705 0 0 1-.067-.838Zm.268-3.95.017 1.09h-1.568a5.83 5.83 0 0 0-1.182.109 2.709 2.709 0 0 0-.872.311 1.471 1.471 0 0 0-.537.528 1.4 1.4 0 0 0-.184.729c0 .285.064.545.192.78.129.235.322.422.579.562.263.134.584.201.964.201.475 0 .895-.1 1.258-.302.363-.201.651-.447.864-.738.218-.29.335-.572.352-.846l.662.746c-.039.235-.145.495-.319.78a3.782 3.782 0 0 1-1.718 1.467 3.33 3.33 0 0 1-1.325.252c-.615 0-1.154-.121-1.618-.361a2.764 2.764 0 0 1-1.074-.964 2.558 2.558 0 0 1-.377-1.367c0-.486.095-.914.285-1.283a2.48 2.48 0 0 1 .822-.931 3.925 3.925 0 0 1 1.291-.57 6.838 6.838 0 0 1 1.685-.193h1.803Zm8.938 3.438 3.086-7.009h1.492l-4.041 9.072h-1.073l-4.025-9.072h1.492l3.069 7.009Zm-3.521-7.009v9.072h-1.552v-9.072h1.552Zm6.992 9.072v-9.072h1.56v9.072h-1.56Zm10.104-9.072v1.282h-4.586v-1.282h4.586Zm-4.36 0v9.072h-1.551v-9.072h1.551Zm5.735 0v9.072h-1.56v-9.072h1.56Zm7.84 7.521v-4.671c0-.357-.073-.668-.218-.93a1.426 1.426 0 0 0-.638-.621c-.285-.145-.637-.218-1.056-.218a2.48 2.48 0 0 0-1.031.201c-.291.135-.52.311-.688.529a1.156 1.156 0 0 0-.243.704h-1.551c0-.324.084-.646.251-.964a2.82 2.82 0 0 1 .721-.864 3.603 3.603 0 0 1 1.141-.62 4.478 4.478 0 0 1 1.492-.235c.66 0 1.241.112 1.744.335.509.224.906.562 1.191 1.015.291.447.436 1.009.436 1.685v4.226c0 .302.025.623.075.964.056.341.137.635.243.881v.134h-1.618a2.887 2.887 0 0 1-.184-.713 5.705 5.705 0 0 1-.067-.838Zm.268-3.95.017 1.09h-1.568a5.83 5.83 0 0 0-1.182.109 2.709 2.709 0 0 0-.872.311 1.471 1.471 0 0 0-.537.528 1.4 1.4 0 0 0-.184.729c0 .285.064.545.192.78.129.235.322.422.579.562.263.134.584.201.964.201.475 0 .894-.1 1.258-.302.363-.201.651-.447.863-.738.218-.29.336-.572.353-.846l.662.746c-.039.235-.145.495-.319.78a3.695 3.695 0 0 1-.696.821 3.76 3.76 0 0 1-1.022.646 3.33 3.33 0 0 1-1.325.252c-.615 0-1.155-.121-1.618-.361a2.764 2.764 0 0 1-1.074-.964 2.558 2.558 0 0 1-.377-1.367c0-.486.095-.914.285-1.283a2.48 2.48 0 0 1 .822-.931 3.916 3.916 0 0 1 1.291-.57 6.838 6.838 0 0 1 1.685-.193h1.803Zm9.877.361v1.258h-4.796v-1.258h4.796Zm-4.469-3.932v9.072h-1.551v-9.072h1.551Zm5.727 0v9.072h-1.56v-9.072h1.56Zm4.175 6.615 4.184-6.615h1.56v9.072h-1.56v-6.616l-4.184 6.616h-1.542v-9.072h1.542v6.615Zm9.911 0 4.184-6.615h1.56v9.072h-1.56v-6.616l-4.184 6.616h-1.543v-9.072h1.543v6.615Zm3.337-9.902h1.258c0 .436-.101.824-.302 1.165a2.066 2.066 0 0 1-.864.788c-.374.19-.819.286-1.333.286-.777 0-1.392-.207-1.844-.621-.448-.419-.671-.959-.671-1.618h1.258c0 .33.095.62.285.872.19.251.514.377.972.377.447 0 .766-.126.956-.377.19-.252.285-.542.285-.872Zm8.745 7.923v-.193c0-.654.095-1.26.285-1.819a4.324 4.324 0 0 1 .822-1.467c.358-.42.791-.744 1.3-.973.508-.235 1.079-.352 1.71-.352.637 0 1.21.117 1.719.352.514.229.95.553 1.308.973.363.413.64.902.83 1.467.19.559.285 1.165.285 1.819v.193c0 .654-.095 1.261-.285 1.82a4.354 4.354 0 0 1-.83 1.467 3.803 3.803 0 0 1-1.3.973c-.503.229-1.073.344-1.71.344s-1.21-.115-1.719-.344a3.882 3.882 0 0 1-1.308-.973 4.44 4.44 0 0 1-.822-1.467 5.623 5.623 0 0 1-.285-1.82Zm1.552-.193v.193c0 .453.053.881.159 1.283.106.397.265.749.478 1.057.218.307.489.55.813.729.324.173.702.26 1.132.26.425 0 .797-.087 1.115-.26.324-.179.593-.422.805-.729.213-.308.372-.66.478-1.057.112-.402.168-.83.168-1.283v-.193c0-.447-.056-.869-.168-1.266a3.251 3.251 0 0 0-.486-1.064 2.32 2.32 0 0 0-.805-.738c-.319-.179-.693-.269-1.124-.269-.425 0-.799.09-1.123.269a2.411 2.411 0 0 0-.805.738 3.345 3.345 0 0 0-.478 1.064 4.89 4.89 0 0 0-.159 1.266Zm12.166-4.443v9.072h-1.56v-9.072h1.56Zm3.043 0v1.257h-7.588v-1.257h7.588Zm9.416 7.965c.369 0 .71-.075 1.023-.226.313-.151.57-.358.772-.621.201-.268.315-.573.343-.914h1.476a2.77 2.77 0 0 1-.545 1.501c-.33.458-.763.83-1.3 1.115-.536.28-1.126.42-1.769.42-.682 0-1.277-.121-1.786-.361a3.532 3.532 0 0 1-1.257-.989c-.33-.42-.579-.9-.747-1.443a6.083 6.083 0 0 1-.243-1.735v-.352c0-.61.081-1.185.243-1.728a4.413 4.413 0 0 1 .747-1.45 3.546 3.546 0 0 1 1.257-.99c.509-.24 1.104-.36 1.786-.36.71 0 1.331.145 1.862.436.531.285.947.676 1.249 1.174.307.492.475 1.051.503 1.677h-1.476a2.24 2.24 0 0 0-.318-1.015 1.988 1.988 0 0 0-.738-.721 2.066 2.066 0 0 0-1.082-.277c-.475 0-.874.095-1.199.285a2.108 2.108 0 0 0-.763.755 3.535 3.535 0 0 0-.402 1.048c-.078.38-.118.769-.118 1.166v.352c0 .397.04.788.118 1.174.078.385.209.735.394 1.048.19.313.444.564.763.754.324.185.727.277 1.207.277Zm7.043-7.965v9.072h-1.551v-9.072h1.551Zm5.954 0-4.302 5.198h-2.171l-.235-1.358h1.777l3.044-3.84h1.887Zm-1.669 9.072-3.337-4.109.998-1.123 4.309 5.232h-1.97Zm9.382-9.072v1.282h-4.385v-1.282h4.385Zm1.367 0v9.072h-1.551v-9.072h1.551Zm-6.129 0h1.559l-.234 4.376a16.286 16.286 0 0 1-.193 1.795 6.109 6.109 0 0 1-.352 1.324c-.146.369-.33.671-.554.906-.218.229-.48.4-.788.512a3.26 3.26 0 0 1-1.065.159h-.486v-1.367l.335-.025c.241-.017.445-.073.612-.168.174-.095.319-.235.436-.419.118-.19.213-.433.286-.729.078-.297.137-.649.176-1.057.044-.408.078-.883.1-1.425l.168-3.882Zm10.305 6.615 4.184-6.615h1.559v9.072h-1.559v-6.616l-4.184 6.616h-1.543v-9.072h1.543v6.615Zm9.919-6.615v9.072h-1.551v-9.072h1.551Zm5.953 0-4.301 5.198h-2.172l-.235-1.358h1.778l3.043-3.84h1.887Zm-1.669 9.072-3.337-4.109.998-1.123 4.31 5.232h-1.971Zm4.998-2.457 4.184-6.615h1.559v9.072h-1.559v-6.616l-4.184 6.616h-1.543v-9.072h1.543v6.615Zm12.493-1.534h-2.977l-.017-1.241h2.432c.481 0 .88-.048 1.199-.143.324-.095.567-.237.729-.427.163-.19.244-.425.244-.705 0-.218-.048-.408-.143-.57a1.034 1.034 0 0 0-.411-.411 2.03 2.03 0 0 0-.687-.243 4.694 4.694 0 0 0-.948-.084h-1.987v7.815h-1.551v-9.072h3.538c.576 0 1.093.05 1.551.151.464.1.858.254 1.183.461.329.201.581.458.754.771.174.313.26.682.26 1.107 0 .274-.056.534-.168.78a1.901 1.901 0 0 1-.494.654c-.218.19-.487.346-.805.469a4.145 4.145 0 0 1-1.099.227l-.603.461Zm0 3.991h-3.539l.772-1.258h2.767c.43 0 .788-.053 1.073-.159.285-.112.497-.269.637-.47.146-.207.218-.453.218-.738s-.072-.528-.218-.729c-.14-.207-.352-.363-.637-.47-.285-.111-.643-.167-1.073-.167h-2.356l.016-1.241h2.943l.562.469c.498.039.92.162 1.266.369.347.207.61.47.788.788.179.313.269.654.269 1.023 0 .425-.081.8-.243 1.124a2.144 2.144 0 0 1-.688.813 3.354 3.354 0 0 1-1.098.487 6.122 6.122 0 0 1-1.459.159Zm10.917-1.551v-4.671c0-.357-.073-.668-.218-.93a1.431 1.431 0 0 0-.638-.621c-.285-.145-.637-.218-1.056-.218a2.48 2.48 0 0 0-1.031.201c-.291.135-.52.311-.688.529a1.156 1.156 0 0 0-.243.704h-1.551c0-.324.084-.646.251-.964a2.82 2.82 0 0 1 .721-.864 3.603 3.603 0 0 1 1.141-.62 4.478 4.478 0 0 1 1.492-.235c.66 0 1.241.112 1.744.335.509.224.906.562 1.191 1.015.29.447.436 1.009.436 1.685v4.226c0 .302.025.623.075.964.056.341.137.635.243.881v.134h-1.618a2.887 2.887 0 0 1-.184-.713 5.705 5.705 0 0 1-.067-.838Zm.268-3.95.017 1.09h-1.568a5.83 5.83 0 0 0-1.182.109 2.709 2.709 0 0 0-.872.311 1.471 1.471 0 0 0-.537.528 1.4 1.4 0 0 0-.185.729c0 .285.065.545.193.78.129.235.322.422.579.562.263.134.584.201.964.201.475 0 .894-.1 1.258-.302.363-.201.651-.447.863-.738.218-.29.336-.572.353-.846l.662.746c-.039.235-.145.495-.319.78a3.695 3.695 0 0 1-.696.821 3.75 3.75 0 0 1-1.023.646 3.322 3.322 0 0 1-1.324.252c-.615 0-1.155-.121-1.619-.361a2.768 2.768 0 0 1-1.073-.964 2.558 2.558 0 0 1-.377-1.367c0-.486.095-.914.285-1.283a2.48 2.48 0 0 1 .822-.931 3.916 3.916 0 0 1 1.291-.57 6.838 6.838 0 0 1 1.685-.193h1.803Zm9.877.361v1.258h-4.796v-1.258h4.796Zm-4.469-3.932v9.072h-1.551v-9.072h1.551Zm5.727 0v9.072h-1.56v-9.072h1.56Zm4.175 6.615 4.184-6.615h1.56v9.072h-1.56v-6.616l-4.184 6.616h-1.542v-9.072h1.542v6.615Zm10.07-1.87h1.677l-2.624 4.327h-1.677l2.624-4.327Zm1.3-4.745h3.79v9.072h-1.551v-7.815h-2.239c-.442 0-.802.076-1.082.227a1.416 1.416 0 0 0-.612.57 1.506 1.506 0 0 0-.017 1.442c.118.224.302.408.554.553.251.146.576.218.972.218h2.843v1.275h-2.843a4.2 4.2 0 0 1-1.383-.21 3.03 3.03 0 0 1-1.023-.578 2.526 2.526 0 0 1-.637-.881 2.798 2.798 0 0 1-.218-1.106c0-.397.075-.763.226-1.099.157-.335.38-.629.671-.88a3.071 3.071 0 0 1 1.082-.579c.43-.14.919-.209 1.467-.209Zm12.225 6.615 4.184-6.615h1.559v9.072h-1.559v-6.616l-4.184 6.616h-1.543v-9.072h1.543v6.615Zm22.923-1.92v.176a6.97 6.97 0 0 1-.209 1.761 4.2 4.2 0 0 1-.629 1.383 2.905 2.905 0 0 1-1.023.914c-.408.213-.88.319-1.417.319-.442 0-.83-.059-1.165-.176a2.38 2.38 0 0 1-.856-.528 2.683 2.683 0 0 1-.553-.822 4.244 4.244 0 0 1-.277-1.09v-4.025c.051-.43.143-.816.277-1.157.14-.341.324-.631.553-.872.235-.24.517-.425.847-.553a3.17 3.17 0 0 1 1.157-.193c.436 0 .828.078 1.174.235.352.151.66.369.922.654.269.285.49.629.663 1.031.179.397.313.844.402 1.342.09.497.134 1.031.134 1.601Zm-1.551.176v-.176c0-.391-.028-.763-.084-1.115a4.543 4.543 0 0 0-.243-.981 2.774 2.774 0 0 0-.419-.788 1.809 1.809 0 0 0-.629-.52 1.796 1.796 0 0 0-.83-.185c-.335 0-.615.042-.838.126a1.278 1.278 0 0 0-.512.336 1.299 1.299 0 0 0-.268.427v5.257c.067.123.165.241.293.352.129.107.302.196.52.269.218.067.492.1.822.1.391 0 .724-.078.998-.234.279-.162.506-.386.679-.671a3.01 3.01 0 0 0 .386-.99c.083-.374.125-.776.125-1.207Zm-9.223 0v-.176c0-.57.045-1.104.134-1.601a5.74 5.74 0 0 1 .403-1.342c.179-.402.399-.746.662-1.031a2.787 2.787 0 0 1 2.105-.889c.43 0 .805.064 1.123.193.324.128.598.313.822.553.224.241.402.531.537.872.134.341.229.727.285 1.157v3.866a4.654 4.654 0 0 1-.277 1.148 2.832 2.832 0 0 1-.537.881c-.223.24-.5.424-.83.553-.324.129-.704.193-1.14.193-.537 0-1.009-.106-1.417-.319a2.973 2.973 0 0 1-1.031-.914 4.414 4.414 0 0 1-.629-1.383 6.97 6.97 0 0 1-.21-1.761Zm1.56-.176v.176c0 .431.036.833.109 1.207.078.375.198.705.36.99.168.285.386.509.654.671.269.156.598.234.99.234.335 0 .612-.042.83-.125a1.414 1.414 0 0 0 .813-.747v-5.106a1.236 1.236 0 0 0-.277-.427 1.274 1.274 0 0 0-.511-.336c-.218-.084-.498-.126-.839-.126-.391 0-.723.095-.997.285-.274.191-.495.45-.663.78-.162.33-.282.713-.36 1.149-.073.43-.109.889-.109 1.375Zm2.985 7.865v-16.367h1.559v16.367h-1.559Zm9.81-10.816v10.816h-1.56v-12.56h1.426l.134 1.744Zm6.112 2.716v.176a6.84 6.84 0 0 1-.235 1.837 4.488 4.488 0 0 1-.687 1.458 3.125 3.125 0 0 1-1.099.965c-.436.229-.936.344-1.5.344-.576 0-1.085-.096-1.526-.286a2.997 2.997 0 0 1-1.124-.83 4.253 4.253 0 0 1-.738-1.308 7.544 7.544 0 0 1-.369-1.719v-.939c.067-.67.193-1.271.378-1.802.184-.531.427-.984.729-1.359.307-.38.679-.668 1.115-.863.436-.201.939-.302 1.509-.302.571 0 1.076.112 1.518.335.442.218.813.531 1.115.939.302.408.528.898.679 1.468a7.03 7.03 0 0 1 .235 1.886Zm-1.559.176v-.176c0-.453-.048-.877-.143-1.274a3.224 3.224 0 0 0-.444-1.057 2.126 2.126 0 0 0-.755-.721c-.307-.179-.674-.268-1.098-.268-.392 0-.733.067-1.023.201a2.223 2.223 0 0 0-.73.545 2.887 2.887 0 0 0-.494.772 4.4 4.4 0 0 0-.277.888v2.172c.112.391.268.76.469 1.107.202.341.47.617.805.83.336.207.758.31 1.266.31.42 0 .78-.087 1.082-.26.308-.179.559-.422.755-.729.201-.308.349-.66.444-1.057.095-.402.143-.83.143-1.283Zm3.127 0v-.193c0-.654.095-1.26.285-1.819.19-.565.464-1.054.822-1.467.358-.42.791-.744 1.299-.973a4.033 4.033 0 0 1 1.711-.352c.637 0 1.21.117 1.719.352.514.229.95.553 1.308.973.363.413.64.902.83 1.467.19.559.285 1.165.285 1.819v.193c0 .654-.095 1.261-.285 1.82a4.354 4.354 0 0 1-.83 1.467 3.803 3.803 0 0 1-1.3.973c-.503.229-1.073.344-1.71.344-.638 0-1.21-.115-1.719-.344a3.882 3.882 0 0 1-1.308-.973 4.423 4.423 0 0 1-.822-1.467 5.623 5.623 0 0 1-.285-1.82Zm1.551-.193v.193c0 .453.053.881.16 1.283.106.397.265.749.477 1.057.218.307.49.55.814.729.324.173.701.26 1.132.26.425 0 .796-.087 1.115-.26.324-.179.592-.422.805-.729a3.39 3.39 0 0 0 .478-1.057c.112-.402.167-.83.167-1.283v-.193c0-.447-.055-.869-.167-1.266a3.253 3.253 0 0 0-.487-1.064 2.308 2.308 0 0 0-.804-.738c-.319-.179-.694-.269-1.124-.269-.425 0-.799.09-1.124.269a2.42 2.42 0 0 0-.805.738 3.365 3.365 0 0 0-.477 1.064c-.107.397-.16.819-.16 1.266Zm9.685-4.443h1.551l-.134 3.395c-.034.861-.132 1.605-.294 2.231-.162.626-.369 1.16-.62 1.601a4.837 4.837 0 0 1-.847 1.099 5.556 5.556 0 0 1-.956.746h-.771l.041-1.266.319-.009c.185-.218.363-.441.537-.67.173-.235.332-.512.478-.831a5.73 5.73 0 0 0 .36-1.182c.101-.469.165-1.042.193-1.719l.143-3.395Zm.385 0h5.459v9.072h-1.552v-7.639h-3.907v-1.433Zm-2.809 7.797h9.433v3.95h-1.551v-2.675h-6.33v2.675h-1.56l.008-3.95Zm16.501-.276v-4.671c0-.357-.072-.668-.218-.93a1.424 1.424 0 0 0-.637-.621c-.285-.145-.637-.218-1.056-.218-.392 0-.735.067-1.032.201-.29.135-.519.311-.687.529a1.156 1.156 0 0 0-.243.704h-1.551c0-.324.083-.646.251-.964a2.82 2.82 0 0 1 .721-.864 3.609 3.609 0 0 1 1.14-.62 4.488 4.488 0 0 1 1.493-.235c.66 0 1.241.112 1.744.335.509.224.905.562 1.191 1.015.29.447.436 1.009.436 1.685v4.226c0 .302.025.623.075.964.056.341.137.635.243.881v.134h-1.618a2.927 2.927 0 0 1-.185-.713 5.846 5.846 0 0 1-.067-.838Zm.269-3.95.016 1.09h-1.567c-.442 0-.836.037-1.183.109a2.727 2.727 0 0 0-.872.311 1.476 1.476 0 0 0-.536.528 1.4 1.4 0 0 0-.185.729c0 .285.064.545.193.78s.321.422.579.562c.262.134.584.201.964.201.475 0 .894-.1 1.258-.302.363-.201.651-.447.863-.738.218-.29.336-.572.352-.846l.663.746c-.039.235-.146.495-.319.78a3.695 3.695 0 0 1-.696.821 3.75 3.75 0 0 1-1.023.646 3.327 3.327 0 0 1-1.325.252c-.614 0-1.154-.121-1.618-.361a2.768 2.768 0 0 1-1.073-.964 2.55 2.55 0 0 1-.377-1.367c0-.486.095-.914.285-1.283.19-.374.464-.685.821-.931a3.931 3.931 0 0 1 1.292-.57 6.838 6.838 0 0 1 1.685-.193h1.803Zm12.241 1.51h-2.976l-.017-1.241h2.432c.48 0 .88-.048 1.199-.143.324-.095.567-.237.729-.427.162-.19.243-.425.243-.705 0-.218-.047-.408-.142-.57a1.047 1.047 0 0 0-.411-.411 2.044 2.044 0 0 0-.688-.243 4.683 4.683 0 0 0-.947-.084h-1.987v7.815h-1.552v-9.072h3.539c.576 0 1.093.05 1.551.151.464.1.858.254 1.182.461.33.201.582.458.755.771.173.313.26.682.26 1.107a1.86 1.86 0 0 1-.663 1.434c-.218.19-.486.346-.805.469a4.129 4.129 0 0 1-1.098.227l-.604.461Zm0 3.991h-3.538l.771-1.258h2.767c.431 0 .788-.053 1.074-.159.285-.112.497-.269.637-.47.145-.207.218-.453.218-.738s-.073-.528-.218-.729c-.14-.207-.352-.363-.637-.47-.286-.111-.643-.167-1.074-.167h-2.356l.017-1.241h2.943l.562.469c.497.039.919.162 1.266.369.346.207.609.47.788.788.179.313.268.654.268 1.023 0 .425-.081.8-.243 1.124a2.132 2.132 0 0 1-.687.813 3.35 3.35 0 0 1-1.099.487 6.11 6.11 0 0 1-1.459.159Zm10.917-1.551v-4.671c0-.357-.073-.668-.218-.93a1.429 1.429 0 0 0-.637-.621c-.285-.145-.637-.218-1.057-.218a2.48 2.48 0 0 0-1.031.201c-.291.135-.52.311-.687.529a1.151 1.151 0 0 0-.244.704h-1.551c0-.324.084-.646.252-.964a2.82 2.82 0 0 1 .721-.864 3.609 3.609 0 0 1 1.14-.62 4.484 4.484 0 0 1 1.493-.235c.659 0 1.241.112 1.744.335.508.224.905.562 1.19 1.015.291.447.436 1.009.436 1.685v4.226c0 .302.025.623.076.964.056.341.137.635.243.881v.134h-1.618a2.882 2.882 0 0 1-.185-.713 5.846 5.846 0 0 1-.067-.838Zm.268-3.95.017 1.09h-1.568c-.441 0-.835.037-1.182.109a2.718 2.718 0 0 0-.872.311 1.471 1.471 0 0 0-.537.528 1.4 1.4 0 0 0-.184.729c0 .285.064.545.193.78a1.4 1.4 0 0 0 .578.562c.263.134.584.201.965.201.475 0 .894-.1 1.257-.302.364-.201.652-.447.864-.738.218-.29.335-.572.352-.846l.662.746c-.039.235-.145.495-.318.78a3.695 3.695 0 0 1-.696.821 3.75 3.75 0 0 1-1.023.646 3.327 3.327 0 0 1-1.325.252c-.615 0-1.154-.121-1.618-.361a2.768 2.768 0 0 1-1.073-.964 2.55 2.55 0 0 1-.378-1.367c0-.486.095-.914.286-1.283.19-.374.463-.685.821-.931a3.925 3.925 0 0 1 1.291-.57 6.846 6.846 0 0 1 1.686-.193h1.802Zm8.939 3.438 3.085-7.009h1.493l-4.042 9.072h-1.073l-4.025-9.072h1.493l3.069 7.009Zm-3.522-7.009v9.072h-1.551v-9.072h1.551Zm6.993 9.072v-9.072h1.559v9.072h-1.559Zm-508.648 16.86v1.258h-4.796v-1.258h4.796Zm-4.469-3.932v9.072h-1.551v-9.072h1.551Zm5.727 0v9.072h-1.56v-9.072h1.56Zm6.263 9.24a4.47 4.47 0 0 1-1.719-.319 3.9 3.9 0 0 1-1.316-.914 4.061 4.061 0 0 1-.839-1.392 5.105 5.105 0 0 1-.293-1.761v-.352c0-.738.11-1.394.327-1.97a4.407 4.407 0 0 1 .889-1.476 3.82 3.82 0 0 1 1.274-.914 3.66 3.66 0 0 1 1.476-.31c.648 0 1.207.112 1.677.335.475.224.864.537 1.165.939.302.397.526.867.671 1.409.145.537.218 1.124.218 1.761v.696h-6.775v-1.266h5.224v-.118a3.871 3.871 0 0 0-.252-1.174 2.11 2.11 0 0 0-.67-.939c-.308-.246-.727-.369-1.258-.369a2.111 2.111 0 0 0-1.736.881 3.28 3.28 0 0 0-.494 1.065 5.39 5.39 0 0 0-.176 1.45v.352c0 .431.058.836.176 1.216.123.375.299.704.528.989.235.286.517.509.847.671a2.59 2.59 0 0 0 1.14.243c.548 0 1.012-.111 1.392-.335a3.46 3.46 0 0 0 .998-.897l.939.746a4.34 4.34 0 0 1-.746.847 3.574 3.574 0 0 1-1.116.654c-.436.168-.953.252-1.55.252Zm4.93-4.604v-.193c0-.654.096-1.26.286-1.819.19-.565.464-1.054.821-1.467.358-.42.791-.744 1.3-.973.508-.235 1.079-.352 1.71-.352.638 0 1.21.117 1.72.352.513.229.95.553 1.307.973.363.413.64.902.83 1.467.19.559.285 1.165.285 1.819v.193c0 .654-.095 1.261-.285 1.82a4.351 4.351 0 0 1-.83 1.467 3.804 3.804 0 0 1-1.3.973c-.502.229-1.073.344-1.71.344s-1.21-.115-1.719-.344a3.89 3.89 0 0 1-1.308-.973 4.43 4.43 0 0 1-.821-1.467 5.623 5.623 0 0 1-.286-1.82Zm1.552-.193v.193c0 .453.053.881.159 1.283.106.397.265.749.478 1.057.218.307.489.55.813.729.324.173.702.26 1.132.26.425 0 .797-.087 1.115-.26.325-.179.593-.422.805-.729.213-.308.372-.66.478-1.057a4.77 4.77 0 0 0 .168-1.283v-.193a4.65 4.65 0 0 0-.168-1.266 3.256 3.256 0 0 0-.486-1.064 2.313 2.313 0 0 0-.805-.738c-.319-.179-.693-.269-1.124-.269-.425 0-.799.09-1.123.269a2.415 2.415 0 0 0-.805.738 3.362 3.362 0 0 0-.478 1.064 4.89 4.89 0 0 0-.16 1.266Zm14.471-8.393h1.275c0 .548-.084.984-.251 1.308a1.825 1.825 0 0 1-.688.738 3.41 3.41 0 0 1-.973.394c-.357.09-.73.176-1.115.26-.48.101-.928.26-1.341.478-.409.213-.76.514-1.057.906-.29.391-.506.9-.645 1.526-.135.626-.171 1.4-.11 2.322v.772h-1.274v-.772c0-1.034.098-1.937.294-2.708.2-.771.483-1.423.846-1.954a4.411 4.411 0 0 1 1.292-1.266 4.866 4.866 0 0 1 1.66-.645c.436-.084.81-.174 1.123-.269.313-.1.55-.234.713-.402.168-.168.251-.397.251-.688Zm-1.836 4.469c.593 0 1.121.104 1.585.311.464.207.858.494 1.182.863.325.369.57.805.738 1.308.173.498.26 1.04.26 1.627v.184c0 .632-.092 1.219-.277 1.761a4.068 4.068 0 0 1-.796 1.409 3.622 3.622 0 0 1-1.275.931c-.497.223-1.064.335-1.702.335-.637 0-1.207-.112-1.71-.335a3.725 3.725 0 0 1-1.275-.931 4.176 4.176 0 0 1-.805-1.409 5.587 5.587 0 0 1-.268-1.761v-.184c0-.14.025-.277.075-.411a3.66 3.66 0 0 1 .185-.411c.078-.14.148-.288.21-.444.206-.503.489-.97.846-1.4a4.269 4.269 0 0 1 1.3-1.04c.509-.268 1.084-.403 1.727-.403Zm-.301 1.267c-.57 0-1.04.131-1.41.394a2.371 2.371 0 0 0-.812 1.048 3.61 3.61 0 0 0-.269 1.4v.184c0 .425.05.828.151 1.208.1.38.252.718.453 1.014.207.291.467.52.78.688.318.168.693.251 1.123.251.43 0 .802-.083 1.115-.251.313-.168.57-.397.772-.688.201-.296.352-.634.453-1.014a4.7 4.7 0 0 0 .15-1.208v-.184c0-.38-.05-.741-.15-1.082a2.66 2.66 0 0 0-.462-.905 2.09 2.09 0 0 0-.78-.621c-.312-.156-.684-.234-1.114-.234Zm6.74-1.786 1.988 3.303 2.012-3.303h1.82l-2.968 4.477 3.06 4.595h-1.794l-2.097-3.404-2.096 3.404h-1.802l3.052-4.595-2.96-4.477h1.786Zm6.893 4.636v-.193c0-.654.095-1.26.285-1.819.19-.565.464-1.054.822-1.467.358-.42.79-.744 1.3-.973.508-.235 1.078-.352 1.71-.352.637 0 1.21.117 1.719.352.514.229.95.553 1.308.973.363.413.64.902.83 1.467.19.559.285 1.165.285 1.819v.193c0 .654-.095 1.261-.285 1.82a4.351 4.351 0 0 1-.83 1.467 3.803 3.803 0 0 1-1.3.973c-.503.229-1.073.344-1.71.344-.638 0-1.21-.115-1.72-.344a3.888 3.888 0 0 1-1.307-.973 4.43 4.43 0 0 1-.822-1.467 5.623 5.623 0 0 1-.285-1.82Zm1.551-.193v.193c0 .453.053.881.16 1.283.106.397.265.749.477 1.057.218.307.49.55.814.729.324.173.701.26 1.132.26.424 0 .796-.087 1.115-.26.324-.179.592-.422.805-.729.212-.308.371-.66.478-1.057a4.77 4.77 0 0 0 .167-1.283v-.193a4.65 4.65 0 0 0-.167-1.266 3.256 3.256 0 0 0-.487-1.064 2.312 2.312 0 0 0-.805-.738c-.318-.179-.693-.269-1.123-.269-.425 0-.8.09-1.124.269a2.414 2.414 0 0 0-.805.738 3.362 3.362 0 0 0-.478 1.064 4.89 4.89 0 0 0-.159 1.266Zm9.684-4.443h1.552l-.135 3.395c-.033.861-.131 1.605-.293 2.231-.162.626-.369 1.16-.62 1.601a4.825 4.825 0 0 1-.847 1.099 5.54 5.54 0 0 1-.956.746h-.772l.042-1.266.319-.009c.184-.218.363-.441.537-.67a4.64 4.64 0 0 0 .478-.831 5.71 5.71 0 0 0 .36-1.182c.1-.469.165-1.042.193-1.719l.142-3.395Zm.386 0h5.459v9.072h-1.552v-7.639h-3.907v-1.433Zm-2.809 7.797h9.433v3.95h-1.551v-2.675h-6.33v2.675H88l.008-3.95Zm12.829-1.182 4.184-6.615h1.559v9.072h-1.559v-6.616l-4.184 6.616h-1.543v-9.072h1.543v6.615Zm13.449.394 3.085-7.009h1.493l-4.042 9.072h-1.073l-4.024-9.072h1.492l3.069 7.009Zm-3.522-7.009v9.072h-1.551v-9.072h1.551Zm6.993 9.072v-9.072h1.56v9.072h-1.56Zm3.647-4.436v-.193c0-.654.095-1.26.285-1.819.19-.565.464-1.054.822-1.467.358-.42.791-.744 1.3-.973.508-.235 1.079-.352 1.71-.352.637 0 1.21.117 1.719.352.514.229.95.553 1.308.973.363.413.64.902.83 1.467.19.559.285 1.165.285 1.819v.193c0 .654-.095 1.261-.285 1.82a4.354 4.354 0 0 1-.83 1.467 3.803 3.803 0 0 1-1.3.973c-.503.229-1.073.344-1.71.344s-1.21-.115-1.719-.344a3.882 3.882 0 0 1-1.308-.973 4.423 4.423 0 0 1-.822-1.467 5.623 5.623 0 0 1-.285-1.82Zm1.552-.193v.193c0 .453.053.881.159 1.283.106.397.265.749.478 1.057.218.307.489.55.813.729.324.173.702.26 1.132.26.425 0 .797-.087 1.115-.26.324-.179.593-.422.805-.729a3.39 3.39 0 0 0 .478-1.057c.112-.402.168-.83.168-1.283v-.193c0-.447-.056-.869-.168-1.266a3.251 3.251 0 0 0-.486-1.064 2.32 2.32 0 0 0-.805-.738c-.319-.179-.693-.269-1.124-.269-.425 0-.799.09-1.123.269a2.411 2.411 0 0 0-.805.738 3.345 3.345 0 0 0-.478 1.064 4.89 4.89 0 0 0-.159 1.266Zm18.957-4.443v1.282h-4.586v-1.282h4.586Zm-4.36 0v9.072h-1.551v-9.072h1.551Zm5.735 0v9.072h-1.559v-9.072h1.559Zm2.08 4.636v-.193c0-.654.095-1.26.285-1.819.19-.565.464-1.054.822-1.467.357-.42.79-.744 1.299-.973a4.033 4.033 0 0 1 1.711-.352c.637 0 1.21.117 1.718.352.515.229.951.553 1.308.973.364.413.641.902.831 1.467.19.559.285 1.165.285 1.819v.193c0 .654-.095 1.261-.285 1.82a4.34 4.34 0 0 1-.831 1.467 3.79 3.79 0 0 1-1.299.973c-.503.229-1.073.344-1.711.344-.637 0-1.21-.115-1.718-.344a3.882 3.882 0 0 1-1.308-.973 4.423 4.423 0 0 1-.822-1.467 5.623 5.623 0 0 1-.285-1.82Zm1.551-.193v.193c0 .453.053.881.159 1.283.106.397.266.749.478 1.057.218.307.489.55.813.729.325.173.702.26 1.132.26.425 0 .797-.087 1.116-.26a2.34 2.34 0 0 0 .804-.729c.213-.308.372-.66.478-1.057.112-.402.168-.83.168-1.283v-.193c0-.447-.056-.869-.168-1.266a3.251 3.251 0 0 0-.486-1.064 2.311 2.311 0 0 0-.805-.738c-.318-.179-.693-.269-1.123-.269-.425 0-.8.09-1.124.269a2.411 2.411 0 0 0-.805.738 3.367 3.367 0 0 0-.478 1.064 4.89 4.89 0 0 0-.159 1.266Zm9.684-4.443h1.551l-.134 3.395c-.033.861-.131 1.605-.293 2.231-.162.626-.369 1.16-.621 1.601a4.808 4.808 0 0 1-.847 1.099 5.55 5.55 0 0 1-.955.746h-.772l.042-1.266.319-.009c.184-.218.363-.441.536-.67.174-.235.333-.512.478-.831.146-.324.266-.718.361-1.182.1-.469.165-1.042.193-1.719l.142-3.395Zm.386 0h5.458v9.072h-1.551v-7.639h-3.907v-1.433Zm-2.809 7.797h9.433v3.95h-1.551v-2.675h-6.331v2.675h-1.559l.008-3.95Zm12.837-7.797v9.072h-1.551v-9.072h1.551Zm5.953 0-4.301 5.198h-2.172l-.235-1.358h1.778l3.044-3.84h1.886Zm-1.668 9.072-3.338-4.109.998-1.123 4.31 5.232h-1.97Zm9.382-9.072v1.282H176.3v-1.282h4.385Zm1.367 0v9.072h-1.551v-9.072h1.551Zm-6.13 0h1.56l-.235 4.376a16.047 16.047 0 0 1-.193 1.795 6.052 6.052 0 0 1-.352 1.324c-.145.369-.33.671-.553.906-.218.229-.481.4-.788.512a3.269 3.269 0 0 1-1.065.159h-.486v-1.367l.335-.025c.24-.017.444-.073.612-.168.173-.095.319-.235.436-.419.117-.19.212-.433.285-.729.078-.297.137-.649.176-1.057.045-.408.078-.883.101-1.425l.167-3.882Zm13.793 3.848v1.266h-4.821v-1.266h4.821Zm-3.471-3.848v9.072h-1.551v-9.072h1.551Zm2.146 4.636v-.193c0-.654.096-1.26.286-1.819.19-.565.464-1.054.821-1.467.364-.42.797-.744 1.3-.973a4.032 4.032 0 0 1 1.71-.352c.643 0 1.219.117 1.728.352.508.229.941.553 1.299.973.364.413.64.902.83 1.467.19.559.285 1.165.285 1.819v.193c0 .654-.095 1.261-.285 1.82a4.439 4.439 0 0 1-.821 1.467 3.803 3.803 0 0 1-1.3.973c-.509.229-1.082.344-1.719.344s-1.21-.115-1.719-.344a3.902 3.902 0 0 1-1.308-.973 4.439 4.439 0 0 1-.821-1.467 5.623 5.623 0 0 1-.286-1.82Zm1.56-.193v.193c0 .453.053.881.159 1.283.107.397.266.749.478 1.057.218.307.487.55.805.729.324.173.702.26 1.132.26.431 0 .805-.087 1.124-.26.324-.179.592-.422.805-.729.212-.308.371-.66.478-1.057.111-.402.167-.83.167-1.283v-.193c0-.447-.056-.869-.167-1.266a3.274 3.274 0 0 0-.487-1.064 2.311 2.311 0 0 0-.805-.738 2.303 2.303 0 0 0-1.132-.269c-.424 0-.796.09-1.115.269a2.42 2.42 0 0 0-.805.738 3.39 3.39 0 0 0-.478 1.064 4.89 4.89 0 0 0-.159 1.266Zm15.461-4.443v9.072h-1.551v-9.072h1.551Zm-.528 4.167v1.274c-.313.118-.632.224-.956.319a8.865 8.865 0 0 1-1.014.218c-.352.05-.735.075-1.149.075-.715 0-1.336-.123-1.861-.369a2.699 2.699 0 0 1-1.216-1.132c-.285-.508-.428-1.148-.428-1.92v-2.649h1.551v2.649c0 .503.076.912.227 1.225.151.313.371.545.662.695.291.146.646.218 1.065.218.402 0 .78-.025 1.132-.075a9.27 9.27 0 0 0 1.023-.218c.33-.089.651-.193.964-.31Zm4.704 2.448 4.184-6.615h1.559v9.072h-1.559v-6.616l-4.184 6.616h-1.543v-9.072h1.543v6.615Zm11.931-6.615v9.072h-1.559v-9.072h1.559Zm3.044 0v1.257h-7.588v-1.257h7.588Zm2.8 3.119h2.725c.733 0 1.35.128 1.853.385.504.252.884.601 1.141 1.048.262.442.394.945.394 1.51 0 .419-.073.813-.218 1.182a2.651 2.651 0 0 1-.654.956c-.285.274-.64.489-1.065.645-.419.151-.903.227-1.451.227h-3.857v-9.072h1.552v7.797h2.305c.448 0 .805-.081 1.074-.243.268-.162.461-.372.578-.629.118-.257.176-.525.176-.805a1.95 1.95 0 0 0-.176-.805 1.512 1.512 0 0 0-.578-.654c-.269-.178-.626-.268-1.074-.268h-2.725v-1.274Zm15.94 4.846c.369 0 .71-.075 1.023-.226.313-.151.57-.358.771-.621a1.73 1.73 0 0 0 .344-.914h1.475a2.754 2.754 0 0 1-.545 1.501 3.72 3.72 0 0 1-1.299 1.115c-.537.28-1.126.42-1.769.42-.682 0-1.278-.121-1.786-.361a3.536 3.536 0 0 1-1.258-.989c-.33-.42-.579-.9-.746-1.443a6.083 6.083 0 0 1-.243-1.735v-.352c0-.61.081-1.185.243-1.728a4.392 4.392 0 0 1 .746-1.45 3.55 3.55 0 0 1 1.258-.99c.508-.24 1.104-.36 1.786-.36.71 0 1.33.145 1.861.436a3.19 3.19 0 0 1 1.249 1.174c.308.492.476 1.051.503 1.677h-1.475a2.23 2.23 0 0 0-.319-1.015 1.988 1.988 0 0 0-.738-.721 2.065 2.065 0 0 0-1.081-.277c-.475 0-.875.095-1.199.285a2.1 2.1 0 0 0-.763.755 3.51 3.51 0 0 0-.403 1.048c-.078.38-.117.769-.117 1.166v.352c0 .397.039.788.117 1.174.078.385.21.735.394 1.048.19.313.445.564.763.754.324.185.727.277 1.208.277Zm9.122 1.275a4.476 4.476 0 0 1-1.719-.319 3.907 3.907 0 0 1-1.316-.914 4.071 4.071 0 0 1-.839-1.392 5.12 5.12 0 0 1-.293-1.761v-.352c0-.738.109-1.394.327-1.97a4.4 4.4 0 0 1 .889-1.476 3.81 3.81 0 0 1 1.274-.914c.475-.207.967-.31 1.476-.31.648 0 1.207.112 1.677.335.475.224.864.537 1.165.939.302.397.526.867.671 1.409.145.537.218 1.124.218 1.761v.696h-6.775v-1.266h5.224v-.118a3.842 3.842 0 0 0-.252-1.174 2.107 2.107 0 0 0-.67-.939c-.308-.246-.727-.369-1.258-.369a2.115 2.115 0 0 0-1.736.881 3.28 3.28 0 0 0-.494 1.065 5.367 5.367 0 0 0-.176 1.45v.352c0 .431.058.836.176 1.216.123.375.299.704.528.989.235.286.517.509.847.671.335.162.715.243 1.14.243.548 0 1.012-.111 1.392-.335a3.46 3.46 0 0 0 .998-.897l.939.746a4.378 4.378 0 0 1-.746.847 3.575 3.575 0 0 1-1.116.654c-.436.168-.953.252-1.551.252Zm6.892-7.496v10.816h-1.559v-12.56h1.425l.134 1.744Zm6.113 2.716v.176a6.84 6.84 0 0 1-.235 1.837 4.509 4.509 0 0 1-.687 1.458 3.133 3.133 0 0 1-1.099.965c-.436.229-.936.344-1.501.344-.575 0-1.084-.096-1.526-.286a3.001 3.001 0 0 1-1.123-.83 4.212 4.212 0 0 1-.738-1.308 7.544 7.544 0 0 1-.369-1.719v-.939c.067-.67.193-1.271.377-1.802a4.51 4.51 0 0 1 .73-1.359c.307-.38.679-.668 1.115-.863.436-.201.939-.302 1.509-.302s1.076.112 1.518.335a3.06 3.06 0 0 1 1.115.939c.302.408.528.898.679 1.468a7.03 7.03 0 0 1 .235 1.886Zm-1.56.176v-.176c0-.453-.047-.877-.142-1.274a3.204 3.204 0 0 0-.445-1.057 2.123 2.123 0 0 0-.754-.721c-.308-.179-.674-.268-1.099-.268-.391 0-.732.067-1.023.201a2.209 2.209 0 0 0-.729.545 2.914 2.914 0 0 0-.495.772 4.397 4.397 0 0 0-.276.888v2.172c.111.391.268.76.469 1.107.201.341.47.617.805.83.335.207.757.31 1.266.31.419 0 .78-.087 1.082-.26a2.19 2.19 0 0 0 .754-.729c.202-.308.35-.66.445-1.057.095-.402.142-.83.142-1.283Zm7.798.445h-2.977l-.016-1.241h2.431c.481 0 .881-.048 1.199-.143.324-.095.568-.237.73-.427.162-.19.243-.425.243-.705 0-.218-.048-.408-.143-.57a1.034 1.034 0 0 0-.411-.411 2.03 2.03 0 0 0-.687-.243 4.687 4.687 0 0 0-.948-.084h-1.987v7.815h-1.551v-9.072h3.538c.576 0 1.093.05 1.552.151.464.1.858.254 1.182.461.33.201.581.458.754.771.174.313.26.682.26 1.107a1.86 1.86 0 0 1-.662 1.434c-.218.19-.486.346-.805.469a4.146 4.146 0 0 1-1.098.227l-.604.461Zm0 3.991h-3.538L268.9 142h2.767c.43 0 .788-.053 1.073-.159.285-.112.498-.269.637-.47.146-.207.218-.453.218-.738s-.072-.528-.218-.729c-.139-.207-.352-.363-.637-.47-.285-.111-.643-.167-1.073-.167h-2.356l.017-1.241h2.943l.561.469c.498.039.92.162 1.267.369.346.207.609.47.788.788.179.313.268.654.268 1.023 0 .425-.081.8-.243 1.124a2.144 2.144 0 0 1-.688.813 3.354 3.354 0 0 1-1.098.487c-.43.106-.917.159-1.459.159Zm7.244-2.457 4.184-6.615h1.56v9.072h-1.56v-6.616l-4.184 6.616h-1.542v-9.072h1.542v6.615Zm11.865 1.35c.369 0 .71-.075 1.023-.226.313-.151.57-.358.771-.621a1.73 1.73 0 0 0 .344-.914h1.475a2.754 2.754 0 0 1-.545 1.501 3.72 3.72 0 0 1-1.299 1.115c-.537.28-1.126.42-1.769.42-.682 0-1.278-.121-1.786-.361a3.536 3.536 0 0 1-1.258-.989c-.33-.42-.579-.9-.746-1.443a6.083 6.083 0 0 1-.243-1.735v-.352c0-.61.081-1.185.243-1.728a4.392 4.392 0 0 1 .746-1.45 3.55 3.55 0 0 1 1.258-.99c.508-.24 1.104-.36 1.786-.36.71 0 1.33.145 1.861.436a3.19 3.19 0 0 1 1.249 1.174c.308.492.476 1.051.503 1.677h-1.475a2.23 2.23 0 0 0-.319-1.015 1.988 1.988 0 0 0-.738-.721 2.065 2.065 0 0 0-1.081-.277c-.475 0-.875.095-1.199.285a2.1 2.1 0 0 0-.763.755 3.51 3.51 0 0 0-.403 1.048c-.078.38-.117.769-.117 1.166v.352c0 .397.039.788.117 1.174.078.385.21.735.394 1.048.19.313.445.564.763.754.324.185.727.277 1.208.277Zm9.315-7.89v-1.014c0-.341.056-.696.168-1.065.117-.375.285-.733.503-1.074a3.71 3.71 0 0 1 .788-.897l.88.612a4.845 4.845 0 0 0-.595 1.141c-.14.385-.21.805-.21 1.257v1.04h-1.534Zm2.641 0v-1.014c0-.341.056-.696.168-1.065.117-.375.285-.733.503-1.074a3.71 3.71 0 0 1 .788-.897l.881.612a4.813 4.813 0 0 0-.596 1.141c-.14.385-.209.805-.209 1.257v1.04h-1.535Zm7.479-2.13-4.041 11.127h-1.652l4.654-12.208h1.064l-.025 1.081Zm3.388 11.127-4.05-11.127-.025-1.081h1.065l4.67 12.208h-1.66Zm-.21-4.52v1.325h-6.859v-1.325h6.859Zm9.424-.62v1.258h-4.796v-1.258h4.796Zm-4.469-3.932v9.072h-1.551v-9.072h1.551Zm5.727 0v9.072h-1.559v-9.072h1.559Zm6.196 0v9.072h-1.559v-9.072h1.559Zm3.044 0v1.257h-7.588v-1.257h7.588Zm3.203 6.615 4.184-6.615h1.56v9.072h-1.56v-6.616l-4.184 6.616h-1.543v-9.072h1.543v6.615Zm14.053-10.565h1.274c0 .548-.084.984-.251 1.308a1.825 1.825 0 0 1-.688.738 3.41 3.41 0 0 1-.972.394c-.358.09-.73.176-1.116.26-.48.101-.928.26-1.341.478-.408.213-.76.514-1.057.906-.29.391-.506.9-.645 1.526-.134.626-.171 1.4-.109 2.322v.772h-1.275v-.772c0-1.034.098-1.937.294-2.708.201-.771.483-1.423.847-1.954a4.4 4.4 0 0 1 1.291-1.266 4.862 4.862 0 0 1 1.66-.645c.436-.084.81-.174 1.124-.269.313-.1.55-.234.712-.402.168-.168.252-.397.252-.688Zm-1.836 4.469c.592 0 1.12.104 1.584.311.464.207.858.494 1.182.863.325.369.571.805.738 1.308a4.9 4.9 0 0 1 .26 1.627v.184c0 .632-.092 1.219-.276 1.761a4.073 4.073 0 0 1-.797 1.409 3.625 3.625 0 0 1-1.274.931c-.498.223-1.065.335-1.703.335-.637 0-1.207-.112-1.71-.335a3.73 3.73 0 0 1-1.275-.931 4.17 4.17 0 0 1-.804-1.409 5.584 5.584 0 0 1-.269-1.761v-.184c0-.14.025-.277.076-.411.05-.134.112-.271.184-.411.078-.14.148-.288.21-.444.207-.503.489-.97.847-1.4a4.262 4.262 0 0 1 1.299-1.04c.509-.268 1.085-.403 1.728-.403Zm-.302 1.267c-.57 0-1.04.131-1.409.394a2.374 2.374 0 0 0-.813 1.048c-.179.43-.269.897-.269 1.4v.184c0 .425.051.828.151 1.208.101.38.252.718.453 1.014.207.291.467.52.78.688.319.168.693.251 1.123.251.431 0 .803-.083 1.116-.251a2.17 2.17 0 0 0 .771-.688c.201-.296.352-.634.453-1.014.1-.38.151-.783.151-1.208v-.184c0-.38-.051-.741-.151-1.082a2.68 2.68 0 0 0-.461-.905 2.102 2.102 0 0 0-.78-.621c-.313-.156-.685-.234-1.115-.234Zm5.416 2.85v-.193c0-.654.095-1.26.285-1.819.19-.565.464-1.054.822-1.467.358-.42.791-.744 1.3-.973.508-.235 1.078-.352 1.71-.352.637 0 1.21.117 1.719.352.514.229.95.553 1.308.973.363.413.64.902.83 1.467.19.559.285 1.165.285 1.819v.193c0 .654-.095 1.261-.285 1.82a4.354 4.354 0 0 1-.83 1.467 3.803 3.803 0 0 1-1.3.973c-.503.229-1.073.344-1.71.344s-1.21-.115-1.719-.344a3.882 3.882 0 0 1-1.308-.973 4.423 4.423 0 0 1-.822-1.467 5.623 5.623 0 0 1-.285-1.82Zm1.551-.193v.193c0 .453.053.881.16 1.283.106.397.265.749.478 1.057.218.307.489.55.813.729.324.173.701.26 1.132.26.425 0 .796-.087 1.115-.26.324-.179.592-.422.805-.729a3.39 3.39 0 0 0 .478-1.057c.112-.402.168-.83.168-1.283v-.193c0-.447-.056-.869-.168-1.266a3.253 3.253 0 0 0-.487-1.064 2.308 2.308 0 0 0-.804-.738c-.319-.179-.694-.269-1.124-.269-.425 0-.799.09-1.124.269a2.418 2.418 0 0 0-.804.738 3.345 3.345 0 0 0-.478 1.064c-.107.397-.16.819-.16 1.266Zm12.166-4.443v9.072h-1.559v-9.072h1.559Zm3.044 0v1.257h-7.588v-1.257h7.588Zm3.312-3.807v1.073c0 .336-.059.691-.176 1.065a4.415 4.415 0 0 1-.495 1.073c-.218.341-.48.64-.788.897l-.889-.612c.263-.369.461-.746.596-1.132.139-.391.209-.813.209-1.266v-1.098h1.543Zm2.574 0v1.073c0 .336-.059.691-.176 1.065a4.415 4.415 0 0 1-.495 1.073c-.218.341-.48.64-.788.897l-.889-.612a4.49 4.49 0 0 0 .596-1.132c.139-.391.209-.813.209-1.266v-1.098h1.543Zm1.92 12.057a.95.95 0 0 1 .243-.662c.168-.185.408-.277.721-.277s.551.092.713.277a.93.93 0 0 1 .252.662.92.92 0 0 1-.252.654c-.162.179-.4.268-.713.268-.313 0-.553-.089-.721-.268a.94.94 0 0 1-.243-.654Z" fill="#333"/><g filter="url(#a)"><rect x="31.891" y="175.016" width="591.68" height="49.305" rx="6.133" fill="#29B74D"/><path d="M306.978 197.944v1.669h-6.482v-1.669h6.482Zm-5.962-5.097v12.208h-2.104v-12.208h2.104Zm7.58 0v12.208H306.5v-12.208h2.096Zm7.42 10.388v-4.326c0-.324-.058-.604-.176-.839a1.232 1.232 0 0 0-.536-.545c-.235-.128-.531-.193-.889-.193-.33 0-.615.056-.855.168a1.38 1.38 0 0 0-.562.453c-.134.19-.201.405-.201.645h-2.013c0-.357.087-.704.26-1.039.174-.336.425-.635.755-.897a3.77 3.77 0 0 1 1.182-.621 4.916 4.916 0 0 1 1.543-.226c.682 0 1.286.114 1.811.344a2.75 2.75 0 0 1 1.249 1.039c.308.459.461 1.034.461 1.727v4.034c0 .413.028.785.084 1.115.062.324.148.606.26.847v.134h-2.071a3.592 3.592 0 0 1-.226-.83 6.69 6.69 0 0 1-.076-.99Zm.294-3.697.017 1.249h-1.451a4.01 4.01 0 0 0-.989.109 2.035 2.035 0 0 0-.713.302 1.31 1.31 0 0 0-.428.486c-.095.19-.142.405-.142.646 0 .24.056.461.167.662.112.196.274.349.487.461.218.112.481.168.788.168.414 0 .774-.084 1.082-.252.313-.173.559-.383.737-.628.179-.252.274-.49.285-.713l.654.897a3.074 3.074 0 0 1-.343.738 3.549 3.549 0 0 1-.638.754 3.163 3.163 0 0 1-.93.579 3.173 3.173 0 0 1-1.241.226c-.593 0-1.121-.117-1.585-.352a2.82 2.82 0 0 1-1.09-.964 2.497 2.497 0 0 1-.394-1.383c0-.481.09-.906.268-1.275.185-.374.453-.687.805-.939.358-.252.794-.442 1.308-.57a7.014 7.014 0 0 1 1.761-.201h1.585Zm11.135-3.556v9.073h-2.021v-9.073h2.021Zm-.856 4.017v1.601a7.215 7.215 0 0 1-.83.294c-.302.084-.62.153-.956.209a6.727 6.727 0 0 1-1.014.076c-.799 0-1.49-.123-2.071-.369a2.819 2.819 0 0 1-1.333-1.132c-.308-.514-.461-1.166-.461-1.954v-2.75h2.012v2.75c0 .453.067.814.201 1.082.14.268.347.461.621.578.274.118.617.177 1.031.177.346 0 .673-.023.981-.068.307-.05.612-.117.914-.201.302-.084.604-.181.905-.293Zm8.125 3.236v-4.326c0-.324-.059-.604-.176-.839a1.23 1.23 0 0 0-.537-.545c-.234-.128-.531-.193-.888-.193-.33 0-.615.056-.856.168-.24.112-.427.263-.561.453-.134.19-.202.405-.202.645h-2.012c0-.357.087-.704.26-1.039a2.76 2.76 0 0 1 .755-.897 3.76 3.76 0 0 1 1.182-.621 4.916 4.916 0 0 1 1.543-.226c.682 0 1.285.114 1.811.344a2.75 2.75 0 0 1 1.249 1.039c.308.459.461 1.034.461 1.727v4.034c0 .413.028.785.084 1.115.062.324.148.606.26.847v.134h-2.071a3.592 3.592 0 0 1-.226-.83 6.69 6.69 0 0 1-.076-.99Zm.294-3.697.016 1.249h-1.45c-.375 0-.704.036-.99.109a2.03 2.03 0 0 0-.712.302 1.31 1.31 0 0 0-.428.486c-.095.19-.142.405-.142.646 0 .24.055.461.167.662.112.196.274.349.487.461.218.112.48.168.788.168.413 0 .774-.084 1.081-.252.313-.173.559-.383.738-.628.179-.252.274-.49.285-.713l.654.897a3.074 3.074 0 0 1-.343.738 3.578 3.578 0 0 1-.638.754 3.163 3.163 0 0 1-.93.579 3.173 3.173 0 0 1-1.241.226c-.593 0-1.121-.117-1.585-.352a2.82 2.82 0 0 1-1.09-.964 2.497 2.497 0 0 1-.394-1.383c0-.481.089-.906.268-1.275.185-.374.453-.687.805-.939.358-.252.794-.442 1.308-.57a7.003 7.003 0 0 1 1.761-.201h1.585Zm7.923-3.556v9.073h-2.029v-9.073h2.029Zm2.977 0v1.594h-7.932v-1.594h7.932Zm2.85 2.885h2.675c.783 0 1.448.131 1.996.394s.964.629 1.249 1.098c.291.464.436.995.436 1.593 0 .442-.081.853-.243 1.233a2.758 2.758 0 0 1-.721.981 3.345 3.345 0 0 1-1.157.654c-.453.156-.973.235-1.56.235h-4.016v-9.073h2.029v7.471h1.987c.403 0 .724-.07.964-.209.241-.14.414-.322.52-.545a1.645 1.645 0 0 0 0-1.443 1.278 1.278 0 0 0-.52-.561c-.24-.146-.561-.218-.964-.218h-2.675v-1.61Z" fill="#fff"/></g><defs><filter id="a" x="13.492" y="161.523" width="628.476" height="86.101" filterUnits="userSpaceOnUse" color-interpolation-filters="sRGB"><feFlood flood-opacity="0" result="BackgroundImageFix"/><feColorMatrix in="SourceAlpha" values="0 0 0 0 0 0 0 0 0 0 0 0 0 0 0 0 0 0 127 0" result="hardAlpha"/><feOffset dy="4.906"/><feGaussianBlur stdDeviation="9.199"/><feComposite in2="hardAlpha" operator="out"/><feColorMatrix values="0 0 0 0 0.160784 0 0 0 0 0.717647 0 0 0 0 0.301961 0 0 0 0.3 0"/><feBlend in2="BackgroundImageFix" result="effect1_dropShadow_54_5259"/><feBlend in="SourceGraphic" in2="effect1_dropShadow_54_5259" result="shape"/></filter></defs></svg>