<svg width="40" height="37" fill="none" xmlns="http://www.w3.org/2000/svg"><path d="M5.563 26.832a16.66 16.66 0 0 0 14.436 8.333 16.66 16.66 0 0 0 14.437-8.333M5.563 10.165a16.66 16.66 0 0 1 14.436-8.333 16.66 16.66 0 0 1 14.437 8.333" stroke="#29B74D" stroke-width="2.5" stroke-linecap="round" stroke-linejoin="round"/><path d="M21.666 35.08s2.347-3.088 3.825-8.25M21.666 1.915s2.347 3.087 3.825 8.25m-7.158 24.917s-2.347-3.087-3.825-8.25m3.825-24.917s-2.347 3.087-3.825 8.25m.491 5 2.5 8.333 2.5-8.333 2.5 8.333 2.5-8.333m-23.333 0 2.5 8.333 2.5-8.333 2.5 8.333 2.5-8.333m16.667 0 2.5 8.333 2.5-8.333 2.5 8.333 2.5-8.333" stroke="#29B74D" stroke-width="2.5" stroke-linecap="round" stroke-linejoin="round"/></svg>