<svg width="28" height="27" fill="none" xmlns="http://www.w3.org/2000/svg"><path d="M4 26.835c1.833 0 3.333-1.5 3.333-3.334V11.835C7.333 10 5.833 8.5 3.999 8.5a3.343 3.343 0 0 0-3.333 3.334V23.5c0 1.834 1.5 3.334 3.333 3.334ZM20.665 18.5v5c0 1.834 1.5 3.334 3.333 3.334 1.834 0 3.334-1.5 3.334-3.334v-5c0-1.833-1.5-3.333-3.334-3.333a3.343 3.343 0 0 0-3.333 3.333Zm-6.667 8.334c1.834 0 3.334-1.5 3.334-3.334v-20c0-1.833-1.5-3.333-3.334-3.333A3.343 3.343 0 0 0 10.665 3.5v20c0 1.834 1.5 3.334 3.333 3.334Z" fill="#29B74D"/></svg>