<svg width="679" height="302" fill="none" xmlns="http://www.w3.org/2000/svg"><rect width="679" height="302" rx="21.631" fill="#fff"/><rect width="679" height="302" rx="21.631" fill="#fff"/><rect x="31.872" y="30.872" width="616.257" height="240.257" rx="13.074" fill="#fff"/><path d="M68.517 53.567v31.378h-3.78V53.567h3.78Zm-.899 19.489-1.573-.061c.014-1.512.239-2.908.674-4.188.436-1.294 1.05-2.418 1.839-3.371a8.19 8.19 0 0 1 2.82-2.206c1.102-.531 2.321-.797 3.656-.797 1.09 0 2.07.15 2.942.45a5.33 5.33 0 0 1 2.226 1.389c.627.64 1.103 1.47 1.43 2.492.327 1.008.49 2.24.49 3.697v14.484h-3.8V70.421c0-1.158-.17-2.084-.51-2.779-.34-.708-.837-1.219-1.491-1.532-.654-.327-1.457-.49-2.41-.49-.94 0-1.798.197-2.575.592a6.157 6.157 0 0 0-1.981 1.635 8.225 8.225 0 0 0-1.287 2.39c-.3.885-.45 1.825-.45 2.819Zm29.418-10.214v2.9H85.084v-2.9h11.95Zm-7.906-5.373h3.779V79.47c0 .75.116 1.315.347 1.696.232.381.531.633.9.756.367.122.762.184 1.184.184.313 0 .64-.027.98-.082.355-.068.62-.123.797-.163l.02 3.084a8.84 8.84 0 0 1-1.184.266c-.477.095-1.056.143-1.737.143a5.89 5.89 0 0 1-2.553-.552c-.776-.367-1.396-.98-1.86-1.838-.449-.872-.673-2.043-.673-3.514V57.469Zm21.593 5.373v2.9H98.772v-2.9h11.951Zm-7.906-5.373h3.779V79.47c0 .75.116 1.315.347 1.696.232.381.532.633.899.756.368.122.763.184 1.185.184.313 0 .64-.027.981-.082.354-.068.619-.123.796-.163l.021 3.084c-.3.096-.695.184-1.185.266-.477.095-1.055.143-1.736.143-.927 0-1.778-.184-2.554-.552-.776-.367-1.396-.98-1.859-1.838-.449-.872-.674-2.043-.674-3.514V57.469Zm16.118 9.622v26.353h-3.8V62.842h3.473l.327 4.249Zm14.892 6.619v.429c0 1.607-.19 3.098-.572 4.473-.381 1.362-.939 2.547-1.675 3.555a7.617 7.617 0 0 1-2.676 2.35c-1.062.558-2.281.837-3.657.837-1.402 0-2.642-.232-3.718-.695a7.339 7.339 0 0 1-2.737-2.022c-.749-.885-1.348-1.948-1.798-3.187-.436-1.24-.735-2.635-.899-4.188v-2.288c.164-1.634.47-3.098.92-4.392.449-1.294 1.042-2.397 1.777-3.31a7.3 7.3 0 0 1 2.717-2.104c1.062-.49 2.288-.735 3.677-.735 1.389 0 2.622.272 3.698.817a7.445 7.445 0 0 1 2.717 2.288c.735.994 1.287 2.186 1.654 3.575.382 1.376.572 2.908.572 4.597Zm-3.799.429v-.43a13.28 13.28 0 0 0-.348-3.105c-.231-.98-.592-1.838-1.082-2.574a5.162 5.162 0 0 0-1.839-1.757c-.749-.435-1.641-.653-2.676-.653-.953 0-1.784.163-2.492.49a5.395 5.395 0 0 0-1.778 1.328 7.046 7.046 0 0 0-1.205 1.88 10.85 10.85 0 0 0-.674 2.165v5.29c.272.954.654 1.853 1.144 2.697a5.927 5.927 0 0 0 1.961 2.023c.817.504 1.846.756 3.085.756 1.021 0 1.9-.211 2.635-.634a5.34 5.34 0 0 0 1.839-1.777c.49-.749.851-1.607 1.082-2.574.232-.98.348-2.022.348-3.125Zm21.491 4.943c0-.544-.123-1.048-.368-1.511-.232-.477-.715-.906-1.45-1.287-.722-.395-1.812-.736-3.269-1.022a25.88 25.88 0 0 1-3.33-.92c-.98-.353-1.818-.782-2.513-1.286-.681-.504-1.205-1.096-1.573-1.777-.367-.681-.551-1.478-.551-2.39 0-.872.19-1.696.572-2.472a6.621 6.621 0 0 1 1.655-2.064c.721-.599 1.586-1.069 2.594-1.41 1.008-.34 2.131-.51 3.371-.51 1.77 0 3.282.313 4.535.94 1.253.626 2.213 1.464 2.88 2.512.668 1.035 1.001 2.186 1.001 3.453h-3.779c0-.613-.184-1.206-.552-1.777-.354-.586-.878-1.07-1.573-1.45-.681-.382-1.518-.573-2.512-.573-1.049 0-1.9.163-2.554.49-.64.314-1.11.715-1.409 1.206a3.034 3.034 0 0 0-.429 1.552c0 .409.068.777.204 1.103.15.314.408.607.776.879.368.259.885.504 1.553.735.667.232 1.518.463 2.553.695 1.812.408 3.303.899 4.474 1.47 1.171.573 2.043 1.274 2.615 2.105.572.83.858 1.838.858 3.023 0 .967-.204 1.852-.613 2.656-.395.803-.974 1.498-1.736 2.084-.749.572-1.648 1.021-2.697 1.348-1.035.313-2.199.47-3.493.47-1.948 0-3.596-.347-4.944-1.042-1.348-.694-2.37-1.593-3.064-2.697-.695-1.103-1.042-2.267-1.042-3.493h3.8c.054 1.035.354 1.86.899 2.472a4.579 4.579 0 0 0 2.002 1.287 7.887 7.887 0 0 0 2.349.368c1.035 0 1.9-.136 2.594-.409.708-.272 1.246-.647 1.614-1.123a2.602 2.602 0 0 0 .552-1.635Zm8.58 3.861c0-.64.197-1.178.592-1.614.409-.449.994-.674 1.757-.674.763 0 1.341.225 1.736.674.409.436.613.974.613 1.614 0 .627-.204 1.158-.613 1.594-.395.436-.973.653-1.736.653s-1.348-.217-1.757-.653c-.395-.436-.592-.967-.592-1.594Zm.02-18.038c0-.64.198-1.178.593-1.614.408-.45.994-.674 1.756-.674.763 0 1.342.225 1.737.674.408.436.613.974.613 1.614 0 .626-.205 1.157-.613 1.593-.395.436-.974.654-1.737.654-.762 0-1.348-.218-1.756-.654-.395-.436-.593-.967-.593-1.593Zm23.432-9.704-12.4 32.298h-3.249L180.323 55.2h3.228Zm12.706 0-12.4 32.298h-3.248L193.03 55.2h3.227Zm18.059 25.454V53.567h3.8v31.378h-3.473l-.327-4.29Zm-14.872-6.516v-.43c0-1.688.205-3.22.613-4.596.422-1.389 1.015-2.58 1.777-3.575.777-.994 1.696-1.757 2.758-2.288 1.076-.545 2.275-.817 3.596-.817 1.389 0 2.601.245 3.636.735a6.996 6.996 0 0 1 2.656 2.104c.735.913 1.314 2.016 1.736 3.31.422 1.294.715 2.758.879 4.392v1.88c-.15 1.62-.443 3.078-.879 4.371-.422 1.294-1.001 2.397-1.736 3.31a7.268 7.268 0 0 1-2.656 2.104c-1.049.477-2.274.715-3.677.715-1.294 0-2.479-.28-3.555-.838-1.062-.558-1.981-1.341-2.758-2.349-.762-1.008-1.355-2.193-1.777-3.555-.408-1.375-.613-2.866-.613-4.473Zm3.8-.43v.43c0 1.103.109 2.138.327 3.105.231.967.585 1.818 1.062 2.553a5.281 5.281 0 0 0 1.818 1.737c.736.408 1.614.613 2.636.613 1.253 0 2.281-.266 3.084-.797a5.94 5.94 0 0 0 1.961-2.104c.491-.872.872-1.818 1.144-2.84v-4.923a10.834 10.834 0 0 0-.715-2.166 6.657 6.657 0 0 0-1.184-1.879 5.13 5.13 0 0 0-1.778-1.328c-.694-.327-1.518-.49-2.472-.49-1.035 0-1.927.218-2.676.653a5.22 5.22 0 0 0-1.818 1.757c-.477.736-.831 1.594-1.062 2.574a14.097 14.097 0 0 0-.327 3.106Zm19.754.43v-.47c0-1.594.232-3.071.695-4.433.463-1.376 1.13-2.568 2.002-3.575a8.936 8.936 0 0 1 3.166-2.37c1.24-.572 2.629-.858 4.168-.858 1.553 0 2.948.286 4.188.858a8.89 8.89 0 0 1 3.187 2.37c.885 1.007 1.559 2.2 2.022 3.575.463 1.362.695 2.84.695 4.433v.47c0 1.593-.232 3.07-.695 4.433-.463 1.361-1.137 2.553-2.022 3.575a9.265 9.265 0 0 1-3.167 2.37c-1.225.558-2.615.837-4.167.837-1.553 0-2.949-.28-4.188-.838a9.478 9.478 0 0 1-3.187-2.37c-.872-1.02-1.539-2.213-2.002-3.574-.463-1.362-.695-2.84-.695-4.433Zm3.78-.47v.47c0 1.103.129 2.145.388 3.125a8.245 8.245 0 0 0 1.164 2.574 5.893 5.893 0 0 0 1.982 1.777c.79.423 1.709.634 2.758.634 1.035 0 1.941-.211 2.717-.634a5.707 5.707 0 0 0 1.961-1.777 8.222 8.222 0 0 0 1.164-2.574 11.6 11.6 0 0 0 .409-3.125v-.47c0-1.09-.136-2.118-.409-3.085-.258-.98-.653-1.845-1.184-2.594a5.637 5.637 0 0 0-1.962-1.798c-.776-.436-1.688-.654-2.737-.654-1.035 0-1.948.218-2.738.654a5.88 5.88 0 0 0-1.961 1.798c-.517.749-.905 1.613-1.164 2.594a11.88 11.88 0 0 0-.388 3.085Zm24.841-6.435v17.711h-3.8V62.842h3.596l.204 4.392Zm-.776 5.822-1.757-.061c.013-1.512.211-2.908.592-4.188.382-1.294.947-2.418 1.696-3.371a7.533 7.533 0 0 1 2.799-2.206c1.116-.531 2.41-.797 3.881-.797 1.035 0 1.988.15 2.86.45a5.77 5.77 0 0 1 2.268 1.368c.64.627 1.137 1.43 1.491 2.41.354.981.531 2.166.531 3.555v14.73h-3.779V70.4c0-1.157-.198-2.084-.593-2.778a3.385 3.385 0 0 0-1.634-1.512c-.708-.327-1.539-.49-2.492-.49-1.117 0-2.05.197-2.799.592a4.733 4.733 0 0 0-1.798 1.635c-.449.694-.776 1.49-.98 2.39a13.345 13.345 0 0 0-.286 2.819Zm14.32-2.084-2.533.776c.014-1.212.211-2.376.592-3.493a9.495 9.495 0 0 1 1.696-2.983 8.024 8.024 0 0 1 2.758-2.063c1.089-.517 2.336-.776 3.738-.776 1.185 0 2.234.157 3.146.47.926.313 1.703.797 2.329 1.45.64.64 1.124 1.464 1.451 2.472.326 1.008.49 2.206.49 3.596v14.524h-3.8V70.38c0-1.24-.197-2.2-.592-2.88-.382-.695-.926-1.179-1.635-1.451-.694-.286-1.525-.43-2.492-.43-.831 0-1.566.144-2.206.43a4.564 4.564 0 0 0-1.614 1.185 5.179 5.179 0 0 0-1.001 1.695 6.294 6.294 0 0 0-.327 2.043Zm32.42 10.194V69.787c0-.871-.177-1.627-.531-2.267-.34-.654-.858-1.158-1.552-1.512-.695-.354-1.553-.531-2.574-.531-.954 0-1.791.163-2.513.49-.708.327-1.267.756-1.675 1.287-.395.531-.593 1.103-.593 1.716h-3.779c0-.79.204-1.573.613-2.35.409-.776.994-1.477 1.757-2.103.776-.64 1.702-1.144 2.778-1.512 1.09-.381 2.302-.572 3.636-.572 1.607 0 3.024.272 4.25.817 1.239.545 2.206 1.369 2.9 2.472.709 1.09 1.063 2.458 1.063 4.106v10.296c0 .736.061 1.519.184 2.35.136.83.333 1.545.592 2.144v.327h-3.943c-.19-.435-.34-1.014-.449-1.736a14.004 14.004 0 0 1-.164-2.043Zm.654-9.622.041 2.656h-3.82c-1.076 0-2.036.088-2.881.265-.844.164-1.552.416-2.124.756-.572.34-1.008.77-1.308 1.287-.299.504-.449 1.097-.449 1.778 0 .694.157 1.327.47 1.9.313.571.783 1.028 1.409 1.368.64.327 1.424.49 2.35.49 1.157 0 2.179-.245 3.064-.735.885-.49 1.587-1.09 2.104-1.798.531-.708.817-1.396.858-2.063l1.614 1.818c-.095.572-.354 1.205-.776 1.9-.423.695-.988 1.362-1.696 2.002-.694.626-1.525 1.15-2.492 1.573-.954.409-2.029.613-3.228.613-1.498 0-2.812-.293-3.943-.879-1.116-.585-1.988-1.368-2.614-2.349-.613-.994-.92-2.104-.92-3.33 0-1.185.232-2.226.695-3.125a6.031 6.031 0 0 1 2.002-2.268c.871-.613 1.92-1.076 3.146-1.389 1.226-.313 2.594-.47 4.106-.47h4.392Zm13.177-8.702v22.103h-3.8V62.842h3.8Zm-4.086-5.864c0-.612.184-1.13.551-1.552.382-.422.94-.633 1.676-.633.721 0 1.273.21 1.654.633.395.422.593.94.593 1.552 0 .586-.198 1.09-.593 1.512-.381.409-.933.613-1.654.613-.736 0-1.294-.204-1.676-.613a2.228 2.228 0 0 1-.551-1.512Zm13.932 10.583v17.384h-3.779V62.842h3.575l.204 4.719Zm-.899 5.495-1.573-.061c.014-1.512.239-2.908.674-4.188.436-1.294 1.049-2.418 1.839-3.371a8.195 8.195 0 0 1 2.819-2.206c1.103-.531 2.322-.797 3.657-.797 1.089 0 2.07.15 2.942.45a5.327 5.327 0 0 1 2.226 1.389c.627.64 1.104 1.47 1.43 2.492.327 1.008.491 2.24.491 3.697v14.484h-3.8V70.421c0-1.158-.17-2.084-.511-2.779-.34-.708-.837-1.219-1.491-1.532-.654-.327-1.457-.49-2.411-.49-.939 0-1.797.197-2.574.592a6.158 6.158 0 0 0-1.981 1.635 8.211 8.211 0 0 0-1.287 2.39c-.3.885-.45 1.825-.45 2.819Zm39.938 1.88v3.104h-21.491v-2.226l13.32-20.613h3.085l-3.31 5.965-8.805 13.77h17.201ZM356.152 55.2v29.744h-3.779V55.201h3.779Zm8.049 27.742c0-.64.198-1.178.593-1.614.408-.449.994-.674 1.756-.674.763 0 1.342.225 1.737.674.408.436.613.974.613 1.614 0 .627-.205 1.158-.613 1.594-.395.436-.974.653-1.737.653-.762 0-1.348-.217-1.756-.653-.395-.436-.593-.967-.593-1.594Zm14.75-16.629v18.631h-3.78V62.842h3.677l.103 3.472Zm6.905-3.595-.021 3.514a5.455 5.455 0 0 0-.899-.123 9.554 9.554 0 0 0-.94-.04c-.871 0-1.641.135-2.308.408a4.796 4.796 0 0 0-1.696 1.144 5.515 5.515 0 0 0-1.103 1.757 8.445 8.445 0 0 0-.51 2.206l-1.063.613c0-1.335.13-2.588.388-3.759.273-1.171.688-2.206 1.247-3.105.558-.913 1.266-1.62 2.124-2.125.872-.517 1.907-.776 3.105-.776.273 0 .586.034.94.102.354.055.599.116.736.184Zm17.017 17.12V62.841h3.799v22.103h-3.616l-.183-5.107Zm.715-4.659 1.573-.04c0 1.47-.157 2.832-.47 4.085-.3 1.24-.79 2.316-1.471 3.228-.681.912-1.573 1.627-2.676 2.145-1.103.504-2.445.756-4.025.756-1.076 0-2.063-.157-2.962-.47a5.92 5.92 0 0 1-2.288-1.45c-.64-.654-1.137-1.505-1.491-2.554-.341-1.049-.511-2.308-.511-3.78V62.843h3.779v14.3c0 .994.109 1.818.327 2.471.232.64.538 1.151.92 1.533.395.367.83.626 1.307.776.49.15.994.225 1.512.225 1.607 0 2.88-.307 3.82-.92a5.233 5.233 0 0 0 2.022-2.512c.422-1.063.634-2.24.634-3.535Z" fill="#333"/><path d="M597.682 79.339c-.315-.342-.473-.776-.473-1.304s.158-.963.473-1.304l7.911-8.57a1.49 1.49 0 0 1 .559-.395c.201-.077.416-.116.645-.118.229 0 .452.047.667.14.216.093.395.218.537.373l7.911 8.57c.315.341.473.776.473 1.304s-.158.962-.473 1.304c-.316.341-.717.512-1.204.512s-.889-.17-1.204-.512l-6.707-7.266-6.707 7.266c-.316.341-.717.512-1.204.512s-.889-.17-1.204-.512Z" fill="#CCC"/><path d="M68.66 211.622V243h-3.78v-31.378h3.78Zm-.9 19.489-1.572-.062c.013-1.511.238-2.907.674-4.188.436-1.293 1.049-2.417 1.839-3.37a8.191 8.191 0 0 1 2.819-2.207c1.103-.531 2.322-.796 3.657-.796 1.089 0 2.07.149 2.941.449a5.331 5.331 0 0 1 2.227 1.389c.626.64 1.103 1.471 1.43 2.493.327 1.007.49 2.24.49 3.697V243h-3.8v-14.525c0-1.157-.17-2.083-.51-2.778-.34-.708-.838-1.219-1.492-1.532-.653-.327-1.457-.49-2.41-.49-.94 0-1.798.197-2.574.592a6.164 6.164 0 0 0-1.982 1.634 8.236 8.236 0 0 0-1.287 2.39 8.74 8.74 0 0 0-.45 2.82Zm29.418-10.215v2.901h-11.95v-2.901h11.95Zm-7.906-5.373h3.78v22.002c0 .749.115 1.314.347 1.696.231.381.531.633.899.756a3.74 3.74 0 0 0 1.184.183c.314 0 .64-.027.981-.081.354-.068.62-.123.797-.164l.02 3.085a8.92 8.92 0 0 1-1.185.266c-.476.095-1.055.143-1.736.143a5.885 5.885 0 0 1-2.554-.552c-.776-.368-1.396-.981-1.859-1.839-.45-.871-.674-2.042-.674-3.513v-21.982Zm21.593 5.373v2.901h-11.95v-2.901h11.95Zm-7.906-5.373h3.78v22.002c0 .749.115 1.314.347 1.696.232.381.531.633.899.756.368.122.763.183 1.185.183.313 0 .64-.027.98-.081.354-.068.62-.123.797-.164l.02 3.085a8.893 8.893 0 0 1-1.184.266c-.477.095-1.056.143-1.737.143-.926 0-1.777-.184-2.553-.552-.777-.368-1.396-.981-1.859-1.839-.45-.871-.675-2.042-.675-3.513v-21.982Zm16.119 9.622v26.353h-3.8v-30.602h3.473l.327 4.249Zm14.892 6.619v.429c0 1.607-.191 3.099-.572 4.474-.381 1.362-.94 2.547-1.675 3.555a7.618 7.618 0 0 1-2.676 2.349c-1.063.558-2.281.838-3.657.838-1.403 0-2.642-.232-3.718-.695a7.332 7.332 0 0 1-2.737-2.022c-.749-.886-1.349-1.948-1.798-3.187-.436-1.24-.736-2.636-.899-4.188v-2.288c.163-1.634.47-3.099.919-4.392.45-1.294 1.042-2.397 1.778-3.31a7.295 7.295 0 0 1 2.717-2.104c1.062-.49 2.288-.735 3.677-.735 1.389 0 2.621.272 3.697.817a7.437 7.437 0 0 1 2.717 2.288c.736.994 1.287 2.186 1.655 3.575.381 1.375.572 2.907.572 4.596Zm-3.8.429v-.429c0-1.103-.115-2.138-.347-3.105-.231-.98-.592-1.838-1.083-2.574a5.15 5.15 0 0 0-1.838-1.757c-.749-.436-1.641-.653-2.676-.653-.954 0-1.784.163-2.493.49a5.384 5.384 0 0 0-1.777 1.328 7.036 7.036 0 0 0-1.205 1.879c-.3.695-.525 1.416-.674 2.166v5.291c.272.953.653 1.852 1.144 2.696a5.93 5.93 0 0 0 1.961 2.023c.817.503 1.845.755 3.084.755 1.022 0 1.9-.211 2.636-.633a5.33 5.33 0 0 0 1.838-1.777c.491-.749.852-1.607 1.083-2.574a13.55 13.55 0 0 0 .347-3.126Zm21.491 4.944c0-.545-.122-1.049-.367-1.512-.232-.476-.715-.905-1.451-1.287-.722-.395-1.811-.735-3.268-1.021a25.93 25.93 0 0 1-3.33-.919c-.981-.355-1.818-.784-2.513-1.287-.681-.504-1.205-1.097-1.573-1.778-.368-.681-.552-1.477-.552-2.39 0-.872.191-1.695.572-2.472a6.635 6.635 0 0 1 1.655-2.063c.722-.599 1.587-1.069 2.595-1.41 1.007-.34 2.131-.51 3.37-.51 1.771 0 3.282.313 4.535.939 1.253.627 2.214 1.464 2.881 2.513.667 1.035 1.001 2.186 1.001 3.453h-3.779c0-.613-.184-1.206-.552-1.778-.354-.585-.878-1.069-1.573-1.45-.681-.382-1.519-.572-2.513-.572-1.048 0-1.9.163-2.553.49-.64.313-1.11.715-1.41 1.205a3.037 3.037 0 0 0-.429 1.553c0 .409.068.776.204 1.103.15.313.409.606.777.879.367.258.885.503 1.552.735.668.231 1.519.463 2.554.695 1.811.408 3.302.898 4.474 1.47 1.171.572 2.043 1.274 2.615 2.105.572.83.858 1.838.858 3.023 0 .967-.205 1.852-.613 2.656-.395.803-.974 1.498-1.737 2.083-.749.572-1.648 1.022-2.696 1.349-1.035.313-2.2.47-3.494.47-1.947 0-3.595-.348-4.943-1.042-1.349-.695-2.37-1.594-3.065-2.697-.694-1.103-1.041-2.267-1.041-3.493h3.799c.055 1.035.354 1.859.899 2.472a4.59 4.59 0 0 0 2.002 1.287c.79.245 1.573.367 2.349.367 1.035 0 1.9-.136 2.595-.408.708-.273 1.246-.647 1.614-1.124a2.605 2.605 0 0 0 .551-1.634Zm8.58 3.861c0-.64.198-1.178.593-1.614.408-.449.994-.674 1.757-.674.762 0 1.341.225 1.736.674.409.436.613.974.613 1.614 0 .626-.204 1.158-.613 1.593-.395.436-.974.654-1.736.654-.763 0-1.349-.218-1.757-.654-.395-.435-.593-.967-.593-1.593Zm.021-18.038c0-.641.197-1.179.592-1.614.409-.45.994-.674 1.757-.674.763 0 1.341.224 1.736.674.409.435.613.973.613 1.614 0 .626-.204 1.157-.613 1.593-.395.436-.973.654-1.736.654s-1.348-.218-1.757-.654c-.395-.436-.592-.967-.592-1.593Zm23.431-9.704-12.4 32.298h-3.248l12.421-32.298h3.227Zm12.707 0L184 245.554h-3.248l12.42-32.298h3.228Zm17.16 25.965v-11.379c0-.872-.177-1.628-.531-2.268-.341-.653-.858-1.157-1.553-1.511-.694-.354-1.552-.531-2.574-.531-.953 0-1.791.163-2.512.49-.709.327-1.267.756-1.676 1.287-.395.531-.592 1.103-.592 1.716h-3.779c0-.79.204-1.573.613-2.349.408-.777.994-1.478 1.756-2.105.777-.64 1.703-1.144 2.779-1.511 1.089-.382 2.301-.572 3.636-.572 1.607 0 3.023.272 4.249.817 1.24.545 2.206 1.369 2.901 2.472.708 1.089 1.062 2.458 1.062 4.106v10.296c0 .735.062 1.518.184 2.349.136.831.334 1.546.593 2.145V243h-3.943c-.191-.436-.341-1.015-.45-1.736a14.007 14.007 0 0 1-.163-2.043Zm.654-9.622.041 2.656h-3.821c-1.075 0-2.036.088-2.88.265-.844.164-1.553.415-2.125.756-.572.34-1.007.769-1.307 1.287-.3.504-.449 1.096-.449 1.777 0 .695.156 1.328.469 1.9.314.572.784 1.028 1.41 1.369.64.327 1.423.49 2.349.49 1.158 0 2.179-.245 3.065-.735.885-.491 1.586-1.09 2.104-1.798.531-.708.817-1.396.858-2.063l1.614 1.818c-.096.572-.354 1.205-.777 1.9-.422.694-.987 1.362-1.695 2.002-.695.626-1.526 1.151-2.493 1.573-.953.408-2.029.613-3.227.613-1.498 0-2.813-.293-3.943-.879-1.117-.585-1.988-1.369-2.615-2.349-.613-.994-.919-2.104-.919-3.33 0-1.185.231-2.227.694-3.126a6.04 6.04 0 0 1 2.002-2.267c.872-.613 1.921-1.076 3.146-1.389 1.226-.314 2.595-.47 4.107-.47h4.392Zm22.594 8.294v-16.997h3.8V243h-3.616l-.184-5.107Zm.715-4.658 1.573-.041c0 1.471-.157 2.833-.47 4.086-.3 1.239-.79 2.315-1.471 3.228-.681.912-1.573 1.627-2.676 2.145-1.103.504-2.445.756-4.025.756-1.075 0-2.063-.157-2.962-.47a5.927 5.927 0 0 1-2.288-1.451c-.64-.653-1.137-1.505-1.491-2.553-.34-1.049-.511-2.309-.511-3.78v-14.259h3.78v14.3c0 .994.109 1.818.326 2.472.232.64.538 1.151.92 1.532a3.41 3.41 0 0 0 1.307.777c.49.149.994.224 1.512.224 1.607 0 2.88-.306 3.82-.919a5.238 5.238 0 0 0 2.023-2.513c.422-1.062.633-2.24.633-3.534Zm18.1-12.339v2.901h-11.951v-2.901h11.951Zm-7.906-5.373h3.779v22.002c0 .749.116 1.314.347 1.696.232.381.531.633.899.756.368.122.763.183 1.185.183.313 0 .64-.027.981-.081a23.1 23.1 0 0 0 .796-.164l.021 3.085a8.95 8.95 0 0 1-1.185.266c-.477.095-1.056.143-1.737.143-.926 0-1.777-.184-2.553-.552-.776-.368-1.396-.981-1.859-1.839-.45-.871-.674-2.042-.674-3.513v-21.982Zm10.929 16.67v-.47c0-1.593.232-3.071.695-4.433.463-1.375 1.13-2.567 2.002-3.575a8.927 8.927 0 0 1 3.166-2.369c1.239-.572 2.629-.858 4.167-.858 1.553 0 2.949.286 4.188.858a8.88 8.88 0 0 1 3.187 2.369c.885 1.008 1.56 2.2 2.023 3.575.463 1.362.694 2.84.694 4.433v.47c0 1.594-.231 3.071-.694 4.433-.463 1.362-1.138 2.554-2.023 3.575a9.26 9.26 0 0 1-3.166 2.37c-1.226.558-2.615.838-4.168.838-1.552 0-2.948-.28-4.188-.838a9.472 9.472 0 0 1-3.186-2.37c-.872-1.021-1.539-2.213-2.002-3.575-.463-1.362-.695-2.839-.695-4.433Zm3.779-.47v.47c0 1.103.13 2.145.388 3.126a8.222 8.222 0 0 0 1.165 2.574 5.9 5.9 0 0 0 1.981 1.777c.79.422 1.71.633 2.758.633 1.035 0 1.941-.211 2.717-.633a5.7 5.7 0 0 0 1.961-1.777 8.222 8.222 0 0 0 1.165-2.574c.272-.981.408-2.023.408-3.126v-.47c0-1.089-.136-2.117-.408-3.084-.259-.981-.654-1.846-1.185-2.595a5.622 5.622 0 0 0-1.961-1.797c-.776-.436-1.689-.654-2.738-.654-1.035 0-1.947.218-2.737.654a5.875 5.875 0 0 0-1.961 1.797c-.518.749-.906 1.614-1.165 2.595a11.92 11.92 0 0 0-.388 3.084Zm28.948-2.921v3.105h-9.969v-3.105h9.969Zm7.456-3.514V243h-3.8v-22.104h3.596l.204 4.392Zm-.776 5.823-1.757-.062c.014-1.511.211-2.907.592-4.188.382-1.293.947-2.417 1.696-3.37a7.534 7.534 0 0 1 2.799-2.207c1.116-.531 2.41-.796 3.881-.796 1.035 0 1.989.149 2.86.449a5.757 5.757 0 0 1 2.268 1.369c.64.626 1.137 1.43 1.491 2.41.354.981.531 2.166.531 3.555V243h-3.779v-14.545c0-1.158-.198-2.084-.593-2.778a3.382 3.382 0 0 0-1.634-1.512c-.708-.327-1.539-.49-2.492-.49-1.117 0-2.05.197-2.799.592a4.737 4.737 0 0 0-1.798 1.634 7.375 7.375 0 0 0-.98 2.39 13.352 13.352 0 0 0-.286 2.82Zm14.32-2.084-2.533.776a11.12 11.12 0 0 1 .593-3.493 9.495 9.495 0 0 1 1.695-2.983 8.04 8.04 0 0 1 2.758-2.063c1.09-.518 2.336-.776 3.738-.776 1.185 0 2.234.156 3.146.47.927.313 1.703.796 2.329 1.45.64.64 1.124 1.464 1.451 2.472.327 1.008.49 2.206.49 3.595V243h-3.8v-14.566c0-1.239-.197-2.199-.592-2.88-.381-.695-.926-1.178-1.634-1.45-.695-.286-1.526-.429-2.493-.429-.83 0-1.566.143-2.206.429a4.56 4.56 0 0 0-1.614 1.184 5.189 5.189 0 0 0-1.001 1.696 6.293 6.293 0 0 0-.327 2.043Zm18.386 3.166v-.47c0-1.593.232-3.071.695-4.433.463-1.375 1.13-2.567 2.002-3.575a8.927 8.927 0 0 1 3.166-2.369c1.239-.572 2.629-.858 4.168-.858 1.552 0 2.948.286 4.187.858a8.88 8.88 0 0 1 3.187 2.369c.886 1.008 1.56 2.2 2.023 3.575.463 1.362.694 2.84.694 4.433v.47c0 1.594-.231 3.071-.694 4.433-.463 1.362-1.137 2.554-2.023 3.575a9.26 9.26 0 0 1-3.166 2.37c-1.226.558-2.615.838-4.168.838-1.552 0-2.948-.28-4.187-.838a9.466 9.466 0 0 1-3.187-2.37c-.872-1.021-1.539-2.213-2.002-3.575-.463-1.362-.695-2.839-.695-4.433Zm3.779-.47v.47c0 1.103.13 2.145.389 3.126a8.198 8.198 0 0 0 1.164 2.574 5.895 5.895 0 0 0 1.982 1.777c.789.422 1.709.633 2.757.633 1.035 0 1.941-.211 2.717-.633a5.712 5.712 0 0 0 1.962-1.777 8.243 8.243 0 0 0 1.164-2.574c.272-.981.409-2.023.409-3.126v-.47c0-1.089-.137-2.117-.409-3.084-.259-.981-.654-1.846-1.185-2.595a5.622 5.622 0 0 0-1.961-1.797c-.776-.436-1.689-.654-2.737-.654-1.036 0-1.948.218-2.738.654a5.875 5.875 0 0 0-1.961 1.797c-.518.749-.906 1.614-1.164 2.595a11.877 11.877 0 0 0-.389 3.084Zm25.189-10.827V243h-3.8v-22.104h3.8Zm-4.086-5.863c0-.613.184-1.13.552-1.552.381-.423.939-.634 1.675-.634.722 0 1.273.211 1.655.634.395.422.592.939.592 1.552 0 .586-.197 1.09-.592 1.512-.382.408-.933.613-1.655.613-.736 0-1.294-.205-1.675-.613a2.224 2.224 0 0 1-.552-1.512Zm13.953-3.411V243h-3.8v-31.378h3.8Zm13.503 9.274-9.642 10.317-5.393 5.597-.307-4.024 3.861-4.617 6.864-7.273h4.617ZM379.645 243l-7.886-10.541 1.962-3.371L384.098 243h-4.453Zm20.388-3.779v-11.379c0-.872-.177-1.628-.532-2.268-.34-.653-.858-1.157-1.552-1.511-.695-.354-1.553-.531-2.574-.531-.954 0-1.791.163-2.513.49-.708.327-1.266.756-1.675 1.287-.395.531-.592 1.103-.592 1.716h-3.78c0-.79.205-1.573.613-2.349.409-.777.994-1.478 1.757-2.105.776-.64 1.702-1.144 2.778-1.511 1.09-.382 2.302-.572 3.637-.572 1.607 0 3.023.272 4.249.817 1.239.545 2.206 1.369 2.901 2.472.708 1.089 1.062 2.458 1.062 4.106v10.296c0 .735.061 1.518.184 2.349.136.831.333 1.546.592 2.145V243h-3.943c-.19-.436-.34-1.015-.449-1.736a14.007 14.007 0 0 1-.163-2.043Zm.653-9.622.041 2.656h-3.82c-1.076 0-2.036.088-2.88.265-.845.164-1.553.415-2.125.756-.572.34-1.008.769-1.307 1.287-.3.504-.45 1.096-.45 1.777 0 .695.157 1.328.47 1.9.313.572.783 1.028 1.41 1.369.64.327 1.423.49 2.349.49 1.157 0 2.179-.245 3.064-.735.885-.491 1.587-1.09 2.104-1.798.531-.708.817-1.396.858-2.063l1.614 1.818c-.095.572-.354 1.205-.776 1.9-.422.694-.988 1.362-1.696 2.002-.694.626-1.525 1.151-2.492 1.573-.953.408-2.029.613-3.228.613-1.498 0-2.812-.293-3.942-.879-1.117-.585-1.989-1.369-2.615-2.349-.613-.994-.92-2.104-.92-3.33 0-1.185.232-2.227.695-3.126a6.03 6.03 0 0 1 2.002-2.267c.872-.613 1.92-1.076 3.146-1.389 1.226-.314 2.594-.47 4.106-.47h4.392Zm28.151 10.296V243h-19.469v-2.717l9.745-10.848c1.198-1.334 2.124-2.465 2.778-3.391.668-.939 1.131-1.777 1.389-2.512a6.64 6.64 0 0 0 .409-2.288c0-.981-.204-1.866-.613-2.656a4.596 4.596 0 0 0-1.757-1.921c-.776-.476-1.716-.715-2.819-.715-1.321 0-2.424.259-3.309.777a4.78 4.78 0 0 0-1.962 2.124c-.435.913-.653 1.962-.653 3.146h-3.78c0-1.675.368-3.207 1.104-4.596.735-1.389 1.825-2.492 3.268-3.31 1.444-.83 3.221-1.246 5.332-1.246 1.879 0 3.487.334 4.821 1.001 1.335.654 2.356 1.58 3.065 2.779.721 1.184 1.082 2.574 1.082 4.167 0 .872-.15 1.757-.449 2.656-.286.885-.688 1.77-1.205 2.656a20.646 20.646 0 0 1-1.778 2.614 40.513 40.513 0 0 1-2.145 2.534l-7.967 8.641h14.913Zm24.147-6.905v3.105h-21.491v-2.227l13.319-20.612h3.085l-3.31 5.965-8.804 13.769h17.201Zm-4.147-19.734V243h-3.78v-29.744h3.78Zm8.048 27.742c0-.64.198-1.178.593-1.614.408-.449.994-.674 1.757-.674.762 0 1.341.225 1.736.674.409.436.613.974.613 1.614 0 .626-.204 1.158-.613 1.593-.395.436-.974.654-1.736.654-.763 0-1.349-.218-1.757-.654-.395-.435-.593-.967-.593-1.593Zm14.75-16.629V243h-3.779v-22.104h3.677l.102 3.473Zm6.905-3.595-.021 3.513a5.387 5.387 0 0 0-.898-.122 9.64 9.64 0 0 0-.94-.041c-.872 0-1.641.136-2.309.409a4.769 4.769 0 0 0-1.695 1.144 5.49 5.49 0 0 0-1.103 1.756 8.452 8.452 0 0 0-.511 2.207l-1.062.613c0-1.335.129-2.588.388-3.759.272-1.172.688-2.207 1.246-3.105.558-.913 1.266-1.621 2.125-2.125.871-.518 1.906-.776 3.105-.776.272 0 .585.034.939.102.354.054.6.116.736.184Zm17.017 17.119v-16.997h3.8V243h-3.616l-.184-5.107Zm.715-4.658 1.573-.041c0 1.471-.157 2.833-.47 4.086-.3 1.239-.79 2.315-1.471 3.228-.681.912-1.573 1.627-2.676 2.145-1.103.504-2.445.756-4.024.756-1.076 0-2.064-.157-2.963-.47a5.927 5.927 0 0 1-2.288-1.451c-.64-.653-1.137-1.505-1.491-2.553-.34-1.049-.511-2.309-.511-3.78v-14.259h3.78v14.3c0 .994.109 1.818.327 2.472.231.64.537 1.151.919 1.532a3.41 3.41 0 0 0 1.307.777c.491.149.994.224 1.512.224 1.607 0 2.88-.306 3.82-.919a5.238 5.238 0 0 0 2.023-2.513c.422-1.062.633-2.24.633-3.534Z" fill="#333"/><path stroke="#E7E7E7" d="M31 113.5h456m-456 81h456"/><path fill="#E7E7E7" d="M33 114h616v80H33z"/><path d="M68.66 137.622V169h-3.78v-31.378h3.78Zm-.9 19.489-1.572-.062c.013-1.511.238-2.907.674-4.188.436-1.293 1.049-2.417 1.839-3.37a8.191 8.191 0 0 1 2.819-2.207c1.103-.531 2.322-.796 3.657-.796 1.089 0 2.07.149 2.941.449a5.331 5.331 0 0 1 2.227 1.389c.626.64 1.103 1.471 1.43 2.493.327 1.007.49 2.24.49 3.697V169h-3.8v-14.525c0-1.157-.17-2.083-.51-2.778-.34-.708-.838-1.219-1.492-1.532-.653-.327-1.457-.49-2.41-.49-.94 0-1.798.197-2.574.592a6.164 6.164 0 0 0-1.982 1.634 8.236 8.236 0 0 0-1.287 2.39 8.74 8.74 0 0 0-.45 2.82Zm29.418-10.215v2.901h-11.95v-2.901h11.95Zm-7.906-5.373h3.78v22.002c0 .749.115 1.314.347 1.696.231.381.531.633.899.756a3.74 3.74 0 0 0 1.184.183c.314 0 .64-.027.981-.081.354-.068.62-.123.797-.164l.02 3.085a8.92 8.92 0 0 1-1.185.266c-.476.095-1.055.143-1.736.143a5.885 5.885 0 0 1-2.554-.552c-.776-.368-1.396-.981-1.859-1.839-.45-.871-.674-2.042-.674-3.513v-21.982Zm21.593 5.373v2.901h-11.95v-2.901h11.95Zm-7.906-5.373h3.78v22.002c0 .749.115 1.314.347 1.696.232.381.531.633.899.756.368.122.763.183 1.185.183.313 0 .64-.027.98-.081.354-.068.62-.123.797-.164l.02 3.085a8.893 8.893 0 0 1-1.184.266c-.477.095-1.056.143-1.737.143-.926 0-1.777-.184-2.553-.552-.777-.368-1.396-.981-1.859-1.839-.45-.871-.675-2.042-.675-3.513v-21.982Zm16.119 9.622v26.353h-3.8v-30.602h3.473l.327 4.249Zm14.892 6.619v.429c0 1.607-.191 3.099-.572 4.474-.381 1.362-.94 2.547-1.675 3.555a7.618 7.618 0 0 1-2.676 2.349c-1.063.558-2.281.838-3.657.838-1.403 0-2.642-.232-3.718-.695a7.332 7.332 0 0 1-2.737-2.022c-.749-.886-1.349-1.948-1.798-3.187-.436-1.24-.736-2.636-.899-4.188v-2.288c.163-1.634.47-3.099.919-4.392.45-1.294 1.042-2.397 1.778-3.31a7.295 7.295 0 0 1 2.717-2.104c1.062-.49 2.288-.735 3.677-.735 1.389 0 2.621.272 3.697.817a7.437 7.437 0 0 1 2.717 2.288c.736.994 1.287 2.186 1.655 3.575.381 1.375.572 2.907.572 4.596Zm-3.8.429v-.429c0-1.103-.115-2.138-.347-3.105-.231-.98-.592-1.838-1.083-2.574a5.15 5.15 0 0 0-1.838-1.757c-.749-.436-1.641-.653-2.676-.653-.954 0-1.784.163-2.493.49a5.384 5.384 0 0 0-1.777 1.328 7.036 7.036 0 0 0-1.205 1.879c-.3.695-.525 1.416-.674 2.166v5.291c.272.953.653 1.852 1.144 2.696a5.93 5.93 0 0 0 1.961 2.023c.817.503 1.845.755 3.084.755 1.022 0 1.9-.211 2.636-.633a5.33 5.33 0 0 0 1.838-1.777c.491-.749.852-1.607 1.083-2.574a13.55 13.55 0 0 0 .347-3.126Zm21.491 4.944c0-.545-.122-1.049-.367-1.512-.232-.476-.715-.905-1.451-1.287-.722-.395-1.811-.735-3.268-1.021a25.93 25.93 0 0 1-3.33-.919c-.981-.355-1.818-.784-2.513-1.287-.681-.504-1.205-1.097-1.573-1.778-.368-.681-.552-1.477-.552-2.39 0-.872.191-1.695.572-2.472a6.635 6.635 0 0 1 1.655-2.063c.722-.599 1.587-1.069 2.595-1.41 1.007-.34 2.131-.51 3.37-.51 1.771 0 3.282.313 4.535.939 1.253.627 2.214 1.464 2.881 2.513.667 1.035 1.001 2.186 1.001 3.453h-3.779c0-.613-.184-1.206-.552-1.778-.354-.585-.878-1.069-1.573-1.45-.681-.382-1.519-.572-2.513-.572-1.048 0-1.9.163-2.553.49-.64.313-1.11.715-1.41 1.205a3.037 3.037 0 0 0-.429 1.553c0 .409.068.776.204 1.103.15.313.409.606.777.879.367.258.885.503 1.552.735.668.231 1.519.463 2.554.695 1.811.408 3.302.898 4.474 1.47 1.171.572 2.043 1.274 2.615 2.105.572.83.858 1.838.858 3.023 0 .967-.205 1.852-.613 2.656-.395.803-.974 1.498-1.737 2.083-.749.572-1.648 1.022-2.696 1.349-1.035.313-2.2.47-3.494.47-1.947 0-3.595-.348-4.943-1.042-1.349-.695-2.37-1.594-3.065-2.697-.694-1.103-1.041-2.267-1.041-3.493h3.799c.055 1.035.354 1.859.899 2.472a4.59 4.59 0 0 0 2.002 1.287c.79.245 1.573.367 2.349.367 1.035 0 1.9-.136 2.595-.408.708-.273 1.246-.647 1.614-1.124a2.605 2.605 0 0 0 .551-1.634Zm8.58 3.861c0-.64.198-1.178.593-1.614.408-.449.994-.674 1.757-.674.762 0 1.341.225 1.736.674.409.436.613.974.613 1.614 0 .626-.204 1.158-.613 1.593-.395.436-.974.654-1.736.654-.763 0-1.349-.218-1.757-.654-.395-.435-.593-.967-.593-1.593Zm.021-18.038c0-.641.197-1.179.592-1.614.409-.45.994-.674 1.757-.674.763 0 1.341.224 1.736.674.409.435.613.973.613 1.614 0 .626-.204 1.157-.613 1.593-.395.436-.973.654-1.736.654s-1.348-.218-1.757-.654c-.395-.436-.592-.967-.592-1.593Zm23.431-9.704-12.4 32.298h-3.248l12.421-32.298h3.227Zm12.707 0L184 171.554h-3.248l12.42-32.298h3.228Zm13.381 7.64v2.901H197.83v-2.901h11.951Zm-7.906-5.373h3.779v22.002c0 .749.116 1.314.347 1.696.232.381.532.633.899.756.368.122.763.183 1.185.183.313 0 .64-.027.981-.081a23.1 23.1 0 0 0 .796-.164l.021 3.085a8.95 8.95 0 0 1-1.185.266c-.477.095-1.055.143-1.736.143-.927 0-1.778-.184-2.554-.552-.776-.368-1.396-.981-1.859-1.839-.449-.871-.674-2.042-.674-3.513v-21.982Zm10.929 16.67v-.47c0-1.593.232-3.071.695-4.433.463-1.375 1.13-2.567 2.002-3.575a8.927 8.927 0 0 1 3.166-2.369c1.24-.572 2.629-.858 4.168-.858 1.552 0 2.948.286 4.187.858a8.88 8.88 0 0 1 3.187 2.369c.886 1.008 1.56 2.2 2.023 3.575.463 1.362.694 2.84.694 4.433v.47c0 1.594-.231 3.071-.694 4.433-.463 1.362-1.137 2.554-2.023 3.575a9.26 9.26 0 0 1-3.166 2.37c-1.226.558-2.615.838-4.168.838-1.552 0-2.948-.28-4.187-.838a9.466 9.466 0 0 1-3.187-2.37c-.872-1.021-1.539-2.213-2.002-3.575-.463-1.362-.695-2.839-.695-4.433Zm3.779-.47v.47c0 1.103.13 2.145.389 3.126a8.22 8.22 0 0 0 1.164 2.574 5.895 5.895 0 0 0 1.982 1.777c.79.422 1.709.633 2.757.633 1.036 0 1.941-.211 2.717-.633a5.712 5.712 0 0 0 1.962-1.777 8.243 8.243 0 0 0 1.164-2.574c.272-.981.409-2.023.409-3.126v-.47c0-1.089-.137-2.117-.409-3.084-.259-.981-.654-1.846-1.185-2.595a5.622 5.622 0 0 0-1.961-1.797c-.776-.436-1.689-.654-2.737-.654-1.035 0-1.948.218-2.738.654a5.875 5.875 0 0 0-1.961 1.797c-.517.749-.906 1.614-1.164 2.595a11.877 11.877 0 0 0-.389 3.084Zm24.862-7.354V169h-3.779v-22.104h3.677l.102 3.473Zm6.905-3.595-.02 3.513a5.413 5.413 0 0 0-.899-.122 9.64 9.64 0 0 0-.94-.041c-.872 0-1.641.136-2.308.409a4.764 4.764 0 0 0-1.696 1.144 5.49 5.49 0 0 0-1.103 1.756 8.452 8.452 0 0 0-.511 2.207l-1.062.613c0-1.335.129-2.588.388-3.759.272-1.172.688-2.207 1.246-3.105.558-.913 1.267-1.621 2.125-2.125.871-.518 1.906-.776 3.105-.776.272 0 .585.034.94.102.354.054.599.116.735.184Zm13.769.122v2.901h-11.951v-2.901h11.951Zm-7.906-5.373h3.779v22.002c0 .749.116 1.314.348 1.696.231.381.531.633.898.756.368.122.763.183 1.185.183.314 0 .64-.027.981-.081.354-.068.62-.123.797-.164l.02 3.085a8.95 8.95 0 0 1-1.185.266c-.477.095-1.055.143-1.736.143-.926 0-1.778-.184-2.554-.552-.776-.368-1.396-.981-1.859-1.839-.449-.871-.674-2.042-.674-3.513v-21.982Zm20.204 13.279v3.105h-9.969v-3.105h9.969Zm7.456-3.514V169h-3.799v-22.104h3.595l.204 4.392Zm-.776 5.823-1.757-.062c.014-1.511.211-2.907.593-4.188.381-1.293.946-2.417 1.695-3.37a7.534 7.534 0 0 1 2.799-2.207c1.117-.531 2.411-.796 3.881-.796 1.035 0 1.989.149 2.86.449a5.757 5.757 0 0 1 2.268 1.369c.64.626 1.137 1.43 1.491 2.41.354.981.531 2.166.531 3.555V169h-3.779v-14.545c0-1.158-.197-2.084-.592-2.778a3.384 3.384 0 0 0-1.635-1.512c-.708-.327-1.539-.49-2.492-.49-1.117 0-2.05.197-2.799.592a4.727 4.727 0 0 0-1.797 1.634c-.45.695-.777 1.492-.981 2.39a13.352 13.352 0 0 0-.286 2.82Zm14.321-2.084-2.534.776a11.12 11.12 0 0 1 .593-3.493 9.495 9.495 0 0 1 1.695-2.983 8.04 8.04 0 0 1 2.758-2.063c1.09-.518 2.336-.776 3.739-.776 1.185 0 2.233.156 3.146.47.926.313 1.702.796 2.329 1.45.64.64 1.123 1.464 1.45 2.472.327 1.008.49 2.206.49 3.595V169h-3.799v-14.566c0-1.239-.198-2.199-.593-2.88-.381-.695-.926-1.178-1.634-1.45-.695-.286-1.525-.429-2.492-.429-.831 0-1.567.143-2.207.429a4.56 4.56 0 0 0-1.614 1.184 5.206 5.206 0 0 0-1.001 1.696 6.293 6.293 0 0 0-.326 2.043Zm32.256 8.11c0-.545-.122-1.049-.367-1.512-.232-.476-.715-.905-1.451-1.287-.722-.395-1.811-.735-3.268-1.021a25.93 25.93 0 0 1-3.33-.919c-.981-.355-1.818-.784-2.513-1.287-.681-.504-1.205-1.097-1.573-1.778-.368-.681-.552-1.477-.552-2.39 0-.872.191-1.695.572-2.472a6.635 6.635 0 0 1 1.655-2.063c.722-.599 1.587-1.069 2.595-1.41 1.007-.34 2.131-.51 3.37-.51 1.771 0 3.283.313 4.535.939 1.253.627 2.214 1.464 2.881 2.513.667 1.035 1.001 2.186 1.001 3.453h-3.779c0-.613-.184-1.206-.552-1.778-.354-.585-.878-1.069-1.573-1.45-.681-.382-1.518-.572-2.513-.572-1.048 0-1.9.163-2.553.49-.64.313-1.11.715-1.41 1.205a3.037 3.037 0 0 0-.429 1.553c0 .409.068.776.204 1.103.15.313.409.606.777.879.367.258.885.503 1.552.735.668.231 1.519.463 2.554.695 1.811.408 3.303.898 4.474 1.47 1.171.572 2.043 1.274 2.615 2.105.572.83.858 1.838.858 3.023 0 .967-.205 1.852-.613 2.656-.395.803-.974 1.498-1.737 2.083-.749.572-1.648 1.022-2.696 1.349-1.035.313-2.2.47-3.494.47-1.947 0-3.595-.348-4.943-1.042-1.349-.695-2.37-1.594-3.065-2.697-.694-1.103-1.041-2.267-1.041-3.493h3.799c.055 1.035.354 1.859.899 2.472a4.59 4.59 0 0 0 2.002 1.287c.79.245 1.573.367 2.349.367 1.036 0 1.9-.136 2.595-.408.708-.273 1.246-.647 1.614-1.124a2.605 2.605 0 0 0 .551-1.634Zm12.544-25.515V169h-3.8v-31.378h3.8Zm13.503 9.274-9.642 10.317-5.394 5.597-.306-4.024 3.861-4.617 6.864-7.273h4.617ZM350.268 169l-7.885-10.541 1.961-3.371L354.722 169h-4.454Zm7.416-2.002c0-.64.197-1.178.592-1.614.409-.449.995-.674 1.757-.674.763 0 1.342.225 1.737.674.408.436.613.974.613 1.614 0 .626-.205 1.158-.613 1.593-.395.436-.974.654-1.737.654-.762 0-1.348-.218-1.757-.654-.395-.435-.592-.967-.592-1.593Zm14.749-16.629V169h-3.779v-22.104h3.677l.102 3.473Zm6.905-3.595-.02 3.513a5.399 5.399 0 0 0-.899-.122 9.626 9.626 0 0 0-.94-.041c-.871 0-1.641.136-2.308.409a4.773 4.773 0 0 0-1.696 1.144 5.507 5.507 0 0 0-1.103 1.756 8.452 8.452 0 0 0-.511 2.207l-1.062.613c0-1.335.13-2.588.388-3.759.273-1.172.688-2.207 1.246-3.105.559-.913 1.267-1.621 2.125-2.125.872-.518 1.907-.776 3.105-.776.273 0 .586.034.94.102.354.054.599.116.735.184Zm17.017 17.119v-16.997h3.8V169h-3.616l-.184-5.107Zm.715-4.658 1.573-.041c0 1.471-.156 2.833-.469 4.086-.3 1.239-.79 2.315-1.471 3.228-.681.912-1.573 1.627-2.676 2.145-1.104.504-2.445.756-4.025.756-1.076 0-2.063-.157-2.962-.47a5.927 5.927 0 0 1-2.288-1.451c-.64-.653-1.137-1.505-1.491-2.553-.341-1.049-.511-2.309-.511-3.78v-14.259h3.779v14.3c0 .994.109 1.818.327 2.472.232.64.538 1.151.919 1.532.395.368.831.627 1.308.777.49.149.994.224 1.512.224 1.607 0 2.88-.306 3.82-.919a5.236 5.236 0 0 0 2.022-2.513c.422-1.062.633-2.24.633-3.534Z" fill="#333"/><g filter="url(#a)"><path d="M582.363 216.781a4.45 4.45 0 0 1 0 6.286l-1.3 1.3a4.442 4.442 0 0 1-6.286 0l-15.348-15.345-6.079 13.984a4.395 4.395 0 0 1-4.058 2.664h-.217a4.392 4.392 0 0 1-4.003-3.056l-14.52-44.469a4.43 4.43 0 0 1 5.589-5.589l44.469 14.52a4.444 4.444 0 0 1 .392 8.278l-13.984 6.079 15.345 15.348Z" fill="#29B74D"/></g><rect x="31.872" y="30.872" width="616.257" height="240.257" rx="13.074" stroke="#E7E7E7" stroke-width="1.743"/><defs><filter id="a" x="497.18" y="148.024" width="119.638" height="119.64" filterUnits="userSpaceOnUse" color-interpolation-filters="sRGB"><feFlood flood-opacity="0" result="BackgroundImageFix"/><feColorMatrix in="SourceAlpha" values="0 0 0 0 0 0 0 0 0 0 0 0 0 0 0 0 0 0 127 0" result="hardAlpha"/><feOffset dy="8.841"/><feGaussianBlur stdDeviation="16.576"/><feComposite in2="hardAlpha" operator="out"/><feColorMatrix values="0 0 0 0 0.937255 0 0 0 0 0.709804 0 0 0 0 0.0117647 0 0 0 0.2 0"/><feBlend in2="BackgroundImageFix" result="effect1_dropShadow_54_5833"/><feBlend in="SourceGraphic" in2="effect1_dropShadow_54_5833" result="shape"/></filter></defs></svg>