<svg width="654" height="258" viewBox="0 0 654 258" fill="none" xmlns="http://www.w3.org/2000/svg">
<rect width="654" height="258" rx="18.6125" fill="white"/>
<rect width="654" height="258" rx="18.6125" fill="white"/>
<path d="M287 37.232C287 29.2791 293.447 22.832 301.4 22.832H354.6C362.553 22.832 369 29.2791 369 37.232V86.432C369 94.3849 362.553 100.832 354.6 100.832H301.4C293.447 100.832 287 94.3849 287 86.432V37.232Z" fill="#57B36E" fill-opacity="0.1"/>
<g clip-path="url(#clip0_54_5696)">
<g clip-path="url(#clip1_54_5696)">
<g clip-path="url(#clip2_54_5696)">
<mask id="mask0_54_5696" style="mask-type:luminance" maskUnits="userSpaceOnUse" x="306" y="38" width="44" height="51">
<path d="M349.038 38.6914H306.719V88.6288H349.038V38.6914Z" fill="white"/>
</mask>
<g mask="url(#mask0_54_5696)">
<path d="M346.748 72.0087C345.404 75.6647 343.425 78.8445 340.735 81.3939C337.732 84.3355 333.774 86.7238 329.029 88.3907C328.869 88.4678 328.715 88.4678 328.555 88.5518C328.318 88.6288 328.081 88.6288 327.921 88.6288H327.844C327.607 88.6288 327.371 88.6288 327.134 88.5518C326.973 88.5518 326.82 88.4748 326.66 88.3907C321.915 86.7238 317.957 84.3355 314.954 81.3939C312.264 78.8515 310.285 75.6717 308.94 72.0087C306.48 65.4111 306.641 58.0921 306.794 52.2859V52.2088C306.794 51.7326 306.794 51.2563 306.871 50.619C306.794 47.9155 309.01 45.6112 311.783 45.4501C317.476 45.1349 321.908 43.2229 325.705 39.5669C326.339 39.0066 327.127 38.6914 327.921 38.6914C328.715 38.6914 329.426 39.0066 330.06 39.5669C333.851 43.2999 338.282 45.1349 343.975 45.4501C346.742 45.6112 348.881 47.9155 348.957 50.619C348.957 51.1723 348.957 51.6555 349.034 52.2088C349.041 58.0921 349.201 65.4111 346.748 72.0087Z" fill="#57B36E"/>
</g>
<mask id="mask1_54_5696" style="mask-type:luminance" maskUnits="userSpaceOnUse" x="306" y="38" width="44" height="51">
<path d="M349.038 38.6914H306.719V88.6288H349.038V38.6914Z" fill="white"/>
</mask>
<g mask="url(#mask1_54_5696)">
<path d="M346.744 72.0087C345.397 75.6647 343.414 78.8445 340.719 81.3939C337.71 84.3355 333.744 86.7238 328.989 88.3907C328.828 88.4678 328.675 88.4678 328.514 88.5518C328.277 88.6288 328.039 88.6288 327.879 88.6288V38.6914C328.675 38.6914 329.387 39.0066 330.022 39.5669C333.821 43.3069 338.261 45.1349 343.965 45.4501C346.737 45.6112 348.881 47.9155 348.958 50.619C348.958 51.1723 348.958 51.6555 349.034 52.2088C349.041 58.0921 349.202 65.4111 346.744 72.0087Z" fill="#57B36E"/>
</g>
<path d="M339.729 63.6595C339.729 70.423 334.237 75.9322 327.494 75.9322H327.418C320.676 75.9322 315.184 70.423 315.184 63.6595C315.184 56.8959 320.676 51.3867 327.418 51.3867H327.494C334.237 51.3867 339.729 56.8959 339.729 63.6595Z" fill="white"/>
<path d="M339.73 63.7009C339.73 70.4416 334.411 75.9322 327.881 75.9322V51.3867C334.411 51.4696 339.73 56.9602 339.73 63.7009Z" fill="#E1EBF0"/>
<path d="M336.021 63.2362C335.859 63.2362 335.705 63.0722 335.705 62.9153V62.1027C335.705 57.975 332.361 54.5745 328.302 54.5745C324.244 54.5745 320.893 57.975 320.893 62.1027V62.9153C320.893 63.0793 320.731 63.2362 320.577 63.2362C320.416 63.2362 320.262 63.0722 320.262 62.9153V62.1027C320.262 57.5687 323.844 53.9258 328.302 53.9258C332.761 53.9258 336.343 57.5687 336.343 62.1027V62.9153C336.336 63.1577 336.175 63.2362 336.021 63.2362Z" fill="#848484"/>
<path d="M335.124 66.62H334.178C333.987 66.62 333.805 66.4389 333.805 66.2657C333.805 66.0846 333.996 65.9114 334.178 65.9114H335.124C335.406 65.9114 335.597 65.7303 335.597 65.4626V63.5887C335.597 63.4076 335.788 63.2344 335.97 63.2344C336.153 63.2344 336.344 63.4155 336.344 63.5887V65.4626C336.253 66.1712 335.788 66.62 335.124 66.62Z" fill="#848484"/>
<path d="M325.338 66.6211H329.57V70.0067H325.338V66.6211Z" fill="#CBCBCB"/>
<path d="M333.727 65.9163C333.801 65.6765 333.801 65.4367 333.801 65.1122V59.667C333.801 57.9037 332.427 56.4648 330.742 56.4648H324.165C322.48 56.4648 321.105 57.9037 321.105 59.667V65.1122C321.105 66.8755 322.48 68.3144 324.165 68.3144H330.823C331.591 68.3144 332.278 67.997 332.811 67.5103" fill="#E5E5E5"/>
<path d="M323.645 66.3507V68.3128C322.173 67.9881 321.105 66.6753 321.105 65.1171V63.2344C322.577 63.5662 323.645 64.7925 323.645 66.3507Z" fill="#CBCBCB"/>
<path d="M334.647 63.2344V65.1171C334.647 65.3624 334.647 65.687 334.565 65.9395L333.551 67.577C333.126 67.9016 332.619 68.1468 332.113 68.3128V66.43C332.023 64.7853 333.119 63.559 334.647 63.2344Z" fill="#CBCBCB"/>
<path d="M327.029 61.1199C327.029 62.2604 326.132 63.2359 324.913 63.2359C323.772 63.2359 322.797 62.3393 322.797 61.1199C322.797 59.9794 323.693 59.0039 324.913 59.0039C326.053 59.0828 327.029 59.9794 327.029 61.1199Z" fill="white"/>
<path d="M332.955 61.1199C332.955 62.2604 332.058 63.2359 330.839 63.2359C329.619 63.2359 328.723 62.3393 328.723 61.1199C328.723 59.9794 329.619 59.0039 330.839 59.0039C332.058 58.9968 332.955 59.9794 332.955 61.1199Z" fill="white"/>
<path d="M325.339 61.5444C324.915 61.5444 324.492 61.2103 324.492 60.698C324.492 60.1857 324.826 59.8516 325.339 59.8516C325.762 59.8516 326.185 60.1857 326.185 60.698C326.185 61.2103 325.762 61.5444 325.339 61.5444Z" fill="#444444"/>
<path d="M330.417 61.5444C329.994 61.5444 329.57 61.2103 329.57 60.698C329.57 60.1857 329.904 59.8516 330.417 59.8516C330.922 59.8516 331.263 60.1857 331.263 60.698C331.263 61.2103 330.84 61.5444 330.417 61.5444Z" fill="#444444"/>
<path d="M322.798 66.6283C322.798 67.0863 322.471 67.4701 322.081 67.4701H321.823C321.433 67.4701 321.105 67.0863 321.105 66.6283C321.105 66.1704 321.433 65.7865 321.823 65.7865H322.081C322.477 65.7124 322.798 66.0963 322.798 66.6283Z" fill="#444444"/>
<path d="M327.029 64.9297H327.876V68.3153H327.029V64.9297Z" fill="#7B7B7B"/>
<path d="M327.877 64.9297H328.723V68.3153H327.877V64.9297Z" fill="#7B7B7B"/>
<path d="M329.568 64.9297V68.3153H330.415V66.1674C330.415 65.5122 330.11 65.0171 329.568 64.9297Z" fill="#7B7B7B"/>
<path d="M326.184 64.9297C325.724 65.0971 325.338 65.5922 325.338 66.1674V68.3153H326.184V64.9297Z" fill="#7B7B7B"/>
<path d="M321.106 60.8686V63.9129C321.106 64.3802 320.792 64.7719 320.31 64.9299C320.234 64.9299 320.15 64.9299 319.996 64.9299H319.599C319.048 64.9299 318.566 64.4627 318.566 63.9129V60.8686C318.566 60.3257 319.041 59.8516 319.599 59.8516H319.996C320.073 59.8516 320.157 59.8516 320.31 59.8516C320.792 60.0096 321.106 60.3944 321.106 60.8686Z" fill="#686868"/>
<path d="M321.107 60.8686V63.9129C321.107 64.3802 320.773 64.7719 320.26 64.9299C319.756 64.7719 319.414 64.3871 319.414 63.9129V60.8686C319.414 60.4013 319.748 60.0096 320.26 59.8516C320.773 60.0096 321.107 60.3944 321.107 60.8686Z" fill="#7B7B7B"/>
<path d="M337.188 60.8686V63.9129C337.188 64.3802 336.874 64.7719 336.392 64.9299C336.316 64.9299 336.232 64.9299 336.078 64.9299H335.681C335.13 64.9299 334.648 64.4627 334.648 63.9129V60.8686C334.648 60.3257 335.123 59.8516 335.681 59.8516H336.078C336.155 59.8516 336.239 59.8516 336.392 59.8516C336.874 60.0096 337.188 60.3944 337.188 60.8686Z" fill="#686868"/>
<path d="M337.187 60.8686V63.9129C337.187 64.3802 336.853 64.7719 336.341 64.9299C335.836 64.7719 335.494 64.3871 335.494 63.9129V60.8686C335.494 60.4013 335.828 60.0096 336.341 59.8516C336.853 60.0096 337.187 60.3944 337.187 60.8686Z" fill="#7B7B7B"/>
<path d="M333.674 65.7734H333.933C334.323 65.7734 334.65 66.1594 334.65 66.6198C334.65 67.0803 334.323 67.4662 333.933 67.4662H333.674C333.284 67.4662 332.957 67.0803 332.957 66.6198C332.957 66.1594 333.284 65.7734 333.674 65.7734Z" fill="#444444"/>
<path d="M319.414 66.3102V64.4363C319.414 64.2552 319.605 64.082 319.787 64.082C319.978 64.082 320.161 64.2631 320.161 64.4363V66.3102C320.161 66.5779 320.352 66.759 320.634 66.759H321.58C321.771 66.759 321.953 66.9401 321.953 67.1133C321.953 67.2944 321.762 67.4676 321.58 67.4676H320.634C319.978 67.4676 319.414 66.9322 319.414 66.3102Z" fill="#848484"/>
<path d="M334.649 71.6081L321.953 71.6993V71.6081C321.953 70.2887 322.827 69.1602 324.014 69.1602H332.665C333.692 69.1602 334.649 70.2887 334.649 71.6081Z" fill="#CBCBCB"/>
<path d="M333.801 71.6081L323.645 71.6993V71.6081C323.645 70.2887 324.505 69.1602 325.674 69.1602H331.847C332.859 69.1602 333.801 70.2887 333.801 71.6081Z" fill="#E5E5E5"/>
<path d="M327.457 51.3867C320.7 51.3867 315.209 56.8781 315.209 63.6345C315.209 70.3908 320.7 75.8822 327.457 75.8822C334.213 75.8822 339.704 70.3908 339.704 63.6345C339.704 56.8781 334.213 51.3867 327.457 51.3867ZM327.457 74.4461C321.541 74.4461 316.645 69.6318 316.645 63.6345C316.645 61.0153 317.657 58.4779 319.346 56.5358L334.555 71.7451C332.524 73.4341 330.076 74.4461 327.457 74.4461ZM335.567 70.7331L320.358 55.5239C322.3 53.8348 324.748 52.8228 327.457 52.8228C333.372 52.8228 338.268 57.6371 338.268 63.6345C338.268 66.2537 337.256 68.791 335.567 70.7331Z" fill="#E84C4F"/>
</g>
</g>
</g>
<path d="M180.172 132.63H177.193V130.534H179.566C180.26 130.534 180.823 130.428 181.253 130.217C181.684 129.998 182 129.69 182.203 129.294C182.405 128.899 182.506 128.433 182.506 127.897C182.506 127.458 182.392 127.053 182.163 126.684C181.943 126.315 181.601 126.021 181.135 125.801C180.669 125.572 180.076 125.458 179.355 125.458C178.81 125.458 178.313 125.555 177.865 125.748C177.417 125.941 177.061 126.214 176.797 126.565C176.534 126.908 176.402 127.326 176.402 127.818H172.46C172.46 126.974 172.64 126.218 173 125.55C173.37 124.874 173.871 124.302 174.503 123.836C175.145 123.362 175.883 123.001 176.718 122.755C177.553 122.509 178.432 122.386 179.355 122.386C180.436 122.386 181.412 122.505 182.282 122.742C183.152 122.971 183.899 123.313 184.523 123.771C185.147 124.228 185.626 124.794 185.96 125.471C186.294 126.148 186.461 126.935 186.461 127.831C186.461 128.49 186.312 129.11 186.013 129.69C185.714 130.27 185.288 130.78 184.734 131.219C184.18 131.659 183.517 132.006 182.743 132.261C181.97 132.507 181.113 132.63 180.172 132.63ZM177.193 131.483H180.172C181.218 131.483 182.146 131.593 182.954 131.812C183.771 132.032 184.461 132.353 185.024 132.775C185.595 133.197 186.026 133.72 186.316 134.344C186.615 134.959 186.764 135.667 186.764 136.466C186.764 137.363 186.58 138.158 186.21 138.853C185.85 139.547 185.336 140.136 184.668 140.619C184.009 141.103 183.227 141.467 182.321 141.713C181.425 141.959 180.436 142.083 179.355 142.083C178.494 142.083 177.637 141.977 176.784 141.766C175.932 141.546 175.158 141.212 174.464 140.764C173.77 140.316 173.216 139.74 172.803 139.037C172.39 138.334 172.183 137.49 172.183 136.506H176.151C176.151 136.972 176.288 137.398 176.56 137.785C176.833 138.163 177.21 138.466 177.694 138.694C178.177 138.914 178.731 139.024 179.355 139.024C180.084 139.024 180.704 138.91 181.214 138.681C181.732 138.453 182.124 138.141 182.387 137.745C182.66 137.341 182.796 136.897 182.796 136.414C182.796 135.895 182.726 135.456 182.585 135.095C182.444 134.735 182.238 134.44 181.965 134.212C181.693 133.975 181.354 133.803 180.95 133.698C180.555 133.592 180.093 133.54 179.566 133.54H177.193V131.483ZM197.153 138.615V132.261C197.153 131.804 197.078 131.413 196.929 131.087C196.779 130.753 196.546 130.494 196.23 130.31C195.922 130.125 195.522 130.033 195.03 130.033C194.608 130.033 194.244 130.107 193.936 130.257C193.628 130.397 193.391 130.604 193.224 130.876C193.057 131.14 192.974 131.452 192.974 131.812H189.177C189.177 131.206 189.317 130.63 189.599 130.085C189.88 129.541 190.289 129.062 190.825 128.648C191.361 128.227 191.998 127.897 192.736 127.66C193.483 127.422 194.318 127.304 195.241 127.304C196.349 127.304 197.333 127.488 198.194 127.857C199.056 128.227 199.732 128.78 200.225 129.519C200.726 130.257 200.976 131.18 200.976 132.287V138.391C200.976 139.173 201.024 139.815 201.121 140.316C201.218 140.808 201.358 141.239 201.543 141.608V141.832H197.707C197.522 141.445 197.381 140.962 197.285 140.382C197.197 139.793 197.153 139.204 197.153 138.615ZM197.654 133.144L197.68 135.293H195.558C195.057 135.293 194.622 135.35 194.252 135.464C193.883 135.579 193.58 135.741 193.343 135.952C193.105 136.154 192.93 136.392 192.815 136.664C192.71 136.937 192.657 137.235 192.657 137.561C192.657 137.886 192.732 138.18 192.881 138.444C193.031 138.699 193.246 138.901 193.527 139.05C193.809 139.191 194.138 139.261 194.516 139.261C195.087 139.261 195.584 139.147 196.006 138.918C196.428 138.69 196.753 138.409 196.981 138.075C197.219 137.741 197.342 137.424 197.351 137.125L198.353 138.734C198.212 139.094 198.019 139.468 197.772 139.854C197.535 140.241 197.232 140.606 196.863 140.949C196.494 141.283 196.05 141.56 195.531 141.779C195.013 141.99 194.397 142.096 193.686 142.096C192.78 142.096 191.958 141.916 191.22 141.555C190.491 141.186 189.911 140.681 189.48 140.039C189.058 139.389 188.847 138.65 188.847 137.824C188.847 137.077 188.988 136.414 189.269 135.833C189.55 135.253 189.963 134.766 190.508 134.37C191.062 133.966 191.752 133.663 192.578 133.46C193.404 133.25 194.362 133.144 195.452 133.144H197.654ZM226.012 138.879L225.748 146.064H222.215V141.832H220.62V138.879H226.012ZM203.85 127.567H207.647V138.866H211.602V127.567H215.412V138.866H219.354V127.567H223.151V141.832H203.85V127.567ZM232.05 136.532L236.835 127.567H240.632V141.832H236.835V132.854L232.05 141.832H228.253V127.567H232.05V136.532ZM250.823 127.567V141.832H247.013V127.567H250.823ZM255.411 127.567V130.507H242.491V127.567H255.411ZM264.837 138.615V132.261C264.837 131.804 264.763 131.413 264.613 131.087C264.464 130.753 264.231 130.494 263.915 130.31C263.607 130.125 263.207 130.033 262.715 130.033C262.293 130.033 261.928 130.107 261.621 130.257C261.313 130.397 261.076 130.604 260.909 130.876C260.742 131.14 260.658 131.452 260.658 131.812H256.861C256.861 131.206 257.002 130.63 257.283 130.085C257.564 129.541 257.973 129.062 258.509 128.648C259.045 128.227 259.683 127.897 260.421 127.66C261.168 127.422 262.003 127.304 262.926 127.304C264.033 127.304 265.018 127.488 265.879 127.857C266.74 128.227 267.417 128.78 267.909 129.519C268.41 130.257 268.661 131.18 268.661 132.287V138.391C268.661 139.173 268.709 139.815 268.806 140.316C268.902 140.808 269.043 141.239 269.228 141.608V141.832H265.391C265.207 141.445 265.066 140.962 264.969 140.382C264.881 139.793 264.837 139.204 264.837 138.615ZM265.338 133.144L265.365 135.293H263.242C262.741 135.293 262.306 135.35 261.937 135.464C261.568 135.579 261.265 135.741 261.027 135.952C260.79 136.154 260.614 136.392 260.5 136.664C260.395 136.937 260.342 137.235 260.342 137.561C260.342 137.886 260.417 138.18 260.566 138.444C260.715 138.699 260.931 138.901 261.212 139.05C261.493 139.191 261.823 139.261 262.201 139.261C262.772 139.261 263.269 139.147 263.69 138.918C264.112 138.69 264.438 138.409 264.666 138.075C264.903 137.741 265.026 137.424 265.035 137.125L266.037 138.734C265.896 139.094 265.703 139.468 265.457 139.854C265.22 140.241 264.917 140.606 264.547 140.949C264.178 141.283 263.734 141.56 263.216 141.779C262.697 141.99 262.082 142.096 261.37 142.096C260.465 142.096 259.643 141.916 258.905 141.555C258.175 141.186 257.595 140.681 257.165 140.039C256.743 139.389 256.532 138.65 256.532 137.824C256.532 137.077 256.672 136.414 256.954 135.833C257.235 135.253 257.648 134.766 258.193 134.37C258.747 133.966 259.437 133.663 260.263 133.46C261.089 133.25 262.047 133.144 263.137 133.144H265.338ZM277.705 134.845V134.568C277.705 133.522 277.854 132.56 278.153 131.681C278.452 130.793 278.887 130.024 279.458 129.374C280.029 128.723 280.732 128.218 281.567 127.857C282.402 127.488 283.36 127.304 284.441 127.304C285.522 127.304 286.485 127.488 287.329 127.857C288.172 128.218 288.88 128.723 289.451 129.374C290.031 130.024 290.471 130.793 290.77 131.681C291.068 132.56 291.218 133.522 291.218 134.568V134.845C291.218 135.882 291.068 136.844 290.77 137.732C290.471 138.611 290.031 139.38 289.451 140.039C288.88 140.689 288.177 141.195 287.342 141.555C286.507 141.916 285.549 142.096 284.468 142.096C283.387 142.096 282.424 141.916 281.581 141.555C280.746 141.195 280.038 140.689 279.458 140.039C278.887 139.38 278.452 138.611 278.153 137.732C277.854 136.844 277.705 135.882 277.705 134.845ZM281.501 134.568V134.845C281.501 135.442 281.554 136 281.66 136.519C281.765 137.038 281.932 137.495 282.161 137.89C282.398 138.277 282.706 138.58 283.083 138.8C283.461 139.02 283.923 139.129 284.468 139.129C284.995 139.129 285.448 139.02 285.826 138.8C286.204 138.58 286.507 138.277 286.735 137.89C286.964 137.495 287.131 137.038 287.236 136.519C287.351 136 287.408 135.442 287.408 134.845V134.568C287.408 133.988 287.351 133.443 287.236 132.933C287.131 132.415 286.959 131.958 286.722 131.562C286.494 131.158 286.19 130.841 285.812 130.613C285.435 130.384 284.978 130.27 284.441 130.27C283.905 130.27 283.448 130.384 283.07 130.613C282.701 130.841 282.398 131.158 282.161 131.562C281.932 131.958 281.765 132.415 281.66 132.933C281.554 133.443 281.501 133.988 281.501 134.568ZM300.446 127.567V141.832H296.636V127.567H300.446ZM305.034 127.567V130.507H292.114V127.567H305.034ZM319.589 139.129C320.055 139.129 320.468 139.042 320.828 138.866C321.188 138.681 321.47 138.426 321.672 138.101C321.883 137.767 321.993 137.376 322.001 136.928H325.574C325.565 137.93 325.297 138.822 324.77 139.604C324.243 140.377 323.535 140.988 322.647 141.437C321.76 141.876 320.767 142.096 319.668 142.096C318.561 142.096 317.594 141.911 316.768 141.542C315.95 141.173 315.269 140.663 314.724 140.013C314.179 139.354 313.771 138.589 313.498 137.719C313.226 136.84 313.089 135.899 313.089 134.897V134.515C313.089 133.504 313.226 132.564 313.498 131.694C313.771 130.815 314.179 130.05 314.724 129.4C315.269 128.741 315.95 128.227 316.768 127.857C317.585 127.488 318.543 127.304 319.642 127.304C320.811 127.304 321.834 127.528 322.713 127.976C323.601 128.424 324.295 129.066 324.796 129.901C325.306 130.727 325.565 131.707 325.574 132.841H322.001C321.993 132.366 321.892 131.936 321.698 131.549C321.514 131.162 321.241 130.854 320.881 130.626C320.529 130.389 320.094 130.27 319.576 130.27C319.022 130.27 318.569 130.389 318.218 130.626C317.866 130.854 317.594 131.171 317.4 131.575C317.207 131.971 317.071 132.423 316.992 132.933C316.921 133.434 316.886 133.961 316.886 134.515V134.897C316.886 135.451 316.921 135.983 316.992 136.493C317.062 137.002 317.194 137.455 317.387 137.851C317.589 138.246 317.866 138.558 318.218 138.787C318.569 139.015 319.026 139.129 319.589 139.129ZM331.823 127.567V141.832H328.026V127.567H331.823ZM341.091 127.567L334.948 136.493H331.151L330.689 132.986H333.208L336.279 127.567H341.091ZM336.451 141.832L332.944 135.807L336.253 133.975L341.54 141.832H336.451ZM352.561 127.567V130.547H345.547V127.567H352.561ZM355.343 127.567V141.832H351.546V127.567H355.343ZM344.598 127.567H348.329L347.947 134.766C347.894 135.794 347.784 136.699 347.617 137.481C347.45 138.264 347.226 138.932 346.945 139.485C346.672 140.039 346.343 140.492 345.956 140.843C345.578 141.186 345.134 141.437 344.625 141.595C344.124 141.753 343.57 141.832 342.963 141.832H341.803L341.764 138.839L342.251 138.787C342.533 138.76 342.779 138.681 342.99 138.549C343.209 138.409 343.394 138.211 343.543 137.956C343.702 137.692 343.833 137.363 343.939 136.967C344.044 136.563 344.128 136.088 344.189 135.543C344.26 134.999 344.308 134.37 344.334 133.658L344.598 127.567ZM362.066 136.532L366.852 127.567H370.649V141.832H366.852V132.854L362.066 141.832H358.27V127.567H362.066V136.532ZM377.623 127.567V141.832H373.826V127.567H377.623ZM386.891 127.567L380.748 136.493H376.951L376.489 132.986H379.007L382.079 127.567H386.891ZM382.25 141.832L378.744 135.807L382.053 133.975L387.339 141.832H382.25ZM392.547 136.532L397.333 127.567H401.129V141.832H397.333V132.854L392.547 141.832H388.75V127.567H392.547V136.532ZM411.162 135.873H406.693L406.667 133.381H410.358C410.85 133.381 411.25 133.333 411.558 133.236C411.865 133.131 412.089 132.977 412.23 132.775C412.379 132.564 412.454 132.309 412.454 132.01C412.454 131.747 412.406 131.522 412.309 131.338C412.221 131.145 412.085 130.986 411.9 130.863C411.716 130.74 411.483 130.652 411.202 130.6C410.929 130.538 410.608 130.507 410.239 130.507H408.104V141.832H404.307V127.567H410.239C411.171 127.567 412.006 127.651 412.744 127.818C413.482 127.976 414.111 128.218 414.629 128.543C415.157 128.868 415.557 129.281 415.829 129.782C416.11 130.274 416.251 130.859 416.251 131.536C416.251 131.975 416.15 132.388 415.948 132.775C415.754 133.162 415.464 133.504 415.078 133.803C414.691 134.102 414.212 134.348 413.641 134.542C413.078 134.726 412.428 134.84 411.689 134.884L411.162 135.873ZM411.162 141.832H405.757L407.062 138.892H411.162C411.628 138.892 412.01 138.835 412.309 138.721C412.608 138.606 412.828 138.439 412.968 138.22C413.118 137.991 413.192 137.719 413.192 137.402C413.192 137.095 413.126 136.827 412.995 136.598C412.863 136.37 412.647 136.194 412.349 136.071C412.059 135.939 411.663 135.873 411.162 135.873H407.616L407.642 133.381H411.676L412.599 134.383C413.601 134.445 414.427 134.634 415.078 134.95C415.728 135.267 416.207 135.671 416.515 136.163C416.831 136.646 416.989 137.178 416.989 137.758C416.989 138.435 416.862 139.028 416.607 139.538C416.352 140.048 415.974 140.474 415.473 140.817C414.981 141.151 414.375 141.406 413.654 141.582C412.933 141.749 412.103 141.832 411.162 141.832ZM427.022 138.615V132.261C427.022 131.804 426.947 131.413 426.798 131.087C426.648 130.753 426.416 130.494 426.099 130.31C425.792 130.125 425.392 130.033 424.899 130.033C424.478 130.033 424.113 130.107 423.805 130.257C423.498 130.397 423.26 130.604 423.093 130.876C422.926 131.14 422.843 131.452 422.843 131.812H419.046C419.046 131.206 419.187 130.63 419.468 130.085C419.749 129.541 420.158 129.062 420.694 128.648C421.23 128.227 421.867 127.897 422.605 127.66C423.353 127.422 424.188 127.304 425.11 127.304C426.218 127.304 427.202 127.488 428.063 127.857C428.925 128.227 429.602 128.78 430.094 129.519C430.595 130.257 430.845 131.18 430.845 132.287V138.391C430.845 139.173 430.894 139.815 430.99 140.316C431.087 140.808 431.228 141.239 431.412 141.608V141.832H427.576C427.391 141.445 427.25 140.962 427.154 140.382C427.066 139.793 427.022 139.204 427.022 138.615ZM427.523 133.144L427.549 135.293H425.427C424.926 135.293 424.491 135.35 424.122 135.464C423.752 135.579 423.449 135.741 423.212 135.952C422.975 136.154 422.799 136.392 422.685 136.664C422.579 136.937 422.526 137.235 422.526 137.561C422.526 137.886 422.601 138.18 422.75 138.444C422.9 138.699 423.115 138.901 423.396 139.05C423.678 139.191 424.007 139.261 424.385 139.261C424.957 139.261 425.453 139.147 425.875 138.918C426.297 138.69 426.622 138.409 426.851 138.075C427.088 137.741 427.211 137.424 427.22 137.125L428.222 138.734C428.081 139.094 427.888 139.468 427.642 139.854C427.404 140.241 427.101 140.606 426.732 140.949C426.363 141.283 425.919 141.56 425.4 141.779C424.882 141.99 424.267 142.096 423.555 142.096C422.649 142.096 421.828 141.916 421.089 141.555C420.36 141.186 419.78 140.681 419.349 140.039C418.927 139.389 418.716 138.65 418.716 137.824C418.716 137.077 418.857 136.414 419.138 135.833C419.419 135.253 419.833 134.766 420.377 134.37C420.931 133.966 421.621 133.663 422.447 133.46C423.273 133.25 424.231 133.144 425.321 133.144H427.523ZM443.541 133.329V136.282H436.29V133.329H443.541ZM437.556 127.567V141.832H433.759V127.567H437.556ZM446.112 127.567V141.832H442.302V127.567H446.112ZM452.849 136.532L457.634 127.567H461.431V141.832H457.634V132.854L452.849 141.832H449.052V127.567H452.849V136.532ZM467.43 134.713H471.279L467.311 141.832H463.475L467.43 134.713ZM469.987 127.567H476.25V141.832H472.453V130.507H469.987C469.469 130.507 469.038 130.604 468.695 130.797C468.353 130.982 468.098 131.224 467.931 131.522C467.772 131.812 467.693 132.111 467.693 132.419C467.693 132.718 467.772 133.008 467.931 133.289C468.089 133.57 468.335 133.803 468.669 133.988C469.003 134.172 469.42 134.265 469.921 134.265H473.863V136.849H469.921C468.981 136.849 468.137 136.734 467.39 136.506C466.652 136.277 466.019 135.961 465.492 135.557C464.973 135.144 464.573 134.665 464.292 134.12C464.02 133.566 463.883 132.959 463.883 132.3C463.883 131.615 464.024 130.986 464.305 130.415C464.586 129.844 464.991 129.343 465.518 128.912C466.045 128.481 466.683 128.152 467.43 127.923C468.186 127.686 469.038 127.567 469.987 127.567ZM272.51 170.873H268.041L268.015 168.381H271.706C272.198 168.381 272.598 168.333 272.906 168.236C273.213 168.131 273.438 167.977 273.578 167.775C273.728 167.564 273.802 167.309 273.802 167.01C273.802 166.747 273.754 166.522 273.657 166.338C273.569 166.145 273.433 165.986 273.249 165.863C273.064 165.74 272.831 165.652 272.55 165.6C272.277 165.538 271.957 165.507 271.587 165.507H269.452V176.832H265.655V162.567H271.587C272.519 162.567 273.354 162.651 274.092 162.818C274.831 162.976 275.459 163.218 275.978 163.543C276.505 163.868 276.905 164.281 277.177 164.782C277.458 165.274 277.599 165.859 277.599 166.536C277.599 166.975 277.498 167.388 277.296 167.775C277.103 168.162 276.812 168.504 276.426 168.803C276.039 169.102 275.56 169.348 274.989 169.542C274.426 169.726 273.776 169.84 273.038 169.884L272.51 170.873ZM272.51 176.832H267.105L268.41 173.892H272.51C272.976 173.892 273.358 173.835 273.657 173.721C273.956 173.606 274.176 173.439 274.316 173.22C274.466 172.991 274.541 172.719 274.541 172.402C274.541 172.095 274.475 171.827 274.343 171.598C274.211 171.37 273.996 171.194 273.697 171.071C273.407 170.939 273.011 170.873 272.51 170.873H268.964L268.99 168.381H273.024L273.947 169.383C274.949 169.445 275.775 169.634 276.426 169.95C277.076 170.267 277.555 170.671 277.863 171.163C278.179 171.646 278.337 172.178 278.337 172.758C278.337 173.435 278.21 174.028 277.955 174.538C277.7 175.048 277.322 175.474 276.821 175.817C276.329 176.151 275.723 176.406 275.002 176.582C274.281 176.749 273.451 176.832 272.51 176.832ZM295.437 160.919L290.216 176.832H286.01L293.143 157.637H295.819L295.437 160.919ZM299.774 176.832L294.54 160.919L294.118 157.637H296.821L303.993 176.832H299.774ZM299.537 169.687V172.785H289.398V169.687H299.537ZM314.882 168.329V171.282H307.631V168.329H314.882ZM308.897 162.567V176.832H305.1V162.567H308.897ZM317.453 162.567V176.832H313.643V162.567H317.453ZM327.67 162.567V176.832H323.86V162.567H327.67ZM332.258 162.567V165.507H319.338V162.567H332.258ZM337.98 171.532L342.766 162.567H346.562V176.832H342.766V167.854L337.98 176.832H334.183V162.567H337.98V171.532ZM358.23 156.292H361.302C361.302 157.004 361.214 157.615 361.038 158.125C360.862 158.625 360.581 159.056 360.194 159.417C359.808 159.768 359.289 160.067 358.639 160.313C357.988 160.559 357.184 160.77 356.226 160.946C355.488 161.095 354.846 161.341 354.301 161.684C353.765 162.027 353.321 162.497 352.97 163.095C352.627 163.684 352.381 164.431 352.231 165.336C352.082 166.232 352.029 167.313 352.073 168.579V169.212L349.12 169.621V168.988C349.129 167.265 349.283 165.767 349.582 164.492C349.889 163.218 350.324 162.146 350.887 161.275C351.449 160.396 352.126 159.698 352.917 159.179C353.708 158.652 354.587 158.283 355.554 158.072C356.204 157.931 356.723 157.795 357.109 157.663C357.505 157.522 357.791 157.347 357.966 157.136C358.142 156.925 358.23 156.644 358.23 156.292ZM356.569 163.372C357.536 163.372 358.393 163.539 359.14 163.873C359.887 164.198 360.515 164.659 361.025 165.257C361.535 165.854 361.921 166.558 362.185 167.366C362.449 168.175 362.581 169.058 362.581 170.016V170.293C362.581 171.269 362.431 172.174 362.132 173.009C361.842 173.835 361.412 174.556 360.84 175.171C360.269 175.786 359.566 176.265 358.731 176.608C357.896 176.942 356.942 177.109 355.87 177.109C354.789 177.109 353.827 176.929 352.983 176.568C352.148 176.199 351.44 175.685 350.86 175.026C350.289 174.358 349.854 173.58 349.555 172.692C349.265 171.796 349.12 170.82 349.12 169.766V169.476C349.12 169.326 349.186 169.181 349.318 169.041C349.458 168.891 349.621 168.724 349.806 168.54C349.999 168.355 350.17 168.122 350.32 167.841C350.847 166.865 351.423 166.048 352.047 165.389C352.671 164.721 353.352 164.22 354.09 163.886C354.837 163.543 355.664 163.372 356.569 163.372ZM355.844 166.338C355.132 166.338 354.561 166.509 354.13 166.852C353.699 167.186 353.387 167.634 353.194 168.197C353.009 168.75 352.917 169.357 352.917 170.016V170.293C352.917 170.829 352.97 171.33 353.075 171.796C353.181 172.253 353.348 172.662 353.576 173.022C353.805 173.374 354.108 173.65 354.486 173.853C354.864 174.046 355.325 174.143 355.87 174.143C356.397 174.143 356.846 174.046 357.215 173.853C357.593 173.65 357.896 173.374 358.125 173.022C358.353 172.662 358.52 172.253 358.625 171.796C358.731 171.33 358.784 170.829 358.784 170.293V170.016C358.784 169.515 358.731 169.045 358.625 168.605C358.52 168.157 358.353 167.766 358.125 167.432C357.896 167.089 357.593 166.821 357.215 166.628C356.837 166.435 356.38 166.338 355.844 166.338ZM364.281 169.845V169.568C364.281 168.522 364.431 167.56 364.729 166.681C365.028 165.793 365.463 165.024 366.035 164.374C366.606 163.723 367.309 163.218 368.144 162.857C368.979 162.488 369.937 162.304 371.018 162.304C372.099 162.304 373.062 162.488 373.905 162.857C374.749 163.218 375.457 163.723 376.028 164.374C376.608 165.024 377.047 165.793 377.346 166.681C377.645 167.56 377.794 168.522 377.794 169.568V169.845C377.794 170.882 377.645 171.844 377.346 172.732C377.047 173.611 376.608 174.38 376.028 175.039C375.457 175.689 374.753 176.195 373.918 176.555C373.083 176.916 372.125 177.096 371.044 177.096C369.963 177.096 369.001 176.916 368.157 176.555C367.322 176.195 366.615 175.689 366.035 175.039C365.463 174.38 365.028 173.611 364.729 172.732C364.431 171.844 364.281 170.882 364.281 169.845ZM368.078 169.568V169.845C368.078 170.442 368.131 171 368.236 171.519C368.342 172.038 368.509 172.495 368.737 172.89C368.975 173.277 369.282 173.58 369.66 173.8C370.038 174.02 370.5 174.129 371.044 174.129C371.572 174.129 372.024 174.02 372.402 173.8C372.78 173.58 373.083 173.277 373.312 172.89C373.541 172.495 373.708 172.038 373.813 171.519C373.927 171 373.984 170.442 373.984 169.845V169.568C373.984 168.988 373.927 168.443 373.813 167.933C373.708 167.415 373.536 166.958 373.299 166.562C373.07 166.158 372.767 165.841 372.389 165.613C372.011 165.384 371.554 165.27 371.018 165.27C370.482 165.27 370.025 165.384 369.647 165.613C369.278 165.841 368.975 166.158 368.737 166.562C368.509 166.958 368.342 167.415 368.236 167.933C368.131 168.443 368.078 168.988 368.078 169.568ZM387.023 162.567V176.832H383.213V162.567H387.023ZM391.611 162.567V165.507H378.691V162.567H391.611Z" fill="#333333"/>
<path d="M283.762 220.117H279.992L279.971 218.258H283.264C283.82 218.258 284.291 218.176 284.677 218.014C285.07 217.844 285.368 217.604 285.571 217.292C285.774 216.974 285.876 216.591 285.876 216.144C285.876 215.649 285.781 215.246 285.591 214.934C285.402 214.623 285.11 214.396 284.717 214.253C284.331 214.111 283.837 214.04 283.234 214.04H280.764V226.805H278.213V212.007H283.234C284.047 212.007 284.772 212.085 285.408 212.241C286.052 212.397 286.598 212.641 287.045 212.973C287.499 213.298 287.841 213.711 288.071 214.213C288.308 214.714 288.427 215.31 288.427 216.002C288.427 216.611 288.281 217.17 287.99 217.678C287.698 218.18 287.268 218.59 286.699 218.908C286.13 219.227 285.422 219.416 284.575 219.477L283.762 220.117ZM283.65 226.805H279.189L280.337 224.782H283.65C284.226 224.782 284.707 224.687 285.093 224.498C285.48 224.301 285.768 224.034 285.957 223.695C286.154 223.349 286.252 222.946 286.252 222.485C286.252 222.004 286.167 221.588 285.998 221.235C285.829 220.876 285.561 220.602 285.195 220.412C284.829 220.216 284.351 220.117 283.762 220.117H280.896L280.916 218.258H284.646L285.226 218.959C286.039 218.986 286.706 219.166 287.228 219.498C287.756 219.83 288.149 220.26 288.407 220.788C288.664 221.317 288.793 221.886 288.793 222.496C288.793 223.437 288.586 224.227 288.173 224.864C287.766 225.5 287.18 225.985 286.415 226.317C285.649 226.642 284.728 226.805 283.65 226.805ZM293.762 215.808V226.805H291.313V215.808H293.762ZM300.937 215.808L295.988 222.424H293.193L292.868 220.209H294.911L297.878 215.808H300.937ZM298.071 226.805L294.758 222.008L296.689 220.615L301.293 226.805H298.071ZM310.013 215.808V217.76H304.647V215.808H310.013ZM311.934 215.808V226.805H309.484V215.808H311.934ZM304.047 215.808H306.466L306.171 221.246C306.131 222.052 306.049 222.763 305.927 223.38C305.812 223.99 305.656 224.515 305.46 224.955C305.263 225.389 305.023 225.741 304.738 226.012C304.454 226.283 304.122 226.483 303.742 226.612C303.363 226.74 302.936 226.805 302.462 226.805H301.7L301.689 224.792L302.076 224.762C302.326 224.742 302.543 224.677 302.726 224.569C302.909 224.454 303.065 224.291 303.194 224.081C303.329 223.871 303.437 223.6 303.519 223.268C303.607 222.936 303.675 222.543 303.722 222.089C303.776 221.635 303.817 221.107 303.844 220.504L304.047 215.808ZM314.637 225.585C314.637 225.206 314.766 224.887 315.023 224.63C315.281 224.366 315.63 224.233 316.07 224.233C316.517 224.233 316.866 224.366 317.117 224.63C317.374 224.887 317.503 225.206 317.503 225.585C317.503 225.965 317.374 226.283 317.117 226.54C316.866 226.798 316.517 226.927 316.07 226.927C315.63 226.927 315.281 226.798 315.023 226.54C314.766 226.283 314.637 225.965 314.637 225.585Z" fill="#27C58B"/>
<rect x="325.77" y="209.289" width="53.5208" height="20.8137" rx="10.4068" fill="#27C58B" fill-opacity="0.68"/>
<g filter="url(#filter0_ddd_54_5696)">
<rect x="349.555" y="204.832" width="29.7338" height="29.7338" rx="14.8669" fill="#27C58B"/>
</g>
<defs>
<filter id="filter0_ddd_54_5696" x="342.121" y="198.885" width="44.6013" height="44.6013" filterUnits="userSpaceOnUse" color-interpolation-filters="sRGB">
<feFlood flood-opacity="0" result="BackgroundImageFix"/>
<feColorMatrix in="SourceAlpha" type="matrix" values="0 0 0 0 0 0 0 0 0 0 0 0 0 0 0 0 0 0 127 0" result="hardAlpha"/>
<feOffset dy="1.48669"/>
<feGaussianBlur stdDeviation="3.71672"/>
<feComposite in2="hardAlpha" operator="out"/>
<feColorMatrix type="matrix" values="0 0 0 0 0 0 0 0 0 0 0 0 0 0 0 0 0 0 0.12 0"/>
<feBlend mode="normal" in2="BackgroundImageFix" result="effect1_dropShadow_54_5696"/>
<feColorMatrix in="SourceAlpha" type="matrix" values="0 0 0 0 0 0 0 0 0 0 0 0 0 0 0 0 0 0 127 0" result="hardAlpha"/>
<feMorphology radius="2.97338" operator="erode" in="SourceAlpha" result="effect2_dropShadow_54_5696"/>
<feOffset dy="4.46007"/>
<feGaussianBlur stdDeviation="0.743345"/>
<feComposite in2="hardAlpha" operator="out"/>
<feColorMatrix type="matrix" values="0 0 0 0 0 0 0 0 0 0 0 0 0 0 0 0 0 0 0.2 0"/>
<feBlend mode="normal" in2="effect1_dropShadow_54_5696" result="effect2_dropShadow_54_5696"/>
<feColorMatrix in="SourceAlpha" type="matrix" values="0 0 0 0 0 0 0 0 0 0 0 0 0 0 0 0 0 0 127 0" result="hardAlpha"/>
<feOffset dy="2.97338"/>
<feGaussianBlur stdDeviation="1.48669"/>
<feComposite in2="hardAlpha" operator="out"/>
<feColorMatrix type="matrix" values="0 0 0 0 0 0 0 0 0 0 0 0 0 0 0 0 0 0 0.14 0"/>
<feBlend mode="normal" in2="effect2_dropShadow_54_5696" result="effect3_dropShadow_54_5696"/>
<feBlend mode="normal" in="SourceGraphic" in2="effect3_dropShadow_54_5696" result="shape"/>
</filter>
<clipPath id="clip0_54_5696">
<rect width="51.1215" height="59.1096" fill="white" transform="translate(302 34.832)"/>
</clipPath>
<clipPath id="clip1_54_5696">
<rect width="48.2592" height="62.7373" fill="white" transform="translate(306.719 28.0742)"/>
</clipPath>
<clipPath id="clip2_54_5696">
<rect width="42.3196" height="55.0158" fill="white" transform="translate(306.719 38.6914)"/>
</clipPath>
</defs>
</svg>
