<svg width="49" height="48" viewBox="0 0 49 48" fill="none" xmlns="http://www.w3.org/2000/svg">
<rect x="0.5" width="48" height="48" rx="6.4" fill="#FF0000" fill-opacity="0.1"/>
<path d="M33.0499 14.5H25.4499V10.7C25.4499 10.448 25.3498 10.2064 25.1717 10.0282C24.9935 9.85009 24.7519 9.75 24.4999 9.75C24.2479 9.75 24.0063 9.85009 23.8282 10.0282C23.65 10.2064 23.5499 10.448 23.5499 10.7V14.5H15.9499C14.943 14.5031 13.9783 14.9045 13.2664 15.6165C12.5544 16.3284 12.153 17.2931 12.1499 18.3V31.6C12.153 32.6069 12.5544 33.5716 13.2664 34.2835C13.9783 34.9955 14.943 35.3969 15.9499 35.4H33.0499C34.0568 35.3969 35.0215 34.9955 35.7335 34.2835C36.4454 33.5716 36.8468 32.6069 36.8499 31.6V18.3C36.8468 17.2931 36.4454 16.3284 35.7335 15.6165C35.0215 14.9045 34.0568 14.5031 33.0499 14.5ZM17.8499 21.625C17.8499 21.3432 17.9335 21.0677 18.0901 20.8333C18.2466 20.599 18.4692 20.4163 18.7296 20.3085C18.99 20.2006 19.2765 20.1724 19.5529 20.2274C19.8293 20.2824 20.0832 20.4181 20.2825 20.6174C20.4818 20.8167 20.6175 21.0706 20.6725 21.347C20.7275 21.6234 20.6993 21.9099 20.5914 22.1703C20.4836 22.4307 20.3009 22.6533 20.0666 22.8098C19.8323 22.9664 19.5567 23.05 19.2749 23.05C18.897 23.05 18.5345 22.8999 18.2673 22.6326C18 22.3654 17.8499 22.0029 17.8499 21.625ZM21.1749 30.65H20.2249C19.721 30.65 19.2377 30.4498 18.8814 30.0935C18.5251 29.7372 18.3249 29.2539 18.3249 28.75C18.3249 28.2461 18.5251 27.7628 18.8814 27.4065C19.2377 27.0502 19.721 26.85 20.2249 26.85H21.1749V30.65ZM25.9249 30.65H23.0749V26.85H25.9249V30.65ZM28.7749 30.65H27.8249V26.85H28.7749C29.2788 26.85 29.7621 27.0502 30.1184 27.4065C30.4747 27.7628 30.6749 28.2461 30.6749 28.75C30.6749 29.2539 30.4747 29.7372 30.1184 30.0935C29.7621 30.4498 29.2788 30.65 28.7749 30.65ZM29.7249 23.05C29.4431 23.05 29.1676 22.9664 28.9332 22.8098C28.6989 22.6533 28.5162 22.4307 28.4084 22.1703C28.3005 21.9099 28.2723 21.6234 28.3273 21.347C28.3823 21.0706 28.518 20.8167 28.7173 20.6174C28.9166 20.4181 29.1705 20.2824 29.4469 20.2274C29.7233 20.1724 30.0098 20.2006 30.2702 20.3085C30.5306 20.4163 30.7532 20.599 30.9097 20.8333C31.0663 21.0677 31.1499 21.3432 31.1499 21.625C31.1499 22.0029 30.9998 22.3654 30.7325 22.6326C30.4653 22.8999 30.1028 23.05 29.7249 23.05Z" fill="#D53636" fill-opacity="0.8"/>
</svg>
