<svg width="567" height="397" viewBox="0 0 567 397" fill="none" xmlns="http://www.w3.org/2000/svg">
<path fill-rule="evenodd" clip-rule="evenodd" d="M284.791 0C300.897 0.0280986 463.011 0.59007 504.999 11.8295C529.409 18.3084 548.602 37.4633 555.15 61.9703C566.527 104.427 566.982 191.016 567 197.875V198.743C566.982 205.623 566.527 292.471 555.15 334.928C548.602 359.435 529.409 378.59 504.999 385.069C461.685 396.663 290.539 396.895 283.71 396.899H283.29C276.46 396.895 105.286 396.663 61.9442 385.069C37.5631 378.59 18.3417 359.435 11.8212 334.928C0.472122 292.471 0.0181586 205.623 0 198.743V197.875C0.0181586 191.016 0.472122 104.427 11.8212 61.9703C18.3417 37.4633 37.5631 18.3084 61.9442 11.8295C103.959 0.59007 266.1 0.0280986 282.209 0H284.791ZM225.496 114.646V282.252L373.71 198.308L225.496 114.646Z" fill="white"/>
</svg>
