<svg width="56" height="50" fill="none" xmlns="http://www.w3.org/2000/svg"><path d="M27.998 0a5 5 0 0 1 5 5c0 1.85-1 3.475-2.5 4.325V12.5h2.5a17.5 17.5 0 0 1 17.5 17.5h2.5a2.5 2.5 0 0 1 2.5 2.5V40a2.5 2.5 0 0 1-2.5 2.5h-2.5V45a5 5 0 0 1-5 5h-35a5 5 0 0 1-5-5v-2.5h-2.5a2.5 2.5 0 0 1-2.5-2.5v-7.5a2.5 2.5 0 0 1 2.5-2.5h2.5a17.5 17.5 0 0 1 17.5-17.5h2.5V9.325A4.96 4.96 0 0 1 22.998 5a5 5 0 0 1 5-5Zm-11.25 27.5a6.25 6.25 0 1 0 0 12.5 6.25 6.25 0 0 0 0-12.5Zm22.5 0a6.25 6.25 0 1 0 0 12.5 6.25 6.25 0 0 0 0-12.5Z" fill="#25C28B"/></svg>