<svg width="54" height="45" fill="none" xmlns="http://www.w3.org/2000/svg"><path d="M26.999 18a9 9 0 1 0 0-18 9 9 0 0 0 0 18Zm-12-3a6 6 0 1 1-12 0 6 6 0 0 1 12 0ZM1.469 36.978a2.34 2.34 0 0 1-1.074-1.326 9 9 0 0 1 12.924-10.548 19.452 19.452 0 0 0-5.715 11.877 6.906 6.906 0 0 0 .075 1.962 14.91 14.91 0 0 1-6.21-1.965Zm44.85 1.962a14.91 14.91 0 0 0 6.21-1.962 2.34 2.34 0 0 0 1.07-1.326 9 9 0 0 0-12.923-10.551 19.453 19.453 0 0 1 5.72 11.88 6.94 6.94 0 0 1-.077 1.962v-.003ZM50.999 15a6 6 0 1 1-12 0 6 6 0 0 1 12 0ZM12.91 39.57a2.53 2.53 0 0 1-.831-2.13 15 15 0 0 1 29.84 0 2.529 2.529 0 0 1-.83 2.13A20.925 20.925 0 0 1 26.999 45a20.922 20.922 0 0 1-14.088-5.43Z" fill="#2175D4"/></svg>