<svg width="32" height="29" fill="none" xmlns="http://www.w3.org/2000/svg"><path d="m1.417 18.902-.142-.143a1.578 1.578 0 0 1 0-2.232l9.642-9.659a1.576 1.576 0 0 1 2.233 0l5.209 5.21L28.476.709a1.584 1.584 0 0 1 2.296-.063c.586.602.618 1.552.063 2.169L19.483 15.592a1.571 1.571 0 0 1-2.296.064l-5.146-5.146-8.391 8.392a1.577 1.577 0 0 1-2.233 0Zm2.233 9.5 8.391-8.392 5.146 5.146a1.57 1.57 0 0 0 2.296-.063l11.352-12.778c.555-.617.523-1.567-.063-2.17a1.584 1.584 0 0 0-2.296.064L18.36 21.578l-5.21-5.21a1.576 1.576 0 0 0-2.232 0l-9.642 9.659a1.578 1.578 0 0 0 0 2.232l.142.143c.618.617 1.63.617 2.233 0Z" fill="url(#a)"/><defs><linearGradient id="a" x1=".812" y1="14.806" x2="29.223" y2="14.806" gradientUnits="userSpaceOnUse"><stop stop-color="#27C58B"/><stop offset="1" stop-color="#029E81"/></linearGradient></defs></svg>