<svg width="26" height="26" viewBox="0 0 26 26" fill="none" xmlns="http://www.w3.org/2000/svg">
<mask id="mask0_56_7123" style="mask-type:luminance" maskUnits="userSpaceOnUse" x="0" y="0" width="26" height="26">
<path d="M4.25 15.5391C5.63071 15.5391 6.75 14.4198 6.75 13.0391C6.75 11.6584 5.63071 10.5391 4.25 10.5391C2.86929 10.5391 1.75 11.6584 1.75 13.0391C1.75 14.4198 2.86929 15.5391 4.25 15.5391Z" fill="white" stroke="white" stroke-width="2.5"/>
<path d="M21.75 6.78906C23.1307 6.78906 24.25 5.66977 24.25 4.28906C24.25 2.90835 23.1307 1.78906 21.75 1.78906C20.3693 1.78906 19.25 2.90835 19.25 4.28906C19.25 5.66977 20.3693 6.78906 21.75 6.78906Z" fill="white" stroke="white" stroke-width="2.5"/>
<path d="M21.75 15.5391C23.1307 15.5391 24.25 14.4198 24.25 13.0391C24.25 11.6584 23.1307 10.5391 21.75 10.5391C20.3693 10.5391 19.25 11.6584 19.25 13.0391C19.25 14.4198 20.3693 15.5391 21.75 15.5391Z" fill="white" stroke="white" stroke-width="2.5"/>
<path d="M21.75 24.2891C23.1307 24.2891 24.25 23.1698 24.25 21.7891C24.25 20.4084 23.1307 19.2891 21.75 19.2891C20.3693 19.2891 19.25 20.4084 19.25 21.7891C19.25 23.1698 20.3693 24.2891 21.75 24.2891Z" fill="white" stroke="white" stroke-width="2.5"/>
<path d="M19.25 21.7891H11.75V4.28906H19.25M6.75 13.0391H19.25" stroke="white" stroke-width="2.5" stroke-linecap="round" stroke-linejoin="round"/>
</mask>
<g mask="url(#mask0_56_7123)">
<path d="M-3 -1.96191H27V28.0381H-3V-1.96191Z" fill="#57B36E"/>
</g>
</svg>
