<svg width="166" height="151" viewBox="0 0 166 151" fill="none" xmlns="http://www.w3.org/2000/svg">
<g filter="url(#filter0_d_32_2542)">
<path d="M83 68C86.9783 68 90.7936 66.4196 93.6066 63.6066C96.4197 60.7936 98 56.9782 98 53C98 49.0218 96.4197 45.2064 93.6066 42.3934C90.7936 39.5804 86.9783 38 83 38C79.0218 38 75.2065 39.5804 72.3934 42.3934C69.5804 45.2064 68 49.0218 68 53C68 56.9782 69.5804 60.7936 72.3934 63.6066C75.2065 66.4196 79.0218 68 83 68ZM63 63C63 65.6522 61.9464 68.1957 60.0711 70.0711C58.1957 71.9464 55.6522 73 53 73C50.3478 73 47.8043 71.9464 45.9289 70.0711C44.0536 68.1957 43 65.6522 43 63C43 60.3478 44.0536 57.8043 45.9289 55.9289C47.8043 54.0536 50.3478 53 53 53C55.6522 53 58.1957 54.0536 60.0711 55.9289C61.9464 57.8043 63 60.3478 63 63ZM40.45 99.63C39.5964 99.1449 38.9572 98.3557 38.66 97.42C37.779 94.5666 37.7698 91.5153 38.6335 88.6566C39.4972 85.798 41.1944 83.2622 43.508 81.374C45.8215 79.4858 48.646 78.3311 51.6197 78.0578C56.0307 77.6525 56.986 83.0155 54.7858 86.86C52.5555 90.7573 51.1426 95.1041 50.675 99.635C50.5047 101.279 49.17 102.765 47.5569 102.407C45.0654 101.854 42.6675 100.919 40.45 99.63ZM115.2 102.9C115.2 102.9 115.2 102.9 115.2 102.9C118.849 102.586 122.383 101.469 125.55 99.63C126.402 99.1439 127.039 98.3549 127.335 97.42C128.217 94.5663 128.228 91.5142 127.365 88.6546C126.502 85.7951 124.804 83.2583 122.491 81.3693C120.177 79.4803 117.352 78.3251 114.377 78.0518C109.966 77.6464 109.012 83.0103 111.213 86.8544C113.447 90.7529 114.861 95.1017 115.33 99.635C115.441 100.724 115.398 101.824 115.201 102.9C115.201 102.901 115.2 102.901 115.2 102.9ZM123 63C123 65.6522 121.946 68.1957 120.071 70.0711C118.196 71.9464 115.652 73 113 73C110.348 73 107.804 71.9464 105.929 70.0711C104.054 68.1957 103 65.6522 103 63C103 60.3478 104.054 57.8043 105.929 55.9289C107.804 54.0536 110.348 53 113 53C115.652 53 118.196 54.0536 120.071 55.9289C121.946 57.8043 123 60.3478 123 63ZM59.52 103.95C59.0269 103.508 58.6446 102.957 58.404 102.34C58.1634 101.724 58.0713 101.059 58.135 100.4C58.771 94.2474 61.6652 88.549 66.2583 84.4062C70.8514 80.2635 76.8171 77.9705 83.0025 77.9705C89.1879 77.9705 95.1537 80.2635 99.7467 84.4062C104.34 88.549 107.234 94.2474 107.87 100.4C107.934 101.059 107.842 101.724 107.602 102.34C107.361 102.957 106.978 103.509 106.485 103.95C100.056 109.785 91.6819 113.012 83 113C74.3197 113.011 65.9474 109.784 59.52 103.95Z" fill="#0085FF"/>
</g>
<defs>
<filter id="filter0_d_32_2542" x="0.492432" y="0.5" width="165.012" height="150" filterUnits="userSpaceOnUse" color-interpolation-filters="sRGB">
<feFlood flood-opacity="0" result="BackgroundImageFix"/>
<feColorMatrix in="SourceAlpha" type="matrix" values="0 0 0 0 0 0 0 0 0 0 0 0 0 0 0 0 0 0 127 0" result="hardAlpha"/>
<feOffset/>
<feGaussianBlur stdDeviation="18.75"/>
<feComposite in2="hardAlpha" operator="out"/>
<feColorMatrix type="matrix" values="0 0 0 0 0 0 0 0 0 0.521569 0 0 0 0 1 0 0 0 0.3 0"/>
<feBlend mode="normal" in2="BackgroundImageFix" result="effect1_dropShadow_32_2542"/>
<feBlend mode="normal" in="SourceGraphic" in2="effect1_dropShadow_32_2542" result="shape"/>
</filter>
</defs>
</svg>
