<svg width="20" height="24" viewBox="0 0 20 24" fill="none" xmlns="http://www.w3.org/2000/svg">
<path d="M18.75 0.786133H16.25C15.9185 0.786133 15.6005 0.917829 15.3661 1.15225C15.1317 1.38667 15 1.70461 15 2.03613V23.2761H20V2.03613C20 1.70461 19.8683 1.38667 19.6339 1.15225C19.3995 0.917829 19.0815 0.786133 18.75 0.786133ZM11.25 8.28614H8.75C8.41848 8.28614 8.10054 8.41783 7.86612 8.65225C7.6317 8.88667 7.5 9.20462 7.5 9.53614V23.2761H12.5V9.53614C12.5 9.20462 12.3683 8.88667 12.1339 8.65225C11.8995 8.41783 11.5815 8.28614 11.25 8.28614ZM3.75 15.7861H1.25C0.918479 15.7861 0.600537 15.9178 0.366116 16.1523C0.131696 16.3867 0 16.7046 0 17.0361V23.2761H5V17.0361C5 16.7046 4.8683 16.3867 4.63388 16.1523C4.39946 15.9178 4.08152 15.7861 3.75 15.7861Z" fill="#0085FF"/>
</svg>
