<svg width="78" height="76" viewBox="0 0 78 76" fill="none" xmlns="http://www.w3.org/2000/svg">
<g clip-path="url(#clip0_13_7695)">
<path d="M0 13.1C0 5.86507 5.86507 0 13.1 0H64.88C72.126 0 78 5.87402 78 13.12V62.9C78 70.1349 72.1349 76 64.9 76H13.12C5.87402 76 0 70.126 0 62.88V13.1Z" fill="url(#paint0_linear_13_7695)" fill-opacity="0.15"/>
<g filter="url(#filter0_d_13_7695)">
<path d="M28.6315 32.3301L21.067 38.6441L28.6315 44.9581C28.8873 45.1627 29.0996 45.4165 29.2561 45.7043C29.4125 45.9922 29.5098 46.3084 29.5424 46.6344C29.5749 46.9604 29.5421 47.2896 29.4457 47.6027C29.3493 47.9158 29.1913 48.2065 28.981 48.4578C28.7708 48.709 28.5124 48.9157 28.2212 49.0657C27.9299 49.2158 27.6117 49.3061 27.285 49.3315C26.9584 49.3569 26.63 49.3167 26.3191 49.2134C26.0082 49.1102 25.721 48.9458 25.4745 48.7301L15.6345 40.5301C15.3588 40.2992 15.137 40.0106 14.9849 39.6848C14.8328 39.3589 14.7539 39.0037 14.7539 38.6441C14.7539 38.2844 14.8328 37.9292 14.9849 37.6033C15.137 37.2775 15.3588 36.989 15.6345 36.7581L25.4745 28.5581C25.9766 28.1563 26.616 27.9671 27.2559 28.0311C27.8957 28.095 28.4851 28.4069 28.8978 28.9C29.3106 29.3931 29.5138 30.0282 29.464 30.6693C29.4142 31.3104 29.1154 31.9066 28.6315 32.3301ZM64.7115 36.7581L54.8715 28.5581C54.3694 28.1563 53.7299 27.9671 53.0901 28.0311C52.4502 28.095 51.8608 28.4069 51.4481 28.9C51.0354 29.3931 50.8322 30.0282 50.882 30.6693C50.9317 31.3104 51.2306 31.9066 51.7145 32.3301L59.2995 38.6441L51.7145 44.9581C51.4645 45.1638 51.258 45.4172 51.107 45.7036C50.956 45.9899 50.8635 46.3034 50.8349 46.6259C50.8063 46.9483 50.8421 47.2733 50.9403 47.5817C51.0385 47.8902 51.1972 48.176 51.407 48.4226C51.6396 48.6963 51.9284 48.9168 52.2539 49.0689C52.5793 49.221 52.9337 49.3012 53.293 49.3041C53.8702 49.3038 54.4289 49.1007 54.8715 48.7301L64.7115 40.5301C64.9872 40.2992 65.2089 40.0106 65.3611 39.6848C65.5132 39.3589 65.592 39.0037 65.592 38.6441C65.592 38.2844 65.5132 37.9292 65.3611 37.6033C65.2089 37.2775 64.9872 36.989 64.7115 36.7581ZM47.5735 18.2876C46.9589 18.0691 46.283 18.1015 45.6921 18.3777C45.1012 18.654 44.6429 19.1519 44.4165 19.7636L31.2965 55.8436C31.078 56.4581 31.1104 57.1341 31.3867 57.7249C31.6629 58.3158 32.1608 58.7741 32.7725 59.0006C33.0419 59.0978 33.3265 59.1464 33.613 59.1441C34.1187 59.145 34.6125 58.99 35.027 58.7002C35.4416 58.4104 35.7567 57.9999 35.9295 57.5246L49.0495 21.4446C49.2679 20.83 49.2355 20.1541 48.9593 19.5632C48.683 18.9723 48.1852 18.514 47.5735 18.2876Z" fill="#EF911F"/>
</g>
</g>
<defs>
<filter id="filter0_d_13_7695" x="-54.4905" y="-51.1002" width="189.327" height="179.489" filterUnits="userSpaceOnUse" color-interpolation-filters="sRGB">
<feFlood flood-opacity="0" result="BackgroundImageFix"/>
<feColorMatrix in="SourceAlpha" type="matrix" values="0 0 0 0 0 0 0 0 0 0 0 0 0 0 0 0 0 0 127 0" result="hardAlpha"/>
<feOffset/>
<feGaussianBlur stdDeviation="34.6222"/>
<feComposite in2="hardAlpha" operator="out"/>
<feColorMatrix type="matrix" values="0 0 0 0 0.121569 0 0 0 0 0.443137 0 0 0 0 0.823529 0 0 0 1 0"/>
<feBlend mode="normal" in2="BackgroundImageFix" result="effect1_dropShadow_13_7695"/>
<feBlend mode="normal" in="SourceGraphic" in2="effect1_dropShadow_13_7695" result="shape"/>
</filter>
<linearGradient id="paint0_linear_13_7695" x1="-13.5" y1="-4.38462" x2="86.3934" y2="78.5377" gradientUnits="userSpaceOnUse">
<stop stop-color="#F9BF14"/>
<stop offset="1" stop-color="#F97616"/>
</linearGradient>
<clipPath id="clip0_13_7695">
<path d="M0 13.1C0 5.86507 5.86507 0 13.1 0H64.88C72.126 0 78 5.87402 78 13.12V62.9C78 70.1349 72.1349 76 64.9 76H13.12C5.87402 76 0 70.126 0 62.88V13.1Z" fill="white"/>
</clipPath>
</defs>
</svg>
