<svg width="36" height="37" viewBox="0 0 36 37" fill="none" xmlns="http://www.w3.org/2000/svg">
<path d="M18 0.833984C8.1 0.833984 0 8.93398 0 18.834C0 28.734 8.1 36.834 18 36.834C27.9 36.834 36 28.734 36 18.834C36 8.93398 27.9 0.833984 18 0.833984ZM22.5 19.434H19.5C19.5 24.084 19.5 29.934 19.5 29.934H15.15C15.15 29.934 15.15 24.234 15.15 19.434H13.2V15.834H15.3V13.434C15.3 11.784 16.05 9.08398 19.65 9.08398H22.8V12.684C22.8 12.684 20.85 12.684 20.4 12.684C20.1 12.684 19.5 12.834 19.5 13.584V15.834H22.8L22.5 19.434Z" fill="white" fill-opacity="0.6"/>
</svg>
