<svg width="126" height="22" viewBox="0 0 126 22" fill="none" xmlns="http://www.w3.org/2000/svg">
<path d="M50.8197 15.8398V10.9854C50.8197 9.12853 49.6481 7.9126 47.6367 7.9126C46.6311 7.9126 45.5376 8.23308 44.7858 9.28877C44.1999 8.40274 43.3603 7.9126 42.1007 7.9126C41.2611 7.9126 40.4214 8.15767 39.7575 9.0437V8.07284H38V15.8398H39.7575V11.551C39.7575 10.1748 40.5093 9.52442 41.6809 9.52442C42.8525 9.52442 43.4384 10.2502 43.4384 11.551V15.8398H45.1958V11.551C45.1958 10.1748 46.0355 9.52442 47.1193 9.52442C48.2909 9.52442 48.8767 10.2502 48.8767 11.551V15.8398H50.8197ZM76.8887 8.07284H74.0377V5.72579H72.2803V8.07284H70.6888V9.60926H72.2803V13.1722C72.2803 14.9537 73.0321 16 75.0434 16C75.7952 16 76.6349 15.7549 77.2207 15.4344L76.713 13.9734C76.2053 14.2939 75.6194 14.3787 75.1996 14.3787C74.3599 14.3787 74.028 13.8886 74.028 13.0874V9.60926H76.879V8.07284H76.8887ZM91.8076 7.90317C90.802 7.90317 90.1283 8.39331 89.7084 9.03427V8.06341H87.951V15.8303H89.7084V11.4567C89.7084 10.1654 90.2942 9.43016 91.3878 9.43016C91.7197 9.43016 92.1396 9.515 92.4813 9.5904L92.989 7.96915C92.6375 7.90317 92.1396 7.90317 91.8076 7.90317ZM69.2633 8.7138C68.4236 8.14825 67.252 7.90317 65.9925 7.90317C63.9811 7.90317 62.6435 8.87404 62.6435 10.4105C62.6435 11.7018 63.6492 12.437 65.4066 12.6727L66.2463 12.7575C67.1641 12.9177 67.6718 13.1628 67.6718 13.5681C67.6718 14.1337 66.9981 14.539 65.8265 14.539C64.6548 14.539 63.7273 14.1337 63.1415 13.7284L62.3018 15.0197C63.2196 15.6701 64.4791 15.9906 65.7386 15.9906C68.0819 15.9906 69.4293 14.9349 69.4293 13.4833C69.4293 12.1071 68.3357 11.3813 66.6662 11.1362L65.8265 11.0514C65.0747 10.9666 64.4889 10.8063 64.4889 10.3256C64.4889 9.76007 65.0747 9.43959 66.0022 9.43959C67.0079 9.43959 68.0135 9.8449 68.5212 10.09L69.2633 8.7138ZM116.022 7.90317C115.016 7.90317 114.342 8.39331 113.922 9.03427V8.06341H112.165V15.8303H113.922V11.4567C113.922 10.1654 114.508 9.43016 115.602 9.43016C115.934 9.43016 116.353 9.515 116.695 9.5904L117.203 7.988C116.861 7.90317 116.363 7.90317 116.022 7.90317ZM93.5651 11.9563C93.5651 14.3033 95.2444 16 97.8416 16C99.0132 16 99.8529 15.7549 100.693 15.114L99.8529 13.7378C99.1792 14.2279 98.5153 14.4636 97.7537 14.4636C96.3282 14.4636 95.3225 13.4927 95.3225 11.9563C95.3225 10.4953 96.3282 9.52442 97.7537 9.44902C98.5055 9.44902 99.1792 9.69409 99.8529 10.1748L100.693 8.79863C99.8529 8.14824 99.0132 7.9126 97.8416 7.9126C95.2444 7.90317 93.5651 9.60925 93.5651 11.9563ZM109.822 11.9563V8.07284H108.064V9.0437C107.478 8.31791 106.639 7.9126 105.545 7.9126C103.28 7.9126 101.522 9.60925 101.522 11.9563C101.522 14.3033 103.28 16 105.545 16C106.717 16 107.556 15.5947 108.064 14.8689V15.8398H109.822V11.9563ZM103.368 11.9563C103.368 10.5801 104.286 9.44902 105.799 9.44902C107.224 9.44902 108.23 10.5047 108.23 11.9563C108.23 13.3325 107.224 14.4636 105.799 14.4636C104.295 14.3787 103.368 13.323 103.368 11.9563ZM82.3368 7.90317C79.9936 7.90317 78.3142 9.52442 78.3142 11.9469C78.3142 14.3787 79.9936 15.9906 82.4247 15.9906C83.5964 15.9906 84.768 15.6701 85.6956 14.9349L84.8559 13.7189C84.1822 14.2091 83.3425 14.5296 82.5126 14.5296C81.4191 14.5296 80.3353 14.0394 80.0814 12.6727H86.0275C86.0275 12.4276 86.0275 12.2674 86.0275 12.0223C86.1056 9.52442 84.5923 7.90317 82.3368 7.90317ZM82.3368 9.36418C83.4304 9.36418 84.1822 10.0146 84.3482 11.2211H80.1595C80.3255 10.1748 81.0773 9.36418 82.3368 9.36418ZM126 11.9563V5H124.243V9.0437C123.657 8.31791 122.817 7.9126 121.724 7.9126C119.458 7.9126 117.701 9.60925 117.701 11.9563C117.701 14.3033 119.458 16 121.724 16C122.895 16 123.735 15.5947 124.243 14.8689V15.8398H126V11.9563ZM119.546 11.9563C119.546 10.5801 120.464 9.44902 121.977 9.44902C123.403 9.44902 124.409 10.5047 124.409 11.9563C124.409 13.3325 123.403 14.4636 121.977 14.4636C120.464 14.3787 119.546 13.323 119.546 11.9563ZM60.7103 11.9563V8.07284H58.9528V9.0437C58.367 8.31791 57.5274 7.9126 56.4338 7.9126C54.1686 7.9126 52.4112 9.60925 52.4112 11.9563C52.4112 14.3033 54.1686 16 56.4338 16C57.6055 16 58.4451 15.5947 58.9528 14.8689V15.8398H60.7103V11.9563ZM54.1784 11.9563C54.1784 10.5801 55.0962 9.44902 56.6096 9.44902C58.0351 9.44902 59.0407 10.5047 59.0407 11.9563C59.0407 13.3325 58.0351 14.4636 56.6096 14.4636C55.0962 14.3787 54.1784 13.323 54.1784 11.9563Z" fill="#ACB3B6"/>
<path d="M22 3H13V19H22V3Z" fill="#ACB3B6"/>
<path d="M13.2338 11C13.2338 7.80583 14.7198 4.97087 17 3.13916C15.3219 1.80583 13.205 1 10.8959 1C5.42594 1 1 5.47249 1 11C1 16.5275 5.42594 21 10.8959 21C13.205 21 15.3219 20.1942 17 18.8608C14.7166 17.055 13.2338 14.1942 13.2338 11Z" fill="#ACB3B6" stroke="#364952"/>
<path d="M33 11C33 16.5275 28.5741 21 23.1041 21C20.795 21 18.6781 20.1942 17 18.8608C19.309 17.0259 20.7662 14.1942 20.7662 11C20.7662 7.80583 19.2802 4.97087 17 3.13916C18.6749 1.80583 20.7918 1 23.1009 1C28.5741 1 33 5.50162 33 11Z" fill="#ACB3B6" stroke="#364952"/>
</svg>
