<svg width="61" height="20" viewBox="0 0 61 20" fill="none" xmlns="http://www.w3.org/2000/svg">
<path d="M39.7315 0C35.4003 0 31.5297 2.27172 31.5297 6.46889C31.5297 11.2822 38.3943 11.6147 38.3943 14.0328C38.3943 15.051 37.2413 15.9624 35.2719 15.9624C32.4769 15.9624 30.388 14.6889 30.388 14.6889L29.4941 18.9243C29.4941 18.9243 31.9006 20 35.0955 20C39.8309 20 43.5571 17.6167 43.5571 13.3478C43.5571 8.26162 36.6639 7.93904 36.6639 5.69465C36.6639 4.89706 37.6105 4.02316 39.5742 4.02316C41.7899 4.02316 43.5976 4.94935 43.5976 4.94935L44.4724 0.858659C44.4724 0.858659 42.5054 0 39.7315 0ZM0.104877 0.308732L0 0.926194C0 0.926194 1.82216 1.26365 3.46331 1.93681C5.57643 2.70871 5.72696 3.15808 6.08284 4.55379L9.96089 19.6816H15.1594L23.1682 0.308732H17.9816L12.8355 13.4805L10.7355 2.31549C10.543 1.03766 9.56748 0.308732 8.37344 0.308732H0.104877ZM25.2538 0.308732L21.1851 19.6816H26.1309L30.1854 0.308732H25.2538ZM52.8387 0.308732C51.6461 0.308732 51.0142 0.954854 50.5505 2.08394L43.3045 19.6816H48.4911L49.4946 16.7487H55.8134L56.4236 19.6816H61L57.0075 0.308732H52.8387ZM53.5132 5.54269L55.0506 12.8124H50.9319L53.5132 5.54269Z" fill="#ACB3B6"/>
</svg>
