<svg width="55" height="20" viewBox="0 0 55 20" fill="none" xmlns="http://www.w3.org/2000/svg">
<path d="M55 7.00061V16H51.6249V9.68712H48.3751V16H45V7H55V7.00061Z" fill="#ACB3B6"/>
<path fill-rule="evenodd" clip-rule="evenodd" d="M38.5704 16C41.6862 16 44 14.2165 44 11.5128C44 8.89595 42.2929 7.19686 39.4399 7.19686C38.1232 7.19686 37.0368 7.62954 36.2185 8.37611C36.4138 6.83303 37.8116 5.70651 39.3505 5.70651C39.7057 5.70651 42.3796 5.70124 42.3796 5.70124L43.8917 3C43.8917 3 40.5347 3.07134 38.9741 3.07134C35.4085 3.12934 33 6.15501 33 9.82986C33 14.1111 35.349 16 38.5704 16ZM38.5894 9.58948C39.7463 9.58948 40.5483 10.2991 40.5483 11.5125C40.5483 12.6046 39.8356 13.5044 38.5894 13.5069C37.3973 13.5069 36.5952 12.6732 36.5952 11.5311C36.5952 10.3174 37.3973 9.58948 38.5894 9.58948Z" fill="#ACB3B6"/>
<path d="M30.5863 12.8449C30.5863 12.8449 29.7892 13.2985 28.5988 13.3844C27.2302 13.4245 26.0107 12.571 26.0107 11.0545C26.0107 9.57528 27.0868 8.72751 28.5643 8.72751C29.4703 8.72751 30.6688 9.34751 30.6688 9.34751C30.6688 9.34751 31.5457 7.75853 32 6.96388C31.1681 6.34134 30.0602 6 28.7715 6C25.5191 6 23 8.09383 23 11.0357C23 14.0152 25.3677 16.0604 28.7715 15.9986C29.7229 15.9636 31.0354 15.6338 31.8354 15.1264L30.5863 12.8449Z" fill="#ACB3B6"/>
<path d="M0 4L2 8.21778V10.7905L0.00233966 15L0 4Z" fill="#ACB3B6"/>
<path d="M10 7.3177L12.2977 6.00409L17 6L10 10V7.3177Z" fill="#ACB3B6"/>
<path d="M8.98943 4.30224L9 10L7 8.51716V0L8.98956 4.30224H8.98943Z" fill="#ACB3B6"/>
<path d="M16 5.99545L11.5251 6L9.32647 4.54273L7 0L15.9998 5.99545H16Z" fill="#ACB3B6"/>
<path d="M9 15.4538V12.5356L7 11L7.0011 20L9 15.4538Z" fill="#ACB3B6"/>
<path d="M11.4179 14L2.39137 8.35698L0 4L16 13.9943L11.4177 14H11.4179Z" fill="#ACB3B6"/>
<path d="M7 20L9.34011 15.4527L11.5238 14.0059L16 14L7 20Z" fill="#ACB3B6"/>
<path d="M0 16L7 11.5114L4.64663 10L2.4582 11.4044L0 16Z" fill="#ACB3B6"/>
</svg>
