<svg width="88" height="19" viewBox="0 0 88 19" fill="none" xmlns="http://www.w3.org/2000/svg">
<path d="M79 9.39538C79 6.96554 77.1183 5 74.4604 5C71.8551 5 70 6.89001 70 9.487C70 12.097 71.9077 14 74.6448 14C76.3814 14 77.8418 13.241 78.7497 11.6983L76.9079 10.8626C76.4739 11.6339 75.5261 12.1354 74.6448 12.1354C73.5265 12.1354 72.2372 11.3126 72.158 10.1686H78.9341C78.9773 9.913 78.9993 9.65443 79 9.39538ZM72.1973 8.6525C72.3557 7.49546 73.1711 6.7371 74.4737 6.7371C75.763 6.7371 76.5525 7.47998 76.6577 8.6525H72.1973Z" fill="#ACB3B6"/>
<path d="M53.4678 5C50.8538 5 49 6.87763 49 9.526C49 12.1484 50.8538 14 53.4938 14C56.1462 14 58 12.1484 58 9.56438C58 6.90301 56.0947 5 53.4678 5ZM53.4938 12.0326C52.18 12.0326 51.369 11.0557 51.369 9.53838C51.369 7.99567 52.193 6.94139 53.4938 6.94139C54.807 6.94139 55.631 7.98267 55.631 9.53838C55.631 11.0687 54.82 12.0326 53.4938 12.0326Z" fill="#ACB3B6"/>
<path d="M43.638 5.00015C42.5437 5.00015 41.7193 5.37333 40.895 6.29868H40.6244C40.0706 5.46314 39.1671 5.00015 38.1533 5.00015C37.6471 4.99521 37.147 5.11036 36.6941 5.33612C36.2413 5.56188 35.8486 5.89178 35.5484 6.29868H35.2779L35.2646 6.28603V5.18042H33V14H35.4471V9.46118C35.4471 7.99567 36.0655 7.13421 37.1344 7.13421C38.126 7.13421 38.7698 7.86728 38.7698 8.98554V14H41.2296V9.46118C41.2296 8.00643 41.848 7.13421 42.9302 7.13421C43.9085 7.13421 44.5396 7.86728 44.5396 8.99882V14H47V8.70281C47 6.40177 45.7632 5.00015 43.638 5.00015Z" fill="#ACB3B6"/>
<path d="M83.5392 10.6575H83.3753C83.3753 10.5035 82.3754 7.7614 81.7199 6.06246L81.3103 5H79L82.2775 13.6891L80.9861 17H83.2803L88 5.0031H85.6885L85.3115 5.91157L84.0332 9.2194C83.6728 10.1434 83.5249 10.5718 83.5392 10.6575Z" fill="#ACB3B6"/>
<path d="M63.8568 5C62.8371 5 61.9615 5.47565 61.3738 6.32448H61.1336L61.11 6.31183V5.18027H59V14H61.2788V9.48703C61.2788 8.04744 61.9279 7.14674 62.9941 7.14674C63.9895 7.14674 64.7212 7.94371 64.7212 9.20367V13.9994H67V8.67742C67 6.51739 65.6806 5 63.8568 5Z" fill="#ACB3B6"/>
<path d="M17.4994 0C12.2324 0 8 4.275 8 9.5C8 14.7681 12.2741 19 17.4981 19C22.7222 19 27 14.725 27 9.5C27 4.275 22.7234 0 17.4994 0ZM17.4994 13.041C15.5564 13.041 13.9594 11.4431 13.9594 9.5C13.9594 7.55693 15.5564 5.95903 17.4994 5.95903C19.4423 5.95903 21.0399 7.55693 21.0399 9.5C20.9964 11.4431 19.4423 13.041 17.4994 13.041Z" fill="#ACB3B6"/>
<path d="M8 3V17H4.49556L0 3H8Z" fill="#ACB3B6"/>
</svg>
