<svg width="55" height="20" viewBox="0 0 55 20" fill="none" xmlns="http://www.w3.org/2000/svg">
<path d="M36.609 3.48387V12.534C36.609 12.6774 36.4978 12.7849 36.3494 12.7849H34.4399C34.2916 12.7849 34.1803 12.6774 34.1803 12.534V3.48387C34.1803 3.3405 34.2916 3.23298 34.4399 3.23298H36.3494C36.4978 3.23298 36.609 3.3405 36.609 3.48387ZM51.5331 3.23298H49.4011C49.2899 3.23298 49.1972 3.30466 49.1601 3.41219L47.473 8.77061L45.6191 3.41219C45.582 3.30466 45.4893 3.2509 45.3781 3.2509H43.8764C43.7652 3.2509 43.6725 3.32258 43.6354 3.41219L41.7815 8.77061L40.0573 3.41219C40.0202 3.30466 39.9275 3.23298 39.8163 3.23298H37.6843C37.6101 3.23298 37.5174 3.26882 37.4803 3.3405C37.4247 3.41219 37.4247 3.48387 37.4433 3.55556L40.5949 12.6237C40.632 12.7312 40.7247 12.7849 40.836 12.7849H42.5416C42.6528 12.7849 42.7455 12.7133 42.7826 12.6237L44.618 7.33692L46.4534 12.6237C46.4904 12.7312 46.5831 12.7849 46.6944 12.7849H48.4C48.5112 12.7849 48.6039 12.7133 48.641 12.6237L51.7927 3.55556C51.8112 3.48387 51.8112 3.39427 51.7556 3.3405C51.6815 3.26882 51.6073 3.23298 51.5331 3.23298ZM54.7405 3.23298H52.8309C52.6826 3.23298 52.5713 3.3405 52.5713 3.48387V12.534C52.5713 12.6774 52.6826 12.7849 52.8309 12.7849H54.7405C54.8888 12.7849 55 12.6774 55 12.534V3.48387C55 3.3405 54.8888 3.23298 54.7405 3.23298ZM33.0865 12.4624C33.1978 12.5878 33.1051 12.767 32.9382 12.767H30.6022C30.5096 12.767 30.4169 12.7312 30.3612 12.6595L29.9719 12.1935C29.1562 12.6953 28.1921 13 27.1725 13C24.3174 13 22 10.7599 22 8C22 5.24014 24.3174 3 27.1725 3C30.0275 3 32.3449 5.24014 32.3449 8C32.3449 8.98566 32.0483 9.91756 31.5292 10.7061L33.0865 12.4624ZM28.4331 10.4552L27.4135 9.25448C27.3022 9.12903 27.3949 8.9319 27.5618 8.9319H29.7124C29.8236 8.64516 29.8792 8.32258 29.8792 8C29.8792 6.51254 28.7298 5.22222 27.1539 5.22222C25.5781 5.22222 24.4287 6.51254 24.4287 8C24.4287 9.48745 25.5781 10.7599 27.1539 10.7599C27.6174 10.7778 28.0624 10.6523 28.4331 10.4552Z" fill="#ACB3B6"/>
<path d="M15.3958 14.0149C15.5049 14.0149 15.6321 13.8485 15.5776 13.4602C15.5412 13.2198 15.414 12.7206 15.105 12.6097C14.9414 12.5542 14.796 12.6097 14.7414 12.7206C14.6324 12.887 14.7051 13.2383 14.905 13.5526C15.105 13.8485 15.2686 14.0149 15.3958 14.0149Z" fill="#ACB3B6"/>
<path d="M14.1052 15.3276C14.3052 15.0503 14.1779 14.6435 13.7962 14.3107C13.5963 14.1443 13.3782 14.0519 13.1782 14.0703C12.9965 14.0703 12.851 14.1258 12.7602 14.2367C12.5239 14.5141 12.6329 15.0318 12.9783 15.3461C13.1419 15.494 13.36 15.568 13.5781 15.568C13.8144 15.568 13.9962 15.4755 14.1052 15.3276Z" fill="#ACB3B6"/>
<path d="M18.6495 19.9314C16.6318 18.1195 14.8141 17.5278 13.1419 17.5278C11.2697 17.5278 9.99727 17.7867 8.74307 17.7867C3.90802 17.7867 0 13.793 0 8.89335C0 3.99369 3.90802 0.0184893 8.72489 0C13.5599 0 17.468 3.99369 17.468 8.89335C17.468 10.5759 17.0135 12.129 16.2319 13.4602C16.2138 13.5157 16.141 13.4972 16.141 13.4417C15.832 11.26 14.5233 10.0582 12.6147 9.70687C12.4511 9.68838 12.4148 9.57745 12.6329 9.55896C13.2146 9.50349 14.0507 9.52198 14.4688 9.59594C14.487 9.37407 14.5051 9.13371 14.5051 8.91183C14.5051 5.65772 11.9058 3.03224 8.72489 3.03224C5.54394 3.03224 2.96283 5.63923 2.96283 8.89335C2.96283 12.1475 5.56212 14.7729 8.74307 14.7729H9.01572C8.92484 14.1998 8.88848 13.6266 8.90666 13.1829C8.90666 12.8316 8.97937 12.7761 9.14296 13.0534C9.94274 14.4586 11.0879 15.7344 13.3236 16.2336C15.1413 16.6404 16.959 17.1211 18.9403 19.6541C19.122 19.8945 18.8494 20.1163 18.6495 19.9314Z" fill="#ACB3B6"/>
</svg>
