<svg width="30" height="30" viewBox="0 0 30 30" fill="none" xmlns="http://www.w3.org/2000/svg">
<g clip-path="url(#clip0_9387_11877)">
<path d="M15.3066 12.2715V18.0805H23.5441C23.1824 19.9487 22.0969 21.5305 20.4689 22.5941L25.4365 26.3714C28.3307 23.7533 30.0005 19.9079 30.0005 15.3398C30.0005 14.2762 29.9031 13.2534 29.7222 12.2716L15.3066 12.2715Z" fill="white"/>
<path d="M6.7287 17.8555L5.60833 18.6959L1.64258 21.7231C4.16113 26.6185 9.3231 30.0003 15.3064 30.0003C19.4389 30.0003 22.9037 28.6639 25.4362 26.3731L20.4687 22.5959C19.105 23.4958 17.3657 24.0413 15.3064 24.0413C11.3268 24.0413 7.94562 21.4096 6.73495 17.8641L6.7287 17.8555Z" fill="white"/>
<path d="M1.64181 8.27734C0.59827 10.2954 0 12.5727 0 14.9999C0 17.4271 0.59827 19.7044 1.64181 21.7225C1.64181 21.736 6.73468 17.8498 6.73468 17.8498C6.42856 16.9498 6.24762 15.9953 6.24762 14.9997C6.24762 14.0042 6.42856 13.0497 6.73468 12.1497L1.64181 8.27734Z" fill="white"/>
<path d="M15.3067 5.97265C17.5609 5.97265 19.5646 6.73625 21.1648 8.20898L25.5479 3.91364C22.8901 1.48644 19.4394 0 15.3067 0C9.32342 0 4.16113 3.36813 1.64258 8.27718L6.73529 12.1499C7.94579 8.60441 11.3271 5.97265 15.3067 5.97265Z" fill="white"/>
</g>
<defs>
<clipPath id="clip0_9387_11877">
<rect width="30" height="30" fill="white"/>
</clipPath>
</defs>
</svg>
