<svg width="30" height="30" viewBox="0 0 30 30" fill="none" xmlns="http://www.w3.org/2000/svg">
<g clip-path="url(#clip0_9433_11604)">
<path d="M12.4127 23.079L16.2598 19.3359L12.4127 15.5928L8.56563 19.3359L12.4127 23.079Z" fill="white"/>
<path d="M12.4379 7.04249L15.3481 4.21094L12.4379 1.37939L9.52774 4.21094L12.4379 7.04249Z" fill="white"/>
<path d="M4.67832 23.0556L8.52539 19.3125L4.67832 15.5694L0.831255 19.3125L4.67832 23.0556Z" fill="white"/>
<path d="M4.67832 7.95403L8.52539 4.21094L4.67832 0.467845L0.831255 4.21094L4.67832 7.95403Z" fill="white"/>
<path d="M12.413 29.5317L15.0913 26.9258L12.413 24.3199L9.73469 26.9258L12.413 29.5317Z" fill="white"/>
<path d="M12.4125 14.6299L15.3223 11.7988L12.4125 8.96774L9.5028 11.7988L12.4125 14.6299Z" fill="white"/>
<path d="M4.67897 29.4099L7.29834 26.8613L4.67897 24.3128L2.05961 26.8613L4.67897 29.4099Z" fill="white"/>
<path d="M4.67832 15.5048L8.52539 11.7617L4.67832 8.01863L0.831256 11.7617L4.67832 15.5048Z" fill="white"/>
<path d="M20.1465 20.3072L21.1167 19.3633L20.1465 18.4193L19.1763 19.3633L20.1465 20.3072Z" fill="white"/>
<path d="M20.1462 6.14948L22.0864 4.26172L20.1462 2.37396L18.206 4.26172L20.1462 6.14948Z" fill="white"/>
<path d="M27.9263 20.3072L28.8965 19.3633L27.9263 18.4193L26.9561 19.3633L27.9263 20.3072Z" fill="white"/>
<path d="M24.0459 24.0631L25.0161 23.1191L24.0459 22.1752L23.0757 23.1191L24.0459 24.0631Z" fill="white"/>
<path d="M17.2559 24.0631L18.2261 23.1191L17.2559 22.1752L16.2857 23.1191L17.2559 24.0631Z" fill="white"/>
<path d="M27.9278 6.12921L29.8472 4.26172L27.9278 2.39423L26.0084 4.26172L27.9278 6.12921Z" fill="white"/>
<path d="M20.1465 27.8385L21.1167 26.8945L20.1465 25.9506L19.1763 26.8945L20.1465 27.8385Z" fill="white"/>
<path d="M20.1449 13.701L22.106 11.793L20.1449 9.88493L18.1839 11.793L20.1449 13.701Z" fill="white"/>
<path d="M27.9263 27.8385L28.8965 26.8945L27.9263 25.9506L26.9561 26.8945L27.9263 27.8385Z" fill="white"/>
<path d="M27.9265 13.6807L29.8667 11.793L27.9265 9.90521L25.9863 11.793L27.9265 13.6807Z" fill="white"/>
<path d="M24.0461 9.90534L25.9863 8.01758L24.0461 6.12982L22.1059 8.01758L24.0461 9.90534Z" fill="white"/>
<path d="M24.0461 17.4561L25.9863 15.5684L24.0461 13.6806L22.1059 15.5684L24.0461 17.4561Z" fill="white"/>
<path d="M17.2556 17.4561L19.1958 15.5684L17.2556 13.6806L15.3154 15.5684L17.2556 17.4561Z" fill="white"/>
<path d="M16.2859 9.90534L18.2261 8.01758L16.2859 6.12982L14.3457 8.01758L16.2859 9.90534Z" fill="white"/>
</g>
<defs>
<clipPath id="clip0_9433_11604">
<rect width="30" height="30" fill="white"/>
</clipPath>
</defs>
</svg>
