<svg width="82" height="76" viewBox="0 0 82 76" fill="none" xmlns="http://www.w3.org/2000/svg">
<g clip-path="url(#clip0_32_2489)">
<path d="M1.64001 35.2444C1.64001 18.7074 1.64001 10.4228 6.77944 5.29956C11.9026 0.160156 20.1873 0.160156 36.7242 0.160156H40.3558C56.8929 0.160156 65.1612 0.160156 70.3006 5.29956C75.44 10.439 75.44 18.7074 75.44 35.2444V38.8759C75.44 55.413 75.44 63.6814 70.3006 68.8206C65.1612 73.9602 56.8929 73.9602 40.3558 73.9602H36.7242C20.1873 73.9602 11.9189 73.9602 6.77944 68.8206C1.64001 63.6814 1.64001 55.413 1.64001 38.8759V35.2444Z" fill="#0077FF"/>
<path d="M41.6803 60.9928C54.9768 60.9928 65.756 50.2137 65.756 36.9171C65.756 23.6204 54.9768 12.8413 41.6803 12.8413C28.3835 12.8413 17.6044 23.6204 17.6044 36.9171C17.6044 50.2137 28.3835 60.9928 41.6803 60.9928Z" fill="#00D9ED"/>
<path fill-rule="evenodd" clip-rule="evenodd" d="M64.0958 9.90976V14.5303H68.6515C71.2456 14.5303 72.5749 17.6432 70.7753 19.5076L64.5336 26.0251C63.9821 26.6088 63.204 26.933 62.4098 26.933H56.5082L50.3962 33.5153C50.8337 34.5691 51.0933 35.7367 51.0933 36.9525C51.0933 41.8325 47.1373 45.7882 42.2572 45.7882C37.3774 45.7882 33.4214 41.8325 33.4214 36.9525C33.4214 32.0725 37.3774 28.1166 42.2572 28.1166C43.0842 28.1166 43.8949 28.2301 44.6568 28.4408L51.677 20.8857V16.0381C51.677 15.2275 52.0174 14.4493 52.6011 13.8981L59.1186 7.75348C60.9991 5.9863 64.0795 7.31572 64.0795 9.89355L64.0958 9.90976Z" fill="white"/>
</g>
<defs>
<clipPath id="clip0_32_2489">
<rect width="82" height="75.44" fill="white" transform="translate(0 0.160156)"/>
</clipPath>
</defs>
</svg>
