<svg width="36" height="37" viewBox="0 0 36 37" fill="none" xmlns="http://www.w3.org/2000/svg">
<path d="M18 0.833984C8.1 0.833984 0 8.93398 0 18.834C0 28.734 8.1 36.834 18 36.834C27.9 36.834 36 28.734 36 18.834C36 8.93398 27.9 0.833984 18 0.833984ZM28.35 26.784H25.2C25.2 26.784 24.45 26.934 23.7 26.334C22.5 25.584 21.45 23.484 20.55 23.634C19.5 23.934 19.5 25.884 19.5 25.884C19.5 25.884 19.5 26.334 19.35 26.484C19.2 26.784 18.75 26.784 18.75 26.784H17.4C17.4 26.784 14.25 26.934 11.55 24.084C8.55 20.934 5.85 14.784 5.85 14.784C5.85 14.784 5.7 14.334 5.85 14.184C6 13.884 6.6 13.884 6.6 13.884H10.05C10.05 13.884 10.35 13.884 10.65 14.034C10.8 14.184 10.95 14.484 10.95 14.484C10.95 14.484 11.25 15.834 12 17.184C13.35 19.584 14.1 20.184 14.55 19.884C15.3 19.434 15 16.434 15 16.434C15 16.434 15 15.384 14.7 14.784C14.4 14.484 13.95 14.334 13.65 14.334C13.5 14.184 13.8 13.734 14.1 13.584C14.7 13.284 15.75 13.284 17.1 13.284C18.15 13.284 18.3 13.284 18.75 13.434C19.95 13.734 19.5 14.784 19.5 17.334C19.5 18.234 19.35 19.284 19.95 19.734C20.25 19.884 20.85 19.734 22.35 17.034C23.25 15.834 23.85 14.334 23.85 14.334C23.85 14.334 24 14.034 24.15 13.884C24.3 13.734 24.6 13.734 24.6 13.734H28.2C28.2 13.734 29.25 13.584 29.4 14.034C29.55 14.484 28.95 15.684 27.6 17.634C25.2 20.784 24.9 20.484 27 22.284C28.95 24.084 29.25 24.834 29.4 24.984C30 26.634 28.35 26.784 28.35 26.784Z" fill="white" fill-opacity="0.6"/>
</svg>
