<svg width="744" height="42" viewBox="0 0 744 42" fill="none" xmlns="http://www.w3.org/2000/svg">
<path d="M0 24.2031C0 16.0115 0 11.9157 1.59419 8.78697C2.99648 6.03482 5.23404 3.79726 7.98619 2.39497C11.115 0.800781 15.2108 0.800781 23.4023 0.800781H720.598C728.789 0.800781 732.885 0.800781 736.014 2.39497C738.766 3.79726 741.004 6.03482 742.406 8.78697C744 11.9157 744 16.0115 744 24.2031V41.8008H0V24.2031Z" fill="white"/>
<path fill-rule="evenodd" clip-rule="evenodd" d="M20.477 30.0535C25.3238 30.0535 29.2529 26.1244 29.2529 21.2776C29.2529 16.4308 25.3238 12.5017 20.477 12.5017C15.6303 12.5017 11.7012 16.4308 11.7012 21.2776C11.7012 26.1244 15.6303 30.0535 20.477 30.0535Z" fill="#EC6A5E"/>
<path d="M28.8873 21.2776C28.8873 25.9224 25.1219 29.6878 20.477 29.6878C15.8322 29.6878 12.0668 25.9224 12.0668 21.2776C12.0668 16.6328 15.8322 12.8674 20.477 12.8674C25.1219 12.8674 28.8873 16.6328 28.8873 21.2776Z" stroke="black" stroke-opacity="0.12" stroke-width="0.731323"/>
<path fill-rule="evenodd" clip-rule="evenodd" d="M49.73 30.0535C54.5768 30.0535 58.5059 26.1244 58.5059 21.2776C58.5059 16.4308 54.5768 12.5017 49.73 12.5017C44.8832 12.5017 40.9541 16.4308 40.9541 21.2776C40.9541 26.1244 44.8832 30.0535 49.73 30.0535Z" fill="#F5BF4F"/>
<path d="M58.1402 21.2776C58.1402 25.9224 54.3748 29.6878 49.73 29.6878C45.0851 29.6878 41.3198 25.9224 41.3198 21.2776C41.3198 16.6328 45.0851 12.8674 49.73 12.8674C54.3748 12.8674 58.1402 16.6328 58.1402 21.2776Z" stroke="black" stroke-opacity="0.12" stroke-width="0.731323"/>
<path fill-rule="evenodd" clip-rule="evenodd" d="M78.9829 30.0535C83.8297 30.0535 87.7588 26.1244 87.7588 21.2776C87.7588 16.4308 83.8297 12.5017 78.9829 12.5017C74.1361 12.5017 70.207 16.4308 70.207 21.2776C70.207 26.1244 74.1361 30.0535 78.9829 30.0535Z" fill="#61C554"/>
<path d="M87.3931 21.2776C87.3931 25.9224 83.6277 29.6878 78.9829 29.6878C74.3381 29.6878 70.5727 25.9224 70.5727 21.2776C70.5727 16.6328 74.3381 12.8674 78.9829 12.8674C83.6277 12.8674 87.3931 16.6328 87.3931 21.2776Z" stroke="black" stroke-opacity="0.12" stroke-width="0.731323"/>
<path d="M213.434 26.7891V15.526H217.943C218.772 15.526 219.463 15.6488 220.017 15.8945C220.57 16.1401 220.986 16.4811 221.265 16.9174C221.544 17.35 221.683 17.8486 221.683 18.4133C221.683 18.8532 221.595 19.24 221.419 19.5737C221.243 19.9036 221.001 20.1749 220.693 20.3876C220.389 20.5966 220.04 20.7451 219.648 20.8331V20.943C220.077 20.9614 220.479 21.0824 220.853 21.306C221.23 21.5297 221.536 21.8431 221.771 22.2464C222.006 22.6461 222.123 23.1227 222.123 23.6763C222.123 24.2739 221.975 24.8074 221.678 25.2767C221.384 25.7423 220.95 26.1108 220.374 26.3821C219.799 26.6534 219.089 26.7891 218.246 26.7891H213.434ZM215.815 24.8422H217.756C218.42 24.8422 218.904 24.7157 219.208 24.4628C219.513 24.2061 219.665 23.8651 219.665 23.4398C219.665 23.1282 219.59 22.8532 219.439 22.6149C219.289 22.3766 219.074 22.1896 218.796 22.054C218.521 21.9183 218.193 21.8505 217.811 21.8505H215.815V24.8422ZM215.815 20.2391H217.58C217.907 20.2391 218.196 20.1823 218.449 20.0686C218.706 19.9513 218.908 19.7863 219.054 19.5737C219.205 19.361 219.28 19.1062 219.28 18.8092C219.28 18.4023 219.135 18.0741 218.845 17.8248C218.559 17.5755 218.152 17.4508 217.624 17.4508H215.815V20.2391ZM225.975 26.9485C225.436 26.9485 224.956 26.8551 224.534 26.6681C224.113 26.4774 223.779 26.1969 223.534 25.8266C223.292 25.4527 223.171 24.987 223.171 24.4298C223.171 23.9605 223.257 23.5663 223.429 23.2474C223.601 22.9284 223.836 22.6717 224.133 22.4774C224.43 22.2831 224.767 22.1364 225.145 22.0375C225.526 21.9385 225.926 21.8688 226.344 21.8285C226.835 21.7771 227.231 21.7295 227.532 21.6855C227.832 21.6378 228.051 21.5682 228.186 21.4765C228.322 21.3848 228.39 21.2492 228.39 21.0695V21.0365C228.39 20.6882 228.28 20.4188 228.06 20.2281C227.843 20.0375 227.535 19.9421 227.136 19.9421C226.714 19.9421 226.379 20.0356 226.129 20.2226C225.88 20.4059 225.715 20.6369 225.634 20.9155L223.468 20.7396C223.578 20.2263 223.794 19.7826 224.116 19.4087C224.439 19.031 224.855 18.7414 225.365 18.5397C225.878 18.3344 226.472 18.2318 227.147 18.2318C227.616 18.2318 228.065 18.2868 228.494 18.3968C228.927 18.5067 229.31 18.6772 229.644 18.9082C229.981 19.1392 230.247 19.4362 230.441 19.7991C230.635 20.1584 230.732 20.5892 230.732 21.0915V26.7891H228.511V25.6177H228.445C228.309 25.8816 228.128 26.1145 227.9 26.3161C227.673 26.5141 227.4 26.6699 227.081 26.7836C226.762 26.8936 226.393 26.9485 225.975 26.9485ZM226.646 25.3317C226.991 25.3317 227.295 25.2639 227.559 25.1282C227.823 24.9889 228.03 24.8019 228.181 24.5672C228.331 24.3326 228.406 24.0668 228.406 23.7698V22.8734C228.333 22.921 228.232 22.965 228.104 23.0054C227.979 23.042 227.838 23.0769 227.68 23.1099C227.523 23.1392 227.365 23.1667 227.207 23.1924C227.05 23.2144 226.907 23.2345 226.778 23.2529C226.503 23.2932 226.263 23.3573 226.058 23.4453C225.853 23.5333 225.693 23.6525 225.579 23.8028C225.466 23.9495 225.409 24.1328 225.409 24.3528C225.409 24.6717 225.524 24.9156 225.755 25.0842C225.99 25.2492 226.287 25.3317 226.646 25.3317ZM232.488 18.3418H234.726V24.9302H237.108V18.3418H239.346V24.9302H241.727V18.3418H243.966V26.7891H232.488V18.3418ZM250.983 21.2345V23.0934H245.846V21.2345H250.983ZM256.734 26.954C255.869 26.954 255.125 26.7707 254.501 26.4041C253.882 26.0338 253.405 25.5205 253.071 24.8642C252.741 24.2079 252.576 23.4527 252.576 22.5984C252.576 21.7331 252.743 20.9742 253.077 20.3216C253.414 19.6653 253.893 19.1539 254.512 18.7872C255.132 18.4169 255.869 18.2318 256.723 18.2318C257.46 18.2318 258.105 18.3656 258.659 18.6332C259.213 18.9009 259.651 19.2767 259.973 19.7606C260.296 20.2446 260.474 20.8129 260.507 21.4655H258.296C258.234 21.0439 258.069 20.7047 257.801 20.4481C257.537 20.1878 257.191 20.0576 256.762 20.0576C256.399 20.0576 256.081 20.1566 255.81 20.3546C255.543 20.5489 255.334 20.8331 255.183 21.207C255.033 21.581 254.958 22.0338 254.958 22.5654C254.958 23.1044 255.031 23.5627 255.178 23.9403C255.328 24.3179 255.539 24.6057 255.81 24.8037C256.081 25.0017 256.399 25.1007 256.762 25.1007C257.029 25.1007 257.269 25.0457 257.482 24.9357C257.698 24.8257 257.876 24.6662 258.015 24.4573C258.158 24.2446 258.252 23.9898 258.296 23.6928H260.507C260.47 24.3381 260.294 24.9064 259.979 25.3977C259.667 25.8853 259.236 26.2666 258.686 26.5416C258.136 26.8166 257.486 26.954 256.734 26.954ZM264.354 26.9485C263.815 26.9485 263.334 26.8551 262.913 26.6681C262.491 26.4774 262.157 26.1969 261.912 25.8266C261.67 25.4527 261.549 24.987 261.549 24.4298C261.549 23.9605 261.635 23.5663 261.807 23.2474C261.98 22.9284 262.214 22.6717 262.511 22.4774C262.808 22.2831 263.146 22.1364 263.523 22.0375C263.904 21.9385 264.304 21.8688 264.722 21.8285C265.213 21.7771 265.609 21.7295 265.91 21.6855C266.211 21.6378 266.429 21.5682 266.564 21.4765C266.7 21.3848 266.768 21.2492 266.768 21.0695V21.0365C266.768 20.6882 266.658 20.4188 266.438 20.2281C266.222 20.0375 265.914 19.9421 265.514 19.9421C265.092 19.9421 264.757 20.0356 264.508 20.2226C264.258 20.4059 264.093 20.6369 264.013 20.9155L261.846 20.7396C261.956 20.2263 262.172 19.7826 262.495 19.4087C262.817 19.031 263.234 18.7414 263.743 18.5397C264.256 18.3344 264.85 18.2318 265.525 18.2318C265.994 18.2318 266.443 18.2868 266.872 18.3968C267.305 18.5067 267.688 18.6772 268.022 18.9082C268.359 19.1392 268.625 19.4362 268.819 19.7991C269.014 20.1584 269.111 20.5892 269.111 21.0915V26.7891H266.889V25.6177H266.823C266.687 25.8816 266.506 26.1145 266.278 26.3161C266.051 26.5141 265.778 26.6699 265.459 26.7836C265.14 26.8936 264.772 26.9485 264.354 26.9485ZM265.025 25.3317C265.369 25.3317 265.674 25.2639 265.937 25.1282C266.201 24.9889 266.409 24.8019 266.559 24.5672C266.709 24.3326 266.784 24.0668 266.784 23.7698V22.8734C266.711 22.921 266.61 22.965 266.482 23.0054C266.357 23.042 266.216 23.0769 266.058 23.1099C265.901 23.1392 265.743 23.1667 265.586 23.1924C265.428 23.2144 265.285 23.2345 265.157 23.2529C264.882 23.2932 264.641 23.3573 264.436 23.4453C264.231 23.5333 264.071 23.6525 263.958 23.8028C263.844 23.9495 263.787 24.1328 263.787 24.3528C263.787 24.6717 263.903 24.9156 264.134 25.0842C264.368 25.2492 264.665 25.3317 265.025 25.3317ZM273.105 23.6983L276.146 18.3418H278.456V26.7891H276.223V21.416L273.193 26.7891H270.866V18.3418H273.105V23.6983ZM275.744 15.394H277.378C277.374 16.0613 277.127 16.5984 276.635 17.0054C276.148 17.4123 275.488 17.6158 274.656 17.6158C273.82 17.6158 273.158 17.4123 272.67 17.0054C272.183 16.5984 271.939 16.0613 271.939 15.394H273.561C273.557 15.647 273.638 15.8743 273.803 16.0759C273.972 16.2776 274.256 16.3784 274.656 16.3784C275.044 16.3784 275.323 16.2794 275.492 16.0814C275.66 15.8835 275.744 15.6543 275.744 15.394ZM279.424 20.1841V18.3418H287.079V20.1841H284.357V26.7891H282.124V20.1841H279.424ZM288.657 26.9321C288.294 26.9321 287.983 26.8037 287.722 26.5471C287.466 26.2868 287.337 25.9751 287.337 25.6122C287.337 25.2529 287.466 24.9449 287.722 24.6882C287.983 24.4316 288.294 24.3033 288.657 24.3033C289.009 24.3033 289.317 24.4316 289.581 24.6882C289.845 24.9449 289.977 25.2529 289.977 25.6122C289.977 25.8541 289.915 26.076 289.79 26.2776C289.669 26.4756 289.51 26.6351 289.312 26.7561C289.114 26.8734 288.896 26.9321 288.657 26.9321ZM291.839 26.7891V18.3418H294.11V19.8156H294.198C294.352 19.2913 294.61 18.8954 294.973 18.6277C295.336 18.3564 295.754 18.2208 296.227 18.2208C296.345 18.2208 296.471 18.2281 296.607 18.2428C296.742 18.2574 296.862 18.2776 296.964 18.3033V20.3821C296.854 20.3491 296.702 20.3198 296.508 20.2941C296.313 20.2684 296.136 20.2556 295.974 20.2556C295.63 20.2556 295.322 20.3308 295.05 20.4811C294.783 20.6277 294.57 20.8331 294.412 21.097C294.258 21.361 294.181 21.6653 294.181 22.01V26.7891H291.839ZM303.531 23.1924V18.3418H305.873V26.7891H303.624V25.2547H303.536C303.345 25.7496 303.028 26.1474 302.585 26.4481C302.145 26.7487 301.608 26.8991 300.973 26.8991C300.409 26.8991 299.912 26.7707 299.483 26.5141C299.054 26.2574 298.719 25.8926 298.477 25.4197C298.238 24.9467 298.117 24.3803 298.114 23.7203V18.3418H300.456V23.3023C300.46 23.801 300.594 24.1951 300.858 24.4848C301.122 24.7744 301.476 24.9192 301.919 24.9192C302.202 24.9192 302.466 24.8551 302.711 24.7267C302.957 24.5947 303.155 24.4004 303.305 24.1438C303.459 23.8871 303.534 23.57 303.531 23.1924ZM316.471 20.2281V22.087H311.334V20.2281H316.471ZM328.786 26.7891L325.167 21.988H324.353V26.7891H321.972V15.526H324.353V20.0246H324.831L328.571 15.526H331.535L327.141 20.7506L331.739 26.7891H328.786ZM335.239 26.9485C334.7 26.9485 334.22 26.8551 333.798 26.6681C333.377 26.4774 333.043 26.1969 332.797 25.8266C332.555 25.4527 332.434 24.987 332.434 24.4298C332.434 23.9605 332.521 23.5663 332.693 23.2474C332.865 22.9284 333.1 22.6717 333.397 22.4774C333.694 22.2831 334.031 22.1364 334.409 22.0375C334.79 21.9385 335.19 21.8688 335.608 21.8285C336.099 21.7771 336.495 21.7295 336.796 21.6855C337.096 21.6378 337.314 21.5682 337.45 21.4765C337.586 21.3848 337.654 21.2492 337.654 21.0695V21.0365C337.654 20.6882 337.544 20.4188 337.324 20.2281C337.107 20.0375 336.799 19.9421 336.4 19.9421C335.978 19.9421 335.643 20.0356 335.393 20.2226C335.144 20.4059 334.979 20.6369 334.898 20.9155L332.731 20.7396C332.841 20.2263 333.058 19.7826 333.38 19.4087C333.703 19.031 334.119 18.7414 334.629 18.5397C335.142 18.3344 335.736 18.2318 336.411 18.2318C336.88 18.2318 337.329 18.2868 337.758 18.3968C338.191 18.5067 338.574 18.6772 338.907 18.9082C339.245 19.1392 339.511 19.4362 339.705 19.7991C339.899 20.1584 339.996 20.5892 339.996 21.0915V26.7891H337.775V25.6177H337.709C337.573 25.8816 337.391 26.1145 337.164 26.3161C336.937 26.5141 336.664 26.6699 336.345 26.7836C336.026 26.8936 335.657 26.9485 335.239 26.9485ZM335.91 25.3317C336.255 25.3317 336.559 25.2639 336.823 25.1282C337.087 24.9889 337.294 24.8019 337.445 24.5672C337.595 24.3326 337.67 24.0668 337.67 23.7698V22.8734C337.597 22.921 337.496 22.965 337.368 23.0054C337.243 23.042 337.102 23.0769 336.944 23.1099C336.786 23.1392 336.629 23.1667 336.471 23.1924C336.313 23.2144 336.171 23.2345 336.042 23.2529C335.767 23.2932 335.527 23.3573 335.322 23.4453C335.116 23.5333 334.957 23.6525 334.843 23.8028C334.73 23.9495 334.673 24.1328 334.673 24.3528C334.673 24.6717 334.788 24.9156 335.019 25.0842C335.254 25.2492 335.551 25.3317 335.91 25.3317ZM341.752 26.7891V18.3418H349.138V26.7891H346.9V20.1841H343.963V26.7891H341.752ZM358.277 18.3418V26.7891H356.055V18.3418H358.277ZM357.193 22.0485V23.8963C357.014 23.977 356.79 24.054 356.522 24.1273C356.255 24.1969 355.974 24.2538 355.681 24.2978C355.388 24.3418 355.113 24.3638 354.856 24.3638C353.642 24.3638 352.687 24.1144 351.991 23.6158C351.294 23.1135 350.946 22.3124 350.946 21.2125V18.3308H353.157V21.2125C353.157 21.5388 353.212 21.7973 353.322 21.988C353.435 22.1786 353.615 22.3161 353.861 22.4004C354.11 22.4811 354.442 22.5214 354.856 22.5214C355.241 22.5214 355.619 22.4811 355.989 22.4004C356.359 22.3198 356.761 22.2024 357.193 22.0485ZM362.443 26.9485C361.904 26.9485 361.423 26.8551 361.002 26.6681C360.58 26.4774 360.246 26.1969 360.001 25.8266C359.759 25.4527 359.638 24.987 359.638 24.4298C359.638 23.9605 359.724 23.5663 359.896 23.2474C360.069 22.9284 360.303 22.6717 360.6 22.4774C360.897 22.2831 361.234 22.1364 361.612 22.0375C361.993 21.9385 362.393 21.8688 362.811 21.8285C363.302 21.7771 363.698 21.7295 363.999 21.6855C364.3 21.6378 364.518 21.5682 364.653 21.4765C364.789 21.3848 364.857 21.2492 364.857 21.0695V21.0365C364.857 20.6882 364.747 20.4188 364.527 20.2281C364.311 20.0375 364.003 19.9421 363.603 19.9421C363.181 19.9421 362.846 20.0356 362.597 20.2226C362.347 20.4059 362.182 20.6369 362.102 20.9155L359.935 20.7396C360.045 20.2263 360.261 19.7826 360.584 19.4087C360.906 19.031 361.322 18.7414 361.832 18.5397C362.345 18.3344 362.939 18.2318 363.614 18.2318C364.083 18.2318 364.532 18.2868 364.961 18.3968C365.394 18.5067 365.777 18.6772 366.111 18.9082C366.448 19.1392 366.714 19.4362 366.908 19.7991C367.102 20.1584 367.2 20.5892 367.2 21.0915V26.7891H364.978V25.6177H364.912C364.776 25.8816 364.595 26.1145 364.367 26.3161C364.14 26.5141 363.867 26.6699 363.548 26.7836C363.229 26.8936 362.861 26.9485 362.443 26.9485ZM363.113 25.3317C363.458 25.3317 363.762 25.2639 364.026 25.1282C364.29 24.9889 364.498 24.8019 364.648 24.5672C364.798 24.3326 364.873 24.0668 364.873 23.7698V22.8734C364.8 22.921 364.699 22.965 364.571 23.0054C364.446 23.042 364.305 23.0769 364.147 23.1099C363.99 23.1392 363.832 23.1667 363.674 23.1924C363.517 23.2144 363.374 23.2345 363.245 23.2529C362.97 23.2932 362.73 23.3573 362.525 23.4453C362.32 23.5333 362.16 23.6525 362.047 23.8028C361.933 23.9495 361.876 24.1328 361.876 24.3528C361.876 24.6717 361.992 24.9156 362.223 25.0842C362.457 25.2492 362.754 25.3317 363.113 25.3317ZM372.478 26.7891V18.3418H379.864V26.7891H377.625V20.1841H374.688V26.7891H372.478ZM385.488 26.954C384.634 26.954 383.895 26.7726 383.272 26.4096C382.652 26.043 382.174 25.5333 381.836 24.8807C381.499 24.2244 381.33 23.4637 381.33 22.5984C381.33 21.7258 381.499 20.9632 381.836 20.3106C382.174 19.6543 382.652 19.1447 383.272 18.7817C383.895 18.4151 384.634 18.2318 385.488 18.2318C386.342 18.2318 387.079 18.4151 387.699 18.7817C388.322 19.1447 388.803 19.6543 389.14 20.3106C389.477 20.9632 389.646 21.7258 389.646 22.5984C389.646 23.4637 389.477 24.2244 389.14 24.8807C388.803 25.5333 388.322 26.043 387.699 26.4096C387.079 26.7726 386.342 26.954 385.488 26.954ZM385.499 25.1392C385.888 25.1392 386.212 25.0292 386.473 24.8092C386.733 24.5856 386.929 24.2813 387.061 23.8963C387.197 23.5113 387.265 23.0732 387.265 22.5819C387.265 22.0906 387.197 21.6525 387.061 21.2675C386.929 20.8825 386.733 20.5782 386.473 20.3546C386.212 20.1309 385.888 20.0191 385.499 20.0191C385.107 20.0191 384.777 20.1309 384.509 20.3546C384.245 20.5782 384.045 20.8825 383.91 21.2675C383.778 21.6525 383.712 22.0906 383.712 22.5819C383.712 23.0732 383.778 23.5113 383.91 23.8963C384.045 24.2813 384.245 24.5856 384.509 24.8092C384.777 25.0292 385.107 25.1392 385.499 25.1392ZM391.107 26.7891V18.3418H393.45V21.6195H394.11L396.409 18.3418H399.159L396.172 22.5324L399.192 26.7891H396.409L394.324 23.7918H393.45V26.7891H391.107ZM402.528 26.9485C401.989 26.9485 401.509 26.8551 401.087 26.6681C400.666 26.4774 400.332 26.1969 400.087 25.8266C399.845 25.4527 399.724 24.987 399.724 24.4298C399.724 23.9605 399.81 23.5663 399.982 23.2474C400.154 22.9284 400.389 22.6717 400.686 22.4774C400.983 22.2831 401.32 22.1364 401.698 22.0375C402.079 21.9385 402.479 21.8688 402.897 21.8285C403.388 21.7771 403.784 21.7295 404.085 21.6855C404.385 21.6378 404.604 21.5682 404.739 21.4765C404.875 21.3848 404.943 21.2492 404.943 21.0695V21.0365C404.943 20.6882 404.833 20.4188 404.613 20.2281C404.396 20.0375 404.088 19.9421 403.689 19.9421C403.267 19.9421 402.932 20.0356 402.682 20.2226C402.433 20.4059 402.268 20.6369 402.187 20.9155L400.021 20.7396C400.131 20.2263 400.347 19.7826 400.669 19.4087C400.992 19.031 401.408 18.7414 401.918 18.5397C402.431 18.3344 403.025 18.2318 403.7 18.2318C404.169 18.2318 404.618 18.2868 405.047 18.3968C405.48 18.5067 405.863 18.6772 406.197 18.9082C406.534 19.1392 406.8 19.4362 406.994 19.7991C407.188 20.1584 407.285 20.5892 407.285 21.0915V26.7891H405.064V25.6177H404.998C404.862 25.8816 404.68 26.1145 404.453 26.3161C404.226 26.5141 403.953 26.6699 403.634 26.7836C403.315 26.8936 402.946 26.9485 402.528 26.9485ZM403.199 25.3317C403.544 25.3317 403.848 25.2639 404.112 25.1282C404.376 24.9889 404.583 24.8019 404.734 24.5672C404.884 24.3326 404.959 24.0668 404.959 23.7698V22.8734C404.886 22.921 404.785 22.965 404.657 23.0054C404.532 23.042 404.391 23.0769 404.233 23.1099C404.076 23.1392 403.918 23.1667 403.76 23.1924C403.603 23.2144 403.46 23.2345 403.331 23.2529C403.056 23.2932 402.816 23.3573 402.611 23.4453C402.406 23.5333 402.246 23.6525 402.132 23.8028C402.019 23.9495 401.962 24.1328 401.962 24.3528C401.962 24.6717 402.077 24.9156 402.308 25.0842C402.543 25.2492 402.84 25.3317 403.199 25.3317ZM408.607 24.3968H410.878C410.889 24.6754 411.014 24.8954 411.252 25.0567C411.49 25.218 411.798 25.2987 412.176 25.2987C412.557 25.2987 412.878 25.2107 413.138 25.0347C413.399 24.8551 413.529 24.5984 413.529 24.2648C413.529 24.0595 413.477 23.8816 413.375 23.7313C413.272 23.5773 413.129 23.4563 412.946 23.3683C412.762 23.2804 412.55 23.2364 412.308 23.2364H411.092V21.702H412.308C412.671 21.702 412.949 21.6177 413.144 21.449C413.342 21.2803 413.441 21.0695 413.441 20.8166C413.441 20.5306 413.338 20.3014 413.133 20.1291C412.931 19.9531 412.658 19.8651 412.313 19.8651C411.965 19.8651 411.675 19.944 411.444 20.1016C411.217 20.2556 411.1 20.4573 411.092 20.7066H408.832C408.839 20.2006 408.992 19.7625 409.289 19.3922C409.589 19.0219 409.993 18.7359 410.498 18.5342C411.008 18.3326 411.578 18.2318 412.209 18.2318C412.898 18.2318 413.492 18.3289 413.991 18.5232C414.493 18.7139 414.878 18.987 415.146 19.3427C415.417 19.6983 415.553 20.1218 415.553 20.6131C415.553 21.0604 415.406 21.4343 415.113 21.735C414.819 22.0356 414.409 22.2501 413.881 22.3784V22.4664C414.229 22.4884 414.544 22.5819 414.827 22.7469C415.109 22.9119 415.334 23.1392 415.503 23.4288C415.672 23.7148 415.756 24.054 415.756 24.4463C415.756 24.9705 415.602 25.4197 415.294 25.7936C414.99 26.1676 414.568 26.4554 414.029 26.6571C413.494 26.8551 412.88 26.954 412.187 26.954C411.512 26.954 410.907 26.8569 410.372 26.6626C409.84 26.4646 409.417 26.1749 409.102 25.7936C408.79 25.4123 408.625 24.9467 408.607 24.3968ZM418.599 20.9375H421.124C422.242 20.9375 423.114 21.2052 423.741 21.7405C424.368 22.2721 424.682 22.9834 424.682 23.8743C424.682 24.4536 424.541 24.9632 424.258 25.4032C423.976 25.8395 423.569 26.1804 423.037 26.4261C422.506 26.6681 421.868 26.7891 421.124 26.7891H417.131V18.3418H419.369V24.9467H421.124C421.516 24.9467 421.838 24.8477 422.091 24.6497C422.344 24.4518 422.473 24.1988 422.476 23.8908C422.473 23.5645 422.344 23.2987 422.091 23.0934C421.838 22.8844 421.516 22.7799 421.124 22.7799H418.599V20.9375ZM425.589 26.7891V18.3418H427.932V26.7891H425.589ZM429.743 26.7891V18.3418H433.345C434.386 18.3418 435.209 18.5397 435.814 18.9357C436.419 19.3317 436.722 19.8945 436.722 20.6241C436.722 21.0824 436.551 21.4637 436.21 21.768C435.869 22.0723 435.396 22.2776 434.791 22.3839C435.297 22.4206 435.728 22.5361 436.084 22.7304C436.443 22.921 436.716 23.1685 436.903 23.4728C437.094 23.7771 437.189 24.1144 437.189 24.4848C437.189 24.965 437.061 25.3775 436.804 25.7222C436.551 26.0668 436.179 26.3308 435.688 26.5141C435.2 26.6974 434.604 26.7891 433.9 26.7891H429.743ZM431.926 25.0347H433.9C434.227 25.0347 434.481 24.9577 434.665 24.8037C434.852 24.6461 434.945 24.4316 434.945 24.1603C434.945 23.8596 434.852 23.6232 434.665 23.4508C434.481 23.2785 434.227 23.1924 433.9 23.1924H431.926V25.0347ZM431.926 21.8175H433.394C433.629 21.8175 433.829 21.7845 433.994 21.7185C434.162 21.6488 434.291 21.5498 434.379 21.4215C434.47 21.2932 434.516 21.141 434.516 20.965C434.516 20.7047 434.412 20.5012 434.203 20.3546C433.994 20.2079 433.708 20.1346 433.345 20.1346H431.926V21.8175ZM441.012 26.9485C440.474 26.9485 439.993 26.8551 439.572 26.6681C439.15 26.4774 438.816 26.1969 438.571 25.8266C438.329 25.4527 438.208 24.987 438.208 24.4298C438.208 23.9605 438.294 23.5663 438.466 23.2474C438.639 22.9284 438.873 22.6717 439.17 22.4774C439.467 22.2831 439.804 22.1364 440.182 22.0375C440.563 21.9385 440.963 21.8688 441.381 21.8285C441.872 21.7771 442.268 21.7295 442.569 21.6855C442.87 21.6378 443.088 21.5682 443.223 21.4765C443.359 21.3848 443.427 21.2492 443.427 21.0695V21.0365C443.427 20.6882 443.317 20.4188 443.097 20.2281C442.88 20.0375 442.573 19.9421 442.173 19.9421C441.751 19.9421 441.416 20.0356 441.166 20.2226C440.917 20.4059 440.752 20.6369 440.672 20.9155L438.505 20.7396C438.615 20.2263 438.831 19.7826 439.154 19.4087C439.476 19.031 439.892 18.7414 440.402 18.5397C440.915 18.3344 441.509 18.2318 442.184 18.2318C442.653 18.2318 443.102 18.2868 443.531 18.3968C443.964 18.5067 444.347 18.6772 444.681 18.9082C445.018 19.1392 445.284 19.4362 445.478 19.7991C445.672 20.1584 445.77 20.5892 445.77 21.0915V26.7891H443.548V25.6177H443.482C443.346 25.8816 443.165 26.1145 442.937 26.3161C442.71 26.5141 442.437 26.6699 442.118 26.7836C441.799 26.8936 441.43 26.9485 441.012 26.9485ZM441.683 25.3317C442.028 25.3317 442.332 25.2639 442.596 25.1282C442.86 24.9889 443.067 24.8019 443.218 24.5672C443.368 24.3326 443.443 24.0668 443.443 23.7698V22.8734C443.37 22.921 443.269 22.965 443.141 23.0054C443.016 23.042 442.875 23.0769 442.717 23.1099C442.56 23.1392 442.402 23.1667 442.244 23.1924C442.087 23.2144 441.944 23.2345 441.815 23.2529C441.54 23.2932 441.3 23.3573 441.095 23.4453C440.89 23.5333 440.73 23.6525 440.617 23.8028C440.503 23.9495 440.446 24.1328 440.446 24.3528C440.446 24.6717 440.562 24.9156 440.793 25.0842C441.027 25.2492 441.324 25.3317 441.683 25.3317ZM451.375 26.954C450.506 26.954 449.758 26.7781 449.131 26.4261C448.508 26.0705 448.028 25.5682 447.69 24.9192C447.353 24.2666 447.184 23.4948 447.184 22.6039C447.184 21.735 447.353 20.9724 447.69 20.3161C448.028 19.6598 448.502 19.1484 449.115 18.7817C449.731 18.4151 450.453 18.2318 451.281 18.2318C451.839 18.2318 452.358 18.3216 452.838 18.5012C453.322 18.6772 453.743 18.943 454.103 19.2987C454.466 19.6543 454.748 20.1016 454.95 20.6406C455.151 21.1759 455.252 21.8028 455.252 22.5214V23.1649H448.119V21.713H453.047C453.047 21.3757 452.973 21.0769 452.827 20.8166C452.68 20.5562 452.477 20.3528 452.216 20.2061C451.96 20.0558 451.661 19.9806 451.32 19.9806C450.964 19.9806 450.649 20.0631 450.374 20.2281C450.103 20.3894 449.89 20.6076 449.736 20.8825C449.582 21.1539 449.503 21.4563 449.5 21.79V23.1704C449.5 23.5883 449.577 23.9495 449.731 24.2538C449.888 24.5581 450.11 24.7927 450.396 24.9577C450.682 25.1227 451.021 25.2052 451.413 25.2052C451.674 25.2052 451.912 25.1685 452.128 25.0952C452.345 25.0219 452.53 24.9119 452.684 24.7652C452.838 24.6186 452.955 24.4389 453.036 24.2263L455.203 24.3693C455.093 24.8899 454.867 25.3445 454.526 25.7331C454.189 26.1181 453.753 26.4188 453.217 26.6351C452.686 26.8477 452.072 26.954 451.375 26.954ZM456.067 20.1841V18.3418H463.723V20.1841H461V26.7891H458.768V20.1841H456.067ZM468.595 26.954C467.73 26.954 466.986 26.7707 466.362 26.4041C465.743 26.0338 465.266 25.5205 464.933 24.8642C464.603 24.2079 464.438 23.4527 464.438 22.5984C464.438 21.7331 464.604 20.9742 464.938 20.3216C465.275 19.6653 465.754 19.1539 466.373 18.7872C466.993 18.4169 467.73 18.2318 468.584 18.2318C469.321 18.2318 469.966 18.3656 470.52 18.6332C471.074 18.9009 471.512 19.2767 471.834 19.7606C472.157 20.2446 472.335 20.8129 472.368 21.4655H470.157C470.095 21.0439 469.93 20.7047 469.662 20.4481C469.398 20.1878 469.052 20.0576 468.623 20.0576C468.26 20.0576 467.943 20.1566 467.671 20.3546C467.404 20.5489 467.195 20.8331 467.044 21.207C466.894 21.581 466.819 22.0338 466.819 22.5654C466.819 23.1044 466.892 23.5627 467.039 23.9403C467.189 24.3179 467.4 24.6057 467.671 24.8037C467.943 25.0017 468.26 25.1007 468.623 25.1007C468.89 25.1007 469.131 25.0457 469.343 24.9357C469.559 24.8257 469.737 24.6662 469.877 24.4573C470.02 24.2446 470.113 23.9898 470.157 23.6928H472.368C472.331 24.3381 472.155 24.9064 471.84 25.3977C471.528 25.8853 471.098 26.2666 470.548 26.5416C469.998 26.8166 469.347 26.954 468.595 26.954ZM478.756 26.7891V20.1786H477.172C476.743 20.1786 476.416 20.2776 476.193 20.4756C475.969 20.6736 475.859 20.9082 475.863 21.1795C475.859 21.4545 475.965 21.6873 476.182 21.878C476.402 22.065 476.724 22.1584 477.15 22.1584H479.536V23.7423H477.15C476.427 23.7423 475.802 23.6323 475.274 23.4123C474.746 23.1924 474.339 22.8862 474.053 22.4939C473.767 22.0979 473.626 21.6378 473.63 21.1135C473.626 20.5636 473.767 20.0814 474.053 19.6671C474.339 19.2492 474.748 18.9247 475.28 18.6937C475.815 18.4591 476.446 18.3418 477.172 18.3418H480.939V26.7891H478.756ZM473.388 26.7891L475.736 22.3894H477.975L475.632 26.7891H473.388ZM485.78 20.1841V18.3418H493.435V20.1841H490.713V26.7891H488.48V20.1841H485.78ZM498.308 26.954C497.453 26.954 496.715 26.7726 496.091 26.4096C495.472 26.043 494.993 25.5333 494.656 24.8807C494.319 24.2244 494.15 23.4637 494.15 22.5984C494.15 21.7258 494.319 20.9632 494.656 20.3106C494.993 19.6543 495.472 19.1447 496.091 18.7817C496.715 18.4151 497.453 18.2318 498.308 18.2318C499.162 18.2318 499.899 18.4151 500.518 18.7817C501.142 19.1447 501.622 19.6543 501.959 20.3106C502.297 20.9632 502.465 21.7258 502.465 22.5984C502.465 23.4637 502.297 24.2244 501.959 24.8807C501.622 25.5333 501.142 26.043 500.518 26.4096C499.899 26.7726 499.162 26.954 498.308 26.954ZM498.319 25.1392C498.707 25.1392 499.032 25.0292 499.292 24.8092C499.552 24.5856 499.748 24.2813 499.88 23.8963C500.016 23.5113 500.084 23.0732 500.084 22.5819C500.084 22.0906 500.016 21.6525 499.88 21.2675C499.748 20.8825 499.552 20.5782 499.292 20.3546C499.032 20.1309 498.707 20.0191 498.319 20.0191C497.926 20.0191 497.596 20.1309 497.329 20.3546C497.065 20.5782 496.865 20.8825 496.729 21.2675C496.597 21.6525 496.531 22.0906 496.531 22.5819C496.531 23.0732 496.597 23.5113 496.729 23.8963C496.865 24.2813 497.065 24.5856 497.329 24.8092C497.596 25.0292 497.926 25.1392 498.319 25.1392ZM503.432 26.7891L503.421 24.9302H503.701C503.899 24.9302 504.07 24.8826 504.213 24.7872C504.359 24.6882 504.48 24.5287 504.576 24.3088C504.671 24.0888 504.746 23.7973 504.801 23.4343C504.856 23.0677 504.893 22.6167 504.911 22.0815L505.049 18.3418H511.472V26.7891H509.239V20.1841H507.155L507.023 22.7634C506.99 23.471 506.904 24.0796 506.764 24.5892C506.629 25.0989 506.44 25.5168 506.198 25.8431C505.956 26.1658 505.665 26.4041 505.324 26.5581C504.983 26.7121 504.587 26.7891 504.136 26.7891H503.432ZM514.695 20.9375H517.219C518.337 20.9375 519.21 21.2052 519.837 21.7405C520.464 22.2721 520.777 22.9834 520.777 23.8743C520.777 24.4536 520.636 24.9632 520.354 25.4032C520.071 25.8395 519.665 26.1804 519.133 26.4261C518.601 26.6681 517.963 26.7891 517.219 26.7891H513.226V18.3418H515.465V24.9467H517.219C517.611 24.9467 517.934 24.8477 518.187 24.6497C518.44 24.4518 518.568 24.1988 518.572 23.8908C518.568 23.5645 518.44 23.2987 518.187 23.0934C517.934 22.8844 517.611 22.7799 517.219 22.7799H514.695V20.9375ZM522.269 26.7891V18.3418H524.612V21.6195H525.272L527.57 18.3418H530.32L527.334 22.5324L530.353 26.7891H527.57L525.486 23.7918H524.612V26.7891H522.269ZM534.75 26.954C533.896 26.954 533.157 26.7726 532.534 26.4096C531.914 26.043 531.436 25.5333 531.098 24.8807C530.761 24.2244 530.592 23.4637 530.592 22.5984C530.592 21.7258 530.761 20.9632 531.098 20.3106C531.436 19.6543 531.914 19.1447 532.534 18.7817C533.157 18.4151 533.896 18.2318 534.75 18.2318C535.604 18.2318 536.341 18.4151 536.961 18.7817C537.584 19.1447 538.064 19.6543 538.402 20.3106C538.739 20.9632 538.908 21.7258 538.908 22.5984C538.908 23.4637 538.739 24.2244 538.402 24.8807C538.064 25.5333 537.584 26.043 536.961 26.4096C536.341 26.7726 535.604 26.954 534.75 26.954ZM534.761 25.1392C535.15 25.1392 535.474 25.0292 535.734 24.8092C535.995 24.5856 536.191 24.2813 536.323 23.8963C536.459 23.5113 536.526 23.0732 536.526 22.5819C536.526 22.0906 536.459 21.6525 536.323 21.2675C536.191 20.8825 535.995 20.5782 535.734 20.3546C535.474 20.1309 535.15 20.0191 534.761 20.0191C534.369 20.0191 534.039 20.1309 533.771 20.3546C533.507 20.5782 533.307 20.8825 533.172 21.2675C533.04 21.6525 532.974 22.0906 532.974 22.5819C532.974 23.0732 533.04 23.5113 533.172 23.8963C533.307 24.2813 533.507 24.5856 533.771 24.8092C534.039 25.0292 534.369 25.1392 534.761 25.1392ZM550.914 15.24L551.629 16.7689C551.391 16.9669 551.127 17.1135 550.837 17.2089C550.548 17.3005 550.201 17.361 549.798 17.3903C549.398 17.4197 548.911 17.4398 548.335 17.4508C547.683 17.4582 547.151 17.5627 546.74 17.7643C546.33 17.966 546.018 18.2831 545.805 18.7157C545.593 19.1447 545.453 19.7056 545.387 20.3986H545.47C545.723 19.8816 546.079 19.482 546.537 19.1997C546.999 18.9174 547.569 18.7762 548.247 18.7762C548.966 18.7762 549.595 18.9339 550.134 19.2492C550.676 19.5645 551.098 20.0173 551.398 20.6076C551.699 21.1979 551.849 21.9055 551.849 22.7304C551.849 23.5883 551.681 24.3344 551.343 24.9687C551.01 25.5993 550.535 26.0888 549.919 26.4371C549.303 26.7817 548.57 26.954 547.719 26.954C546.865 26.954 546.128 26.7744 545.508 26.4151C544.892 26.0558 544.416 25.526 544.079 24.8257C543.745 24.1254 543.578 23.2639 543.578 22.2409V21.548C543.578 19.5132 543.974 18.0045 544.766 17.0219C545.558 16.0393 546.722 15.5407 548.258 15.526C548.676 15.5187 549.054 15.5168 549.391 15.5205C549.728 15.5242 550.024 15.5077 550.277 15.471C550.533 15.4343 550.746 15.3573 550.914 15.24ZM547.73 25.1392C548.09 25.1392 548.397 25.0457 548.654 24.8587C548.914 24.6717 549.114 24.4041 549.254 24.0558C549.397 23.7075 549.468 23.2914 549.468 22.8074C549.468 22.3271 549.397 21.9201 549.254 21.5865C549.114 21.2492 548.914 20.9925 548.654 20.8166C548.394 20.6406 548.082 20.5526 547.719 20.5526C547.448 20.5526 547.204 20.6021 546.988 20.7011C546.771 20.8001 546.586 20.9467 546.432 21.141C546.282 21.3317 546.165 21.5682 546.08 21.8505C546 22.1291 545.959 22.4481 545.959 22.8074C545.959 23.5297 546.115 24.0998 546.427 24.5177C546.742 24.932 547.177 25.1392 547.73 25.1392ZM557.159 26.954C556.305 26.954 555.566 26.7726 554.943 26.4096C554.323 26.043 553.845 25.5333 553.507 24.8807C553.17 24.2244 553.001 23.4637 553.001 22.5984C553.001 21.7258 553.17 20.9632 553.507 20.3106C553.845 19.6543 554.323 19.1447 554.943 18.7817C555.566 18.4151 556.305 18.2318 557.159 18.2318C558.013 18.2318 558.75 18.4151 559.37 18.7817C559.993 19.1447 560.473 19.6543 560.811 20.3106C561.148 20.9632 561.317 21.7258 561.317 22.5984C561.317 23.4637 561.148 24.2244 560.811 24.8807C560.473 25.5333 559.993 26.043 559.37 26.4096C558.75 26.7726 558.013 26.954 557.159 26.954ZM557.17 25.1392C557.559 25.1392 557.883 25.0292 558.143 24.8092C558.404 24.5856 558.6 24.2813 558.732 23.8963C558.868 23.5113 558.935 23.0732 558.935 22.5819C558.935 22.0906 558.868 21.6525 558.732 21.2675C558.6 20.8825 558.404 20.5782 558.143 20.3546C557.883 20.1309 557.559 20.0191 557.17 20.0191C556.778 20.0191 556.448 20.1309 556.18 20.3546C555.916 20.5782 555.716 20.8825 555.581 21.2675C555.449 21.6525 555.383 22.0906 555.383 22.5819C555.383 23.0732 555.449 23.5113 555.581 23.8963C555.716 24.2813 555.916 24.5856 556.18 24.8092C556.448 25.0292 556.778 25.1392 557.17 25.1392ZM561.96 20.1841V18.3418H569.615V20.1841H566.893V26.7891H564.66V20.1841H561.96ZM573.08 26.9485C572.541 26.9485 572.061 26.8551 571.639 26.6681C571.218 26.4774 570.884 26.1969 570.638 25.8266C570.396 25.4527 570.275 24.987 570.275 24.4298C570.275 23.9605 570.362 23.5663 570.534 23.2474C570.706 22.9284 570.941 22.6717 571.238 22.4774C571.535 22.2831 571.872 22.1364 572.25 22.0375C572.631 21.9385 573.031 21.8688 573.449 21.8285C573.94 21.7771 574.336 21.7295 574.636 21.6855C574.937 21.6378 575.155 21.5682 575.291 21.4765C575.427 21.3848 575.494 21.2492 575.494 21.0695V21.0365C575.494 20.6882 575.384 20.4188 575.164 20.2281C574.948 20.0375 574.64 19.9421 574.241 19.9421C573.819 19.9421 573.483 20.0356 573.234 20.2226C572.985 20.4059 572.82 20.6369 572.739 20.9155L570.572 20.7396C570.682 20.2263 570.899 19.7826 571.221 19.4087C571.544 19.031 571.96 18.7414 572.47 18.5397C572.983 18.3344 573.577 18.2318 574.252 18.2318C574.721 18.2318 575.17 18.2868 575.599 18.3968C576.032 18.5067 576.415 18.6772 576.748 18.9082C577.086 19.1392 577.351 19.4362 577.546 19.7991C577.74 20.1584 577.837 20.5892 577.837 21.0915V26.7891H575.615V25.6177H575.549C575.414 25.8816 575.232 26.1145 575.005 26.3161C574.778 26.5141 574.504 26.6699 574.186 26.7836C573.867 26.8936 573.498 26.9485 573.08 26.9485ZM573.751 25.3317C574.096 25.3317 574.4 25.2639 574.664 25.1282C574.928 24.9889 575.135 24.8019 575.285 24.5672C575.436 24.3326 575.511 24.0668 575.511 23.7698V22.8734C575.438 22.921 575.337 22.965 575.208 23.0054C575.084 23.042 574.943 23.0769 574.785 23.1099C574.627 23.1392 574.47 23.1667 574.312 23.1924C574.154 23.2144 574.011 23.2345 573.883 23.2529C573.608 23.2932 573.368 23.3573 573.163 23.4453C572.957 23.5333 572.798 23.6525 572.684 23.8028C572.57 23.9495 572.514 24.1328 572.514 24.3528C572.514 24.6717 572.629 24.9156 572.86 25.0842C573.095 25.2492 573.392 25.3317 573.751 25.3317ZM584.586 24.1988L586.874 18.3418H588.656L585.362 26.7891H583.806L580.588 18.3418H582.365L584.586 24.1988ZM581.831 18.3418V26.7891H579.593V18.3418H581.831ZM587.457 26.7891V18.3418H589.668V26.7891H587.457Z" fill="#3D3D3D"/>
</svg>
