<svg width="34" height="28" viewBox="0 0 34 28" fill="none" xmlns="http://www.w3.org/2000/svg">
<path d="M14.4168 19.8334C15.0835 20.5001 15.9446 20.8267 17.0002 20.8134C18.0557 20.8001 18.8335 20.4179 19.3335 19.6667L28.6668 5.66675L14.6668 15.0001C13.9168 15.5001 13.5213 16.264 13.4802 17.2917C13.439 18.3195 13.7513 19.1667 14.4168 19.8334ZM17.0002 0.66675C18.639 0.66675 20.2157 0.896195 21.7302 1.35508C23.2446 1.81397 24.6679 2.50119 26.0002 3.41675L22.8335 5.41675C21.9168 4.94453 20.9657 4.59064 19.9802 4.35508C18.9946 4.11953 18.0013 4.00119 17.0002 4.00008C13.3057 4.00008 10.1596 5.29842 7.56183 7.89508C4.96405 10.4917 3.66572 13.6379 3.66683 17.3334C3.66683 18.5001 3.82683 19.6529 4.14683 20.7917C4.46683 21.9306 4.91794 23.0001 5.50016 24.0001H28.5002C29.139 22.9445 29.6046 21.8473 29.8968 20.7084C30.1891 19.5695 30.3346 18.389 30.3335 17.1667C30.3335 16.1667 30.2152 15.1945 29.9785 14.2501C29.7418 13.3056 29.3879 12.389 28.9168 11.5001L30.9168 8.33342C31.7502 9.63897 32.4102 11.0279 32.8968 12.5001C33.3835 13.9723 33.6402 15.5001 33.6668 17.0834C33.6946 18.6667 33.514 20.1806 33.1252 21.6251C32.7363 23.0695 32.1668 24.4445 31.4168 25.7501C31.1113 26.2501 30.6946 26.639 30.1668 26.9167C29.639 27.1945 29.0835 27.3334 28.5002 27.3334H5.50016C4.91683 27.3334 4.36127 27.1945 3.8335 26.9167C3.30572 26.639 2.88905 26.2501 2.5835 25.7501C1.86127 24.5001 1.30572 23.1734 0.916829 21.7701C0.52794 20.3668 0.333496 18.8879 0.333496 17.3334C0.333496 15.0279 0.771274 12.8679 1.64683 10.8534C2.52238 8.83897 3.71683 7.07564 5.23016 5.56342C6.7435 4.04897 8.51349 2.85397 10.5402 1.97842C12.5668 1.10286 14.7202 0.665639 17.0002 0.66675Z" fill="#EF911F"/>
</svg>
