<svg width="679" height="302" viewBox="0 0 679 302" fill="none" xmlns="http://www.w3.org/2000/svg">
<rect width="679" height="302" rx="21.6308" fill="white"/>
<rect width="679" height="302" rx="21.6308" fill="white"/>
<rect x="31.8716" y="30.8716" width="616.257" height="240.257" rx="13.0743" fill="white"/>
<path d="M68.5172 53.5674V84.9458H64.7379V53.5674H68.5172ZM67.6183 73.0563L66.0453 72.9951C66.0589 71.4833 66.2836 70.0874 66.7194 68.8072C67.1552 67.5134 67.7681 66.3898 68.558 65.4365C69.3479 64.4831 70.2876 63.7477 71.3772 63.2302C72.4803 62.699 73.6992 62.4334 75.0339 62.4334C76.1234 62.4334 77.104 62.5833 77.9756 62.8829C78.8472 63.1689 79.5895 63.6319 80.2023 64.272C80.8288 64.9121 81.3055 65.7429 81.6323 66.7643C81.9592 67.7721 82.1226 69.0047 82.1226 70.4619V84.9458H78.3229V70.421C78.3229 69.2634 78.1527 68.3373 77.8122 67.6427C77.4717 66.9346 76.9746 66.4238 76.3209 66.1106C75.6672 65.7837 74.8637 65.6203 73.9103 65.6203C72.9706 65.6203 72.1126 65.8178 71.3363 66.2127C70.5736 66.6077 69.9131 67.1525 69.3547 67.847C68.81 68.5416 68.381 69.3383 68.0677 70.2372C67.7681 71.1224 67.6183 72.0621 67.6183 73.0563ZM97.0355 62.842V65.7429H85.0848V62.842H97.0355ZM89.1296 57.4693H92.9089V79.4709C92.9089 80.22 93.0247 80.7852 93.2562 81.1665C93.4878 81.5478 93.7874 81.7998 94.1551 81.9224C94.5228 82.0449 94.9178 82.1062 95.3399 82.1062C95.6532 82.1062 95.98 82.079 96.3205 82.0245C96.6746 81.9564 96.9402 81.9019 97.1172 81.8611L97.1377 84.9458C96.838 85.0411 96.4431 85.1297 95.9528 85.2114C95.4761 85.3067 94.8973 85.3544 94.2164 85.3544C93.2903 85.3544 92.4391 85.1705 91.6628 84.8028C90.8865 84.4351 90.2668 83.8222 89.8038 82.9642C89.3544 82.0926 89.1296 80.9214 89.1296 79.4505V57.4693ZM110.723 62.842V65.7429H98.772V62.842H110.723ZM102.817 57.4693H106.596V79.4709C106.596 80.22 106.712 80.7852 106.943 81.1665C107.175 81.5478 107.475 81.7998 107.842 81.9224C108.21 82.0449 108.605 82.1062 109.027 82.1062C109.34 82.1062 109.667 82.079 110.008 82.0245C110.362 81.9564 110.627 81.9019 110.804 81.8611L110.825 84.9458C110.525 85.0411 110.13 85.1297 109.64 85.2114C109.163 85.3067 108.585 85.3544 107.904 85.3544C106.977 85.3544 106.126 85.1705 105.35 84.8028C104.574 84.4351 103.954 83.8222 103.491 82.9642C103.042 82.0926 102.817 80.9214 102.817 79.4505V57.4693ZM118.935 67.0912V93.4441H115.135V62.842H118.608L118.935 67.0912ZM133.827 73.7101V74.1391C133.827 75.7461 133.637 77.2374 133.255 78.6129C132.874 79.9748 132.316 81.1597 131.58 82.1675C130.859 83.1753 129.966 83.9584 128.904 84.5168C127.842 85.0752 126.623 85.3544 125.247 85.3544C123.845 85.3544 122.605 85.1228 121.529 84.6598C120.454 84.1968 119.541 83.5226 118.792 82.6374C118.043 81.7521 117.444 80.6898 116.994 79.4505C116.558 78.2112 116.259 76.8152 116.095 75.2626V72.9746C116.259 71.3403 116.565 69.8763 117.015 68.5825C117.464 67.2887 118.057 66.1855 118.792 65.273C119.541 64.3469 120.447 63.6455 121.509 63.1689C122.571 62.6786 123.797 62.4334 125.186 62.4334C126.575 62.4334 127.808 62.7058 128.884 63.2506C129.96 63.7817 130.865 64.5444 131.601 65.5386C132.336 66.5328 132.888 67.7245 133.255 69.1136C133.637 70.4891 133.827 72.0213 133.827 73.7101ZM130.028 74.1391V73.7101C130.028 72.6069 129.912 71.5719 129.68 70.6049C129.449 69.6243 129.088 68.7663 128.598 68.0309C128.121 67.2818 127.508 66.6962 126.759 66.274C126.01 65.8382 125.118 65.6203 124.083 65.6203C123.13 65.6203 122.299 65.7837 121.591 66.1106C120.896 66.4375 120.304 66.8801 119.813 67.4385C119.323 67.9832 118.921 68.6097 118.608 69.3179C118.309 70.0125 118.084 70.7343 117.934 71.4833V76.7743C118.206 77.7277 118.588 78.6265 119.078 79.4709C119.568 80.3017 120.222 80.9758 121.039 81.4934C121.856 81.9973 122.885 82.2492 124.124 82.2492C125.145 82.2492 126.024 82.0381 126.759 81.6159C127.508 81.1801 128.121 80.5877 128.598 79.8386C129.088 79.0896 129.449 78.2316 129.68 77.2646C129.912 76.2841 130.028 75.2422 130.028 74.1391ZM151.519 79.0828C151.519 78.538 151.396 78.0341 151.151 77.5711C150.919 77.0944 150.436 76.6654 149.701 76.2841C148.979 75.8891 147.889 75.5486 146.432 75.2626C145.206 75.0039 144.096 74.6974 143.102 74.3433C142.122 73.9892 141.284 73.5602 140.589 73.0563C139.908 72.5524 139.384 71.96 139.016 71.279C138.649 70.5981 138.465 69.8014 138.465 68.8889C138.465 68.0173 138.655 67.1933 139.037 66.417C139.432 65.6407 139.983 64.953 140.692 64.3537C141.413 63.7545 142.278 63.2846 143.286 62.9442C144.294 62.6037 145.417 62.4334 146.657 62.4334C148.427 62.4334 149.939 62.7467 151.192 63.3732C152.445 63.9996 153.405 64.8372 154.072 65.8859C154.74 66.9209 155.073 68.0718 155.073 69.3383H151.294C151.294 68.7255 151.11 68.133 150.742 67.561C150.388 66.9754 149.864 66.4919 149.169 66.1106C148.488 65.7293 147.651 65.5386 146.657 65.5386C145.608 65.5386 144.757 65.702 144.103 66.0289C143.463 66.3421 142.993 66.7439 142.694 67.2342C142.408 67.7245 142.265 68.242 142.265 68.7868C142.265 69.1953 142.333 69.563 142.469 69.8899C142.619 70.2031 142.877 70.4959 143.245 70.7683C143.613 71.0271 144.13 71.2722 144.798 71.5038C145.465 71.7353 146.316 71.9668 147.351 72.1983C149.163 72.6069 150.654 73.0972 151.825 73.6692C152.996 74.2412 153.868 74.9426 154.44 75.7733C155.012 76.6041 155.298 77.6119 155.298 78.7968C155.298 79.7637 155.094 80.649 154.685 81.4525C154.29 82.256 153.711 82.9506 152.949 83.5362C152.2 84.1082 151.301 84.5577 150.252 84.8845C149.217 85.1978 148.053 85.3544 146.759 85.3544C144.811 85.3544 143.163 85.0071 141.815 84.3125C140.467 83.6179 139.445 82.7191 138.751 81.6159C138.056 80.5128 137.709 79.3484 137.709 78.1226H141.509C141.563 79.1577 141.863 79.9816 142.408 80.5945C142.952 81.1937 143.62 81.6227 144.41 81.8815C145.199 82.1266 145.983 82.2492 146.759 82.2492C147.794 82.2492 148.659 82.113 149.353 81.8406C150.061 81.5683 150.599 81.1937 150.967 80.7171C151.335 80.2404 151.519 79.6956 151.519 79.0828ZM160.099 82.9438C160.099 82.3037 160.296 81.7657 160.691 81.3299C161.1 80.8805 161.685 80.6558 162.448 80.6558C163.211 80.6558 163.789 80.8805 164.184 81.3299C164.593 81.7657 164.797 82.3037 164.797 82.9438C164.797 83.5703 164.593 84.1014 164.184 84.5372C163.789 84.973 163.211 85.1909 162.448 85.1909C161.685 85.1909 161.1 84.973 160.691 84.5372C160.296 84.1014 160.099 83.5703 160.099 82.9438ZM160.119 64.9053C160.119 64.2652 160.317 63.7273 160.712 63.2915C161.12 62.842 161.706 62.6173 162.468 62.6173C163.231 62.6173 163.81 62.842 164.205 63.2915C164.613 63.7273 164.818 64.2652 164.818 64.9053C164.818 65.5318 164.613 66.0629 164.205 66.4987C163.81 66.9346 163.231 67.1525 162.468 67.1525C161.706 67.1525 161.12 66.9346 160.712 66.4987C160.317 66.0629 160.119 65.5318 160.119 64.9053ZM183.551 55.2017L171.151 87.4994H167.902L180.323 55.2017H183.551ZM196.257 55.2017L183.857 87.4994H180.609L193.03 55.2017H196.257ZM214.316 80.6558V53.5674H218.116V84.9458H214.643L214.316 80.6558ZM199.444 74.1391V73.7101C199.444 72.0213 199.649 70.4891 200.057 69.1136C200.479 67.7245 201.072 66.5328 201.834 65.5386C202.611 64.5444 203.53 63.7817 204.592 63.2506C205.668 62.7058 206.867 62.4334 208.188 62.4334C209.577 62.4334 210.789 62.6786 211.824 63.1689C212.873 63.6455 213.758 64.3469 214.48 65.273C215.215 66.1855 215.794 67.2887 216.216 68.5825C216.638 69.8763 216.931 71.3403 217.095 72.9746V74.8541C216.945 76.4747 216.652 77.932 216.216 79.2258C215.794 80.5196 215.215 81.6227 214.48 82.5352C213.758 83.4477 212.873 84.1491 211.824 84.6394C210.775 85.116 209.55 85.3544 208.147 85.3544C206.853 85.3544 205.668 85.0752 204.592 84.5168C203.53 83.9584 202.611 83.1753 201.834 82.1675C201.072 81.1597 200.479 79.9748 200.057 78.6129C199.649 77.2374 199.444 75.7461 199.444 74.1391ZM203.244 73.7101V74.1391C203.244 75.2422 203.353 76.2773 203.571 77.2442C203.802 78.2112 204.156 79.0624 204.633 79.7978C205.11 80.5332 205.716 81.112 206.451 81.5342C207.187 81.9428 208.065 82.1471 209.087 82.1471C210.34 82.1471 211.368 81.8815 212.171 81.3504C212.988 80.8192 213.642 80.1178 214.132 79.2462C214.623 78.3746 215.004 77.4281 215.276 76.4066V71.4833C215.113 70.7343 214.875 70.0125 214.561 69.3179C214.262 68.6097 213.867 67.9832 213.377 67.4385C212.9 66.8801 212.307 66.4375 211.599 66.1106C210.905 65.7837 210.081 65.6203 209.127 65.6203C208.092 65.6203 207.2 65.8382 206.451 66.274C205.716 66.6962 205.11 67.2818 204.633 68.0309C204.156 68.7663 203.802 69.6243 203.571 70.6049C203.353 71.5719 203.244 72.6069 203.244 73.7101ZM222.998 74.1391V73.6692C222.998 72.0758 223.23 70.5981 223.693 69.2362C224.156 67.8607 224.823 66.669 225.695 65.6612C226.567 64.6397 227.622 63.8498 228.861 63.2915C230.101 62.7194 231.49 62.4334 233.029 62.4334C234.582 62.4334 235.977 62.7194 237.217 63.2915C238.47 63.8498 239.532 64.6397 240.404 65.6612C241.289 66.669 241.963 67.8607 242.426 69.2362C242.889 70.5981 243.121 72.0758 243.121 73.6692V74.1391C243.121 75.7325 242.889 77.2102 242.426 78.5721C241.963 79.934 241.289 81.1256 240.404 82.1471C239.532 83.1549 238.477 83.9448 237.237 84.5168C236.012 85.0752 234.622 85.3544 233.07 85.3544C231.517 85.3544 230.121 85.0752 228.882 84.5168C227.643 83.9448 226.58 83.1549 225.695 82.1471C224.823 81.1256 224.156 79.934 223.693 78.5721C223.23 77.2102 222.998 75.7325 222.998 74.1391ZM226.778 73.6692V74.1391C226.778 75.2422 226.907 76.2841 227.166 77.2646C227.425 78.2316 227.813 79.0896 228.33 79.8386C228.861 80.5877 229.522 81.1801 230.312 81.6159C231.102 82.0381 232.021 82.2492 233.07 82.2492C234.105 82.2492 235.011 82.0381 235.787 81.6159C236.577 81.1801 237.23 80.5877 237.748 79.8386C238.265 79.0896 238.654 78.2316 238.912 77.2646C239.185 76.2841 239.321 75.2422 239.321 74.1391V73.6692C239.321 72.5797 239.185 71.5514 238.912 70.5845C238.654 69.6039 238.259 68.7391 237.728 67.99C237.21 67.2274 236.556 66.6281 235.766 66.1923C234.99 65.7565 234.078 65.5386 233.029 65.5386C231.994 65.5386 231.081 65.7565 230.291 66.1923C229.515 66.6281 228.861 67.2274 228.33 67.99C227.813 68.7391 227.425 69.6039 227.166 70.5845C226.907 71.5514 226.778 72.5797 226.778 73.6692ZM251.619 67.2342V84.9458H247.819V62.842H251.415L251.619 67.2342ZM250.843 73.0563L249.086 72.9951C249.099 71.4833 249.297 70.0874 249.678 68.8072C250.06 67.5134 250.625 66.3898 251.374 65.4365C252.123 64.4831 253.056 63.7477 254.173 63.2302C255.289 62.699 256.583 62.4334 258.054 62.4334C259.089 62.4334 260.042 62.5833 260.914 62.8829C261.786 63.1689 262.541 63.6251 263.182 64.2516C263.822 64.8781 264.319 65.6816 264.673 66.6622C265.027 67.6427 265.204 68.8276 265.204 70.2168V84.9458H261.425V70.4006C261.425 69.243 261.227 68.3169 260.832 67.6223C260.451 66.9277 259.906 66.4238 259.198 66.1106C258.49 65.7837 257.659 65.6203 256.706 65.6203C255.589 65.6203 254.656 65.8178 253.907 66.2127C253.158 66.6077 252.559 67.1525 252.109 67.847C251.66 68.5416 251.333 69.3383 251.129 70.2372C250.938 71.1224 250.843 72.0621 250.843 73.0563ZM265.163 70.9726L262.63 71.7489C262.644 70.5368 262.841 69.3724 263.222 68.2556C263.617 67.1388 264.183 66.1447 264.918 65.273C265.667 64.4014 266.586 63.7136 267.676 63.2097C268.765 62.6922 270.012 62.4334 271.414 62.4334C272.599 62.4334 273.648 62.5901 274.56 62.9033C275.486 63.2165 276.263 63.7 276.889 64.3537C277.529 64.9938 278.013 65.8178 278.34 66.8256C278.666 67.8334 278.83 69.0319 278.83 70.421V84.9458H275.03V70.3802C275.03 69.1408 274.833 68.1807 274.438 67.4997C274.056 66.8052 273.512 66.3217 272.803 66.0493C272.109 65.7633 271.278 65.6203 270.311 65.6203C269.48 65.6203 268.745 65.7633 268.105 66.0493C267.465 66.3353 266.927 66.7303 266.491 67.2342C266.055 67.7245 265.722 68.2897 265.49 68.9298C265.272 69.5699 265.163 70.2508 265.163 70.9726ZM297.583 81.1665V69.7878C297.583 68.9161 297.406 68.1603 297.052 67.5202C296.712 66.8665 296.194 66.3626 295.5 66.0085C294.805 65.6544 293.947 65.4773 292.926 65.4773C291.972 65.4773 291.135 65.6407 290.413 65.9676C289.705 66.2945 289.146 66.7235 288.738 67.2546C288.343 67.7858 288.145 68.3578 288.145 68.9706H284.366C284.366 68.1807 284.57 67.3976 284.979 66.6213C285.388 65.845 285.973 65.1436 286.736 64.5172C287.512 63.8771 288.438 63.3732 289.514 63.0055C290.604 62.6241 291.816 62.4334 293.15 62.4334C294.757 62.4334 296.174 62.7058 297.4 63.2506C298.639 63.7954 299.606 64.6193 300.3 65.7225C301.009 66.812 301.363 68.1807 301.363 69.8286V80.1246C301.363 80.8601 301.424 81.6432 301.547 82.4739C301.683 83.3047 301.88 84.0197 302.139 84.6189V84.9458H298.196C298.006 84.51 297.856 83.9312 297.747 83.2094C297.638 82.4739 297.583 81.793 297.583 81.1665ZM298.237 71.5446L298.278 74.2003H294.458C293.382 74.2003 292.422 74.2889 291.577 74.4659C290.733 74.6293 290.025 74.8813 289.453 75.2218C288.881 75.5622 288.445 75.9913 288.145 76.5088C287.846 77.0127 287.696 77.6051 287.696 78.2861C287.696 78.9806 287.853 79.6139 288.166 80.1859C288.479 80.7579 288.949 81.2142 289.575 81.5546C290.215 81.8815 290.999 82.0449 291.925 82.0449C293.082 82.0449 294.104 81.7998 294.989 81.3095C295.874 80.8192 296.576 80.22 297.093 79.5118C297.624 78.8036 297.91 78.1158 297.951 77.4485L299.565 79.2666C299.47 79.8386 299.211 80.4719 298.789 81.1665C298.366 81.8611 297.801 82.5284 297.093 83.1685C296.399 83.795 295.568 84.3193 294.601 84.7415C293.647 85.1501 292.572 85.3544 291.373 85.3544C289.875 85.3544 288.561 85.0616 287.43 84.4759C286.314 83.8903 285.442 83.1072 284.816 82.1266C284.203 81.1325 283.896 80.0225 283.896 78.7968C283.896 77.6119 284.128 76.5701 284.591 75.6712C285.054 74.7587 285.721 74.0029 286.593 73.4036C287.464 72.7908 288.513 72.3277 289.739 72.0145C290.965 71.7012 292.333 71.5446 293.845 71.5446H298.237ZM311.414 62.842V84.9458H307.614V62.842H311.414ZM307.328 56.979C307.328 56.3661 307.512 55.8486 307.879 55.4264C308.261 55.0042 308.819 54.7931 309.555 54.7931C310.276 54.7931 310.828 55.0042 311.209 55.4264C311.604 55.8486 311.802 56.3661 311.802 56.979C311.802 57.5646 311.604 58.0685 311.209 58.4907C310.828 58.8993 310.276 59.1036 309.555 59.1036C308.819 59.1036 308.261 58.8993 307.879 58.4907C307.512 58.0685 307.328 57.5646 307.328 56.979ZM321.26 67.561V84.9458H317.481V62.842H321.056L321.26 67.561ZM320.361 73.0563L318.788 72.9951C318.802 71.4833 319.027 70.0874 319.462 68.8072C319.898 67.5134 320.511 66.3898 321.301 65.4365C322.091 64.4831 323.031 63.7477 324.12 63.2302C325.223 62.699 326.442 62.4334 327.777 62.4334C328.866 62.4334 329.847 62.5833 330.719 62.8829C331.59 63.1689 332.333 63.6319 332.945 64.272C333.572 64.9121 334.049 65.7429 334.375 66.7643C334.702 67.7721 334.866 69.0047 334.866 70.4619V84.9458H331.066V70.421C331.066 69.2634 330.896 68.3373 330.555 67.6427C330.215 66.9346 329.718 66.4238 329.064 66.1106C328.41 65.7837 327.607 65.6203 326.653 65.6203C325.714 65.6203 324.856 65.8178 324.079 66.2127C323.317 66.6077 322.656 67.1525 322.098 67.847C321.553 68.5416 321.124 69.3383 320.811 70.2372C320.511 71.1224 320.361 72.0621 320.361 73.0563ZM360.299 74.9358V78.0409H338.808V75.8142L352.128 55.2017H355.213L351.903 61.1669L343.098 74.9358H360.299ZM356.152 55.2017V84.9458H352.373V55.2017H356.152ZM364.201 82.9438C364.201 82.3037 364.399 81.7657 364.794 81.3299C365.202 80.8805 365.788 80.6558 366.55 80.6558C367.313 80.6558 367.892 80.8805 368.287 81.3299C368.695 81.7657 368.9 82.3037 368.9 82.9438C368.9 83.5703 368.695 84.1014 368.287 84.5372C367.892 84.973 367.313 85.1909 366.55 85.1909C365.788 85.1909 365.202 84.973 364.794 84.5372C364.399 84.1014 364.201 83.5703 364.201 82.9438ZM378.951 66.3149V84.9458H375.171V62.842H378.848L378.951 66.3149ZM385.856 62.7194L385.835 66.2332C385.522 66.1651 385.222 66.1242 384.936 66.1106C384.664 66.0834 384.351 66.0697 383.996 66.0697C383.125 66.0697 382.355 66.2059 381.688 66.4783C381.021 66.7507 380.456 67.132 379.992 67.6223C379.529 68.1126 379.162 68.6982 378.889 69.3792C378.631 70.0465 378.46 70.7819 378.379 71.5855L377.316 72.1983C377.316 70.8637 377.446 69.6107 377.704 68.4395C377.977 67.2682 378.392 66.2332 378.951 65.3343C379.509 64.4218 380.217 63.7136 381.075 63.2097C381.947 62.6922 382.982 62.4334 384.18 62.4334C384.453 62.4334 384.766 62.4675 385.12 62.5356C385.474 62.5901 385.719 62.6514 385.856 62.7194ZM402.873 79.8386V62.842H406.672V84.9458H403.056L402.873 79.8386ZM403.588 75.1809L405.161 75.1401C405.161 76.6109 405.004 77.9728 404.691 79.2258C404.391 80.4651 403.901 81.541 403.22 82.4535C402.539 83.366 401.647 84.081 400.544 84.5985C399.441 85.1024 398.099 85.3544 396.519 85.3544C395.443 85.3544 394.456 85.1978 393.557 84.8845C392.672 84.5713 391.909 84.0878 391.269 83.4341C390.629 82.7804 390.132 81.9292 389.778 80.8805C389.437 79.8318 389.267 78.5721 389.267 77.1012V62.842H393.046V77.1421C393.046 78.1363 393.155 78.9602 393.373 79.6139C393.605 80.254 393.911 80.7647 394.293 81.1461C394.688 81.5138 395.123 81.7726 395.6 81.9224C396.09 82.0722 396.594 82.1471 397.112 82.1471C398.719 82.1471 399.992 81.8406 400.932 81.2278C401.872 80.6013 402.546 79.7637 402.954 78.7151C403.376 77.6528 403.588 76.4747 403.588 75.1809Z" fill="#333333"/>
<path d="M597.682 79.3388C597.367 78.9973 597.209 78.5626 597.209 78.0347C597.209 77.5069 597.367 77.0722 597.682 76.7306L605.593 68.1608C605.765 67.9745 605.951 67.8428 606.152 67.7658C606.353 67.6888 606.568 67.6497 606.797 67.6484C607.026 67.6484 607.249 67.695 607.464 67.7882C607.68 67.8813 607.859 68.0055 608.001 68.1608L615.912 76.7306C616.227 77.0722 616.385 77.5069 616.385 78.0347C616.385 78.5626 616.227 78.9973 615.912 79.3388C615.596 79.6804 615.195 79.8511 614.708 79.8511C614.221 79.8511 613.819 79.6804 613.504 79.3388L606.797 72.0731L600.09 79.3388C599.774 79.6804 599.373 79.8511 598.886 79.8511C598.399 79.8511 597.997 79.6804 597.682 79.3388Z" fill="#CCCCCC"/>
<path d="M68.6597 211.622V243H64.8804V211.622H68.6597ZM67.7609 231.111L66.1879 231.049C66.2015 229.538 66.4262 228.142 66.862 226.861C67.2978 225.568 67.9107 224.444 68.7006 223.491C69.4905 222.537 70.4302 221.802 71.5197 221.284C72.6229 220.753 73.8418 220.488 75.1765 220.488C76.266 220.488 77.2466 220.637 78.1182 220.937C78.9898 221.223 79.7321 221.686 80.3449 222.326C80.9714 222.966 81.4481 223.797 81.7749 224.819C82.1018 225.826 82.2652 227.059 82.2652 228.516V243H78.4655V228.475C78.4655 227.318 78.2952 226.392 77.9548 225.697C77.6143 224.989 77.1172 224.478 76.4635 224.165C75.8098 223.838 75.0062 223.675 74.0529 223.675C73.1132 223.675 72.2552 223.872 71.4789 224.267C70.7162 224.662 70.0557 225.207 69.4973 225.901C68.9525 226.596 68.5235 227.393 68.2103 228.291C67.9107 229.177 67.7609 230.116 67.7609 231.111ZM97.1781 220.896V223.797H85.2274V220.896H97.1781ZM89.2722 215.523H93.0515V237.525C93.0515 238.274 93.1673 238.839 93.3988 239.221C93.6303 239.602 93.93 239.854 94.2977 239.977C94.6654 240.099 95.0603 240.16 95.4825 240.16C95.7958 240.16 96.1226 240.133 96.4631 240.079C96.8172 240.011 97.0828 239.956 97.2598 239.915L97.2802 243C96.9806 243.095 96.5857 243.184 96.0954 243.266C95.6187 243.361 95.0399 243.409 94.359 243.409C93.4329 243.409 92.5817 243.225 91.8054 242.857C91.0291 242.489 90.4094 241.876 89.9464 241.018C89.4969 240.147 89.2722 238.976 89.2722 237.505V215.523ZM110.865 220.896V223.797H98.9145V220.896H110.865ZM102.959 215.523H106.739V237.525C106.739 238.274 106.854 238.839 107.086 239.221C107.318 239.602 107.617 239.854 107.985 239.977C108.353 240.099 108.748 240.16 109.17 240.16C109.483 240.16 109.81 240.133 110.15 240.079C110.504 240.011 110.77 239.956 110.947 239.915L110.967 243C110.668 243.095 110.273 243.184 109.783 243.266C109.306 243.361 108.727 243.409 108.046 243.409C107.12 243.409 106.269 243.225 105.493 242.857C104.716 242.489 104.097 241.876 103.634 241.018C103.184 240.147 102.959 238.976 102.959 237.505V215.523ZM119.078 225.145V251.498H115.278V220.896H118.751L119.078 225.145ZM133.97 231.764V232.193C133.97 233.8 133.779 235.292 133.398 236.667C133.017 238.029 132.458 239.214 131.723 240.222C131.001 241.23 130.109 242.013 129.047 242.571C127.984 243.129 126.766 243.409 125.39 243.409C123.987 243.409 122.748 243.177 121.672 242.714C120.596 242.251 119.684 241.577 118.935 240.692C118.186 239.806 117.586 238.744 117.137 237.505C116.701 236.265 116.401 234.869 116.238 233.317V231.029C116.401 229.395 116.708 227.93 117.157 226.637C117.607 225.343 118.199 224.24 118.935 223.327C119.684 222.401 120.589 221.7 121.652 221.223C122.714 220.733 123.94 220.488 125.329 220.488C126.718 220.488 127.95 220.76 129.026 221.305C130.102 221.836 131.008 222.599 131.743 223.593C132.479 224.587 133.03 225.779 133.398 227.168C133.779 228.543 133.97 230.075 133.97 231.764ZM130.17 232.193V231.764C130.17 230.661 130.055 229.626 129.823 228.659C129.592 227.679 129.231 226.821 128.74 226.085C128.264 225.336 127.651 224.75 126.902 224.328C126.153 223.892 125.261 223.675 124.226 223.675C123.272 223.675 122.442 223.838 121.733 224.165C121.039 224.492 120.446 224.934 119.956 225.493C119.466 226.037 119.064 226.664 118.751 227.372C118.451 228.067 118.226 228.788 118.077 229.538V234.829C118.349 235.782 118.73 236.681 119.221 237.525C119.711 238.356 120.365 239.03 121.182 239.548C121.999 240.051 123.027 240.303 124.266 240.303C125.288 240.303 126.166 240.092 126.902 239.67C127.651 239.234 128.264 238.642 128.74 237.893C129.231 237.144 129.592 236.286 129.823 235.319C130.055 234.338 130.17 233.296 130.17 232.193ZM151.661 237.137C151.661 236.592 151.539 236.088 151.294 235.625C151.062 235.149 150.579 234.72 149.843 234.338C149.121 233.943 148.032 233.603 146.575 233.317C145.349 233.058 144.239 232.752 143.245 232.398C142.264 232.043 141.427 231.614 140.732 231.111C140.051 230.607 139.527 230.014 139.159 229.333C138.791 228.652 138.607 227.856 138.607 226.943C138.607 226.071 138.798 225.248 139.179 224.471C139.574 223.695 140.126 223.007 140.834 222.408C141.556 221.809 142.421 221.339 143.429 220.998C144.436 220.658 145.56 220.488 146.799 220.488C148.57 220.488 150.081 220.801 151.334 221.427C152.587 222.054 153.548 222.891 154.215 223.94C154.882 224.975 155.216 226.126 155.216 227.393H151.437C151.437 226.78 151.253 226.187 150.885 225.615C150.531 225.03 150.007 224.546 149.312 224.165C148.631 223.783 147.793 223.593 146.799 223.593C145.751 223.593 144.899 223.756 144.246 224.083C143.606 224.396 143.136 224.798 142.836 225.288C142.55 225.779 142.407 226.296 142.407 226.841C142.407 227.25 142.475 227.617 142.611 227.944C142.761 228.257 143.02 228.55 143.388 228.823C143.755 229.081 144.273 229.326 144.94 229.558C145.608 229.789 146.459 230.021 147.494 230.253C149.305 230.661 150.796 231.151 151.968 231.723C153.139 232.295 154.011 232.997 154.583 233.828C155.155 234.658 155.441 235.666 155.441 236.851C155.441 237.818 155.236 238.703 154.828 239.507C154.433 240.31 153.854 241.005 153.091 241.59C152.342 242.162 151.443 242.612 150.395 242.939C149.36 243.252 148.195 243.409 146.901 243.409C144.954 243.409 143.306 243.061 141.958 242.367C140.609 241.672 139.588 240.773 138.893 239.67C138.199 238.567 137.852 237.403 137.852 236.177H141.651C141.706 237.212 142.005 238.036 142.55 238.649C143.095 239.248 143.762 239.677 144.552 239.936C145.342 240.181 146.125 240.303 146.901 240.303C147.936 240.303 148.801 240.167 149.496 239.895C150.204 239.622 150.742 239.248 151.11 238.771C151.477 238.295 151.661 237.75 151.661 237.137ZM160.241 240.998C160.241 240.358 160.439 239.82 160.834 239.384C161.242 238.935 161.828 238.71 162.591 238.71C163.353 238.71 163.932 238.935 164.327 239.384C164.736 239.82 164.94 240.358 164.94 240.998C164.94 241.624 164.736 242.156 164.327 242.591C163.932 243.027 163.353 243.245 162.591 243.245C161.828 243.245 161.242 243.027 160.834 242.591C160.439 242.156 160.241 241.624 160.241 240.998ZM160.262 222.96C160.262 222.319 160.459 221.781 160.854 221.346C161.263 220.896 161.848 220.672 162.611 220.672C163.374 220.672 163.952 220.896 164.347 221.346C164.756 221.781 164.96 222.319 164.96 222.96C164.96 223.586 164.756 224.117 164.347 224.553C163.952 224.989 163.374 225.207 162.611 225.207C161.848 225.207 161.263 224.989 160.854 224.553C160.459 224.117 160.262 223.586 160.262 222.96ZM183.693 213.256L171.293 245.554H168.045L180.466 213.256H183.693ZM196.4 213.256L184 245.554H180.752L193.172 213.256H196.4ZM213.56 239.221V227.842C213.56 226.97 213.383 226.214 213.029 225.574C212.688 224.921 212.171 224.417 211.476 224.063C210.782 223.709 209.924 223.532 208.902 223.532C207.949 223.532 207.111 223.695 206.39 224.022C205.681 224.349 205.123 224.778 204.714 225.309C204.319 225.84 204.122 226.412 204.122 227.025H200.343C200.343 226.235 200.547 225.452 200.956 224.676C201.364 223.899 201.95 223.198 202.712 222.571C203.489 221.931 204.415 221.427 205.491 221.06C206.58 220.678 207.792 220.488 209.127 220.488C210.734 220.488 212.15 220.76 213.376 221.305C214.616 221.85 215.582 222.674 216.277 223.777C216.985 224.866 217.339 226.235 217.339 227.883V238.179C217.339 238.914 217.401 239.697 217.523 240.528C217.659 241.359 217.857 242.074 218.116 242.673V243H214.173C213.982 242.564 213.832 241.985 213.723 241.264C213.614 240.528 213.56 239.847 213.56 239.221ZM214.214 229.599L214.255 232.255H210.434C209.359 232.255 208.398 232.343 207.554 232.52C206.71 232.684 206.001 232.935 205.429 233.276C204.857 233.616 204.422 234.045 204.122 234.563C203.822 235.067 203.673 235.659 203.673 236.34C203.673 237.035 203.829 237.668 204.142 238.24C204.456 238.812 204.926 239.268 205.552 239.609C206.192 239.936 206.975 240.099 207.901 240.099C209.059 240.099 210.08 239.854 210.966 239.364C211.851 238.873 212.552 238.274 213.07 237.566C213.601 236.858 213.887 236.17 213.928 235.503L215.542 237.321C215.446 237.893 215.188 238.526 214.765 239.221C214.343 239.915 213.778 240.583 213.07 241.223C212.375 241.849 211.544 242.374 210.577 242.796C209.624 243.204 208.548 243.409 207.35 243.409C205.852 243.409 204.537 243.116 203.407 242.53C202.29 241.945 201.419 241.161 200.792 240.181C200.179 239.187 199.873 238.077 199.873 236.851C199.873 235.666 200.104 234.624 200.567 233.725C201.03 232.813 201.698 232.057 202.569 231.458C203.441 230.845 204.49 230.382 205.715 230.069C206.941 229.755 208.31 229.599 209.822 229.599H214.214ZM236.808 237.893V220.896H240.608V243H236.992L236.808 237.893ZM237.523 233.235L239.096 233.194C239.096 234.665 238.939 236.027 238.626 237.28C238.326 238.519 237.836 239.595 237.155 240.508C236.474 241.42 235.582 242.135 234.479 242.653C233.376 243.157 232.034 243.409 230.454 243.409C229.379 243.409 228.391 243.252 227.492 242.939C226.607 242.625 225.844 242.142 225.204 241.488C224.564 240.835 224.067 239.983 223.713 238.935C223.373 237.886 223.202 236.626 223.202 235.155V220.896H226.982V235.196C226.982 236.19 227.091 237.014 227.308 237.668C227.54 238.308 227.846 238.819 228.228 239.2C228.623 239.568 229.059 239.827 229.535 239.977C230.025 240.126 230.529 240.201 231.047 240.201C232.654 240.201 233.927 239.895 234.867 239.282C235.807 238.656 236.481 237.818 236.89 236.769C237.312 235.707 237.523 234.529 237.523 233.235ZM255.623 220.896V223.797H243.672V220.896H255.623ZM247.717 215.523H251.496V237.525C251.496 238.274 251.612 238.839 251.843 239.221C252.075 239.602 252.374 239.854 252.742 239.977C253.11 240.099 253.505 240.16 253.927 240.16C254.24 240.16 254.567 240.133 254.908 240.079C255.262 240.011 255.527 239.956 255.704 239.915L255.725 243C255.425 243.095 255.03 243.184 254.54 243.266C254.063 243.361 253.484 243.409 252.803 243.409C251.877 243.409 251.026 243.225 250.25 242.857C249.474 242.489 248.854 241.876 248.391 241.018C247.941 240.147 247.717 238.976 247.717 237.505V215.523ZM258.646 232.193V231.723C258.646 230.13 258.878 228.652 259.341 227.29C259.804 225.915 260.471 224.723 261.343 223.715C262.214 222.694 263.27 221.904 264.509 221.346C265.748 220.774 267.138 220.488 268.676 220.488C270.229 220.488 271.625 220.774 272.864 221.346C274.117 221.904 275.18 222.694 276.051 223.715C276.936 224.723 277.611 225.915 278.074 227.29C278.537 228.652 278.768 230.13 278.768 231.723V232.193C278.768 233.787 278.537 235.264 278.074 236.626C277.611 237.988 276.936 239.18 276.051 240.201C275.18 241.209 274.124 241.999 272.885 242.571C271.659 243.129 270.27 243.409 268.717 243.409C267.165 243.409 265.769 243.129 264.529 242.571C263.29 241.999 262.228 241.209 261.343 240.201C260.471 239.18 259.804 237.988 259.341 236.626C258.878 235.264 258.646 233.787 258.646 232.193ZM262.425 231.723V232.193C262.425 233.296 262.555 234.338 262.813 235.319C263.072 236.286 263.46 237.144 263.978 237.893C264.509 238.642 265.17 239.234 265.959 239.67C266.749 240.092 267.669 240.303 268.717 240.303C269.752 240.303 270.658 240.092 271.434 239.67C272.224 239.234 272.878 238.642 273.395 237.893C273.913 237.144 274.301 236.286 274.56 235.319C274.832 234.338 274.968 233.296 274.968 232.193V231.723C274.968 230.634 274.832 229.606 274.56 228.639C274.301 227.658 273.906 226.793 273.375 226.044C272.858 225.282 272.204 224.682 271.414 224.247C270.638 223.811 269.725 223.593 268.676 223.593C267.641 223.593 266.729 223.811 265.939 224.247C265.163 224.682 264.509 225.282 263.978 226.044C263.46 226.793 263.072 227.658 262.813 228.639C262.555 229.606 262.425 230.634 262.425 231.723ZM291.373 228.802V231.907H281.404V228.802H291.373ZM298.829 225.288V243H295.029V220.896H298.625L298.829 225.288ZM298.053 231.111L296.296 231.049C296.31 229.538 296.507 228.142 296.888 226.861C297.27 225.568 297.835 224.444 298.584 223.491C299.333 222.537 300.266 221.802 301.383 221.284C302.499 220.753 303.793 220.488 305.264 220.488C306.299 220.488 307.253 220.637 308.124 220.937C308.996 221.223 309.752 221.679 310.392 222.306C311.032 222.932 311.529 223.736 311.883 224.716C312.237 225.697 312.414 226.882 312.414 228.271V243H308.635V228.455C308.635 227.297 308.437 226.371 308.042 225.677C307.661 224.982 307.116 224.478 306.408 224.165C305.7 223.838 304.869 223.675 303.916 223.675C302.799 223.675 301.866 223.872 301.117 224.267C300.368 224.662 299.769 225.207 299.319 225.901C298.87 226.596 298.543 227.393 298.339 228.291C298.148 229.177 298.053 230.116 298.053 231.111ZM312.373 229.027L309.84 229.803C309.854 228.591 310.051 227.427 310.433 226.31C310.828 225.193 311.393 224.199 312.128 223.327C312.877 222.456 313.797 221.768 314.886 221.264C315.976 220.746 317.222 220.488 318.624 220.488C319.809 220.488 320.858 220.644 321.77 220.958C322.697 221.271 323.473 221.754 324.099 222.408C324.739 223.048 325.223 223.872 325.55 224.88C325.877 225.888 326.04 227.086 326.04 228.475V243H322.24V228.434C322.24 227.195 322.043 226.235 321.648 225.554C321.267 224.859 320.722 224.376 320.014 224.104C319.319 223.818 318.488 223.675 317.521 223.675C316.691 223.675 315.955 223.818 315.315 224.104C314.675 224.39 314.137 224.784 313.701 225.288C313.265 225.779 312.932 226.344 312.7 226.984C312.482 227.624 312.373 228.305 312.373 229.027ZM330.759 232.193V231.723C330.759 230.13 330.991 228.652 331.454 227.29C331.917 225.915 332.584 224.723 333.456 223.715C334.327 222.694 335.383 221.904 336.622 221.346C337.861 220.774 339.251 220.488 340.79 220.488C342.342 220.488 343.738 220.774 344.977 221.346C346.23 221.904 347.293 222.694 348.164 223.715C349.05 224.723 349.724 225.915 350.187 227.29C350.65 228.652 350.881 230.13 350.881 231.723V232.193C350.881 233.787 350.65 235.264 350.187 236.626C349.724 237.988 349.05 239.18 348.164 240.201C347.293 241.209 346.237 241.999 344.998 242.571C343.772 243.129 342.383 243.409 340.83 243.409C339.278 243.409 337.882 243.129 336.643 242.571C335.403 241.999 334.341 241.209 333.456 240.201C332.584 239.18 331.917 237.988 331.454 236.626C330.991 235.264 330.759 233.787 330.759 232.193ZM334.538 231.723V232.193C334.538 233.296 334.668 234.338 334.927 235.319C335.185 236.286 335.573 237.144 336.091 237.893C336.622 238.642 337.283 239.234 338.073 239.67C338.862 240.092 339.782 240.303 340.83 240.303C341.865 240.303 342.771 240.092 343.547 239.67C344.337 239.234 344.991 238.642 345.509 237.893C346.026 237.144 346.414 236.286 346.673 235.319C346.945 234.338 347.082 233.296 347.082 232.193V231.723C347.082 230.634 346.945 229.606 346.673 228.639C346.414 227.658 346.019 226.793 345.488 226.044C344.971 225.282 344.317 224.682 343.527 224.247C342.751 223.811 341.838 223.593 340.79 223.593C339.754 223.593 338.842 223.811 338.052 224.247C337.276 224.682 336.622 225.282 336.091 226.044C335.573 226.793 335.185 227.658 334.927 228.639C334.668 229.606 334.538 230.634 334.538 231.723ZM359.727 220.896V243H355.927V220.896H359.727ZM355.641 215.033C355.641 214.42 355.825 213.903 356.193 213.481C356.574 213.058 357.132 212.847 357.868 212.847C358.59 212.847 359.141 213.058 359.523 213.481C359.918 213.903 360.115 214.42 360.115 215.033C360.115 215.619 359.918 216.123 359.523 216.545C359.141 216.953 358.59 217.158 357.868 217.158C357.132 217.158 356.574 216.953 356.193 216.545C355.825 216.123 355.641 215.619 355.641 215.033ZM369.594 211.622V243H365.794V211.622H369.594ZM383.097 220.896L373.455 231.213L368.062 236.81L367.755 232.786L371.616 228.169L378.48 220.896H383.097ZM379.645 243L371.759 232.459L373.721 229.088L384.098 243H379.645ZM400.033 239.221V227.842C400.033 226.97 399.856 226.214 399.501 225.574C399.161 224.921 398.643 224.417 397.949 224.063C397.254 223.709 396.396 223.532 395.375 223.532C394.421 223.532 393.584 223.695 392.862 224.022C392.154 224.349 391.596 224.778 391.187 225.309C390.792 225.84 390.595 226.412 390.595 227.025H386.815C386.815 226.235 387.02 225.452 387.428 224.676C387.837 223.899 388.422 223.198 389.185 222.571C389.961 221.931 390.887 221.427 391.963 221.06C393.053 220.678 394.265 220.488 395.6 220.488C397.207 220.488 398.623 220.76 399.849 221.305C401.088 221.85 402.055 222.674 402.75 223.777C403.458 224.866 403.812 226.235 403.812 227.883V238.179C403.812 238.914 403.873 239.697 403.996 240.528C404.132 241.359 404.329 242.074 404.588 242.673V243H400.645C400.455 242.564 400.305 241.985 400.196 241.264C400.087 240.528 400.033 239.847 400.033 239.221ZM400.686 229.599L400.727 232.255H396.907C395.831 232.255 394.871 232.343 394.027 232.52C393.182 232.684 392.474 232.935 391.902 233.276C391.33 233.616 390.894 234.045 390.595 234.563C390.295 235.067 390.145 235.659 390.145 236.34C390.145 237.035 390.302 237.668 390.615 238.24C390.928 238.812 391.398 239.268 392.025 239.609C392.665 239.936 393.448 240.099 394.374 240.099C395.531 240.099 396.553 239.854 397.438 239.364C398.323 238.873 399.025 238.274 399.542 237.566C400.073 236.858 400.359 236.17 400.4 235.503L402.014 237.321C401.919 237.893 401.66 238.526 401.238 239.221C400.816 239.915 400.25 240.583 399.542 241.223C398.848 241.849 398.017 242.374 397.05 242.796C396.097 243.204 395.021 243.409 393.822 243.409C392.324 243.409 391.01 243.116 389.88 242.53C388.763 241.945 387.891 241.161 387.265 240.181C386.652 239.187 386.345 238.077 386.345 236.851C386.345 235.666 386.577 234.624 387.04 233.725C387.503 232.813 388.17 232.057 389.042 231.458C389.914 230.845 390.962 230.382 392.188 230.069C393.414 229.755 394.782 229.599 396.294 229.599H400.686ZM428.837 239.895V243H409.368V240.283L419.113 229.435C420.311 228.101 421.237 226.97 421.891 226.044C422.559 225.105 423.022 224.267 423.28 223.532C423.553 222.782 423.689 222.02 423.689 221.244C423.689 220.263 423.485 219.378 423.076 218.588C422.681 217.784 422.095 217.144 421.319 216.667C420.543 216.191 419.603 215.952 418.5 215.952C417.179 215.952 416.076 216.211 415.191 216.729C414.319 217.233 413.665 217.941 413.229 218.853C412.794 219.766 412.576 220.815 412.576 221.999H408.796C408.796 220.324 409.164 218.792 409.9 217.403C410.635 216.014 411.725 214.911 413.168 214.093C414.612 213.263 416.389 212.847 418.5 212.847C420.379 212.847 421.987 213.181 423.321 213.848C424.656 214.502 425.677 215.428 426.386 216.627C427.107 217.811 427.468 219.201 427.468 220.794C427.468 221.666 427.318 222.551 427.019 223.45C426.733 224.335 426.331 225.22 425.814 226.106C425.31 226.991 424.717 227.862 424.036 228.72C423.369 229.578 422.654 230.423 421.891 231.254L413.924 239.895H428.837ZM452.984 232.99V236.095H431.493V233.868L444.812 213.256H447.897L444.587 219.221L435.783 232.99H452.984ZM448.837 213.256V243H445.057V213.256H448.837ZM456.885 240.998C456.885 240.358 457.083 239.82 457.478 239.384C457.886 238.935 458.472 238.71 459.235 238.71C459.997 238.71 460.576 238.935 460.971 239.384C461.38 239.82 461.584 240.358 461.584 240.998C461.584 241.624 461.38 242.156 460.971 242.591C460.576 243.027 459.997 243.245 459.235 243.245C458.472 243.245 457.886 243.027 457.478 242.591C457.083 242.156 456.885 241.624 456.885 240.998ZM471.635 224.369V243H467.856V220.896H471.533L471.635 224.369ZM478.54 220.774L478.519 224.287C478.206 224.219 477.907 224.178 477.621 224.165C477.348 224.138 477.035 224.124 476.681 224.124C475.809 224.124 475.04 224.26 474.372 224.533C473.705 224.805 473.14 225.186 472.677 225.677C472.214 226.167 471.846 226.752 471.574 227.433C471.315 228.101 471.145 228.836 471.063 229.64L470.001 230.253C470.001 228.918 470.13 227.665 470.389 226.494C470.661 225.322 471.077 224.287 471.635 223.389C472.193 222.476 472.901 221.768 473.76 221.264C474.631 220.746 475.666 220.488 476.865 220.488C477.137 220.488 477.45 220.522 477.804 220.59C478.158 220.644 478.404 220.706 478.54 220.774ZM495.557 237.893V220.896H499.357V243H495.741L495.557 237.893ZM496.272 233.235L497.845 233.194C497.845 234.665 497.688 236.027 497.375 237.28C497.075 238.519 496.585 239.595 495.904 240.508C495.223 241.42 494.331 242.135 493.228 242.653C492.125 243.157 490.783 243.409 489.204 243.409C488.128 243.409 487.14 243.252 486.241 242.939C485.356 242.625 484.593 242.142 483.953 241.488C483.313 240.835 482.816 239.983 482.462 238.935C482.122 237.886 481.951 236.626 481.951 235.155V220.896H485.731V235.196C485.731 236.19 485.84 237.014 486.058 237.668C486.289 238.308 486.595 238.819 486.977 239.2C487.372 239.568 487.808 239.827 488.284 239.977C488.775 240.126 489.278 240.201 489.796 240.201C491.403 240.201 492.676 239.895 493.616 239.282C494.556 238.656 495.23 237.818 495.639 236.769C496.061 235.707 496.272 234.529 496.272 233.235Z" fill="#333333"/>
<line x1="31" y1="113.5" x2="487" y2="113.5" stroke="#E7E7E7"/>
<line x1="31" y1="194.5" x2="487" y2="194.5" stroke="#E7E7E7"/>
<rect width="616" height="80" transform="translate(33 114)" fill="#E7E7E7"/>
<path d="M68.6597 137.622V169H64.8804V137.622H68.6597ZM67.7609 157.111L66.1879 157.049C66.2015 155.538 66.4262 154.142 66.862 152.861C67.2978 151.568 67.9107 150.444 68.7006 149.491C69.4905 148.537 70.4302 147.802 71.5197 147.284C72.6229 146.753 73.8418 146.488 75.1765 146.488C76.266 146.488 77.2466 146.637 78.1182 146.937C78.9898 147.223 79.7321 147.686 80.3449 148.326C80.9714 148.966 81.4481 149.797 81.7749 150.819C82.1018 151.826 82.2652 153.059 82.2652 154.516V169H78.4655V154.475C78.4655 153.318 78.2952 152.392 77.9548 151.697C77.6143 150.989 77.1172 150.478 76.4635 150.165C75.8098 149.838 75.0062 149.675 74.0529 149.675C73.1132 149.675 72.2552 149.872 71.4789 150.267C70.7162 150.662 70.0557 151.207 69.4973 151.901C68.9525 152.596 68.5235 153.393 68.2103 154.291C67.9107 155.177 67.7609 156.116 67.7609 157.111ZM97.1781 146.896V149.797H85.2274V146.896H97.1781ZM89.2722 141.523H93.0515V163.525C93.0515 164.274 93.1673 164.839 93.3988 165.221C93.6303 165.602 93.93 165.854 94.2977 165.977C94.6654 166.099 95.0603 166.16 95.4825 166.16C95.7958 166.16 96.1226 166.133 96.4631 166.079C96.8172 166.011 97.0828 165.956 97.2598 165.915L97.2802 169C96.9806 169.095 96.5857 169.184 96.0954 169.266C95.6187 169.361 95.0399 169.409 94.359 169.409C93.4329 169.409 92.5817 169.225 91.8054 168.857C91.0291 168.489 90.4094 167.876 89.9464 167.018C89.4969 166.147 89.2722 164.976 89.2722 163.505V141.523ZM110.865 146.896V149.797H98.9145V146.896H110.865ZM102.959 141.523H106.739V163.525C106.739 164.274 106.854 164.839 107.086 165.221C107.318 165.602 107.617 165.854 107.985 165.977C108.353 166.099 108.748 166.16 109.17 166.16C109.483 166.16 109.81 166.133 110.15 166.079C110.504 166.011 110.77 165.956 110.947 165.915L110.967 169C110.668 169.095 110.273 169.184 109.783 169.266C109.306 169.361 108.727 169.409 108.046 169.409C107.12 169.409 106.269 169.225 105.493 168.857C104.716 168.489 104.097 167.876 103.634 167.018C103.184 166.147 102.959 164.976 102.959 163.505V141.523ZM119.078 151.145V177.498H115.278V146.896H118.751L119.078 151.145ZM133.97 157.764V158.193C133.97 159.8 133.779 161.292 133.398 162.667C133.017 164.029 132.458 165.214 131.723 166.222C131.001 167.23 130.109 168.013 129.047 168.571C127.984 169.129 126.766 169.409 125.39 169.409C123.987 169.409 122.748 169.177 121.672 168.714C120.596 168.251 119.684 167.577 118.935 166.692C118.186 165.806 117.586 164.744 117.137 163.505C116.701 162.265 116.401 160.869 116.238 159.317V157.029C116.401 155.395 116.708 153.93 117.157 152.637C117.607 151.343 118.199 150.24 118.935 149.327C119.684 148.401 120.589 147.7 121.652 147.223C122.714 146.733 123.94 146.488 125.329 146.488C126.718 146.488 127.95 146.76 129.026 147.305C130.102 147.836 131.008 148.599 131.743 149.593C132.479 150.587 133.03 151.779 133.398 153.168C133.779 154.543 133.97 156.075 133.97 157.764ZM130.17 158.193V157.764C130.17 156.661 130.055 155.626 129.823 154.659C129.592 153.679 129.231 152.821 128.74 152.085C128.264 151.336 127.651 150.75 126.902 150.328C126.153 149.892 125.261 149.675 124.226 149.675C123.272 149.675 122.442 149.838 121.733 150.165C121.039 150.492 120.446 150.934 119.956 151.493C119.466 152.037 119.064 152.664 118.751 153.372C118.451 154.067 118.226 154.788 118.077 155.538V160.829C118.349 161.782 118.73 162.681 119.221 163.525C119.711 164.356 120.365 165.03 121.182 165.548C121.999 166.051 123.027 166.303 124.266 166.303C125.288 166.303 126.166 166.092 126.902 165.67C127.651 165.234 128.264 164.642 128.74 163.893C129.231 163.144 129.592 162.286 129.823 161.319C130.055 160.338 130.17 159.296 130.17 158.193ZM151.661 163.137C151.661 162.592 151.539 162.088 151.294 161.625C151.062 161.149 150.579 160.72 149.843 160.338C149.121 159.943 148.032 159.603 146.575 159.317C145.349 159.058 144.239 158.752 143.245 158.398C142.264 158.043 141.427 157.614 140.732 157.111C140.051 156.607 139.527 156.014 139.159 155.333C138.791 154.652 138.607 153.856 138.607 152.943C138.607 152.071 138.798 151.248 139.179 150.471C139.574 149.695 140.126 149.007 140.834 148.408C141.556 147.809 142.421 147.339 143.429 146.998C144.436 146.658 145.56 146.488 146.799 146.488C148.57 146.488 150.081 146.801 151.334 147.427C152.587 148.054 153.548 148.891 154.215 149.94C154.882 150.975 155.216 152.126 155.216 153.393H151.437C151.437 152.78 151.253 152.187 150.885 151.615C150.531 151.03 150.007 150.546 149.312 150.165C148.631 149.783 147.793 149.593 146.799 149.593C145.751 149.593 144.899 149.756 144.246 150.083C143.606 150.396 143.136 150.798 142.836 151.288C142.55 151.779 142.407 152.296 142.407 152.841C142.407 153.25 142.475 153.617 142.611 153.944C142.761 154.257 143.02 154.55 143.388 154.823C143.755 155.081 144.273 155.326 144.94 155.558C145.608 155.789 146.459 156.021 147.494 156.253C149.305 156.661 150.796 157.151 151.968 157.723C153.139 158.295 154.011 158.997 154.583 159.828C155.155 160.658 155.441 161.666 155.441 162.851C155.441 163.818 155.236 164.703 154.828 165.507C154.433 166.31 153.854 167.005 153.091 167.59C152.342 168.162 151.443 168.612 150.395 168.939C149.36 169.252 148.195 169.409 146.901 169.409C144.954 169.409 143.306 169.061 141.958 168.367C140.609 167.672 139.588 166.773 138.893 165.67C138.199 164.567 137.852 163.403 137.852 162.177H141.651C141.706 163.212 142.005 164.036 142.55 164.649C143.095 165.248 143.762 165.677 144.552 165.936C145.342 166.181 146.125 166.303 146.901 166.303C147.936 166.303 148.801 166.167 149.496 165.895C150.204 165.622 150.742 165.248 151.11 164.771C151.477 164.295 151.661 163.75 151.661 163.137ZM160.241 166.998C160.241 166.358 160.439 165.82 160.834 165.384C161.242 164.935 161.828 164.71 162.591 164.71C163.353 164.71 163.932 164.935 164.327 165.384C164.736 165.82 164.94 166.358 164.94 166.998C164.94 167.624 164.736 168.156 164.327 168.591C163.932 169.027 163.353 169.245 162.591 169.245C161.828 169.245 161.242 169.027 160.834 168.591C160.439 168.156 160.241 167.624 160.241 166.998ZM160.262 148.96C160.262 148.319 160.459 147.781 160.854 147.346C161.263 146.896 161.848 146.672 162.611 146.672C163.374 146.672 163.952 146.896 164.347 147.346C164.756 147.781 164.96 148.319 164.96 148.96C164.96 149.586 164.756 150.117 164.347 150.553C163.952 150.989 163.374 151.207 162.611 151.207C161.848 151.207 161.263 150.989 160.854 150.553C160.459 150.117 160.262 149.586 160.262 148.96ZM183.693 139.256L171.293 171.554H168.045L180.466 139.256H183.693ZM196.4 139.256L184 171.554H180.752L193.172 139.256H196.4ZM209.781 146.896V149.797H197.83V146.896H209.781ZM201.875 141.523H205.654V163.525C205.654 164.274 205.77 164.839 206.001 165.221C206.233 165.602 206.533 165.854 206.9 165.977C207.268 166.099 207.663 166.16 208.085 166.16C208.398 166.16 208.725 166.133 209.066 166.079C209.42 166.011 209.685 165.956 209.862 165.915L209.883 169C209.583 169.095 209.188 169.184 208.698 169.266C208.221 169.361 207.643 169.409 206.962 169.409C206.035 169.409 205.184 169.225 204.408 168.857C203.632 168.489 203.012 167.876 202.549 167.018C202.1 166.147 201.875 164.976 201.875 163.505V141.523ZM212.804 158.193V157.723C212.804 156.13 213.036 154.652 213.499 153.29C213.962 151.915 214.629 150.723 215.501 149.715C216.372 148.694 217.428 147.904 218.667 147.346C219.907 146.774 221.296 146.488 222.835 146.488C224.387 146.488 225.783 146.774 227.022 147.346C228.275 147.904 229.338 148.694 230.209 149.715C231.095 150.723 231.769 151.915 232.232 153.29C232.695 154.652 232.926 156.13 232.926 157.723V158.193C232.926 159.787 232.695 161.264 232.232 162.626C231.769 163.988 231.095 165.18 230.209 166.201C229.338 167.209 228.282 167.999 227.043 168.571C225.817 169.129 224.428 169.409 222.875 169.409C221.323 169.409 219.927 169.129 218.688 168.571C217.448 167.999 216.386 167.209 215.501 166.201C214.629 165.18 213.962 163.988 213.499 162.626C213.036 161.264 212.804 159.787 212.804 158.193ZM216.583 157.723V158.193C216.583 159.296 216.713 160.338 216.972 161.319C217.23 162.286 217.619 163.144 218.136 163.893C218.667 164.642 219.328 165.234 220.118 165.67C220.908 166.092 221.827 166.303 222.875 166.303C223.911 166.303 224.816 166.092 225.592 165.67C226.382 165.234 227.036 164.642 227.554 163.893C228.071 163.144 228.459 162.286 228.718 161.319C228.99 160.338 229.127 159.296 229.127 158.193V157.723C229.127 156.634 228.99 155.606 228.718 154.639C228.459 153.658 228.064 152.793 227.533 152.044C227.016 151.282 226.362 150.682 225.572 150.247C224.796 149.811 223.883 149.593 222.835 149.593C221.8 149.593 220.887 149.811 220.097 150.247C219.321 150.682 218.667 151.282 218.136 152.044C217.619 152.793 217.23 153.658 216.972 154.639C216.713 155.606 216.583 156.634 216.583 157.723ZM241.445 150.369V169H237.666V146.896H241.343L241.445 150.369ZM248.35 146.774L248.33 150.287C248.016 150.219 247.717 150.178 247.431 150.165C247.158 150.138 246.845 150.124 246.491 150.124C245.619 150.124 244.85 150.26 244.183 150.533C243.515 150.805 242.95 151.186 242.487 151.677C242.024 152.167 241.656 152.752 241.384 153.433C241.125 154.101 240.955 154.836 240.873 155.64L239.811 156.253C239.811 154.918 239.94 153.665 240.199 152.494C240.471 151.322 240.887 150.287 241.445 149.389C242.003 148.476 242.712 147.768 243.57 147.264C244.441 146.746 245.476 146.488 246.675 146.488C246.947 146.488 247.26 146.522 247.615 146.59C247.969 146.644 248.214 146.706 248.35 146.774ZM262.119 146.896V149.797H250.168V146.896H262.119ZM254.213 141.523H257.992V163.525C257.992 164.274 258.108 164.839 258.34 165.221C258.571 165.602 258.871 165.854 259.238 165.977C259.606 166.099 260.001 166.16 260.423 166.16C260.737 166.16 261.063 166.133 261.404 166.079C261.758 166.011 262.024 165.956 262.201 165.915L262.221 169C261.921 169.095 261.526 169.184 261.036 169.266C260.559 169.361 259.981 169.409 259.3 169.409C258.374 169.409 257.522 169.225 256.746 168.857C255.97 168.489 255.35 167.876 254.887 167.018C254.438 166.147 254.213 164.976 254.213 163.505V141.523ZM274.417 154.802V157.907H264.448V154.802H274.417ZM281.873 151.288V169H278.074V146.896H281.669L281.873 151.288ZM281.097 157.111L279.34 157.049C279.354 155.538 279.551 154.142 279.933 152.861C280.314 151.568 280.879 150.444 281.628 149.491C282.377 148.537 283.31 147.802 284.427 147.284C285.544 146.753 286.838 146.488 288.308 146.488C289.343 146.488 290.297 146.637 291.168 146.937C292.04 147.223 292.796 147.679 293.436 148.306C294.076 148.932 294.573 149.736 294.927 150.716C295.281 151.697 295.458 152.882 295.458 154.271V169H291.679V154.455C291.679 153.297 291.482 152.371 291.087 151.677C290.705 150.982 290.161 150.478 289.452 150.165C288.744 149.838 287.913 149.675 286.96 149.675C285.843 149.675 284.91 149.872 284.161 150.267C283.412 150.662 282.813 151.207 282.364 151.901C281.914 152.596 281.587 153.393 281.383 154.291C281.192 155.177 281.097 156.116 281.097 157.111ZM295.418 155.027L292.884 155.803C292.898 154.591 293.095 153.427 293.477 152.31C293.872 151.193 294.437 150.199 295.172 149.327C295.921 148.456 296.841 147.768 297.93 147.264C299.02 146.746 300.266 146.488 301.669 146.488C302.854 146.488 303.902 146.644 304.815 146.958C305.741 147.271 306.517 147.754 307.144 148.408C307.784 149.048 308.267 149.872 308.594 150.88C308.921 151.888 309.084 153.086 309.084 154.475V169H305.285V154.434C305.285 153.195 305.087 152.235 304.692 151.554C304.311 150.859 303.766 150.376 303.058 150.104C302.363 149.818 301.533 149.675 300.566 149.675C299.735 149.675 298.999 149.818 298.359 150.104C297.719 150.39 297.181 150.784 296.745 151.288C296.31 151.779 295.976 152.344 295.744 152.984C295.526 153.624 295.418 154.305 295.418 155.027ZM327.674 163.137C327.674 162.592 327.552 162.088 327.307 161.625C327.075 161.149 326.592 160.72 325.856 160.338C325.134 159.943 324.045 159.603 322.588 159.317C321.362 159.058 320.252 158.752 319.258 158.398C318.277 158.043 317.44 157.614 316.745 157.111C316.064 156.607 315.54 156.014 315.172 155.333C314.804 154.652 314.62 153.856 314.62 152.943C314.62 152.071 314.811 151.248 315.192 150.471C315.587 149.695 316.139 149.007 316.847 148.408C317.569 147.809 318.434 147.339 319.442 146.998C320.449 146.658 321.573 146.488 322.812 146.488C324.583 146.488 326.095 146.801 327.347 147.427C328.6 148.054 329.561 148.891 330.228 149.94C330.895 150.975 331.229 152.126 331.229 153.393H327.45C327.45 152.78 327.266 152.187 326.898 151.615C326.544 151.03 326.02 150.546 325.325 150.165C324.644 149.783 323.807 149.593 322.812 149.593C321.764 149.593 320.912 149.756 320.259 150.083C319.619 150.396 319.149 150.798 318.849 151.288C318.563 151.779 318.42 152.296 318.42 152.841C318.42 153.25 318.488 153.617 318.624 153.944C318.774 154.257 319.033 154.55 319.401 154.823C319.768 155.081 320.286 155.326 320.953 155.558C321.621 155.789 322.472 156.021 323.507 156.253C325.318 156.661 326.81 157.151 327.981 157.723C329.152 158.295 330.024 158.997 330.596 159.828C331.168 160.658 331.454 161.666 331.454 162.851C331.454 163.818 331.249 164.703 330.841 165.507C330.446 166.31 329.867 167.005 329.104 167.59C328.355 168.162 327.456 168.612 326.408 168.939C325.373 169.252 324.208 169.409 322.914 169.409C320.967 169.409 319.319 169.061 317.971 168.367C316.622 167.672 315.601 166.773 314.906 165.67C314.212 164.567 313.865 163.403 313.865 162.177H317.664C317.719 163.212 318.018 164.036 318.563 164.649C319.108 165.248 319.775 165.677 320.565 165.936C321.355 166.181 322.138 166.303 322.914 166.303C323.95 166.303 324.814 166.167 325.509 165.895C326.217 165.622 326.755 165.248 327.123 164.771C327.49 164.295 327.674 163.75 327.674 163.137ZM340.218 137.622V169H336.418V137.622H340.218ZM353.721 146.896L344.079 157.213L338.685 162.81L338.379 158.786L342.24 154.169L349.104 146.896H353.721ZM350.268 169L342.383 158.459L344.344 155.088L354.722 169H350.268ZM357.684 166.998C357.684 166.358 357.881 165.82 358.276 165.384C358.685 164.935 359.271 164.71 360.033 164.71C360.796 164.71 361.375 164.935 361.77 165.384C362.178 165.82 362.383 166.358 362.383 166.998C362.383 167.624 362.178 168.156 361.77 168.591C361.375 169.027 360.796 169.245 360.033 169.245C359.271 169.245 358.685 169.027 358.276 168.591C357.881 168.156 357.684 167.624 357.684 166.998ZM372.433 150.369V169H368.654V146.896H372.331L372.433 150.369ZM379.338 146.774L379.318 150.287C379.005 150.219 378.705 150.178 378.419 150.165C378.147 150.138 377.833 150.124 377.479 150.124C376.608 150.124 375.838 150.26 375.171 150.533C374.504 150.805 373.938 151.186 373.475 151.677C373.012 152.167 372.645 152.752 372.372 153.433C372.113 154.101 371.943 154.836 371.861 155.64L370.799 156.253C370.799 154.918 370.929 153.665 371.187 152.494C371.46 151.322 371.875 150.287 372.433 149.389C372.992 148.476 373.7 147.768 374.558 147.264C375.43 146.746 376.465 146.488 377.663 146.488C377.936 146.488 378.249 146.522 378.603 146.59C378.957 146.644 379.202 146.706 379.338 146.774ZM396.355 163.893V146.896H400.155V169H396.539L396.355 163.893ZM397.07 159.235L398.643 159.194C398.643 160.665 398.487 162.027 398.174 163.28C397.874 164.519 397.384 165.595 396.703 166.508C396.022 167.42 395.13 168.135 394.027 168.653C392.923 169.157 391.582 169.409 390.002 169.409C388.926 169.409 387.939 169.252 387.04 168.939C386.155 168.625 385.392 168.142 384.752 167.488C384.112 166.835 383.615 165.983 383.261 164.935C382.92 163.886 382.75 162.626 382.75 161.155V146.896H386.529V161.196C386.529 162.19 386.638 163.014 386.856 163.668C387.088 164.308 387.394 164.819 387.775 165.2C388.17 165.568 388.606 165.827 389.083 165.977C389.573 166.126 390.077 166.201 390.595 166.201C392.202 166.201 393.475 165.895 394.415 165.282C395.354 164.656 396.029 163.818 396.437 162.769C396.859 161.707 397.07 160.529 397.07 159.235Z" fill="#333333"/>
<g filter="url(#filter0_d_28_7936)">
<path d="M582.365 216.779C582.778 217.191 583.105 217.681 583.329 218.221C583.552 218.76 583.667 219.338 583.667 219.922C583.667 220.506 583.552 221.084 583.329 221.623C583.105 222.162 582.778 222.652 582.365 223.065L581.065 224.365C580.652 224.778 580.162 225.106 579.623 225.329C579.084 225.552 578.506 225.667 577.922 225.667C577.338 225.667 576.76 225.552 576.221 225.329C575.681 225.106 575.191 224.778 574.779 224.365L559.43 209.02L553.352 223.004C553.012 223.797 552.445 224.473 551.724 224.947C551.002 225.42 550.157 225.671 549.294 225.668H549.077C548.177 225.63 547.31 225.317 546.594 224.771C545.878 224.224 545.348 223.471 545.074 222.612L530.554 178.143C530.299 177.365 530.265 176.531 530.455 175.735C530.646 174.939 531.053 174.211 531.632 173.632C532.211 173.053 532.939 172.646 533.735 172.455C534.531 172.265 535.365 172.299 536.143 172.554L580.612 187.074C581.462 187.358 582.206 187.893 582.747 188.608C583.288 189.322 583.6 190.184 583.642 191.079C583.684 191.974 583.455 192.861 582.984 193.624C582.514 194.387 581.823 194.989 581.004 195.352L567.02 201.431L582.365 216.779Z" fill="#EFB503"/>
</g>
<rect x="31.8716" y="30.8716" width="616.257" height="240.257" rx="13.0743" stroke="#E7E7E7" stroke-width="1.74324"/>
<defs>
<filter id="filter0_d_28_7936" x="497.182" y="148.022" width="119.638" height="119.638" filterUnits="userSpaceOnUse" color-interpolation-filters="sRGB">
<feFlood flood-opacity="0" result="BackgroundImageFix"/>
<feColorMatrix in="SourceAlpha" type="matrix" values="0 0 0 0 0 0 0 0 0 0 0 0 0 0 0 0 0 0 127 0" result="hardAlpha"/>
<feOffset dy="8.84058"/>
<feGaussianBlur stdDeviation="16.5761"/>
<feComposite in2="hardAlpha" operator="out"/>
<feColorMatrix type="matrix" values="0 0 0 0 0.937255 0 0 0 0 0.709804 0 0 0 0 0.0117647 0 0 0 0.2 0"/>
<feBlend mode="normal" in2="BackgroundImageFix" result="effect1_dropShadow_28_7936"/>
<feBlend mode="normal" in="SourceGraphic" in2="effect1_dropShadow_28_7936" result="shape"/>
</filter>
</defs>
</svg>
