<svg width="26" height="26" fill="none" xmlns="http://www.w3.org/2000/svg"><mask id="a" style="mask-type:luminance" maskUnits="userSpaceOnUse" x="0" y="0" width="26" height="26"><path d="M4.25 15.54a2.5 2.5 0 1 0 0-5 2.5 2.5 0 0 0 0 5Zm17.5-8.75a2.5 2.5 0 1 0 0-5.001 2.5 2.5 0 0 0 0 5Zm0 8.75a2.5 2.5 0 1 0 0-5 2.5 2.5 0 0 0 0 5Zm0 8.75a2.5 2.5 0 1 0 0-5 2.5 2.5 0 0 0 0 5Z" fill="#fff" stroke="#fff" stroke-width="2.5"/><path d="M19.25 21.79h-7.5V4.29h7.5m-12.5 8.75h12.5" stroke="#fff" stroke-width="2.5" stroke-linecap="round" stroke-linejoin="round"/></mask><g mask="url(#a)"><path d="M-3-1.962h30v30H-3v-30Z" fill="#57B36E"/></g></svg>