<svg width="26" height="26" fill="none" xmlns="http://www.w3.org/2000/svg"><path d="M4.184 8.254v15.939c0 .904.678 1.583 1.582 1.583h14.357c.904 0 1.582-.679 1.582-1.583V8.253H4.184Zm4.86 14.356H7.462V11.42h1.582v11.19Zm3.166 0h-1.583V11.42h1.583v11.19Zm3.165 0h-1.583V11.42h1.583v11.19Zm3.165 0h-1.582V11.42h1.582v11.19Zm3.616-19.218h-5.2V1.47c0-.678-.565-1.243-1.243-1.243h-5.54c-.678 0-1.13.565-1.13 1.243v1.922h-5.2c-.678 0-1.243.565-1.243 1.243V6.67h20.8V4.635c0-.678-.566-1.243-1.244-1.243Zm-6.782 0h-4.748V1.809h4.748v1.583Z" fill="#57B36E"/></svg>