<svg width="685" height="428" fill="none" xmlns="http://www.w3.org/2000/svg"><g filter="url(#a)"><rect x="1" y="1" width="683" height="426" rx="13.222" fill="#fff"/><rect x=".669" y=".669" width="683.661" height="426.661" rx="13.553" stroke="#000" stroke-opacity=".12" stroke-width=".661"/></g><g filter="url(#b)"><path d="M1 22.156C1 14.75 1 11.048 2.441 8.22A13.222 13.222 0 0 1 8.22 2.44C11.048 1 14.75 1 22.156 1h640.688c7.405 0 11.108 0 13.936 1.441a13.225 13.225 0 0 1 5.779 5.779C684 11.048 684 14.75 684 22.156v15.867H1V22.155Z" fill="#fff"/><path fill-rule="evenodd" clip-rule="evenodd" d="M19.511 27.445a7.933 7.933 0 1 0 0-15.867 7.933 7.933 0 0 0 0 15.867Z" fill="#EC6A5E"/><path d="M27.114 19.512a7.603 7.603 0 1 1-15.206 0 7.603 7.603 0 0 1 15.206 0Z" stroke="#000" stroke-opacity=".12" stroke-width=".661"/><path fill-rule="evenodd" clip-rule="evenodd" d="M45.956 27.445a7.933 7.933 0 1 0 0-15.867 7.933 7.933 0 0 0 0 15.867Z" fill="#F5BF4F"/><path d="M53.559 19.512a7.603 7.603 0 1 1-15.206 0 7.603 7.603 0 0 1 15.206 0Z" stroke="#000" stroke-opacity=".12" stroke-width=".661"/><path fill-rule="evenodd" clip-rule="evenodd" d="M72.4 27.445a7.933 7.933 0 1 0 0-15.867 7.933 7.933 0 0 0 0 15.867Z" fill="#61C554"/><path d="M80.003 19.512a7.603 7.603 0 1 1-15.205 0 7.603 7.603 0 0 1 15.205 0Z" stroke="#000" stroke-opacity=".12" stroke-width=".661"/><path d="M178.745 24.934V14.752h4.077c.749 0 1.373.11 1.874.333.5.222.876.53 1.128.925.252.39.378.841.378 1.352 0 .398-.079.747-.238 1.049-.16.298-.378.543-.657.736-.275.189-.59.323-.944.402v.1c.388.016.75.126 1.088.328.342.202.619.485.831.85.212.361.318.792.318 1.293 0 .54-.134 1.022-.403 1.446-.265.421-.658.754-1.178 1-.52.245-1.162.368-1.924.368h-4.35Zm2.153-1.76h1.754c.6 0 1.038-.115 1.313-.343.275-.232.413-.54.413-.925 0-.282-.068-.53-.204-.746a1.385 1.385 0 0 0-.582-.507 1.99 1.99 0 0 0-.89-.184h-1.804v2.705Zm0-4.162h1.595a1.9 1.9 0 0 0 .786-.154 1.31 1.31 0 0 0 .547-.447c.136-.192.204-.423.204-.691 0-.368-.131-.665-.393-.89-.259-.225-.627-.338-1.104-.338h-1.635v2.52Zm10.457 6.07c-.772 0-1.44-.163-2.003-.491a3.371 3.371 0 0 1-1.298-1.383c-.305-.593-.457-1.28-.457-2.063 0-.789.152-1.478.457-2.068a3.33 3.33 0 0 1 1.298-1.382c.563-.332 1.231-.497 2.003-.497s1.439.165 1.999.497a3.32 3.32 0 0 1 1.302 1.382c.305.59.458 1.28.458 2.068 0 .782-.153 1.47-.458 2.064a3.361 3.361 0 0 1-1.302 1.382c-.56.328-1.227.492-1.999.492Zm.01-1.64c.351 0 .645-.1.88-.298a1.85 1.85 0 0 0 .532-.825c.123-.348.184-.744.184-1.189 0-.444-.061-.84-.184-1.188a1.85 1.85 0 0 0-.532-.825c-.235-.202-.529-.303-.88-.303-.355 0-.653.1-.895.303a1.874 1.874 0 0 0-.542.825 3.663 3.663 0 0 0-.179 1.188c0 .445.06.84.179 1.189.123.348.304.623.542.825.242.199.54.298.895.298Zm9.132-6.145v1.591h-4.599v-1.59h4.599Zm-3.555-1.83h2.118v7.12c0 .196.03.348.089.457.06.106.143.181.249.224.109.043.235.065.378.065.099 0 .199-.008.298-.025l.229-.045.333 1.576a5.856 5.856 0 0 1-.448.114 3.583 3.583 0 0 1-.701.085c-.51.02-.957-.048-1.342-.204a1.874 1.874 0 0 1-.89-.726c-.212-.328-.316-.742-.313-1.243v-7.397Zm8.985 1.83v1.591h-4.713v-1.59h4.713Zm-3.634 7.637v-8.189c0-.553.107-1.012.323-1.377.218-.364.517-.638.895-.82a2.923 2.923 0 0 1 1.287-.274c.325 0 .622.025.89.075.272.05.474.095.607.134l-.378 1.591a2.684 2.684 0 0 0-.308-.074 1.93 1.93 0 0 0-.368-.035c-.312 0-.529.073-.652.219-.122.142-.184.343-.184.601v8.149h-2.112Zm6.776.144c-.487 0-.922-.085-1.303-.254a2.098 2.098 0 0 1-.905-.76c-.218-.338-.328-.76-.328-1.263 0-.424.078-.78.234-1.07.156-.288.368-.52.636-.695.269-.176.574-.308.915-.398.345-.09.706-.152 1.084-.189.444-.046.802-.09 1.074-.129.272-.043.469-.106.591-.189a.414.414 0 0 0 .184-.368v-.03c0-.315-.099-.558-.298-.73-.196-.173-.474-.259-.835-.259-.381 0-.685.084-.91.253a1.163 1.163 0 0 0-.447.627l-1.959-.16c.099-.463.295-.864.586-1.202a2.817 2.817 0 0 1 1.129-.786c.464-.185 1.001-.278 1.611-.278.424 0 .83.05 1.218.149.391.1.737.253 1.039.462.305.21.545.478.721.806.175.325.263.714.263 1.168v5.15h-2.008v-1.058h-.06a2.172 2.172 0 0 1-.492.631c-.206.179-.453.32-.741.423-.288.1-.621.149-.999.149Zm.606-1.462c.312 0 .587-.061.826-.184.238-.126.425-.295.561-.507.136-.212.204-.452.204-.72v-.811a1.123 1.123 0 0 1-.273.12 5.05 5.05 0 0 1-.383.094c-.143.026-.285.051-.428.074l-.387.055a2.62 2.62 0 0 0-.652.174c-.185.08-.329.187-.432.323a.786.786 0 0 0-.154.497c0 .288.104.509.313.661.212.15.48.224.805.224Zm10.327 4.181v-4.086h-.064c-.1.212-.24.422-.423.631a2.092 2.092 0 0 1-.701.512c-.285.136-.633.204-1.044.204-.58 0-1.105-.15-1.576-.448-.467-.301-.838-.744-1.113-1.327-.272-.587-.408-1.306-.408-2.158 0-.875.141-1.602.423-2.182.281-.584.656-1.02 1.123-1.308a2.88 2.88 0 0 1 1.546-.437c.428 0 .784.073 1.069.218.288.143.521.322.696.537.179.213.315.421.408.627h.089v-1.283h2.088v10.5h-2.113Zm-1.561-4.425c.342 0 .63-.092.865-.278.239-.189.421-.452.547-.79.13-.338.194-.734.194-1.189 0-.454-.063-.848-.189-1.183-.126-.335-.308-.593-.547-.775a1.388 1.388 0 0 0-.87-.274c-.348 0-.641.095-.88.284-.238.188-.419.45-.541.785a3.365 3.365 0 0 0-.184 1.163c0 .445.061.837.184 1.179.125.338.306.603.541.795.239.19.532.284.88.284Zm9.38-6.075v1.591h-4.598v-1.59h4.598Zm-3.554-1.83h2.118v7.12c0 .196.03.348.089.457.06.106.143.181.249.224.109.043.235.065.378.065.099 0 .198-.008.298-.025l.229-.045.333 1.576a5.983 5.983 0 0 1-.448.114 3.583 3.583 0 0 1-.701.085c-.51.02-.958-.048-1.342-.204a1.874 1.874 0 0 1-.89-.726c-.212-.328-.317-.742-.313-1.243v-7.397Zm8.246 9.616c-.772 0-1.44-.164-2.003-.492a3.371 3.371 0 0 1-1.298-1.383c-.305-.593-.457-1.28-.457-2.063 0-.789.152-1.478.457-2.068a3.33 3.33 0 0 1 1.298-1.382c.563-.332 1.231-.497 2.003-.497.773 0 1.439.165 1.999.497.563.328.998.789 1.302 1.382.305.59.458 1.28.458 2.068 0 .782-.153 1.47-.458 2.064a3.355 3.355 0 0 1-1.302 1.382c-.56.328-1.226.492-1.999.492Zm.01-1.64c.352 0 .645-.1.88-.3.236-.201.413-.477.532-.825.123-.348.184-.744.184-1.188 0-.444-.061-.84-.184-1.188-.119-.348-.296-.623-.532-.825-.235-.202-.528-.303-.88-.303-.354 0-.653.1-.895.303a1.874 1.874 0 0 0-.542.825 3.664 3.664 0 0 0-.178 1.188c0 .445.059.84.178 1.189.123.348.304.623.542.825.242.199.541.298.895.298Zm5.07 1.49v-7.636h2.053v1.333h.08c.139-.474.373-.832.701-1.074a1.842 1.842 0 0 1 1.133-.368 3.208 3.208 0 0 1 .667.074v1.88c-.1-.03-.237-.057-.413-.08a3.718 3.718 0 0 0-.482-.035c-.312 0-.59.068-.836.204a1.495 1.495 0 0 0-.576.557 1.6 1.6 0 0 0-.209.825v4.32h-2.118Zm6.035.13c-.328 0-.609-.116-.845-.348a1.161 1.161 0 0 1-.348-.845c0-.325.116-.604.348-.836.236-.232.517-.348.845-.348.319 0 .597.116.836.348.238.233.358.51.358.836 0 .218-.057.419-.169.601a1.29 1.29 0 0 1-.433.433 1.14 1.14 0 0 1-.592.159Zm2.876-.13v-7.636h2.054v1.333h.079c.139-.474.373-.832.701-1.074a1.843 1.843 0 0 1 1.134-.368 3.223 3.223 0 0 1 .666.074v1.88a2.756 2.756 0 0 0-.413-.08 3.693 3.693 0 0 0-.482-.035c-.311 0-.59.068-.835.204a1.505 1.505 0 0 0-.577.557 1.61 1.61 0 0 0-.209.825v4.32h-2.118Zm10.57-3.25v-4.386h2.118v7.637h-2.034v-1.387h-.079a2.253 2.253 0 0 1-.86 1.078c-.398.272-.883.408-1.457.408-.51 0-.959-.116-1.347-.348a2.393 2.393 0 0 1-.91-.99c-.215-.427-.325-.939-.328-1.536v-4.862h2.118v4.485c.003.45.124.807.363 1.069.238.261.558.392.959.392.255 0 .494-.058.716-.174.222-.12.401-.295.537-.527.139-.232.207-.518.204-.86Zm11.698-2.68v1.68h-4.643v-1.68h4.643Zm11.132 5.93-3.271-4.34h-.736v4.34h-2.152v-10.18h2.152v4.066h.433l3.381-4.066h2.679l-3.972 4.723 4.156 5.459h-2.67Zm5.835.145a3.18 3.18 0 0 1-1.303-.254 2.098 2.098 0 0 1-.905-.76c-.219-.338-.328-.76-.328-1.263 0-.424.078-.78.234-1.07.155-.288.368-.52.636-.695.269-.176.573-.308.915-.398.345-.09.706-.152 1.084-.189.444-.046.802-.09 1.074-.129.271-.043.469-.106.591-.189a.414.414 0 0 0 .184-.368v-.03c0-.315-.099-.558-.298-.73-.196-.173-.474-.259-.835-.259-.382 0-.685.084-.91.253a1.165 1.165 0 0 0-.448.627l-1.958-.16c.099-.463.294-.864.586-1.202a2.817 2.817 0 0 1 1.129-.786c.464-.185 1.001-.278 1.611-.278.424 0 .83.05 1.218.149.391.1.737.253 1.039.462.305.21.545.478.72.806.176.325.264.714.264 1.168v5.15h-2.009v-1.058h-.059a2.172 2.172 0 0 1-.492.631c-.206.179-.453.32-.741.423-.289.1-.622.149-.999.149Zm.606-1.462c.312 0 .587-.061.825-.184.239-.126.426-.295.562-.507.136-.212.204-.452.204-.72v-.811a1.123 1.123 0 0 1-.273.12 5.05 5.05 0 0 1-.383.094c-.143.026-.285.051-.428.074l-.388.055a2.624 2.624 0 0 0-.651.174c-.185.08-.33.187-.432.323a.786.786 0 0 0-.155.497c0 .288.105.509.314.661.212.15.48.224.805.224Zm5.281 1.318v-7.637h2.118v2.963h.597l2.078-2.963h2.486l-2.7 3.789 2.729 3.848h-2.515l-1.885-2.71h-.79v2.71h-2.118Zm10.939-2.163h2.053c.01.252.123.45.338.596.215.146.494.22.835.22.345 0 .635-.08.87-.24.236-.162.353-.394.353-.695a.832.832 0 0 0-.139-.483.945.945 0 0 0-.388-.328 1.314 1.314 0 0 0-.576-.12h-1.099v-1.386h1.099c.328 0 .58-.076.755-.229a.721.721 0 0 0 .269-.572.77.77 0 0 0-.279-.621c-.182-.16-.429-.239-.74-.239-.315 0-.577.072-.786.214-.205.14-.312.322-.318.547h-2.043c.006-.457.144-.853.412-1.188.272-.335.637-.593 1.094-.776a4.171 4.171 0 0 1 1.546-.273c.623 0 1.16.088 1.611.263.454.173.802.42 1.044.741.245.322.368.704.368 1.148 0 .405-.133.743-.398 1.015-.265.272-.636.465-1.114.581v.08c.315.02.6.104.856.253.255.15.459.355.611.617.153.258.229.565.229.92 0 .474-.139.88-.418 1.218-.275.338-.656.598-1.143.78-.484.18-1.039.269-1.666.269-.61 0-1.157-.088-1.64-.264-.481-.179-.864-.44-1.149-.785-.282-.345-.431-.766-.447-1.263Zm9.883 2.307a3.18 3.18 0 0 1-1.302-.254 2.092 2.092 0 0 1-.905-.76c-.219-.338-.328-.76-.328-1.263 0-.424.078-.78.233-1.07a1.89 1.89 0 0 1 .637-.695 3.08 3.08 0 0 1 .914-.398c.345-.09.706-.152 1.084-.189.444-.046.802-.09 1.074-.129.272-.043.469-.106.592-.189a.417.417 0 0 0 .184-.368v-.03c0-.315-.1-.558-.299-.73-.195-.173-.474-.259-.835-.259-.381 0-.684.084-.91.253a1.168 1.168 0 0 0-.447.627l-1.959-.16c.1-.463.295-.864.587-1.202a2.814 2.814 0 0 1 1.128-.786c.464-.185 1.001-.278 1.611-.278.424 0 .83.05 1.218.149.391.1.738.253 1.039.462.305.21.545.478.721.806.176.325.264.714.264 1.168v5.15h-2.009v-1.058h-.06a2.139 2.139 0 0 1-.492.631c-.205.179-.452.32-.741.423-.288.1-.621.149-.999.149Zm.607-1.462c.311 0 .586-.061.825-.184.239-.126.426-.295.562-.507.136-.212.204-.452.204-.72v-.811a1.15 1.15 0 0 1-.274.12 5.686 5.686 0 0 1-.81.168l-.388.055a2.6 2.6 0 0 0-.651.174c-.186.08-.33.187-.433.323a.786.786 0 0 0-.154.497c0 .288.104.509.313.661.212.15.481.224.806.224Zm17.277-.348-.149 3.853h-1.944v-2.187h-.85v-1.666h2.943Zm-11.996-5.97h2.023v5.955h2.153v-5.956h2.023v5.956h2.153v-5.956h2.023v7.637h-10.375v-7.637Zm15.229 4.842 2.749-4.843h2.088v7.637h-2.018v-4.858l-2.74 4.858h-2.103v-7.637h2.024v4.843Zm18.475 1.128-.149 3.853h-1.944v-2.187h-.85v-1.666h2.943Zm-11.996-5.97h2.023v5.955h2.153v-5.956h2.024v5.956h2.152v-5.956h2.024v7.637h-10.376v-7.637Zm15.383 7.78a3.18 3.18 0 0 1-1.302-.254 2.098 2.098 0 0 1-.905-.76c-.219-.338-.328-.76-.328-1.263 0-.424.078-.78.233-1.07a1.89 1.89 0 0 1 .637-.695 3.08 3.08 0 0 1 .915-.398 6.98 6.98 0 0 1 1.083-.189c.445-.046.802-.09 1.074-.129.272-.043.469-.106.592-.189a.417.417 0 0 0 .184-.368v-.03c0-.315-.1-.558-.298-.73-.196-.173-.474-.259-.836-.259-.381 0-.684.084-.91.253a1.168 1.168 0 0 0-.447.627l-1.959-.16c.1-.463.295-.864.587-1.202a2.82 2.82 0 0 1 1.128-.786c.464-.185 1.001-.278 1.611-.278.424 0 .83.05 1.218.149.391.1.738.253 1.039.462.305.21.546.478.721.806.176.325.264.714.264 1.168v5.15h-2.009v-1.058h-.059a2.159 2.159 0 0 1-.493.631c-.205.179-.452.32-.74.423-.289.1-.622.149-1 .149Zm.607-1.462c.311 0 .586-.061.825-.184.239-.126.426-.295.562-.507.136-.212.204-.452.204-.72v-.811a1.15 1.15 0 0 1-.274.12 5.54 5.54 0 0 1-.81.168l-.388.055a2.612 2.612 0 0 0-.651.174c-.186.08-.33.187-.433.323a.792.792 0 0 0-.154.497c0 .288.105.509.313.661.213.15.481.224.806.224Zm4.514-4.653v-1.666h6.92v1.666h-2.461v5.97h-2.018v-5.97h-2.441Zm9.476.68h2.282c1.011 0 1.799.243 2.366.727.567.48.85 1.123.85 1.929 0 .523-.127.984-.382 1.382-.256.394-.624.702-1.104.924-.481.22-1.057.329-1.73.329h-3.61v-7.637h2.024v5.971h1.586c.354 0 .646-.09.875-.268a.852.852 0 0 0 .348-.686.904.904 0 0 0-.348-.721c-.229-.19-.521-.284-.875-.284h-2.282v-1.665Zm10.297 5.44c-.782 0-1.455-.166-2.018-.497a3.359 3.359 0 0 1-1.293-1.392c-.298-.594-.447-1.276-.447-2.049 0-.782.15-1.468.452-2.058a3.357 3.357 0 0 1 1.298-1.387c.56-.335 1.226-.502 1.998-.502.666 0 1.25.12 1.75.363.501.242.897.581 1.188 1.019.292.437.453.951.483 1.541h-1.999c-.056-.381-.205-.688-.447-.92-.239-.235-.552-.353-.94-.353-.328 0-.615.09-.86.269-.242.175-.431.432-.567.77-.136.338-.204.748-.204 1.228 0 .488.067.902.199 1.243.136.342.327.602.572.78.245.18.532.27.86.27.242 0 .459-.05.651-.15.196-.1.357-.243.482-.432.13-.193.214-.423.254-.691h1.999c-.034.583-.193 1.097-.478 1.54a2.875 2.875 0 0 1-1.168 1.035c-.497.248-1.085.373-1.765.373Zm9.185-.15v-5.975h-1.432c-.388 0-.683.09-.885.268a.81.81 0 0 0-.298.637.798.798 0 0 0 .288.631c.199.169.491.253.875.253h2.158v1.432h-2.158c-.653 0-1.218-.1-1.695-.298-.477-.199-.845-.476-1.104-.83a2.056 2.056 0 0 1-.383-1.248 2.224 2.224 0 0 1 .383-1.308c.259-.378.628-.67 1.109-.88.484-.212 1.054-.318 1.71-.318h3.406v7.637h-1.974Zm-4.852 0 2.123-3.977h2.023l-2.118 3.978h-2.028Zm15.05.15c-.772 0-1.44-.164-2.004-.492a3.369 3.369 0 0 1-1.297-1.383c-.305-.593-.458-1.28-.458-2.063 0-.789.153-1.478.458-2.068a3.328 3.328 0 0 1 1.297-1.382c.564-.332 1.232-.497 2.004-.497s1.438.165 1.998.497c.564.328.998.789 1.303 1.382.305.59.457 1.28.457 2.068 0 .782-.152 1.47-.457 2.064a3.357 3.357 0 0 1-1.303 1.382c-.56.328-1.226.492-1.998.492Zm.01-1.64c.351 0 .644-.1.88-.3.235-.201.412-.477.532-.825a3.58 3.58 0 0 0 .184-1.188c0-.444-.062-.84-.184-1.188-.12-.348-.297-.623-.532-.825-.236-.202-.529-.303-.88-.303-.355 0-.653.1-.895.303a1.866 1.866 0 0 0-.542.825 3.663 3.663 0 0 0-.179 1.188c0 .445.06.84.179 1.189.123.348.303.623.542.825.242.199.54.298.895.298Zm4.33-4.48v-1.666h6.92v1.666h-2.46v5.97h-2.019v-5.97h-2.441Zm14.783 6.12c-.782 0-1.455-.166-2.019-.497a3.357 3.357 0 0 1-1.292-1.392c-.299-.594-.448-1.276-.448-2.049 0-.782.151-1.468.453-2.058a3.361 3.361 0 0 1 1.297-1.387c.56-.335 1.227-.502 1.999-.502.666 0 1.249.12 1.75.363.5.242.896.581 1.188 1.019.292.437.453.951.482 1.541h-1.998c-.057-.381-.206-.688-.448-.92-.238-.235-.552-.353-.939-.353-.328 0-.615.09-.86.269-.242.175-.431.432-.567.77-.136.338-.204.748-.204 1.228 0 .488.066.902.199 1.243.136.342.326.602.572.78.245.18.532.27.86.27.242 0 .459-.05.651-.15.196-.1.356-.243.482-.432a1.67 1.67 0 0 0 .254-.691h1.998a3.128 3.128 0 0 1-.477 1.54 2.881 2.881 0 0 1-1.168 1.035c-.497.248-1.086.373-1.765.373Zm4.71-.15v-7.636h2.118v2.963h.597l2.078-2.963h2.486l-2.7 3.789 2.73 3.848h-2.516l-1.884-2.71h-.791v2.71h-2.118Zm7.7 0-.01-1.68h.254a.812.812 0 0 0 .462-.13c.133-.089.242-.233.328-.432a3.27 3.27 0 0 0 .204-.79c.05-.331.083-.74.099-1.223l.125-3.38h5.807v7.636h-2.019v-5.971h-1.884l-.119 2.331c-.03.64-.108 1.19-.234 1.651-.123.46-.293.838-.512 1.133a2.02 2.02 0 0 1-.791.647 2.589 2.589 0 0 1-1.074.209h-.636Zm10.878-2.793 2.749-4.843h2.088v7.637h-2.018v-4.858l-2.74 4.858h-2.103v-7.637h2.024v4.843Zm6.479 2.794v-7.637h2.118v2.963h.596l2.079-2.963h2.485l-2.699 3.789 2.729 3.848h-2.515l-1.885-2.71h-.79v2.71h-2.118Zm10.171-2.794 2.749-4.843h2.088v7.637h-2.019v-4.858l-2.739 4.858h-2.103v-7.637h2.024v4.843Zm6.479 2.794v-7.637h3.256c.941 0 1.685.18 2.232.537.547.358.821.867.821 1.526 0 .415-.154.76-.463 1.035-.308.275-.735.46-1.282.556.457.034.846.138 1.168.314.325.172.572.396.741.67.172.276.258.58.258.916 0 .434-.116.807-.348 1.118-.228.312-.565.55-1.009.716-.441.166-.979.249-1.616.249h-3.758Zm1.973-1.586h1.785c.295 0 .526-.07.691-.21a.721.721 0 0 0 .254-.58c0-.273-.085-.486-.254-.642-.165-.156-.396-.234-.691-.234h-1.785v1.666Zm0-2.909h1.328c.212 0 .393-.03.542-.09a.764.764 0 0 0 .348-.268.69.69 0 0 0 .124-.412.637.637 0 0 0-.283-.552c-.189-.133-.448-.199-.776-.199h-1.283v1.521Zm8.215 4.639a3.18 3.18 0 0 1-1.303-.254 2.098 2.098 0 0 1-.905-.76c-.218-.338-.328-.76-.328-1.263 0-.424.078-.78.234-1.07.156-.288.368-.52.636-.695.269-.176.574-.308.915-.398.345-.09.706-.152 1.084-.189.444-.046.802-.09 1.074-.129.271-.043.469-.106.591-.189a.414.414 0 0 0 .184-.368v-.03c0-.315-.099-.558-.298-.73-.196-.173-.474-.259-.835-.259-.381 0-.685.084-.91.253a1.165 1.165 0 0 0-.448.627l-1.958-.16c.099-.463.295-.864.586-1.202a2.817 2.817 0 0 1 1.129-.786c.464-.185 1.001-.278 1.611-.278.424 0 .83.05 1.218.149.391.1.737.253 1.039.462.305.21.545.478.721.806.175.325.263.714.263 1.168v5.15h-2.008v-1.058h-.06a2.172 2.172 0 0 1-.492.631c-.206.179-.453.32-.741.423-.288.1-.621.149-.999.149Zm.606-1.462c.312 0 .587-.061.825-.184.239-.126.426-.295.562-.507.136-.212.204-.452.204-.72v-.811a1.123 1.123 0 0 1-.273.12 5.05 5.05 0 0 1-.383.094c-.143.026-.285.051-.428.074l-.387.055a2.62 2.62 0 0 0-.652.174c-.185.08-.33.187-.432.323a.786.786 0 0 0-.154.497c0 .288.104.509.313.661.212.15.48.224.805.224Zm10.596-3.346v1.666h-3.987V20.27h3.987Zm-3.291-2.973v7.637h-2.024v-7.637h2.024Zm4.618 0v7.637h-2.008v-7.637h2.008Zm3.611 4.843 2.749-4.843h2.088v7.637h-2.018v-4.858l-2.74 4.858h-2.103v-7.637h2.024v4.843Zm10.953 2.794v-5.976h-1.431c-.388 0-.683.09-.885.268a.807.807 0 0 0-.299.637.796.796 0 0 0 .289.631c.199.169.49.253.875.253h2.157v1.432h-2.157c-.653 0-1.218-.1-1.696-.298-.477-.199-.845-.476-1.103-.83a2.049 2.049 0 0 1-.383-1.248 2.217 2.217 0 0 1 .383-1.308c.258-.378.628-.67 1.108-.88.484-.212 1.054-.318 1.711-.318h3.405v7.637h-1.974Zm-4.852 0 2.123-3.978h2.023l-2.117 3.978h-2.029Z" fill="#3D3D3D"/></g><defs><filter id="a" x="-105.44" y="-105.44" width="895.879" height="638.879" filterUnits="userSpaceOnUse" color-interpolation-filters="sRGB"><feFlood flood-opacity="0" result="BackgroundImageFix"/><feGaussianBlur in="BackgroundImageFix" stdDeviation="52.889"/><feComposite in2="SourceAlpha" operator="in" result="effect1_backgroundBlur_3_1524"/><feBlend in="SourceGraphic" in2="effect1_backgroundBlur_3_1524" result="shape"/></filter><filter id="b" x="1" y="1" width="683" height="37.684" filterUnits="userSpaceOnUse" color-interpolation-filters="sRGB"><feFlood flood-opacity="0" result="BackgroundImageFix"/><feColorMatrix in="SourceAlpha" values="0 0 0 0 0 0 0 0 0 0 0 0 0 0 0 0 0 0 127 0" result="hardAlpha"/><feOffset dy=".661"/><feColorMatrix values="0 0 0 0 0 0 0 0 0 0 0 0 0 0 0 0 0 0 0.15 0"/><feBlend in2="BackgroundImageFix" result="effect1_dropShadow_3_1524"/><feBlend in="SourceGraphic" in2="effect1_dropShadow_3_1524" result="shape"/><feColorMatrix in="SourceAlpha" values="0 0 0 0 0 0 0 0 0 0 0 0 0 0 0 0 0 0 127 0" result="hardAlpha"/><feOffset dy="-.661"/><feComposite in2="hardAlpha" operator="arithmetic" k2="-1" k3="1"/><feColorMatrix values="0 0 0 0 0 0 0 0 0 0 0 0 0 0 0 0 0 0 0.05 0"/><feBlend in2="shape" result="effect2_innerShadow_3_1524"/></filter></defs></svg>