<svg width="23" height="23" viewBox="0 0 23 23" fill="none" xmlns="http://www.w3.org/2000/svg">
<path d="M19.0817 7.03803L19.9376 5.1422L21.8334 4.28637C21.928 4.24328 22.0082 4.1739 22.0644 4.0865C22.1206 3.9991 22.1505 3.89737 22.1505 3.79345C22.1505 3.68953 22.1206 3.5878 22.0644 3.5004C22.0082 3.413 21.928 3.34362 21.8334 3.30053L19.9376 2.4447L19.0817 0.538034C19.0387 0.443466 18.9693 0.363288 18.8819 0.307065C18.7945 0.250842 18.6928 0.220947 18.5888 0.220947C18.4849 0.220947 18.3832 0.250842 18.2958 0.307065C18.2084 0.363288 18.139 0.443466 18.0959 0.538034L17.2401 2.43387L15.3334 3.2897C15.2388 3.33279 15.1587 3.40217 15.1024 3.48957C15.0462 3.57697 15.0163 3.6787 15.0163 3.78262C15.0163 3.88654 15.0462 3.98827 15.1024 4.07567C15.1587 4.16307 15.2388 4.23245 15.3334 4.27553L17.2292 5.13137L18.0851 7.03803C18.2801 7.46054 18.8867 7.46054 19.0817 7.03803ZM10.4584 8.66303L8.73592 4.87137C8.35675 4.02637 7.14342 4.02637 6.76425 4.87137L5.04175 8.66303L1.25008 10.3855C0.405083 10.7755 0.405083 11.978 1.25008 12.3572L5.04175 14.0797L6.76425 17.8714C7.15425 18.7164 8.35675 18.7164 8.73592 17.8714L10.4584 14.0797L14.2501 12.3572C15.0951 11.9672 15.0951 10.7647 14.2501 10.3855L10.4584 8.66303ZM18.0851 15.7047L17.2292 17.6005L15.3334 18.4564C15.2388 18.4995 15.1587 18.5688 15.1024 18.6562C15.0462 18.7436 15.0163 18.8454 15.0163 18.9493C15.0163 19.0532 15.0462 19.1549 15.1024 19.2423C15.1587 19.3297 15.2388 19.3991 15.3334 19.4422L17.2292 20.298L18.0851 22.2047C18.1282 22.2993 18.1975 22.3794 18.2849 22.4357C18.3723 22.4919 18.4741 22.5218 18.578 22.5218C18.6819 22.5218 18.7836 22.4919 18.871 22.4357C18.9584 22.3794 19.0278 22.2993 19.0709 22.2047L19.9267 20.3089L21.8334 19.453C21.928 19.4099 22.0082 19.3406 22.0644 19.2532C22.1206 19.1658 22.1505 19.064 22.1505 18.9601C22.1505 18.8562 22.1206 18.7545 22.0644 18.6671C22.0082 18.5797 21.928 18.5103 21.8334 18.4672L19.9376 17.6114L19.0817 15.7047C19.0374 15.61 18.9669 15.5299 18.8787 15.4738C18.7904 15.4177 18.688 15.3879 18.5834 15.3879C18.4788 15.3879 18.3764 15.4177 18.2882 15.4738C18.1999 15.5299 18.1295 15.61 18.0851 15.7047Z" fill="#0085FF"/>
</svg>
