<svg width="26" height="26" viewBox="0 0 26 26" fill="none" xmlns="http://www.w3.org/2000/svg">
<path d="M24.25 11.7189V8.00016C24.25 7.33711 23.9866 6.70123 23.5178 6.23239C23.0489 5.76355 22.413 5.50016 21.75 5.50016H14.25V3.86016C14.6312 3.51766 14.875 3.02516 14.875 2.47266C14.875 1.97538 14.6775 1.49846 14.3258 1.14683C13.9742 0.7952 13.4973 0.597656 13 0.597656C12.5027 0.597656 12.0258 0.7952 11.6742 1.14683C11.3225 1.49846 11.125 1.97538 11.125 2.47266C11.125 3.02516 11.3687 3.51766 11.75 3.86016V5.50016H4.25C3.58696 5.50016 2.95107 5.76355 2.48223 6.23239C2.01339 6.70123 1.75 7.33711 1.75 8.00016V11.7477L1.66 11.7539C1.34486 11.7764 1.04994 11.9174 0.834687 12.1487C0.61943 12.38 0.499834 12.6842 0.5 13.0002V15.5002C0.5 15.8317 0.631696 16.1496 0.866117 16.384C1.10054 16.6185 1.41848 16.7502 1.75 16.7502V23.0002C1.75 23.6632 2.01339 24.2991 2.48223 24.7679C2.95107 25.2368 3.58696 25.5002 4.25 25.5002H21.75C22.413 25.5002 23.0489 25.2368 23.5178 24.7679C23.9866 24.2991 24.25 23.6632 24.25 23.0002V16.7502C24.5815 16.7502 24.8995 16.6185 25.1339 16.384C25.3683 16.1496 25.5 15.8317 25.5 15.5002V13.0777C25.5145 12.8837 25.4837 12.689 25.41 12.5089C25.1575 11.8989 24.6162 11.7527 24.25 11.7189ZM6.75 13.0002C6.75 11.6202 7.59 10.5002 8.625 10.5002C9.66 10.5002 10.5 11.6202 10.5 13.0002C10.5 14.3802 9.66 15.5002 8.625 15.5002C7.59 15.5002 6.75 14.3802 6.75 13.0002ZM17.9975 20.5002C16.7462 20.4964 8 20.5002 8 20.5002V18.0002C8 18.0002 16.7512 17.9977 18.0025 18.0002L17.9975 20.5002ZM17.375 15.5002C16.34 15.5002 15.5 14.3802 15.5 13.0002C15.5 11.6202 16.34 10.5002 17.375 10.5002C18.41 10.5002 19.25 11.6202 19.25 13.0002C19.25 14.3802 18.41 15.5002 17.375 15.5002Z" fill="#0085FF"/>
</svg>
