<svg width="40" height="40" fill="none" xmlns="http://www.w3.org/2000/svg"><path d="M5.563 28.333A16.66 16.66 0 0 0 20 36.667a16.66 16.66 0 0 0 14.437-8.334M5.563 11.667A16.66 16.66 0 0 1 20 3.333a16.66 16.66 0 0 1 14.437 8.334" stroke="#0085FF" stroke-width="2.5" stroke-linecap="round" stroke-linejoin="round"/><path d="M21.667 36.583s2.346-3.088 3.825-8.25M21.667 3.417s2.346 3.086 3.825 8.25m-7.159 24.916s-2.346-3.086-3.825-8.25m3.825-24.916s-2.346 3.086-3.825 8.25m.492 5L17.5 25l2.5-8.333L22.5 25l2.5-8.333m-23.333 0L4.167 25l2.5-8.333L9.167 25l2.5-8.333m16.666 0 2.5 8.333 2.5-8.333 2.5 8.333 2.5-8.333" stroke="#0085FF" stroke-width="2.5" stroke-linecap="round" stroke-linejoin="round"/></svg>