<svg width="34" height="35" fill="none" xmlns="http://www.w3.org/2000/svg"><path d="m28.433 10.905 1.317-2.917 2.917-1.317a.833.833 0 0 0 0-1.516L29.75 3.838 28.433.905a.834.834 0 0 0-1.516 0L25.6 3.82l-2.933 1.317a.833.833 0 0 0 0 1.517l2.916 1.316 1.317 2.934c.3.65 1.234.65 1.534 0Zm-13.266 2.5-2.65-5.834c-.583-1.3-2.45-1.3-3.034 0l-2.65 5.834L1 16.055c-1.3.6-1.3 2.45 0 3.033l5.833 2.65 2.65 5.833c.6 1.3 2.45 1.3 3.034 0l2.65-5.833L21 19.088c1.3-.6 1.3-2.45 0-3.033l-5.833-2.65ZM26.9 24.238l-1.316 2.917-2.917 1.316a.834.834 0 0 0 0 1.517l2.916 1.317 1.317 2.933a.834.834 0 0 0 1.517 0l1.316-2.917 2.934-1.316a.833.833 0 0 0 0-1.517l-2.917-1.317-1.317-2.933a.847.847 0 0 0-1.533 0Z" fill="#0085FF"/></svg>