<svg width="28" height="28" fill="none" xmlns="http://www.w3.org/2000/svg"><path d="M4 27.333c1.833 0 3.333-1.5 3.333-3.333V12.333C7.333 10.5 5.833 9 4 9a3.343 3.343 0 0 0-3.333 3.333V24c0 1.833 1.5 3.333 3.333 3.333ZM20.667 19v5c0 1.833 1.5 3.333 3.333 3.333 1.833 0 3.333-1.5 3.333-3.333v-5c0-1.833-1.5-3.333-3.333-3.333A3.343 3.343 0 0 0 20.667 19ZM14 27.333c1.833 0 3.333-1.5 3.333-3.333V4c0-1.833-1.5-3.333-3.333-3.333A3.343 3.343 0 0 0 10.667 4v20c0 1.833 1.5 3.333 3.333 3.333Z" fill="#0085FF"/></svg>