<svg width="404" height="148" fill="none" xmlns="http://www.w3.org/2000/svg"><rect width="380" height="148" rx="12.408" fill="#fff"/><rect width="380" height="148" rx="12.408" fill="#fff"/><circle cx="25.968" cy="56.118" r="5.109" fill="#E57575" stroke="#E57575" stroke-width="2.19"/><path d="M40.999 59.322v-7.735h4.823v1.005h-3.656v2.115h1.73c.574 0 1.061.093 1.462.28.402.186.71.449.921.789.214.34.321.74.321 1.2 0 .462-.107.868-.32 1.22a2.155 2.155 0 0 1-.922.828c-.4.199-.888.298-1.462.298h-2.897Zm1.167-.982h1.73c.332 0 .613-.065.842-.196a1.349 1.349 0 0 0 .706-1.182 1.18 1.18 0 0 0-.4-.895c-.267-.252-.65-.378-1.148-.378h-1.73v2.651Zm8.166 1.1c-.544 0-1.019-.125-1.424-.375a2.52 2.52 0 0 1-.944-1.046c-.224-.448-.337-.972-.337-1.571 0-.602.112-1.128.337-1.579.224-.45.538-.8.944-1.05.405-.249.88-.374 1.424-.374.544 0 1.018.125 1.424.374.405.25.72.6.944 1.05.224.451.336.977.336 1.579 0 .6-.112 1.123-.336 1.571a2.521 2.521 0 0 1-.944 1.046c-.406.25-.88.374-1.424.374Zm.004-.949c.352 0 .644-.093.876-.28.231-.185.403-.433.513-.743.114-.31.17-.651.17-1.024 0-.37-.056-.71-.17-1.02a1.661 1.661 0 0 0-.513-.751c-.232-.189-.524-.283-.877-.283-.355 0-.65.094-.883.283-.232.189-.404.44-.518.752-.11.31-.166.65-.166 1.02 0 .372.055.713.166 1.023.114.31.286.557.518.744.234.186.528.28.884.28Zm3.262-3.996v-.974h4.895v.974H56.6v4.827h-1.102v-4.827h-1.9Zm6.939 1.02h1.684c.71 0 1.257.176 1.64.529.382.352.574.807.574 1.363 0 .363-.086.689-.257.979-.171.29-.422.518-.752.687-.33.166-.731.25-1.205.25h-2.534V53.52h1.107v4.827h1.427c.325 0 .592-.084.801-.253a.808.808 0 0 0 .314-.654.853.853 0 0 0-.314-.683c-.209-.179-.476-.268-.8-.268h-1.685v-.975Zm4.721 3.807v-5.801h1.13v5.801h-1.13Z" fill="#000"/><circle opacity=".8" cx="25.968" cy="77.39" r="6.204" fill="#616B89"/><path d="M47.046 73.45v7.736h-1.163v-6.738h-3.641v6.738h-1.164V73.45h5.968Zm4.137 7.853c-.544 0-1.018-.125-1.423-.374a2.52 2.52 0 0 1-.945-1.047c-.224-.448-.336-.971-.336-1.57 0-.602.112-1.129.336-1.58.224-.45.54-.8.945-1.05.405-.249.88-.373 1.423-.373.544 0 1.019.124 1.424.374.406.249.72.599.944 1.05.225.45.337.977.337 1.578 0 .6-.112 1.123-.337 1.571a2.522 2.522 0 0 1-.944 1.047c-.405.249-.88.374-1.424.374Zm.004-.948c.353 0 .645-.094.876-.28.232-.186.403-.434.514-.744.113-.31.17-.65.17-1.023 0-.37-.057-.71-.17-1.02a1.662 1.662 0 0 0-.514-.752c-.231-.189-.523-.283-.876-.283-.355 0-.65.094-.884.283-.231.189-.404.44-.517.752-.11.31-.166.65-.166 1.02 0 .372.055.713.166 1.023.113.31.286.558.517.744.235.186.53.28.884.28Zm3.395 2.504v-2.652h.472c.12-.11.223-.243.306-.396a2.46 2.46 0 0 0 .215-.548c.06-.211.11-.458.151-.74.04-.285.076-.61.106-.975l.181-2.164h3.943v4.823h.891v2.652h-1.102v-1.673H55.7v1.673h-1.118Zm1.68-2.652h2.591v-3.856h-1.828l-.12 1.197c-.059.61-.132 1.138-.22 1.587-.088.445-.229.803-.423 1.072Zm8.133 1.096c-.544 0-1.019-.125-1.424-.374a2.522 2.522 0 0 1-.944-1.047c-.224-.448-.336-.971-.336-1.57 0-.602.112-1.129.336-1.58.224-.45.539-.8.944-1.05.405-.249.88-.373 1.424-.373.544 0 1.018.124 1.424.374.405.249.72.599.944 1.05.224.45.336.977.336 1.578 0 .6-.112 1.123-.336 1.571a2.52 2.52 0 0 1-.944 1.047c-.406.249-.88.374-1.424.374Zm.004-.948c.352 0 .644-.094.876-.28.232-.186.403-.434.514-.744.113-.31.17-.65.17-1.023 0-.37-.057-.71-.17-1.02a1.662 1.662 0 0 0-.514-.752c-.232-.189-.524-.283-.876-.283-.355 0-.65.094-.884.283-.232.189-.404.44-.517.752-.111.31-.167.65-.167 1.02 0 .372.056.713.166 1.023.114.31.286.558.518.744.234.186.529.28.884.28Zm3.617-.703h1.156a.67.67 0 0 0 .32.548c.202.128.463.192.783.192.324 0 .601-.069.83-.207.23-.141.344-.36.344-.654a.805.805 0 0 0-.132-.46.839.839 0 0 0-.366-.31 1.3 1.3 0 0 0-.555-.11h-.945v-.887h.945c.32 0 .558-.073.717-.22a.713.713 0 0 0 .238-.547.707.707 0 0 0-.257-.57c-.168-.146-.404-.22-.706-.22-.307 0-.563.07-.767.208-.204.136-.31.313-.32.53H68.16c.007-.326.105-.61.294-.854.192-.247.448-.439.77-.575a2.797 2.797 0 0 1 1.107-.207c.43 0 .803.069 1.118.207a1.7 1.7 0 0 1 .73.575c.173.244.26.525.26.842 0 .32-.096.581-.287.785a1.598 1.598 0 0 1-.74.435v.06c.224.015.422.083.596.204.174.12.31.28.408.48.098.199.147.424.147.676 0 .355-.098.662-.294.921a1.85 1.85 0 0 1-.808.6 3.113 3.113 0 0 1-1.175.209c-.428 0-.812-.067-1.152-.2a1.939 1.939 0 0 1-.805-.575 1.456 1.456 0 0 1-.313-.876Zm5.713 3.709v-7.977h1.103v.94h.095c.065-.12.16-.26.283-.418a1.6 1.6 0 0 1 .514-.416c.219-.12.508-.181.868-.181.469 0 .887.118 1.254.355.368.236.656.578.865 1.023.212.446.317.982.317 1.61 0 .626-.104 1.164-.313 1.612-.209.446-.496.79-.861 1.031a2.23 2.23 0 0 1-1.25.359c-.353 0-.641-.06-.865-.178a1.637 1.637 0 0 1-.521-.415 3.148 3.148 0 0 1-.291-.423h-.068v3.078h-1.13Zm1.107-5.076c0 .408.06.765.178 1.073.118.307.29.547.513.72.224.172.499.258.824.258.337 0 .62-.09.846-.268.226-.182.397-.427.513-.737.119-.31.178-.658.178-1.046 0-.383-.058-.727-.174-1.031a1.579 1.579 0 0 0-.513-.722c-.227-.176-.51-.264-.85-.264-.328 0-.605.084-.831.253a1.553 1.553 0 0 0-.51.706 2.946 2.946 0 0 0-.174 1.058Zm6.564 1.318 2.557-4.219h1.217v5.802h-1.107v-4.223l-2.546 4.223h-1.227v-5.802H81.4v4.219Zm4.572-3.244v-.975h4.895v.975h-1.892v4.827h-1.103v-4.827h-1.9Zm8.32 4.944c-.572 0-1.064-.123-1.477-.367a2.485 2.485 0 0 1-.952-1.038c-.221-.449-.332-.974-.332-1.575 0-.595.11-1.118.332-1.572a2.58 2.58 0 0 1 .937-1.06c.403-.255.874-.382 1.413-.382.327 0 .644.054.951.162a2.3 2.3 0 0 1 .828.51c.244.232.436.532.577.903.141.367.212.814.212 1.34v.4h-4.612v-.845h3.505c0-.297-.06-.56-.181-.79a1.37 1.37 0 0 0-.51-.547c-.217-.134-.47-.2-.763-.2-.317 0-.594.078-.83.234a1.571 1.571 0 0 0-.545.604 1.744 1.744 0 0 0-.189.805v.66c0 .388.069.718.204.99.139.272.332.48.578.623.247.141.535.212.865.212.214 0 .41-.03.586-.09a1.215 1.215 0 0 0 .752-.737l1.068.192c-.085.315-.24.59-.46.827-.22.234-.495.417-.828.548-.33.128-.706.193-1.13.193Zm3.285-.117-.004-.979h.208a.747.747 0 0 0 .404-.102.751.751 0 0 0 .272-.355c.07-.166.125-.395.162-.687.038-.295.066-.665.083-1.11l.102-2.569h4.049v5.802h-1.106v-4.827H99.85l-.09 1.971a7.96 7.96 0 0 1-.147 1.254c-.073.358-.18.656-.322.895a1.396 1.396 0 0 1-.543.533c-.222.116-.491.174-.809.174h-.362Zm7.632-3.808h1.684c.711 0 1.257.177 1.64.53.382.352.574.806.574 1.363 0 .362-.086.688-.257.978-.171.29-.422.519-.752.687-.33.166-.731.25-1.205.25h-2.534v-5.802h1.107v4.827h1.427c.325 0 .592-.084.801-.253a.809.809 0 0 0 .314-.653.853.853 0 0 0-.314-.684c-.209-.179-.476-.268-.801-.268h-1.684v-.975Zm9.096.42v.978h-3.143v-.978h3.143Zm-2.825-2.414v5.802h-1.107v-5.802h1.107Zm3.614 0v5.802h-1.103v-5.802h1.103Zm2.361 1.994h1.684c.71 0 1.257.177 1.639.53.383.352.574.806.574 1.363 0 .362-.085.688-.256.978-.172.29-.422.519-.752.687-.33.166-.732.25-1.205.25h-2.534v-5.802h1.106v4.827h1.428c.325 0 .592-.084.801-.253a.808.808 0 0 0 .313-.653.853.853 0 0 0-.313-.684c-.209-.179-.476-.268-.801-.268h-1.684v-.975Zm4.721 3.808v-5.802h1.129v5.802h-1.129Zm5.145.117c-.572 0-1.064-.123-1.477-.367a2.488 2.488 0 0 1-.952-1.038c-.221-.449-.332-.974-.332-1.575 0-.595.111-1.118.332-1.572a2.58 2.58 0 0 1 .937-1.06c.403-.255.874-.382 1.412-.382.328 0 .645.054.952.162.307.108.583.278.827.51.245.232.437.532.578.903.141.367.212.814.212 1.34v.4h-4.612v-.845h3.505c0-.297-.06-.56-.181-.79a1.372 1.372 0 0 0-.51-.547 1.426 1.426 0 0 0-.763-.2c-.317 0-.594.078-.831.234a1.578 1.578 0 0 0-.544.604 1.743 1.743 0 0 0-.189.805v.66c0 .388.068.718.204.99.139.272.331.48.578.623.247.141.535.212.865.212.214 0 .409-.03.586-.09.176-.064.328-.157.457-.28.128-.124.226-.276.294-.457l1.069.192c-.086.315-.239.59-.461.827a2.235 2.235 0 0 1-.827.548c-.33.128-.706.193-1.129.193Z" fill="#000"/><circle cx="25.968" cy="99.253" r="6.204" fill="#75A0E5"/><path d="M40.999 103.049v-7.735h1.167v3.361h3.856v-3.361h1.171v7.735h-1.17v-3.373h-3.857v3.373h-1.167Zm10.303.117c-.571 0-1.063-.122-1.476-.366a2.485 2.485 0 0 1-.952-1.039c-.222-.448-.333-.973-.333-1.575 0-.594.111-1.118.333-1.571.224-.453.536-.807.936-1.062.403-.254.874-.381 1.413-.381.327 0 .645.054.952.162.307.109.583.279.827.51.244.232.437.533.578.903.14.368.211.814.211 1.341v.4H49.18v-.846h3.505c0-.297-.06-.56-.182-.79a1.37 1.37 0 0 0-.51-.547c-.216-.133-.47-.2-.762-.2-.318 0-.595.078-.831.234a1.572 1.572 0 0 0-.544.604 1.745 1.745 0 0 0-.19.805v.661c0 .388.069.717.205.989.138.272.331.48.578.624.247.141.535.211.865.211.214 0 .409-.03.585-.091a1.214 1.214 0 0 0 .752-.736l1.068.193a1.94 1.94 0 0 1-.46.827c-.22.234-.495.416-.827.547-.33.129-.707.193-1.13.193Zm8.475-5.918v4.875h.85v2.795h-1.115v-1.869h-4.468v-5.802h1.107v4.827h2.523v-4.826h1.103Zm4.54 5.918c-.572 0-1.064-.122-1.477-.366a2.486 2.486 0 0 1-.952-1.039c-.222-.448-.332-.973-.332-1.575 0-.594.11-1.118.332-1.571.224-.453.536-.807.937-1.062.403-.254.873-.381 1.412-.381.328 0 .645.054.952.162.307.109.583.279.827.51.244.232.437.533.578.903.141.368.212.814.212 1.341v.4h-4.612v-.846h3.505c0-.297-.06-.56-.181-.79a1.37 1.37 0 0 0-.51-.547 1.43 1.43 0 0 0-.763-.2c-.318 0-.594.078-.831.234a1.572 1.572 0 0 0-.544.604 1.745 1.745 0 0 0-.189.805v.661c0 .388.068.717.204.989.139.272.331.48.578.624.247.141.535.211.865.211.214 0 .41-.03.585-.091a1.214 1.214 0 0 0 .752-.736l1.069.193c-.086.314-.24.59-.461.827-.22.234-.495.416-.827.547-.33.129-.706.193-1.13.193Zm3.285-.117-.004-.978h.207a.746.746 0 0 0 .405-.102.754.754 0 0 0 .272-.355c.07-.167.124-.396.162-.688.038-.294.065-.665.083-1.11l.102-2.569h4.049v5.802H71.77v-4.827h-1.896l-.09 1.971a7.946 7.946 0 0 1-.148 1.254 2.94 2.94 0 0 1-.32.896 1.397 1.397 0 0 1-.545.532c-.221.116-.49.174-.808.174h-.362Zm9.282.117c-.571 0-1.064-.122-1.477-.366a2.486 2.486 0 0 1-.951-1.039c-.222-.448-.333-.973-.333-1.575 0-.594.111-1.118.333-1.571.224-.453.536-.807.936-1.062.403-.254.874-.381 1.413-.381.327 0 .644.054.952.162.307.109.582.279.827.51.244.232.437.533.578.903.14.368.211.814.211 1.341v.4h-4.611v-.846h3.504c0-.297-.06-.56-.18-.79a1.37 1.37 0 0 0-.51-.547 1.431 1.431 0 0 0-.764-.2c-.317 0-.594.078-.83.234a1.572 1.572 0 0 0-.544.604 1.745 1.745 0 0 0-.19.805v.661c0 .388.069.717.205.989.138.272.33.48.578.624.246.141.535.211.864.211.215 0 .41-.03.586-.091a1.214 1.214 0 0 0 .752-.736l1.068.193a1.94 1.94 0 0 1-.46.827 2.24 2.24 0 0 1-.828.547c-.33.129-.706.193-1.129.193Zm3.742-.117v-5.802h2.406c.655 0 1.173.14 1.556.42.383.277.574.653.574 1.129 0 .34-.108.61-.325.808-.216.2-.503.333-.86.401.259.03.496.108.713.234.217.123.39.289.521.498.134.209.2.459.2.748 0 .307-.079.579-.237.816a1.575 1.575 0 0 1-.692.551c-.3.131-.66.197-1.084.197h-2.772Zm1.061-.944h1.711c.28 0 .499-.067.658-.201a.671.671 0 0 0 .237-.543c0-.27-.079-.481-.237-.635-.16-.156-.378-.234-.658-.234h-1.71v1.613Zm0-2.44h1.356c.212 0 .393-.03.544-.09a.768.768 0 0 0 .352-.258.659.659 0 0 0 .124-.4.6.6 0 0 0-.276-.525c-.183-.126-.435-.189-.755-.189h-1.345v1.462Zm5.813-.423h1.685c.71 0 1.256.176 1.639.528.383.353.574.807.574 1.364 0 .363-.086.689-.257.978-.171.29-.422.519-.752.688-.33.166-.731.249-1.204.249H86.65v-5.802h1.107v4.827h1.428c.324 0 .591-.084.8-.253a.808.808 0 0 0 .314-.653.854.854 0 0 0-.314-.684c-.209-.178-.476-.268-.8-.268H87.5v-.974Zm4.721 3.807v-5.802h1.13v5.802h-1.13Zm5.145.117c-.571 0-1.064-.122-1.477-.366a2.486 2.486 0 0 1-.951-1.039c-.222-.448-.333-.973-.333-1.575 0-.594.111-1.118.333-1.571.224-.453.536-.807.936-1.062.403-.254.874-.381 1.413-.381.327 0 .644.054.952.162.307.109.583.279.827.51.244.232.437.533.578.903.14.368.211.814.211 1.341v.4h-4.611v-.846h3.505c0-.297-.06-.56-.182-.79a1.37 1.37 0 0 0-.51-.547c-.216-.133-.47-.2-.763-.2-.317 0-.594.078-.83.234a1.572 1.572 0 0 0-.544.604 1.745 1.745 0 0 0-.19.805v.661c0 .388.069.717.205.989.138.272.33.48.578.624.246.141.535.211.865.211.214 0 .409-.03.585-.091a1.214 1.214 0 0 0 .752-.736l1.069.193c-.086.314-.24.59-.461.827-.22.234-.495.416-.827.547-.33.129-.707.193-1.13.193Zm6.557-.117v-5.802h1.129v2.433h.544l1.915-2.433h1.397l-2.247 2.822 2.274 2.98h-1.401l-1.749-2.319h-.733v2.319h-1.129Zm5.432 0-.004-.978h.208a.745.745 0 0 0 .404-.102.75.75 0 0 0 .272-.355 2.67 2.67 0 0 0 .162-.688c.038-.294.066-.665.084-1.11l.102-2.569h4.048v5.802h-1.106v-4.827h-1.896l-.091 1.971a8.044 8.044 0 0 1-.147 1.254c-.073.358-.18.656-.321.896a1.401 1.401 0 0 1-.544.532 1.726 1.726 0 0 1-.808.174h-.363Zm7.889-1.583 2.557-4.218h1.216v5.801h-1.106v-4.223l-2.546 4.223h-1.228v-5.802h1.107v4.219Zm5.291 1.583v-5.802h1.13v2.433h.544l1.915-2.433h1.397l-2.247 2.822 2.273 2.98h-1.401l-1.749-2.319h-.732v2.319h-1.13Zm6.996-1.583 2.557-4.218h1.216v5.801h-1.106v-4.223l-2.546 4.223h-1.227v-5.802h1.106v4.219Z" fill="#000"/><circle cx="25.968" cy="121.115" r="5.109" fill="#27C58B" stroke="#27C58B" stroke-width="2.19"/><path d="m48.748 123.88-.102 2.859h-1.163v-1.828h-.544v-1.031h1.809Zm-6.863 1.031v-7.735h1.118v6.723h3.732v-6.723h1.121v7.735h-5.97Zm10.553.117c-.572 0-1.064-.122-1.477-.366a2.486 2.486 0 0 1-.952-1.039c-.221-.448-.332-.973-.332-1.575 0-.594.11-1.118.332-1.571a2.58 2.58 0 0 1 .937-1.061c.403-.255.874-.382 1.413-.382.327 0 .644.054.951.163.307.108.583.278.827.51.245.231.437.532.578.902.141.368.212.815.212 1.341v.4h-4.612v-.846h3.505c0-.297-.06-.56-.181-.789a1.373 1.373 0 0 0-1.273-.748c-.317 0-.594.078-.83.234a1.571 1.571 0 0 0-.545.605 1.742 1.742 0 0 0-.189.804v.661c0 .388.068.718.204.99.139.272.331.479.578.623.247.141.535.211.865.211.214 0 .41-.03.586-.09a1.214 1.214 0 0 0 .752-.737l1.068.193c-.086.315-.24.59-.46.827-.22.234-.495.417-.828.548-.33.128-.706.192-1.13.192Zm3.285-.117-.004-.978h.208a.746.746 0 0 0 .404-.102.754.754 0 0 0 .272-.355c.07-.166.124-.395.162-.687.038-.295.066-.665.083-1.111l.102-2.568H61v5.801h-1.108v-4.827h-1.896l-.09 1.972a7.951 7.951 0 0 1-.148 1.254c-.073.357-.18.656-.32.895a1.39 1.39 0 0 1-.544.532c-.222.116-.491.174-.809.174h-.362Zm9.282.117c-.571 0-1.063-.122-1.476-.366a2.486 2.486 0 0 1-.952-1.039c-.222-.448-.332-.973-.332-1.575 0-.594.11-1.118.332-1.571a2.58 2.58 0 0 1 .937-1.061c.402-.255.873-.382 1.412-.382.328 0 .645.054.952.163.307.108.583.278.827.51.244.231.437.532.578.902.14.368.211.815.211 1.341v.4h-4.611v-.846h3.505c0-.297-.06-.56-.181-.789a1.373 1.373 0 0 0-1.273-.748c-.318 0-.594.078-.831.234a1.571 1.571 0 0 0-.544.605 1.742 1.742 0 0 0-.189.804v.661c0 .388.068.718.204.99.139.272.331.479.578.623.247.141.535.211.865.211.214 0 .409-.03.585-.09a1.214 1.214 0 0 0 .752-.737l1.069.193c-.086.315-.24.59-.461.827-.22.234-.495.417-.827.548a3.11 3.11 0 0 1-1.13.192Zm3.742-.117v-5.801h2.406c.655 0 1.174.14 1.556.419.383.277.575.653.575 1.129 0 .34-.109.61-.325.809-.217.199-.504.332-.862.4.26.03.498.108.714.234.217.124.39.29.522.499.133.209.2.458.2.747 0 .308-.08.58-.238.816a1.584 1.584 0 0 1-.691.552c-.3.131-.661.196-1.084.196h-2.773Zm1.062-.944h1.71c.28 0 .5-.067.658-.2a.674.674 0 0 0 .238-.544c0-.27-.08-.481-.238-.635-.159-.156-.378-.234-.657-.234h-1.711v1.613Zm0-2.44h1.356c.211 0 .392-.03.543-.091a.768.768 0 0 0 .352-.256.661.661 0 0 0 .124-.401.602.602 0 0 0-.275-.525c-.184-.126-.436-.189-.756-.189H69.81v1.462Zm5.812-.423h1.685c.71 0 1.256.176 1.639.529.383.352.574.807.574 1.363 0 .363-.086.689-.257.978-.17.29-.421.519-.751.688-.33.166-.732.249-1.205.249h-2.534v-5.801h1.106v4.827h1.428c.325 0 .592-.085.8-.253a.81.81 0 0 0 .314-.654.852.852 0 0 0-.314-.683c-.208-.179-.475-.269-.8-.269H75.62v-.974Zm4.722 3.807v-5.801h1.129v5.801h-1.13Zm5.144.117c-.571 0-1.063-.122-1.476-.366a2.486 2.486 0 0 1-.952-1.039c-.222-.448-.332-.973-.332-1.575 0-.594.11-1.118.332-1.571a2.58 2.58 0 0 1 .937-1.061c.403-.255.873-.382 1.412-.382.328 0 .645.054.952.163.307.108.583.278.827.51.244.231.437.532.578.902.141.368.212.815.212 1.341v.4h-4.612v-.846h3.505c0-.297-.06-.56-.181-.789a1.373 1.373 0 0 0-1.273-.748c-.317 0-.594.078-.831.234a1.571 1.571 0 0 0-.544.605 1.742 1.742 0 0 0-.189.804v.661c0 .388.068.718.204.99.139.272.331.479.578.623.247.141.535.211.865.211.214 0 .409-.03.585-.09a1.214 1.214 0 0 0 .752-.737l1.069.193c-.086.315-.24.59-.461.827-.22.234-.495.417-.827.548-.33.128-.706.192-1.13.192Zm6.557-.117v-5.801h1.13v2.432h.543l1.915-2.432h1.398l-2.248 2.821 2.274 2.98h-1.401l-1.749-2.319h-.733v2.319h-1.129Zm5.432 0-.003-.978h.207a.746.746 0 0 0 .404-.102.754.754 0 0 0 .272-.355 2.73 2.73 0 0 0 .163-.687c.037-.295.065-.665.083-1.111l.102-2.568h4.049v5.801h-1.107v-4.827H99.75l-.09 1.972a7.975 7.975 0 0 1-.148 1.254c-.073.357-.18.656-.32.895a1.39 1.39 0 0 1-.545.532c-.221.116-.49.174-.808.174h-.363Zm7.889-1.582 2.557-4.219h1.216v5.801h-1.106v-4.222l-2.546 4.222h-1.227v-5.801h1.106v4.219Zm5.292 1.582v-5.801h1.129v2.432h.544l1.915-2.432h1.397l-2.247 2.821 2.274 2.98h-1.402l-1.748-2.319h-.733v2.319h-1.129Zm6.996-1.582 2.556-4.219h1.217v5.801h-1.107v-4.222l-2.546 4.222h-1.227v-5.801h1.107v4.219Z" fill="#000"/><g clip-path="url(#a)"><g clip-path="url(#b)"><g clip-path="url(#c)"><path d="m11.522 86.19 4.067 1.123c4.068 1.123 12.468 5.692 20.336 3.682 16.02-4.091 17.17-45.75 25.304-43.26 8.134 2.49 5.346 51.4 23.503 52.186 10.824.469 16.268-10.646 24.403-17.13 8.134-6.484 16.268-10.156 24.403-3.132 8.134 7.023 13.851 2.305 21.985 3.132 8.134.827 16.918 24.068 26.821-2.133 9.903-26.2 12.177-28.8 20.311-28.49 8.135.31 17.843 9.013 28.495 29.008 10.653 19.995 13.057 20.819 24.403 20.51 12.04-.327 16.269-20.32 24.403-24.505 8.135-4.185 16.269 5.66 24.403 3.287 8.135-2.373 16.269-16.963 24.404-14.838 8.134 2.124 16.268 20.964 24.403 18.392 8.134-2.572 16.268-26.555 20.336-38.547l4.067-11.992" stroke="#27C58B" stroke-width="3.719" stroke-linecap="round"/></g><path d="m15.56 87.574-4.038-1.128v103.028h339.162V84.268c-8.076 2.584-16.151-16.347-24.226-18.483-8.076-2.135-16.151 12.527-24.226 14.91-8.075 2.385-16.151-7.507-24.226-3.302s-12.273 24.295-24.226 24.624c-11.263.31-13.651-.517-24.226-20.61-10.575-20.092-18.742-26.817-26.817-27.128-8.075-.311-11.803.28-21.634 26.608s-19.96 5.7-28.036 4.869c-8.075-.831-12.341 1.184-20.416-5.873-8.075-7.058-16.15-3.368-24.226 3.147-8.075 6.516-13.48 17.684-24.225 17.213-18.025-.79-15.257-49.936-23.333-52.439-8.075-2.502-9.216 39.359-25.12 43.47-7.81 2.02-16.15-2.572-20.187-3.7Z" fill="#27C58B" fill-opacity=".2"/></g><path fill="#6695E2" d="M175.49 101.729h15.954v8.863H175.49z"/><path fill="#4F5A7C" d="M175.49 90.206h15.954v11.522H175.49z"/><path fill="#27C58B" d="M175.49 94.638h15.954v29.248H175.49z"/><path fill="#6695E2" d="M175.49 94.638h15.954v7.09H175.49z"/><path d="M175.49 45.004a5.318 5.318 0 0 1 5.318-5.317h5.317a5.318 5.318 0 0 1 5.318 5.317v45.202H175.49V45.004Z" fill="#E26666"/><path fill="#27C58B" d="M202.079 104.762h15.954v19.126h-15.954z"/><path fill="#6695E2" d="M202.079 104.762h15.954v13.005h-15.954z"/><path fill="#27C58B" d="M202.079 98.641h15.954v25.246h-15.954z"/><path fill="#4F5A7C" d="M202.079 85.635h15.954v19.126h-15.954z"/><path fill="#6695E2" d="M202.079 88.434h15.954v16.84h-15.954z"/><path d="M202.079 56.527a5.318 5.318 0 0 1 5.317-5.318h5.318a5.318 5.318 0 0 1 5.318 5.318v29.108h-15.953V56.527Z" fill="#E26666"/><path fill="#27C58B" d="M228.668 103.502h15.954v15.193h-15.954z"/><path fill="#27C58B" d="M228.668 111.151h15.954v12.735h-15.954z"/><path fill="#27C58B" d="M228.668 98.184h15.954v25.246h-15.954z"/><path fill="#6695E2" d="M228.668 85.775h15.954v12.408h-15.954z"/><path fill="#4F5A7C" d="M228.668 73.617h15.954v12.154h-15.954z"/><path d="M228.668 48.55a5.318 5.318 0 0 1 5.318-5.318h5.318a5.318 5.318 0 0 1 5.318 5.318v31.021h-15.954v-31.02Z" fill="#E26666"/><path fill="#27C58B" d="M255.257 98.183h15.954v25.703h-15.954z"/><path fill="#6695E2" d="M255.257 84.888h15.954v13.295h-15.954z"/><path fill="#4F5A7C" d="M255.257 85.168h15.954V88.9h-15.954z"/><path d="M255.257 84.888a5.318 5.318 0 0 1 5.318-5.318h5.318a5.318 5.318 0 0 1 5.318 5.318v1.213h-15.954v-1.213Z" fill="#E26666"/><g clip-path="url(#d)"><path fill="#27C58B" d="M281.847 93.751h15.954v30.135h-15.954z"/><path d="M281.847 84.888a5.318 5.318 0 0 1 5.318-5.318h5.317a5.318 5.318 0 0 1 5.318 5.318v1.213h-15.953v-1.213Z" fill="#E26666"/><path fill="#4F5A7C" d="M281.847 82.23h15.954v5.318h-15.954z"/><path fill="#6695E2" d="M281.847 84.888h15.954v8.863h-15.954z"/></g><g clip-path="url(#e)"><path fill="#27C58B" d="M308.436 82.23h15.954v41.657h-15.954z"/><path d="M308.437 73.367a5.317 5.317 0 0 1 5.317-5.318h5.318a5.318 5.318 0 0 1 5.318 5.318v1.212h-15.953v-1.212Z" fill="#E26666"/><path fill="#4F5A7C" d="M308.437 68.049h15.954v7.977h-15.954z"/><path fill="#6695E2" d="M308.436 73.367h15.954v8.863h-15.954z"/></g><g clip-path="url(#f)"><path fill="#27C58B" d="M335.025 95.524h15.954v35.452h-15.954z"/><path d="M335.025 80.457a5.318 5.318 0 0 1 5.318-5.317h5.318a5.318 5.318 0 0 1 5.318 5.317v1.213h-15.954v-1.213Z" fill="#E26666"/><path fill="#4F5A7C" d="M335.025 75.14h15.954v7.977h-15.954z"/><path d="M335.025 80.457a5.318 5.318 0 0 1 5.318-5.317h5.318a5.318 5.318 0 0 1 5.318 5.317v1.213h-15.954v-1.213Z" fill="#E26666"/><path fill="#6695E2" d="M335.025 83.116h15.954v12.408h-15.954z"/></g></g><path d="M30.221 20.628h-2.757a2.697 2.697 0 0 0-.308-.95 2.417 2.417 0 0 0-.598-.718 2.632 2.632 0 0 0-.844-.453 3.227 3.227 0 0 0-1.026-.157c-.667 0-1.248.165-1.743.497-.496.327-.88.806-1.152 1.435-.273.625-.41 1.385-.41 2.279 0 .919.137 1.691.41 2.316.277.626.663 1.098 1.158 1.417.495.319 1.068.478 1.718.478a3.4 3.4 0 0 0 1.014-.145c.314-.096.593-.237.837-.421.243-.19.445-.418.604-.686.164-.27.277-.575.34-.92l2.757.013a5.143 5.143 0 0 1-1.674 3.179 5.363 5.363 0 0 1-1.7 1.02c-.654.247-1.395.371-2.222.371-1.15 0-2.178-.26-3.084-.78-.902-.52-1.616-1.274-2.14-2.26-.52-.986-.781-2.18-.781-3.582 0-1.406.264-2.602.793-3.588.529-.986 1.247-1.738 2.153-2.254.906-.52 1.926-.78 3.06-.78.746 0 1.439.105 2.076.314a5.26 5.26 0 0 1 1.706.92c.496.398.898.887 1.209 1.466.315.58.516 1.242.604 1.99Zm1.4.819v-2.109h8.763v2.109h-3.116v7.56h-2.555v-7.56h-3.091Zm12.8 7.742c-.617 0-1.167-.107-1.65-.32a2.655 2.655 0 0 1-1.145-.964c-.277-.428-.415-.96-.415-1.599 0-.537.098-.988.295-1.353.198-.365.466-.659.806-.881.34-.223.726-.39 1.158-.504a8.836 8.836 0 0 1 1.373-.24 34.548 34.548 0 0 0 1.36-.163c.343-.054.593-.134.748-.239a.526.526 0 0 0 .233-.466v-.038c0-.398-.126-.707-.377-.925-.248-.218-.6-.327-1.058-.327-.483 0-.867.107-1.152.32-.285.21-.474.475-.566.794l-2.48-.201a3.37 3.37 0 0 1 .742-1.524c.37-.432.846-.764 1.43-.994.587-.235 1.267-.353 2.039-.353.537 0 1.05.063 1.542.189a4.05 4.05 0 0 1 1.316.585c.386.265.69.605.912 1.02.223.411.334.904.334 1.48v6.52h-2.543v-1.34h-.076a2.729 2.729 0 0 1-.623.8c-.26.226-.573.404-.938.534a3.877 3.877 0 0 1-1.265.19Zm.768-1.85a2.26 2.26 0 0 0 1.045-.233 1.86 1.86 0 0 0 .711-.642c.172-.269.258-.573.258-.913v-1.026c-.084.055-.2.105-.346.151a6.299 6.299 0 0 1-.485.12c-.18.033-.36.065-.541.094-.18.025-.344.048-.491.07-.315.045-.59.119-.825.22a1.32 1.32 0 0 0-.547.409.997.997 0 0 0-.196.63c0 .364.133.643.397.836.269.19.609.284 1.02.284Zm5.786-5.892v-2.109h8.763v2.109h-3.116v7.56h-2.556v-7.56h-3.09Zm12.95 4.022 3.481-6.131h2.644v9.669h-2.555v-6.15l-3.469 6.15h-2.663v-9.669h2.562v6.131Zm12.644 3.727c-.99 0-1.843-.21-2.556-.63a4.256 4.256 0 0 1-1.637-1.762c-.377-.752-.566-1.616-.566-2.594 0-.99.19-1.859.572-2.606a4.255 4.255 0 0 1 1.643-1.756c.71-.424 1.553-.636 2.53-.636.844 0 1.583.153 2.217.46a3.703 3.703 0 0 1 1.504 1.29c.37.554.573 1.204.61 1.951h-2.53c-.071-.482-.26-.87-.566-1.164-.303-.298-.699-.447-1.19-.447-.415 0-.778.113-1.089.34-.306.222-.546.547-.718.976-.172.428-.258.946-.258 1.554 0 .617.084 1.142.252 1.574.172.432.413.762.724.988.31.227.674.34 1.089.34.306 0 .581-.063.825-.189.247-.125.45-.308.61-.547.164-.244.27-.535.321-.875h2.53c-.041.738-.243 1.389-.604 1.951a3.65 3.65 0 0 1-1.479 1.31c-.63.314-1.374.472-2.234.472Zm5.375-7.75v-2.108h8.763v2.109H87.59v7.56h-2.556v-7.56h-3.09Zm12.95 4.023 3.481-6.131h2.644v9.669h-2.556v-6.15l-3.468 6.15h-2.663v-9.669h2.562v6.131Zm8.275 3.538v-9.669h2.681v3.752h.756l2.631-3.752h3.147l-3.418 4.797 3.456 4.872h-3.185l-2.386-3.43h-1.001v3.43h-2.681Zm13.143.182c-.616 0-1.166-.107-1.649-.32a2.655 2.655 0 0 1-1.145-.964c-.277-.428-.416-.96-.416-1.599 0-.537.099-.988.296-1.353a2.39 2.39 0 0 1 .806-.881 3.91 3.91 0 0 1 1.158-.504 8.83 8.83 0 0 1 1.372-.24 34.386 34.386 0 0 0 1.36-.163c.344-.054.594-.134.749-.239a.526.526 0 0 0 .233-.466v-.038c0-.398-.126-.707-.378-.925-.247-.218-.6-.327-1.057-.327-.483 0-.867.107-1.152.32-.286.21-.475.475-.567.794l-2.48-.201a3.364 3.364 0 0 1 .743-1.524 3.558 3.558 0 0 1 1.429-.994c.587-.235 1.267-.353 2.039-.353a6.18 6.18 0 0 1 1.542.189 4.03 4.03 0 0 1 1.316.585c.386.265.69.605.913 1.02.222.411.333.904.333 1.48v6.52h-2.543v-1.34h-.075a2.726 2.726 0 0 1-.623.8 2.895 2.895 0 0 1-.938.534 3.879 3.879 0 0 1-1.266.19Zm.768-1.85c.395 0 .743-.078 1.045-.233.302-.16.54-.374.712-.642.172-.269.258-.573.258-.913v-1.026c-.084.055-.2.105-.346.151a6.414 6.414 0 0 1-.485.12c-.181.033-.361.065-.542.094-.18.025-.344.048-.491.07a3.26 3.26 0 0 0-.824.22 1.32 1.32 0 0 0-.548.409.997.997 0 0 0-.195.63c0 .364.132.643.397.836.268.19.608.284 1.019.284Zm10.861 1.668v-9.669h4.123c1.191 0 2.134.227 2.826.68.692.453 1.039 1.097 1.039 1.932 0 .525-.195.961-.586 1.31-.39.348-.931.583-1.624.705.579.042 1.072.174 1.479.396.412.218.724.502.938.85.219.348.328.735.328 1.158 0 .55-.147 1.022-.441 1.417-.289.394-.715.696-1.278.906-.558.21-1.24.315-2.046.315h-4.758Zm2.499-2.008h2.259c.374 0 .666-.088.875-.265.214-.18.321-.426.321-.736 0-.344-.107-.615-.321-.812-.209-.197-.501-.296-.875-.296h-2.259v2.109Zm0-3.683h1.68c.269 0 .498-.037.686-.113a.964.964 0 0 0 .441-.34.874.874 0 0 0 .157-.522.806.806 0 0 0-.358-.7c-.24-.167-.567-.25-.982-.25h-1.624v1.925Zm10.276 2.153 3.481-6.131h2.644v9.669h-2.556v-6.15l-3.468 6.15h-2.663v-9.669h2.562v6.131Zm7.777.8h2.6c.012.319.155.57.428.755.273.185.625.277 1.057.277.437 0 .804-.1 1.102-.302.298-.206.447-.5.447-.881a1.06 1.06 0 0 0-.176-.611 1.2 1.2 0 0 0-.491-.416c-.21-.1-.453-.15-.73-.15h-1.392v-1.757h1.392c.415 0 .734-.096.956-.29a.911.911 0 0 0 .34-.723.975.975 0 0 0-.352-.787c-.231-.202-.544-.302-.938-.302-.399 0-.73.09-.995.27-.26.177-.394.407-.403.693h-2.587c.009-.58.183-1.08.523-1.505.344-.424.805-.75 1.385-.982.583-.23 1.235-.346 1.957-.346.789 0 1.469.111 2.04.334.575.218 1.015.53 1.322.938.31.407.465.891.465 1.454 0 .512-.167.94-.503 1.284-.336.344-.806.59-1.41.736v.101a2.42 2.42 0 0 1 1.083.321c.323.189.581.45.774.78.193.328.289.716.289 1.165 0 .6-.176 1.114-.528 1.543-.349.428-.831.757-1.448.988-.613.226-1.316.34-2.109.34-.772 0-1.465-.112-2.077-.334-.609-.227-1.093-.558-1.454-.994-.357-.437-.546-.97-.567-1.6Zm12.39-.8 3.481-6.131h2.644v9.669h-2.556v-6.15l-3.468 6.15h-2.663v-9.669h2.562v6.131Zm7.303-4.022v-2.109h8.763v2.109h-3.116v7.56h-2.556v-7.56h-3.091Zm14.411 7.749c-.978 0-1.823-.208-2.537-.623a4.266 4.266 0 0 1-1.643-1.75c-.386-.752-.579-1.622-.579-2.613 0-.999.193-1.872.579-2.619a4.215 4.215 0 0 1 1.643-1.75c.714-.42 1.559-.629 2.537-.629s1.821.21 2.53.63a4.2 4.2 0 0 1 1.65 1.75c.386.747.579 1.62.579 2.618 0 .99-.193 1.861-.579 2.613a4.25 4.25 0 0 1-1.65 1.75c-.709.415-1.552.623-2.53.623Zm.013-2.078c.444 0 .816-.125 1.114-.377.298-.256.522-.605.673-1.045.156-.44.233-.942.233-1.505 0-.562-.077-1.063-.233-1.504-.151-.44-.375-.79-.673-1.045-.298-.256-.67-.384-1.114-.384-.45 0-.827.128-1.134.384-.302.256-.53.604-.686 1.045a4.63 4.63 0 0 0-.226 1.504c0 .563.075 1.064.226 1.505.156.44.384.789.686 1.045.307.252.684.377 1.134.377Zm6.489 1.889v-9.669h4.124c1.191 0 2.134.227 2.826.68.692.453 1.039 1.097 1.039 1.932 0 .525-.196.961-.586 1.31-.39.348-.931.583-1.624.705.579.042 1.072.174 1.479.396.412.218.724.502.938.85.219.348.328.735.328 1.158 0 .55-.147 1.022-.441 1.417-.29.394-.715.696-1.278.906-.558.21-1.24.315-2.046.315h-4.759Zm2.5-2.008h2.259c.374 0 .666-.088.875-.265.214-.18.321-.426.321-.736 0-.344-.107-.615-.321-.812-.209-.197-.501-.296-.875-.296h-2.259v2.109Zm0-3.683h1.68c.269 0 .498-.037.686-.113a.964.964 0 0 0 .441-.34.874.874 0 0 0 .157-.522.806.806 0 0 0-.358-.7c-.24-.167-.567-.25-.982-.25h-1.624v1.925Z" fill="#070707"/><path d="M172.078 130.241v7.736h-1.171v-6.565h-.046l-1.85 1.209v-1.118l1.93-1.262h1.137Zm2.092 7.736v-.846l2.617-2.712c.28-.295.51-.553.692-.775.183-.224.321-.436.411-.638.091-.201.136-.415.136-.642 0-.257-.06-.478-.181-.665a1.193 1.193 0 0 0-.495-.434 1.575 1.575 0 0 0-.706-.155c-.277 0-.519.057-.725.17a1.159 1.159 0 0 0-.476.48 1.507 1.507 0 0 0-.166.725h-1.115c0-.471.109-.883.325-1.235.217-.353.514-.626.892-.82a2.753 2.753 0 0 1 1.288-.294c.486 0 .914.097 1.284.291.372.191.663.453.872.785.209.33.314.703.314 1.118 0 .287-.055.568-.163.842-.106.275-.291.581-.555.918-.264.335-.632.742-1.103 1.22l-1.537 1.609v.057h3.482v1.001h-5.091Zm7.282.071a.734.734 0 0 1-.533-.219.732.732 0 0 1-.223-.536c0-.207.075-.383.223-.529a.73.73 0 0 1 .533-.223c.206 0 .384.075.532.223a.713.713 0 0 1 .223.529.768.768 0 0 1-.377.653.724.724 0 0 1-.378.102Zm4.665.057c-.596-.003-1.106-.16-1.529-.472-.423-.312-.747-.767-.971-1.364-.224-.596-.336-1.315-.336-2.156 0-.839.112-1.555.336-2.149.227-.594.551-1.048.974-1.36.426-.312.935-.468 1.526-.468.592 0 1.099.157 1.522.472.423.312.747.765.971 1.36.227.591.34 1.306.34 2.145 0 .843-.112 1.563-.336 2.16-.224.594-.548 1.049-.971 1.364-.423.312-.931.468-1.526.468Zm0-1.008c.524 0 .933-.256 1.228-.767.297-.511.445-1.25.445-2.217 0-.642-.068-1.185-.204-1.628-.133-.446-.326-.783-.577-1.012a1.266 1.266 0 0 0-.892-.348c-.521 0-.93.257-1.227.771-.297.513-.447 1.252-.45 2.217 0 .644.067 1.19.201 1.635.135.443.328.779.577 1.009.25.226.549.34.899.34Zm6.873.985a3.106 3.106 0 0 1-1.019-.189 2.377 2.377 0 0 1-.907-.604c-.272-.282-.49-.661-.653-1.137-.161-.476-.242-1.07-.242-1.782 0-.675.067-1.274.2-1.798.136-.524.331-.966.586-1.326.254-.362.561-.638.921-.827.36-.189.764-.283 1.212-.283.461 0 .87.09 1.228.272.358.181.647.431.869.751.224.32.366.684.426 1.092h-1.152a1.485 1.485 0 0 0-.464-.79c-.232-.204-.534-.306-.907-.306-.566 0-1.008.247-1.325.741-.315.493-.474 1.179-.476 2.058h.057c.133-.219.297-.405.491-.559.196-.156.415-.276.657-.359.244-.085.501-.128.77-.128.448 0 .854.11 1.216.329.365.216.656.516.873.898.216.383.325.821.325 1.315 0 .493-.112.94-.336 1.341-.222.4-.534.717-.937.951-.403.232-.874.345-1.413.34Zm-.004-.982c.298 0 .563-.073.797-.219.235-.146.42-.342.556-.589.136-.247.204-.522.204-.827a1.66 1.66 0 0 0-.201-.812 1.52 1.52 0 0 0-.543-.582 1.456 1.456 0 0 0-.786-.215 1.516 1.516 0 0 0-1.122.483 1.73 1.73 0 0 0-.34.522c-.08.194-.121.399-.121.615a1.646 1.646 0 0 0 .756 1.401c.236.149.503.223.8.223Zm33.157-6.859v7.736h-1.171v-6.565h-.046l-1.85 1.209v-1.118l1.93-1.262h1.137Zm1.93 6.225v-.944l3.342-5.281h.744v1.39h-.472l-2.391 3.785v.06h4.582v.99h-5.805Zm3.667 1.511v-1.798l.007-.431v-5.507h1.107v7.736h-1.114Zm3.922.071a.732.732 0 0 1-.532-.219.728.728 0 0 1-.223-.536c0-.207.074-.383.223-.529a.728.728 0 0 1 .532-.223.73.73 0 0 1 .533.223.716.716 0 0 1 .223.529.722.722 0 0 1-.106.381.779.779 0 0 1-.272.272.719.719 0 0 1-.378.102Zm4.666.057c-.597-.003-1.107-.16-1.53-.472-.423-.312-.747-.767-.971-1.364-.224-.596-.336-1.315-.336-2.156 0-.839.112-1.555.336-2.149.227-.594.552-1.048.975-1.36.425-.312.934-.468 1.526-.468.591 0 1.099.157 1.522.472.423.312.746.765.97 1.36.227.591.34 1.306.34 2.145 0 .843-.112 1.563-.336 2.16-.224.594-.547 1.049-.971 1.364-.423.312-.931.468-1.525.468Zm0-1.008c.523 0 .933-.256 1.227-.767.297-.511.446-1.25.446-2.217 0-.642-.068-1.185-.204-1.628-.134-.446-.326-.783-.578-1.012a1.262 1.262 0 0 0-.891-.348c-.522 0-.931.257-1.228.771-.297.513-.447 1.252-.449 2.217 0 .644.066 1.19.2 1.635.136.443.328.779.578 1.009.249.226.549.34.899.34Zm6.873.985a3.117 3.117 0 0 1-1.02-.189 2.385 2.385 0 0 1-.907-.604c-.272-.282-.489-.661-.653-1.137-.161-.476-.242-1.07-.242-1.782 0-.675.067-1.274.2-1.798.136-.524.332-.966.586-1.326.254-.362.561-.638.921-.827a2.574 2.574 0 0 1 1.213-.283c.461 0 .87.09 1.227.272.358.181.647.431.869.751.224.32.366.684.427 1.092h-1.152a1.486 1.486 0 0 0-.465-.79c-.231-.204-.534-.306-.906-.306-.567 0-1.009.247-1.326.741-.315.493-.473 1.179-.476 2.058h.057c.133-.219.297-.405.491-.559.196-.156.415-.276.657-.359.244-.085.501-.128.771-.128.448 0 .853.11 1.216.329.365.216.656.516.872.898.217.383.325.821.325 1.315 0 .493-.112.94-.336 1.341-.222.4-.534.717-.937.951-.403.232-.874.345-1.412.34Zm-.004-.982c.297 0 .563-.073.797-.219a1.58 1.58 0 0 0 .555-.589c.136-.247.204-.522.204-.827a1.67 1.67 0 0 0-.2-.812 1.516 1.516 0 0 0-.544-.582 1.453 1.453 0 0 0-.786-.215 1.516 1.516 0 0 0-1.121.483 1.711 1.711 0 0 0-.34.522 1.58 1.58 0 0 0-.121.615 1.646 1.646 0 0 0 .755 1.401c.237.149.504.223.801.223Zm32.125-6.859v7.736h-1.171v-6.565h-.045l-1.851 1.209v-1.118l1.93-1.262h1.137Zm4.793 7.841a3.117 3.117 0 0 1-1.02-.189 2.385 2.385 0 0 1-.907-.604c-.272-.282-.489-.661-.653-1.137-.161-.476-.242-1.07-.242-1.782 0-.675.067-1.274.2-1.798.136-.524.332-.966.586-1.326.254-.362.561-.638.921-.827a2.574 2.574 0 0 1 1.213-.283c.461 0 .87.09 1.227.272.358.181.647.431.869.751.224.32.366.684.427 1.092h-1.152a1.486 1.486 0 0 0-.465-.79c-.231-.204-.534-.306-.906-.306-.567 0-1.009.247-1.326.741-.315.493-.473 1.179-.476 2.058h.057c.133-.219.297-.405.491-.559.196-.156.415-.276.657-.359.244-.085.501-.128.771-.128.448 0 .853.11 1.216.329.365.216.656.516.872.898.217.383.325.821.325 1.315 0 .493-.112.94-.336 1.341-.222.4-.534.717-.937.951-.403.232-.874.345-1.412.34Zm-.004-.982c.297 0 .563-.073.797-.219a1.58 1.58 0 0 0 .555-.589c.136-.247.204-.522.204-.827a1.67 1.67 0 0 0-.2-.812 1.516 1.516 0 0 0-.544-.582 1.453 1.453 0 0 0-.786-.215 1.516 1.516 0 0 0-1.121.483 1.711 1.711 0 0 0-.34.522 1.67 1.67 0 0 0 .079 1.42c.136.246.321.445.555.596.237.149.504.223.801.223Zm4.471.948a.734.734 0 0 1-.533-.219.732.732 0 0 1-.223-.536c0-.207.075-.383.223-.529a.73.73 0 0 1 .533-.223c.206 0 .384.075.532.223a.713.713 0 0 1 .223.529.77.77 0 0 1-.378.653.718.718 0 0 1-.377.102Zm4.665.057c-.597-.003-1.106-.16-1.529-.472-.423-.312-.747-.767-.971-1.364-.224-.596-.336-1.315-.336-2.156 0-.839.112-1.555.336-2.149.226-.594.551-1.048.974-1.36.426-.312.934-.468 1.526-.468s1.099.157 1.522.472c.423.312.747.765.971 1.36.227.591.34 1.306.34 2.145 0 .843-.112 1.563-.336 2.16-.224.594-.548 1.049-.971 1.364-.423.312-.932.468-1.526.468Zm0-1.008c.524 0 .933-.256 1.228-.767.297-.511.445-1.25.445-2.217 0-.642-.068-1.185-.204-1.628-.133-.446-.326-.783-.577-1.012a1.266 1.266 0 0 0-.892-.348c-.521 0-.93.257-1.227.771-.297.513-.447 1.252-.45 2.217 0 .644.067 1.19.2 1.635.136.443.329.779.578 1.009.25.226.549.34.899.34Zm6.873.985a3.117 3.117 0 0 1-1.02-.189 2.381 2.381 0 0 1-.906-.604c-.272-.282-.49-.661-.653-1.137-.162-.476-.242-1.07-.242-1.782 0-.675.067-1.274.2-1.798.136-.524.331-.966.585-1.326.255-.362.562-.638.922-.827.36-.189.764-.283 1.212-.283.461 0 .87.09 1.228.272.357.181.647.431.869.751.224.32.366.684.426 1.092h-1.152a1.491 1.491 0 0 0-.464-.79c-.232-.204-.534-.306-.907-.306-.566 0-1.008.247-1.325.741-.315.493-.474 1.179-.476 2.058h.056a2.132 2.132 0 0 1 1.149-.918c.244-.085.501-.128.77-.128.448 0 .854.11 1.216.329.365.216.656.516.873.898.216.383.325.821.325 1.315 0 .493-.113.94-.337 1.341-.221.4-.533.717-.936.951-.403.232-.874.345-1.413.34Zm-.004-.982c.298 0 .563-.073.797-.219.234-.146.42-.342.556-.589.135-.247.203-.522.203-.827 0-.297-.066-.568-.2-.812a1.516 1.516 0 0 0-.544-.582 1.452 1.452 0 0 0-.785-.215 1.516 1.516 0 0 0-1.122.483 1.73 1.73 0 0 0-.34.522 1.67 1.67 0 0 0 .079 1.42c.136.246.322.445.556.596.236.149.503.223.8.223Zm34.624-6.859v7.736h-1.171v-6.565h-.045l-1.851 1.209v-1.118l1.93-1.262h1.137Zm4.706 7.841c-.541 0-1.02-.093-1.435-.279a2.35 2.35 0 0 1-.971-.771 1.85 1.85 0 0 1-.347-1.118 1.96 1.96 0 0 1 .763-1.593c.236-.187.501-.305.793-.355v-.046a1.562 1.562 0 0 1-.926-.619 1.814 1.814 0 0 1-.343-1.103 1.812 1.812 0 0 1 .313-1.058c.214-.312.508-.557.88-.736a2.906 2.906 0 0 1 1.273-.268c.471 0 .891.09 1.262.272.372.178.666.424.88.736.214.31.322.661.324 1.054a1.83 1.83 0 0 1-.355 1.103c-.234.32-.538.526-.914.619v.046c.29.05.551.168.782.355.234.183.421.414.559.691.141.274.213.575.215.902-.002.418-.12.791-.355 1.118a2.347 2.347 0 0 1-.974.771c-.413.186-.888.279-1.424.279Zm0-.955a2 2 0 0 0 .831-.159 1.29 1.29 0 0 0 .544-.449c.128-.194.194-.421.196-.68a1.271 1.271 0 0 0-.211-.714 1.414 1.414 0 0 0-.555-.487 1.756 1.756 0 0 0-.805-.178c-.305 0-.575.059-.812.178a1.405 1.405 0 0 0-.559.487 1.24 1.24 0 0 0-.2.714c-.003.259.059.486.185.68.128.191.311.341.548.449.236.106.516.159.838.159Zm0-3.6c.257 0 .485-.051.684-.154.199-.104.355-.247.468-.431.116-.184.175-.399.178-.646a1.2 1.2 0 0 0-.174-.634 1.108 1.108 0 0 0-.465-.42 1.519 1.519 0 0 0-.691-.151c-.267 0-.501.051-.702.151a1.108 1.108 0 0 0-.465.42 1.159 1.159 0 0 0-.162.634c-.003.247.052.462.166.646.113.184.269.327.468.431.202.103.433.154.695.154Zm4.637 4.521a.732.732 0 0 1-.532-.219.728.728 0 0 1-.223-.536c0-.207.074-.383.223-.529a.728.728 0 0 1 .532-.223.73.73 0 0 1 .533.223.716.716 0 0 1 .223.529.722.722 0 0 1-.106.381.779.779 0 0 1-.272.272.719.719 0 0 1-.378.102Zm4.666.057c-.597-.003-1.107-.16-1.53-.472-.423-.312-.747-.767-.971-1.364-.224-.596-.336-1.315-.336-2.156 0-.839.112-1.555.336-2.149.227-.594.552-1.048.975-1.36.425-.312.934-.468 1.526-.468.591 0 1.099.157 1.522.472.423.312.746.765.97 1.36.227.591.34 1.306.34 2.145 0 .843-.112 1.563-.336 2.16-.224.594-.548 1.049-.971 1.364-.423.312-.931.468-1.525.468Zm0-1.008c.523 0 .932-.256 1.227-.767.297-.511.446-1.25.446-2.217 0-.642-.068-1.185-.204-1.628-.134-.446-.326-.783-.578-1.012a1.262 1.262 0 0 0-.891-.348c-.522 0-.931.257-1.228.771-.297.513-.447 1.252-.449 2.217 0 .644.066 1.19.2 1.635.136.443.328.779.578 1.009.249.226.549.34.899.34Zm6.873.985a3.117 3.117 0 0 1-1.02-.189 2.377 2.377 0 0 1-.907-.604c-.272-.282-.489-.661-.653-1.137-.161-.476-.242-1.07-.242-1.782 0-.675.067-1.274.2-1.798.136-.524.332-.966.586-1.326.254-.362.561-.638.921-.827.36-.189.765-.283 1.213-.283.461 0 .87.09 1.227.272.358.181.647.431.869.751.224.32.366.684.427 1.092h-1.152a1.486 1.486 0 0 0-.465-.79c-.231-.204-.534-.306-.906-.306-.567 0-1.009.247-1.326.741-.315.493-.473 1.179-.476 2.058h.057c.133-.219.297-.405.491-.559.196-.156.415-.276.657-.359.244-.085.501-.128.771-.128.448 0 .853.11 1.216.329.365.216.656.516.872.898.217.383.325.821.325 1.315 0 .493-.112.94-.336 1.341-.222.4-.534.717-.937.951-.403.232-.874.345-1.412.34Zm-.004-.982c.297 0 .563-.073.797-.219a1.58 1.58 0 0 0 .555-.589c.136-.247.204-.522.204-.827a1.67 1.67 0 0 0-.2-.812 1.523 1.523 0 0 0-.544-.582 1.453 1.453 0 0 0-.786-.215 1.516 1.516 0 0 0-1.122.483 1.727 1.727 0 0 0-.339.522 1.58 1.58 0 0 0-.121.615 1.646 1.646 0 0 0 .755 1.401c.237.149.504.223.801.223Z" fill="#9F9F9F"/><defs><clipPath id="a"><path fill="#fff" transform="translate(175 37)" d="M0 0h240v87H0z"/></clipPath><clipPath id="b"><path fill="#fff" transform="translate(175.49 26.96)" d="M0 0h335.912v101.926H0z"/></clipPath><clipPath id="c"><path fill="#fff" transform="translate(11.522 35.256)" d="M0 0h339.457v68.246H0z"/></clipPath><clipPath id="d"><path d="M281.847 85.775a6.204 6.204 0 0 1 6.204-6.205h3.545a6.204 6.204 0 0 1 6.204 6.205v38.111h-15.953V85.775Z" fill="#fff"/></clipPath><clipPath id="e"><path d="M308.437 74.253a6.204 6.204 0 0 1 6.204-6.204h3.545a6.204 6.204 0 0 1 6.204 6.204v49.633h-15.953V74.253Z" fill="#fff"/></clipPath><clipPath id="f"><path d="M335.025 81.344a6.205 6.205 0 0 1 6.205-6.204h3.545a6.204 6.204 0 0 1 6.204 6.204v42.543h-15.954V81.344Z" fill="#fff"/></clipPath></defs></svg>