<svg width="380" height="150" fill="none" xmlns="http://www.w3.org/2000/svg"><rect width="380" height="150" rx="13" fill="#fff"/><path fill-rule="evenodd" clip-rule="evenodd" d="M45.639 32.09c0-7.483-6.066-13.549-13.55-13.549-7.482 0-13.548 6.067-13.548 13.55 0 7.483 6.066 13.549 13.549 13.549s13.549-6.066 13.549-13.55Zm-11.743 6.994v-8.807h-3.613v8.807h3.613ZM32.09 25.097a1.807 1.807 0 1 1 0 3.613 1.807 1.807 0 0 1 0-3.613Z" fill="#EFB503"/><path d="M61.022 38.59V25.698h5.086c.978 0 1.81.187 2.5.56.687.37 1.212.884 1.573 1.543.365.654.547 1.41.547 2.266 0 .856-.184 1.611-.553 2.266a3.82 3.82 0 0 1-1.606 1.53c-.696.364-1.54.547-2.53.547h-3.242v-2.184h2.801c.525 0 .957-.09 1.297-.27.344-.186.6-.44.768-.763.172-.327.258-.703.258-1.126 0-.428-.086-.802-.258-1.12a1.723 1.723 0 0 0-.768-.75c-.344-.18-.78-.27-1.31-.27h-1.837V38.59h-2.726Zm13.924.182c-.617 0-1.167-.107-1.65-.32a2.656 2.656 0 0 1-1.145-.964c-.277-.428-.415-.96-.415-1.599 0-.537.098-.988.295-1.353.198-.365.466-.659.806-.881.34-.223.726-.39 1.159-.504a8.832 8.832 0 0 1 1.372-.24 34.524 34.524 0 0 0 1.36-.163c.344-.054.593-.134.749-.239a.525.525 0 0 0 .232-.466v-.038c0-.398-.126-.707-.377-.925-.248-.218-.6-.327-1.058-.327-.482 0-.866.107-1.152.32-.285.21-.474.475-.566.794l-2.48-.201a3.369 3.369 0 0 1 .742-1.524c.37-.432.846-.764 1.43-.994.587-.235 1.267-.353 2.039-.353a6.18 6.18 0 0 1 1.542.189 4.05 4.05 0 0 1 1.316.585c.386.265.69.605.912 1.02.223.411.334.905.334 1.48v6.52h-2.543v-1.34h-.076a2.729 2.729 0 0 1-.623.8c-.26.226-.573.404-.938.535a3.877 3.877 0 0 1-1.265.188Zm.768-1.85a2.26 2.26 0 0 0 1.045-.233c.302-.16.54-.374.711-.642.172-.269.258-.573.258-.913v-1.026a1.41 1.41 0 0 1-.346.151 6.322 6.322 0 0 1-.485.12c-.18.033-.36.065-.541.094-.18.025-.344.048-.491.07-.315.045-.59.119-.825.22a1.31 1.31 0 0 0-.547.409.996.996 0 0 0-.195.63c0 .364.132.643.396.836.269.19.609.284 1.02.284Zm6.26-1.07h2.6c.013.319.155.57.428.755.273.185.625.277 1.058.277.436 0 .803-.1 1.101-.302.298-.206.447-.5.447-.882 0-.235-.059-.438-.176-.61a1.197 1.197 0 0 0-.491-.416c-.21-.1-.454-.15-.73-.15h-1.392v-1.757h1.392c.415 0 .734-.096.956-.29a.912.912 0 0 0 .34-.723.976.976 0 0 0-.352-.787c-.231-.202-.544-.302-.938-.302-.399 0-.73.09-.995.27-.26.177-.394.407-.403.693h-2.587c.009-.58.183-1.08.523-1.505.344-.424.806-.75 1.385-.982.583-.23 1.236-.346 1.957-.346.79 0 1.47.111 2.04.334.575.218 1.015.53 1.322.938.31.407.465.891.465 1.454 0 .512-.167.94-.503 1.284-.336.344-.806.59-1.41.736v.101c.399.025.76.132 1.083.321.323.189.58.45.774.78.193.328.29.716.29 1.165 0 .6-.177 1.114-.53 1.542-.348.428-.83.758-1.447.989-.613.226-1.316.34-2.109.34-.772 0-1.465-.112-2.077-.334-.609-.227-1.093-.558-1.454-.995-.357-.436-.546-.969-.567-1.598Zm9.828 6.364V28.92h2.644v1.624h.12a3.5 3.5 0 0 1 .51-.793c.226-.273.52-.5.88-.68.366-.185.819-.277 1.36-.277a3.64 3.64 0 0 1 1.952.554c.596.365 1.072.917 1.429 1.656.356.734.535 1.655.535 2.763 0 1.078-.175 1.99-.523 2.732-.344.739-.814 1.299-1.41 1.68a3.619 3.619 0 0 1-1.99.567c-.52 0-.962-.086-1.327-.258a2.749 2.749 0 0 1-.888-.648 3.293 3.293 0 0 1-.529-.8h-.081v5.175h-2.682Zm2.625-8.46c0 .574.08 1.076.24 1.504.159.428.39.762.692 1 .302.236.669.353 1.101.353.437 0 .806-.12 1.108-.358.302-.244.53-.58.686-1.008.16-.432.24-.93.24-1.492 0-.558-.078-1.049-.234-1.473-.155-.423-.384-.755-.686-.994-.302-.24-.673-.359-1.114-.359-.436 0-.806.115-1.108.346-.298.231-.526.558-.686.982-.16.424-.24.924-.24 1.498Zm12.999 5.023c-.995 0-1.851-.202-2.569-.605a4.14 4.14 0 0 1-1.649-1.724c-.386-.747-.579-1.63-.579-2.65 0-.995.193-1.868.579-2.62a4.28 4.28 0 0 1 1.631-1.755c.705-.42 1.531-.63 2.48-.63.638 0 1.231.103 1.781.308a3.95 3.95 0 0 1 1.448.913c.415.407.739.92.969 1.536.231.613.347 1.33.347 2.153v.737h-8.165V32.78h5.64c0-.386-.084-.728-.251-1.026a1.805 1.805 0 0 0-.699-.7 1.995 1.995 0 0 0-1.026-.257c-.407 0-.768.094-1.083.283a1.981 1.981 0 0 0-.73.75c-.176.31-.267.656-.271 1.038v1.58c0 .478.088.892.265 1.24.18.348.434.617.761.806.328.188.716.283 1.165.283.298 0 .57-.042.818-.126.248-.084.46-.21.636-.378s.31-.373.403-.617l2.48.164a3.39 3.39 0 0 1-.774 1.561c-.386.44-.886.785-1.499 1.033-.608.243-1.311.365-2.108.365Zm6.188-9.858h2.562v7.541h2.725v-7.541h2.562v7.541h2.726v-7.541h2.562v9.669h-13.137v-9.67Zm17.778 6.131 3.481-6.131h2.644v9.669h-2.556v-6.15l-3.469 6.15h-2.662v-9.67h2.562v6.131Zm7.303-4.022v-2.11h8.763v2.109h-3.116v7.56h-2.556v-7.56h-3.091Zm14.448 7.749c-.994 0-1.85-.202-2.568-.605a4.14 4.14 0 0 1-1.649-1.724c-.386-.747-.579-1.63-.579-2.65 0-.995.193-1.868.579-2.62a4.278 4.278 0 0 1 1.63-1.755c.705-.42 1.532-.63 2.48-.63.638 0 1.232.103 1.782.308a3.959 3.959 0 0 1 1.448.913c.415.407.738.92.969 1.536.231.613.346 1.33.346 2.153v.737h-8.164V32.78h5.64c0-.386-.084-.728-.252-1.026a1.81 1.81 0 0 0-.698-.7 1.996 1.996 0 0 0-1.027-.257 2.06 2.06 0 0 0-1.082.283 1.981 1.981 0 0 0-.73.75c-.177.31-.267.656-.271 1.038v1.58c0 .478.088.892.264 1.24.181.348.435.617.762.806.327.188.715.283 1.164.283.298 0 .571-.042.819-.126a1.71 1.71 0 0 0 .636-.378c.176-.168.31-.373.402-.617l2.481.164a3.382 3.382 0 0 1-.775 1.561c-.386.44-.885.785-1.498 1.033-.608.243-1.311.365-2.109.365Zm9.536 2.643v-4.96h.742c.214-.134.386-.348.516-.642.135-.294.244-.64.328-1.038.088-.4.155-.83.201-1.291.051-.466.095-.936.132-1.41l.252-3.16h7.416v7.541h1.498v4.96h-2.556V38.59h-5.911v2.832h-2.618Zm3.411-4.96h3.645v-5.476h-2.606l-.101 1.095a23.555 23.555 0 0 1-.308 2.631c-.135.718-.344 1.301-.63 1.75Zm13.605 2.317c-.978 0-1.823-.208-2.537-.623a4.266 4.266 0 0 1-1.643-1.75c-.386-.752-.579-1.622-.579-2.613 0-.999.193-1.871.579-2.619a4.215 4.215 0 0 1 1.643-1.75c.714-.42 1.559-.629 2.537-.629s1.821.21 2.531.63a4.204 4.204 0 0 1 1.649 1.75c.386.747.579 1.62.579 2.618 0 .99-.193 1.861-.579 2.613a4.254 4.254 0 0 1-1.649 1.75c-.71.415-1.553.623-2.531.623Zm.013-2.078c.444 0 .816-.126 1.114-.377.298-.256.522-.605.673-1.045.156-.44.233-.942.233-1.505 0-.562-.077-1.063-.233-1.504-.151-.44-.375-.79-.673-1.045-.298-.256-.67-.384-1.114-.384-.449 0-.827.128-1.133.384-.303.256-.531.604-.687 1.045a4.63 4.63 0 0 0-.226 1.504c0 .563.075 1.064.226 1.505.156.44.384.789.687 1.045.306.252.684.377 1.133.377Zm10.858 2.078c-.99 0-1.842-.21-2.556-.63a4.256 4.256 0 0 1-1.636-1.762c-.378-.752-.567-1.616-.567-2.594 0-.99.191-1.859.573-2.606a4.256 4.256 0 0 1 1.643-1.756c.709-.424 1.553-.636 2.531-.636.843 0 1.582.153 2.215.46a3.708 3.708 0 0 1 1.505 1.29c.369.554.573 1.204.61 1.951h-2.53c-.071-.482-.26-.87-.567-1.164-.302-.298-.698-.447-1.189-.447-.416 0-.779.113-1.089.34-.307.222-.546.548-.718.976-.172.428-.258.946-.258 1.554 0 .617.084 1.142.252 1.574.172.432.413.762.724.988.31.227.673.34 1.089.34.306 0 .581-.063.824-.188.248-.126.451-.309.611-.548a2.1 2.1 0 0 0 .321-.875h2.53c-.042.739-.243 1.389-.604 1.951-.357.558-.85.995-1.479 1.31-.63.314-1.375.472-2.235.472Zm5.376-7.75v-2.108h8.762v2.109h-3.116v7.56h-2.555v-7.56h-3.091Zm12.043 11.187c-.339 0-.658-.028-.956-.082a3.504 3.504 0 0 1-.731-.195l.605-2.002c.315.096.598.149.85.157.256.009.476-.05.661-.176.188-.126.342-.34.459-.642l.157-.41-3.468-9.945h2.82l2.002 7.1h.101l2.02-7.1h2.839l-3.758 10.714a4.5 4.5 0 0 1-.736 1.36 3.03 3.03 0 0 1-1.165.9c-.47.214-1.036.32-1.7.32Zm8.731-3.626v-9.67h8.454v9.669h-2.562v-7.56h-3.361v7.56h-2.531Zm14.697 0v-9.67h2.682v3.752h.755l2.631-3.752h3.148l-3.418 4.797 3.456 4.872h-3.186l-2.385-3.43h-1.001v3.43h-2.682Zm24.435 0h-2.719V27.926h-1.838c-.525 0-.961.078-1.31.233a1.62 1.62 0 0 0-.774.668c-.172.293-.258.654-.258 1.082 0 .424.086.779.258 1.064.172.286.43.5.774.642.345.143.777.214 1.297.214h2.959v2.19h-3.4c-.986 0-1.829-.163-2.53-.49-.701-.328-1.236-.798-1.605-1.41-.37-.617-.554-1.354-.554-2.21 0-.852.18-1.592.541-2.222a3.666 3.666 0 0 1 1.58-1.466c.693-.349 1.526-.523 2.499-.523h5.08V38.59Zm-6.956-5.867h2.94l-3.135 5.867h-3.009l3.204-5.867Zm10.713 6.03a1.47 1.47 0 0 1-1.071-.44 1.473 1.473 0 0 1-.44-1.07c0-.412.147-.764.44-1.058a1.47 1.47 0 0 1 1.071-.44c.402 0 .755.147 1.057.44.302.294.453.646.453 1.058 0 .277-.071.53-.214.761a1.62 1.62 0 0 1-.547.548 1.445 1.445 0 0 1-.749.202Zm3.064 2.947v-5.282h.875c.298-.214.57-.516.818-.906.248-.395.459-.938.636-1.63.176-.697.302-1.608.377-2.733l.365-5.451h8.53v10.72h1.41v5.269h-2.619V38.59h-7.774v3.11h-2.618Zm4.022-5.282h4.96v-8.473h-3.456l-.201 3.204a18.536 18.536 0 0 1-.271 2.267 11.18 11.18 0 0 1-.447 1.73 6.667 6.667 0 0 1-.585 1.272Zm13.158-1.366 3.481-6.131h2.644v9.669h-2.556v-6.15l-3.469 6.15h-2.662v-9.67h2.562v6.131Zm8.274 7.164V28.92h2.644v1.624h.12a3.51 3.51 0 0 1 .51-.793c.226-.273.52-.5.881-.68.365-.185.818-.277 1.36-.277.705 0 1.355.185 1.951.554.596.365 1.072.917 1.429 1.656.357.734.535 1.655.535 2.763 0 1.078-.174 1.99-.523 2.732-.344.739-.814 1.299-1.41 1.68a3.615 3.615 0 0 1-1.989.567c-.52 0-.963-.086-1.328-.258a2.75 2.75 0 0 1-.888-.648 3.292 3.292 0 0 1-.528-.8h-.082v5.175h-2.682Zm2.625-8.46c0 .574.08 1.076.239 1.504.16.428.391.762.693 1 .302.236.669.353 1.101.353.437 0 .806-.12 1.108-.358.303-.244.531-.58.686-1.008.16-.432.24-.93.24-1.492 0-.558-.078-1.049-.233-1.473-.155-.423-.384-.755-.686-.994-.303-.24-.674-.359-1.115-.359-.436 0-.805.115-1.107.346-.298.231-.527.558-.687.982-.159.424-.239.924-.239 1.498Zm12.999 5.023c-.995 0-1.851-.202-2.568-.605a4.134 4.134 0 0 1-1.649-1.724c-.387-.747-.58-1.63-.58-2.65 0-.995.193-1.868.58-2.62a4.278 4.278 0 0 1 1.63-1.755c.705-.42 1.532-.63 2.48-.63a5.04 5.04 0 0 1 1.781.308 3.95 3.95 0 0 1 1.448.913c.416.407.739.92.97 1.536.23.613.346 1.33.346 2.153v.737h-8.165V32.78h5.641c0-.386-.084-.728-.252-1.026a1.805 1.805 0 0 0-.699-.7 1.995 1.995 0 0 0-1.026-.257c-.407 0-.768.094-1.083.283a1.99 1.99 0 0 0-.73.75c-.176.31-.266.656-.271 1.038v1.58c0 .478.089.892.265 1.24.18.348.434.617.762.806.327.188.715.283 1.164.283.298 0 .571-.042.818-.126.248-.084.46-.21.636-.378a1.64 1.64 0 0 0 .403-.617l2.48.164a3.39 3.39 0 0 1-.774 1.561c-.386.44-.886.785-1.498 1.033-.609.243-1.312.365-2.109.365Zm6.188-.19v-9.668h2.681v3.752h.756l2.631-3.752h3.147l-3.418 4.797 3.456 4.872h-3.185l-2.386-3.43h-1.001v3.43h-2.681Zm9.883-7.56v-2.108h8.762v2.109h-3.116v7.56h-2.556v-7.56h-3.09Z" fill="#070707"/><path d="M24.947 69.85v.765h-5.372v-.765h5.372Zm-5.221 0v2.51h-.931l-.005-2.51h.936Zm6.04 0-.01 2.506h-.931V69.85h.94Zm-1.74-6.332v.77h-3.111v-.77h3.11Zm.808 0v7.097h-.936v-7.097h.936Zm-4.24 0h.94l-.146 2.856a9.78 9.78 0 0 1-.122 1.19c-.062.36-.138.69-.23.99a5.324 5.324 0 0 1-.311.803 3.7 3.7 0 0 1-.375.61 2.323 2.323 0 0 1-.42.42 1.437 1.437 0 0 1-.433.228h-.43v-.765h.303c.084-.091.18-.223.287-.395.11-.172.22-.395.327-.668a5.99 5.99 0 0 0 .288-1.009c.084-.396.14-.864.17-1.404l.151-2.856Zm9.744 1.823v.746h-2.55v-.746h2.55Zm.795 0v5.274h-.902v-5.274h.902Zm-3.564 0h.907l-.137 2.544a9.44 9.44 0 0 1-.112 1.044 3.56 3.56 0 0 1-.204.77c-.085.214-.192.39-.322.526-.127.134-.28.233-.459.298a1.892 1.892 0 0 1-.619.092h-.282v-.794l.195-.015a.831.831 0 0 0 .356-.097.698.698 0 0 0 .253-.244c.068-.11.123-.252.166-.424.045-.173.08-.377.102-.615a12.4 12.4 0 0 0 .059-.828l.097-2.257Zm6.084 2.759h.975l-1.526 2.515h-.975l1.526-2.515Zm.755-2.76h2.204v5.275h-.902v-4.543h-1.302c-.256 0-.466.044-.628.132a.823.823 0 0 0-.356.331.872.872 0 0 0-.01.839c.068.13.175.237.322.321.146.085.335.127.565.127h1.653v.74H34.3c-.302 0-.57-.04-.804-.12a1.765 1.765 0 0 1-.595-.337 1.468 1.468 0 0 1-.37-.512 1.624 1.624 0 0 1-.127-.644c0-.23.044-.443.132-.638.09-.195.22-.366.39-.512a1.79 1.79 0 0 1 .628-.336c.25-.082.535-.122.853-.122Zm8.102 2.755h-.97v-.556h.897c.25 0 .449-.03.595-.092a.628.628 0 0 0 .312-.269.825.825 0 0 0-.015-.784.728.728 0 0 0-.331-.298c-.153-.078-.358-.117-.614-.117-.208 0-.397.038-.566.112a1 1 0 0 0-.404.298.659.659 0 0 0-.147.419h-.902c0-.322.091-.598.273-.829.186-.234.431-.414.737-.54a2.63 2.63 0 0 1 1.009-.19c.305 0 .578.033.819.101.243.065.45.163.619.293.169.127.297.286.385.478.09.188.136.407.136.658 0 .178-.042.347-.126.507a1.34 1.34 0 0 1-.366.424c-.16.12-.353.214-.58.283a2.611 2.611 0 0 1-.76.102Zm-.97-.341h.97c.316 0 .593.03.834.092.24.059.442.147.605.264.162.117.284.261.365.433.085.17.127.364.127.585 0 .247-.05.47-.151.668a1.39 1.39 0 0 1-.42.497c-.181.137-.4.241-.653.313a3.03 3.03 0 0 1-.833.107 2.89 2.89 0 0 1-.995-.176 1.856 1.856 0 0 1-.794-.54c-.208-.248-.312-.561-.312-.942h.901c0 .16.05.31.152.454.1.143.24.258.419.346.182.087.392.131.629.131.253 0 .464-.039.633-.117a.875.875 0 0 0 .38-.312.743.743 0 0 0 .132-.424.866.866 0 0 0-.117-.477.668.668 0 0 0-.36-.264 1.808 1.808 0 0 0-.615-.087h-.897v-.551Zm7.181 1.96v-2.716a1.1 1.1 0 0 0-.127-.541.829.829 0 0 0-.37-.36 1.343 1.343 0 0 0-.614-.127 1.44 1.44 0 0 0-.6.117c-.17.078-.302.18-.4.307a.672.672 0 0 0-.141.41h-.902c0-.19.049-.376.146-.561a1.64 1.64 0 0 1 .42-.503c.185-.152.406-.273.662-.36.26-.091.55-.137.868-.137.384 0 .722.065 1.014.195.296.13.527.327.692.59.17.26.254.587.254.98v2.457c0 .175.014.362.044.56.032.199.08.37.141.512v.078h-.94a1.684 1.684 0 0 1-.108-.414 3.355 3.355 0 0 1-.039-.488Zm.156-2.297.01.634h-.912c-.257 0-.486.021-.687.064-.202.038-.37.099-.507.18a.815.815 0 0 0-.42.731c0 .166.038.317.113.453a.815.815 0 0 0 .336.327c.153.078.34.117.56.117.277 0 .52-.058.732-.175.211-.118.379-.26.502-.43a.924.924 0 0 0 .205-.492l.385.434a1.309 1.309 0 0 1-.185.453 2.172 2.172 0 0 1-1 .854 1.937 1.937 0 0 1-.77.146 2.01 2.01 0 0 1-.94-.21 1.608 1.608 0 0 1-.625-.56 1.484 1.484 0 0 1-.22-.795c0-.283.056-.531.167-.746.11-.218.27-.398.477-.541.208-.146.459-.257.751-.332.293-.074.62-.112.98-.112h1.048Zm9.496 2.457-.088 2.306h-.804v-1.565h-.687v-.74h1.58Zm-7.307-4.533h.902v4.533h1.93v-4.533h.907v4.533h1.925v-4.533h.902v5.274h-6.566v-5.274Zm9.218 3.846 2.433-3.846h.906v5.274h-.906V66.77l-2.433 3.846h-.897v-5.274h.897v3.846Zm6.937-3.846v5.274h-.907v-5.274h.907Zm1.77 0v.73h-4.412v-.73h4.411Zm1.628 1.813h1.584c.426 0 .785.075 1.077.224.293.147.514.35.663.61.153.257.23.549.23.877 0 .244-.043.473-.127.688a1.544 1.544 0 0 1-.38.555c-.166.16-.373.285-.62.376a2.482 2.482 0 0 1-.843.131H69.96v-5.274h.902v4.533h1.34c.26 0 .469-.047.625-.141a.825.825 0 0 0 .336-.366 1.114 1.114 0 0 0 0-.936.875.875 0 0 0-.336-.38c-.156-.104-.364-.156-.624-.156h-1.584v-.74Zm5.43-1.813v5.274h-.902v-5.274h.902Zm4.958 1.014v6.288H80.1v-7.302h.829l.078 1.014Zm3.553 1.58v.102c0 .383-.045.739-.136 1.067a2.625 2.625 0 0 1-.4.848 1.81 1.81 0 0 1-.638.56c-.254.134-.545.2-.873.2-.335 0-.63-.055-.887-.165a1.75 1.75 0 0 1-.653-.483 2.464 2.464 0 0 1-.43-.76 4.4 4.4 0 0 1-.214-1v-.545c.04-.39.112-.74.22-1.049a2.61 2.61 0 0 1 .424-.79 1.74 1.74 0 0 1 .648-.501c.254-.117.546-.176.878-.176.331 0 .625.065.882.195.257.127.473.309.648.546.176.237.307.522.395.853.091.328.136.694.136 1.097Zm-.906.102v-.103c0-.263-.028-.51-.083-.74a1.873 1.873 0 0 0-.258-.615 1.231 1.231 0 0 0-.44-.42 1.249 1.249 0 0 0-.638-.155c-.227 0-.425.039-.594.117a1.287 1.287 0 0 0-.425.317c-.117.13-.212.279-.287.448a2.58 2.58 0 0 0-.161.517v1.262c.065.228.156.442.273.644.117.198.273.359.468.482.195.12.44.18.736.18.244 0 .453-.05.629-.15a1.28 1.28 0 0 0 .439-.424c.117-.18.203-.384.258-.615a3.24 3.24 0 0 0 .083-.745Zm4.246 2.676c-.368 0-.7-.062-1-.185a2.267 2.267 0 0 1-.765-.532 2.365 2.365 0 0 1-.487-.81 2.969 2.969 0 0 1-.171-1.023v-.204c0-.43.063-.811.19-1.146.127-.338.3-.624.517-.858a2.22 2.22 0 0 1 .74-.531c.277-.12.563-.18.859-.18.377 0 .702.064.975.194.276.13.502.312.677.546.176.23.306.504.39.82.085.311.127.652.127 1.023v.404h-3.939v-.736h3.037v-.068a2.25 2.25 0 0 0-.146-.682 1.227 1.227 0 0 0-.39-.546c-.179-.143-.422-.215-.731-.215a1.227 1.227 0 0 0-1.01.512 1.912 1.912 0 0 0-.287.62 3.137 3.137 0 0 0-.102.843v.204c0 .25.034.486.102.707.072.218.174.41.307.575.137.166.3.296.493.39.195.095.415.142.662.142.319 0 .589-.065.81-.195.22-.13.414-.304.58-.522l.546.434a2.523 2.523 0 0 1-.434.492 2.072 2.072 0 0 1-.648.38 2.51 2.51 0 0 1-.902.147Zm4.085-5.372v5.274h-.902v-5.274h.902Zm3.461 0-2.5 3.022h-1.263l-.137-.79h1.034l1.77-2.232h1.096Zm-.97 5.274-1.94-2.388.58-.654 2.505 3.042h-1.145Zm5.455-5.274v.746h-2.55v-.746h2.55Zm.794 0v5.274h-.901v-5.274h.901Zm-3.563 0h.907l-.137 2.544c-.023.394-.06.741-.112 1.044a3.56 3.56 0 0 1-.205.77 1.58 1.58 0 0 1-.322.526 1.164 1.164 0 0 1-.458.298 1.892 1.892 0 0 1-.619.092h-.282v-.794l.195-.015a.83.83 0 0 0 .355-.097.697.697 0 0 0 .254-.244c.068-.11.123-.252.165-.424.046-.173.08-.377.103-.615a12.4 12.4 0 0 0 .058-.828l.098-2.257Zm8.126 4.372v-2.715c0-.208-.042-.388-.127-.541a.826.826 0 0 0-.37-.36 1.342 1.342 0 0 0-.614-.127 1.44 1.44 0 0 0-.6.117c-.169.078-.302.18-.4.307a.674.674 0 0 0-.141.41h-.902c0-.19.049-.376.146-.561a1.65 1.65 0 0 1 .42-.503 2.09 2.09 0 0 1 .663-.36 2.61 2.61 0 0 1 .867-.137c.384 0 .722.065 1.014.195.296.13.527.327.693.59.169.26.253.587.253.98v2.457c0 .175.015.362.044.56.032.199.08.37.141.512v.078h-.941a1.709 1.709 0 0 1-.107-.414 3.342 3.342 0 0 1-.039-.488Zm.156-2.296.01.634h-.912c-.256 0-.485.021-.687.064-.201.038-.37.099-.507.18a.866.866 0 0 0-.312.307.82.82 0 0 0-.107.424c0 .166.037.317.112.453a.819.819 0 0 0 .336.327c.153.078.34.117.561.117a1.52 1.52 0 0 0 1.233-.605.924.924 0 0 0 .205-.492l.385.434a1.308 1.308 0 0 1-.185.453 2.177 2.177 0 0 1-1 .854 1.935 1.935 0 0 1-.77.146 2.02 2.02 0 0 1-.941-.21 1.615 1.615 0 0 1-.624-.56 1.486 1.486 0 0 1-.219-.795 1.6 1.6 0 0 1 .166-.746c.11-.218.27-.398.478-.541.208-.146.458-.257.75-.332a3.96 3.96 0 0 1 .98-.112h1.048Zm5.197 1.999 1.794-4.075h.867l-2.349 5.274h-.624l-2.34-5.274h.868l1.784 4.075Zm-2.048-4.075v5.274h-.902v-5.274h.902Zm4.066 5.274v-5.274h.907v5.274h-.907Zm5.937-2.988v.731h-2.788v-.731h2.788Zm-2.598-2.286v5.274h-.902v-5.274h.902Zm3.33 0v5.274h-.907v-5.274h.907Zm2.193 1.813h1.585c.425 0 .784.075 1.077.224.292.147.513.35.663.61.153.257.229.549.229.877 0 .244-.042.473-.127.688a1.537 1.537 0 0 1-.38.555c-.166.16-.372.285-.619.376a2.484 2.484 0 0 1-.843.131h-2.243v-5.274h.902v4.533h1.341c.26 0 .468-.047.624-.141a.823.823 0 0 0 .336-.366 1.118 1.118 0 0 0 0-.936.873.873 0 0 0-.336-.38c-.156-.104-.364-.156-.624-.156h-1.585v-.74Zm5.431-1.813v5.274h-.902v-5.274h.902Zm2.189 0 1.155 1.92 1.17-1.92h1.058l-1.726 2.603 1.779 2.671h-1.043l-1.219-1.979-1.218 1.98h-1.048l1.774-2.672-1.721-2.603h1.039Zm7.799 0v5.274h-.901v-5.274h.901Zm3.461 0-2.5 3.022h-1.263l-.136-.79h1.033l1.77-2.232h1.096Zm-.97 5.274-1.94-2.388.58-.654 2.506 3.042h-1.146Zm5.041-.902v-2.715c0-.208-.042-.388-.127-.541a.83.83 0 0 0-.37-.36 1.346 1.346 0 0 0-.615-.127c-.227 0-.427.038-.599.117-.169.078-.302.18-.4.307a.674.674 0 0 0-.141.41h-.902c0-.19.049-.376.146-.561.098-.186.237-.353.419-.503a2.11 2.11 0 0 1 .663-.36c.26-.091.55-.137.868-.137.384 0 .722.065 1.014.195.296.13.527.327.692.59.169.26.254.587.254.98v2.457c0 .175.014.362.044.56.032.199.079.37.141.512v.078h-.941a1.709 1.709 0 0 1-.107-.414 3.342 3.342 0 0 1-.039-.488Zm.156-2.296.01.634h-.912c-.257 0-.486.021-.687.064a1.546 1.546 0 0 0-.507.18.81.81 0 0 0-.419.731c0 .166.037.317.112.453a.813.813 0 0 0 .336.327c.153.078.34.117.561.117.276 0 .52-.058.731-.175a1.53 1.53 0 0 0 .502-.43.924.924 0 0 0 .205-.492l.385.434a1.328 1.328 0 0 1-.185.453 2.177 2.177 0 0 1-1 .854 1.935 1.935 0 0 1-.77.146c-.358 0-.671-.07-.941-.21a1.615 1.615 0 0 1-.624-.56 1.486 1.486 0 0 1-.219-.795 1.6 1.6 0 0 1 .166-.746c.11-.218.269-.398.477-.541.208-.146.459-.257.751-.332.292-.074.619-.112.98-.112h1.048Zm5.196 1.999 1.794-4.075h.868l-2.35 5.274h-.624l-2.339-5.274h.867l1.784 4.075Zm-2.047-4.075v5.274h-.902v-5.274h.902Zm4.066 5.274v-5.274h.906v5.274h-.906Zm5.874-5.274v.746h-2.667v-.746h2.667Zm-2.535 0v5.274h-.902v-5.274h.902Zm3.334 0v5.274h-.906v-5.274h.906Zm4.558 4.372v-2.715c0-.208-.042-.388-.127-.541a.826.826 0 0 0-.37-.36 1.345 1.345 0 0 0-.614-.127 1.44 1.44 0 0 0-.6.117c-.169.078-.302.18-.4.307a.674.674 0 0 0-.141.41h-.902c0-.19.049-.376.146-.561a1.65 1.65 0 0 1 .42-.503 2.09 2.09 0 0 1 .663-.36 2.61 2.61 0 0 1 .867-.137c.384 0 .722.065 1.014.195.296.13.527.327.693.59.169.26.253.587.253.98v2.457c0 .175.015.362.044.56.032.199.08.37.141.512v.078h-.941a1.709 1.709 0 0 1-.107-.414 3.342 3.342 0 0 1-.039-.488Zm.156-2.296.01.634h-.912a3.31 3.31 0 0 0-.687.064c-.201.038-.37.099-.507.18a.866.866 0 0 0-.312.307.82.82 0 0 0-.107.424c0 .166.037.317.112.453a.819.819 0 0 0 .336.327c.153.078.34.117.561.117a1.52 1.52 0 0 0 1.233-.605.924.924 0 0 0 .205-.492l.385.434a1.308 1.308 0 0 1-.185.453 2.177 2.177 0 0 1-1 .854 1.935 1.935 0 0 1-.77.146 2.02 2.02 0 0 1-.941-.21 1.615 1.615 0 0 1-.624-.56 1.486 1.486 0 0 1-.219-.795 1.6 1.6 0 0 1 .166-.746c.11-.218.27-.398.478-.541.208-.146.458-.257.75-.332a3.96 3.96 0 0 1 .98-.112h1.048Zm5.743.21v.731h-2.789v-.731h2.789Zm-2.599-2.286v5.274h-.901v-5.274h.901Zm3.33 0v5.274h-.907v-5.274h.907Zm2.428 3.846 2.432-3.846h.907v5.274h-.907V66.77l-2.432 3.846h-.897v-5.274h.897v3.846Zm5.762 0 2.432-3.846h.907v5.274h-.907V66.77l-2.432 3.846h-.897v-5.274h.897v3.846Zm1.94-5.757h.731c0 .253-.059.48-.175.677a1.207 1.207 0 0 1-.503.459 1.69 1.69 0 0 1-.775.165c-.451 0-.809-.12-1.072-.36-.26-.244-.39-.558-.39-.941h.731c0 .191.055.36.166.507.11.146.299.22.565.22.26 0 .446-.074.556-.22a.815.815 0 0 0 .166-.507Zm8.901 4.197v.731h-2.788v-.731h2.788Zm-2.598-2.286v5.274h-.902v-5.274h.902Zm3.329 0v5.274h-.906v-5.274h.906Zm4.563 4.372v-2.715c0-.208-.042-.388-.127-.541a.826.826 0 0 0-.37-.36 1.342 1.342 0 0 0-.614-.127 1.44 1.44 0 0 0-.6.117c-.169.078-.302.18-.4.307a.674.674 0 0 0-.141.41h-.902c0-.19.049-.376.146-.561a1.65 1.65 0 0 1 .42-.503 2.09 2.09 0 0 1 .663-.36 2.61 2.61 0 0 1 .867-.137c.384 0 .722.065 1.014.195.296.13.527.327.693.59.169.26.253.587.253.98v2.457c0 .175.015.362.044.56.032.199.08.37.141.512v.078h-.941a1.709 1.709 0 0 1-.107-.414 3.342 3.342 0 0 1-.039-.488Zm.156-2.296.01.634h-.912c-.256 0-.485.021-.687.064-.201.038-.37.099-.507.18a.866.866 0 0 0-.312.307.82.82 0 0 0-.107.424c0 .166.037.317.112.453a.819.819 0 0 0 .336.327c.153.078.34.117.561.117a1.52 1.52 0 0 0 1.233-.605.924.924 0 0 0 .205-.492l.385.434a1.308 1.308 0 0 1-.185.453 2.177 2.177 0 0 1-.999.854 1.943 1.943 0 0 1-.771.146 2.02 2.02 0 0 1-.941-.21 1.615 1.615 0 0 1-.624-.56 1.486 1.486 0 0 1-.219-.795 1.6 1.6 0 0 1 .166-.746c.11-.218.27-.398.478-.541.208-.146.458-.257.75-.332a3.96 3.96 0 0 1 .98-.112h1.048Zm5.197 1.999 1.794-4.075h.867l-2.349 5.274h-.624l-2.34-5.274h.868l1.784 4.075Zm-2.048-4.075v5.274h-.902v-5.274h.902Zm4.066 5.274v-5.274h.907v5.274h-.907Zm8.414-2.988v.731h-2.789v-.731h2.789Zm-2.598-2.286v5.274h-.902v-5.274h.902Zm3.329 0v5.274h-.907v-5.274h.907Zm3.642 5.372c-.368 0-.701-.062-1-.185a2.258 2.258 0 0 1-.765-.532 2.372 2.372 0 0 1-.488-.81 2.986 2.986 0 0 1-.17-1.023v-.204c0-.43.063-.811.19-1.146.127-.338.299-.624.517-.858.217-.234.464-.411.741-.531.276-.12.562-.18.858-.18.377 0 .702.064.975.194.276.13.502.312.677.546.176.23.306.504.39.82.085.311.127.652.127 1.023v.404H212.3v-.736h3.037v-.068a2.264 2.264 0 0 0-.146-.682 1.223 1.223 0 0 0-.39-.546c-.179-.143-.423-.215-.731-.215a1.228 1.228 0 0 0-1.01.512 1.92 1.92 0 0 0-.287.62 3.147 3.147 0 0 0-.103.843v.204c0 .25.035.486.103.707.071.218.174.41.307.575.136.166.301.296.492.39.195.095.416.142.663.142.319 0 .589-.065.81-.195.221-.13.414-.304.58-.522l.546.434a2.55 2.55 0 0 1-.434.492 2.079 2.079 0 0 1-.649.38 2.506 2.506 0 0 1-.901.147Zm2.866-2.676v-.113c0-.38.055-.733.166-1.058a2.51 2.51 0 0 1 .477-.853c.208-.243.46-.432.756-.565.296-.137.627-.205.994-.205.371 0 .704.068 1 .205.299.133.552.322.76.565.212.24.372.525.483.853.11.326.166.678.166 1.058v.112c0 .38-.056.733-.166 1.058a2.52 2.52 0 0 1-.483.853c-.208.24-.46.43-.755.566a2.38 2.38 0 0 1-.995.2c-.37 0-.703-.067-.999-.2a2.268 2.268 0 0 1-.761-.566 2.567 2.567 0 0 1-.477-.853 3.253 3.253 0 0 1-.166-1.057Zm.902-.113v.112c0 .264.031.512.092.746.062.231.155.436.278.615.127.178.285.32.473.424.189.1.408.15.658.15.247 0 .463-.05.649-.15a1.37 1.37 0 0 0 .468-.424 1.97 1.97 0 0 0 .277-.615 2.77 2.77 0 0 0 .098-.745v-.113c0-.26-.033-.505-.098-.736a1.896 1.896 0 0 0-.282-.619 1.353 1.353 0 0 0-.468-.429 1.316 1.316 0 0 0-.654-.156 1.33 1.33 0 0 0-.653.156 1.408 1.408 0 0 0-.468.43 1.976 1.976 0 0 0-.278.618 2.87 2.87 0 0 0-.092.736Zm8.414-4.88h.741c0 .32-.049.573-.147.761a1.07 1.07 0 0 1-.399.43 2.01 2.01 0 0 1-.566.228c-.208.052-.424.103-.648.151-.28.059-.54.151-.78.278a1.82 1.82 0 0 0-.614.527c-.169.227-.294.523-.376.887-.078.364-.099.814-.063 1.35v.449h-.741v-.449c0-.601.057-1.126.171-1.574.117-.449.281-.827.492-1.136a2.55 2.55 0 0 1 .751-.736c.292-.182.614-.307.965-.376.253-.048.471-.1.653-.156a.983.983 0 0 0 .414-.234.538.538 0 0 0 .147-.4Zm-1.068 2.599c.345 0 .652.06.921.18.27.12.499.288.688.502.188.215.331.468.429.76.101.29.151.605.151.947v.107c0 .367-.054.708-.161 1.023a2.36 2.36 0 0 1-.463.82c-.202.23-.449.41-.741.54a2.39 2.39 0 0 1-.99.196c-.37 0-.702-.065-.994-.195a2.168 2.168 0 0 1-.741-.541 2.419 2.419 0 0 1-.468-.82 3.249 3.249 0 0 1-.156-1.023v-.107c0-.082.015-.161.044-.24.029-.077.065-.157.107-.238.046-.081.086-.168.122-.258.12-.293.284-.564.492-.815a2.49 2.49 0 0 1 .756-.604c.296-.156.63-.234 1.004-.234Zm-.175.736c-.332 0-.605.076-.819.23a1.376 1.376 0 0 0-.473.609 2.1 2.1 0 0 0-.156.814v.107c0 .247.029.48.088.702.058.22.146.417.263.59.12.169.271.302.453.4.185.097.403.146.653.146.251 0 .467-.05.649-.147.182-.097.331-.23.448-.4.117-.172.205-.368.263-.59.059-.22.088-.454.088-.701v-.107c0-.221-.029-.431-.088-.63a1.529 1.529 0 0 0-.268-.526 1.217 1.217 0 0 0-.453-.36 1.434 1.434 0 0 0-.648-.137Zm3.919-1.038 1.155 1.92 1.17-1.92h1.058l-1.726 2.603 1.78 2.671h-1.044l-1.218-1.979-1.219 1.98h-1.048l1.774-2.672-1.72-2.603h1.038Zm4.007 2.696v-.113c0-.38.055-.733.166-1.058.11-.328.27-.612.478-.853.208-.243.459-.432.755-.565.296-.137.627-.205.995-.205.37 0 .703.068.999.205.299.133.552.322.76.565.212.24.373.525.483.853.11.326.166.678.166 1.058v.112c0 .38-.056.733-.166 1.058-.11.325-.271.61-.483.853-.208.24-.459.43-.755.566a2.38 2.38 0 0 1-.995.2c-.37 0-.703-.067-.999-.2a2.254 2.254 0 0 1-.76-.566 2.569 2.569 0 0 1-.478-.853 3.253 3.253 0 0 1-.166-1.057Zm.902-.113v.112c0 .264.031.512.093.746.061.231.154.436.277.615.127.178.285.32.473.424.189.1.408.15.658.15.247 0 .463-.05.649-.15a1.37 1.37 0 0 0 .468-.424 1.98 1.98 0 0 0 .278-.615 2.77 2.77 0 0 0 .097-.745v-.113c0-.26-.032-.505-.097-.736a1.897 1.897 0 0 0-.283-.619 1.353 1.353 0 0 0-.468-.429 1.312 1.312 0 0 0-.653-.156c-.247 0-.465.052-.654.156a1.408 1.408 0 0 0-.468.43 1.952 1.952 0 0 0-.277.618 2.827 2.827 0 0 0-.093.736Zm5.63-2.583h.902l-.078 1.974c-.019.5-.076.933-.17 1.297a3.854 3.854 0 0 1-.361.93 2.788 2.788 0 0 1-.493.64 3.22 3.22 0 0 1-.555.433h-.449l.025-.736.185-.005c.107-.126.211-.256.312-.39a2.71 2.71 0 0 0 .278-.482 3.34 3.34 0 0 0 .209-.688c.059-.273.096-.606.112-.999l.083-1.974Zm.225 0h3.173v5.274h-.902v-4.44h-2.271v-.834Zm-1.634 4.533h5.485v2.296h-.902v-1.555h-3.681v1.555h-.906l.004-2.296Zm7.459-.687 2.432-3.846h.907v5.274h-.907V66.77l-2.432 3.846h-.897v-5.274h.897v3.846Zm7.819.229 1.794-4.075h.868l-2.35 5.274h-.624l-2.34-5.274h.868l1.784 4.075Zm-2.047-4.075v5.274h-.902v-5.274h.902Zm4.065 5.274v-5.274h.907v5.274h-.907Zm2.121-2.578v-.113c0-.38.055-.733.166-1.058a2.51 2.51 0 0 1 .477-.853c.208-.243.46-.432.756-.565.296-.137.627-.205.994-.205.371 0 .704.068 1 .205.299.133.552.322.76.565.211.24.372.525.483.853.11.326.166.678.166 1.058v.112c0 .38-.056.733-.166 1.058-.111.325-.272.61-.483.853-.208.24-.46.43-.755.566a2.38 2.38 0 0 1-.995.2c-.37 0-.703-.067-.999-.2a2.268 2.268 0 0 1-.761-.566 2.567 2.567 0 0 1-.477-.853 3.253 3.253 0 0 1-.166-1.057Zm.902-.113v.112c0 .264.031.512.092.746.062.231.155.436.278.615.127.178.285.32.473.424.189.1.408.15.658.15.247 0 .463-.05.648-.15a1.36 1.36 0 0 0 .468-.424 1.95 1.95 0 0 0 .278-.615 2.77 2.77 0 0 0 .098-.745v-.113c0-.26-.033-.505-.098-.736a1.896 1.896 0 0 0-.282-.619 1.353 1.353 0 0 0-.468-.429 1.316 1.316 0 0 0-.654-.156 1.33 1.33 0 0 0-.653.156 1.408 1.408 0 0 0-.468.43 1.976 1.976 0 0 0-.278.618 2.87 2.87 0 0 0-.092.736Zm11.022-2.583v.746h-2.667v-.746h2.667Zm-2.535 0v5.274h-.902v-5.274h.902Zm3.334 0v5.274h-.907v-5.274h.907Zm1.209 2.696v-.113c0-.38.055-.733.166-1.058.11-.328.27-.612.478-.853.208-.243.459-.432.755-.565.296-.137.627-.205.995-.205.37 0 .703.068.999.205.299.133.552.322.76.565.212.24.372.525.483.853.11.326.166.678.166 1.058v.112c0 .38-.056.733-.166 1.058a2.52 2.52 0 0 1-.483.853c-.208.24-.459.43-.755.566a2.38 2.38 0 0 1-.995.2c-.37 0-.703-.067-.999-.2a2.254 2.254 0 0 1-.76-.566 2.569 2.569 0 0 1-.478-.853 3.253 3.253 0 0 1-.166-1.057Zm.902-.113v.112c0 .264.031.512.093.746.061.231.154.436.277.615.127.178.285.32.473.424.189.1.408.15.658.15.247 0 .463-.05.649-.15a1.37 1.37 0 0 0 .468-.424 1.98 1.98 0 0 0 .278-.615 2.77 2.77 0 0 0 .097-.745v-.113c0-.26-.032-.505-.097-.736a1.897 1.897 0 0 0-.283-.619 1.353 1.353 0 0 0-.468-.429 1.312 1.312 0 0 0-.653-.156c-.247 0-.465.052-.654.156a1.408 1.408 0 0 0-.468.43 1.952 1.952 0 0 0-.277.618 2.827 2.827 0 0 0-.093.736Zm8.477-2.583v.746h-2.549v-.746h2.549Zm.795 0v5.274h-.902v-5.274h.902Zm-3.564 0h.907l-.136 2.544a9.473 9.473 0 0 1-.113 1.044 3.563 3.563 0 0 1-.204.77c-.085.214-.192.39-.322.526-.127.134-.28.233-.458.298a1.893 1.893 0 0 1-.619.092h-.283v-.794l.195-.015a.832.832 0 0 0 .356-.097.7.7 0 0 0 .253-.244 1.48 1.48 0 0 0 .166-.424c.045-.173.08-.377.102-.615.026-.237.046-.513.059-.828l.097-2.257Zm6.498 4.728 1.468-4.728h.965l-2.116 6.088c-.048.13-.113.27-.195.42a1.99 1.99 0 0 1-.302.433 1.437 1.437 0 0 1-.448.332 1.353 1.353 0 0 1-.62.132 2.728 2.728 0 0 1-.507-.078l-.004-.732c.026.004.066.007.121.01a1.451 1.451 0 0 0 .644-.073.792.792 0 0 0 .361-.268c.1-.124.187-.294.258-.512l.375-1.024Zm-1.077-4.728 1.37 4.095.234.95-.648.332-1.941-5.377h.985Zm8.302 0v5.274h-.902v-5.274h.902Zm-.307 2.422v.741c-.182.069-.367.13-.556.186a5.082 5.082 0 0 1-.59.126c-.205.03-.427.044-.668.044-.416 0-.776-.071-1.082-.214a1.579 1.579 0 0 1-.707-.658c-.165-.296-.248-.668-.248-1.117v-1.54h.902v1.54c0 .293.043.53.131.712a.864.864 0 0 0 .385.405c.169.084.376.127.619.127.234 0 .454-.015.658-.044a5.31 5.31 0 0 0 .595-.127 6.33 6.33 0 0 0 .561-.18Zm2.735 1.424 2.432-3.846h.907v5.274h-.907V66.77l-2.432 3.846h-.897v-5.274h.897v3.846Zm6.936-3.846v5.274h-.906v-5.274h.906Zm1.77 0v.73h-4.412v-.73h4.412Zm1.628 1.813h1.584c.426 0 .785.075 1.078.224.292.147.513.35.663.61.152.257.229.549.229.877 0 .244-.042.473-.127.688a1.537 1.537 0 0 1-.38.555c-.166.16-.372.285-.619.376a2.486 2.486 0 0 1-.844.131h-2.242v-5.274h.902v4.533h1.34c.26 0 .468-.047.624-.141a.826.826 0 0 0 .337-.366 1.118 1.118 0 0 0 0-.936.876.876 0 0 0-.337-.38c-.156-.104-.364-.156-.624-.156h-1.584v-.74Zm8.107-1.813h.902l-.078 1.974c-.02.5-.077.933-.171 1.297a3.773 3.773 0 0 1-.361.93c-.146.254-.31.467-.492.64a3.225 3.225 0 0 1-.556.433h-.448l.024-.736.185-.005c.108-.126.212-.256.312-.39a2.65 2.65 0 0 0 .278-.482c.085-.189.155-.418.21-.688a6.08 6.08 0 0 0 .112-.999l.083-1.974Zm.224 0h3.174v5.274h-.902v-4.44h-2.272v-.834Zm-1.633 4.533h5.484v2.296h-.902v-1.555h-3.68v1.555h-.907l.005-2.296Zm6.245-1.837v-.113c0-.38.055-.733.165-1.058a2.53 2.53 0 0 1 .478-.853c.208-.243.46-.432.756-.565.296-.137.627-.205.994-.205.371 0 .704.068 1 .205.299.133.552.322.76.565.211.24.372.525.483.853.11.326.165.678.165 1.058v.112c0 .38-.055.733-.165 1.058-.111.325-.272.61-.483.853a2.21 2.21 0 0 1-.756.566c-.292.133-.624.2-.994.2s-.704-.067-.999-.2a2.258 2.258 0 0 1-.761-.566 2.587 2.587 0 0 1-.478-.853 3.28 3.28 0 0 1-.165-1.057Zm.902-.113v.112c0 .264.03.512.092.746.062.231.155.436.278.615.127.178.284.32.473.424.188.1.408.15.658.15.247 0 .463-.05.648-.15a1.36 1.36 0 0 0 .468-.424c.124-.18.216-.384.278-.615a2.77 2.77 0 0 0 .098-.745v-.113c0-.26-.033-.505-.098-.736a1.897 1.897 0 0 0-.283-.619 1.31 1.31 0 0 0-1.121-.585 1.33 1.33 0 0 0-.653.156 1.408 1.408 0 0 0-.468.43 1.976 1.976 0 0 0-.278.618 2.827 2.827 0 0 0-.092.736Zm7.141 2.048c.215 0 .413-.044.595-.132.182-.088.331-.208.448-.36.117-.157.184-.334.2-.532h.858a1.606 1.606 0 0 1-.317.873 2.155 2.155 0 0 1-.755.648 2.194 2.194 0 0 1-1.029.244c-.396 0-.742-.07-1.038-.21a2.053 2.053 0 0 1-.731-.575 2.556 2.556 0 0 1-.434-.839 3.512 3.512 0 0 1-.142-1.009v-.204c0-.355.047-.69.142-1.005.097-.318.242-.6.434-.843.195-.244.438-.435.731-.575.296-.14.642-.21 1.038-.21.413 0 .774.085 1.082.254.309.165.551.393.727.682.178.286.276.611.292.975h-.858a1.299 1.299 0 0 0-.185-.59 1.155 1.155 0 0 0-.429-.419 1.2 1.2 0 0 0-.629-.16 1.36 1.36 0 0 0-.697.165 1.229 1.229 0 0 0-.444.439 2.063 2.063 0 0 0-.234.609 3.388 3.388 0 0 0-.068.678v.204c0 .231.023.459.068.683.046.224.122.427.23.61.11.181.258.327.443.438.189.107.423.16.702.16Zm5.265-4.631v5.274h-.907v-5.274h.907Zm1.769 0v.73h-4.411v-.73h4.411Zm2.428 4.728 1.467-4.728h.966l-2.116 6.088c-.049.13-.114.27-.195.42a2.024 2.024 0 0 1-.302.433 1.441 1.441 0 0 1-.449.332 1.346 1.346 0 0 1-.619.132 2.728 2.728 0 0 1-.507-.078l-.005-.732c.026.004.067.007.122.01a1.451 1.451 0 0 0 .644-.073.784.784 0 0 0 .36-.268c.101-.124.187-.294.259-.512l.375-1.024Zm-1.077-4.728 1.37 4.095.234.95-.649.332-1.94-5.377h.985Zm7.839 0v.746h-2.667v-.746h2.667Zm-2.535 0v5.274h-.902v-5.274h.902Zm3.334 0v5.274h-.907v-5.274h.907Zm-322.42 13v5.274h-.902v-5.274h.902Zm3.461 0-2.5 3.022h-1.263l-.136-.79h1.033l1.77-2.232h1.096Zm-.97 5.274-1.94-2.388.58-.654 2.506 3.042h-1.146Zm7.171-6.469-2.35 6.47h-.96l2.706-7.099h.619l-.015.63Zm1.97 6.47-2.355-6.47-.015-.629h.62l2.715 7.098h-.965Zm-.122-2.628v.77H27.73v-.77h3.988Zm4.655-.156h-1.896v-.766h1.896c.367 0 .665-.058.892-.175.228-.117.393-.28.497-.488a1.52 1.52 0 0 0 .161-.711c0-.244-.053-.473-.16-.688a1.189 1.189 0 0 0-.498-.516c-.227-.134-.525-.2-.892-.2h-1.677v6.327h-.94v-7.097h2.617c.536 0 .99.092 1.36.277.37.186.652.442.844.77.191.326.287.698.287 1.117 0 .455-.096.843-.287 1.165a1.839 1.839 0 0 1-.844.736c-.37.166-.824.249-1.36.249Zm4.69-4.314v7.097h-.941v-7.097h.94Zm6.527 4.777h-1.73l-.01-.722h1.413c.28 0 .512-.027.698-.082a.858.858 0 0 0 .424-.25.61.61 0 0 0 .141-.409.644.644 0 0 0-.322-.57 1.177 1.177 0 0 0-.4-.141 2.73 2.73 0 0 0-.55-.05h-1.156v4.544h-.901v-5.274h2.057c.334 0 .635.029.902.087.27.059.498.148.687.269.192.117.338.266.439.448.1.182.15.397.15.644a1.083 1.083 0 0 1-.384.833 1.56 1.56 0 0 1-.468.273 2.413 2.413 0 0 1-.639.132l-.351.268Zm0 2.32h-2.057l.448-.731h1.609c.25 0 .458-.03.624-.093a.783.783 0 0 0 .37-.273.727.727 0 0 0 .127-.429.705.705 0 0 0-.127-.424.743.743 0 0 0-.37-.273 1.723 1.723 0 0 0-.624-.097h-1.37l.01-.722h1.711l.327.273c.289.023.534.095.736.215.201.12.354.273.458.458.104.182.156.38.156.595 0 .247-.047.465-.142.653a1.244 1.244 0 0 1-.4.473 1.952 1.952 0 0 1-.638.283c-.25.061-.533.092-.848.092Zm6.347-.902v-2.715a1.1 1.1 0 0 0-.127-.541.83.83 0 0 0-.37-.36 1.343 1.343 0 0 0-.614-.127 1.44 1.44 0 0 0-.6.117c-.17.078-.302.18-.4.307a.673.673 0 0 0-.141.41h-.902c0-.19.049-.376.146-.561a1.64 1.64 0 0 1 .42-.503c.185-.152.406-.273.662-.36.26-.091.55-.137.868-.137.384 0 .722.065 1.014.195.296.13.527.327.692.59.17.26.254.587.254.98v2.457c0 .175.014.362.044.56.032.199.08.37.141.512v.078h-.94a1.685 1.685 0 0 1-.108-.414 3.342 3.342 0 0 1-.039-.488Zm.156-2.296.01.634h-.912c-.257 0-.486.021-.687.064-.202.038-.37.099-.507.18a.815.815 0 0 0-.42.731c0 .166.038.317.113.453a.816.816 0 0 0 .336.327c.153.078.34.117.56.117.277 0 .52-.058.732-.175.211-.118.379-.26.502-.43a.923.923 0 0 0 .205-.492l.385.434a1.31 1.31 0 0 1-.185.453 2.166 2.166 0 0 1-1 .854 1.938 1.938 0 0 1-.77.146 2.01 2.01 0 0 1-.94-.21 1.608 1.608 0 0 1-.625-.56 1.484 1.484 0 0 1-.22-.795c0-.283.056-.531.167-.746.11-.218.27-.398.477-.541.208-.146.459-.257.751-.332.293-.074.62-.112.98-.112h1.048Zm2.242-2.076h.902v4.533h1.93v-4.533h.907v4.533H62v-4.533h.902v5.274h-6.567v-5.274Zm10.194 5.372c-.368 0-.7-.062-1-.185a2.266 2.266 0 0 1-.765-.532 2.363 2.363 0 0 1-.487-.81 2.967 2.967 0 0 1-.171-1.023v-.204c0-.43.063-.811.19-1.146.127-.338.299-.624.517-.858a2.2 2.2 0 0 1 .74-.531c.277-.12.563-.18.859-.18.377 0 .702.064.975.194.276.13.502.312.677.546.176.23.306.504.39.82.085.311.127.652.127 1.023v.404h-3.939v-.736h3.037v-.068a2.25 2.25 0 0 0-.146-.682 1.226 1.226 0 0 0-.39-.546c-.179-.143-.423-.215-.731-.215a1.227 1.227 0 0 0-1.01.512 1.912 1.912 0 0 0-.287.62 3.14 3.14 0 0 0-.102.843v.204c0 .25.034.486.102.707.071.218.174.41.307.575.136.166.3.296.492.39.195.095.416.142.663.142.319 0 .589-.065.81-.195.22-.13.414-.304.58-.522l.546.434a2.527 2.527 0 0 1-.434.492 2.073 2.073 0 0 1-.648.38 2.51 2.51 0 0 1-.902.147Zm6.512-5.372v.746h-2.437v4.528h-.902v-5.274h3.34Zm.449 2.696v-.113c0-.38.055-.733.166-1.058.11-.328.27-.612.477-.853.208-.243.46-.432.756-.565.296-.137.627-.205.994-.205.37 0 .704.068 1 .205.299.133.552.322.76.565.211.24.372.525.483.853.11.326.165.678.165 1.058v.112c0 .38-.055.733-.165 1.058a2.52 2.52 0 0 1-.483.853c-.208.24-.46.43-.755.566a2.38 2.38 0 0 1-.995.2c-.37 0-.704-.067-1-.2a2.262 2.262 0 0 1-.76-.566 2.577 2.577 0 0 1-.477-.853 3.266 3.266 0 0 1-.166-1.057Zm.902-.113v.112c0 .264.03.512.092.746.062.231.155.436.278.615.127.178.284.32.473.424.189.1.408.15.658.15.247 0 .463-.05.648-.15a1.36 1.36 0 0 0 .469-.424 1.97 1.97 0 0 0 .277-.615 2.77 2.77 0 0 0 .098-.745v-.113c0-.26-.033-.505-.098-.736a1.897 1.897 0 0 0-.282-.619 1.344 1.344 0 0 0-.468-.429 1.313 1.313 0 0 0-.654-.156 1.33 1.33 0 0 0-.653.156 1.403 1.403 0 0 0-.468.43 1.96 1.96 0 0 0-.278.618 2.84 2.84 0 0 0-.092.736Zm11.582-.073H83.98l-.463-.19c-.513-.162-.908-.411-1.184-.746-.276-.338-.415-.757-.415-1.257 0-.459.101-.847.303-1.165.204-.319.494-.561.867-.727.377-.166.823-.249 1.336-.249h2.272v7.098h-.941v-6.327h-1.331c-.52 0-.912.123-1.175.37-.26.247-.39.58-.39 1 0 .272.057.516.17.73.118.215.29.384.518.508.227.123.51.185.848.185h1.584l-.005.77Zm-1.599-.487-1.725 3.251h-1l1.775-3.251h.95Zm3.895 2.773c0-.152.047-.28.142-.385.097-.107.237-.16.419-.16s.32.053.414.16a.542.542 0 0 1 .146.386.533.533 0 0 1-.146.38c-.094.104-.232.156-.414.156-.182 0-.322-.052-.42-.156a.546.546 0 0 1-.14-.38Zm8.336-.287v.765h-5.372v-.765h5.372Zm-5.22 0v2.51h-.932l-.005-2.51h.936Zm6.04 0-.01 2.506h-.932V82.85h.941Zm-1.741-6.332v.77h-3.11v-.77h3.11Zm.81 0v7.097h-.937v-7.097h.936Zm-4.242 0h.94l-.145 2.856a9.78 9.78 0 0 1-.122 1.19c-.062.36-.138.69-.23.99a5.324 5.324 0 0 1-.311.803 3.694 3.694 0 0 1-.376.61 2.32 2.32 0 0 1-.419.42 1.437 1.437 0 0 1-.434.228h-.429v-.765h.302a2.7 2.7 0 0 0 .288-.395c.11-.172.22-.395.327-.668a5.98 5.98 0 0 0 .287-1.009 9.22 9.22 0 0 0 .17-1.404l.152-2.856Zm7.117 5.669 2.433-3.846h.906v5.274h-.906V79.77l-2.433 3.846h-.897v-5.274h.897v3.846Zm5.689-2.832v6.288h-.907v-7.302h.829l.078 1.014Zm3.554 1.58v.102c0 .383-.046.739-.137 1.067a2.634 2.634 0 0 1-.399.848c-.173.24-.385.428-.639.56-.253.134-.544.2-.873.2a2.23 2.23 0 0 1-.887-.165 1.75 1.75 0 0 1-.653-.483 2.456 2.456 0 0 1-.429-.76 4.4 4.4 0 0 1-.214-1v-.545a4.6 4.6 0 0 1 .219-1.049c.107-.308.248-.572.424-.79.179-.22.395-.388.648-.501.254-.117.546-.176.878-.176.331 0 .625.065.882.195.257.127.473.309.648.546.176.237.308.522.395.853.091.328.137.694.137 1.097Zm-.907.102v-.103c0-.263-.027-.51-.083-.74a1.866 1.866 0 0 0-.258-.615 1.231 1.231 0 0 0-.439-.42 1.246 1.246 0 0 0-.638-.155c-.228 0-.426.039-.595.117a1.283 1.283 0 0 0-.424.317c-.117.13-.213.279-.288.448a2.626 2.626 0 0 0-.161.517v1.262c.065.228.156.442.273.644.117.198.273.359.468.482.195.12.441.18.736.18.244 0 .454-.05.629-.15a1.28 1.28 0 0 0 .439-.424c.117-.18.203-.384.258-.615.056-.234.083-.482.083-.745Zm4.246 2.676c-.367 0-.7-.062-.999-.185a2.271 2.271 0 0 1-.766-.532 2.37 2.37 0 0 1-.487-.81 2.962 2.962 0 0 1-.171-1.023v-.204c0-.43.064-.811.19-1.146.127-.338.299-.624.517-.858.218-.234.465-.411.741-.531.276-.12.562-.18.858-.18.377 0 .702.064.975.194.276.13.502.312.678.546.175.23.305.504.39.82.084.311.126.652.126 1.023v.404h-3.938v-.736h3.037v-.068a2.236 2.236 0 0 0-.147-.682 1.223 1.223 0 0 0-.39-.546c-.178-.143-.422-.215-.731-.215a1.223 1.223 0 0 0-1.009.512 1.942 1.942 0 0 0-.288.62 3.15 3.15 0 0 0-.102.843v.204c0 .25.034.486.102.707.072.218.174.41.307.575.137.166.301.296.493.39.195.095.416.142.663.142.318 0 .588-.065.809-.195.221-.13.414-.304.58-.522l.546.434a2.518 2.518 0 0 1-.434.492 2.062 2.062 0 0 1-.648.38 2.512 2.512 0 0 1-.902.147Zm4.085-5.372v5.274h-.902v-5.274h.902Zm3.461 0-2.5 3.022h-1.263l-.137-.79h1.034l1.769-2.232h1.097Zm-.97 5.274-1.94-2.388.58-.654 2.506 3.042h-1.146Zm4.08-5.274v5.274h-.906v-5.274h.906Zm1.77 0v.73h-4.412v-.73h4.412Zm.902 4.797c0-.153.047-.282.141-.386.098-.107.237-.16.419-.16s.321.053.415.16a.544.544 0 0 1 .146.386.538.538 0 0 1-.146.38c-.094.104-.233.156-.415.156-.182 0-.321-.052-.419-.156a.547.547 0 0 1-.141-.38Z" fill="#333"/><g filter="url(#a)"><rect x="18.541" y="101.59" width="344" height="28.549" rx="3.566" fill="#EFB503"/><path d="M149.704 116.361h-1.847v-.97h1.847c.322 0 .582-.052.78-.156a.969.969 0 0 0 .434-.429c.094-.186.142-.397.142-.634 0-.224-.048-.434-.142-.629a1.08 1.08 0 0 0-.434-.478c-.198-.12-.458-.18-.78-.18h-1.472v6.123h-1.223v-7.098h2.695c.55 0 1.016.098 1.399.293.387.191.681.458.883.799.201.338.302.725.302 1.16 0 .458-.101.852-.302 1.18-.202.328-.496.58-.883.756-.383.175-.849.263-1.399.263Zm6.479 1.589v-2.515c0-.189-.034-.351-.102-.488a.729.729 0 0 0-.312-.317 1.067 1.067 0 0 0-.517-.112c-.192 0-.358.033-.497.098a.799.799 0 0 0-.327.263.632.632 0 0 0-.117.375h-1.17c0-.208.05-.409.151-.604a1.62 1.62 0 0 1 .439-.522c.192-.153.421-.273.687-.361.267-.087.566-.131.897-.131.397 0 .748.066 1.053.2a1.6 1.6 0 0 1 .727.604c.178.267.268.601.268 1.004v2.345c0 .241.016.457.048.648.036.189.087.353.152.493v.078h-1.205a2.078 2.078 0 0 1-.131-.483 3.974 3.974 0 0 1-.044-.575Zm.171-2.15.009.727h-.843c-.218 0-.409.021-.575.063a1.187 1.187 0 0 0-.415.175.767.767 0 0 0-.331.658c0 .14.032.269.097.386.065.113.16.203.283.268.127.065.28.097.458.097.241 0 .451-.049.629-.146.182-.101.325-.223.429-.366a.799.799 0 0 0 .166-.414l.38.522a1.766 1.766 0 0 1-.2.429 2.057 2.057 0 0 1-.37.438c-.15.137-.33.249-.541.337a1.86 1.86 0 0 1-.722.131 2.02 2.02 0 0 1-.921-.204 1.642 1.642 0 0 1-.634-.561 1.45 1.45 0 0 1-.229-.804c0-.28.052-.527.156-.741.107-.218.263-.4.468-.546.208-.147.462-.257.761-.332.299-.078.64-.117 1.023-.117h.922Zm4.421.688h-1.014v-.595h.819c.208 0 .374-.028.497-.083a.527.527 0 0 0 .268-.229.712.712 0 0 0 .083-.351.69.69 0 0 0-.083-.332.598.598 0 0 0-.268-.263c-.126-.068-.299-.102-.516-.102-.179 0-.34.029-.483.087a.814.814 0 0 0-.332.244.57.57 0 0 0-.121.361h-1.175c0-.328.092-.611.278-.848.188-.237.44-.419.755-.546.315-.127.662-.19 1.039-.19.321 0 .611.034.867.102.257.065.475.163.654.293.181.126.32.285.414.477.097.189.146.408.146.658 0 .179-.042.348-.127.507-.084.16-.206.301-.365.424a1.804 1.804 0 0 1-.58.283 2.603 2.603 0 0 1-.756.103Zm-1.014-.342h1.014c.312 0 .588.031.829.093.24.058.442.146.604.263.163.117.285.262.366.434.084.169.127.364.127.585 0 .247-.054.47-.161.668a1.416 1.416 0 0 1-.449.497 2.097 2.097 0 0 1-.687.312 3.384 3.384 0 0 1-.882.107c-.351 0-.693-.058-1.024-.175a1.926 1.926 0 0 1-.814-.541c-.211-.247-.317-.561-.317-.941h1.175c0 .133.04.258.122.375a.892.892 0 0 0 .351.288c.152.071.336.107.55.107.221 0 .402-.034.542-.102a.76.76 0 0 0 .312-.278.728.728 0 0 0 .102-.371.785.785 0 0 0-.102-.424.59.59 0 0 0-.312-.234 1.53 1.53 0 0 0-.527-.078h-.819v-.585Zm5.119-1.399v6.289h-1.175v-7.303h1.082l.093 1.014Zm3.436 1.575v.102c0 .384-.045.74-.136 1.068a2.605 2.605 0 0 1-.395.853c-.172.24-.385.427-.639.56-.253.134-.546.2-.877.2-.328 0-.616-.06-.863-.18a1.764 1.764 0 0 1-.619-.522 2.827 2.827 0 0 1-.409-.789 5.05 5.05 0 0 1-.215-1.005v-.394c.042-.387.114-.738.215-1.053.104-.316.24-.587.409-.815.169-.227.375-.402.619-.526a1.87 1.87 0 0 1 .853-.185c.332 0 .626.065.883.195.256.127.472.309.648.546.175.234.307.516.395.848.088.328.131.694.131 1.097Zm-1.174.102v-.102c0-.244-.023-.47-.069-.678a1.78 1.78 0 0 0-.214-.556 1.057 1.057 0 0 0-.376-.37 1.018 1.018 0 0 0-.541-.137c-.208 0-.386.036-.536.108a1.034 1.034 0 0 0-.375.287 1.352 1.352 0 0 0-.234.434c-.055.163-.094.34-.117.532v.945c.039.234.105.449.2.644.094.195.227.351.399.468.176.113.4.17.673.17.211 0 .392-.045.541-.136.15-.091.272-.216.366-.376.097-.162.169-.349.214-.56.046-.211.069-.436.069-.673Zm4.499 2.681c-.39 0-.743-.063-1.058-.19a2.33 2.33 0 0 1-.799-.541 2.397 2.397 0 0 1-.502-.814 2.85 2.85 0 0 1-.176-1.009v-.195c0-.413.06-.787.18-1.121.121-.335.288-.621.503-.858.214-.241.468-.424.76-.551.293-.127.609-.19.951-.19.377 0 .706.063.989.19.283.127.517.305.702.536.189.228.328.499.419.814.095.315.142.663.142 1.043v.503h-4.076v-.844h2.916v-.092a1.657 1.657 0 0 0-.127-.595 1.016 1.016 0 0 0-.346-.449c-.156-.113-.364-.17-.624-.17-.195 0-.369.042-.522.126-.149.082-.274.2-.375.356a1.864 1.864 0 0 0-.234.566 3.178 3.178 0 0 0-.078.736v.195c0 .231.031.445.092.643.065.195.16.366.283.512.124.146.273.262.449.346.175.082.375.122.599.122.283 0 .535-.057.756-.17a1.73 1.73 0 0 0 .575-.483l.619.6a2.21 2.21 0 0 1-1.111.843c-.26.094-.563.141-.907.141Zm3.066-5.372h1.175v4.339h1.672v-4.339h1.185v4.339h1.667v-4.339h1.175v5.275h-6.874v-5.275Zm9.355 3.559 2.072-3.559h1.175v5.275h-1.175v-3.564l-2.072 3.564h-1.175v-5.275h1.175v3.559Zm6.937-3.559v5.275h-1.18v-5.275h1.18Zm1.73 0v.926h-4.611v-.926h4.611Zm1.658 1.677h1.555c.455 0 .842.077 1.16.229.319.153.561.366.726.639.169.27.254.578.254.926 0 .257-.047.496-.141.717a1.598 1.598 0 0 1-.42.57 1.927 1.927 0 0 1-.672.38 2.776 2.776 0 0 1-.907.137h-2.335v-5.275h1.18v4.344h1.155c.234 0 .421-.041.561-.122a.73.73 0 0 0 .302-.317.952.952 0 0 0 0-.838.746.746 0 0 0-.302-.327c-.14-.085-.327-.127-.561-.127h-1.555v-.936Zm8.077-1.677h1.175l-.058 1.858c-.017.539-.078 1.002-.186 1.389a3.519 3.519 0 0 1-.419.98 2.63 2.63 0 0 1-.585.648c-.214.169-.44.302-.677.4h-.346v-.926l.165-.01c.14-.15.26-.299.361-.449.104-.152.192-.32.263-.502.072-.185.127-.401.166-.648.042-.247.07-.541.083-.882l.058-1.858Zm.312 0h3.345v5.275h-1.17v-4.28h-2.175v-.995Zm-1.677 4.339h5.743v2.506h-1.175v-1.57h-3.378v1.57h-1.194l.004-2.506Zm6.357-1.643v-.112c0-.38.055-.733.166-1.058.11-.328.27-.613.478-.853.211-.244.468-.432.77-.565.305-.137.65-.205 1.033-.205.387 0 .732.068 1.034.205.305.133.564.321.775.565.211.24.372.525.483.853.11.325.165.678.165 1.058v.112c0 .38-.055.733-.165 1.058a2.547 2.547 0 0 1-.483.853c-.211.24-.468.429-.77.565-.303.134-.645.2-1.029.2-.387 0-.733-.066-1.038-.2a2.234 2.234 0 0 1-.77-.565 2.513 2.513 0 0 1-.483-.853 3.255 3.255 0 0 1-.166-1.058Zm1.175-.112v.112c0 .237.024.462.073.673.049.211.125.396.229.555.104.16.238.285.4.376.163.091.356.136.58.136.218 0 .406-.045.566-.136a1.13 1.13 0 0 0 .399-.376 1.69 1.69 0 0 0 .229-.555c.052-.211.078-.436.078-.673v-.112c0-.234-.026-.455-.078-.663a1.68 1.68 0 0 0-.234-.561 1.107 1.107 0 0 0-.97-.521 1.13 1.13 0 0 0-.575.141 1.138 1.138 0 0 0-.395.38c-.104.163-.18.35-.229.561a2.885 2.885 0 0 0-.073.663Zm6.869 1.852c.191 0 .364-.037.516-.112a.983.983 0 0 0 .376-.322.882.882 0 0 0 .161-.472h1.106a1.645 1.645 0 0 1-.302.931 2.102 2.102 0 0 1-.775.668 2.342 2.342 0 0 1-1.068.243c-.403 0-.754-.068-1.053-.204a2.091 2.091 0 0 1-.746-.576 2.536 2.536 0 0 1-.448-.843 3.463 3.463 0 0 1-.146-1.024v-.17c0-.364.048-.706.146-1.024.101-.322.25-.605.448-.848.199-.244.447-.434.746-.571a2.465 2.465 0 0 1 1.048-.209c.423 0 .793.084 1.112.253.318.166.569.398.751.697.185.296.281.641.287 1.034h-1.106a1.181 1.181 0 0 0-.147-.527.96.96 0 0 0-.36-.38 1.033 1.033 0 0 0-.551-.141c-.237 0-.434.048-.59.146a.983.983 0 0 0-.366.39 1.916 1.916 0 0 0-.19.551 3.567 3.567 0 0 0-.053.629v.17c0 .218.017.429.053.634.036.205.098.388.185.551.091.159.215.287.371.385.156.094.354.141.595.141Zm5.508-4.436v5.275h-1.18v-5.275h1.18Zm1.731 0v.926h-4.612v-.926h4.612Zm2.374 4.7 1.433-4.7h1.258l-2.116 6.079c-.049.13-.112.272-.19.424a1.9 1.9 0 0 1-.307.434c-.124.14-.278.252-.463.336-.186.088-.41.132-.673.132a1.57 1.57 0 0 1-.302-.029 4.086 4.086 0 0 1-.268-.054l-.005-.897a2.084 2.084 0 0 0 .234.015c.195 0 .357-.024.487-.073a.678.678 0 0 0 .317-.224c.085-.104.156-.244.215-.42l.38-1.023Zm-.809-4.7 1.252 3.949.21 1.238-.814.21-1.916-5.397h1.268Zm7.711 0v.936h-2.603v-.936h2.603Zm-2.325 0v5.275h-1.175v-5.275h1.175Zm3.247 0v5.275h-1.18v-5.275h1.18Z" fill="#fff"/></g><defs><filter id="a" x="7.844" y="93.746" width="365.393" height="49.942" filterUnits="userSpaceOnUse" color-interpolation-filters="sRGB"><feFlood flood-opacity="0" result="BackgroundImageFix"/><feColorMatrix in="SourceAlpha" values="0 0 0 0 0 0 0 0 0 0 0 0 0 0 0 0 0 0 127 0" result="hardAlpha"/><feOffset dy="2.852"/><feGaussianBlur stdDeviation="5.348"/><feComposite in2="hardAlpha" operator="out"/><feColorMatrix values="0 0 0 0 0.937255 0 0 0 0 0.709804 0 0 0 0 0.0117647 0 0 0 0.3 0"/><feBlend in2="BackgroundImageFix" result="effect1_dropShadow_3_1590"/><feBlend in="SourceGraphic" in2="effect1_dropShadow_3_1590" result="shape"/></filter></defs></svg>