<svg width="380" height="148" fill="none" xmlns="http://www.w3.org/2000/svg"><rect width="380" height="148" rx="12.408" fill="#fff"/><rect width="380" height="148" rx="12.408" fill="#fff"/><rect x="60" y="50.5" width="261" height="48" rx="7.5" fill="#fff"/><path d="M83.32 64v18h-2.168V64h2.168Zm-.515 11.18-.903-.036a7.63 7.63 0 0 1 .387-2.402 5.994 5.994 0 0 1 1.055-1.933 4.697 4.697 0 0 1 1.617-1.266 4.772 4.772 0 0 1 2.098-.457 5.17 5.17 0 0 1 1.687.258c.5.164.926.43 1.277.797.36.367.633.843.82 1.43.188.577.282 1.285.282 2.12V82h-2.18v-8.332c0-.664-.097-1.195-.293-1.594a1.802 1.802 0 0 0-.855-.879c-.375-.187-.836-.28-1.383-.28-.539 0-1.031.112-1.477.339a3.541 3.541 0 0 0-1.136.937 4.717 4.717 0 0 0-.739 1.371 5.01 5.01 0 0 0-.257 1.618Zm16.875-5.86v1.664h-6.856V69.32h6.856Zm-4.536-3.082h2.168V78.86c0 .43.067.754.2.973a.952.952 0 0 0 .515.434c.211.07.438.105.68.105.18 0 .367-.015.563-.047.203-.039.355-.07.457-.093L99.738 82a5.058 5.058 0 0 1-.68.152 5.167 5.167 0 0 1-.996.082c-.53 0-1.019-.105-1.464-.316-.446-.211-.801-.563-1.067-1.055-.258-.5-.387-1.172-.387-2.015v-12.61Zm12.387 3.082v1.664h-6.855V69.32h6.855Zm-4.535-3.082h2.168V78.86c0 .43.066.754.199.973a.953.953 0 0 0 .516.434c.211.07.437.105.68.105.179 0 .367-.015.562-.047.203-.039.356-.07.457-.093L107.59 82a5.074 5.074 0 0 1-.68.152 5.16 5.16 0 0 1-.996.082 3.382 3.382 0 0 1-1.465-.316c-.445-.211-.801-.563-1.066-1.055-.258-.5-.387-1.172-.387-2.015v-12.61Zm9.246 5.52v15.117h-2.18V69.32h1.993l.187 2.438Zm8.543 3.797v.246c0 .922-.109 1.777-.328 2.566-.219.781-.539 1.461-.961 2.04a4.373 4.373 0 0 1-1.535 1.347c-.609.32-1.309.48-2.098.48-.804 0-1.515-.132-2.133-.398a4.21 4.21 0 0 1-1.57-1.16c-.43-.508-.773-1.117-1.031-1.828a10.595 10.595 0 0 1-.516-2.403v-1.312c.094-.938.27-1.777.528-2.52.257-.742.597-1.375 1.019-1.898.43-.531.949-.934 1.559-1.207.609-.281 1.312-.422 2.109-.422.797 0 1.504.156 2.121.469a4.272 4.272 0 0 1 1.559 1.312c.422.57.738 1.254.949 2.051.219.789.328 1.668.328 2.637Zm-2.18.246v-.246a7.63 7.63 0 0 0-.199-1.782 4.51 4.51 0 0 0-.621-1.476 2.952 2.952 0 0 0-1.055-1.008c-.429-.25-.941-.375-1.535-.375-.547 0-1.023.094-1.429.281a3.085 3.085 0 0 0-1.02.762 4.03 4.03 0 0 0-.691 1.078 6.19 6.19 0 0 0-.387 1.242v3.035c.156.547.375 1.063.656 1.547.281.477.656.864 1.125 1.16.469.29 1.059.434 1.77.434.586 0 1.09-.121 1.511-.363.43-.25.782-.59 1.055-1.02.281-.43.488-.922.621-1.476.133-.563.199-1.16.199-1.793Zm12.329 2.836c0-.313-.071-.602-.211-.868-.133-.273-.411-.519-.832-.738-.414-.226-1.039-.422-1.875-.586a14.857 14.857 0 0 1-1.911-.527 5.793 5.793 0 0 1-1.441-.738 3.093 3.093 0 0 1-.902-1.02c-.211-.39-.317-.847-.317-1.37 0-.5.11-.974.328-1.419.227-.445.543-.84.95-1.183.414-.344.91-.614 1.488-.81a6.018 6.018 0 0 1 1.934-.292c1.015 0 1.882.18 2.601.539.719.36 1.27.84 1.652 1.441.383.594.575 1.254.575 1.98h-2.168a1.86 1.86 0 0 0-.317-1.019c-.203-.336-.504-.613-.902-.832-.391-.218-.871-.328-1.441-.328-.602 0-1.09.094-1.465.281-.368.18-.637.41-.809.692a1.742 1.742 0 0 0-.246.89c0 .235.039.446.117.633.086.18.235.348.446.504.21.149.507.29.89.422.383.133.871.266 1.465.398 1.039.235 1.895.516 2.566.844.672.328 1.172.73 1.5 1.207.329.477.493 1.055.493 1.735 0 .554-.118 1.062-.352 1.523-.227.461-.559.86-.996 1.195a4.95 4.95 0 0 1-1.547.774c-.594.18-1.262.27-2.004.27-1.117 0-2.062-.2-2.836-.598-.773-.399-1.359-.914-1.758-1.547a3.704 3.704 0 0 1-.597-2.004h2.179c.032.594.204 1.066.516 1.418.313.344.695.59 1.148.738.454.14.903.211 1.348.211.594 0 1.09-.078 1.488-.234.407-.156.715-.371.926-.645.211-.273.317-.586.317-.937Zm4.921 2.215c0-.368.114-.676.34-.926.235-.258.571-.387 1.008-.387.438 0 .77.129.996.387a1.3 1.3 0 0 1 .352.926c0 .359-.117.664-.352.914-.226.25-.558.375-.996.375-.437 0-.773-.125-1.008-.375a1.315 1.315 0 0 1-.34-.914Zm.012-10.348c0-.367.113-.676.34-.926.234-.258.57-.387 1.008-.387.437 0 .769.13.996.387.234.25.351.559.351.926 0 .36-.117.664-.351.914-.227.25-.559.375-.996.375-.438 0-.774-.125-1.008-.375a1.31 1.31 0 0 1-.34-.914Zm13.442-5.567-7.114 18.528h-1.863l7.125-18.528h1.852Zm7.289 0-7.114 18.528h-1.863l7.125-18.528h1.852Zm10.359 14.602V64h2.18v18h-1.992l-.188-2.46Zm-8.531-3.738v-.246c0-.97.117-1.848.351-2.637.243-.797.582-1.48 1.02-2.05a4.613 4.613 0 0 1 1.582-1.313c.617-.313 1.305-.47 2.062-.47.797 0 1.493.142 2.086.423a4.01 4.01 0 0 1 1.524 1.207c.422.523.754 1.156.996 1.898.242.743.41 1.582.504 2.52v1.078c-.086.93-.254 1.766-.504 2.508-.242.742-.574 1.375-.996 1.898a4.167 4.167 0 0 1-1.524 1.207c-.601.274-1.304.41-2.109.41a4.36 4.36 0 0 1-2.039-.48 4.812 4.812 0 0 1-1.582-1.348c-.438-.578-.777-1.258-1.02-2.039a8.991 8.991 0 0 1-.351-2.566Zm2.179-.246v.246c0 .633.063 1.226.188 1.781.133.555.336 1.043.609 1.465a3.03 3.03 0 0 0 1.043.996c.422.234.926.351 1.512.351.719 0 1.309-.152 1.77-.457a3.421 3.421 0 0 0 1.125-1.206c.281-.5.5-1.043.656-1.63v-2.824a6.319 6.319 0 0 0-.41-1.242 3.834 3.834 0 0 0-.68-1.078 2.93 2.93 0 0 0-1.02-.762c-.398-.187-.871-.28-1.418-.28-.593 0-1.105.124-1.535.374a2.993 2.993 0 0 0-1.043 1.008 4.674 4.674 0 0 0-.609 1.476 8.09 8.09 0 0 0-.188 1.782Zm11.333.246v-.27c0-.914.132-1.762.398-2.543a6.047 6.047 0 0 1 1.148-2.05 5.126 5.126 0 0 1 1.817-1.36c.711-.328 1.508-.492 2.39-.492.891 0 1.692.164 2.403.492.718.32 1.328.774 1.828 1.36a5.94 5.94 0 0 1 1.16 2.05c.266.781.398 1.63.398 2.543v.27c0 .914-.132 1.761-.398 2.543a6.087 6.087 0 0 1-1.16 2.05 5.316 5.316 0 0 1-1.817 1.36c-.703.32-1.5.48-2.39.48-.891 0-1.692-.16-2.403-.48a5.445 5.445 0 0 1-1.828-1.36 6.2 6.2 0 0 1-1.148-2.05 7.843 7.843 0 0 1-.398-2.543Zm2.167-.27v.27c0 .633.075 1.23.223 1.793a4.73 4.73 0 0 0 .668 1.476c.305.43.684.77 1.137 1.02.453.242.98.363 1.582.363.594 0 1.113-.121 1.558-.363.454-.25.829-.59 1.125-1.02.297-.43.52-.922.668-1.476.157-.563.235-1.16.235-1.793v-.27a6.47 6.47 0 0 0-.235-1.77 4.56 4.56 0 0 0-.679-1.488 3.232 3.232 0 0 0-1.125-1.03c-.446-.25-.969-.376-1.571-.376-.593 0-1.117.125-1.57.375-.445.25-.82.594-1.125 1.031-.297.43-.519.926-.668 1.489a6.839 6.839 0 0 0-.223 1.77Zm14.25-3.691V82h-2.179V69.32h2.062l.117 2.52Zm-.445 3.34-1.008-.036a8.658 8.658 0 0 1 .34-2.402 5.7 5.7 0 0 1 .973-1.933 4.32 4.32 0 0 1 1.605-1.266c.641-.305 1.383-.457 2.227-.457.594 0 1.141.086 1.641.258.5.164.933.425 1.3.785.367.36.653.82.856 1.383.203.562.304 1.242.304 2.039V82h-2.168v-8.344c0-.664-.113-1.195-.339-1.594a1.946 1.946 0 0 0-.938-.867c-.406-.187-.883-.28-1.43-.28-.64 0-1.175.112-1.605.339-.43.227-.773.539-1.031.937a4.215 4.215 0 0 0-.563 1.371 7.693 7.693 0 0 0-.164 1.618Zm8.215-1.196-1.453.446a6.381 6.381 0 0 1 .34-2.004c.226-.64.55-1.211.972-1.711.43-.5.957-.895 1.582-1.184.625-.297 1.34-.445 2.145-.445.68 0 1.281.09 1.805.27.531.18.976.457 1.336.832.367.367.644.84.832 1.418.187.578.281 1.265.281 2.062V82h-2.18v-8.356c0-.71-.113-1.261-.34-1.652a1.768 1.768 0 0 0-.937-.832c-.399-.164-.875-.246-1.43-.246a3.08 3.08 0 0 0-1.266.246c-.367.164-.675.39-.925.68a2.97 2.97 0 0 0-.575.972 3.639 3.639 0 0 0-.187 1.172Zm18.598 5.848v-6.527c0-.5-.102-.934-.305-1.301a1.99 1.99 0 0 0-.891-.867c-.398-.203-.89-.305-1.476-.305-.547 0-1.028.094-1.442.281a2.517 2.517 0 0 0-.961.739 1.62 1.62 0 0 0-.339.984h-2.168c0-.453.117-.902.351-1.348.235-.445.57-.847 1.008-1.207a5.039 5.039 0 0 1 1.594-.867c.625-.219 1.32-.328 2.086-.328.922 0 1.734.156 2.437.469a3.649 3.649 0 0 1 1.664 1.418c.407.625.61 1.41.61 2.355v5.906c0 .422.035.872.105 1.348.078.477.192.887.34 1.23V82h-2.262c-.109-.25-.195-.582-.258-.996a8.097 8.097 0 0 1-.093-1.172Zm.375-5.52.023 1.524h-2.191c-.618 0-1.168.05-1.653.152-.484.094-.89.239-1.218.434a2.047 2.047 0 0 0-.75.738 1.956 1.956 0 0 0-.258 1.02c0 .398.09.761.269 1.09.18.328.45.59.809.785.367.187.816.28 1.348.28.664 0 1.25-.14 1.757-.42.508-.282.911-.626 1.207-1.032.305-.406.469-.801.493-1.184l.925 1.043c-.054.328-.203.692-.445 1.09a5.187 5.187 0 0 1-.973 1.149c-.398.359-.875.66-1.429.902-.547.234-1.164.351-1.852.351-.859 0-1.613-.168-2.262-.503-.64-.337-1.14-.786-1.5-1.348a3.572 3.572 0 0 1-.527-1.91c0-.68.133-1.278.399-1.793a3.455 3.455 0 0 1 1.148-1.301c.5-.352 1.102-.617 1.805-.797.703-.18 1.488-.27 2.355-.27h2.52Zm7.558-4.992V82h-2.179V69.32h2.179Zm-2.344-3.363c0-.351.106-.648.317-.89.219-.243.539-.364.961-.364.414 0 .73.121.949.363.227.243.34.54.34.891 0 .336-.113.625-.34.867-.219.235-.535.352-.949.352-.422 0-.742-.117-.961-.352a1.277 1.277 0 0 1-.317-.867Zm7.993 6.07V82h-2.168V69.32h2.051l.117 2.707Zm-.516 3.153-.902-.036a7.632 7.632 0 0 1 .386-2.402 5.999 5.999 0 0 1 1.055-1.933 4.696 4.696 0 0 1 1.617-1.266 4.773 4.773 0 0 1 2.098-.457c.625 0 1.187.086 1.687.258.5.164.926.43 1.278.797.359.367.633.843.82 1.43.188.577.281 1.285.281 2.12V82h-2.179v-8.332c0-.664-.098-1.195-.293-1.594a1.806 1.806 0 0 0-.856-.879c-.375-.187-.836-.28-1.383-.28a3.2 3.2 0 0 0-1.476.339 3.534 3.534 0 0 0-1.137.937 4.735 4.735 0 0 0-.738 1.371 5.007 5.007 0 0 0-.258 1.618Zm22.91 1.078v1.781h-12.328v-1.277l7.641-11.825h1.769l-1.898 3.422-5.051 7.899h9.867Zm-2.379-11.32V82h-2.168V64.937h2.168Zm4.618 15.914c0-.368.113-.676.339-.926.235-.258.571-.387 1.008-.387.438 0 .77.129.996.387a1.3 1.3 0 0 1 .352.926c0 .359-.117.664-.352.914-.226.25-.558.375-.996.375-.437 0-.773-.125-1.008-.375a1.314 1.314 0 0 1-.339-.914Zm8.46-9.54V82h-2.168V69.32h2.11l.058 1.993Zm3.961-2.062-.011 2.016a3.147 3.147 0 0 0-.516-.07 5.486 5.486 0 0 0-.539-.024c-.5 0-.941.078-1.324.234a2.747 2.747 0 0 0-.973.656 3.165 3.165 0 0 0-.633 1.008 4.866 4.866 0 0 0-.293 1.266l-.609.352c0-.766.074-1.485.223-2.157a5.869 5.869 0 0 1 .714-1.781c.321-.523.727-.93 1.219-1.219.5-.297 1.094-.445 1.781-.445.157 0 .336.02.54.058.203.032.343.067.421.106Zm9.762 9.82v-9.75h2.18V82h-2.074l-.106-2.93Zm.41-2.672.903-.023c0 .844-.09 1.625-.27 2.344-.172.71-.453 1.328-.844 1.851a3.97 3.97 0 0 1-1.535 1.23c-.633.29-1.402.434-2.308.434-.618 0-1.184-.09-1.7-.27a3.397 3.397 0 0 1-1.312-.831c-.367-.375-.653-.864-.856-1.465-.195-.602-.293-1.324-.293-2.168v-8.18h2.168v8.203c0 .57.063 1.043.188 1.418.133.368.308.66.527.88.227.21.477.359.75.445.281.086.571.128.867.128.922 0 1.653-.175 2.192-.527.539-.36.926-.84 1.16-1.441.242-.61.363-1.285.363-2.028Z" fill="#333"/><path d="M293.771 72.794c-.181.196-.271.445-.271.748s.09.552.271.748l4.538 4.916a.861.861 0 0 0 .321.227c.115.044.238.066.37.067a.955.955 0 0 0 .691-.294l4.538-4.916c.181-.196.271-.445.271-.748s-.09-.552-.271-.748a.9.9 0 0 0-.691-.294.897.897 0 0 0-.69.294L299 76.962l-3.848-4.168a.897.897 0 0 0-.69-.294.9.9 0 0 0-.691.294Z" fill="#CCC"/><rect x="60" y="50.5" width="261" height="48" rx="7.5" stroke="#E7E7E7"/></svg>