<svg width="404" height="148" fill="none" xmlns="http://www.w3.org/2000/svg"><rect width="380" height="148" rx="12.408" fill="#fff"/><rect width="380" height="148" rx="12.408" fill="#fff"/><rect x="16.32" y="16.32" width="348.36" height="115.36" rx="6.08" fill="#fff"/><path d="m27.567 41.67 2.827-4.581h1.098v6.37h-1.098v-4.585l-2.826 4.585h-1.094v-6.37h1.093v4.58Zm7.097-.473h-.91v-.534h.735c.187 0 .336-.024.446-.074a.473.473 0 0 0 .241-.206.646.646 0 0 0 .074-.315.626.626 0 0 0-.074-.297.539.539 0 0 0-.24-.236.983.983 0 0 0-.464-.092c-.16 0-.305.026-.434.078a.72.72 0 0 0-.297.22.511.511 0 0 0-.11.323h-1.054a1.2 1.2 0 0 1 .25-.761c.169-.213.395-.377.678-.49a2.47 2.47 0 0 1 .932-.171c.288 0 .548.03.778.092.23.058.426.146.587.262.163.114.287.257.371.43.088.168.132.365.132.59 0 .16-.038.312-.114.455-.076.143-.185.27-.328.38a1.635 1.635 0 0 1-.52.254 2.324 2.324 0 0 1-.679.092Zm-.91-.306h.91c.28 0 .528.028.744.083.216.052.396.131.542.236a.991.991 0 0 1 .328.39c.076.151.114.326.114.525a1.24 1.24 0 0 1-.547 1.045 1.904 1.904 0 0 1-.617.28 3.056 3.056 0 0 1-.791.096 2.74 2.74 0 0 1-.92-.157 1.724 1.724 0 0 1-.73-.486c-.19-.221-.284-.503-.284-.844h1.054c0 .12.037.232.11.337a.801.801 0 0 0 .314.258c.138.064.302.096.495.096.198 0 .36-.03.486-.092a.672.672 0 0 0 .28-.25.65.65 0 0 0 .092-.332.7.7 0 0 0-.092-.38.521.521 0 0 0-.28-.21 1.368 1.368 0 0 0-.473-.07h-.735v-.525Zm6.348 1.29 1.41-3.456h.914l-1.965 4.734h-.717l-1.96-4.734h.914l1.404 3.456Zm-1.675-3.456v4.734h-1.055v-4.734h1.055Zm3.351 4.734v-4.734h1.059v4.734h-1.059Zm4.327.087c-.35 0-.666-.056-.95-.17a2.096 2.096 0 0 1-.717-.486 2.153 2.153 0 0 1-.45-.73 2.56 2.56 0 0 1-.158-.906v-.175c0-.37.054-.706.162-1.006.108-.3.258-.557.45-.77.193-.216.42-.381.683-.495a2.12 2.12 0 0 1 .853-.17c.339 0 .635.056.888.17.254.114.464.274.63.481.17.205.295.448.377.731.084.283.127.595.127.936v.451h-3.658v-.757h2.616v-.083a1.48 1.48 0 0 0-.113-.534.908.908 0 0 0-.311-.402c-.14-.102-.327-.153-.56-.153a.95.95 0 0 0-.468.113.926.926 0 0 0-.337.32c-.09.14-.16.309-.21.507-.047.196-.07.416-.07.66v.176c0 .207.028.4.083.577.058.175.143.329.254.46.11.131.245.235.402.31.158.073.337.11.538.11.254 0 .48-.051.679-.153.198-.102.37-.247.516-.433l.556.538a1.994 1.994 0 0 1-.998.757 2.383 2.383 0 0 1-.814.127Zm5.95-2.843v.83h-2.45v-.83h2.45Zm-2.143-1.978v4.734h-1.055v-4.734h1.055Zm2.905 0v4.734h-1.055v-4.734h1.055Zm3.211 4.822c-.35 0-.666-.057-.95-.171a2.096 2.096 0 0 1-.717-.486 2.153 2.153 0 0 1-.45-.73 2.56 2.56 0 0 1-.158-.906v-.175c0-.37.054-.706.162-1.006.108-.3.258-.557.45-.77.193-.216.42-.381.683-.495.262-.114.547-.17.853-.17.338 0 .635.056.888.17.254.114.464.274.63.481a2 2 0 0 1 .377.731c.084.283.127.595.127.936v.451h-3.658v-.757h2.616v-.083a1.48 1.48 0 0 0-.114-.534.908.908 0 0 0-.31-.402c-.14-.102-.327-.153-.56-.153a.951.951 0 0 0-.468.113.926.926 0 0 0-.337.32c-.09.14-.16.309-.21.507a2.85 2.85 0 0 0-.07.66v.176c0 .207.028.4.083.577.058.175.143.329.254.46.11.131.245.235.402.31.158.073.337.11.538.11.254 0 .48-.051.678-.153.199-.102.37-.247.517-.433l.555.538a1.994 1.994 0 0 1-.998.757 2.384 2.384 0 0 1-.813.127Zm5.95-2.844v.83h-2.45v-.83h2.45Zm-2.144-1.978v4.734H58.78v-4.734h1.054Zm2.906 0v4.734h-1.055v-4.734h1.055Zm2.213 3.194 1.86-3.194h1.054v4.734h-1.054v-3.198l-1.86 3.198H63.9v-4.734h1.054v3.194Zm6.117 1.628c-.35 0-.667-.057-.95-.171a2.096 2.096 0 0 1-.717-.486 2.152 2.152 0 0 1-.45-.73 2.56 2.56 0 0 1-.158-.906v-.175c0-.37.054-.706.162-1.006.108-.3.258-.557.45-.77.193-.216.42-.381.683-.495.262-.114.547-.17.853-.17.338 0 .634.056.888.17.254.114.464.274.63.481.17.205.295.448.377.731.084.283.126.595.126.936v.451h-3.657v-.757h2.616v-.083a1.482 1.482 0 0 0-.114-.534.907.907 0 0 0-.31-.402c-.14-.102-.327-.153-.56-.153a.951.951 0 0 0-.468.113.926.926 0 0 0-.337.32c-.09.14-.16.309-.21.507-.047.196-.07.416-.07.66v.176c0 .207.027.4.083.577.058.175.143.329.254.46.11.131.245.235.402.31.157.073.337.11.538.11.254 0 .48-.051.678-.153.199-.102.37-.247.517-.433l.555.538a2.167 2.167 0 0 1-.398.429 1.997 1.997 0 0 1-.6.328 2.384 2.384 0 0 1-.813.127Zm8.125-4.822v.84h-2.337v-.84h2.337Zm-2.087 0v4.734h-1.055v-4.734h1.055Zm2.913 0v4.734h-1.058v-4.734h1.059Zm.915 2.42v-.101c0-.341.05-.658.149-.95.099-.294.242-.55.428-.765.19-.219.42-.388.692-.508a2.25 2.25 0 0 1 .927-.183c.347 0 .656.06.928.183.274.12.506.29.695.508.19.216.334.47.434.765.099.292.148.609.148.95v.1c0 .342-.05.658-.148.95-.1.292-.244.547-.434.766a2.02 2.02 0 0 1-.69.507c-.272.12-.58.18-.924.18-.347 0-.658-.06-.932-.18a2.007 2.007 0 0 1-.691-.507 2.27 2.27 0 0 1-.433-.766 2.93 2.93 0 0 1-.15-.95Zm1.054-.101v.1c0 .213.022.415.066.604.044.19.112.356.206.5.093.142.213.254.358.336.146.082.32.122.521.122a1 1 0 0 0 .867-.459c.093-.143.161-.31.205-.499.047-.19.07-.39.07-.603v-.101c0-.21-.023-.408-.07-.595a1.527 1.527 0 0 0-.21-.503 1.003 1.003 0 0 0-.87-.468c-.2 0-.371.042-.517.127a1.015 1.015 0 0 0-.354.34 1.588 1.588 0 0 0-.206.504 2.598 2.598 0 0 0-.066.595Zm6.191.153h-.91v-.534h.735c.187 0 .336-.024.447-.074a.474.474 0 0 0 .24-.206.644.644 0 0 0 .075-.315.625.625 0 0 0-.075-.297.54.54 0 0 0-.24-.236.984.984 0 0 0-.464-.092c-.16 0-.305.026-.433.078a.72.72 0 0 0-.298.22.51.51 0 0 0-.11.323h-1.054a1.2 1.2 0 0 1 .25-.761c.169-.213.395-.377.678-.49a2.47 2.47 0 0 1 .932-.171c.289 0 .548.03.779.092.23.058.425.146.586.262.163.114.287.257.372.43.087.168.13.365.13.59 0 .16-.037.312-.113.455-.076.143-.185.27-.328.38a1.635 1.635 0 0 1-.52.254 2.324 2.324 0 0 1-.679.092Zm-.91-.306h.91c.28 0 .528.028.744.083.216.052.397.131.543.236.145.105.255.235.328.39.075.151.113.326.113.525a1.24 1.24 0 0 1-.547 1.045 1.903 1.903 0 0 1-.616.28c-.24.064-.503.096-.792.096a2.75 2.75 0 0 1-.92-.157 1.724 1.724 0 0 1-.73-.486c-.19-.221-.284-.503-.284-.844h1.054c0 .12.037.232.11.337a.801.801 0 0 0 .315.258c.137.064.302.096.494.096.198 0 .36-.03.486-.092a.671.671 0 0 0 .28-.25.65.65 0 0 0 .092-.332.7.7 0 0 0-.092-.38.52.52 0 0 0-.28-.21 1.368 1.368 0 0 0-.473-.07h-.735v-.525Zm4.625 1.028 1.86-3.194h1.054v4.734h-1.055v-3.198l-1.86 3.198h-1.054v-4.734h1.055v3.194Zm4.064 1.54v-4.734h1.055v3.894h1.855v-3.894h1.059v4.734H95.96Zm4.612-.836-.083 2.24h-.967V43.46h-.57v-.836h1.62Zm1.833-.704 1.859-3.194h1.055v4.734h-1.055v-3.198l-1.859 3.198h-1.055v-4.734h1.055v3.194Zm5.119 0 1.859-3.194h1.055v4.734h-1.055v-3.198l-1.859 3.198h-1.055v-4.734h1.055v3.194Zm1.579-5.014h.783c0 .242-.058.456-.175.643a1.161 1.161 0 0 1-.49.433c-.21.105-.46.158-.752.158-.441 0-.789-.114-1.046-.342a1.149 1.149 0 0 1-.38-.892h.783c0 .163.048.308.144.433.099.123.266.184.499.184.23 0 .394-.061.49-.184a.693.693 0 0 0 .144-.433Zm6.616 5.801c.172 0 .326-.033.463-.1a.874.874 0 0 0 .337-.289.787.787 0 0 0 .145-.424h.993a1.48 1.48 0 0 1-.271.835 1.88 1.88 0 0 1-.696.6 2.094 2.094 0 0 1-.958.218c-.362 0-.677-.06-.945-.183a1.866 1.866 0 0 1-.67-.517 2.263 2.263 0 0 1-.402-.756 3.108 3.108 0 0 1-.132-.92v-.152c0-.327.044-.633.132-.92a2.25 2.25 0 0 1 .402-.76c.178-.22.401-.39.67-.512a2.2 2.2 0 0 1 .94-.188 2.1 2.1 0 0 1 .998.227c.286.149.51.357.674.626.166.265.252.574.258.927h-.993a1.058 1.058 0 0 0-.132-.472.859.859 0 0 0-.323-.341.926.926 0 0 0-.495-.127.98.98 0 0 0-.529.13.878.878 0 0 0-.328.35 1.7 1.7 0 0 0-.171.495c-.032.181-.048.37-.048.565v.153c0 .195.016.385.048.569.032.183.088.348.166.494a.972.972 0 0 0 .333.346c.14.084.318.127.534.127Zm5.416-.196v-2.258a.971.971 0 0 0-.092-.438.64.64 0 0 0-.28-.284.956.956 0 0 0-.464-.1c-.172 0-.32.029-.446.087a.723.723 0 0 0-.293.236.57.57 0 0 0-.105.337h-1.05c0-.187.045-.367.136-.542.09-.175.221-.331.393-.469.172-.137.378-.245.617-.323.239-.08.508-.118.805-.118.356 0 .671.06.945.179.277.12.495.3.652.542.161.24.241.54.241.902v2.104c0 .216.014.41.044.582.032.17.077.317.135.442v.07h-1.08a1.887 1.887 0 0 1-.119-.433 3.57 3.57 0 0 1-.039-.516Zm.153-1.93.009.652h-.757c-.195 0-.367.019-.516.057a1.058 1.058 0 0 0-.372.157.68.68 0 0 0-.298.591c0 .126.03.24.088.346a.61.61 0 0 0 .254.24c.113.059.25.088.411.088a1.158 1.158 0 0 0 .949-.46.71.71 0 0 0 .149-.371l.341.468c-.035.12-.094.248-.179.385a1.885 1.885 0 0 1-.333.394 1.66 1.66 0 0 1-1.133.42c-.309 0-.585-.062-.827-.184a1.468 1.468 0 0 1-.568-.503 1.298 1.298 0 0 1-.206-.722c0-.251.047-.473.14-.665.096-.196.236-.36.42-.49a2.04 2.04 0 0 1 .682-.298c.269-.07.575-.105.919-.105h.827Zm3.098 1.339 1.859-3.194h1.055v4.734h-1.055v-3.198l-1.859 3.198h-1.055v-4.734h1.055v3.194Zm1.579-5.014h.783c0 .242-.058.456-.175.643a1.161 1.161 0 0 1-.49.433c-.21.105-.46.158-.752.158-.441 0-.789-.114-1.046-.342a1.149 1.149 0 0 1-.38-.892h.783c0 .163.048.308.144.433.099.123.265.184.499.184.23 0 .394-.061.49-.184a.693.693 0 0 0 .144-.433Zm4.647 1.82v4.734h-1.059v-4.734h1.059Zm1.553 0v.831h-4.139v-.831h4.139Zm3.303 3.785v-2.258a.971.971 0 0 0-.092-.438.64.64 0 0 0-.28-.284.956.956 0 0 0-.464-.1c-.172 0-.32.029-.446.087a.723.723 0 0 0-.293.236.57.57 0 0 0-.105.337h-1.05c0-.187.045-.367.136-.542.09-.175.221-.331.393-.469.172-.137.378-.245.617-.323.239-.08.508-.118.805-.118.356 0 .671.06.945.179.277.12.495.3.652.542.161.24.241.54.241.902v2.104c0 .216.014.41.044.582.032.17.077.317.135.442v.07h-1.08a1.887 1.887 0 0 1-.119-.433 3.57 3.57 0 0 1-.039-.516Zm.153-1.93.009.652h-.757c-.195 0-.367.019-.516.057a1.058 1.058 0 0 0-.372.157.68.68 0 0 0-.298.591c0 .126.03.24.088.346a.61.61 0 0 0 .254.24.89.89 0 0 0 .411.088 1.158 1.158 0 0 0 .949-.46.71.71 0 0 0 .149-.371l.341.468c-.035.12-.094.248-.179.385a1.855 1.855 0 0 1-.333.394 1.66 1.66 0 0 1-1.133.42c-.309 0-.585-.062-.827-.184a1.468 1.468 0 0 1-.568-.503 1.306 1.306 0 0 1-.206-.722c0-.251.047-.473.14-.665.096-.196.236-.36.42-.49.187-.132.414-.23.683-.298.268-.07.574-.105.918-.105h.827Z" fill="#333"/><rect x="26" y="57" width="329" height="25" rx="5.12" fill="#F8F8F8"/><rect x="26.32" y="57.32" width="328.36" height="24.36" rx="4.8" stroke="silver" stroke-opacity=".3" stroke-width=".64"/><path d="m35.272 70.121 2.428-4.165h1.422v6.37H37.7v-4.16l-2.428 4.16H33.85v-6.37h1.422v4.165Zm7.342-2.529v4.734H41.24v-4.734h1.373Zm1.509 0v1.055h-4.366v-1.055h4.366Zm.262 2.415v-.092c0-.347.05-.666.15-.958.098-.294.244-.55.437-.765.192-.216.428-.384.709-.503.28-.123.6-.184.962-.184.367 0 .691.061.971.184.283.12.521.287.714.503.192.216.338.47.437.765.1.292.149.611.149.959v.091c0 .344-.05.664-.149.959-.1.291-.245.546-.438.765a1.974 1.974 0 0 1-.708.503c-.28.12-.603.18-.967.18-.362 0-.684-.06-.967-.18a1.965 1.965 0 0 1-.713-.503 2.233 2.233 0 0 1-.438-.765 2.985 2.985 0 0 1-.149-.959Zm1.37-.092v.092c0 .187.014.362.044.525.032.164.083.307.153.43.07.122.162.218.275.288.117.067.259.1.425.1a.814.814 0 0 0 .42-.1.795.795 0 0 0 .275-.289c.07-.122.12-.265.15-.429a2.72 2.72 0 0 0 .047-.525v-.092a2.63 2.63 0 0 0-.048-.516 1.382 1.382 0 0 0-.149-.433.774.774 0 0 0-.28-.293.796.796 0 0 0-.424-.105.778.778 0 0 0-.416.105.785.785 0 0 0-.275.293c-.07.126-.121.27-.153.433a2.81 2.81 0 0 0-.044.516Zm7.14-2.323v1.063H50.98v3.671h-1.365v-4.734h3.281Zm.206 2.415v-.092c0-.347.05-.666.148-.958.1-.294.246-.55.438-.765a1.97 1.97 0 0 1 .709-.503c.28-.123.6-.184.962-.184.368 0 .692.061.972.184.283.12.52.287.713.503.192.216.338.47.437.765.1.292.15.611.15.959v.091c0 .344-.05.664-.15.959a2.23 2.23 0 0 1-.437.765 1.973 1.973 0 0 1-.709.503c-.28.12-.602.18-.967.18a2.46 2.46 0 0 1-.967-.18 1.965 1.965 0 0 1-.713-.503 2.233 2.233 0 0 1-.438-.765 2.988 2.988 0 0 1-.148-.959Zm1.37-.092v.092a3 3 0 0 0 .043.525c.032.164.083.307.153.43.07.122.162.218.276.288.116.067.258.1.424.1a.814.814 0 0 0 .42-.1.795.795 0 0 0 .276-.289c.07-.122.12-.265.148-.429a2.72 2.72 0 0 0 .049-.525v-.092a2.63 2.63 0 0 0-.048-.516 1.38 1.38 0 0 0-.15-.433.774.774 0 0 0-.28-.293.796.796 0 0 0-.424-.105.779.779 0 0 0-.415.105.786.786 0 0 0-.276.293c-.07.126-.12.27-.153.433a2.81 2.81 0 0 0-.044.516Zm7.459.539 1.448-2.862h1.365v4.734h-1.365v-2.87l-1.448 2.87h-1.37v-4.734h1.37v2.862Zm7.906.897a.823.823 0 0 0 .38-.084.6.6 0 0 0 .25-.231.702.702 0 0 0 .092-.368h1.286c0 .344-.089.647-.267.91a1.801 1.801 0 0 1-.709.617 2.255 2.255 0 0 1-1.006.219 2.39 2.39 0 0 1-.962-.18 1.889 1.889 0 0 1-.687-.512 2.242 2.242 0 0 1-.416-.76 3.177 3.177 0 0 1-.136-.946v-.114c0-.335.046-.649.136-.94.093-.292.232-.547.416-.766a1.83 1.83 0 0 1 .682-.507c.274-.123.595-.184.963-.184.388 0 .73.074 1.028.223.3.149.535.363.704.643.17.277.254.611.254 1.002h-1.286a.958.958 0 0 0-.083-.407.624.624 0 0 0-.245-.289.703.703 0 0 0-.403-.11.72.72 0 0 0-.411.11.666.666 0 0 0-.24.293 1.538 1.538 0 0 0-.115.43c-.02.157-.03.324-.03.502v.114c0 .18.01.353.03.516.02.16.059.302.114.425a.7.7 0 0 0 .245.289.74.74 0 0 0 .416.105Zm4.056-2.849v5.644h-1.365v-6.554H73.8l.092.91Zm2.953 1.405v.092c0 .344-.04.663-.118.958a2.339 2.339 0 0 1-.355.765c-.154.22-.345.39-.573.512a1.67 1.67 0 0 1-.792.18c-.286 0-.534-.06-.744-.18a1.611 1.611 0 0 1-.525-.507 3.092 3.092 0 0 1-.34-.748 6.355 6.355 0 0 1-.198-.906v-.18c.047-.34.114-.657.202-.949.087-.291.2-.544.34-.757a1.53 1.53 0 0 1 .521-.503c.208-.12.454-.18.74-.18.297 0 .561.058.792.171.23.114.423.278.577.49.158.21.276.463.355.757.078.295.118.623.118.985Zm-1.37.092v-.092c0-.193-.014-.37-.043-.53a1.424 1.424 0 0 0-.14-.424.731.731 0 0 0-.254-.285.7.7 0 0 0-.385-.1.988.988 0 0 0-.416.079.667.667 0 0 0-.275.231c-.07.1-.121.222-.154.368a2.807 2.807 0 0 0-.048.499v.481c.003.219.034.414.092.586a.83.83 0 0 0 .285.398c.13.094.306.14.525.14a.687.687 0 0 0 .385-.1.726.726 0 0 0 .25-.293c.063-.126.108-.27.135-.433.029-.164.043-.339.043-.525Zm4.328 2.415a2.69 2.69 0 0 1-1.011-.18 2.2 2.2 0 0 1-.757-.494 2.21 2.21 0 0 1-.468-.735 2.426 2.426 0 0 1-.162-.888v-.166c0-.353.05-.679.149-.976.099-.298.243-.556.433-.775.192-.221.429-.392.709-.511a2.36 2.36 0 0 1 .958-.184c.335 0 .634.055.897.166.262.108.484.264.665.468.18.201.318.445.41.73.097.284.145.602.145.955v.56h-3.815v-.88h2.477V69.4a.985.985 0 0 0-.092-.437.63.63 0 0 0-.263-.29.814.814 0 0 0-.433-.104.765.765 0 0 0-.416.105c-.11.07-.2.17-.266.297a1.52 1.52 0 0 0-.14.442c-.03.167-.044.346-.044.538v.167c0 .183.025.351.074.503a1.02 1.02 0 0 0 .569.643c.137.061.293.092.468.092.216 0 .421-.041.617-.123.195-.084.364-.216.507-.393l.64.73a1.79 1.79 0 0 1-.408.407 2.18 2.18 0 0 1-.621.315 2.568 2.568 0 0 1-.823.123Zm3.49-4.822h1.366l-.026 1.536a5.22 5.22 0 0 1-.184 1.347 2.907 2.907 0 0 1-.442.937 2.24 2.24 0 0 1-.634.595 2.682 2.682 0 0 1-.749.32h-.196l-.022-1.046.118-.018a2.81 2.81 0 0 0 .39-.473c.096-.154.167-.312.214-.472.05-.163.083-.341.1-.534.018-.192.03-.411.035-.656l.03-1.536Zm.377 0h3.207v4.734h-1.365V68.67H83.67v-1.077Zm-1.557 3.671h5.455v2.494H86.2v-1.43h-2.686v1.43h-1.4v-2.494Zm9.222-1.79v1.055h-2.384v-1.054h2.385Zm-1.907-1.88v4.733h-1.365v-4.734h1.365Zm2.809 0v4.733h-1.374v-4.734h1.374Zm3.124 4.82a2.69 2.69 0 0 1-1.011-.179 2.2 2.2 0 0 1-.757-.494 2.21 2.21 0 0 1-.468-.735 2.426 2.426 0 0 1-.162-.888v-.166c0-.353.05-.679.149-.976.099-.298.243-.556.433-.775.192-.221.429-.392.709-.511.28-.123.6-.184.958-.184.335 0 .634.055.897.166.262.108.484.264.665.468.18.201.318.445.411.73.096.284.144.602.144.955v.56h-3.815v-.88h2.477V69.4a.986.986 0 0 0-.092-.437.632.632 0 0 0-.263-.29.814.814 0 0 0-.433-.104.764.764 0 0 0-.416.105c-.11.07-.2.17-.266.297a1.52 1.52 0 0 0-.14.442c-.03.167-.044.346-.044.538v.167c0 .183.025.351.074.503a1.018 1.018 0 0 0 .569.643c.137.061.293.092.468.092.216 0 .422-.041.617-.123.195-.084.365-.216.508-.393l.638.73a1.78 1.78 0 0 1-.407.407 2.187 2.187 0 0 1-.62.315 2.567 2.567 0 0 1-.823.123Zm4.865 0c-.376 0-.713-.06-1.01-.179a2.2 2.2 0 0 1-.758-.494 2.21 2.21 0 0 1-.468-.735 2.426 2.426 0 0 1-.162-.888v-.166c0-.353.05-.679.149-.976.1-.298.243-.556.433-.775a1.93 1.93 0 0 1 .709-.511c.28-.123.6-.184.958-.184.335 0 .634.055.897.166.262.108.484.264.665.468.181.201.318.445.411.73.097.284.145.602.145.955v.56h-3.816v-.88h2.477V69.4a.989.989 0 0 0-.092-.437.629.629 0 0 0-.263-.29.812.812 0 0 0-.433-.104.764.764 0 0 0-.415.105c-.111.07-.2.17-.267.297a1.55 1.55 0 0 0-.14.442c-.03.167-.044.346-.044.538v.167c0 .183.025.351.074.503.05.151.123.281.22.39.095.107.212.192.35.253.136.061.292.092.467.092.216 0 .422-.041.617-.123.196-.084.365-.216.508-.393l.639.73a1.8 1.8 0 0 1-.407.407c-.172.129-.38.234-.622.315a2.566 2.566 0 0 1-.822.123Zm2.704-.734c0-.199.07-.365.21-.5a.778.778 0 0 1 .555-.2c.231 0 .415.067.552.2.14.135.21.301.21.5 0 .195-.07.36-.21.494-.137.134-.321.201-.552.201a.778.778 0 0 1-.555-.201.658.658 0 0 1-.21-.494Zm0-3.553c0-.198.07-.365.21-.499a.779.779 0 0 1 .555-.201c.231 0 .415.067.552.201.14.134.21.3.21.499 0 .195-.07.36-.21.494-.137.135-.321.202-.552.202a.778.778 0 0 1-.555-.202.658.658 0 0 1-.21-.494ZM34.989 90.443V94.1h-.742v-4.338h.721l.02.681Zm1.355-.705-.004.69a1.888 1.888 0 0 0-.36-.032 1.19 1.19 0 0 0-.454.08.938.938 0 0 0-.333.224 1.08 1.08 0 0 0-.216.345c-.051.13-.085.275-.1.433l-.21.12c0-.262.026-.508.077-.738.053-.23.135-.433.245-.609.11-.18.248-.318.417-.417a1.173 1.173 0 0 1 .938-.096Zm3.082 3.62v-2.233a.905.905 0 0 0-.104-.445.683.683 0 0 0-.304-.297 1.104 1.104 0 0 0-.505-.104 1.19 1.19 0 0 0-.494.096.859.859 0 0 0-.328.253.554.554 0 0 0-.117.337h-.741c0-.155.04-.31.12-.462.08-.152.195-.29.345-.412a1.71 1.71 0 0 1 .545-.297c.214-.075.452-.112.714-.112.315 0 .593.053.833.16.244.107.433.269.57.485.139.214.208.483.208.806v2.02c0 .145.012.298.036.462.027.163.066.303.117.42v.065h-.774a1.387 1.387 0 0 1-.088-.341 2.745 2.745 0 0 1-.033-.401Zm.129-1.888.008.52h-.75c-.211 0-.4.018-.565.053a1.295 1.295 0 0 0-.417.148.67.67 0 0 0-.345.601c0 .137.03.261.092.373a.67.67 0 0 0 .277.27c.126.063.28.095.461.095a1.25 1.25 0 0 0 1.014-.497.76.76 0 0 0 .169-.405l.316.357c-.018.112-.07.237-.152.373a1.781 1.781 0 0 1-.822.701c-.187.08-.398.12-.633.12a1.66 1.66 0 0 1-.774-.172 1.322 1.322 0 0 1-.513-.46 1.22 1.22 0 0 1-.18-.654c0-.233.045-.437.136-.614.09-.178.222-.327.393-.444.17-.12.377-.212.617-.273.24-.062.51-.092.806-.092h.862Zm2.517-.846V94.1h-.745v-4.338h.705l.04.862Zm-.152 1.142-.345-.012c.003-.296.042-.57.117-.822a1.95 1.95 0 0 1 .332-.661 1.48 1.48 0 0 1 .55-.433c.219-.104.473-.156.761-.156.203 0 .39.03.562.088a1.14 1.14 0 0 1 .737.742c.07.192.104.424.104.697v2.89h-.741v-2.854c0-.227-.039-.409-.117-.545a.664.664 0 0 0-.32-.297 1.158 1.158 0 0 0-.49-.096c-.218 0-.401.039-.548.116a.928.928 0 0 0-.353.321 1.445 1.445 0 0 0-.193.47 2.625 2.625 0 0 0-.056.552Zm2.81-.409-.497.153a2.19 2.19 0 0 1 .117-.686c.077-.219.188-.414.332-.585.147-.171.328-.306.541-.405.214-.102.459-.152.734-.152.233 0 .438.03.618.092.181.061.334.156.457.284.125.126.22.288.284.486.064.197.096.433.096.705v2.85h-.745v-2.858c0-.243-.039-.431-.117-.565a.605.605 0 0 0-.32-.285 1.283 1.283 0 0 0-.49-.084 1.05 1.05 0 0 0-.432.084.894.894 0 0 0-.317.233 1.014 1.014 0 0 0-.196.333 1.224 1.224 0 0 0-.065.4Zm3.8-3.415h.747v5.316l-.065.842h-.681v-6.158Zm3.677 3.953v.084c0 .315-.037.608-.112.878a2.14 2.14 0 0 1-.329.697c-.144.198-.32.352-.529.461a1.52 1.52 0 0 1-.718.165c-.275 0-.517-.047-.725-.14a1.426 1.426 0 0 1-.521-.414 2.137 2.137 0 0 1-.341-.649 4.092 4.092 0 0 1-.172-.858v-.369c.032-.32.089-.608.172-.862a2.15 2.15 0 0 1 .34-.65c.142-.18.316-.318.522-.412a1.68 1.68 0 0 1 .717-.144c.273 0 .515.053.726.16.211.104.388.254.53.45.143.194.253.428.328.7.075.27.112.571.112.903Zm-.745.084v-.084c0-.217-.02-.42-.06-.61a1.578 1.578 0 0 0-.193-.505.958.958 0 0 0-.349-.345 1.03 1.03 0 0 0-.533-.128c-.187 0-.35.032-.49.096a1.058 1.058 0 0 0-.348.26c-.096.108-.175.23-.236.37a2.12 2.12 0 0 0-.133.425v.966c.043.187.113.367.209.541.099.171.23.311.393.421.165.11.37.164.613.164.2 0 .371-.04.513-.12a.967.967 0 0 0 .349-.34c.09-.145.158-.312.2-.502.043-.19.065-.393.065-.61Zm2.49-4.037V94.1h-.747v-6.158h.746Zm2.99 6.238c-.302 0-.576-.051-.822-.153a1.862 1.862 0 0 1-.63-.436 1.942 1.942 0 0 1-.4-.666 2.44 2.44 0 0 1-.14-.842v-.168c0-.353.051-.667.156-.942.104-.278.246-.514.425-.706.179-.192.382-.338.609-.437a1.75 1.75 0 0 1 .706-.148c.31 0 .577.053.801.16.228.107.413.257.558.45.144.189.25.413.32.673.07.256.105.537.105.841v.333h-3.24v-.605h2.498v-.056a1.85 1.85 0 0 0-.12-.561 1.009 1.009 0 0 0-.321-.45c-.147-.117-.348-.176-.601-.176a1.009 1.009 0 0 0-.83.421c-.102.139-.18.309-.237.51-.056.2-.084.43-.084.693v.168c0 .206.028.4.084.581.059.18.143.337.253.474.112.136.247.243.405.32.16.078.342.116.545.116.262 0 .484-.053.665-.16.182-.107.341-.25.477-.429l.45.357a2.077 2.077 0 0 1-.357.405 1.703 1.703 0 0 1-.533.313c-.209.08-.456.12-.742.12Zm3.295-3.737V94.1h-.742v-4.338h.722l.02.681Zm1.355-.705-.004.69a1.888 1.888 0 0 0-.36-.032c-.172 0-.323.026-.454.08a.938.938 0 0 0-.332.224 1.083 1.083 0 0 0-.217.345c-.05.13-.084.275-.1.433l-.209.12c0-.262.026-.508.077-.738.053-.23.135-.433.244-.609.11-.18.249-.318.417-.417a1.173 1.173 0 0 1 .938-.096Zm.2 3.969c0-.126.04-.231.117-.317.08-.088.195-.132.345-.132.15 0 .263.044.34.132.08.085.12.191.12.317a.44.44 0 0 1-.12.312c-.077.086-.19.129-.34.129-.15 0-.265-.043-.345-.129a.448.448 0 0 1-.116-.312Zm2.895-3.264V94.1h-.741v-4.338h.721l.02.681Zm1.355-.705-.004.69a1.888 1.888 0 0 0-.36-.032c-.172 0-.323.026-.454.08a.938.938 0 0 0-.332.224 1.08 1.08 0 0 0-.217.345c-.05.13-.084.275-.1.433l-.209.12c0-.262.026-.508.077-.738.053-.23.135-.433.244-.609.11-.18.249-.318.417-.417a1.173 1.173 0 0 1 .938-.096Zm3.34 3.36v-3.336h.745V94.1h-.71l-.035-1.003Zm.14-.915.309-.008a3.3 3.3 0 0 1-.093.802 1.723 1.723 0 0 1-.288.633c-.134.18-.309.32-.525.421-.217.1-.48.149-.79.149a1.74 1.74 0 0 1-.581-.092 1.162 1.162 0 0 1-.45-.285 1.294 1.294 0 0 1-.292-.501 2.414 2.414 0 0 1-.1-.742v-2.798h.741v2.806c0 .195.022.357.064.485a.806.806 0 0 0 .18.3.668.668 0 0 0 .257.153c.097.03.196.044.297.044.316 0 .566-.06.75-.18.184-.123.317-.287.397-.493.083-.209.124-.44.124-.694ZM37.09 113.907v-2.437a.986.986 0 0 0-.114-.485.745.745 0 0 0-.332-.324 1.203 1.203 0 0 0-.552-.114c-.204 0-.383.035-.538.105a.935.935 0 0 0-.358.276.604.604 0 0 0-.127.367h-.81c0-.169.044-.336.131-.503a1.47 1.47 0 0 1 .377-.45c.166-.137.364-.245.595-.324.233-.082.493-.123.779-.123.344 0 .647.059.91.175.265.117.472.293.62.53.153.233.228.526.228.879v2.205c0 .158.013.325.04.503.029.178.071.331.127.46v.07h-.845a1.524 1.524 0 0 1-.096-.372 3.007 3.007 0 0 1-.035-.438Zm.14-2.06.009.568h-.819c-.23 0-.436.019-.616.057a1.41 1.41 0 0 0-.455.162.73.73 0 0 0-.376.656c0 .149.033.285.1.407a.732.732 0 0 0 .302.294c.137.07.305.105.503.105a1.363 1.363 0 0 0 1.107-.543.83.83 0 0 0 .184-.442l.345.389c-.02.123-.076.259-.166.407a1.938 1.938 0 0 1-.897.766 1.73 1.73 0 0 1-.691.131c-.321 0-.602-.062-.845-.188a1.44 1.44 0 0 1-.56-.503 1.333 1.333 0 0 1-.197-.713c0-.254.05-.477.15-.67.099-.195.241-.357.428-.485a2.04 2.04 0 0 1 .674-.298c.262-.067.556-.1.88-.1h.94Zm4.839 1.776v-3.64h.814v4.734h-.775l-.04-1.094Zm.153-.998.337-.008c0 .315-.034.606-.1.875a1.89 1.89 0 0 1-.316.691 1.485 1.485 0 0 1-.573.459c-.236.108-.523.162-.862.162-.23 0-.442-.033-.634-.1a1.267 1.267 0 0 1-.49-.311 1.41 1.41 0 0 1-.32-.547 2.63 2.63 0 0 1-.109-.809v-3.054h.81v3.062c0 .213.023.39.07.53a.881.881 0 0 0 .196.328.725.725 0 0 0 .28.166c.105.032.213.048.324.048.344 0 .617-.065.818-.196.202-.135.346-.314.433-.539.09-.227.136-.479.136-.757Zm3.876-2.642v.621h-2.56v-.621h2.56Zm-1.693-1.151h.81v4.712c0 .161.024.282.074.363.05.082.114.136.192.162.08.027.164.04.254.04.067 0 .137-.006.21-.018.076-.014.133-.026.17-.035l.005.661a2.02 2.02 0 0 1-.253.057c-.103.02-.226.03-.372.03-.199 0-.381-.039-.547-.118a.88.88 0 0 1-.398-.394c-.097-.186-.145-.437-.145-.752v-4.708Zm2.34 3.57v-.1c0-.342.05-.658.15-.95.099-.294.242-.55.428-.765.187-.219.413-.388.679-.508.265-.122.563-.184.892-.184.333 0 .632.062.897.184.268.12.496.289.683.508.19.215.334.471.433.765.099.292.149.608.149.95v.1c0 .342-.05.658-.15.95a2.272 2.272 0 0 1-.432.765 1.99 1.99 0 0 1-.679.508c-.262.12-.56.179-.892.179-.333 0-.632-.059-.897-.179a2.035 2.035 0 0 1-.683-.508 2.309 2.309 0 0 1-.428-.765 2.933 2.933 0 0 1-.15-.95Zm.81-.1v.1c0 .237.028.46.084.67.055.207.138.391.249.551.114.16.255.287.424.381.17.09.366.135.59.135.223 0 .416-.045.583-.135.169-.094.309-.221.42-.381.11-.16.194-.344.25-.551.057-.21.087-.433.087-.67v-.1c0-.234-.03-.454-.088-.661a1.707 1.707 0 0 0-.254-.556 1.215 1.215 0 0 0-.42-.385 1.182 1.182 0 0 0-.586-.14c-.221 0-.417.047-.586.14a1.27 1.27 0 0 0-.42.385 1.775 1.775 0 0 0-.25.556 2.541 2.541 0 0 0-.083.661Zm5.32-1.378v3.793h-.813v-4.734h.77l.044.941Zm-.166 1.246-.376-.013c.003-.323.045-.622.127-.897.082-.277.203-.517.363-.721a1.6 1.6 0 0 1 .6-.473c.239-.114.516-.171.83-.171.222 0 .427.032.613.097.187.061.349.159.486.293.137.134.243.306.32.516.075.21.113.464.113.761v3.155h-.81v-3.115c0-.248-.042-.447-.126-.595a.724.724 0 0 0-.35-.324 1.263 1.263 0 0 0-.534-.105c-.24 0-.439.042-.6.127-.16.084-.288.201-.385.35a1.577 1.577 0 0 0-.21.512 2.86 2.86 0 0 0-.06.603Zm3.067-.446-.542.166c.003-.259.045-.509.127-.748a2 2 0 0 1 .363-.638c.16-.187.357-.334.59-.442.234-.111.5-.167.801-.167.254 0 .478.034.674.101.198.067.364.171.499.311.137.137.24.313.31.529.07.216.105.473.105.77v3.111h-.814v-3.12c0-.265-.042-.471-.126-.617a.662.662 0 0 0-.35-.31 1.404 1.404 0 0 0-.534-.092c-.178 0-.336.031-.473.092a.973.973 0 0 0-.345.254 1.107 1.107 0 0 0-.215.363c-.046.137-.07.283-.07.437Zm3.938.678v-.1c0-.342.05-.658.149-.95.099-.294.242-.55.428-.765.187-.219.413-.388.679-.508.265-.122.563-.184.892-.184.333 0 .632.062.897.184.268.12.496.289.683.508.19.215.334.471.433.765.099.292.148.608.148.95v.1c0 .342-.05.658-.148.95-.1.291-.244.547-.433.765a1.99 1.99 0 0 1-.679.508c-.262.12-.56.179-.892.179-.333 0-.632-.059-.897-.179a2.035 2.035 0 0 1-.682-.508 2.309 2.309 0 0 1-.43-.765 2.933 2.933 0 0 1-.148-.95Zm.81-.1v.1c0 .237.027.46.082.67.056.207.139.391.25.551.114.16.255.287.424.381.17.09.366.135.59.135.223 0 .416-.045.583-.135.169-.094.309-.221.42-.381.11-.16.194-.344.25-.551.058-.21.087-.433.087-.67v-.1c0-.234-.03-.454-.088-.661a1.707 1.707 0 0 0-.254-.556 1.215 1.215 0 0 0-.42-.385 1.182 1.182 0 0 0-.586-.14c-.221 0-.417.047-.586.14a1.268 1.268 0 0 0-.42.385 1.775 1.775 0 0 0-.25.556 2.546 2.546 0 0 0-.083.661Zm6.199-.626v.665h-2.135v-.665h2.135Zm1.601-.682v3.723h-.81v-4.734h.767l.043 1.011Zm-.192 1.176-.337-.013a2.84 2.84 0 0 1 .144-.897 2.25 2.25 0 0 1 .394-.721 1.749 1.749 0 0 1 1.387-.644c.233 0 .443.032.63.097.187.061.346.16.477.297.134.137.236.315.306.534.07.216.105.48.105.792v3.102h-.814v-3.111c0-.248-.036-.446-.109-.595a.67.67 0 0 0-.32-.328 1.147 1.147 0 0 0-.516-.105c-.2 0-.385.042-.55.127a1.306 1.306 0 0 0-.425.35 1.758 1.758 0 0 0-.276.512 1.87 1.87 0 0 0-.096.603Zm5.775 1.816 1.295-4.003h.827l-1.702 4.734h-.543l.123-.731Zm-1.08-4.003 1.334 4.025.092.709h-.543l-1.715-4.734h.831Zm6.737 3.478a.684.684 0 0 0-.079-.324c-.05-.102-.153-.194-.31-.275-.155-.085-.388-.158-.7-.219a5.457 5.457 0 0 1-.713-.197 2.165 2.165 0 0 1-.539-.276 1.144 1.144 0 0 1-.337-.38 1.063 1.063 0 0 1-.118-.512c0-.187.041-.363.123-.529.084-.167.203-.314.354-.442.155-.129.34-.229.556-.302.216-.073.456-.11.722-.11.379 0 .703.067.971.202.268.134.474.313.617.538.143.221.214.468.214.739h-.809a.692.692 0 0 0-.118-.38.87.87 0 0 0-.337-.311 1.084 1.084 0 0 0-.538-.123c-.225 0-.407.035-.547.105a.703.703 0 0 0-.302.259.648.648 0 0 0-.048.568c.032.067.087.13.166.188.079.056.19.108.333.158.143.05.325.099.547.149.388.087.707.192.958.315.25.122.437.272.56.45.122.178.184.394.184.648a1.267 1.267 0 0 1-.503 1.015 1.86 1.86 0 0 1-.578.289c-.222.067-.471.1-.748.1-.417 0-.77-.074-1.06-.223a1.64 1.64 0 0 1-.655-.577 1.386 1.386 0 0 1-.224-.749h.814c.012.222.076.399.193.53a.99.99 0 0 0 .428.276c.17.052.337.078.504.078.221 0 .407-.029.555-.087a.78.78 0 0 0 .346-.241.558.558 0 0 0 .118-.35Zm1.868-5.464h.814v5.801l-.07.919h-.744v-6.72Zm4.012 4.313v.092c0 .345-.04.664-.122.958a2.357 2.357 0 0 1-.359.762c-.157.216-.35.383-.577.503-.228.12-.489.179-.784.179-.3 0-.564-.051-.791-.153a1.56 1.56 0 0 1-.57-.45 2.34 2.34 0 0 1-.371-.709 4.462 4.462 0 0 1-.188-.937v-.402c.035-.35.097-.664.188-.941.093-.277.217-.513.372-.708.154-.199.344-.349.569-.451a1.83 1.83 0 0 1 .783-.158c.297 0 .561.059.792.175.23.114.422.277.577.49a2.3 2.3 0 0 1 .359.766c.081.295.122.623.122.984Zm-.813.092v-.092c0-.236-.022-.457-.066-.665a1.723 1.723 0 0 0-.21-.551 1.045 1.045 0 0 0-.38-.376 1.127 1.127 0 0 0-.583-.14c-.204 0-.382.035-.533.105a1.15 1.15 0 0 0-.381.284 1.513 1.513 0 0 0-.258.403 2.307 2.307 0 0 0-.144.464v1.054c.046.204.122.401.227.591.108.186.25.339.429.459.18.12.404.179.67.179.218 0 .405-.043.56-.131a1.05 1.05 0 0 0 .38-.372c.099-.157.172-.34.219-.547.046-.207.07-.428.07-.665Zm1.85 1.886a.5.5 0 0 1 .127-.346c.088-.096.213-.144.376-.144.164 0 .288.048.372.144a.488.488 0 0 1 .132.346.48.48 0 0 1-.132.341c-.084.094-.208.14-.372.14-.163 0-.288-.046-.376-.14a.49.49 0 0 1-.127-.341Zm3.16-3.561v3.99h-.81v-4.734h.787l.022.744Zm1.478-.77-.004.752a1.992 1.992 0 0 0-.394-.035 1.29 1.29 0 0 0-.495.088 1.02 1.02 0 0 0-.363.245c-.099.105-.178.23-.236.376-.055.143-.092.3-.11.472l-.227.132c0-.286.028-.555.083-.805a2.19 2.19 0 0 1 .267-.665c.12-.196.271-.347.455-.455a1.277 1.277 0 0 1 1.024-.105Zm3.644 3.666v-3.64h.814v4.734h-.774l-.04-1.094Zm.154-.998.337-.008c0 .315-.034.606-.101.875-.064.265-.17.496-.315.691a1.485 1.485 0 0 1-.573.459c-.237.108-.524.162-.862.162-.23 0-.442-.033-.635-.1a1.267 1.267 0 0 1-.49-.311 1.41 1.41 0 0 1-.319-.547 2.633 2.633 0 0 1-.11-.809v-3.054h.81v3.062c0 .213.023.39.07.53.05.137.115.246.197.328a.725.725 0 0 0 .28.166c.105.032.213.048.324.048.344 0 .617-.065.818-.196.201-.135.346-.314.433-.539.09-.227.136-.479.136-.757Z" fill="#333"/><rect x="16.32" y="16.32" width="348.36" height="115.36" rx="6.08" stroke="#E7E7E7" stroke-width=".64"/><rect x="233.799" y="104.44" width="55.127" height="12.902" rx="2.053" fill="#FFF4F4" stroke="#FFDFDF" stroke-width=".586"/><rect x="233.799" y="104.44" width="55.127" height="12.902" rx="2.053" fill="#FFF4F4" stroke="#FFDFDF" stroke-width=".586"/><path d="M250.017 108.499v6.405h-.809v-5.394l-1.632.595v-.731l2.314-.875h.127Zm3.404 3.373-.647-.166.319-3.172h3.268v.748h-2.581l-.193 1.733c.117-.067.264-.13.442-.188.181-.059.388-.088.622-.088.294 0 .558.051.792.153.233.099.431.242.595.429.166.187.293.411.38.674.088.262.131.555.131.879 0 .306-.042.588-.126.845a1.906 1.906 0 0 1-.372.673 1.68 1.68 0 0 1-.63.442 2.292 2.292 0 0 1-.889.158c-.256 0-.5-.035-.73-.105a1.897 1.897 0 0 1-.613-.328 1.782 1.782 0 0 1-.437-.552 2.2 2.2 0 0 1-.21-.778h.77c.035.239.105.44.21.603.105.164.242.288.411.372.172.082.372.123.599.123.193 0 .364-.034.512-.101.149-.067.275-.163.377-.289.102-.125.179-.277.232-.455.055-.178.083-.377.083-.599a1.83 1.83 0 0 0-.083-.56 1.298 1.298 0 0 0-.25-.451 1.09 1.09 0 0 0-.398-.297 1.278 1.278 0 0 0-.543-.11c-.271 0-.476.037-.616.11a2.356 2.356 0 0 0-.425.297Zm8.134-3.338v.455l-2.639 5.915h-.853l2.634-5.705h-3.448v-.665h4.306Zm2.104 2.787h.578c.283 0 .516-.047.7-.14a.962.962 0 0 0 .415-.389 1.12 1.12 0 0 0 .14-.56c0-.245-.041-.451-.122-.617a.82.82 0 0 0-.368-.377 1.35 1.35 0 0 0-.621-.126c-.228 0-.429.045-.604.135a1.004 1.004 0 0 0-.407.376 1.122 1.122 0 0 0-.144.578h-.809c0-.324.081-.618.245-.884a1.76 1.76 0 0 1 .686-.634 2.171 2.171 0 0 1 1.033-.236c.385 0 .722.068 1.011.205.288.134.513.336.673.604.161.265.241.596.241.993 0 .161-.038.333-.114.516-.073.181-.188.35-.345.508a1.795 1.795 0 0 1-.604.389 2.408 2.408 0 0 1-.893.149h-.691v-.49Zm0 .665v-.486h.691c.406 0 .741.049 1.007.145.265.096.474.224.625.385.155.16.263.337.324.529a1.943 1.943 0 0 1-.057 1.361c-.099.23-.24.426-.424.586a1.798 1.798 0 0 1-.639.363 2.51 2.51 0 0 1-.801.123c-.277 0-.538-.04-.783-.118a2.034 2.034 0 0 1-.643-.342 1.582 1.582 0 0 1-.437-.555 1.749 1.749 0 0 1-.158-.757h.809c0 .222.049.415.145.582.099.166.239.296.42.389.184.091.399.136.647.136s.461-.043.639-.127a.923.923 0 0 0 .416-.394c.099-.175.149-.395.149-.661 0-.265-.056-.482-.167-.651a.973.973 0 0 0-.472-.381 1.824 1.824 0 0 0-.713-.127h-.578Z" fill="#333"/><path d="M278.85 113.219a.586.586 0 0 1-.929 0l-1.856-2.411a.586.586 0 0 1 .465-.944h3.711c.487 0 .762.558.465.944l-1.856 2.411Z" fill="#DD5E5E"/><rect x="295.385" y="104.442" width="55.127" height="12.902" rx="2.053" fill="#F4FFF4" stroke="#27C58B" stroke-width=".586"/><path d="M312.143 111.762v.665h-4.603v-.476l2.853-4.415h.66l-.708 1.278-1.886 2.948h3.684Zm-.888-4.226v6.37h-.81v-6.37h.81Zm6.952-.009h.07v.687h-.07c-.429 0-.788.07-1.076.21a1.753 1.753 0 0 0-.687.556c-.17.23-.292.49-.368.779a3.563 3.563 0 0 0-.109.879v.936c0 .283.033.534.1.753.067.216.159.398.276.547.117.148.248.261.394.337.149.075.303.113.464.113.186 0 .353-.035.498-.105.146-.073.269-.173.368-.302a1.39 1.39 0 0 0 .232-.463 2.09 2.09 0 0 0 .078-.587c0-.189-.023-.371-.07-.546a1.45 1.45 0 0 0-.214-.473 1.027 1.027 0 0 0-.875-.451c-.225 0-.435.056-.63.167-.192.108-.351.25-.477.428a1.163 1.163 0 0 0-.21.574l-.429-.005c.041-.327.117-.605.228-.836.114-.233.254-.422.42-.568.169-.149.357-.257.564-.324.21-.07.432-.105.665-.105.318 0 .592.06.823.179.23.12.42.28.569.482.148.198.258.423.328.673.073.248.109.504.109.766 0 .3-.042.582-.127.844a1.992 1.992 0 0 1-.38.692 1.714 1.714 0 0 1-.617.463c-.245.111-.53.167-.853.167-.345 0-.645-.07-.902-.21a1.937 1.937 0 0 1-.638-.569 2.56 2.56 0 0 1-.381-.788 3.09 3.09 0 0 1-.127-.879v-.381c0-.449.045-.889.136-1.321.09-.432.246-.822.468-1.172.224-.35.535-.629.932-.836.396-.207.902-.311 1.518-.311Zm2.957 3.347-.647-.166.319-3.172h3.269v.748h-2.582l-.192 1.733c.116-.067.264-.13.442-.188.18-.059.388-.088.621-.088.295 0 .558.051.792.153.233.099.431.242.595.429.166.187.293.411.38.674.088.262.132.555.132.879 0 .306-.043.588-.127.845a1.906 1.906 0 0 1-.372.673c-.166.19-.376.337-.63.442a2.29 2.29 0 0 1-.888.158c-.257 0-.5-.035-.731-.105a1.892 1.892 0 0 1-.612-.328 1.785 1.785 0 0 1-.438-.552 2.2 2.2 0 0 1-.21-.778h.77c.035.239.105.44.21.603.105.164.242.288.411.372.172.082.372.123.6.123.192 0 .363-.034.512-.101.148-.067.274-.163.376-.289.102-.125.179-.277.232-.455.055-.178.083-.377.083-.599a1.83 1.83 0 0 0-.083-.56 1.298 1.298 0 0 0-.25-.451 1.082 1.082 0 0 0-.398-.297 1.273 1.273 0 0 0-.542-.11c-.271 0-.477.037-.617.11a2.392 2.392 0 0 0-.425.297Zm5.198-.551h.578c.283 0 .516-.047.7-.14a.962.962 0 0 0 .415-.389 1.12 1.12 0 0 0 .14-.56c0-.245-.04-.451-.122-.617a.82.82 0 0 0-.368-.377 1.35 1.35 0 0 0-.621-.126c-.227 0-.429.045-.604.135a1.004 1.004 0 0 0-.407.376 1.122 1.122 0 0 0-.144.578h-.809c0-.324.081-.618.245-.884.163-.265.392-.477.687-.634a2.165 2.165 0 0 1 1.032-.237c.385 0 .722.069 1.011.206.289.134.513.336.674.604.16.265.24.596.24.993 0 .16-.038.333-.114.516-.073.181-.188.35-.345.508a1.795 1.795 0 0 1-.604.389 2.405 2.405 0 0 1-.893.149h-.691v-.49Zm0 .665v-.486h.691c.406 0 .741.048 1.007.145.265.096.474.224.625.385.155.16.263.337.324.529a1.943 1.943 0 0 1-.057 1.361c-.099.23-.24.426-.424.586a1.798 1.798 0 0 1-.639.363 2.51 2.51 0 0 1-.801.123c-.277 0-.538-.04-.783-.118a2.034 2.034 0 0 1-.643-.342 1.59 1.59 0 0 1-.437-.555 1.749 1.749 0 0 1-.158-.757h.81c0 .221.048.415.144.582.099.166.239.296.42.389.184.091.4.136.647.136.248 0 .461-.043.639-.127a.923.923 0 0 0 .416-.394c.099-.175.149-.395.149-.661 0-.265-.056-.482-.167-.651a.969.969 0 0 0-.472-.381 1.824 1.824 0 0 0-.713-.127h-.578Z" fill="#333"/><path d="M339.788 109.149a.587.587 0 0 0-.93 0l-1.855 2.41a.587.587 0 0 0 .464.945h3.712a.588.588 0 0 0 .465-.945l-1.856-2.41Z" fill="#27C58B"/><path d="M259.281 44.705v1.166h-6.287v-1.166h6.287Zm-5.924 0v3.264h-1.406l-.053-3.264h1.459Zm7.061 0-.088 3.258h-1.383v-3.258h1.471Zm-2.168-7.365v1.172h-3.938V37.34h3.938Zm1.125 0v8.531h-1.465V37.34h1.465Zm-5.355 0h1.47l-.205 3.457a11.635 11.635 0 0 1-.17 1.476c-.082.438-.181.83-.299 1.178a5.567 5.567 0 0 1-.386.914 4.077 4.077 0 0 1-.463.68 3.59 3.59 0 0 1-1.002.826h-.785v-1.166h.381c.105-.098.222-.238.351-.422.129-.187.254-.431.375-.732.125-.305.234-.682.328-1.131.094-.45.158-.99.194-1.623l.211-3.457Zm7.101 5.431v-.134c0-.457.067-.881.199-1.272.133-.394.325-.736.575-1.025.253-.293.562-.52.925-.68a3.018 3.018 0 0 1 1.242-.246c.465 0 .879.082 1.243.246.367.16.677.387.931.68.254.289.448.63.58 1.025.133.39.2.815.2 1.272v.135c0 .456-.067.88-.2 1.271-.132.39-.326.732-.58 1.025a2.688 2.688 0 0 1-.925.68 3.04 3.04 0 0 1-1.237.24 3.09 3.09 0 0 1-1.248-.24 2.692 2.692 0 0 1-.926-.68 3.044 3.044 0 0 1-.58-1.025 3.949 3.949 0 0 1-.199-1.271Zm1.412-.134v.135c0 .285.029.554.088.808s.15.477.275.668c.125.192.286.342.481.451.195.11.428.164.697.164.262 0 .488-.054.68-.164.195-.11.355-.26.48-.451s.217-.414.276-.668a3.4 3.4 0 0 0 .094-.808v-.135c0-.282-.032-.547-.094-.797a2.075 2.075 0 0 0-.281-.674 1.349 1.349 0 0 0-.481-.457 1.322 1.322 0 0 0-.686-.17c-.265 0-.496.057-.691.17-.191.11-.35.262-.475.457s-.216.42-.275.674c-.059.25-.088.515-.088.797Zm5.684 2.531a.75.75 0 0 1 .222-.55c.149-.153.35-.23.604-.23.258 0 .459.077.603.23a.746.746 0 0 1 .223.55.746.746 0 0 1-.223.55c-.144.15-.345.223-.603.223-.254 0-.455-.074-.604-.222a.75.75 0 0 1-.222-.551Zm.006-4.992a.75.75 0 0 1 .222-.551c.149-.152.35-.228.604-.228.258 0 .459.076.603.228a.746.746 0 0 1 .223.55.746.746 0 0 1-.223.552c-.144.148-.345.222-.603.222-.254 0-.455-.074-.604-.222a.75.75 0 0 1-.222-.551Z" fill="#333"/><path d="M311.024 38.34v8.531h-1.464v-7.36h-3.791v7.36h-1.465V38.34h6.72Zm1.36 5.431v-.134c0-.457.066-.881.199-1.272.133-.394.324-.736.574-1.025.254-.293.563-.52.926-.68a3.011 3.011 0 0 1 1.242-.246c.465 0 .879.082 1.242.246.368.16.678.387.932.68.254.289.447.63.58 1.025.133.39.199.815.199 1.272v.135c0 .456-.066.88-.199 1.271-.133.39-.326.732-.58 1.025a2.682 2.682 0 0 1-.926.68c-.363.16-.775.24-1.236.24a3.09 3.09 0 0 1-1.248-.24 2.692 2.692 0 0 1-.926-.68 3.044 3.044 0 0 1-.58-1.025 3.922 3.922 0 0 1-.199-1.271Zm1.412-.134v.135c0 .285.029.554.088.808.058.254.15.477.275.668.125.192.285.342.481.451.195.11.427.164.697.164.262 0 .488-.054.68-.164.195-.11.355-.26.48-.451s.217-.414.275-.668c.063-.254.094-.523.094-.808v-.135c0-.282-.031-.547-.094-.797a2.032 2.032 0 0 0-.281-.674 1.346 1.346 0 0 0-.48-.457 1.324 1.324 0 0 0-.686-.17c-.265 0-.496.057-.691.17-.192.11-.35.262-.475.457s-.217.42-.275.674c-.059.25-.088.515-.088.797Zm8.256 2.226c.23 0 .437-.045.621-.135a1.17 1.17 0 0 0 .451-.386 1.05 1.05 0 0 0 .193-.569h1.33a1.97 1.97 0 0 1-.363 1.12 2.521 2.521 0 0 1-.931.802 2.809 2.809 0 0 1-1.284.293c-.484 0-.906-.082-1.265-.246a2.505 2.505 0 0 1-.897-.691 3.047 3.047 0 0 1-.539-1.014 4.19 4.19 0 0 1-.176-1.23v-.205c0-.438.059-.848.176-1.23.121-.388.301-.727.539-1.02.239-.293.537-.522.897-.686.359-.168.779-.252 1.259-.252.508 0 .954.102 1.336.305.383.199.684.478.903.838.222.355.338.77.345 1.242h-1.33a1.413 1.413 0 0 0-.175-.633 1.162 1.162 0 0 0-.434-.457 1.236 1.236 0 0 0-.662-.17c-.285 0-.522.059-.709.176-.188.113-.334.27-.44.469a2.301 2.301 0 0 0-.228.662 4.317 4.317 0 0 0-.065.756v.205c0 .261.022.515.065.761.043.247.117.467.223.663.109.19.257.345.445.462.187.114.426.17.715.17Zm7.939-5.332v1.125h-3.094v-1.125h3.094Zm1.108 0v6.34h-1.412v-6.34h1.412Zm-4.547 0h1.394l-.17 3.135c-.023.465-.07.875-.14 1.23a4.158 4.158 0 0 1-.27.909c-.113.25-.252.453-.416.61a1.537 1.537 0 0 1-.574.345 2.292 2.292 0 0 1-.738.111h-.44l-.006-1.16.223-.018a.86.86 0 0 0 .375-.111.851.851 0 0 0 .27-.281c.078-.121.14-.278.187-.469a4.43 4.43 0 0 0 .117-.68c.032-.261.055-.566.071-.914l.117-2.707Zm8.842 6.457a3.39 3.39 0 0 1-1.272-.228 2.812 2.812 0 0 1-.961-.65 2.868 2.868 0 0 1-.603-.98 3.418 3.418 0 0 1-.211-1.212v-.234c0-.496.072-.946.216-1.348.145-.402.346-.746.604-1.031.258-.29.562-.51.914-.662a2.842 2.842 0 0 1 1.143-.229c.453 0 .849.076 1.189.229.34.152.621.367.844.644.226.273.394.6.504.979.113.379.17.797.17 1.254v.603h-4.899v-1.014h3.504v-.111a1.981 1.981 0 0 0-.152-.715 1.22 1.22 0 0 0-.416-.539c-.188-.137-.438-.205-.75-.205-.235 0-.444.05-.627.152-.18.098-.33.24-.451.428a2.27 2.27 0 0 0-.282.68 3.85 3.85 0 0 0-.093.885v.234c0 .277.037.535.111.773.078.235.191.44.34.616.148.175.328.314.539.416.211.097.451.146.721.146.339 0 .642-.068.908-.205.265-.137.496-.33.691-.58l.744.72c-.136.2-.314.391-.533.575-.219.18-.486.326-.803.44-.312.113-.675.17-1.089.17Zm3.656-.82a.75.75 0 0 1 .222-.55c.149-.153.35-.23.604-.23.258 0 .459.077.603.23a.746.746 0 0 1 .223.55.746.746 0 0 1-.223.55c-.144.15-.345.223-.603.223-.254 0-.455-.074-.604-.222a.75.75 0 0 1-.222-.551Zm.006-4.992a.75.75 0 0 1 .222-.551c.149-.152.35-.228.604-.228.258 0 .459.076.603.228a.746.746 0 0 1 .223.55.746.746 0 0 1-.223.552c-.144.148-.345.222-.603.222-.254 0-.455-.074-.604-.222a.75.75 0 0 1-.222-.551Z" fill="#2FB794"/><rect x="233.8" y="85.088" width="55.127" height="12.902" rx="2.053" fill="#FFF4F4" stroke="#FFDFDF" stroke-width=".586"/><path d="M250.465 89.176h.07v.687h-.07c-.429 0-.788.07-1.077.21a1.766 1.766 0 0 0-.687.555c-.169.23-.291.49-.367.779-.073.289-.11.582-.11.88v.936c0 .283.034.534.101.752.067.216.159.398.276.547.116.149.248.261.393.337.149.076.304.114.464.114.187 0 .353-.035.499-.105.146-.073.268-.174.368-.302.102-.131.179-.286.231-.464.053-.178.079-.373.079-.586a2.1 2.1 0 0 0-.07-.547 1.448 1.448 0 0 0-.214-.473 1.034 1.034 0 0 0-.875-.45c-.225 0-.435.055-.63.166-.193.108-.352.25-.477.429a1.144 1.144 0 0 0-.21.573l-.429-.004a2.7 2.7 0 0 1 .228-.836c.113-.233.253-.423.42-.569.169-.149.357-.257.564-.324.21-.07.432-.105.665-.105.318 0 .592.06.823.18.23.12.42.28.568.481.149.198.258.423.328.674.073.248.11.503.11.766 0 .3-.042.581-.127.844a2.006 2.006 0 0 1-.381.691 1.713 1.713 0 0 1-.617.464 2.05 2.05 0 0 1-.853.166c-.344 0-.644-.07-.901-.21a1.926 1.926 0 0 1-.639-.569 2.583 2.583 0 0 1-.38-.787 3.099 3.099 0 0 1-.127-.88v-.38c0-.45.045-.89.135-1.322.091-.431.247-.822.468-1.172.225-.35.536-.629.932-.836.397-.207.903-.31 1.519-.31Zm6.107 5.714v.665h-4.169v-.582l2.087-2.323c.256-.286.455-.528.595-.727a2.24 2.24 0 0 0 .297-.538c.059-.16.088-.324.088-.49 0-.21-.044-.4-.132-.569a.98.98 0 0 0-.376-.41 1.13 1.13 0 0 0-.604-.154c-.282 0-.519.055-.708.166a1.02 1.02 0 0 0-.42.455c-.094.196-.14.42-.14.674h-.81c0-.359.079-.687.237-.984.157-.298.39-.534.7-.71.309-.177.689-.266 1.141-.266.403 0 .747.071 1.033.214.286.14.505.339.656.595.155.254.232.552.232.893 0 .186-.032.376-.096.569-.061.19-.147.379-.258.568a4.33 4.33 0 0 1-.381.56 8.857 8.857 0 0 1-.459.543l-1.707 1.85h3.194Zm2.048-2.919h.577c.283 0 .517-.046.7-.14a.959.959 0 0 0 .416-.389c.093-.166.14-.353.14-.56 0-.245-.041-.45-.122-.617a.824.824 0 0 0-.368-.376 1.343 1.343 0 0 0-.621-.127 1.29 1.29 0 0 0-.604.136.992.992 0 0 0-.407.376 1.119 1.119 0 0 0-.144.577h-.81c0-.323.082-.618.245-.883.164-.266.393-.477.687-.635a2.177 2.177 0 0 1 1.033-.236c.385 0 .722.069 1.01.206.289.134.514.335.674.603.161.266.241.597.241.993a1.523 1.523 0 0 1-.46 1.024 1.775 1.775 0 0 1-.603.39 2.41 2.41 0 0 1-.893.148h-.691v-.49Zm0 .665v-.485h.691c.406 0 .741.048 1.006.144.266.096.474.225.626.385.155.16.263.337.324.53a1.939 1.939 0 0 1-.057 1.36 1.62 1.62 0 0 1-.424.586 1.815 1.815 0 0 1-.639.364 2.518 2.518 0 0 1-.801.122c-.277 0-.538-.04-.783-.118a2.032 2.032 0 0 1-.643-.341 1.596 1.596 0 0 1-.438-.556 1.748 1.748 0 0 1-.157-.757h.809c0 .222.048.416.145.582.099.166.239.296.42.39.183.09.399.135.647.135s.461-.042.639-.127a.925.925 0 0 0 .416-.393c.099-.175.148-.396.148-.661 0-.266-.055-.483-.166-.652a.976.976 0 0 0-.472-.38 1.837 1.837 0 0 0-.714-.128h-.577Zm6.519-3.487v6.406h-.81V90.16l-1.631.595v-.73l2.314-.876h.127Z" fill="#333"/><path d="M278.851 93.869a.586.586 0 0 1-.929 0l-1.856-2.41a.586.586 0 0 1 .465-.945h3.711c.487 0 .762.559.465.944l-1.856 2.411Z" fill="#DD5E5E"/><rect x="295.385" y="85.088" width="55.127" height="12.902" rx="2.053" fill="#F4FFF4" stroke="#27C58B" stroke-width=".586"/><path d="M308.463 93.876h.083c.467 0 .846-.065 1.138-.196.291-.132.516-.308.673-.53.158-.221.266-.47.324-.748.059-.28.088-.567.088-.862v-.976a2.7 2.7 0 0 0-.101-.77 1.658 1.658 0 0 0-.271-.564 1.206 1.206 0 0 0-.39-.346.957.957 0 0 0-.463-.118 1.066 1.066 0 0 0-.875.424 1.498 1.498 0 0 0-.228.473 2.13 2.13 0 0 0-.079.59c0 .19.024.374.07.552.047.178.119.338.215.481.096.143.216.257.359.342.145.081.316.122.511.122.181 0 .35-.035.508-.105a1.463 1.463 0 0 0 .853-1.212h.385c0 .242-.048.481-.144.718a2.218 2.218 0 0 1-.394.639 2.004 2.004 0 0 1-.595.463 1.64 1.64 0 0 1-.744.171c-.315 0-.588-.061-.818-.184a1.66 1.66 0 0 1-.569-.49 2.239 2.239 0 0 1-.328-.682 2.884 2.884 0 0 1-.105-.77c0-.304.042-.588.127-.853.085-.266.21-.5.376-.7.167-.205.372-.364.617-.477.248-.114.534-.171.858-.171.364 0 .675.073.932.219a1.8 1.8 0 0 1 .625.586c.164.245.283.52.359.827.076.306.114.621.114.945v.293c0 .33-.022.665-.066 1.006a4.049 4.049 0 0 1-.24.972 2.57 2.57 0 0 1-.512.83 2.361 2.361 0 0 1-.88.578c-.359.14-.802.21-1.33.21h-.083v-.687Zm7.639-2.905h.578c.283 0 .516-.046.7-.14a.962.962 0 0 0 .415-.389c.094-.166.14-.353.14-.56 0-.245-.041-.45-.122-.617a.82.82 0 0 0-.368-.376 1.343 1.343 0 0 0-.621-.127 1.29 1.29 0 0 0-.604.136.999.999 0 0 0-.407.376 1.119 1.119 0 0 0-.144.577h-.809c0-.323.081-.618.245-.883.163-.266.392-.477.686-.635a2.177 2.177 0 0 1 1.033-.236c.385 0 .722.069 1.011.206.288.134.513.335.673.603.161.266.241.597.241.993 0 .16-.038.333-.114.517-.073.18-.188.35-.345.507a1.79 1.79 0 0 1-.604.39 2.41 2.41 0 0 1-.893.148h-.691v-.49Zm0 .665v-.485h.691c.406 0 .741.048 1.007.144.265.096.474.225.625.385.155.16.263.337.324.53a1.939 1.939 0 0 1-.057 1.36c-.099.23-.24.426-.424.586a1.815 1.815 0 0 1-.639.364 2.518 2.518 0 0 1-.801.122c-.277 0-.538-.04-.783-.118a2.032 2.032 0 0 1-.643-.341 1.593 1.593 0 0 1-.437-.556 1.748 1.748 0 0 1-.158-.757h.809c0 .222.049.416.145.582.099.166.239.296.42.39.184.09.399.135.647.135s.461-.042.639-.127a.92.92 0 0 0 .416-.393c.099-.175.149-.396.149-.661 0-.266-.056-.483-.167-.652a.976.976 0 0 0-.472-.38 1.831 1.831 0 0 0-.713-.128h-.578Zm7.875 1.195c0 .388-.09.717-.271.989a1.7 1.7 0 0 1-.726.612c-.303.14-.646.21-1.028.21s-.727-.07-1.033-.21a1.699 1.699 0 0 1-.726-.612c-.178-.272-.267-.601-.267-.99 0-.253.048-.485.144-.695.1-.213.238-.398.416-.555.181-.158.394-.279.639-.364a2.44 2.44 0 0 1 .818-.13c.391 0 .739.075 1.046.227.306.148.547.354.722.617.177.262.266.563.266.9Zm-.813-.018a1.25 1.25 0 0 0-.153-.625 1.094 1.094 0 0 0-.429-.429 1.295 1.295 0 0 0-.639-.153c-.248 0-.462.05-.643.153a1.068 1.068 0 0 0-.416.429 1.28 1.28 0 0 0-.149.625c0 .245.049.455.145.63.099.172.239.305.42.398.184.091.401.136.652.136s.466-.045.647-.136a.977.977 0 0 0 .416-.398 1.26 1.26 0 0 0 .149-.63Zm.665-2.97c0 .309-.082.587-.245.835a1.709 1.709 0 0 1-.67.587 2.106 2.106 0 0 1-.962.214c-.365 0-.69-.072-.976-.214a1.667 1.667 0 0 1-.665-.587 1.509 1.509 0 0 1-.241-.835c0-.37.081-.686.241-.945.163-.26.386-.458.669-.595a2.18 2.18 0 0 1 .967-.206c.365 0 .689.069.972.206.283.137.504.335.665.595.163.26.245.574.245.945Zm-.81.013a1.15 1.15 0 0 0-.135-.565.997.997 0 0 0-.377-.385 1.067 1.067 0 0 0-.56-.144c-.213 0-.399.045-.56.136a.95.95 0 0 0-.372.376 1.221 1.221 0 0 0-.131.582c0 .219.044.41.131.573.091.163.216.29.377.38.16.091.347.136.56.136.213 0 .398-.045.555-.135a.966.966 0 0 0 .377-.381 1.17 1.17 0 0 0 .135-.573Zm6.156 4.034v.665h-4.169v-.582l2.087-2.323c.256-.286.455-.528.595-.727.142-.201.242-.38.297-.538.058-.16.088-.324.088-.49 0-.21-.044-.4-.132-.569a.98.98 0 0 0-.376-.41 1.13 1.13 0 0 0-.604-.154c-.283 0-.519.055-.708.166a1.03 1.03 0 0 0-.421.455 1.55 1.55 0 0 0-.14.674h-.809c0-.359.079-.687.236-.984.158-.298.391-.534.7-.71.31-.177.69-.266 1.142-.266.403 0 .747.071 1.033.214.286.14.504.339.656.595.155.254.232.552.232.893 0 .186-.032.376-.096.569-.062.19-.148.379-.258.568a4.33 4.33 0 0 1-.381.56 8.857 8.857 0 0 1-.459.543l-1.707 1.85h3.194Z" fill="#333"/><path d="M339.608 89.797a.586.586 0 0 0-.929 0l-1.856 2.41a.586.586 0 0 0 .465.945h3.711a.586.586 0 0 0 .465-.944l-1.856-2.411Z" fill="#27C58B"/><rect x="233.799" y="59.867" width="55.127" height="18.767" rx="2.053" fill="#FFF4F4" stroke="#FFDFDF" stroke-width=".586"/><path d="M247.509 66.248v6.383h-1.26V67.7l-1.514.481v-.993l2.638-.94h.136Zm6.432 5.398v.985h-4.358v-.84l2.061-2.21c.207-.23.37-.433.49-.608a2.44 2.44 0 0 0 .258-.477 1.161 1.161 0 0 0-.013-.901.72.72 0 0 0-.285-.324.847.847 0 0 0-.455-.114.88.88 0 0 0-.499.14.893.893 0 0 0-.315.39 1.44 1.44 0 0 0-.105.564h-1.264c0-.379.09-.726.271-1.041a1.99 1.99 0 0 1 .766-.757c.33-.19.72-.284 1.173-.284.446 0 .822.073 1.128.219.309.142.543.35.7.62.161.27.241.59.241.963 0 .21-.034.416-.101.617a2.798 2.798 0 0 1-.288.595 4.847 4.847 0 0 1-.447.595c-.175.201-.369.41-.582.626l-1.107 1.242h2.731Zm7.346-5.385v.678l-2.464 5.692h-1.33l2.463-5.386h-3.172v-.984h4.503Zm3.889-.013v6.383h-1.26V67.7l-1.514.481v-.993l2.638-.94h.136Zm5.325-.053h.183v1.006h-.074c-.332 0-.629.05-.888.149-.26.1-.48.24-.661.424-.178.181-.315.4-.411.657-.093.256-.14.544-.14.862v1.058c0 .228.022.43.066.604.046.172.112.317.196.433.088.114.19.2.307.258a.902.902 0 0 0 .393.084c.138 0 .262-.03.372-.088a.833.833 0 0 0 .289-.245 1.13 1.13 0 0 0 .184-.376c.044-.146.066-.305.066-.477s-.022-.331-.066-.477a1.077 1.077 0 0 0-.184-.376.849.849 0 0 0-.297-.25.869.869 0 0 0-.394-.087.998.998 0 0 0-1.011.94l-.38-.245a1.754 1.754 0 0 1 .498-1.172c.155-.157.34-.28.556-.368.216-.09.459-.135.731-.135.297 0 .558.057.783.17.227.114.417.27.569.469.151.198.265.427.341.686.076.26.114.537.114.832 0 .309-.051.596-.154.862a2.006 2.006 0 0 1-1.106 1.16c-.263.11-.558.165-.884.165-.339 0-.646-.06-.923-.183a2.09 2.09 0 0 1-.709-.525 2.37 2.37 0 0 1-.46-.801 3.139 3.139 0 0 1-.157-1.015v-.49c0-.513.074-.983.223-1.409.152-.429.369-.8.652-1.111a2.897 2.897 0 0 1 1.024-.73c.399-.173.85-.259 1.352-.259Z" fill="#333"/><path d="M278.2 71.287a.586.586 0 0 0 .929 0l1.856-2.41a.586.586 0 0 0-.465-.945h-3.712a.586.586 0 0 0-.464.944l1.856 2.41Z" fill="#DD5E5E"/><rect x="295.385" y="59.869" width="55.127" height="18.767" rx="2.053" fill="#F4FFF4" stroke="#27C58B" stroke-width=".586"/><path d="M339.954 67.804a.586.586 0 0 0-.929 0l-1.856 2.41a.586.586 0 0 0 .465.945h3.711a.586.586 0 0 0 .465-.944l-1.856-2.411Z" fill="#27C58B"/><path d="M309.705 72.283v.985h-4.357v-.84l2.06-2.21a5.93 5.93 0 0 0 .49-.608c.12-.178.206-.337.258-.477a1.16 1.16 0 0 0-.013-.901.717.717 0 0 0-.284-.324.85.85 0 0 0-.455-.114.878.878 0 0 0-.499.14.893.893 0 0 0-.315.39 1.44 1.44 0 0 0-.105.564h-1.264c0-.38.09-.726.271-1.041a1.99 1.99 0 0 1 .766-.757c.329-.19.72-.285 1.172-.285.446 0 .823.073 1.129.22.309.142.542.35.7.62.16.269.241.59.241.963 0 .21-.034.416-.101.617a2.754 2.754 0 0 1-.289.595 4.736 4.736 0 0 1-.446.595c-.175.201-.369.41-.582.626l-1.107 1.242h2.73Zm1.68.026h.083c.35 0 .651-.042.902-.126a1.61 1.61 0 0 0 .625-.377c.164-.163.285-.363.363-.6a2.58 2.58 0 0 0 .119-.813v-1.207c0-.23-.024-.434-.07-.609a1.21 1.21 0 0 0-.193-.433.823.823 0 0 0-.289-.262.74.74 0 0 0-.358-.088.669.669 0 0 0-.372.105.89.89 0 0 0-.276.276 1.48 1.48 0 0 0-.171.402 1.884 1.884 0 0 0-.056.469c0 .163.018.319.056.468.038.145.095.275.171.39.076.11.171.199.284.266a.808.808 0 0 0 .403.096.917.917 0 0 0 .398-.083.948.948 0 0 0 .302-.227.966.966 0 0 0 .192-.311.897.897 0 0 0 .07-.346l.416.228c0 .204-.044.405-.131.604a1.86 1.86 0 0 1-.906.927 1.518 1.518 0 0 1-.656.144c-.298 0-.562-.053-.792-.161a1.727 1.727 0 0 1-.586-.455 2.058 2.058 0 0 1-.359-.683 2.79 2.79 0 0 1-.123-.844c0-.31.05-.6.149-.871.102-.271.247-.51.433-.718.19-.207.416-.368.679-.485.265-.12.56-.18.883-.18.324 0 .619.063.884.189.266.125.493.303.683.533.189.228.335.5.437.819.105.317.158.67.158 1.058v.438c0 .414-.046.799-.136 1.155a3.37 3.37 0 0 1-.398.967 2.745 2.745 0 0 1-1.562 1.203 3.847 3.847 0 0 1-1.155.162h-.101v-1.02Zm10.842-.026v.985h-4.358v-.84l2.061-2.21c.207-.23.37-.433.49-.608.12-.178.206-.337.258-.477a1.16 1.16 0 0 0-.013-.901.717.717 0 0 0-.284-.324.853.853 0 0 0-.455-.114.878.878 0 0 0-.499.14.893.893 0 0 0-.315.39 1.44 1.44 0 0 0-.105.564h-1.265c0-.38.091-.726.272-1.041.18-.318.436-.57.765-.757.33-.19.721-.285 1.173-.285.446 0 .822.073 1.129.22.309.142.542.35.7.62.16.269.24.59.24.963 0 .21-.033.416-.1.617a2.8 2.8 0 0 1-.289.595 4.835 4.835 0 0 1-.446.595c-.175.201-.369.41-.582.626l-1.107 1.242h2.73Zm4.038-5.451h.184v1.006h-.074c-.333 0-.629.05-.889.149-.259.099-.479.24-.66.424-.178.181-.315.4-.411.656-.094.257-.14.544-.14.862v1.06c0 .227.021.428.065.603.047.172.112.316.197.433.088.114.19.2.306.258a.908.908 0 0 0 .394.083.791.791 0 0 0 .372-.087.832.832 0 0 0 .289-.245c.081-.108.143-.234.183-.377.044-.145.066-.304.066-.476s-.022-.331-.066-.477a1.075 1.075 0 0 0-.183-.376.842.842 0 0 0-.692-.337.982.982 0 0 0-.525.14 1.01 1.01 0 0 0-.35.35.95.95 0 0 0-.135.45l-.381-.245c.009-.224.056-.437.14-.639.088-.2.207-.379.359-.533.154-.158.34-.28.556-.368.215-.09.459-.136.73-.136.298 0 .559.057.783.171.228.114.417.27.569.468.152.199.266.428.341.687.076.26.114.537.114.832 0 .309-.051.596-.153.861a2.023 2.023 0 0 1-.433.696 1.959 1.959 0 0 1-.674.464c-.262.11-.557.166-.884.166a2.25 2.25 0 0 1-.923-.184 2.11 2.11 0 0 1-.709-.525 2.384 2.384 0 0 1-.459-.8 3.138 3.138 0 0 1-.158-1.015v-.49c0-.514.075-.983.224-1.41.151-.428.369-.798.651-1.11a2.906 2.906 0 0 1 1.024-.731 3.39 3.39 0 0 1 1.352-.258Zm6.182 2.69v1.103c0 .478-.051.891-.153 1.238a2.243 2.243 0 0 1-.442.849c-.189.219-.415.38-.678.486a2.334 2.334 0 0 1-.875.157 2.56 2.56 0 0 1-.717-.096 1.807 1.807 0 0 1-.6-.31 1.985 1.985 0 0 1-.455-.53 2.755 2.755 0 0 1-.289-.77 4.69 4.69 0 0 1-.1-1.024v-1.103c0-.478.051-.888.153-1.229a2.28 2.28 0 0 1 .442-.844c.192-.22.42-.38.682-.482.263-.105.555-.157.875-.157.257 0 .495.033.714.1.221.065.421.165.599.302.178.137.33.314.455.53.125.213.222.468.289.765.067.295.1.633.1 1.015Zm-1.264 1.27v-1.44a4.1 4.1 0 0 0-.039-.604 1.782 1.782 0 0 0-.11-.438.912.912 0 0 0-.184-.297.672.672 0 0 0-.249-.166.878.878 0 0 0-.311-.053.836.836 0 0 0-.38.083.709.709 0 0 0-.276.267 1.44 1.44 0 0 0-.175.481 3.946 3.946 0 0 0-.057.727v1.44c0 .23.012.432.035.607.026.175.064.326.114.451.052.123.114.223.184.302a.672.672 0 0 0 .249.166.913.913 0 0 0 .315.053c.14 0 .264-.028.372-.084a.731.731 0 0 0 .28-.27 1.41 1.41 0 0 0 .175-.49c.038-.202.057-.447.057-.736Z" fill="#333"/></svg>