<svg width="380" height="148" fill="none" xmlns="http://www.w3.org/2000/svg"><rect width="380" height="148" rx="12.408" fill="#fff"/><rect width="380" height="148" rx="12.408" fill="#fff"/><path d="M161.702 124.524h-2.514l-.013-1.24h2.195c.37 0 .684-.054.942-.162a1.3 1.3 0 0 0 .596-.481c.136-.213.203-.468.203-.766 0-.33-.063-.598-.189-.806a1.088 1.088 0 0 0-.583-.454c-.258-.095-.587-.142-.989-.142h-1.647v8.509h-1.7v-9.864h3.347c.542 0 1.025.052 1.45.155a2.99 2.99 0 0 1 1.09.488c.303.217.531.493.685.827.158.334.237.732.237 1.192 0 .407-.097.779-.291 1.118a2.22 2.22 0 0 1-.861.82c-.379.212-.851.339-1.416.379l-.542.427Zm-.074 4.458h-2.975l.766-1.348h2.209c.383 0 .704-.063.962-.19.257-.131.449-.309.576-.535.13-.23.196-.499.196-.806a1.9 1.9 0 0 0-.169-.833 1.164 1.164 0 0 0-.536-.549c-.244-.131-.562-.197-.955-.197h-1.911l.014-1.24h2.486l.387.468c.542.018.987.138 1.334.359.353.221.615.508.786.86.172.353.258.732.258 1.139 0 .628-.138 1.154-.413 1.578-.271.425-.662.748-1.173.969-.51.217-1.124.325-1.842.325Zm6.741-7.33v7.33h-1.633v-7.33h1.633Zm4.783 0-3.299 4.41h-1.863l-.217-1.477h1.362l1.978-2.933h2.039Zm-1.91 7.33-2.209-3.198 1.287-.928 3.069 4.126h-2.147Zm7.961-7.33v1.3h-3.578v-1.3h3.578Zm1.28 0v7.33h-1.633v-7.33h1.633Zm-5.258 0h1.613l-.196 3.624a10.162 10.162 0 0 1-.163 1.423 4.744 4.744 0 0 1-.312 1.05 2.23 2.23 0 0 1-.481.705 1.772 1.772 0 0 1-.664.4 2.64 2.64 0 0 1-.853.128h-.509l-.006-1.341.257-.02a1.01 1.01 0 0 0 .434-.129.972.972 0 0 0 .311-.325c.091-.14.163-.321.217-.542.059-.222.104-.484.136-.786.036-.303.063-.655.081-1.057l.135-3.13Zm7.06 6.517c0-.253.086-.465.258-.636.171-.177.404-.265.698-.265.298 0 .53.088.698.265a.864.864 0 0 1 .257.636.866.866 0 0 1-.257.637c-.168.172-.4.258-.698.258-.294 0-.527-.086-.698-.258a.863.863 0 0 1-.258-.637Z" fill="#27C58B"/><rect x="189.707" y="116.973" width="35.681" height="13.876" rx="6.938" fill="#27C58B" fill-opacity=".68"/><g filter="url(#a)"><rect x="205.564" y="114" width="19.823" height="19.823" rx="9.911" fill="#27C58B"/></g><rect x="170.5" y="16" width="40" height="37.108" rx="6.747" fill="#FDF7E4"/><g clip-path="url(#b)"><path d="M178.723 34.073c0-6.497 5.316-11.812 11.812-11.812 6.497 0 11.812 5.315 11.812 11.812 0 6.496-5.315 11.812-11.812 11.812-6.496 0-11.812-5.316-11.812-11.812Z" fill="#1A4A7F"/><path fill-rule="evenodd" clip-rule="evenodd" d="M188.841 45.885a11.52 11.52 0 0 1-6.337-3.181l10.736-9.766-6.114 1.48c-1.715.443-3.429-.592-3.802-2.294v-.074c-.373-1.701.671-3.403 2.386-3.847l12.823-3.107c5.07 4.217 5.741 11.689 1.491 16.646a11.967 11.967 0 0 1-4.398 3.255c0-.444 0-.888.149-1.258l2.013-5.992c-.075 0-8.947 8.138-8.947 8.138Z" fill="url(#c)"/></g><path d="M91.948 69.974h-1.986v-1.398h1.582c.463 0 .838-.07 1.125-.21a1.4 1.4 0 0 0 .633-.616c.134-.264.202-.574.202-.932a1.5 1.5 0 0 0-.229-.808c-.146-.246-.375-.443-.685-.59-.31-.151-.706-.228-1.187-.228-.363 0-.694.065-.993.194-.299.129-.536.31-.712.545a1.329 1.329 0 0 0-.263.835h-2.628c0-.563.12-1.067.36-1.512a3.47 3.47 0 0 1 1.002-1.143c.428-.316.92-.556 1.477-.72a6.188 6.188 0 0 1 1.757-.246c.721 0 1.371.079 1.951.237.58.152 1.079.38 1.495.685.416.305.735.683.958 1.134.222.451.334.976.334 1.573 0 .44-.1.853-.3 1.24a3.13 3.13 0 0 1-.852 1.02 4.269 4.269 0 0 1-1.327.694 5.631 5.631 0 0 1-1.714.246Zm-1.986-.765h1.986c.698 0 1.316.073 1.855.22.545.146 1.005.36 1.38.641.38.282.668.63.86 1.046.2.41.3.882.3 1.415 0 .598-.123 1.128-.37 1.591-.24.463-.582.856-1.028 1.178-.44.322-.96.565-1.564.73a7.458 7.458 0 0 1-1.978.245c-.574 0-1.145-.07-1.714-.21a5.243 5.243 0 0 1-1.546-.668 3.41 3.41 0 0 1-1.108-1.152c-.275-.469-.413-1.031-.413-1.687h2.646c0 .31.09.594.272.852.182.252.434.454.756.607.322.146.691.22 1.107.22.487 0 .9-.077 1.24-.23.345-.151.606-.36.782-.623.181-.27.272-.566.272-.888a2.44 2.44 0 0 0-.14-.879 1.431 1.431 0 0 0-.413-.589 1.646 1.646 0 0 0-.677-.343 3.604 3.604 0 0 0-.923-.105h-1.582v-1.37Zm13.307 4.755v-4.236c0-.305-.05-.566-.15-.783a1.109 1.109 0 0 0-.466-.518c-.205-.123-.471-.185-.799-.185-.282 0-.525.05-.73.15a1.06 1.06 0 0 0-.475.413 1.144 1.144 0 0 0-.167.624h-2.53c0-.405.093-.788.28-1.152a2.88 2.88 0 0 1 .818-.958c.357-.28.782-.5 1.274-.659a5.502 5.502 0 0 1 1.67-.237c.738 0 1.395.123 1.969.369a3.007 3.007 0 0 1 1.353 1.107c.334.493.501 1.108.501 1.846v4.07c0 .52.033.949.097 1.283a3.4 3.4 0 0 0 .281.861v.15h-2.557a3.678 3.678 0 0 1-.282-.967 8.048 8.048 0 0 1-.087-1.178Zm.334-3.648.017 1.433h-1.415a2.96 2.96 0 0 0-.87.114 1.617 1.617 0 0 0-.606.326 1.247 1.247 0 0 0-.352.474c-.07.182-.106.38-.106.598 0 .217.05.413.15.589.1.17.243.304.431.404.187.094.407.14.659.14.381 0 .712-.076.993-.228.281-.152.498-.34.65-.563.158-.222.241-.433.246-.632l.668 1.072c-.093.24-.222.49-.386.747a3.517 3.517 0 0 1-.607.73 3.13 3.13 0 0 1-.887.553c-.346.14-.756.211-1.231.211-.603 0-1.151-.12-1.643-.36a2.996 2.996 0 0 1-1.16-1.01 2.654 2.654 0 0 1-.423-1.478c0-.498.094-.94.282-1.327a2.59 2.59 0 0 1 .826-.975c.369-.27.829-.472 1.38-.607.551-.14 1.189-.21 1.916-.21h1.468Zm18.905 3.824-.176 4.79h-2.355v-2.822h-1.064V74.14h3.595Zm-14.775-7.541h2.532v7.532h2.636v-7.532h2.54v7.532h2.628v-7.532h2.532v9.51h-12.868v-9.51Zm18.8 5.976 3.191-5.976h2.531v9.51h-2.531v-5.986l-3.191 5.985h-2.531v-9.51h2.531v5.977Zm12.516-5.976v9.51h-2.54v-9.51h2.54Zm3.058 0v1.96h-8.613v-1.96h8.613Zm6.285 7.365v-4.236c0-.305-.05-.566-.15-.783a1.109 1.109 0 0 0-.466-.518c-.205-.123-.471-.185-.799-.185-.282 0-.525.05-.73.15a1.06 1.06 0 0 0-.475.413 1.144 1.144 0 0 0-.167.624h-2.531c0-.405.094-.788.281-1.152a2.88 2.88 0 0 1 .818-.958c.357-.28.782-.5 1.274-.659a5.502 5.502 0 0 1 1.67-.237c.738 0 1.395.123 1.969.369a3.007 3.007 0 0 1 1.353 1.107c.334.493.501 1.108.501 1.846v4.07c0 .52.033.949.097 1.283a3.4 3.4 0 0 0 .281.861v.15h-2.557a3.678 3.678 0 0 1-.282-.967 8.048 8.048 0 0 1-.087-1.178Zm.334-3.648.017 1.433h-1.415a2.96 2.96 0 0 0-.87.114 1.617 1.617 0 0 0-.606.326 1.247 1.247 0 0 0-.352.474c-.07.182-.105.38-.105.598 0 .217.049.413.149.589.1.17.243.304.431.404.187.094.407.14.659.14.381 0 .712-.076.993-.228.281-.152.498-.34.65-.563.159-.222.241-.433.246-.632l.668 1.072c-.093.24-.222.49-.386.747a3.517 3.517 0 0 1-.607.73 3.13 3.13 0 0 1-.887.553c-.346.14-.756.211-1.231.211-.603 0-1.151-.12-1.643-.36a2.994 2.994 0 0 1-1.161-1.01 2.656 2.656 0 0 1-.422-1.478c0-.498.094-.94.282-1.327.187-.386.463-.712.826-.975.369-.27.829-.472 1.38-.607.551-.14 1.189-.21 1.916-.21h1.468Zm8.244 1.134v-.184c0-.698.099-1.34.299-1.925a4.447 4.447 0 0 1 .87-1.538c.381-.434.849-.77 1.406-1.011.557-.246 1.195-.37 1.916-.37.721 0 1.362.124 1.925.37a3.89 3.89 0 0 1 1.415 1.01c.387.434.679.947.879 1.539a5.95 5.95 0 0 1 .299 1.925v.184c0 .692-.1 1.333-.299 1.925a4.495 4.495 0 0 1-.879 1.538c-.381.434-.85.77-1.406 1.01-.557.241-1.196.361-1.916.361-.721 0-1.363-.12-1.925-.36a3.973 3.973 0 0 1-1.415-1.01 4.558 4.558 0 0 1-.87-1.539 5.976 5.976 0 0 1-.299-1.925Zm2.531-.184v.184c0 .399.035.77.105 1.116.071.346.182.65.334.915.159.257.364.46.616.606.252.146.559.22.923.22.351 0 .653-.074.905-.22.252-.147.454-.349.606-.606.153-.264.264-.569.334-.915.076-.345.114-.717.114-1.116v-.184c0-.387-.038-.75-.114-1.09a2.851 2.851 0 0 0-.343-.914 1.698 1.698 0 0 0-.606-.633c-.252-.152-.557-.229-.914-.229s-.662.077-.914.229a1.807 1.807 0 0 0-.607.633 3.044 3.044 0 0 0-.334.914c-.07.34-.105.703-.105 1.09Zm12.63-4.667v9.51h-2.54v-9.51h2.54Zm3.058 0v1.96h-8.613v-1.96h8.613Zm9.704 7.708c.31 0 .586-.059.826-.176.24-.123.427-.293.562-.51.141-.223.214-.483.22-.782h2.382a3.174 3.174 0 0 1-.536 1.784 3.695 3.695 0 0 1-1.415 1.222c-.592.293-1.254.44-1.987.44-.738 0-1.383-.124-1.933-.37a3.783 3.783 0 0 1-1.363-1.02 4.476 4.476 0 0 1-.817-1.529 6.307 6.307 0 0 1-.272-1.88v-.255c0-.674.09-1.301.272-1.881a4.372 4.372 0 0 1 .817-1.53 3.74 3.74 0 0 1 1.363-1.028c.545-.246 1.183-.37 1.916-.37.779 0 1.462.15 2.048.45a3.342 3.342 0 0 1 1.388 1.282c.34.551.513 1.204.519 1.96h-2.382a1.984 1.984 0 0 0-.202-.861 1.459 1.459 0 0 0-.545-.615c-.234-.159-.525-.238-.87-.238-.369 0-.671.08-.905.238a1.505 1.505 0 0 0-.545.632c-.129.264-.22.566-.273.906a7.57 7.57 0 0 0-.07 1.055v.254c0 .37.023.724.07 1.064.047.34.135.641.264.905.135.264.319.472.554.624.234.153.539.229.914.229Zm8.156-7.708v9.51h-2.531v-9.51h2.531Zm6.179 0-4.096 5.95h-2.531l-.308-2.338h1.679l2.048-3.612h3.208Zm-3.094 9.51-2.338-4.017 2.206-1.222 3.524 5.238h-3.392Zm10.74-9.51v1.986h-4.676v-1.986h4.676Zm1.855 0v9.51h-2.532v-9.51h2.532Zm-7.164 0h2.488l-.255 4.798a11.615 11.615 0 0 1-.22 1.811 5.492 5.492 0 0 1-.448 1.336 2.99 2.99 0 0 1-.659.905 2.332 2.332 0 0 1-.888.501 3.662 3.662 0 0 1-1.107.158h-.774l-.026-1.995.325-.035a1.1 1.1 0 0 0 .492-.158c.147-.094.27-.226.369-.396.106-.175.194-.395.264-.659.07-.27.126-.586.167-.949.047-.363.079-.782.097-1.257l.175-4.06Zm11.646 5.976 3.19-5.976h2.532v9.51h-2.532v-5.986l-3.19 5.985h-2.531v-9.51h2.531v5.977Zm10.371-5.976v9.51h-2.531v-9.51h2.531Zm6.179 0-4.096 5.95h-2.531l-.308-2.338h1.679l2.048-3.612h3.208Zm-3.094 9.51-2.338-4.017 2.206-1.222 3.525 5.238h-3.393Zm6.864-3.534 3.191-5.976h2.531v9.51h-2.531v-5.986l-3.191 5.985H231v-9.51h2.531v5.977Zm12.41-.44h-2.979l-.018-1.66h2.461c.328 0 .595-.033.8-.097.205-.07.355-.173.448-.308.1-.14.15-.31.15-.51a.95.95 0 0 0-.097-.448.748.748 0 0 0-.272-.316 1.253 1.253 0 0 0-.466-.176 2.95 2.95 0 0 0-.642-.061h-1.424v7.55h-2.531v-9.51h3.955a7.6 7.6 0 0 1 1.67.167 3.87 3.87 0 0 1 1.257.483c.351.217.618.492.8.826.187.328.281.718.281 1.17 0 .292-.067.567-.202.825a1.996 1.996 0 0 1-.58.686 3.27 3.27 0 0 1-.958.492 5.16 5.16 0 0 1-1.301.229l-.352.659Zm0 3.973h-3.603l.87-1.96h2.733c.311 0 .566-.038.765-.114a.871.871 0 0 0 .44-.334.978.978 0 0 0 .149-.545c0-.205-.044-.383-.132-.536a.844.844 0 0 0-.431-.351c-.193-.088-.457-.132-.791-.132h-2.364l.018-1.661h2.689l.615.668c.668.04 1.219.167 1.653.377.433.211.753.481.958.81.211.321.316.676.316 1.063 0 .45-.085.846-.255 1.186-.17.34-.422.624-.756.853-.328.222-.732.392-1.212.51a7.417 7.417 0 0 1-1.662.166Zm10.574-2.144v-4.236c0-.305-.05-.566-.15-.783a1.109 1.109 0 0 0-.466-.518c-.205-.123-.471-.185-.799-.185-.282 0-.525.05-.73.15a1.053 1.053 0 0 0-.474.413 1.136 1.136 0 0 0-.167.624h-2.532c0-.405.094-.788.282-1.152.187-.363.459-.682.817-.958.357-.28.782-.5 1.274-.659a5.502 5.502 0 0 1 1.67-.237c.739 0 1.395.123 1.969.369a3.007 3.007 0 0 1 1.353 1.107c.334.493.501 1.108.501 1.846v4.07c0 .52.033.949.097 1.283a3.4 3.4 0 0 0 .281.861v.15h-2.557a3.642 3.642 0 0 1-.281-.967 7.914 7.914 0 0 1-.088-1.178Zm.334-3.648.017 1.433h-1.415a2.96 2.96 0 0 0-.87.114 1.617 1.617 0 0 0-.606.326 1.247 1.247 0 0 0-.352.474c-.07.182-.105.38-.105.598 0 .217.049.413.149.589.1.17.243.304.431.404.187.094.407.14.659.14.381 0 .712-.076.993-.228.281-.152.498-.34.65-.563.159-.222.241-.433.246-.632l.668 1.072c-.093.24-.222.49-.386.747a3.486 3.486 0 0 1-.607.73 3.13 3.13 0 0 1-.887.553c-.346.14-.756.211-1.231.211-.603 0-1.151-.12-1.643-.36a3 3 0 0 1-1.161-1.01 2.655 2.655 0 0 1-.421-1.478c0-.498.093-.94.281-1.327.187-.386.463-.712.826-.975.369-.27.829-.472 1.38-.607.551-.14 1.189-.21 1.916-.21h1.468Zm10.678.123v1.97h-4.834v-1.97h4.834Zm-3.99-3.84v9.51h-2.531v-9.51h2.531Zm5.704 0v9.51h-2.54v-9.51h2.54Zm4.491 5.976 3.191-5.976h2.531v9.51h-2.531v-5.986l-3.191 5.985h-2.531v-9.51h2.531v5.977Zm9.721-1.213h2.567l-2.646 4.746h-2.558l2.637-4.746Zm1.705-4.763h4.175v9.51h-2.531v-7.55h-1.644c-.346 0-.633.064-.861.193a1.23 1.23 0 0 0-.51.483 1.173 1.173 0 0 0 0 1.178c.106.188.27.343.492.466.223.123.501.184.835.184h2.628v1.723h-2.628a5.758 5.758 0 0 1-1.687-.228 4.014 4.014 0 0 1-1.266-.633 2.956 2.956 0 0 1-.8-.958 2.717 2.717 0 0 1-.272-1.213c0-.457.094-.876.281-1.257.188-.38.457-.715.809-1.002a3.695 3.695 0 0 1 1.274-.66 5.682 5.682 0 0 1 1.705-.236ZM124.6 95.136h-2.98l-.017-1.661h2.46c.329 0 .595-.033.8-.097.205-.07.355-.173.449-.308a.863.863 0 0 0 .149-.51.95.95 0 0 0-.097-.448.741.741 0 0 0-.272-.316 1.253 1.253 0 0 0-.466-.176 2.95 2.95 0 0 0-.642-.061h-1.423v7.55h-2.532v-9.51h3.955a7.6 7.6 0 0 1 1.67.167 3.87 3.87 0 0 1 1.257.483c.352.217.618.492.8.826.187.328.281.718.281 1.17 0 .292-.067.567-.202.825a1.996 1.996 0 0 1-.58.686 3.27 3.27 0 0 1-.958.492 5.16 5.16 0 0 1-1.301.229l-.351.659Zm0 3.972h-3.604l.87-1.96h2.734c.31 0 .565-.038.764-.114a.871.871 0 0 0 .44-.334.978.978 0 0 0 .149-.545c0-.205-.044-.383-.132-.536a.846.846 0 0 0-.43-.351c-.194-.088-.457-.132-.791-.132h-2.365l.018-1.661h2.689l.616.668c.668.04 1.218.167 1.652.377.434.211.753.481.958.81.211.321.316.676.316 1.063 0 .45-.085.846-.255 1.186a2.23 2.23 0 0 1-.755.853c-.328.222-.733.392-1.213.51a7.408 7.408 0 0 1-1.661.166Zm16.883-4.649h-3.48l-.888-.37c-1.002-.316-1.769-.79-2.303-1.423-.527-.633-.791-1.438-.791-2.417 0-.861.191-1.582.572-2.162.386-.586.931-1.028 1.635-1.327.709-.3 1.549-.449 2.522-.449h4.465v12.797h-2.646V88.377h-1.819c-.721 0-1.251.179-1.591.536-.34.358-.51.864-.51 1.52 0 .481.08.877.238 1.187.158.305.389.533.694.686.305.146.689.22 1.151.22h2.743l.008 1.933Zm-2.54-1.064-2.839 5.713h-2.856l2.848-5.713h2.847Zm12.78.044v1.97h-4.834v-1.97h4.834Zm-3.991-3.84v9.51h-2.531v-9.51h2.531Zm5.705 0v9.51h-2.541v-9.51h2.541Zm3.682 0h2.531l-.079 3.181c-.023 1.02-.14 1.896-.351 2.628-.211.733-.492 1.348-.844 1.846a4.578 4.578 0 0 1-1.204 1.195 5.296 5.296 0 0 1-1.406.66h-.475l-.026-1.952.263-.026a6.48 6.48 0 0 0 .739-.905c.193-.3.342-.613.448-.94.105-.329.181-.695.228-1.1.053-.404.085-.873.097-1.406l.079-3.181Zm.686 0h6.301v9.51h-2.522v-7.48h-3.779v-2.03Zm-3.094 7.532h10.758v4.834h-2.531v-2.857h-5.634v2.857h-2.593v-4.834Zm16.427 2.153c-.739 0-1.401-.117-1.987-.351a4.36 4.36 0 0 1-1.494-.994 4.405 4.405 0 0 1-.931-1.467 4.938 4.938 0 0 1-.326-1.793v-.352c0-.72.103-1.38.308-1.977a4.648 4.648 0 0 1 .879-1.556c.387-.44.855-.776 1.406-1.01.551-.241 1.172-.361 1.863-.361.674 0 1.272.111 1.793.334a3.5 3.5 0 0 1 1.31.95c.357.41.627.901.809 1.476.181.568.272 1.2.272 1.898v1.055h-7.559v-1.688h5.072v-.193c0-.352-.065-.665-.194-.94a1.49 1.49 0 0 0-.562-.668c-.252-.165-.574-.247-.967-.247-.334 0-.621.074-.861.22-.24.147-.437.352-.589.615a3.325 3.325 0 0 0-.334.932 5.95 5.95 0 0 0-.106 1.16v.352c0 .38.053.732.159 1.054.111.323.266.601.465.835.206.235.452.416.739.545.293.13.624.194.993.194.457 0 .882-.088 1.274-.264a2.756 2.756 0 0 0 1.029-.817l1.23 1.335a3.753 3.753 0 0 1-.817.827c-.34.263-.75.48-1.231.65-.48.164-1.028.246-1.643.246Zm8.042-9.685v9.51h-2.532v-9.51h2.532Zm6.178 0-4.095 5.95h-2.532l-.307-2.338h1.679l2.047-3.612h3.208Zm-3.093 9.51-2.338-4.017 2.206-1.222 3.524 5.238h-3.392Zm8.13-1.802c.31 0 .585-.059.826-.176.24-.123.427-.293.562-.51.141-.223.214-.483.22-.782h2.382a3.174 3.174 0 0 1-.536 1.784 3.695 3.695 0 0 1-1.415 1.222c-.592.293-1.254.44-1.987.44-.738 0-1.383-.124-1.933-.37a3.783 3.783 0 0 1-1.363-1.02 4.476 4.476 0 0 1-.817-1.529 6.307 6.307 0 0 1-.272-1.88v-.255c0-.674.09-1.301.272-1.881a4.372 4.372 0 0 1 .817-1.53 3.74 3.74 0 0 1 1.363-1.028c.545-.246 1.183-.37 1.916-.37.779 0 1.462.15 2.048.45a3.342 3.342 0 0 1 1.388 1.282c.34.551.513 1.204.519 1.96h-2.382a1.984 1.984 0 0 0-.202-.861 1.459 1.459 0 0 0-.545-.615c-.235-.159-.525-.238-.87-.238-.369 0-.671.08-.906.238a1.51 1.51 0 0 0-.544.632c-.129.264-.22.566-.273.906a7.57 7.57 0 0 0-.07 1.055v.254c0 .37.023.724.07 1.064.047.34.135.641.264.905.135.264.319.472.553.624.235.153.54.229.915.229Zm20.25-.255v2.056h-9.22v-2.056h9.22Zm-8.438 0v5.194h-2.478l-.141-5.194h2.619Zm10.336 0-.229 5.203h-2.417v-5.203h2.646Zm-3.349-10.74v2.065h-6.161v-2.066h6.161Zm1.881 0v12.796h-2.628V86.311h2.628Zm-8.367 0h2.637l-.343 5.211a16.83 16.83 0 0 1-.281 2.286 10.863 10.863 0 0 1-.475 1.731 7.885 7.885 0 0 1-.606 1.31 6.46 6.46 0 0 1-.703.966c-.247.27-.496.51-.748.721a17.66 17.66 0 0 1-.738.571h-1.512v-2.056h.589c.17-.14.349-.334.536-.58.194-.246.375-.578.545-.993.176-.422.329-.956.457-1.6.135-.645.235-1.43.299-2.356l.343-5.212Zm13.562 9.263 3.19-5.976h2.531v9.51h-2.531v-5.986l-3.19 5.985h-2.532v-9.51h2.532v5.977Zm10.204-4.148v11.338h-2.532V89.599h2.347l.185 1.828Zm6.02 2.821v.185c0 .691-.082 1.333-.246 1.924a4.811 4.811 0 0 1-.703 1.547 3.341 3.341 0 0 1-1.16 1.02c-.457.24-.985.36-1.582.36-.58 0-1.084-.117-1.512-.351a3.147 3.147 0 0 1-1.081-.985 5.674 5.674 0 0 1-.694-1.485 11.726 11.726 0 0 1-.405-1.81v-.484c.094-.691.229-1.324.405-1.898.175-.58.407-1.082.694-1.503a3.14 3.14 0 0 1 1.072-.994c.428-.234.929-.351 1.503-.351.604 0 1.134.114 1.591.343.463.228.85.556 1.16.984.317.428.554.938.712 1.53.164.591.246 1.247.246 1.968Zm-2.54.185v-.185a5.54 5.54 0 0 0-.105-1.116 2.895 2.895 0 0 0-.317-.905 1.536 1.536 0 0 0-.562-.598c-.229-.147-.507-.22-.835-.22-.346 0-.642.056-.888.167-.24.112-.436.273-.589.484a2.25 2.25 0 0 0-.343.755 4.858 4.858 0 0 0-.14.994v1.221c.029.434.111.823.246 1.17.135.34.343.609.624.808.281.199.65.299 1.107.299.334 0 .616-.074.844-.22.229-.152.413-.36.554-.624.146-.264.249-.569.307-.914.065-.346.097-.718.097-1.116Zm8.49 4.851c-.738 0-1.4-.117-1.986-.351a4.36 4.36 0 0 1-1.494-.994 4.423 4.423 0 0 1-.932-1.467 4.938 4.938 0 0 1-.325-1.793v-.352c0-.72.103-1.38.308-1.977a4.648 4.648 0 0 1 .879-1.556 3.84 3.84 0 0 1 1.406-1.01c.551-.241 1.172-.361 1.863-.361.674 0 1.272.111 1.793.334a3.5 3.5 0 0 1 1.31.95c.357.41.627.901.808 1.476.182.568.273 1.2.273 1.898v1.055h-7.559v-1.688h5.071v-.193c0-.352-.064-.665-.193-.94a1.497 1.497 0 0 0-.562-.668c-.252-.165-.575-.247-.967-.247-.334 0-.621.074-.862.22-.24.147-.436.352-.588.615a3.325 3.325 0 0 0-.334.932 5.872 5.872 0 0 0-.106 1.16v.352c0 .38.053.732.158 1.054.112.323.267.601.466.835.205.235.451.416.738.545.293.13.624.194.994.194.457 0 .881-.088 1.274-.264a2.761 2.761 0 0 0 1.028-.817l1.231 1.335a3.737 3.737 0 0 1-.818.827c-.339.263-.75.48-1.23.65-.481.164-1.028.246-1.644.246Zm8.042-9.685v9.51h-2.531v-9.51h2.531Zm6.179 0-4.096 5.95h-2.531l-.308-2.338h1.679l2.048-3.612h3.208Zm-3.094 9.51-2.338-4.017 2.206-1.222 3.525 5.238h-3.393Zm9.185-9.51v9.51h-2.54v-9.51h2.54Zm3.058 0v1.96h-8.613v-1.96h8.613Z" fill="#333"/><defs><linearGradient id="c" x1="206.602" y1="22.223" x2="166.052" y2="59.721" gradientUnits="userSpaceOnUse"><stop stop-color="#FFB800"/><stop offset="1" stop-color="#FFF11D"/></linearGradient><clipPath id="b"><path fill="#fff" transform="translate(178.723 22.26)" d="M0 0h24.096v23.624H0z"/></clipPath><filter id="a" x="200.609" y="110.035" width="29.734" height="29.733" filterUnits="userSpaceOnUse" color-interpolation-filters="sRGB"><feFlood flood-opacity="0" result="BackgroundImageFix"/><feColorMatrix in="SourceAlpha" values="0 0 0 0 0 0 0 0 0 0 0 0 0 0 0 0 0 0 127 0" result="hardAlpha"/><feOffset dy=".991"/><feGaussianBlur stdDeviation="2.478"/><feComposite in2="hardAlpha" operator="out"/><feColorMatrix values="0 0 0 0 0 0 0 0 0 0 0 0 0 0 0 0 0 0 0.12 0"/><feBlend in2="BackgroundImageFix" result="effect1_dropShadow_3_1608"/><feColorMatrix in="SourceAlpha" values="0 0 0 0 0 0 0 0 0 0 0 0 0 0 0 0 0 0 127 0" result="hardAlpha"/><feMorphology radius="1.982" in="SourceAlpha" result="effect2_dropShadow_3_1608"/><feOffset dy="2.973"/><feGaussianBlur stdDeviation=".496"/><feComposite in2="hardAlpha" operator="out"/><feColorMatrix values="0 0 0 0 0 0 0 0 0 0 0 0 0 0 0 0 0 0 0.2 0"/><feBlend in2="effect1_dropShadow_3_1608" result="effect2_dropShadow_3_1608"/><feColorMatrix in="SourceAlpha" values="0 0 0 0 0 0 0 0 0 0 0 0 0 0 0 0 0 0 127 0" result="hardAlpha"/><feOffset dy="1.982"/><feGaussianBlur stdDeviation=".991"/><feComposite in2="hardAlpha" operator="out"/><feColorMatrix values="0 0 0 0 0 0 0 0 0 0 0 0 0 0 0 0 0 0 0.14 0"/><feBlend in2="effect2_dropShadow_3_1608" result="effect3_dropShadow_3_1608"/><feBlend in="SourceGraphic" in2="effect3_dropShadow_3_1608" result="shape"/></filter></defs></svg>