<svg width="142" height="142" viewBox="0 0 142 142" fill="none" xmlns="http://www.w3.org/2000/svg">
<circle cx="71" cy="71" r="70.5" fill="white"/>
<path d="M8.5 70.5002C8.5 36.1253 36.4933 8.00049 70.7072 8.00049C104.921 8.00049 132.914 36.1253 132.914 70.5002C132.914 104.875 104.921 133 70.7072 133C36.4933 133 8.5 104.875 8.5 70.5002Z" fill="#1A4A7F"/>
<path fill-rule="evenodd" clip-rule="evenodd" d="M60.5994 132.218C48.1579 130.265 36.494 124.406 27.5518 115.421L83.5383 63.8592L51.6571 71.6716C42.7148 74.0154 33.7725 68.5467 31.8285 59.5623C31.8285 59.5623 31.8285 59.5623 31.8285 59.1717C29.8845 50.1874 35.3277 41.203 44.27 38.8593L111.143 22.4531C137.581 44.7186 141.08 84.1716 118.919 110.343C112.698 117.765 104.922 123.625 95.9797 127.531C95.9797 125.187 95.9797 122.843 96.7573 120.89L107.255 89.2497C106.866 89.2497 60.5994 132.218 60.5994 132.218Z" fill="url(#paint0_linear_649_7)"/>
<defs>
<linearGradient id="paint0_linear_649_7" x1="153.22" y1="7.28366" x2="-60.6592" y2="202.627" gradientUnits="userSpaceOnUse">
<stop stop-color="#FFB800"/>
<stop offset="1" stop-color="#FFF11D"/>
</linearGradient>
</defs>
</svg>
