<svg width="50" height="50" viewBox="0 0 50 50" fill="none" xmlns="http://www.w3.org/2000/svg">
<g clip-path="url(#clip0_9526_13194)">
<rect width="50" height="50" rx="8" fill="url(#paint0_linear_9526_13194)"/>
<rect width="50" height="50" rx="8" fill="url(#paint1_linear_9526_13194)"/>
<g filter="url(#filter0_d_9526_13194)">
<path d="M17.9619 21.1499L13.3494 24.9999L17.9619 28.8499C18.1179 28.9747 18.2474 29.1294 18.3428 29.3049C18.4382 29.4804 18.4975 29.6732 18.5174 29.872C18.5372 30.0708 18.5172 30.2715 18.4584 30.4624C18.3996 30.6534 18.3033 30.8306 18.1751 30.9838C18.0469 31.137 17.8893 31.2631 17.7118 31.3545C17.5342 31.446 17.3401 31.5011 17.1409 31.5166C16.9418 31.5321 16.7415 31.5076 16.5519 31.4446C16.3624 31.3816 16.1873 31.2814 16.0369 31.1499L10.0369 26.1499C9.86882 26.0091 9.73361 25.8331 9.64085 25.6344C9.54808 25.4358 9.5 25.2191 9.5 24.9999C9.5 24.7806 9.54808 24.564 9.64085 24.3653C9.73361 24.1666 9.86882 23.9906 10.0369 23.8499L16.0369 18.8499C16.3431 18.6049 16.733 18.4895 17.1231 18.5285C17.5133 18.5675 17.8727 18.7577 18.1243 19.0584C18.376 19.359 18.4999 19.7463 18.4696 20.1372C18.4392 20.5281 18.257 20.8916 17.9619 21.1499ZM39.9619 23.8499L33.9619 18.8499C33.6558 18.6049 33.2659 18.4895 32.8757 18.5285C32.4856 18.5675 32.1262 18.7577 31.8745 19.0584C31.6229 19.359 31.4989 19.7463 31.5293 20.1372C31.5597 20.5281 31.7419 20.8916 32.0369 21.1499L36.6619 24.9999L32.0369 28.8499C31.8845 28.9753 31.7586 29.1298 31.6665 29.3044C31.5745 29.479 31.518 29.6702 31.5006 29.8668C31.4831 30.0634 31.505 30.2616 31.5649 30.4497C31.6248 30.6377 31.7215 30.812 31.8494 30.9624C31.9913 31.1293 32.1674 31.2637 32.3658 31.3565C32.5643 31.4492 32.7804 31.4981 32.9994 31.4999C33.3514 31.4997 33.6921 31.3758 33.9619 31.1499L39.9619 26.1499C40.13 26.0091 40.2653 25.8331 40.358 25.6344C40.4508 25.4358 40.4989 25.2191 40.4989 24.9999C40.4989 24.7806 40.4508 24.564 40.358 24.3653C40.2653 24.1666 40.13 23.9906 39.9619 23.8499ZM29.5119 12.5874C29.1372 12.4541 28.725 12.4739 28.3648 12.6424C28.0045 12.8108 27.725 13.1144 27.5869 13.4874L19.5869 35.4874C19.4537 35.8621 19.4735 36.2743 19.6419 36.6345C19.8104 36.9948 20.114 37.2743 20.4869 37.4124C20.6512 37.4716 20.8248 37.5013 20.9994 37.4999C21.3078 37.5004 21.6089 37.4059 21.8617 37.2292C22.1144 37.0525 22.3066 36.8022 22.4119 36.5124L30.4119 14.5124C30.5451 14.1376 30.5254 13.7255 30.3569 13.3652C30.1885 13.0049 29.8849 12.7255 29.5119 12.5874Z" fill="#F4F8FD"/>
</g>
</g>
<defs>
<filter id="filter0_d_9526_13194" x="-32.7222" y="-29.7222" width="115.443" height="109.444" filterUnits="userSpaceOnUse" color-interpolation-filters="sRGB">
<feFlood flood-opacity="0" result="BackgroundImageFix"/>
<feColorMatrix in="SourceAlpha" type="matrix" values="0 0 0 0 0 0 0 0 0 0 0 0 0 0 0 0 0 0 127 0" result="hardAlpha"/>
<feOffset/>
<feGaussianBlur stdDeviation="21.1111"/>
<feComposite in2="hardAlpha" operator="out"/>
<feColorMatrix type="matrix" values="0 0 0 0 0.121569 0 0 0 0 0.443137 0 0 0 0 0.823529 0 0 0 1 0"/>
<feBlend mode="normal" in2="BackgroundImageFix" result="effect1_dropShadow_9526_13194"/>
<feBlend mode="normal" in="SourceGraphic" in2="effect1_dropShadow_9526_13194" result="shape"/>
</filter>
<linearGradient id="paint0_linear_9526_13194" x1="-8.65385" y1="-2.88462" x2="56.7308" y2="50" gradientUnits="userSpaceOnUse">
<stop stop-color="#43D88A"/>
<stop offset="1" stop-color="#18B7C0"/>
</linearGradient>
<linearGradient id="paint1_linear_9526_13194" x1="-8.65385" y1="-2.88462" x2="56.7308" y2="50" gradientUnits="userSpaceOnUse">
<stop stop-color="#F9BF14"/>
<stop offset="1" stop-color="#F97616"/>
</linearGradient>
<clipPath id="clip0_9526_13194">
<rect width="50" height="50" rx="8" fill="white"/>
</clipPath>
</defs>
</svg>
