<svg width="15" height="15" viewBox="0 0 15 15" fill="none" xmlns="http://www.w3.org/2000/svg">
<path d="M2.41309 4.76172V13.9574C2.41309 14.4791 2.80439 14.8704 3.32613 14.8704H11.6087C12.1305 14.8704 12.5218 14.4791 12.5218 13.9574V4.76172H2.41309ZM5.21743 13.0443H4.30439V6.58781H5.21743V13.0443ZM7.04352 13.0443H6.13048V6.58781H7.04352V13.0443ZM8.86961 13.0443H7.95656V6.58781H8.86961V13.0443ZM10.6957 13.0443H9.78265V6.58781H10.6957V13.0443Z" fill="#6695E2"/>
<path d="M12.7826 1.95695H9.78261V0.848251C9.78261 0.456946 9.45652 0.130859 9.06522 0.130859H5.86957C5.47826 0.130859 5.21739 0.456946 5.21739 0.848251V1.95695H2.21739C1.82609 1.95695 1.5 2.28303 1.5 2.67434V3.84825H13.5V2.67434C13.5 2.28303 13.1739 1.95695 12.7826 1.95695ZM8.86957 1.95695H6.13043V1.0439H8.86957V1.95695V1.95695Z" fill="#6695E2"/>
</svg>
