<svg width="22" height="13" viewBox="0 0 22 13" fill="none" xmlns="http://www.w3.org/2000/svg">
<path d="M6.6816 1.03875C6.53769 0.898733 6.34262 0.820089 6.13924 0.820089C5.93585 0.820089 5.74078 0.898733 5.59688 1.03875L0.224455 6.27243C0.0807292 6.41262 0 6.60265 0 6.80078C0 6.99891 0.0807292 7.18895 0.224455 7.32913L5.59688 12.5628C5.74237 12.6949 5.9348 12.7668 6.13363 12.7634C6.33246 12.7599 6.52217 12.6815 6.66279 12.5445C6.80341 12.4075 6.88395 12.2227 6.88746 12.029C6.89097 11.8353 6.81716 11.6478 6.6816 11.5061L2.61902 7.54845H19.381L15.3184 11.5061C15.243 11.5746 15.1825 11.6571 15.1406 11.7488C15.0986 11.8405 15.0761 11.9395 15.0742 12.0399C15.0724 12.1403 15.0914 12.24 15.13 12.3331C15.1686 12.4262 15.226 12.5108 15.2989 12.5818C15.3718 12.6528 15.4586 12.7088 15.5542 12.7464C15.6497 12.784 15.7521 12.8024 15.8552 12.8007C15.9582 12.7989 16.0598 12.7769 16.154 12.7361C16.2481 12.6952 16.3329 12.6363 16.4031 12.5628L21.7755 7.32913C21.9193 7.18895 22 6.99891 22 6.80078C22 6.60265 21.9193 6.41262 21.7755 6.27243L16.4031 1.03875C16.3329 0.965289 16.2481 0.906371 16.154 0.865506C16.0598 0.824642 15.9582 0.802669 15.8552 0.800898C15.7521 0.799126 15.6497 0.817593 15.5542 0.855197C15.4586 0.892801 15.3718 0.948771 15.2989 1.01977C15.226 1.09077 15.1686 1.17534 15.13 1.26843C15.0914 1.36153 15.0724 1.46125 15.0742 1.56164C15.0761 1.66203 15.0986 1.76103 15.1406 1.85275C15.1825 1.94446 15.243 2.027 15.3184 2.09545L19.381 6.05311H2.61902L6.6816 2.09545C6.82532 1.95526 6.90605 1.76523 6.90605 1.5671C6.90605 1.36897 6.82532 1.17894 6.6816 1.03875Z" fill="#111111"/>
</svg>
