<svg width="380" height="150" viewBox="0 0 380 150" fill="none" xmlns="http://www.w3.org/2000/svg">
<rect width="380" height="150" rx="13" fill="white"/>
<path fill-rule="evenodd" clip-rule="evenodd" d="M45.6389 32.0905C45.6389 24.6075 39.5727 18.5413 32.0897 18.5413C24.6067 18.5413 18.5405 24.6075 18.5405 32.0905C18.5405 39.5735 24.6067 45.6396 32.0897 45.6396C39.5727 45.6396 45.6389 39.5735 45.6389 32.0905ZM33.8963 39.0839V30.277H30.2832V39.0839H33.8963ZM32.0897 25.097C33.0874 25.097 33.8963 25.9058 33.8963 26.9036C33.8963 27.9013 33.0874 28.7101 32.0897 28.7101C31.092 28.7101 30.2832 27.9013 30.2832 26.9036C30.2832 25.9058 31.092 25.097 32.0897 25.097Z" fill="#EFB503"/>
<path d="M61.0218 38.5898V25.698H66.1081C67.0859 25.698 67.9189 25.8848 68.6071 26.2583C69.2953 26.6276 69.8199 27.1417 70.1808 27.8005C70.5459 28.4552 70.7285 29.2106 70.7285 30.0667C70.7285 30.9228 70.5438 31.6781 70.1745 32.3328C69.8052 32.9875 69.2702 33.4973 68.5693 33.8624C67.8727 34.2275 67.0292 34.4101 66.0388 34.4101H62.797V32.2258H65.5982C66.1227 32.2258 66.555 32.1356 66.8949 31.9551C67.239 31.7705 67.495 31.5166 67.6629 31.1934C67.8349 30.8661 67.921 30.4905 67.921 30.0667C67.921 29.6386 67.8349 29.2651 67.6629 28.9462C67.495 28.623 67.239 28.3733 66.8949 28.1971C66.5508 28.0166 66.1144 27.9264 65.5856 27.9264H63.7475V38.5898H61.0218ZM74.946 38.7724C74.3291 38.7724 73.7794 38.6654 73.2967 38.4514C72.8141 38.2331 72.4323 37.9121 72.1511 37.4882C71.8741 37.0602 71.7356 36.5272 71.7356 35.8894C71.7356 35.3522 71.8343 34.9011 72.0315 34.536C72.2287 34.1709 72.4973 33.8771 72.8372 33.6547C73.1771 33.4323 73.5632 33.2644 73.9955 33.1511C74.4319 33.0378 74.8893 32.9581 75.3677 32.9119C75.9301 32.8532 76.3833 32.7986 76.7274 32.7482C77.0715 32.6937 77.3212 32.614 77.4765 32.509C77.6318 32.4041 77.7094 32.2489 77.7094 32.0432V32.0055C77.7094 31.6068 77.5835 31.2983 77.3317 31.0801C77.0841 30.8619 76.7316 30.7528 76.2742 30.7528C75.7916 30.7528 75.4076 30.8598 75.1222 31.0738C74.8369 31.2837 74.648 31.548 74.5557 31.867L72.0756 31.6655C72.2014 31.078 72.449 30.5702 72.8183 30.1422C73.1876 29.7099 73.6639 29.3784 74.2473 29.1476C74.8348 28.9126 75.5146 28.7951 76.2868 28.7951C76.8239 28.7951 77.338 28.858 77.829 28.9839C78.3242 29.1098 78.7628 29.305 79.1446 29.5694C79.5307 29.8337 79.835 30.1737 80.0574 30.5891C80.2798 31.0004 80.391 31.4935 80.391 32.0684V38.5898H77.8479V37.249H77.7724C77.6171 37.5512 77.4094 37.8177 77.1492 38.0485C76.889 38.2751 76.5764 38.4535 76.2113 38.5835C75.8462 38.7094 75.4244 38.7724 74.946 38.7724ZM75.714 36.9217C76.1084 36.9217 76.4567 36.8441 76.7589 36.6888C77.0611 36.5293 77.2982 36.3153 77.4702 36.0467C77.6423 35.7782 77.7283 35.4739 77.7283 35.134V34.1079C77.6444 34.1625 77.529 34.2128 77.3821 34.259C77.2394 34.301 77.0778 34.3408 76.8974 34.3786C76.7169 34.4122 76.5365 34.4437 76.356 34.473C76.1756 34.4982 76.0119 34.5213 75.865 34.5423C75.5503 34.5884 75.2754 34.6619 75.0404 34.7626C74.8054 34.8633 74.6229 34.9997 74.4928 35.1718C74.3627 35.3396 74.2976 35.5494 74.2976 35.8012C74.2976 36.1663 74.4298 36.4454 74.6942 36.6384C74.9628 36.8273 75.3027 36.9217 75.714 36.9217ZM81.9742 35.8516H84.5739C84.5865 36.1705 84.7292 36.4223 85.002 36.607C85.2747 36.7916 85.6273 36.8839 86.0595 36.8839C86.4959 36.8839 86.8631 36.7832 87.1611 36.5818C87.4591 36.3762 87.608 36.0824 87.608 35.7005C87.608 35.4655 87.5493 35.262 87.4318 35.0899C87.3143 34.9137 87.1506 34.7752 86.9408 34.6745C86.7309 34.5737 86.4875 34.5234 86.2106 34.5234H84.8194V32.7671H86.2106C86.626 32.7671 86.945 32.6706 87.1674 32.4776C87.394 32.2845 87.5073 32.0432 87.5073 31.7537C87.5073 31.4263 87.3898 31.1641 87.1548 30.9668C86.924 30.7654 86.6113 30.6647 86.2169 30.6647C85.8182 30.6647 85.4867 30.7549 85.2223 30.9353C84.9621 31.1116 84.8278 31.3424 84.8194 31.6278H82.2322C82.2406 31.0486 82.4148 30.5472 82.7547 30.1233C83.0988 29.6995 83.5605 29.3721 84.1396 29.1413C84.7229 28.9105 85.3755 28.7951 86.0973 28.7951C86.8862 28.7951 87.5661 28.9063 88.1368 29.1287C88.7117 29.3469 89.1524 29.6596 89.4587 30.0667C89.7692 30.4737 89.9245 30.9584 89.9245 31.5208C89.9245 32.0327 89.7567 32.4608 89.4209 32.8049C89.0852 33.149 88.6152 33.3945 88.0109 33.5414V33.6421C88.4096 33.6673 88.7705 33.7743 89.0936 33.9631C89.4167 34.152 89.6748 34.4122 89.8679 34.7437C90.0609 35.071 90.1574 35.4592 90.1574 35.9082C90.1574 36.5084 89.9812 37.0224 89.6287 37.4505C89.2804 37.8785 88.7977 38.208 88.1809 38.4388C87.5682 38.6654 86.8652 38.7787 86.0721 38.7787C85.2999 38.7787 84.6075 38.6675 83.9948 38.4451C83.3863 38.2184 82.9016 37.8869 82.5407 37.4505C82.184 37.014 81.9951 36.4811 81.9742 35.8516ZM91.802 42.2157V28.921H94.4458V30.5451H94.5654C94.6829 30.2849 94.8528 30.0205 95.0753 29.7519C95.3019 29.4791 95.5956 29.2525 95.9565 29.0721C96.3216 28.8874 96.7749 28.7951 97.3162 28.7951C98.0212 28.7951 98.6717 28.9797 99.2676 29.349C99.8635 29.7141 100.34 30.266 100.697 31.0046C101.053 31.739 101.232 32.6601 101.232 33.768C101.232 34.8465 101.057 35.7572 100.709 36.5C100.365 37.2386 99.895 37.7988 99.2991 38.1807C98.7074 38.5584 98.0443 38.7472 97.3099 38.7472C96.7895 38.7472 96.3468 38.6612 95.9817 38.4891C95.6208 38.3171 95.325 38.1009 95.0941 37.8408C94.8633 37.5764 94.6871 37.3099 94.5654 37.0413H94.4835V42.2157H91.802ZM94.4269 33.7554C94.4269 34.3303 94.5066 34.8318 94.6661 35.2599C94.8256 35.6879 95.0564 36.0216 95.3585 36.2608C95.6607 36.4958 96.0279 36.6133 96.4601 36.6133C96.8966 36.6133 97.2659 36.4937 97.568 36.2545C97.8702 36.0111 98.0989 35.6753 98.2541 35.2473C98.4136 34.815 98.4933 34.3178 98.4933 33.7554C98.4933 33.1973 98.4157 32.7063 98.2604 32.2824C98.1052 31.8586 97.8765 31.5271 97.5743 31.2878C97.2722 31.0486 96.9008 30.929 96.4601 30.929C96.0237 30.929 95.6544 31.0444 95.3522 31.2753C95.0543 31.5061 94.8256 31.8334 94.6661 32.2573C94.5066 32.6811 94.4269 33.1805 94.4269 33.7554ZM107.426 38.7787C106.431 38.7787 105.575 38.5773 104.857 38.1744C104.144 37.7673 103.594 37.1924 103.208 36.4496C102.822 35.7026 102.629 34.8192 102.629 33.7995C102.629 32.8049 102.822 31.932 103.208 31.1808C103.594 30.4297 104.138 29.8442 104.839 29.4246C105.544 29.0049 106.37 28.7951 107.319 28.7951C107.957 28.7951 108.55 28.8979 109.1 29.1035C109.654 29.305 110.137 29.6092 110.548 30.0163C110.963 30.4234 111.287 30.9353 111.517 31.5522C111.748 32.1649 111.864 32.8825 111.864 33.7051V34.4416H103.699V32.7797H109.339C109.339 32.3936 109.255 32.0516 109.088 31.7537C108.92 31.4557 108.687 31.2228 108.389 31.0549C108.095 30.8829 107.753 30.7969 107.363 30.7969C106.956 30.7969 106.595 30.8913 106.28 31.0801C105.969 31.2648 105.726 31.5145 105.55 31.8292C105.374 32.1397 105.283 32.486 105.279 32.8679V34.4479C105.279 34.9263 105.367 35.3396 105.544 35.6879C105.724 36.0362 105.978 36.3048 106.305 36.4937C106.633 36.6825 107.021 36.7769 107.47 36.7769C107.768 36.7769 108.04 36.735 108.288 36.651C108.536 36.5671 108.748 36.4412 108.924 36.2733C109.1 36.1055 109.234 35.8999 109.327 35.6565L111.807 35.8201C111.681 36.416 111.423 36.9364 111.033 37.3812C110.647 37.8219 110.147 38.166 109.534 38.4136C108.926 38.657 108.223 38.7787 107.426 38.7787ZM113.614 28.921H116.176V36.4622H118.901V28.921H121.463V36.4622H124.189V28.921H126.751V38.5898H113.614V28.921ZM131.392 35.0522L134.873 28.921H137.517V38.5898H134.961V32.4398L131.492 38.5898H128.83V28.921H131.392V35.0522ZM138.695 31.0298V28.921H147.458V31.0298H144.342V38.5898H141.786V31.0298H138.695ZM153.143 38.7787C152.149 38.7787 151.293 38.5773 150.575 38.1744C149.862 37.7673 149.312 37.1924 148.926 36.4496C148.54 35.7026 148.347 34.8192 148.347 33.7995C148.347 32.8049 148.54 31.932 148.926 31.1808C149.312 30.4297 149.855 29.8442 150.556 29.4246C151.261 29.0049 152.088 28.7951 153.036 28.7951C153.674 28.7951 154.268 28.8979 154.818 29.1035C155.372 29.305 155.854 29.6092 156.266 30.0163C156.681 30.4234 157.004 30.9353 157.235 31.5522C157.466 32.1649 157.581 32.8825 157.581 33.7051V34.4416H149.417V32.7797H155.057C155.057 32.3936 154.973 32.0516 154.805 31.7537C154.637 31.4557 154.404 31.2228 154.107 31.0549C153.813 30.8829 153.471 30.7969 153.08 30.7969C152.673 30.7969 152.313 30.8913 151.998 31.0801C151.687 31.2648 151.444 31.5145 151.268 31.8292C151.091 32.1397 151.001 32.486 150.997 32.8679V34.4479C150.997 34.9263 151.085 35.3396 151.261 35.6879C151.442 36.0362 151.696 36.3048 152.023 36.4937C152.35 36.6825 152.738 36.7769 153.187 36.7769C153.485 36.7769 153.758 36.735 154.006 36.651C154.253 36.5671 154.465 36.4412 154.642 36.2733C154.818 36.1055 154.952 35.8999 155.044 35.6565L157.525 35.8201C157.399 36.416 157.141 36.9364 156.75 37.3812C156.364 37.8219 155.865 38.166 155.252 38.4136C154.644 38.657 153.941 38.7787 153.143 38.7787ZM162.679 41.4225V36.4622H163.421C163.635 36.3279 163.807 36.1139 163.937 35.8201C164.072 35.5264 164.181 35.1801 164.265 34.7815C164.353 34.3828 164.42 33.9527 164.466 33.491C164.517 33.0252 164.561 32.5552 164.598 32.081L164.85 28.921H172.266V36.4622H173.764V41.4225H171.208V38.5898H165.297V41.4225H162.679ZM166.09 36.4622H169.735V30.9857H167.129L167.028 32.081C166.957 33.1133 166.854 33.9904 166.72 34.7122C166.585 35.4298 166.376 36.0132 166.09 36.4622ZM179.695 38.7787C178.717 38.7787 177.872 38.571 177.158 38.1555C176.449 37.7358 175.901 37.1525 175.515 36.4055C175.129 35.6544 174.936 34.7836 174.936 33.7932C174.936 32.7944 175.129 31.9215 175.515 31.1745C175.901 30.4234 176.449 29.84 177.158 29.4246C177.872 29.0049 178.717 28.7951 179.695 28.7951C180.673 28.7951 181.516 29.0049 182.226 29.4246C182.939 29.84 183.489 30.4234 183.875 31.1745C184.261 31.9215 184.454 32.7944 184.454 33.7932C184.454 34.7836 184.261 35.6544 183.875 36.4055C183.489 37.1525 182.939 37.7358 182.226 38.1555C181.516 38.571 180.673 38.7787 179.695 38.7787ZM179.708 36.7014C180.152 36.7014 180.524 36.5755 180.822 36.3237C181.12 36.0677 181.344 35.7194 181.495 35.2788C181.651 34.8381 181.728 34.3366 181.728 33.7743C181.728 33.212 181.651 32.7105 181.495 32.2698C181.344 31.8292 181.12 31.4809 180.822 31.2249C180.524 30.9689 180.152 30.8409 179.708 30.8409C179.259 30.8409 178.881 30.9689 178.575 31.2249C178.272 31.4809 178.044 31.8292 177.888 32.2698C177.737 32.7105 177.662 33.212 177.662 33.7743C177.662 34.3366 177.737 34.8381 177.888 35.2788C178.044 35.7194 178.272 36.0677 178.575 36.3237C178.881 36.5755 179.259 36.7014 179.708 36.7014ZM190.566 38.7787C189.576 38.7787 188.724 38.5689 188.01 38.1492C187.301 37.7254 186.756 37.1378 186.374 36.3867C185.996 35.6355 185.807 34.771 185.807 33.7932C185.807 32.8028 185.998 31.9341 186.38 31.1871C186.766 30.436 187.314 29.8505 188.023 29.4309C188.732 29.007 189.576 28.7951 190.554 28.7951C191.397 28.7951 192.136 28.9483 192.769 29.2546C193.403 29.561 193.904 29.9911 194.274 30.5451C194.643 31.099 194.847 31.7495 194.884 32.4965H192.354C192.283 32.0139 192.094 31.6257 191.787 31.3319C191.485 31.034 191.089 30.885 190.598 30.885C190.182 30.885 189.819 30.9983 189.509 31.2249C189.202 31.4473 188.963 31.7726 188.791 32.2006C188.619 32.6286 188.533 33.1469 188.533 33.7554C188.533 34.3723 188.617 34.8969 188.785 35.3291C188.957 35.7614 189.198 36.0908 189.509 36.3174C189.819 36.544 190.182 36.6573 190.598 36.6573C190.904 36.6573 191.179 36.5944 191.422 36.4685C191.67 36.3426 191.873 36.16 192.033 35.9208C192.196 35.6774 192.304 35.3858 192.354 35.0459H194.884C194.842 35.7845 194.641 36.4349 194.28 36.9973C193.923 37.5554 193.43 37.9918 192.801 38.3066C192.171 38.6213 191.426 38.7787 190.566 38.7787ZM195.942 31.0298V28.921H204.704V31.0298H201.588V38.5898H199.033V31.0298H195.942ZM207.985 42.2157C207.646 42.2157 207.327 42.1884 207.029 42.1338C206.735 42.0835 206.492 42.0184 206.298 41.9387L206.903 39.9369C207.218 40.0335 207.501 40.0859 207.753 40.0943C208.009 40.1027 208.229 40.0439 208.414 39.9181C208.602 39.7922 208.756 39.5781 208.873 39.276L209.03 38.8668L205.562 28.921H208.382L210.384 36.0216H210.485L212.505 28.921H215.344L211.586 39.6348C211.406 40.1552 211.16 40.6084 210.85 40.9945C210.543 41.3847 210.155 41.6848 209.685 41.8946C209.215 42.1086 208.649 42.2157 207.985 42.2157ZM216.716 38.5898V28.921H225.17V38.5898H222.608V31.0298H219.247V38.5898H216.716ZM231.413 38.5898V28.921H234.095V32.6727H234.85L237.481 28.921H240.629L237.211 33.7177L240.667 38.5898H237.481L235.096 35.1592H234.095V38.5898H231.413ZM255.848 38.5898H253.129V27.9264H251.291C250.766 27.9264 250.33 28.0041 249.981 28.1593C249.637 28.3104 249.379 28.5328 249.207 28.8266C249.035 29.1203 248.949 29.4812 248.949 29.9093C248.949 30.3331 249.035 30.6877 249.207 30.9731C249.379 31.2585 249.637 31.4725 249.981 31.6152C250.326 31.7579 250.758 31.8292 251.278 31.8292H254.237V34.0198H250.837C249.851 34.0198 249.008 33.8561 248.307 33.5288C247.606 33.2015 247.071 32.7315 246.702 32.1188C246.332 31.5019 246.148 30.7654 246.148 29.9093C246.148 29.0574 246.328 28.3167 246.689 27.6872C247.054 27.0535 247.581 26.5646 248.269 26.2205C248.962 25.8722 249.795 25.698 250.768 25.698H255.848V38.5898ZM248.892 32.7231H251.832L248.697 38.5898H245.688L248.892 32.7231ZM259.605 38.7535C259.189 38.7535 258.832 38.6066 258.534 38.3129C258.241 38.0149 258.094 37.6582 258.094 37.2428C258.094 36.8315 258.241 36.479 258.534 36.1852C258.832 35.8915 259.189 35.7446 259.605 35.7446C260.007 35.7446 260.36 35.8915 260.662 36.1852C260.964 36.479 261.115 36.8315 261.115 37.2428C261.115 37.5197 261.044 37.7736 260.901 38.0044C260.763 38.231 260.58 38.4136 260.354 38.5521C260.127 38.6864 259.877 38.7535 259.605 38.7535ZM262.669 41.6995V36.4181H263.544C263.842 36.2041 264.114 35.902 264.362 35.5117C264.61 35.1172 264.821 34.5737 264.998 33.8813C265.174 33.1847 265.3 32.274 265.375 31.1494L265.74 25.698H274.27V36.4181H275.68V41.6869H273.061V38.5898H265.287V41.6995H262.669ZM266.691 36.4181H271.651V27.9453H268.195L267.994 31.1494C267.939 32.0013 267.849 32.7566 267.723 33.4155C267.602 34.0744 267.453 34.6514 267.276 35.1466C267.104 35.6376 266.909 36.0614 266.691 36.4181ZM279.849 35.0522L283.33 28.921H285.974V38.5898H283.418V32.4398L279.949 38.5898H277.287V28.921H279.849V35.0522ZM288.123 42.2157V28.921H290.767V30.5451H290.887C291.004 30.2849 291.174 30.0205 291.397 29.7519C291.623 29.4791 291.917 29.2525 292.278 29.0721C292.643 28.8874 293.096 28.7951 293.638 28.7951C294.343 28.7951 294.993 28.9797 295.589 29.349C296.185 29.7141 296.661 30.266 297.018 31.0046C297.375 31.739 297.553 32.6601 297.553 33.768C297.553 34.8465 297.379 35.7572 297.03 36.5C296.686 37.2386 296.216 37.7988 295.62 38.1807C295.029 38.5584 294.366 38.7472 293.631 38.7472C293.111 38.7472 292.668 38.6612 292.303 38.4891C291.942 38.3171 291.646 38.1009 291.415 37.8408C291.185 37.5764 291.008 37.3099 290.887 37.0413H290.805V42.2157H288.123ZM290.748 33.7554C290.748 34.3303 290.828 34.8318 290.987 35.2599C291.147 35.6879 291.378 36.0216 291.68 36.2608C291.982 36.4958 292.349 36.6133 292.781 36.6133C293.218 36.6133 293.587 36.4937 293.889 36.2545C294.192 36.0111 294.42 35.6753 294.575 35.2473C294.735 34.815 294.815 34.3178 294.815 33.7554C294.815 33.1973 294.737 32.7063 294.582 32.2824C294.427 31.8586 294.198 31.5271 293.896 31.2878C293.593 31.0486 293.222 30.929 292.781 30.929C292.345 30.929 291.976 31.0444 291.674 31.2753C291.376 31.5061 291.147 31.8334 290.987 32.2573C290.828 32.6811 290.748 33.1805 290.748 33.7554ZM303.747 38.7787C302.752 38.7787 301.896 38.5773 301.179 38.1744C300.465 37.7673 299.916 37.1924 299.53 36.4496C299.143 35.7026 298.95 34.8192 298.95 33.7995C298.95 32.8049 299.143 31.932 299.53 31.1808C299.916 30.4297 300.459 29.8442 301.16 29.4246C301.865 29.0049 302.692 28.7951 303.64 28.7951C304.278 28.7951 304.872 28.8979 305.421 29.1035C305.975 29.305 306.458 29.6092 306.869 30.0163C307.285 30.4234 307.608 30.9353 307.839 31.5522C308.069 32.1649 308.185 32.8825 308.185 33.7051V34.4416H300.02V32.7797H305.661C305.661 32.3936 305.577 32.0516 305.409 31.7537C305.241 31.4557 305.008 31.2228 304.71 31.0549C304.416 30.8829 304.074 30.7969 303.684 30.7969C303.277 30.7969 302.916 30.8913 302.601 31.0801C302.291 31.2648 302.047 31.5145 301.871 31.8292C301.695 32.1397 301.605 32.486 301.6 32.8679V34.4479C301.6 34.9263 301.689 35.3396 301.865 35.6879C302.045 36.0362 302.299 36.3048 302.627 36.4937C302.954 36.6825 303.342 36.7769 303.791 36.7769C304.089 36.7769 304.362 36.735 304.609 36.651C304.857 36.5671 305.069 36.4412 305.245 36.2733C305.421 36.1055 305.556 35.8999 305.648 35.6565L308.128 35.8201C308.002 36.416 307.744 36.9364 307.354 37.3812C306.968 37.8219 306.468 38.166 305.856 38.4136C305.247 38.657 304.544 38.7787 303.747 38.7787ZM309.935 38.5898V28.921H312.616V32.6727H313.372L316.003 28.921H319.15L315.732 33.7177L319.188 38.5898H316.003L313.617 35.1592H312.616V38.5898H309.935ZM319.818 31.0298V28.921H328.58V31.0298H325.464V38.5898H322.908V31.0298H319.818Z" fill="#070707"/>
<path d="M24.9465 69.8499V70.6152H19.5745V69.8499H24.9465ZM19.7256 69.8499V72.3604H18.7945L18.7896 69.8499H19.7256ZM25.7655 69.8499L25.7557 72.3555H24.8246V69.8499H25.7655ZM24.0252 63.5175V64.2877H20.915V63.5175H24.0252ZM24.8344 63.5175V70.6152H23.8984V63.5175H24.8344ZM20.5933 63.5175H21.5341L21.3879 66.3742C21.3684 66.8031 21.3278 67.1996 21.266 67.5636C21.2043 67.9243 21.1279 68.2542 21.0369 68.5532C20.9459 68.8522 20.8419 69.1203 20.7249 69.3575C20.6079 69.5915 20.4828 69.7946 20.3496 69.9669C20.2163 70.1359 20.0766 70.2756 19.9303 70.3861C19.7873 70.4934 19.6427 70.5697 19.4965 70.6152H19.0675V69.8499H19.3697C19.4542 69.7589 19.5501 69.6273 19.6573 69.455C19.7678 69.2828 19.8767 69.0602 19.984 68.7872C20.0945 68.5109 20.1903 68.1746 20.2716 67.7781C20.3561 67.3816 20.4129 66.9136 20.4422 66.3742L20.5933 63.5175ZM30.3381 65.3407V66.0865H27.7885V65.3407H30.3381ZM31.1326 65.3407V70.6152H30.2308V65.3407H31.1326ZM27.5692 65.3407H28.4759L28.3394 67.8853C28.3166 68.2786 28.2793 68.6263 28.2273 68.9286C28.1785 69.2275 28.1103 69.4843 28.0225 69.6988C27.938 69.9133 27.8308 70.0888 27.7008 70.2252C27.574 70.3585 27.4213 70.4576 27.2425 70.5226C27.0638 70.5844 26.8574 70.6152 26.6234 70.6152H26.3407V69.8206L26.5357 69.806C26.6754 69.7963 26.7941 69.7638 26.8916 69.7085C26.9923 69.6533 27.0768 69.572 27.1451 69.4648C27.2133 69.3543 27.2685 69.2129 27.3108 69.0407C27.3563 68.8684 27.3904 68.6637 27.4132 68.4264C27.4392 68.1892 27.4587 67.913 27.4717 67.5977L27.5692 65.3407ZM33.6529 68.0998H34.6279L33.1021 70.6152H32.1271L33.6529 68.0998ZM34.4085 65.3407H36.6119V70.6152H35.7101V66.0719H34.4085C34.1518 66.0719 33.9422 66.1158 33.7797 66.2035C33.6172 66.288 33.4986 66.3985 33.4238 66.535C33.3491 66.6715 33.3117 66.8129 33.3117 66.9591C33.3117 67.1021 33.3458 67.2402 33.4141 67.3735C33.4823 67.5035 33.5895 67.6107 33.7358 67.6952C33.882 67.7797 34.0705 67.822 34.3013 67.822H35.9538V68.5629H34.3013C33.999 68.5629 33.7309 68.5223 33.4969 68.4411C33.2629 68.3598 33.0647 68.2477 32.9022 68.1047C32.7397 67.9585 32.6162 67.7878 32.5317 67.5929C32.4472 67.3946 32.405 67.1801 32.405 66.9494C32.405 66.7186 32.4488 66.5058 32.5366 66.3108C32.6276 66.1158 32.7576 65.9452 32.9266 65.7989C33.0988 65.6527 33.3084 65.5406 33.5554 65.4626C33.8057 65.3813 34.09 65.3407 34.4085 65.3407ZM42.5104 68.095H41.5404V67.5392H42.4373C42.6876 67.5392 42.8858 67.5084 43.0321 67.4466C43.1783 67.3816 43.2823 67.2922 43.344 67.1785C43.4058 67.0647 43.4367 66.9315 43.4367 66.7788C43.4367 66.6423 43.4009 66.5139 43.3294 66.3937C43.2612 66.2702 43.1507 66.171 42.9979 66.0963C42.8452 66.0183 42.6404 65.9793 42.3837 65.9793C42.1757 65.9793 41.9872 66.0167 41.8182 66.0914C41.6492 66.1629 41.5144 66.262 41.4136 66.3888C41.3161 66.5123 41.2674 66.652 41.2674 66.808H40.3655C40.3655 66.4863 40.4565 66.21 40.6385 65.9793C40.8238 65.7453 41.0691 65.5649 41.3746 65.4382C41.6834 65.3114 42.0197 65.2481 42.3837 65.2481C42.6892 65.2481 42.9622 65.2822 43.2027 65.3504C43.4464 65.4154 43.6528 65.5129 43.8218 65.6429C43.9908 65.7697 44.1191 65.9289 44.2069 66.1207C44.2979 66.3092 44.3434 66.5285 44.3434 66.7788C44.3434 66.9575 44.3011 67.1265 44.2166 67.2857C44.1321 67.445 44.0103 67.5864 43.851 67.7098C43.6918 67.8301 43.4984 67.9243 43.2709 67.9926C43.0467 68.0608 42.7932 68.095 42.5104 68.095ZM41.5404 67.7537H42.5104C42.8257 67.7537 43.1035 67.7846 43.344 67.8463C43.5845 67.9048 43.786 67.9926 43.9485 68.1096C44.111 68.2266 44.2329 68.3712 44.3141 68.5434C44.3986 68.7124 44.4409 68.9074 44.4409 69.1284C44.4409 69.3754 44.3905 69.598 44.2898 69.7963C44.1923 69.9913 44.0525 70.157 43.8705 70.2935C43.6885 70.43 43.4708 70.534 43.2173 70.6055C42.9671 70.677 42.6892 70.7127 42.3837 70.7127C42.0425 70.7127 41.711 70.6542 41.3892 70.5372C41.0675 70.4202 40.8026 70.2399 40.5946 69.9961C40.3867 69.7491 40.2827 69.4355 40.2827 69.0553H41.1845C41.1845 69.2145 41.2349 69.3657 41.3356 69.5087C41.4364 69.6516 41.5761 69.767 41.7549 69.8548C41.9368 69.9425 42.1465 69.9864 42.3837 69.9864C42.6372 69.9864 42.8484 69.9474 43.0174 69.8694C43.1864 69.7914 43.3132 69.6874 43.3977 69.5574C43.4854 69.4274 43.5293 69.286 43.5293 69.1333C43.5293 68.9351 43.4903 68.7758 43.4123 68.6556C43.3343 68.5353 43.214 68.4476 43.0515 68.3923C42.8923 68.3338 42.6876 68.3046 42.4373 68.3046H41.5404V67.7537ZM48.721 69.7134V66.9981C48.721 66.7901 48.6787 66.6098 48.5942 66.457C48.513 66.301 48.3895 66.1808 48.2237 66.0963C48.058 66.0118 47.8532 65.9695 47.6095 65.9695C47.382 65.9695 47.1821 66.0085 47.0099 66.0865C46.8409 66.1645 46.7077 66.2669 46.6102 66.3937C46.5159 66.5204 46.4688 66.6569 46.4688 66.8031H45.5669C45.5669 66.6146 45.6157 66.4278 45.7132 66.2425C45.8107 66.0573 45.9504 65.8899 46.1324 65.7404C46.3177 65.5877 46.5387 65.4674 46.7954 65.3797C47.0554 65.2887 47.3446 65.2432 47.6631 65.2432C48.0466 65.2432 48.3846 65.3082 48.6771 65.4382C48.9728 65.5682 49.2036 65.7648 49.3693 66.028C49.5383 66.288 49.6228 66.6146 49.6228 67.0079V69.4648C49.6228 69.6403 49.6374 69.8271 49.6667 70.0254C49.6992 70.2236 49.7463 70.3942 49.808 70.5372V70.6152H48.8672C48.8217 70.5112 48.7859 70.3731 48.7599 70.2009C48.734 70.0254 48.721 69.8629 48.721 69.7134ZM48.8769 67.4174L48.8867 68.0511H47.9751C47.7184 68.0511 47.4892 68.0722 47.2878 68.1145C47.0863 68.1535 46.9173 68.2136 46.7808 68.2948C46.6443 68.3761 46.5403 68.4784 46.4688 68.6019C46.3973 68.7222 46.3615 68.8636 46.3615 69.026C46.3615 69.1918 46.3989 69.3429 46.4737 69.4794C46.5484 69.6159 46.6605 69.7248 46.81 69.806C46.9628 69.884 47.1496 69.923 47.3706 69.923C47.6469 69.923 47.8906 69.8645 48.1018 69.7475C48.3131 69.6305 48.4805 69.4875 48.604 69.3185C48.7307 69.1495 48.7989 68.9854 48.8087 68.8262L49.1938 69.26C49.1711 69.3965 49.1093 69.5477 49.0086 69.7134C48.9078 69.8791 48.7729 70.0384 48.604 70.1911C48.4382 70.3406 48.24 70.4657 48.0092 70.5665C47.7817 70.664 47.525 70.7127 47.239 70.7127C46.8815 70.7127 46.5679 70.6429 46.2982 70.5031C46.0317 70.3634 45.8237 70.1765 45.6742 69.9425C45.528 69.7053 45.4548 69.4404 45.4548 69.1479C45.4548 68.8652 45.5101 68.6166 45.6206 68.4021C45.7311 68.1843 45.8903 68.004 46.0983 67.861C46.3063 67.7147 46.5565 67.6042 46.849 67.5295C47.1415 67.4547 47.4681 67.4174 47.8289 67.4174H48.8769ZM58.3731 69.8743L58.2853 72.18H57.481V70.6152H56.7936V69.8743H58.3731ZM51.0657 65.3407H51.9676V69.8743H53.898V65.3407H54.8047V69.8743H56.7303V65.3407H57.6321V70.6152H51.0657V65.3407ZM60.284 69.1869L62.7165 65.3407H63.6232V70.6152H62.7165V66.769L60.284 70.6152H59.387V65.3407H60.284V69.1869ZM67.2208 65.3407V70.6152H66.3141V65.3407H67.2208ZM68.9904 65.3407V66.0719H64.5787V65.3407H68.9904ZM70.6186 67.1541H72.2029C72.6286 67.1541 72.9877 67.2289 73.2802 67.3784C73.5727 67.5246 73.7937 67.7277 73.9432 67.9877C74.096 68.2445 74.1723 68.5369 74.1723 68.8652C74.1723 69.1089 74.1301 69.338 74.0456 69.5525C73.9611 69.7638 73.8343 69.949 73.6653 70.1083C73.4996 70.2675 73.2932 70.3926 73.0462 70.4836C72.8025 70.5714 72.5214 70.6152 72.2029 70.6152H69.9605V65.3407H70.8623V69.8743H72.2029C72.4629 69.8743 72.6709 69.8271 72.8269 69.7329C72.9829 69.6386 73.095 69.5168 73.1632 69.3673C73.2315 69.2178 73.2656 69.0618 73.2656 68.8993C73.2656 68.7401 73.2315 68.5841 73.1632 68.4313C73.095 68.2786 72.9829 68.1518 72.8269 68.0511C72.6709 67.9471 72.4629 67.8951 72.2029 67.8951H70.6186V67.1541ZM76.0491 65.3407V70.6152H75.1473V65.3407H76.0491ZM81.0068 66.3547V72.6432H80.1001V65.3407H80.9288L81.0068 66.3547ZM84.5605 67.9341V68.0365C84.5605 68.4199 84.515 68.7758 84.424 69.104C84.333 69.429 84.1998 69.7118 84.0243 69.9523C83.8521 70.1928 83.6392 70.3796 83.3857 70.5129C83.1322 70.6461 82.8414 70.7127 82.5131 70.7127C82.1784 70.7127 81.8826 70.6575 81.6259 70.547C81.3692 70.4365 81.1514 70.2756 80.9727 70.0644C80.7939 69.8531 80.6509 69.5996 80.5437 69.3039C80.4397 69.0082 80.3682 68.6751 80.3292 68.3046V67.7586C80.3682 67.3686 80.4413 67.0193 80.5486 66.7105C80.6558 66.4018 80.7972 66.1385 80.9727 65.9208C81.1514 65.6998 81.3675 65.5324 81.621 65.4187C81.8745 65.3017 82.167 65.2432 82.4985 65.2432C82.83 65.2432 83.1241 65.3082 83.3808 65.4382C83.6376 65.5649 83.8537 65.7469 84.0292 65.9842C84.2047 66.2214 84.3363 66.5058 84.424 66.8373C84.515 67.1655 84.5605 67.5311 84.5605 67.9341ZM83.6538 68.0365V67.9341C83.6538 67.6709 83.6262 67.4239 83.571 67.1931C83.5157 66.9591 83.4296 66.7544 83.3126 66.5789C83.1988 66.4002 83.0526 66.2604 82.8739 66.1597C82.6951 66.0557 82.4822 66.0037 82.2353 66.0037C82.0078 66.0037 81.8095 66.0427 81.6405 66.1207C81.4748 66.1987 81.3334 66.3043 81.2164 66.4375C81.0994 66.5675 81.0036 66.717 80.9288 66.886C80.8573 67.0517 80.8037 67.224 80.7679 67.4027V68.6653C80.8329 68.8928 80.9239 69.1073 81.0409 69.3088C81.1579 69.507 81.3139 69.6679 81.5089 69.7914C81.7039 69.9116 81.9493 69.9718 82.245 69.9718C82.4887 69.9718 82.6984 69.9214 82.8739 69.8206C83.0526 69.7166 83.1988 69.5753 83.3126 69.3965C83.4296 69.2178 83.5157 69.013 83.571 68.7823C83.6262 68.5483 83.6538 68.2997 83.6538 68.0365ZM87.8998 70.7127C87.5325 70.7127 87.1994 70.651 86.9004 70.5275C86.6047 70.4007 86.3496 70.2236 86.1351 69.9961C85.9239 69.7686 85.7614 69.4989 85.6476 69.1869C85.5339 68.8749 85.477 68.5337 85.477 68.1632V67.9585C85.477 67.5295 85.5404 67.1476 85.6671 66.8129C85.7939 66.4749 85.9661 66.1889 86.1838 65.9549C86.4016 65.7209 86.6486 65.5438 86.9248 65.4236C87.2011 65.3033 87.487 65.2432 87.7828 65.2432C88.1598 65.2432 88.4848 65.3082 88.7577 65.4382C89.034 65.5682 89.2599 65.7502 89.4353 65.9842C89.6108 66.2149 89.7408 66.4879 89.8253 66.8031C89.9098 67.1151 89.9521 67.4564 89.9521 67.8268V68.2315H86.0132V67.4954H89.0502V67.4271C89.0372 67.1931 88.9885 66.9656 88.904 66.7446C88.8227 66.5236 88.6927 66.3417 88.514 66.1987C88.3353 66.0557 88.0915 65.9842 87.7828 65.9842C87.578 65.9842 87.3896 66.028 87.2173 66.1158C87.0451 66.2003 86.8972 66.327 86.7737 66.496C86.6502 66.665 86.5543 66.8714 86.4861 67.1151C86.4178 67.3589 86.3837 67.64 86.3837 67.9585V68.1632C86.3837 68.4134 86.4178 68.6491 86.4861 68.8701C86.5576 69.0878 86.66 69.2795 86.7932 69.4453C86.9297 69.611 87.0938 69.741 87.2856 69.8353C87.4805 69.9295 87.7015 69.9766 87.9485 69.9766C88.267 69.9766 88.5368 69.9116 88.7577 69.7816C88.9787 69.6516 89.1721 69.4778 89.3378 69.26L89.8838 69.6939C89.7701 69.8661 89.6255 70.0303 89.45 70.1863C89.2745 70.3422 89.0584 70.469 88.8016 70.5665C88.5481 70.664 88.2475 70.7127 87.8998 70.7127ZM91.9849 65.3407V70.6152H91.083V65.3407H91.9849ZM95.446 65.3407L92.9452 68.3631H91.6826L91.5461 67.5734H92.5796L94.3492 65.3407H95.446ZM94.4759 70.6152L92.5357 68.2266L93.1158 67.5734L95.6215 70.6152H94.4759ZM99.9308 65.3407V66.0865H97.3813V65.3407H99.9308ZM100.725 65.3407V70.6152H99.8236V65.3407H100.725ZM97.1619 65.3407H98.0686L97.9321 67.8853C97.9094 68.2786 97.872 68.6263 97.82 68.9286C97.7713 69.2275 97.703 69.4843 97.6153 69.6988C97.5308 69.9133 97.4235 70.0888 97.2935 70.2252C97.1668 70.3585 97.014 70.4576 96.8353 70.5226C96.6566 70.5844 96.4502 70.6152 96.2162 70.6152H95.9335V69.8206L96.1285 69.806C96.2682 69.7963 96.3868 69.7638 96.4843 69.7085C96.5851 69.6533 96.6696 69.572 96.7378 69.4648C96.8061 69.3543 96.8613 69.2129 96.9035 69.0407C96.949 68.8684 96.9832 68.6637 97.0059 68.4264C97.0319 68.1892 97.0514 67.913 97.0644 67.5977L97.1619 65.3407ZM105.288 69.7134V66.9981C105.288 66.7901 105.246 66.6098 105.161 66.457C105.08 66.301 104.957 66.1808 104.791 66.0963C104.625 66.0118 104.421 65.9695 104.177 65.9695C103.949 65.9695 103.749 66.0085 103.577 66.0865C103.408 66.1645 103.275 66.2669 103.177 66.3937C103.083 66.5204 103.036 66.6569 103.036 66.8031H102.134C102.134 66.6146 102.183 66.4278 102.28 66.2425C102.378 66.0573 102.518 65.8899 102.7 65.7404C102.885 65.5877 103.106 65.4674 103.363 65.3797C103.623 65.2887 103.912 65.2432 104.23 65.2432C104.614 65.2432 104.952 65.3082 105.244 65.4382C105.54 65.5682 105.771 65.7648 105.937 66.028C106.106 66.288 106.19 66.6146 106.19 67.0079V69.4648C106.19 69.6403 106.205 69.8271 106.234 70.0254C106.266 70.2236 106.314 70.3942 106.375 70.5372V70.6152H105.434C105.389 70.5112 105.353 70.3731 105.327 70.2009C105.301 70.0254 105.288 69.8629 105.288 69.7134ZM105.444 67.4174L105.454 68.0511H104.542C104.286 68.0511 104.057 68.0722 103.855 68.1145C103.654 68.1535 103.485 68.2136 103.348 68.2948C103.212 68.3761 103.108 68.4784 103.036 68.6019C102.965 68.7222 102.929 68.8636 102.929 69.026C102.929 69.1918 102.966 69.3429 103.041 69.4794C103.116 69.6159 103.228 69.7248 103.377 69.806C103.53 69.884 103.717 69.923 103.938 69.923C104.214 69.923 104.458 69.8645 104.669 69.7475C104.88 69.6305 105.048 69.4875 105.171 69.3185C105.298 69.1495 105.366 68.9854 105.376 68.8262L105.761 69.26C105.738 69.3965 105.677 69.5477 105.576 69.7134C105.475 69.8791 105.34 70.0384 105.171 70.1911C105.005 70.3406 104.807 70.4657 104.576 70.5665C104.349 70.664 104.092 70.7127 103.806 70.7127C103.449 70.7127 103.135 70.6429 102.865 70.5031C102.599 70.3634 102.391 70.1765 102.241 69.9425C102.095 69.7053 102.022 69.4404 102.022 69.1479C102.022 68.8652 102.077 68.6166 102.188 68.4021C102.298 68.1843 102.458 68.004 102.666 67.861C102.874 67.7147 103.124 67.6042 103.416 67.5295C103.709 67.4547 104.035 67.4174 104.396 67.4174H105.444ZM110.641 69.416L112.435 65.3407H113.302L110.953 70.6152H110.329L107.989 65.3407H108.857L110.641 69.416ZM108.593 65.3407V70.6152H107.691V65.3407H108.593ZM112.659 70.6152V65.3407H113.566V70.6152H112.659ZM118.596 67.627V68.3582H115.808V67.627H118.596ZM115.998 65.3407V70.6152H115.096V65.3407H115.998ZM119.328 65.3407V70.6152H118.421V65.3407H119.328ZM121.521 67.1541H123.106C123.531 67.1541 123.89 67.2289 124.183 67.3784C124.475 67.5246 124.696 67.7277 124.846 67.9877C124.999 68.2445 125.075 68.5369 125.075 68.8652C125.075 69.1089 125.033 69.338 124.948 69.5525C124.864 69.7638 124.737 69.949 124.568 70.1083C124.402 70.2675 124.196 70.3926 123.949 70.4836C123.705 70.5714 123.424 70.6152 123.106 70.6152H120.863V65.3407H121.765V69.8743H123.106C123.366 69.8743 123.574 69.8271 123.73 69.7329C123.886 69.6386 123.998 69.5168 124.066 69.3673C124.134 69.2178 124.168 69.0618 124.168 68.8993C124.168 68.7401 124.134 68.5841 124.066 68.4313C123.998 68.2786 123.886 68.1518 123.73 68.0511C123.574 67.9471 123.366 67.8951 123.106 67.8951H121.521V67.1541ZM126.952 65.3407V70.6152H126.05V65.3407H126.952ZM129.141 65.3407L130.296 67.2614L131.466 65.3407H132.524L130.798 67.9438L132.577 70.6152H131.534L130.315 68.6361L129.097 70.6152H128.049L129.823 67.9438L128.102 65.3407H129.141ZM136.94 65.3407V70.6152H136.039V65.3407H136.94ZM140.401 65.3407L137.901 68.3631H136.638L136.502 67.5734H137.535L139.305 65.3407H140.401ZM139.431 70.6152L137.491 68.2266L138.071 67.5734L140.577 70.6152H139.431ZM144.472 69.7134V66.9981C144.472 66.7901 144.43 66.6098 144.345 66.457C144.264 66.301 144.14 66.1808 143.975 66.0963C143.809 66.0118 143.604 65.9695 143.36 65.9695C143.133 65.9695 142.933 66.0085 142.761 66.0865C142.592 66.1645 142.459 66.2669 142.361 66.3937C142.267 66.5204 142.22 66.6569 142.22 66.8031H141.318C141.318 66.6146 141.367 66.4278 141.464 66.2425C141.562 66.0573 141.701 65.8899 141.883 65.7404C142.069 65.5877 142.29 65.4674 142.546 65.3797C142.806 65.2887 143.096 65.2432 143.414 65.2432C143.798 65.2432 144.136 65.3082 144.428 65.4382C144.724 65.5682 144.955 65.7648 145.12 66.028C145.289 66.288 145.374 66.6146 145.374 67.0079V69.4648C145.374 69.6403 145.388 69.8271 145.418 70.0254C145.45 70.2236 145.497 70.3942 145.559 70.5372V70.6152H144.618C144.573 70.5112 144.537 70.3731 144.511 70.2009C144.485 70.0254 144.472 69.8629 144.472 69.7134ZM144.628 67.4174L144.638 68.0511H143.726C143.469 68.0511 143.24 68.0722 143.039 68.1145C142.837 68.1535 142.668 68.2136 142.532 68.2948C142.395 68.3761 142.291 68.4784 142.22 68.6019C142.148 68.7222 142.113 68.8636 142.113 69.026C142.113 69.1918 142.15 69.3429 142.225 69.4794C142.299 69.6159 142.412 69.7248 142.561 69.806C142.714 69.884 142.901 69.923 143.122 69.923C143.398 69.923 143.642 69.8645 143.853 69.7475C144.064 69.6305 144.231 69.4875 144.355 69.3185C144.482 69.1495 144.55 68.9854 144.56 68.8262L144.945 69.26C144.922 69.3965 144.86 69.5477 144.76 69.7134C144.659 69.8791 144.524 70.0384 144.355 70.1911C144.189 70.3406 143.991 70.4657 143.76 70.5665C143.533 70.664 143.276 70.7127 142.99 70.7127C142.632 70.7127 142.319 70.6429 142.049 70.5031C141.783 70.3634 141.575 70.1765 141.425 69.9425C141.279 69.7053 141.206 69.4404 141.206 69.1479C141.206 68.8652 141.261 68.6166 141.372 68.4021C141.482 68.1843 141.641 68.004 141.849 67.861C142.057 67.7147 142.308 67.6042 142.6 67.5295C142.892 67.4547 143.219 67.4174 143.58 67.4174H144.628ZM149.824 69.416L151.618 65.3407H152.486L150.136 70.6152H149.512L147.173 65.3407H148.04L149.824 69.416ZM147.777 65.3407V70.6152H146.875V65.3407H147.777ZM151.843 70.6152V65.3407H152.749V70.6152H151.843ZM157.717 65.3407V66.0865H155.05V65.3407H157.717ZM155.182 65.3407V70.6152H154.28V65.3407H155.182ZM158.516 65.3407V70.6152H157.61V65.3407H158.516ZM163.074 69.7134V66.9981C163.074 66.7901 163.032 66.6098 162.947 66.457C162.866 66.301 162.743 66.1808 162.577 66.0963C162.411 66.0118 162.206 65.9695 161.963 65.9695C161.735 65.9695 161.535 66.0085 161.363 66.0865C161.194 66.1645 161.061 66.2669 160.963 66.3937C160.869 66.5204 160.822 66.6569 160.822 66.8031H159.92C159.92 66.6146 159.969 66.4278 160.066 66.2425C160.164 66.0573 160.304 65.8899 160.486 65.7404C160.671 65.5877 160.892 65.4674 161.149 65.3797C161.409 65.2887 161.698 65.2432 162.016 65.2432C162.4 65.2432 162.738 65.3082 163.03 65.4382C163.326 65.5682 163.557 65.7648 163.723 66.028C163.892 66.288 163.976 66.6146 163.976 67.0079V69.4648C163.976 69.6403 163.991 69.8271 164.02 70.0254C164.052 70.2236 164.1 70.3942 164.161 70.5372V70.6152H163.22C163.175 70.5112 163.139 70.3731 163.113 70.2009C163.087 70.0254 163.074 69.8629 163.074 69.7134ZM163.23 67.4174L163.24 68.0511H162.328C162.072 68.0511 161.842 68.0722 161.641 68.1145C161.44 68.1535 161.271 68.2136 161.134 68.2948C160.998 68.3761 160.894 68.4784 160.822 68.6019C160.751 68.7222 160.715 68.8636 160.715 69.026C160.715 69.1918 160.752 69.3429 160.827 69.4794C160.902 69.6159 161.014 69.7248 161.163 69.806C161.316 69.884 161.503 69.923 161.724 69.923C162 69.923 162.244 69.8645 162.455 69.7475C162.666 69.6305 162.834 69.4875 162.957 69.3185C163.084 69.1495 163.152 68.9854 163.162 68.8262L163.547 69.26C163.524 69.3965 163.463 69.5477 163.362 69.7134C163.261 69.8791 163.126 70.0384 162.957 70.1911C162.791 70.3406 162.593 70.4657 162.362 70.5665C162.135 70.664 161.878 70.7127 161.592 70.7127C161.235 70.7127 160.921 70.6429 160.651 70.5031C160.385 70.3634 160.177 70.1765 160.027 69.9425C159.881 69.7053 159.808 69.4404 159.808 69.1479C159.808 68.8652 159.863 68.6166 159.974 68.4021C160.084 68.1843 160.244 68.004 160.452 67.861C160.66 67.7147 160.91 67.6042 161.202 67.5295C161.495 67.4547 161.821 67.4174 162.182 67.4174H163.23ZM168.973 67.627V68.3582H166.184V67.627H168.973ZM166.374 65.3407V70.6152H165.473V65.3407H166.374ZM169.704 65.3407V70.6152H168.797V65.3407H169.704ZM172.132 69.1869L174.564 65.3407H175.471V70.6152H174.564V66.769L172.132 70.6152H171.235V65.3407H172.132V69.1869ZM177.894 69.1869L180.326 65.3407H181.233V70.6152H180.326V66.769L177.894 70.6152H176.997V65.3407H177.894V69.1869ZM179.834 63.4298H180.565C180.565 63.6833 180.506 63.9091 180.39 64.1074C180.273 64.3024 180.105 64.4551 179.887 64.5656C179.67 64.6761 179.411 64.7313 179.112 64.7313C178.661 64.7313 178.303 64.6111 178.04 64.3706C177.78 64.1269 177.65 63.8133 177.65 63.4298H178.381C178.381 63.6215 178.436 63.7905 178.547 63.9367C178.657 64.083 178.846 64.1561 179.112 64.1561C179.372 64.1561 179.558 64.083 179.668 63.9367C179.779 63.7905 179.834 63.6215 179.834 63.4298ZM188.735 67.627V68.3582H185.947V67.627H188.735ZM186.137 65.3407V70.6152H185.235V65.3407H186.137ZM189.466 65.3407V70.6152H188.56V65.3407H189.466ZM194.029 69.7134V66.9981C194.029 66.7901 193.987 66.6098 193.902 66.457C193.821 66.301 193.698 66.1808 193.532 66.0963C193.366 66.0118 193.162 65.9695 192.918 65.9695C192.69 65.9695 192.49 66.0085 192.318 66.0865C192.149 66.1645 192.016 66.2669 191.918 66.3937C191.824 66.5204 191.777 66.6569 191.777 66.8031H190.875C190.875 66.6146 190.924 66.4278 191.021 66.2425C191.119 66.0573 191.259 65.8899 191.441 65.7404C191.626 65.5877 191.847 65.4674 192.104 65.3797C192.364 65.2887 192.653 65.2432 192.971 65.2432C193.355 65.2432 193.693 65.3082 193.985 65.4382C194.281 65.5682 194.512 65.7648 194.678 66.028C194.847 66.288 194.931 66.6146 194.931 67.0079V69.4648C194.931 69.6403 194.946 69.8271 194.975 70.0254C195.007 70.2236 195.055 70.3942 195.116 70.5372V70.6152H194.175C194.13 70.5112 194.094 70.3731 194.068 70.2009C194.042 70.0254 194.029 69.8629 194.029 69.7134ZM194.185 67.4174L194.195 68.0511H193.283C193.027 68.0511 192.798 68.0722 192.596 68.1145C192.395 68.1535 192.226 68.2136 192.089 68.2948C191.953 68.3761 191.849 68.4784 191.777 68.6019C191.706 68.7222 191.67 68.8636 191.67 69.026C191.67 69.1918 191.707 69.3429 191.782 69.4794C191.857 69.6159 191.969 69.7248 192.118 69.806C192.271 69.884 192.458 69.923 192.679 69.923C192.955 69.923 193.199 69.8645 193.41 69.7475C193.621 69.6305 193.789 69.4875 193.912 69.3185C194.039 69.1495 194.107 68.9854 194.117 68.8262L194.502 69.26C194.479 69.3965 194.418 69.5477 194.317 69.7134C194.216 69.8791 194.081 70.0384 193.912 70.1911C193.746 70.3406 193.548 70.4657 193.318 70.5665C193.09 70.664 192.833 70.7127 192.547 70.7127C192.19 70.7127 191.876 70.6429 191.606 70.5031C191.34 70.3634 191.132 70.1765 190.982 69.9425C190.836 69.7053 190.763 69.4404 190.763 69.1479C190.763 68.8652 190.818 68.6166 190.929 68.4021C191.039 68.1843 191.199 68.004 191.407 67.861C191.615 67.7147 191.865 67.6042 192.157 67.5295C192.45 67.4547 192.776 67.4174 193.137 67.4174H194.185ZM199.382 69.416L201.176 65.3407H202.043L199.694 70.6152H199.07L196.73 65.3407H197.598L199.382 69.416ZM197.334 65.3407V70.6152H196.432V65.3407H197.334ZM201.4 70.6152V65.3407H202.307V70.6152H201.4ZM209.814 67.627V68.3582H207.025V67.627H209.814ZM207.216 65.3407V70.6152H206.314V65.3407H207.216ZM210.545 65.3407V70.6152H209.638V65.3407H210.545ZM214.187 70.7127C213.819 70.7127 213.486 70.651 213.187 70.5275C212.891 70.4007 212.636 70.2236 212.422 69.9961C212.211 69.7686 212.048 69.4989 211.934 69.1869C211.821 68.8749 211.764 68.5337 211.764 68.1632V67.9585C211.764 67.5295 211.827 67.1476 211.954 66.8129C212.081 66.4749 212.253 66.1889 212.471 65.9549C212.688 65.7209 212.935 65.5438 213.212 65.4236C213.488 65.3033 213.774 65.2432 214.07 65.2432C214.447 65.2432 214.772 65.3082 215.045 65.4382C215.321 65.5682 215.547 65.7502 215.722 65.9842C215.898 66.2149 216.028 66.4879 216.112 66.8031C216.197 67.1151 216.239 67.4564 216.239 67.8268V68.2315H212.3V67.4954H215.337V67.4271C215.324 67.1931 215.275 66.9656 215.191 66.7446C215.11 66.5236 214.98 66.3417 214.801 66.1987C214.622 66.0557 214.378 65.9842 214.07 65.9842C213.865 65.9842 213.676 66.028 213.504 66.1158C213.332 66.2003 213.184 66.327 213.06 66.496C212.937 66.665 212.841 66.8714 212.773 67.1151C212.705 67.3589 212.67 67.64 212.67 67.9585V68.1632C212.67 68.4134 212.705 68.6491 212.773 68.8701C212.844 69.0878 212.947 69.2795 213.08 69.4453C213.216 69.611 213.381 69.741 213.572 69.8353C213.767 69.9295 213.988 69.9766 214.235 69.9766C214.554 69.9766 214.824 69.9116 215.045 69.7816C215.266 69.6516 215.459 69.4778 215.625 69.26L216.171 69.6939C216.057 69.8661 215.912 70.0303 215.737 70.1863C215.561 70.3422 215.345 70.469 215.088 70.5665C214.835 70.664 214.534 70.7127 214.187 70.7127ZM217.053 68.0365V67.9243C217.053 67.5441 217.108 67.1915 217.219 66.8665C217.329 66.5383 217.488 66.2539 217.696 66.0134C217.904 65.7697 218.156 65.5812 218.452 65.4479C218.748 65.3114 219.079 65.2432 219.446 65.2432C219.817 65.2432 220.15 65.3114 220.446 65.4479C220.745 65.5812 220.998 65.7697 221.206 66.0134C221.418 66.2539 221.578 66.5383 221.689 66.8665C221.799 67.1915 221.855 67.5441 221.855 67.9243V68.0365C221.855 68.4167 221.799 68.7693 221.689 69.0943C221.578 69.4193 221.418 69.7036 221.206 69.9474C220.998 70.1879 220.746 70.3764 220.451 70.5129C220.158 70.6461 219.827 70.7127 219.456 70.7127C219.086 70.7127 218.753 70.6461 218.457 70.5129C218.161 70.3764 217.908 70.1879 217.696 69.9474C217.488 69.7036 217.329 69.4193 217.219 69.0943C217.108 68.7693 217.053 68.4167 217.053 68.0365ZM217.955 67.9243V68.0365C217.955 68.2997 217.986 68.5483 218.047 68.7823C218.109 69.013 218.202 69.2178 218.325 69.3965C218.452 69.5753 218.61 69.7166 218.798 69.8206C218.987 69.9214 219.206 69.9718 219.456 69.9718C219.703 69.9718 219.919 69.9214 220.105 69.8206C220.293 69.7166 220.449 69.5753 220.573 69.3965C220.696 69.2178 220.789 69.013 220.85 68.7823C220.915 68.5483 220.948 68.2997 220.948 68.0365V67.9243C220.948 67.6644 220.915 67.419 220.85 67.1882C220.789 66.9543 220.694 66.7479 220.568 66.5691C220.444 66.3872 220.288 66.2442 220.1 66.1402C219.914 66.0362 219.697 65.9842 219.446 65.9842C219.199 65.9842 218.982 66.0362 218.793 66.1402C218.608 66.2442 218.452 66.3872 218.325 66.5691C218.202 66.7479 218.109 66.9543 218.047 67.1882C217.986 67.419 217.955 67.6644 217.955 67.9243ZM226.369 63.0447H227.11C227.11 63.3631 227.061 63.6166 226.963 63.8051C226.866 63.9904 226.733 64.1334 226.564 64.2341C226.398 64.3349 226.209 64.4112 225.998 64.4632C225.79 64.5152 225.574 64.5656 225.35 64.6143C225.07 64.6728 224.81 64.7655 224.57 64.8922C224.333 65.0157 224.128 65.1912 223.956 65.4187C223.787 65.6462 223.662 65.9419 223.58 66.3059C223.502 66.6699 223.481 67.12 223.517 67.6562V68.1047H222.776V67.6562C222.776 67.055 222.833 66.5301 222.947 66.0817C223.064 65.6332 223.228 65.2546 223.439 64.9458C223.65 64.6371 223.9 64.3917 224.19 64.2097C224.482 64.0277 224.804 63.9026 225.155 63.8344C225.408 63.7856 225.626 63.7336 225.808 63.6784C225.99 63.6199 226.128 63.5419 226.222 63.4444C226.32 63.3469 226.369 63.2137 226.369 63.0447ZM225.301 65.6429C225.646 65.6429 225.953 65.7031 226.222 65.8233C226.492 65.9435 226.721 66.1109 226.91 66.3254C227.098 66.5399 227.241 66.7934 227.339 67.0859C227.44 67.3751 227.49 67.6903 227.49 68.0316V68.1388C227.49 68.5061 227.436 68.8473 227.329 69.1625C227.225 69.4745 227.071 69.7475 226.866 69.9815C226.664 70.2123 226.417 70.3926 226.125 70.5226C225.836 70.6526 225.506 70.7176 225.135 70.7176C224.765 70.7176 224.433 70.6526 224.141 70.5226C223.852 70.3926 223.605 70.2123 223.4 69.9815C223.195 69.7475 223.039 69.4745 222.932 69.1625C222.828 68.8473 222.776 68.5061 222.776 68.1388V68.0316C222.776 67.9503 222.791 67.8707 222.82 67.7927C222.849 67.7147 222.885 67.6351 222.927 67.5539C222.973 67.4726 223.013 67.3865 223.049 67.2955C223.169 67.003 223.333 66.7316 223.541 66.4814C223.753 66.2312 224.004 66.0297 224.297 65.8769C224.593 65.7209 224.927 65.6429 225.301 65.6429ZM225.126 66.379C224.794 66.379 224.521 66.4554 224.307 66.6081C224.095 66.7609 223.938 66.964 223.834 67.2175C223.73 67.4677 223.678 67.7391 223.678 68.0316V68.1388C223.678 68.3858 223.707 68.6198 223.766 68.8408C223.824 69.0618 223.912 69.2584 224.029 69.4307C224.149 69.5996 224.3 69.7329 224.482 69.8304C224.667 69.9279 224.885 69.9766 225.135 69.9766C225.386 69.9766 225.602 69.9279 225.784 69.8304C225.966 69.7329 226.115 69.5996 226.232 69.4307C226.349 69.2584 226.437 69.0618 226.495 68.8408C226.554 68.6198 226.583 68.3858 226.583 68.1388V68.0316C226.583 67.8106 226.554 67.601 226.495 67.4027C226.437 67.2045 226.348 67.029 226.227 66.8763C226.11 66.7235 225.959 66.6033 225.774 66.5155C225.592 66.4245 225.376 66.379 225.126 66.379ZM229.045 65.3407L230.2 67.2614L231.37 65.3407H232.428L230.702 67.9438L232.482 70.6152H231.438L230.22 68.6361L229.001 70.6152H227.953L229.727 67.9438L228.007 65.3407H229.045ZM233.052 68.0365V67.9243C233.052 67.5441 233.107 67.1915 233.218 66.8665C233.328 66.5383 233.488 66.2539 233.696 66.0134C233.904 65.7697 234.155 65.5812 234.451 65.4479C234.747 65.3114 235.078 65.2432 235.446 65.2432C235.816 65.2432 236.149 65.3114 236.445 65.4479C236.744 65.5812 236.997 65.7697 237.205 66.0134C237.417 66.2539 237.578 66.5383 237.688 66.8665C237.798 67.1915 237.854 67.5441 237.854 67.9243V68.0365C237.854 68.4167 237.798 68.7693 237.688 69.0943C237.578 69.4193 237.417 69.7036 237.205 69.9474C236.997 70.1879 236.746 70.3764 236.45 70.5129C236.157 70.6461 235.826 70.7127 235.455 70.7127C235.085 70.7127 234.752 70.6461 234.456 70.5129C234.16 70.3764 233.907 70.1879 233.696 69.9474C233.488 69.7036 233.328 69.4193 233.218 69.0943C233.107 68.7693 233.052 68.4167 233.052 68.0365ZM233.954 67.9243V68.0365C233.954 68.2997 233.985 68.5483 234.047 68.7823C234.108 69.013 234.201 69.2178 234.324 69.3965C234.451 69.5753 234.609 69.7166 234.797 69.8206C234.986 69.9214 235.205 69.9718 235.455 69.9718C235.702 69.9718 235.918 69.9214 236.104 69.8206C236.292 69.7166 236.448 69.5753 236.572 69.3965C236.695 69.2178 236.788 69.013 236.85 68.7823C236.915 68.5483 236.947 68.2997 236.947 68.0365V67.9243C236.947 67.6644 236.915 67.419 236.85 67.1882C236.788 66.9543 236.694 66.7479 236.567 66.5691C236.443 66.3872 236.287 66.2442 236.099 66.1402C235.914 66.0362 235.696 65.9842 235.446 65.9842C235.199 65.9842 234.981 66.0362 234.792 66.1402C234.607 66.2442 234.451 66.3872 234.324 66.5691C234.201 66.7479 234.108 66.9543 234.047 67.1882C233.985 67.419 233.954 67.6644 233.954 67.9243ZM239.584 65.3407H240.486L240.408 67.315C240.389 67.8155 240.332 68.2477 240.238 68.6117C240.143 68.9757 240.023 69.286 239.877 69.5428C239.731 69.7963 239.566 70.0091 239.384 70.1814C239.206 70.3536 239.02 70.4982 238.829 70.6152H238.38L238.405 69.8791L238.59 69.8743C238.697 69.7475 238.801 69.6175 238.902 69.4843C239.003 69.3478 239.095 69.1869 239.18 69.0017C239.264 68.8132 239.334 68.5841 239.389 68.3143C239.448 68.0413 239.485 67.7082 239.501 67.315L239.584 65.3407ZM239.809 65.3407H242.982V70.6152H242.08V66.1743H239.809V65.3407ZM238.175 69.8743H243.66V72.1703H242.758V70.6152H239.077V72.1703H238.171L238.175 69.8743ZM245.634 69.1869L248.066 65.3407H248.973V70.6152H248.066V66.769L245.634 70.6152H244.737V65.3407H245.634V69.1869ZM253.453 69.416L255.247 65.3407H256.115L253.765 70.6152H253.141L250.801 65.3407H251.669L253.453 69.416ZM251.406 65.3407V70.6152H250.504V65.3407H251.406ZM255.471 70.6152V65.3407H256.378V70.6152H255.471ZM257.592 68.0365V67.9243C257.592 67.5441 257.647 67.1915 257.758 66.8665C257.868 66.5383 258.027 66.2539 258.235 66.0134C258.443 65.7697 258.695 65.5812 258.991 65.4479C259.287 65.3114 259.618 65.2432 259.985 65.2432C260.356 65.2432 260.689 65.3114 260.985 65.4479C261.284 65.5812 261.537 65.7697 261.745 66.0134C261.956 66.2539 262.117 66.5383 262.228 66.8665C262.338 67.1915 262.394 67.5441 262.394 67.9243V68.0365C262.394 68.4167 262.338 68.7693 262.228 69.0943C262.117 69.4193 261.956 69.7036 261.745 69.9474C261.537 70.1879 261.285 70.3764 260.99 70.5129C260.697 70.6461 260.366 70.7127 259.995 70.7127C259.625 70.7127 259.292 70.6461 258.996 70.5129C258.7 70.3764 258.447 70.1879 258.235 69.9474C258.027 69.7036 257.868 69.4193 257.758 69.0943C257.647 68.7693 257.592 68.4167 257.592 68.0365ZM258.494 67.9243V68.0365C258.494 68.2997 258.525 68.5483 258.586 68.7823C258.648 69.013 258.741 69.2178 258.864 69.3965C258.991 69.5753 259.149 69.7166 259.337 69.8206C259.526 69.9214 259.745 69.9718 259.995 69.9718C260.242 69.9718 260.458 69.9214 260.643 69.8206C260.832 69.7166 260.988 69.5753 261.111 69.3965C261.235 69.2178 261.328 69.013 261.389 68.7823C261.454 68.5483 261.487 68.2997 261.487 68.0365V67.9243C261.487 67.6644 261.454 67.419 261.389 67.1882C261.328 66.9543 261.233 66.7479 261.107 66.5691C260.983 66.3872 260.827 66.2442 260.639 66.1402C260.453 66.0362 260.236 65.9842 259.985 65.9842C259.738 65.9842 259.521 66.0362 259.332 66.1402C259.147 66.2442 258.991 66.3872 258.864 66.5691C258.741 66.7479 258.648 66.9543 258.586 67.1882C258.525 67.419 258.494 67.6644 258.494 67.9243ZM269.516 65.3407V66.0865H266.849V65.3407H269.516ZM266.981 65.3407V70.6152H266.079V65.3407H266.981ZM270.315 65.3407V70.6152H269.408V65.3407H270.315ZM271.524 68.0365V67.9243C271.524 67.5441 271.579 67.1915 271.69 66.8665C271.8 66.5383 271.96 66.2539 272.168 66.0134C272.376 65.7697 272.627 65.5812 272.923 65.4479C273.219 65.3114 273.55 65.2432 273.918 65.2432C274.288 65.2432 274.621 65.3114 274.917 65.4479C275.216 65.5812 275.469 65.7697 275.677 66.0134C275.889 66.2539 276.049 66.5383 276.16 66.8665C276.27 67.1915 276.326 67.5441 276.326 67.9243V68.0365C276.326 68.4167 276.27 68.7693 276.16 69.0943C276.049 69.4193 275.889 69.7036 275.677 69.9474C275.469 70.1879 275.218 70.3764 274.922 70.5129C274.629 70.6461 274.298 70.7127 273.927 70.7127C273.557 70.7127 273.224 70.6461 272.928 70.5129C272.632 70.3764 272.379 70.1879 272.168 69.9474C271.96 69.7036 271.8 69.4193 271.69 69.0943C271.579 68.7693 271.524 68.4167 271.524 68.0365ZM272.426 67.9243V68.0365C272.426 68.2997 272.457 68.5483 272.519 68.7823C272.58 69.013 272.673 69.2178 272.796 69.3965C272.923 69.5753 273.081 69.7166 273.269 69.8206C273.458 69.9214 273.677 69.9718 273.927 69.9718C274.174 69.9718 274.39 69.9214 274.576 69.8206C274.764 69.7166 274.92 69.5753 275.044 69.3965C275.167 69.2178 275.26 69.013 275.322 68.7823C275.387 68.5483 275.419 68.2997 275.419 68.0365V67.9243C275.419 67.6644 275.387 67.419 275.322 67.1882C275.26 66.9543 275.166 66.7479 275.039 66.5691C274.915 66.3872 274.759 66.2442 274.571 66.1402C274.386 66.0362 274.168 65.9842 273.918 65.9842C273.671 65.9842 273.453 66.0362 273.264 66.1402C273.079 66.2442 272.923 66.3872 272.796 66.5691C272.673 66.7479 272.58 66.9543 272.519 67.1882C272.457 67.419 272.426 67.6644 272.426 67.9243ZM280.903 65.3407V66.0865H278.354V65.3407H280.903ZM281.698 65.3407V70.6152H280.796V65.3407H281.698ZM278.134 65.3407H279.041L278.905 67.8853C278.882 68.2786 278.844 68.6263 278.792 68.9286C278.744 69.2275 278.675 69.4843 278.588 69.6988C278.503 69.9133 278.396 70.0888 278.266 70.2252C278.139 70.3585 277.986 70.4576 277.808 70.5226C277.629 70.5844 277.423 70.6152 277.189 70.6152H276.906V69.8206L277.101 69.806C277.241 69.7963 277.359 69.7638 277.457 69.7085C277.557 69.6533 277.642 69.572 277.71 69.4648C277.778 69.3543 277.834 69.2129 277.876 69.0407C277.921 68.8684 277.956 68.6637 277.978 68.4264C278.004 68.1892 278.024 67.913 278.037 67.5977L278.134 65.3407ZM284.632 70.0693L286.1 65.3407H287.065L284.949 71.4293C284.901 71.5593 284.836 71.6991 284.754 71.8486C284.676 72.0013 284.576 72.1459 284.452 72.2824C284.329 72.4189 284.179 72.5294 284.004 72.6139C283.831 72.7017 283.625 72.7455 283.384 72.7455C283.313 72.7455 283.222 72.7358 283.111 72.7163C283.001 72.6968 282.923 72.6805 282.877 72.6675L282.873 71.9363C282.899 71.9396 282.939 71.9428 282.994 71.9461C283.053 71.9526 283.094 71.9558 283.116 71.9558C283.321 71.9558 283.495 71.9282 283.638 71.8729C283.781 71.8209 283.901 71.7316 283.999 71.6048C284.099 71.4813 284.186 71.3107 284.257 71.093L284.632 70.0693ZM283.555 65.3407L284.925 69.4355L285.159 70.3861L284.511 70.7176L282.57 65.3407H283.555ZM291.857 65.3407V70.6152H290.955V65.3407H291.857ZM291.55 67.7635V68.5044C291.368 68.5727 291.183 68.6344 290.994 68.6897C290.809 68.7417 290.612 68.7839 290.404 68.8164C290.199 68.8457 289.977 68.8603 289.736 68.8603C289.32 68.8603 288.96 68.7888 288.654 68.6458C288.349 68.4996 288.113 68.2802 287.947 67.9877C287.782 67.692 287.699 67.3199 287.699 66.8714V65.3309H288.601V66.8714C288.601 67.1639 288.644 67.4011 288.732 67.5831C288.82 67.7651 288.948 67.9 289.117 67.9877C289.286 68.0722 289.493 68.1145 289.736 68.1145C289.97 68.1145 290.19 68.0998 290.394 68.0706C290.602 68.0381 290.801 67.9958 290.989 67.9438C291.181 67.8918 291.368 67.8317 291.55 67.7635ZM294.285 69.1869L296.717 65.3407H297.624V70.6152H296.717V66.769L294.285 70.6152H293.388V65.3407H294.285V69.1869ZM301.221 65.3407V70.6152H300.315V65.3407H301.221ZM302.991 65.3407V66.0719H298.579V65.3407H302.991ZM304.619 67.1541H306.203C306.629 67.1541 306.988 67.2289 307.281 67.3784C307.573 67.5246 307.794 67.7277 307.944 67.9877C308.096 68.2445 308.173 68.5369 308.173 68.8652C308.173 69.1089 308.131 69.338 308.046 69.5525C307.962 69.7638 307.835 69.949 307.666 70.1083C307.5 70.2675 307.294 70.3926 307.047 70.4836C306.803 70.5714 306.522 70.6152 306.203 70.6152H303.961V65.3407H304.863V69.8743H306.203C306.463 69.8743 306.671 69.8271 306.827 69.7329C306.983 69.6386 307.096 69.5168 307.164 69.3673C307.232 69.2178 307.266 69.0618 307.266 68.8993C307.266 68.7401 307.232 68.5841 307.164 68.4313C307.096 68.2786 306.983 68.1518 306.827 68.0511C306.671 67.9471 306.463 67.8951 306.203 67.8951H304.619V67.1541ZM312.726 65.3407H313.628L313.55 67.315C313.53 67.8155 313.473 68.2477 313.379 68.6117C313.285 68.9757 313.165 69.286 313.018 69.5428C312.872 69.7963 312.708 70.0091 312.526 70.1814C312.347 70.3536 312.162 70.4982 311.97 70.6152H311.522L311.546 69.8791L311.731 69.8743C311.839 69.7475 311.943 69.6175 312.043 69.4843C312.144 69.3478 312.237 69.1869 312.321 69.0017C312.406 68.8132 312.476 68.5841 312.531 68.3143C312.589 68.0413 312.627 67.7082 312.643 67.315L312.726 65.3407ZM312.95 65.3407H316.124V70.6152H315.222V66.1743H312.95V65.3407ZM311.317 69.8743H316.801V72.1703H315.899V70.6152H312.219V72.1703H311.312L311.317 69.8743ZM317.562 68.0365V67.9243C317.562 67.5441 317.617 67.1915 317.727 66.8665C317.838 66.5383 317.997 66.2539 318.205 66.0134C318.413 65.7697 318.665 65.5812 318.961 65.4479C319.257 65.3114 319.588 65.2432 319.955 65.2432C320.326 65.2432 320.659 65.3114 320.955 65.4479C321.254 65.5812 321.507 65.7697 321.715 66.0134C321.926 66.2539 322.087 66.5383 322.198 66.8665C322.308 67.1915 322.363 67.5441 322.363 67.9243V68.0365C322.363 68.4167 322.308 68.7693 322.198 69.0943C322.087 69.4193 321.926 69.7036 321.715 69.9474C321.507 70.1879 321.255 70.3764 320.959 70.5129C320.667 70.6461 320.335 70.7127 319.965 70.7127C319.595 70.7127 319.261 70.6461 318.966 70.5129C318.67 70.3764 318.416 70.1879 318.205 69.9474C317.997 69.7036 317.838 69.4193 317.727 69.0943C317.617 68.7693 317.562 68.4167 317.562 68.0365ZM318.464 67.9243V68.0365C318.464 68.2997 318.494 68.5483 318.556 68.7823C318.618 69.013 318.711 69.2178 318.834 69.3965C318.961 69.5753 319.118 69.7166 319.307 69.8206C319.495 69.9214 319.715 69.9718 319.965 69.9718C320.212 69.9718 320.428 69.9214 320.613 69.8206C320.802 69.7166 320.958 69.5753 321.081 69.3965C321.205 69.2178 321.297 69.013 321.359 68.7823C321.424 68.5483 321.457 68.2997 321.457 68.0365V67.9243C321.457 67.6644 321.424 67.419 321.359 67.1882C321.297 66.9543 321.203 66.7479 321.076 66.5691C320.953 66.3872 320.797 66.2442 320.608 66.1402C320.423 66.0362 320.206 65.9842 319.955 65.9842C319.708 65.9842 319.491 66.0362 319.302 66.1402C319.117 66.2442 318.961 66.3872 318.834 66.5691C318.711 66.7479 318.618 66.9543 318.556 67.1882C318.494 67.419 318.464 67.6644 318.464 67.9243ZM325.605 69.9718C325.82 69.9718 326.018 69.9279 326.2 69.8401C326.382 69.7524 326.531 69.6321 326.648 69.4794C326.765 69.3234 326.832 69.1463 326.848 68.9481H327.706C327.69 69.26 327.584 69.5509 327.389 69.8206C327.198 70.0871 326.946 70.3032 326.634 70.469C326.322 70.6315 325.979 70.7127 325.605 70.7127C325.209 70.7127 324.863 70.6429 324.567 70.5031C324.274 70.3634 324.031 70.1716 323.836 69.9279C323.644 69.6841 323.499 69.4047 323.402 69.0894C323.307 68.7709 323.26 68.4346 323.26 68.0803V67.8756C323.26 67.5214 323.307 67.1866 323.402 66.8714C323.499 66.5529 323.644 66.2718 323.836 66.028C324.031 65.7843 324.274 65.5926 324.567 65.4528C324.863 65.3131 325.209 65.2432 325.605 65.2432C326.018 65.2432 326.379 65.3277 326.687 65.4967C326.996 65.6624 327.238 65.8899 327.414 66.1792C327.592 66.4651 327.69 66.7901 327.706 67.1541H326.848C326.832 66.9364 326.77 66.7398 326.663 66.5643C326.559 66.3888 326.416 66.249 326.234 66.145C326.055 66.0378 325.846 65.9842 325.605 65.9842C325.329 65.9842 325.097 66.0394 324.908 66.1499C324.723 66.2572 324.575 66.4034 324.464 66.5886C324.357 66.7706 324.279 66.9738 324.23 67.198C324.185 67.419 324.162 67.6449 324.162 67.8756V68.0803C324.162 68.3111 324.185 68.5386 324.23 68.7628C324.276 68.987 324.352 69.1902 324.46 69.3722C324.57 69.5542 324.718 69.7004 324.903 69.8109C325.092 69.9181 325.326 69.9718 325.605 69.9718ZM330.87 65.3407V70.6152H329.963V65.3407H330.87ZM332.639 65.3407V66.0719H328.228V65.3407H332.639ZM335.067 70.0693L336.534 65.3407H337.5L335.384 71.4293C335.335 71.5593 335.27 71.6991 335.189 71.8486C335.111 72.0013 335.01 72.1459 334.887 72.2824C334.763 72.4189 334.614 72.5294 334.438 72.6139C334.266 72.7017 334.06 72.7455 333.819 72.7455C333.748 72.7455 333.657 72.7358 333.546 72.7163C333.436 72.6968 333.358 72.6805 333.312 72.6675L333.307 71.9363C333.333 71.9396 333.374 71.9428 333.429 71.9461C333.488 71.9526 333.528 71.9558 333.551 71.9558C333.756 71.9558 333.93 71.9282 334.073 71.8729C334.216 71.8209 334.336 71.7316 334.433 71.6048C334.534 71.4813 334.62 71.3107 334.692 71.093L335.067 70.0693ZM333.99 65.3407L335.36 69.4355L335.594 70.3861L334.945 70.7176L333.005 65.3407H333.99ZM341.829 65.3407V66.0865H339.162V65.3407H341.829ZM339.294 65.3407V70.6152H338.392V65.3407H339.294ZM342.628 65.3407V70.6152H341.721V65.3407H342.628ZM20.2082 78.3407V83.6152H19.3064V78.3407H20.2082ZM23.6693 78.3407L21.1685 81.3631H19.906L19.7695 80.5734H20.8029L22.5725 78.3407H23.6693ZM22.6992 83.6152L20.7591 81.2266L21.3392 80.5734L23.8448 83.6152H22.6992ZM29.8701 77.1464L27.5204 83.6152H26.5601L29.2656 76.5175H29.8847L29.8701 77.1464ZM31.8395 83.6152L29.485 77.1464L29.4703 76.5175H30.0894L32.8047 83.6152H31.8395ZM31.7176 80.9877V81.7579H27.73V80.9877H31.7176ZM36.3731 80.8317H34.4768V80.0664H36.3731C36.7403 80.0664 37.0377 80.0079 37.2652 79.8909C37.4926 79.7739 37.6584 79.6114 37.7624 79.4034C37.8696 79.1954 37.9233 78.9582 37.9233 78.6917C37.9233 78.4479 37.8696 78.2188 37.7624 78.0043C37.6584 77.7898 37.4926 77.6176 37.2652 77.4876C37.0377 77.3544 36.7403 77.2877 36.3731 77.2877H34.6961V83.6152H33.7553V76.5175H36.3731C36.9093 76.5175 37.3626 76.6101 37.7331 76.7954C38.1036 76.9806 38.3847 77.2374 38.5765 77.5656C38.7682 77.8906 38.8641 78.2627 38.8641 78.6819C38.8641 79.1369 38.7682 79.5253 38.5765 79.847C38.3847 80.1687 38.1036 80.4141 37.7331 80.5831C37.3626 80.7488 36.9093 80.8317 36.3731 80.8317ZM41.0626 76.5175V83.6152H40.1218V76.5175H41.0626ZM47.59 81.2948H45.8594L45.8497 80.5734H47.2634C47.5429 80.5734 47.7752 80.5457 47.9605 80.4905C48.149 80.4352 48.2903 80.3524 48.3846 80.2419C48.4788 80.1314 48.526 79.9949 48.526 79.8324C48.526 79.7056 48.4983 79.5951 48.4431 79.5009C48.3911 79.4034 48.3115 79.3238 48.2042 79.262C48.097 79.197 47.9637 79.1499 47.8045 79.1207C47.6485 79.0882 47.4649 79.0719 47.2536 79.0719H46.0983V83.6152H45.1965V78.3407H47.2536C47.5884 78.3407 47.889 78.3699 48.1555 78.4284C48.4252 78.4869 48.6543 78.5763 48.8428 78.6966C49.0346 78.8135 49.1808 78.963 49.2816 79.145C49.3823 79.327 49.4327 79.5415 49.4327 79.7885C49.4327 79.9478 49.4002 80.0989 49.3352 80.2419C49.2702 80.3849 49.1743 80.5116 49.0476 80.6221C48.9208 80.7326 48.7648 80.8236 48.5796 80.8951C48.3943 80.9633 48.1815 81.0072 47.941 81.0267L47.59 81.2948ZM47.59 83.6152H45.5328L45.9813 82.884H47.59C47.8402 82.884 48.0482 82.8531 48.214 82.7914C48.3797 82.7264 48.5032 82.6354 48.5845 82.5184C48.669 82.3982 48.7112 82.2552 48.7112 82.0894C48.7112 81.9237 48.669 81.7823 48.5845 81.6653C48.5032 81.5451 48.3797 81.4541 48.214 81.3923C48.0482 81.3273 47.8402 81.2948 47.59 81.2948H46.2202L46.2299 80.5734H47.941L48.2676 80.8463C48.5568 80.8691 48.8022 80.9406 49.0037 81.0608C49.2052 81.1811 49.3579 81.3338 49.4619 81.5191C49.5659 81.7011 49.6179 81.8993 49.6179 82.1138C49.6179 82.3608 49.5708 82.5785 49.4765 82.767C49.3855 82.9555 49.2523 83.1131 49.0768 83.2399C48.9013 83.3634 48.6885 83.4576 48.4382 83.5226C48.188 83.5844 47.9052 83.6152 47.59 83.6152ZM53.937 82.7134V79.9981C53.937 79.7901 53.8947 79.6098 53.8102 79.457C53.729 79.301 53.6055 79.1808 53.4398 79.0963C53.274 79.0118 53.0693 78.9695 52.8255 78.9695C52.598 78.9695 52.3982 79.0085 52.2259 79.0865C52.0569 79.1645 51.9237 79.2669 51.8262 79.3937C51.732 79.5204 51.6848 79.6569 51.6848 79.8031H50.783C50.783 79.6146 50.8317 79.4278 50.9292 79.2425C51.0267 79.0573 51.1665 78.8899 51.3485 78.7404C51.5337 78.5877 51.7547 78.4674 52.0114 78.3797C52.2714 78.2887 52.5607 78.2432 52.8792 78.2432C53.2626 78.2432 53.6006 78.3082 53.8931 78.4382C54.1889 78.5682 54.4196 78.7648 54.5853 79.028C54.7543 79.288 54.8388 79.6146 54.8388 80.0079V82.4648C54.8388 82.6403 54.8535 82.8271 54.8827 83.0254C54.9152 83.2236 54.9623 83.3942 55.0241 83.5372V83.6152H54.0832C54.0377 83.5112 54.002 83.3731 53.976 83.2009C53.95 83.0254 53.937 82.8629 53.937 82.7134ZM54.093 80.4174L54.1027 81.0511H53.1911C52.9344 81.0511 52.7053 81.0722 52.5038 81.1145C52.3023 81.1535 52.1333 81.2136 51.9968 81.2948C51.8603 81.3761 51.7563 81.4784 51.6848 81.6019C51.6133 81.7222 51.5776 81.8636 51.5776 82.026C51.5776 82.1918 51.615 82.3429 51.6897 82.4794C51.7645 82.6159 51.8766 82.7248 52.0261 82.806C52.1788 82.884 52.3657 82.923 52.5867 82.923C52.8629 82.923 53.1067 82.8645 53.3179 82.7475C53.5291 82.6305 53.6965 82.4875 53.82 82.3185C53.9467 82.1495 54.015 81.9854 54.0247 81.8262L54.4099 82.26C54.3871 82.3965 54.3254 82.5477 54.2246 82.7134C54.1239 82.8791 53.989 83.0384 53.82 83.1911C53.6543 83.3406 53.456 83.4657 53.2253 83.5665C52.9978 83.664 52.741 83.7127 52.4551 83.7127C52.0976 83.7127 51.784 83.6429 51.5142 83.5031C51.2477 83.3634 51.0397 83.1765 50.8902 82.9425C50.744 82.7053 50.6709 82.4404 50.6709 82.1479C50.6709 81.8652 50.7261 81.6166 50.8366 81.4021C50.9471 81.1843 51.1064 81.004 51.3143 80.861C51.5223 80.7147 51.7726 80.6042 52.0651 80.5295C52.3576 80.4547 52.6842 80.4174 53.0449 80.4174H54.093ZM56.3354 78.3407H57.2372V82.8743H59.1677V78.3407H60.0744V82.8743H61.9999V78.3407H62.9018V83.6152H56.3354V78.3407ZM66.5286 83.7127C66.1614 83.7127 65.8283 83.651 65.5293 83.5275C65.2335 83.4007 64.9784 83.2236 64.7639 82.9961C64.5527 82.7686 64.3902 82.4989 64.2765 82.1869C64.1627 81.8749 64.1058 81.5337 64.1058 81.1632V80.9585C64.1058 80.5295 64.1692 80.1476 64.296 79.8129C64.4227 79.4749 64.5949 79.1889 64.8127 78.9549C65.0304 78.7209 65.2774 78.5438 65.5537 78.4236C65.8299 78.3033 66.1159 78.2432 66.4116 78.2432C66.7886 78.2432 67.1136 78.3082 67.3866 78.4382C67.6628 78.5682 67.8887 78.7502 68.0642 78.9842C68.2397 79.2149 68.3697 79.4879 68.4542 79.8031C68.5387 80.1151 68.5809 80.4564 68.5809 80.8268V81.2315H64.6421V80.4954H67.6791V80.4271C67.6661 80.1931 67.6173 79.9656 67.5328 79.7446C67.4516 79.5236 67.3216 79.3417 67.1428 79.1987C66.9641 79.0557 66.7204 78.9842 66.4116 78.9842C66.2069 78.9842 66.0184 79.028 65.8461 79.1158C65.6739 79.2003 65.526 79.327 65.4025 79.496C65.279 79.665 65.1832 79.8714 65.1149 80.1151C65.0467 80.3589 65.0126 80.64 65.0126 80.9585V81.1632C65.0126 81.4134 65.0467 81.6491 65.1149 81.8701C65.1864 82.0878 65.2888 82.2795 65.422 82.4453C65.5585 82.611 65.7227 82.741 65.9144 82.8353C66.1094 82.9295 66.3304 82.9766 66.5774 82.9766C66.8959 82.9766 67.1656 82.9116 67.3866 82.7816C67.6076 82.6516 67.8009 82.4778 67.9667 82.26L68.5127 82.6939C68.3989 82.8661 68.2543 83.0303 68.0788 83.1863C67.9033 83.3422 67.6872 83.469 67.4305 83.5665C67.177 83.664 66.8764 83.7127 66.5286 83.7127ZM73.0414 78.3407V79.0865H70.604V83.6152H69.7021V78.3407H73.0414ZM73.4898 81.0365V80.9243C73.4898 80.5441 73.5451 80.1915 73.6556 79.8665C73.7661 79.5383 73.9253 79.2539 74.1333 79.0134C74.3413 78.7697 74.5932 78.5812 74.8889 78.4479C75.1847 78.3114 75.5161 78.2432 75.8834 78.2432C76.2539 78.2432 76.587 78.3114 76.8827 78.4479C77.1817 78.5812 77.4352 78.7697 77.6432 79.0134C77.8544 79.2539 78.0153 79.5383 78.1258 79.8665C78.2363 80.1915 78.2915 80.5441 78.2915 80.9243V81.0365C78.2915 81.4167 78.2363 81.7693 78.1258 82.0943C78.0153 82.4193 77.8544 82.7036 77.6432 82.9474C77.4352 83.1879 77.1833 83.3764 76.8876 83.5129C76.5951 83.6461 76.2636 83.7127 75.8931 83.7127C75.5226 83.7127 75.1895 83.6461 74.8938 83.5129C74.5981 83.3764 74.3446 83.1879 74.1333 82.9474C73.9253 82.7036 73.7661 82.4193 73.6556 82.0943C73.5451 81.7693 73.4898 81.4167 73.4898 81.0365ZM74.3917 80.9243V81.0365C74.3917 81.2997 74.4226 81.5483 74.4843 81.7823C74.5461 82.013 74.6387 82.2178 74.7622 82.3965C74.8889 82.5753 75.0465 82.7166 75.235 82.8206C75.4235 82.9214 75.6429 82.9718 75.8931 82.9718C76.1401 82.9718 76.3562 82.9214 76.5415 82.8206C76.73 82.7166 76.886 82.5753 77.0095 82.3965C77.133 82.2178 77.2256 82.013 77.2873 81.7823C77.3523 81.5483 77.3848 81.2997 77.3848 81.0365V80.9243C77.3848 80.6644 77.3523 80.419 77.2873 80.1882C77.2256 79.9543 77.1313 79.7479 77.0046 79.5691C76.8811 79.3872 76.7251 79.2442 76.5366 79.1402C76.3514 79.0362 76.1336 78.9842 75.8834 78.9842C75.6364 78.9842 75.4186 79.0362 75.2302 79.1402C75.0449 79.2442 74.8889 79.3872 74.7622 79.5691C74.6387 79.7479 74.5461 79.9543 74.4843 80.1882C74.4226 80.419 74.3917 80.6644 74.3917 80.9243ZM85.9742 80.8512H83.9804L83.5173 80.6611C83.0038 80.4986 82.609 80.25 82.3327 79.9153C82.0565 79.5773 81.9184 79.158 81.9184 78.6576C81.9184 78.1993 82.0191 77.811 82.2206 77.4925C82.4254 77.174 82.7146 76.9319 83.0883 76.7661C83.4653 76.6004 83.9106 76.5175 84.424 76.5175H86.6957V83.6152H85.7549V77.2877H84.424C83.9041 77.2877 83.5125 77.4112 83.2492 77.6582C82.9892 77.9052 82.8592 78.2383 82.8592 78.6576C82.8592 78.9305 82.9161 79.1743 83.0298 79.3888C83.1468 79.6033 83.3191 79.7723 83.5466 79.8958C83.7741 80.0193 84.0568 80.081 84.3948 80.081H85.9791L85.9742 80.8512ZM84.3753 80.3637L82.6496 83.6152H81.6503L83.4247 80.3637H84.3753ZM88.2703 83.1375C88.2703 82.9848 88.3174 82.8564 88.4116 82.7524C88.5091 82.6451 88.6489 82.5915 88.8309 82.5915C89.0129 82.5915 89.151 82.6451 89.2452 82.7524C89.3427 82.8564 89.3915 82.9848 89.3915 83.1375C89.3915 83.287 89.3427 83.4137 89.2452 83.5177C89.151 83.6217 89.0129 83.6737 88.8309 83.6737C88.6489 83.6737 88.5091 83.6217 88.4116 83.5177C88.3174 83.4137 88.2703 83.287 88.2703 83.1375ZM96.6062 82.8499V83.6152H91.2342V82.8499H96.6062ZM91.3853 82.8499V85.3604H90.4542L90.4493 82.8499H91.3853ZM97.4252 82.8499L97.4154 85.3555H96.4843V82.8499H97.4252ZM95.6848 76.5175V77.2877H92.5747V76.5175H95.6848ZM96.4941 76.5175V83.6152H95.5581V76.5175H96.4941ZM92.253 76.5175H93.1938L93.0476 79.3742C93.0281 79.8031 92.9875 80.1996 92.9257 80.5636C92.864 80.9243 92.7876 81.2542 92.6966 81.5532C92.6056 81.8522 92.5016 82.1203 92.3846 82.3575C92.2676 82.5915 92.1425 82.7946 92.0092 82.9669C91.876 83.1359 91.7363 83.2756 91.59 83.3861C91.447 83.4934 91.3024 83.5697 91.1562 83.6152H90.7272V82.8499H91.0294C91.1139 82.7589 91.2098 82.6273 91.317 82.455C91.4275 82.2828 91.5364 82.0602 91.6436 81.7872C91.7541 81.5109 91.85 81.1746 91.9312 80.7781C92.0157 80.3816 92.0726 79.9136 92.1019 79.3742L92.253 76.5175ZM99.3702 82.1869L101.803 78.3407H102.709V83.6152H101.803V79.769L99.3702 83.6152H98.4732V78.3407H99.3702V82.1869ZM105.059 79.3547V85.6432H104.152V78.3407H104.981L105.059 79.3547ZM108.613 80.9341V81.0365C108.613 81.4199 108.567 81.7758 108.476 82.104C108.385 82.429 108.252 82.7118 108.077 82.9523C107.904 83.1928 107.692 83.3796 107.438 83.5129C107.185 83.6461 106.894 83.7127 106.565 83.7127C106.231 83.7127 105.935 83.6575 105.678 83.547C105.421 83.4365 105.204 83.2756 105.025 83.0644C104.846 82.8531 104.703 82.5996 104.596 82.3039C104.492 82.0082 104.421 81.6751 104.382 81.3046V80.7586C104.421 80.3686 104.494 80.0193 104.601 79.7105C104.708 79.4018 104.849 79.1385 105.025 78.9208C105.204 78.6998 105.42 78.5324 105.673 78.4187C105.927 78.3017 106.219 78.2432 106.551 78.2432C106.882 78.2432 107.176 78.3082 107.433 78.4382C107.69 78.5649 107.906 78.7469 108.081 78.9842C108.257 79.2214 108.389 79.5058 108.476 79.8373C108.567 80.1655 108.613 80.5311 108.613 80.9341ZM107.706 81.0365V80.9341C107.706 80.6709 107.679 80.4239 107.623 80.1931C107.568 79.9591 107.482 79.7544 107.365 79.5789C107.251 79.4002 107.105 79.2604 106.926 79.1597C106.747 79.0557 106.535 79.0037 106.288 79.0037C106.06 79.0037 105.862 79.0427 105.693 79.1207C105.527 79.1987 105.386 79.3043 105.269 79.4375C105.152 79.5675 105.056 79.717 104.981 79.886C104.91 80.0517 104.856 80.224 104.82 80.4027V81.6653C104.885 81.8928 104.976 82.1073 105.093 82.3088C105.21 82.507 105.366 82.6679 105.561 82.7914C105.756 82.9116 106.002 82.9718 106.297 82.9718C106.541 82.9718 106.751 82.9214 106.926 82.8206C107.105 82.7166 107.251 82.5753 107.365 82.3965C107.482 82.2178 107.568 82.013 107.623 81.7823C107.679 81.5483 107.706 81.2997 107.706 81.0365ZM111.952 83.7127C111.585 83.7127 111.252 83.651 110.953 83.5275C110.657 83.4007 110.402 83.2236 110.187 82.9961C109.976 82.7686 109.814 82.4989 109.7 82.1869C109.586 81.8749 109.529 81.5337 109.529 81.1632V80.9585C109.529 80.5295 109.593 80.1476 109.719 79.8129C109.846 79.4749 110.018 79.1889 110.236 78.9549C110.454 78.7209 110.701 78.5438 110.977 78.4236C111.253 78.3033 111.539 78.2432 111.835 78.2432C112.212 78.2432 112.537 78.3082 112.81 78.4382C113.086 78.5682 113.312 78.7502 113.488 78.9842C113.663 79.2149 113.793 79.4879 113.878 79.8031C113.962 80.1151 114.004 80.4564 114.004 80.8268V81.2315H110.066V80.4954H113.103V80.4271C113.09 80.1931 113.041 79.9656 112.956 79.7446C112.875 79.5236 112.745 79.3417 112.566 79.1987C112.388 79.0557 112.144 78.9842 111.835 78.9842C111.63 78.9842 111.442 79.028 111.27 79.1158C111.097 79.2003 110.949 79.327 110.826 79.496C110.703 79.665 110.607 79.8714 110.538 80.1151C110.47 80.3589 110.436 80.64 110.436 80.9585V81.1632C110.436 81.4134 110.47 81.6491 110.538 81.8701C110.61 82.0878 110.712 82.2795 110.845 82.4453C110.982 82.611 111.146 82.741 111.338 82.8353C111.533 82.9295 111.754 82.9766 112.001 82.9766C112.319 82.9766 112.589 82.9116 112.81 82.7816C113.031 82.6516 113.224 82.4778 113.39 82.26L113.936 82.6939C113.822 82.8661 113.678 83.0303 113.502 83.1863C113.327 83.3422 113.111 83.469 112.854 83.5665C112.6 83.664 112.3 83.7127 111.952 83.7127ZM116.037 78.3407V83.6152H115.135V78.3407H116.037ZM119.498 78.3407L116.998 81.3631H115.735L115.598 80.5734H116.632L118.401 78.3407H119.498ZM118.528 83.6152L116.588 81.2266L117.168 80.5734L119.674 83.6152H118.528ZM122.608 78.3407V83.6152H121.702V78.3407H122.608ZM124.378 78.3407V79.0719H119.966V78.3407H124.378ZM125.28 83.1375C125.28 82.9848 125.327 82.8564 125.421 82.7524C125.519 82.6451 125.658 82.5915 125.84 82.5915C126.022 82.5915 126.161 82.6451 126.255 82.7524C126.352 82.8564 126.401 82.9848 126.401 83.1375C126.401 83.287 126.352 83.4137 126.255 83.5177C126.161 83.6217 126.022 83.6737 125.84 83.6737C125.658 83.6737 125.519 83.6217 125.421 83.5177C125.327 83.4137 125.28 83.287 125.28 83.1375Z" fill="#333333"/>
<g filter="url(#filter0_d_3_1590)">
<rect x="18.541" y="101.59" width="344" height="28.5492" rx="3.56557" fill="#EFB503"/>
<path d="M149.704 116.361H147.857V115.391H149.704C150.026 115.391 150.286 115.339 150.484 115.235C150.683 115.131 150.827 114.988 150.918 114.806C151.012 114.62 151.06 114.409 151.06 114.172C151.06 113.948 151.012 113.738 150.918 113.543C150.827 113.345 150.683 113.186 150.484 113.065C150.286 112.945 150.026 112.885 149.704 112.885H148.232V119.008H147.009V111.91H149.704C150.254 111.91 150.72 112.008 151.103 112.203C151.49 112.394 151.784 112.661 151.986 113.002C152.187 113.34 152.288 113.727 152.288 114.162C152.288 114.62 152.187 115.014 151.986 115.342C151.784 115.67 151.49 115.922 151.103 116.098C150.72 116.273 150.254 116.361 149.704 116.361ZM156.183 117.95V115.435C156.183 115.246 156.149 115.084 156.081 114.947C156.012 114.811 155.908 114.705 155.769 114.63C155.632 114.555 155.46 114.518 155.252 114.518C155.06 114.518 154.894 114.551 154.755 114.616C154.615 114.681 154.506 114.768 154.428 114.879C154.35 114.989 154.311 115.114 154.311 115.254H153.141C153.141 115.046 153.191 114.845 153.292 114.65C153.393 114.455 153.539 114.281 153.731 114.128C153.923 113.975 154.152 113.855 154.418 113.767C154.685 113.68 154.984 113.636 155.315 113.636C155.712 113.636 156.063 113.702 156.368 113.836C156.677 113.969 156.919 114.17 157.095 114.44C157.273 114.707 157.363 115.041 157.363 115.444V117.789C157.363 118.03 157.379 118.246 157.411 118.437C157.447 118.626 157.498 118.79 157.563 118.93V119.008H156.358C156.303 118.881 156.259 118.72 156.227 118.525C156.198 118.327 156.183 118.135 156.183 117.95ZM156.354 115.8L156.363 116.527H155.52C155.302 116.527 155.111 116.548 154.945 116.59C154.779 116.629 154.641 116.687 154.53 116.765C154.42 116.843 154.337 116.938 154.282 117.048C154.227 117.159 154.199 117.284 154.199 117.423C154.199 117.563 154.231 117.692 154.296 117.809C154.361 117.922 154.456 118.012 154.579 118.077C154.706 118.142 154.859 118.174 155.037 118.174C155.278 118.174 155.488 118.125 155.666 118.028C155.848 117.927 155.991 117.805 156.095 117.662C156.199 117.516 156.254 117.378 156.261 117.248L156.641 117.77C156.602 117.903 156.536 118.046 156.441 118.199C156.347 118.351 156.224 118.498 156.071 118.637C155.921 118.774 155.741 118.886 155.53 118.974C155.322 119.061 155.081 119.105 154.808 119.105C154.464 119.105 154.157 119.037 153.887 118.901C153.617 118.761 153.406 118.574 153.253 118.34C153.1 118.103 153.024 117.835 153.024 117.536C153.024 117.256 153.076 117.009 153.18 116.795C153.287 116.577 153.443 116.395 153.648 116.249C153.856 116.102 154.11 115.992 154.409 115.917C154.708 115.839 155.049 115.8 155.432 115.8H156.354ZM160.775 116.488H159.761V115.893H160.58C160.788 115.893 160.954 115.865 161.077 115.81C161.204 115.755 161.293 115.678 161.345 115.581C161.401 115.48 161.428 115.363 161.428 115.23C161.428 115.113 161.401 115.002 161.345 114.898C161.293 114.791 161.204 114.703 161.077 114.635C160.951 114.567 160.778 114.533 160.561 114.533C160.382 114.533 160.221 114.562 160.078 114.62C159.938 114.679 159.828 114.76 159.746 114.864C159.665 114.968 159.625 115.088 159.625 115.225H158.45C158.45 114.897 158.542 114.614 158.728 114.377C158.916 114.14 159.168 113.958 159.483 113.831C159.798 113.704 160.145 113.641 160.522 113.641C160.843 113.641 161.133 113.675 161.389 113.743C161.646 113.808 161.864 113.906 162.043 114.036C162.224 114.162 162.363 114.321 162.457 114.513C162.554 114.702 162.603 114.921 162.603 115.171C162.603 115.35 162.561 115.519 162.476 115.678C162.392 115.838 162.27 115.979 162.111 116.102C161.952 116.223 161.758 116.317 161.531 116.385C161.306 116.453 161.055 116.488 160.775 116.488ZM159.761 116.146H160.775C161.087 116.146 161.363 116.177 161.604 116.239C161.844 116.297 162.046 116.385 162.208 116.502C162.371 116.619 162.493 116.764 162.574 116.936C162.658 117.105 162.701 117.3 162.701 117.521C162.701 117.768 162.647 117.991 162.54 118.189C162.436 118.384 162.286 118.55 162.091 118.686C161.9 118.823 161.67 118.927 161.404 118.998C161.137 119.07 160.843 119.105 160.522 119.105C160.171 119.105 159.829 119.047 159.498 118.93C159.17 118.813 158.898 118.632 158.684 118.389C158.473 118.142 158.367 117.828 158.367 117.448H159.542C159.542 117.581 159.582 117.706 159.664 117.823C159.745 117.94 159.862 118.036 160.015 118.111C160.167 118.182 160.351 118.218 160.565 118.218C160.786 118.218 160.967 118.184 161.107 118.116C161.246 118.044 161.35 117.952 161.419 117.838C161.487 117.721 161.521 117.597 161.521 117.467C161.521 117.292 161.487 117.151 161.419 117.043C161.35 116.936 161.246 116.858 161.107 116.809C160.967 116.757 160.791 116.731 160.58 116.731H159.761V116.146ZM164.88 114.747V121.036H163.705V113.733H164.787L164.88 114.747ZM168.316 116.322V116.424C168.316 116.808 168.271 117.164 168.18 117.492C168.092 117.817 167.961 118.101 167.785 118.345C167.613 118.585 167.4 118.772 167.146 118.905C166.893 119.039 166.6 119.105 166.269 119.105C165.941 119.105 165.653 119.045 165.406 118.925C165.162 118.801 164.956 118.628 164.787 118.403C164.618 118.179 164.482 117.916 164.378 117.614C164.277 117.308 164.205 116.973 164.163 116.609V116.215C164.205 115.828 164.277 115.477 164.378 115.162C164.482 114.846 164.618 114.575 164.787 114.347C164.956 114.12 165.162 113.945 165.406 113.821C165.65 113.698 165.934 113.636 166.259 113.636C166.591 113.636 166.885 113.701 167.142 113.831C167.398 113.958 167.614 114.14 167.79 114.377C167.965 114.611 168.097 114.893 168.185 115.225C168.273 115.553 168.316 115.919 168.316 116.322ZM167.142 116.424V116.322C167.142 116.078 167.119 115.852 167.073 115.644C167.028 115.433 166.956 115.248 166.859 115.088C166.761 114.929 166.636 114.806 166.483 114.718C166.334 114.627 166.154 114.581 165.942 114.581C165.734 114.581 165.556 114.617 165.406 114.689C165.257 114.757 165.132 114.853 165.031 114.976C164.93 115.1 164.852 115.244 164.797 115.41C164.742 115.573 164.703 115.75 164.68 115.942V116.887C164.719 117.121 164.785 117.336 164.88 117.531C164.974 117.726 165.107 117.882 165.279 117.999C165.455 118.112 165.679 118.169 165.952 118.169C166.163 118.169 166.344 118.124 166.493 118.033C166.643 117.942 166.765 117.817 166.859 117.657C166.956 117.495 167.028 117.308 167.073 117.097C167.119 116.886 167.142 116.661 167.142 116.424ZM171.641 119.105C171.251 119.105 170.898 119.042 170.583 118.915C170.271 118.785 170.005 118.605 169.784 118.374C169.566 118.143 169.399 117.872 169.282 117.56C169.165 117.248 169.106 116.912 169.106 116.551V116.356C169.106 115.943 169.166 115.569 169.286 115.235C169.407 114.9 169.574 114.614 169.789 114.377C170.003 114.136 170.257 113.953 170.549 113.826C170.842 113.699 171.158 113.636 171.5 113.636C171.877 113.636 172.206 113.699 172.489 113.826C172.772 113.953 173.006 114.131 173.191 114.362C173.38 114.59 173.519 114.861 173.61 115.176C173.705 115.491 173.752 115.839 173.752 116.219V116.722H169.676V115.878H172.592V115.786C172.585 115.574 172.543 115.376 172.465 115.191C172.39 115.006 172.275 114.856 172.119 114.742C171.963 114.629 171.755 114.572 171.495 114.572C171.3 114.572 171.126 114.614 170.973 114.698C170.824 114.78 170.699 114.898 170.598 115.054C170.497 115.21 170.419 115.399 170.364 115.62C170.312 115.838 170.286 116.083 170.286 116.356V116.551C170.286 116.782 170.317 116.996 170.378 117.194C170.443 117.389 170.538 117.56 170.661 117.706C170.785 117.852 170.934 117.968 171.11 118.052C171.285 118.134 171.485 118.174 171.709 118.174C171.992 118.174 172.244 118.117 172.465 118.004C172.686 117.89 172.878 117.729 173.04 117.521L173.659 118.121C173.545 118.286 173.398 118.446 173.216 118.598C173.034 118.748 172.811 118.87 172.548 118.964C172.288 119.058 171.985 119.105 171.641 119.105ZM174.707 113.733H175.882V118.072H177.554V113.733H178.739V118.072H180.406V113.733H181.581V119.008H174.707V113.733ZM184.062 117.292L186.134 113.733H187.309V119.008H186.134V115.444L184.062 119.008H182.887V113.733H184.062V117.292ZM190.999 113.733V119.008H189.819V113.733H190.999ZM192.729 113.733V114.659H188.118V113.733H192.729ZM194.387 115.41H195.942C196.397 115.41 196.784 115.487 197.102 115.639C197.421 115.792 197.663 116.005 197.828 116.278C197.997 116.548 198.082 116.856 198.082 117.204C198.082 117.461 198.035 117.7 197.941 117.921C197.846 118.138 197.707 118.329 197.521 118.491C197.339 118.654 197.115 118.78 196.849 118.871C196.585 118.962 196.283 119.008 195.942 119.008H193.607V113.733H194.787V118.077H195.942C196.176 118.077 196.363 118.036 196.503 117.955C196.642 117.874 196.743 117.768 196.805 117.638C196.87 117.508 196.902 117.37 196.902 117.224C196.902 117.074 196.87 116.933 196.805 116.8C196.743 116.666 196.642 116.557 196.503 116.473C196.363 116.388 196.176 116.346 195.942 116.346H194.387V115.41ZM202.464 113.733H203.639L203.581 115.591C203.564 116.13 203.503 116.593 203.395 116.98C203.288 117.367 203.149 117.693 202.976 117.96C202.804 118.223 202.609 118.439 202.391 118.608C202.177 118.777 201.951 118.91 201.714 119.008H201.368V118.082L201.533 118.072C201.673 117.922 201.793 117.773 201.894 117.623C201.998 117.471 202.086 117.303 202.157 117.121C202.229 116.936 202.284 116.72 202.323 116.473C202.365 116.226 202.393 115.932 202.406 115.591L202.464 113.733ZM202.776 113.733H206.121V119.008H204.951V114.728H202.776V113.733ZM201.099 118.072H206.842V120.578H205.667V119.008H202.289V120.578H201.095L201.099 118.072ZM207.456 116.429V116.317C207.456 115.937 207.511 115.584 207.622 115.259C207.732 114.931 207.892 114.646 208.1 114.406C208.311 114.162 208.568 113.974 208.87 113.841C209.175 113.704 209.52 113.636 209.903 113.636C210.29 113.636 210.635 113.704 210.937 113.841C211.242 113.974 211.501 114.162 211.712 114.406C211.923 114.646 212.084 114.931 212.195 115.259C212.305 115.584 212.36 115.937 212.36 116.317V116.429C212.36 116.809 212.305 117.162 212.195 117.487C212.084 117.812 211.923 118.096 211.712 118.34C211.501 118.58 211.244 118.769 210.942 118.905C210.639 119.039 210.297 119.105 209.913 119.105C209.526 119.105 209.18 119.039 208.875 118.905C208.573 118.769 208.316 118.58 208.105 118.34C207.893 118.096 207.732 117.812 207.622 117.487C207.511 117.162 207.456 116.809 207.456 116.429ZM208.631 116.317V116.429C208.631 116.666 208.655 116.891 208.704 117.102C208.753 117.313 208.829 117.498 208.933 117.657C209.037 117.817 209.171 117.942 209.333 118.033C209.496 118.124 209.689 118.169 209.913 118.169C210.131 118.169 210.319 118.124 210.479 118.033C210.641 117.942 210.774 117.817 210.878 117.657C210.982 117.498 211.059 117.313 211.107 117.102C211.159 116.891 211.185 116.666 211.185 116.429V116.317C211.185 116.083 211.159 115.862 211.107 115.654C211.059 115.443 210.981 115.256 210.873 115.093C210.769 114.931 210.636 114.804 210.474 114.713C210.314 114.619 210.124 114.572 209.903 114.572C209.682 114.572 209.491 114.619 209.328 114.713C209.169 114.804 209.037 114.931 208.933 115.093C208.829 115.256 208.753 115.443 208.704 115.654C208.655 115.862 208.631 116.083 208.631 116.317ZM215.5 118.169C215.691 118.169 215.864 118.132 216.016 118.057C216.172 117.979 216.297 117.872 216.392 117.735C216.489 117.599 216.543 117.441 216.553 117.263H217.659C217.653 117.604 217.552 117.914 217.357 118.194C217.162 118.473 216.904 118.696 216.582 118.862C216.26 119.024 215.904 119.105 215.514 119.105C215.111 119.105 214.76 119.037 214.461 118.901C214.162 118.761 213.914 118.569 213.715 118.325C213.517 118.082 213.368 117.8 213.267 117.482C213.169 117.164 213.121 116.822 213.121 116.458V116.288C213.121 115.924 213.169 115.582 213.267 115.264C213.368 114.942 213.517 114.659 213.715 114.416C213.914 114.172 214.162 113.982 214.461 113.845C214.76 113.706 215.11 113.636 215.509 113.636C215.932 113.636 216.302 113.72 216.621 113.889C216.939 114.055 217.19 114.287 217.372 114.586C217.557 114.882 217.653 115.227 217.659 115.62H216.553C216.543 115.425 216.494 115.249 216.406 115.093C216.322 114.934 216.202 114.807 216.046 114.713C215.893 114.619 215.709 114.572 215.495 114.572C215.258 114.572 215.061 114.62 214.905 114.718C214.749 114.812 214.627 114.942 214.539 115.108C214.452 115.27 214.388 115.454 214.349 115.659C214.313 115.86 214.296 116.07 214.296 116.288V116.458C214.296 116.676 214.313 116.887 214.349 117.092C214.385 117.297 214.447 117.48 214.534 117.643C214.625 117.802 214.749 117.93 214.905 118.028C215.061 118.122 215.259 118.169 215.5 118.169ZM221.008 113.733V119.008H219.828V113.733H221.008ZM222.739 113.733V114.659H218.127V113.733H222.739ZM225.113 118.433L226.546 113.733H227.804L225.688 119.812C225.639 119.942 225.576 120.084 225.498 120.236C225.42 120.389 225.318 120.534 225.191 120.67C225.067 120.81 224.913 120.922 224.728 121.006C224.542 121.094 224.318 121.138 224.055 121.138C223.951 121.138 223.85 121.128 223.753 121.109C223.658 121.093 223.569 121.075 223.485 121.055L223.48 120.158C223.512 120.162 223.551 120.165 223.597 120.168C223.645 120.171 223.684 120.173 223.714 120.173C223.909 120.173 224.071 120.149 224.201 120.1C224.331 120.054 224.437 119.98 224.518 119.876C224.603 119.772 224.674 119.632 224.733 119.456L225.113 118.433ZM224.304 113.733L225.556 117.682L225.766 118.92L224.952 119.13L223.036 113.733H224.304ZM232.015 113.733V114.669H229.412V113.733H232.015ZM229.69 113.733V119.008H228.515V113.733H229.69ZM232.937 113.733V119.008H231.757V113.733H232.937Z" fill="white"/>
</g>
<defs>
<filter id="filter0_d_3_1590" x="7.84429" y="93.7456" width="365.393" height="49.9423" filterUnits="userSpaceOnUse" color-interpolation-filters="sRGB">
<feFlood flood-opacity="0" result="BackgroundImageFix"/>
<feColorMatrix in="SourceAlpha" type="matrix" values="0 0 0 0 0 0 0 0 0 0 0 0 0 0 0 0 0 0 127 0" result="hardAlpha"/>
<feOffset dy="2.85246"/>
<feGaussianBlur stdDeviation="5.34836"/>
<feComposite in2="hardAlpha" operator="out"/>
<feColorMatrix type="matrix" values="0 0 0 0 0.937255 0 0 0 0 0.709804 0 0 0 0 0.0117647 0 0 0 0.3 0"/>
<feBlend mode="normal" in2="BackgroundImageFix" result="effect1_dropShadow_3_1590"/>
<feBlend mode="normal" in="SourceGraphic" in2="effect1_dropShadow_3_1590" result="shape"/>
</filter>
</defs>
</svg>
