<svg width="89" height="56" fill="none" xmlns="http://www.w3.org/2000/svg"><path d="M22.393 29.945 8.513 5.147l64.96 11.943 4.656 12.855H22.393Z" fill="#EA2234"/><path d="M31.53 31.596 25.047 49.4l51.776-5.124 4.438-12.681H31.53Z" fill="#111"/><path d="m34.184 42.235 2.872-7.817h2.785v5.038l3.698-5.038h2.828l-2.741 7.817h-2.132l1.87-4.994-3.74 4.994h-1.48v-5.037l-1.915 5.037h-2.045Zm20.406-7.817-.522 1.477h-4.481l-.653 1.563h4.047l-.653 1.52h-3.829l-.696 1.78h4.568l-.522 1.477h-6.657l2.916-7.817h6.482Zm7.615 1.39c-.261-.825-1.262-1.39-2.002-1.39h-4.35l-2.96 7.817h4.526s2.523-.217 3.698-2.171c1.088-1.694 1.436-3.214 1.088-4.256Zm-2.872 3.43c-.522.956-1.436 1.434-1.958 1.434h-1.74l1.74-4.777h1.653c.044 0 2.002.347.305 3.344Zm5.221-4.82-2.871 7.817h2.132l2.784-7.817h-2.045Zm7.876 0h-2.132l-5.874 7.86h2.175l1.088-1.563h2.654v1.564h2.176l-.087-7.86Zm-2.002 4.951v.087H68.47l1.958-2.866v2.78Z" fill="#fff"/><path d="M25.352 8.23 8.514 5.148l2.306 4.126 14.532-1.042Z" fill="#EF5D54"/><path d="m22.872 8.404 4.22 2.693-15.053.434-1.219-2.258 12.052-.869Z" fill="url(#a)"/><path d="m22.871 8.404 2.48-.174 11.617 2.128-9.964.695-4.133-2.649Z" fill="#F4826A"/><path d="m19.74 11.314 16.49-1.085 17.142 3.17-11.008.651-22.625-2.736Z" fill="url(#b)"/><path d="m19.26 11.314.61 1.042-3.698 6.471-4.134-7.296 7.223-.217Z" fill="#EF654C"/><path d="m17.477 21.129 6.788-1.954-4.395-6.819-3.698 6.471 1.305 2.302Z" fill="#F4825B"/><path d="m19.13 11.27 23.67 2.823-18.536 5.081-5.134-7.903Z" fill="url(#c)"/><path d="m24.264 19.175 1.958 2.996-7.397 1.39-1.348-2.432 6.787-1.954Z" fill="#DA4F2A"/><path d="m21.002 27.47 8.397-.217-3.176-5.081-7.397 1.39 2.176 3.908Z" fill="#ED5627"/><path d="m20.74 26.948 4.308 2.997h-2.654l-1.654-2.997Z" fill="#F47F41"/><path d="m27.788 27.296-3.916 1.824-2.393-1.65 6.31-.174Z" fill="#F36F37"/><path d="m29.399 27.253 1.784 2.692h-6.135l-1.175-.825 3.916-1.824 1.61-.043Z" fill="#F47B39"/><path d="m27.615 18.263 7.875 2.388-9.267 1.52-1.958-2.996 3.35-.912Z" fill="#C74329"/><path d="m35.49 16.092 4.176 2.736v.868l-4.177.956-7.875-2.389 7.875-2.171Z" fill="#CE4829"/><path d="m39.972 14.875-.305 3.952-4.177-2.736 4.482-1.216Z" fill="#CD4229"/><path d="m42.321 14.224-1.349 5.08-.652 2.476h-1.045l.697-6.905 2.35-.651Z" fill="#C2332A"/><path d="m58.419 16.265-17.447 3.04 1.348-5.081 16.099 2.04Z" fill="#B7212A"/><path d="m54.112 13.53 19.361 3.56.392 1.086-31.544-3.952v-.13l11.79-.565Z" fill="#E92330"/><path d="m75.344 22.301-35.025-.52.653-2.476 17.273-3.04 15.62 1.91 1.48 4.126Z" fill="#DA222A"/><path d="m39.493 19.74-.217 2.04-3.786-1.129 4.003-.912Z" fill="#E54727"/><path d="m29.05 26.645 10.226-4.864-3.786-1.13-9.267 1.52 2.828 4.474Z" fill="#DE492A"/><path d="m29.224 26.948 9.746-.303.305-4.864-10.225 4.864.174.303Z" fill="#DD563A"/><path d="m29.398 27.253 9.18 1.65.392-2.258-9.746.303.174.305Z" fill="#EF5E3B"/><path d="M31.182 29.945h7.31l.087-1.042-9.18-1.65 1.783 2.692Z" fill="#F68E51"/><path d="m38.97 26.645 37.288-1.868-.913-2.475-36.07-.521-.304 4.864Z" fill="#C7242A"/><path d="m78.13 29.945-1.871-5.168-37.288 1.868-.479 3.3H78.13Z" fill="url(#d)"/><path d="M32.4 19.305h-2.175l-5.744 7.817h2.132l1.045-1.433h2.784l.044 1.433h2.132l-.218-7.817Zm-1.958 5.037h-1.914l1.914-2.866v2.866Zm11.225-1.823c.392-.435.827-1.043.784-1.824-.044-.782-.566-1.173-1.001-1.26-.435-.087-.914-.087-.914-.087h-4.481l-2.828 7.818h2.045l.957-2.78h1.958c.522 0 .522.478.391.869-.13.39-.304.955-.435 1.216-.087.26.044.651.479.651h1.653s-.348-.174-.217-.608c.087-.347.609-1.824.74-2.171.13-.348.043-.521-.218-.652-.174-.087-.61-.087-.61-.087l.044-.173c.087-.044 1.044-.26 1.653-.912Zm-1.827-.217c-.348.52-1.088.52-1.088.52h-1.87l.696-1.997h1.914c.435 0 .566.13.696.347.087.261-.087.739-.348 1.13Zm10.095.217c.391-.435.826-1.043.783-1.824-.044-.782-.566-1.173-1-1.26-.436-.087-.915-.087-.915-.087h-4.481l-2.828 7.818h2.045l.957-2.78h1.958c.522 0 .522.478.392.869-.13.39-.305.955-.435 1.216-.088.26.043.651.478.651h1.653s-.348-.174-.217-.608c.087-.347.61-1.824.74-2.171.13-.348.043-.521-.218-.652-.174-.087-.61-.087-.61-.087l.044-.173c.087-.044 1.045-.26 1.654-.912Zm-1.871-.217c-.348.52-1.088.52-1.088.52h-1.87l.695-1.997h1.915c.435 0 .565.13.696.347.13.261-.044.739-.348 1.13Zm8.832-3.171c-2.001-.086-4.177.348-5.613 2.78-1.74 2.91-1.218 5.428 1.74 5.472 2.785.043 4.352-1.043 5.483-3.084 1-1.824 1.566-5.08-1.61-5.168Zm-.217 4.517c-.697 1.39-1.436 2.128-2.872 2.128-1.566 0-1.349-1.824-.653-3.214.827-1.694 1.871-2.084 2.915-1.997 1.523.086 1.001 2.301.61 3.083Zm3.741-4.386h2.176l-.783 5.602 3.437-5.602h1.74l-.566 5.602 3.264-5.602h2.132l-5.004 7.947h-2.219l.696-5.602-3.394 5.602h-2.131l.652-7.947Z" fill="#fff"/><defs><linearGradient id="a" x1="19.233" y1="8.34" x2="18.725" y2="11.774" gradientUnits="userSpaceOnUse"><stop stop-color="#F37165"/><stop offset=".375" stop-color="#F37369"/><stop offset=".865" stop-color="#F37973"/><stop offset="1" stop-color="#F37B76"/></linearGradient><linearGradient id="b" x1="20.319" y1="13.704" x2="48.642" y2="11.329" gradientUnits="userSpaceOnUse"><stop offset=".01" stop-color="#fff"/><stop offset="1" stop-color="#EE4A9A"/></linearGradient><linearGradient id="c" x1="19.149" y1="15.221" x2="42.803" y2="15.221" gradientUnits="userSpaceOnUse"><stop offset=".01" stop-color="#F15F45"/><stop offset="1" stop-color="#F04C30"/></linearGradient><linearGradient id="d" x1="56.012" y1="30.829" x2="60.449" y2="26.36" gradientUnits="userSpaceOnUse"><stop offset=".01" stop-color="#EE202F"/><stop offset="1" stop-color="#EE1F3F"/></linearGradient></defs></svg>