<svg width="40" height="41" viewBox="0 0 40 41" fill="none" xmlns="http://www.w3.org/2000/svg">
<path d="M5.5625 28.8335C7.02503 31.368 9.12934 33.4726 11.6637 34.9355C14.198 36.3984 17.0729 37.168 19.9992 37.1668C22.9254 37.168 25.8003 36.3984 28.3347 34.9355C30.869 33.4726 32.9733 31.368 34.4358 28.8335M5.5625 12.1668C7.02503 9.63229 9.12934 7.52768 11.6637 6.06479C14.198 4.60189 17.0729 3.83231 19.9992 3.8335C22.9254 3.83231 25.8003 4.60189 28.3347 6.06479C30.869 7.52768 32.9733 9.63229 34.4358 12.1668" stroke="#EFB503" stroke-width="2.5" stroke-linecap="round" stroke-linejoin="round"/>
<path d="M21.666 37.0837C21.666 37.0837 24.0127 33.9953 25.491 28.8337M21.666 3.91699C21.666 3.91699 24.0127 7.00366 25.491 12.167M18.3327 37.0837C18.3327 37.0837 15.986 33.997 14.5077 28.8337M18.3327 3.91699C18.3327 3.91699 15.986 7.00366 14.5077 12.167M14.9993 17.167L17.4993 25.5003L19.9993 17.167L22.4993 25.5003L24.9993 17.167M1.66602 17.167L4.16602 25.5003L6.66602 17.167L9.16601 25.5003L11.666 17.167M28.3327 17.167L30.8327 25.5003L33.3327 17.167L35.8327 25.5003L38.3327 17.167" stroke="#EFB503" stroke-width="2.5" stroke-linecap="round" stroke-linejoin="round"/>
</svg>
