<svg width="654" height="258" viewBox="0 0 654 258" fill="none" xmlns="http://www.w3.org/2000/svg">
<rect width="654" height="258" rx="18.6125" fill="white"/>
<rect width="654" height="258" rx="18.6125" fill="white"/>
<rect x="288" y="24.7229" width="80" height="74.2169" rx="13.494" fill="#FDF7E4"/>
<g clip-path="url(#clip0_28_7761)">
<path d="M304.447 60.8681C304.447 47.8749 315.078 37.2441 328.071 37.2441C341.064 37.2441 351.695 47.8749 351.695 60.8681C351.695 73.8612 341.064 84.492 328.071 84.492C315.078 84.492 304.447 73.8612 304.447 60.8681Z" fill="#1A4A7F"/>
<path fill-rule="evenodd" clip-rule="evenodd" d="M324.684 84.4922C319.913 83.7523 315.439 81.5329 312.01 78.1297L333.482 58.5983L321.255 61.5576C317.825 62.4454 314.396 60.3739 313.65 56.9707C313.65 56.9707 313.65 56.9707 313.65 56.8228C312.904 53.4196 314.992 50.0164 318.421 49.1286L344.068 42.9141C354.208 51.3481 355.55 66.2925 347.051 76.2061C344.665 79.0175 341.683 81.2369 338.253 82.7166C338.253 81.8288 338.253 80.941 338.551 80.2012L342.577 68.216C342.428 68.216 324.684 84.4922 324.684 84.4922Z" fill="url(#paint0_linear_28_7761)"/>
</g>
<path d="M180.172 130.738H177.193V128.641H179.566C180.26 128.641 180.823 128.536 181.253 128.325C181.684 128.105 182 127.798 182.203 127.402C182.405 127.007 182.506 126.541 182.506 126.005C182.506 125.565 182.392 125.161 182.163 124.792C181.943 124.423 181.601 124.128 181.135 123.908C180.669 123.68 180.076 123.566 179.355 123.566C178.81 123.566 178.313 123.662 177.865 123.856C177.417 124.049 177.061 124.322 176.797 124.673C176.534 125.016 176.402 125.433 176.402 125.926H172.46C172.46 125.082 172.64 124.326 173 123.658C173.37 122.981 173.871 122.41 174.503 121.944C175.145 121.469 175.883 121.109 176.718 120.863C177.553 120.617 178.432 120.494 179.355 120.494C180.436 120.494 181.412 120.613 182.282 120.85C183.152 121.078 183.899 121.421 184.523 121.878C185.147 122.335 185.626 122.902 185.96 123.579C186.294 124.256 186.461 125.042 186.461 125.939C186.461 126.598 186.312 127.218 186.013 127.798C185.714 128.378 185.288 128.887 184.734 129.327C184.18 129.766 183.517 130.114 182.743 130.368C181.97 130.615 181.113 130.738 180.172 130.738ZM177.193 129.591H180.172C181.218 129.591 182.146 129.7 182.954 129.92C183.771 130.14 184.461 130.461 185.024 130.883C185.595 131.304 186.026 131.827 186.316 132.451C186.615 133.067 186.764 133.774 186.764 134.574C186.764 135.47 186.58 136.266 186.21 136.96C185.85 137.655 185.336 138.243 184.668 138.727C184.009 139.21 183.227 139.575 182.321 139.821C181.425 140.067 180.436 140.19 179.355 140.19C178.494 140.19 177.637 140.085 176.784 139.874C175.932 139.654 175.158 139.32 174.464 138.872C173.77 138.424 173.216 137.848 172.803 137.145C172.39 136.442 172.183 135.598 172.183 134.614H176.151C176.151 135.079 176.288 135.506 176.56 135.892C176.833 136.27 177.21 136.573 177.694 136.802C178.177 137.022 178.731 137.132 179.355 137.132C180.084 137.132 180.704 137.017 181.214 136.789C181.732 136.56 182.124 136.248 182.387 135.853C182.66 135.448 182.796 135.005 182.796 134.521C182.796 134.003 182.726 133.563 182.585 133.203C182.444 132.843 182.238 132.548 181.965 132.32C181.693 132.082 181.354 131.911 180.95 131.805C180.555 131.7 180.093 131.647 179.566 131.647H177.193V129.591ZM197.153 136.723V130.368C197.153 129.911 197.078 129.52 196.929 129.195C196.779 128.861 196.546 128.602 196.23 128.417C195.922 128.233 195.522 128.14 195.03 128.14C194.608 128.14 194.244 128.215 193.936 128.365C193.628 128.505 193.391 128.712 193.224 128.984C193.057 129.248 192.974 129.56 192.974 129.92H189.177C189.177 129.314 189.317 128.738 189.599 128.193C189.88 127.648 190.289 127.169 190.825 126.756C191.361 126.334 191.998 126.005 192.736 125.767C193.483 125.53 194.318 125.411 195.241 125.411C196.349 125.411 197.333 125.596 198.194 125.965C199.056 126.334 199.732 126.888 200.225 127.626C200.726 128.365 200.976 129.287 200.976 130.395V136.499C200.976 137.281 201.024 137.923 201.121 138.424C201.218 138.916 201.358 139.346 201.543 139.716V139.94H197.707C197.522 139.553 197.381 139.07 197.285 138.49C197.197 137.901 197.153 137.312 197.153 136.723ZM197.654 131.252L197.68 133.401H195.558C195.057 133.401 194.622 133.458 194.252 133.572C193.883 133.686 193.58 133.849 193.343 134.06C193.105 134.262 192.93 134.499 192.815 134.772C192.71 135.044 192.657 135.343 192.657 135.668C192.657 135.993 192.732 136.288 192.881 136.552C193.031 136.806 193.246 137.009 193.527 137.158C193.809 137.299 194.138 137.369 194.516 137.369C195.087 137.369 195.584 137.255 196.006 137.026C196.428 136.798 196.753 136.516 196.981 136.182C197.219 135.848 197.342 135.532 197.351 135.233L198.353 136.842C198.212 137.202 198.019 137.575 197.772 137.962C197.535 138.349 197.232 138.714 196.863 139.056C196.494 139.39 196.05 139.667 195.531 139.887C195.013 140.098 194.397 140.203 193.686 140.203C192.78 140.203 191.958 140.023 191.22 139.663C190.491 139.294 189.911 138.788 189.48 138.147C189.058 137.496 188.847 136.758 188.847 135.932C188.847 135.185 188.988 134.521 189.269 133.941C189.55 133.361 189.963 132.873 190.508 132.478C191.062 132.073 191.752 131.77 192.578 131.568C193.404 131.357 194.362 131.252 195.452 131.252H197.654ZM226.012 136.987L225.748 144.172H222.215V139.94H220.62V136.987H226.012ZM203.85 125.675H207.647V136.973H211.602V125.675H215.412V136.973H219.354V125.675H223.151V139.94H203.85V125.675ZM232.05 134.64L236.835 125.675H240.632V139.94H236.835V130.962L232.05 139.94H228.253V125.675H232.05V134.64ZM250.823 125.675V139.94H247.013V125.675H250.823ZM255.411 125.675V128.615H242.491V125.675H255.411ZM264.837 136.723V130.368C264.837 129.911 264.763 129.52 264.613 129.195C264.464 128.861 264.231 128.602 263.915 128.417C263.607 128.233 263.207 128.14 262.715 128.14C262.293 128.14 261.928 128.215 261.621 128.365C261.313 128.505 261.076 128.712 260.909 128.984C260.742 129.248 260.658 129.56 260.658 129.92H256.861C256.861 129.314 257.002 128.738 257.283 128.193C257.564 127.648 257.973 127.169 258.509 126.756C259.045 126.334 259.683 126.005 260.421 125.767C261.168 125.53 262.003 125.411 262.926 125.411C264.033 125.411 265.018 125.596 265.879 125.965C266.74 126.334 267.417 126.888 267.909 127.626C268.41 128.365 268.661 129.287 268.661 130.395V136.499C268.661 137.281 268.709 137.923 268.806 138.424C268.902 138.916 269.043 139.346 269.228 139.716V139.94H265.391C265.207 139.553 265.066 139.07 264.969 138.49C264.881 137.901 264.837 137.312 264.837 136.723ZM265.338 131.252L265.365 133.401H263.242C262.741 133.401 262.306 133.458 261.937 133.572C261.568 133.686 261.265 133.849 261.027 134.06C260.79 134.262 260.614 134.499 260.5 134.772C260.395 135.044 260.342 135.343 260.342 135.668C260.342 135.993 260.417 136.288 260.566 136.552C260.715 136.806 260.931 137.009 261.212 137.158C261.493 137.299 261.823 137.369 262.201 137.369C262.772 137.369 263.269 137.255 263.69 137.026C264.112 136.798 264.438 136.516 264.666 136.182C264.903 135.848 265.026 135.532 265.035 135.233L266.037 136.842C265.896 137.202 265.703 137.575 265.457 137.962C265.22 138.349 264.917 138.714 264.547 139.056C264.178 139.39 263.734 139.667 263.216 139.887C262.697 140.098 262.082 140.203 261.37 140.203C260.465 140.203 259.643 140.023 258.905 139.663C258.175 139.294 257.595 138.788 257.165 138.147C256.743 137.496 256.532 136.758 256.532 135.932C256.532 135.185 256.672 134.521 256.954 133.941C257.235 133.361 257.648 132.873 258.193 132.478C258.747 132.073 259.437 131.77 260.263 131.568C261.089 131.357 262.047 131.252 263.137 131.252H265.338ZM277.705 132.952V132.676C277.705 131.63 277.854 130.667 278.153 129.788C278.452 128.901 278.887 128.132 279.458 127.481C280.029 126.831 280.732 126.325 281.567 125.965C282.402 125.596 283.36 125.411 284.441 125.411C285.522 125.411 286.485 125.596 287.329 125.965C288.172 126.325 288.88 126.831 289.451 127.481C290.031 128.132 290.471 128.901 290.77 129.788C291.068 130.667 291.218 131.63 291.218 132.676V132.952C291.218 133.99 291.068 134.952 290.77 135.84C290.471 136.719 290.031 137.488 289.451 138.147C288.88 138.797 288.177 139.302 287.342 139.663C286.507 140.023 285.549 140.203 284.468 140.203C283.387 140.203 282.424 140.023 281.581 139.663C280.746 139.302 280.038 138.797 279.458 138.147C278.887 137.488 278.452 136.719 278.153 135.84C277.854 134.952 277.705 133.99 277.705 132.952ZM281.501 132.676V132.952C281.501 133.55 281.554 134.108 281.66 134.627C281.765 135.145 281.932 135.602 282.161 135.998C282.398 136.385 282.706 136.688 283.083 136.907C283.461 137.127 283.923 137.237 284.468 137.237C284.995 137.237 285.448 137.127 285.826 136.907C286.204 136.688 286.507 136.385 286.735 135.998C286.964 135.602 287.131 135.145 287.236 134.627C287.351 134.108 287.408 133.55 287.408 132.952V132.676C287.408 132.095 287.351 131.551 287.236 131.041C287.131 130.522 286.959 130.065 286.722 129.67C286.494 129.265 286.19 128.949 285.812 128.72C285.435 128.492 284.978 128.378 284.441 128.378C283.905 128.378 283.448 128.492 283.07 128.72C282.701 128.949 282.398 129.265 282.161 129.67C281.932 130.065 281.765 130.522 281.66 131.041C281.554 131.551 281.501 132.095 281.501 132.676ZM300.446 125.675V139.94H296.636V125.675H300.446ZM305.034 125.675V128.615H292.114V125.675H305.034ZM319.589 137.237C320.055 137.237 320.468 137.149 320.828 136.973C321.188 136.789 321.47 136.534 321.672 136.209C321.883 135.875 321.993 135.484 322.001 135.035H325.574C325.565 136.037 325.297 136.929 324.77 137.712C324.243 138.485 323.535 139.096 322.647 139.544C321.76 139.984 320.767 140.203 319.668 140.203C318.561 140.203 317.594 140.019 316.768 139.65C315.95 139.281 315.269 138.771 314.724 138.12C314.179 137.461 313.771 136.697 313.498 135.826C313.226 134.948 313.089 134.007 313.089 133.005V132.623C313.089 131.612 313.226 130.672 313.498 129.802C313.771 128.923 314.179 128.158 314.724 127.508C315.269 126.848 315.95 126.334 316.768 125.965C317.585 125.596 318.543 125.411 319.642 125.411C320.811 125.411 321.834 125.635 322.713 126.084C323.601 126.532 324.295 127.174 324.796 128.009C325.306 128.835 325.565 129.815 325.574 130.948H322.001C321.993 130.474 321.892 130.043 321.698 129.656C321.514 129.27 321.241 128.962 320.881 128.734C320.529 128.496 320.094 128.378 319.576 128.378C319.022 128.378 318.569 128.496 318.218 128.734C317.866 128.962 317.594 129.279 317.4 129.683C317.207 130.078 317.071 130.531 316.992 131.041C316.921 131.542 316.886 132.069 316.886 132.623V133.005C316.886 133.559 316.921 134.091 316.992 134.6C317.062 135.11 317.194 135.563 317.387 135.958C317.589 136.354 317.866 136.666 318.218 136.894C318.569 137.123 319.026 137.237 319.589 137.237ZM331.823 125.675V139.94H328.026V125.675H331.823ZM341.091 125.675L334.948 134.6H331.151L330.689 131.094H333.208L336.279 125.675H341.091ZM336.451 139.94L332.944 133.915L336.253 132.082L341.54 139.94H336.451ZM352.561 125.675V128.655H345.547V125.675H352.561ZM355.343 125.675V139.94H351.546V125.675H355.343ZM344.598 125.675H348.329L347.947 132.873C347.894 133.902 347.784 134.807 347.617 135.589C347.45 136.371 347.226 137.039 346.945 137.593C346.672 138.147 346.343 138.599 345.956 138.951C345.578 139.294 345.134 139.544 344.625 139.702C344.124 139.861 343.57 139.94 342.963 139.94H341.803L341.764 136.947L342.251 136.894C342.533 136.868 342.779 136.789 342.99 136.657C343.209 136.516 343.394 136.319 343.543 136.064C343.702 135.8 343.833 135.47 343.939 135.075C344.044 134.671 344.128 134.196 344.189 133.651C344.26 133.106 344.308 132.478 344.334 131.766L344.598 125.675ZM362.066 134.64L366.852 125.675H370.649V139.94H366.852V130.962L362.066 139.94H358.27V125.675H362.066V134.64ZM377.623 125.675V139.94H373.826V125.675H377.623ZM386.891 125.675L380.748 134.6H376.951L376.489 131.094H379.007L382.079 125.675H386.891ZM382.25 139.94L378.744 133.915L382.053 132.082L387.339 139.94H382.25ZM392.547 134.64L397.333 125.675H401.129V139.94H397.333V130.962L392.547 139.94H388.75V125.675H392.547V134.64ZM411.162 133.981H406.693L406.667 131.489H410.358C410.85 131.489 411.25 131.441 411.558 131.344C411.865 131.239 412.089 131.085 412.23 130.883C412.379 130.672 412.454 130.417 412.454 130.118C412.454 129.854 412.406 129.63 412.309 129.446C412.221 129.252 412.085 129.094 411.9 128.971C411.716 128.848 411.483 128.76 411.202 128.707C410.929 128.646 410.608 128.615 410.239 128.615H408.104V139.94H404.307V125.675H410.239C411.171 125.675 412.006 125.759 412.744 125.926C413.482 126.084 414.111 126.325 414.629 126.651C415.157 126.976 415.557 127.389 415.829 127.89C416.11 128.382 416.251 128.967 416.251 129.643C416.251 130.083 416.15 130.496 415.948 130.883C415.754 131.269 415.464 131.612 415.078 131.911C414.691 132.21 414.212 132.456 413.641 132.649C413.078 132.834 412.428 132.948 411.689 132.992L411.162 133.981ZM411.162 139.94H405.757L407.062 137H411.162C411.628 137 412.01 136.943 412.309 136.828C412.608 136.714 412.828 136.547 412.968 136.327C413.118 136.099 413.192 135.826 413.192 135.51C413.192 135.202 413.126 134.934 412.995 134.706C412.863 134.477 412.647 134.302 412.349 134.178C412.059 134.047 411.663 133.981 411.162 133.981H407.616L407.642 131.489H411.676L412.599 132.491C413.601 132.552 414.427 132.741 415.078 133.058C415.728 133.374 416.207 133.779 416.515 134.271C416.831 134.754 416.989 135.286 416.989 135.866C416.989 136.543 416.862 137.136 416.607 137.646C416.352 138.156 415.974 138.582 415.473 138.925C414.981 139.259 414.375 139.513 413.654 139.689C412.933 139.856 412.103 139.94 411.162 139.94ZM427.022 136.723V130.368C427.022 129.911 426.947 129.52 426.798 129.195C426.648 128.861 426.416 128.602 426.099 128.417C425.792 128.233 425.392 128.14 424.899 128.14C424.478 128.14 424.113 128.215 423.805 128.365C423.498 128.505 423.26 128.712 423.093 128.984C422.926 129.248 422.843 129.56 422.843 129.92H419.046C419.046 129.314 419.187 128.738 419.468 128.193C419.749 127.648 420.158 127.169 420.694 126.756C421.23 126.334 421.867 126.005 422.605 125.767C423.353 125.53 424.188 125.411 425.11 125.411C426.218 125.411 427.202 125.596 428.063 125.965C428.925 126.334 429.602 126.888 430.094 127.626C430.595 128.365 430.845 129.287 430.845 130.395V136.499C430.845 137.281 430.894 137.923 430.99 138.424C431.087 138.916 431.228 139.346 431.412 139.716V139.94H427.576C427.391 139.553 427.25 139.07 427.154 138.49C427.066 137.901 427.022 137.312 427.022 136.723ZM427.523 131.252L427.549 133.401H425.427C424.926 133.401 424.491 133.458 424.122 133.572C423.752 133.686 423.449 133.849 423.212 134.06C422.975 134.262 422.799 134.499 422.685 134.772C422.579 135.044 422.526 135.343 422.526 135.668C422.526 135.993 422.601 136.288 422.75 136.552C422.9 136.806 423.115 137.009 423.396 137.158C423.678 137.299 424.007 137.369 424.385 137.369C424.957 137.369 425.453 137.255 425.875 137.026C426.297 136.798 426.622 136.516 426.851 136.182C427.088 135.848 427.211 135.532 427.22 135.233L428.222 136.842C428.081 137.202 427.888 137.575 427.642 137.962C427.404 138.349 427.101 138.714 426.732 139.056C426.363 139.39 425.919 139.667 425.4 139.887C424.882 140.098 424.267 140.203 423.555 140.203C422.649 140.203 421.828 140.023 421.089 139.663C420.36 139.294 419.78 138.788 419.349 138.147C418.927 137.496 418.716 136.758 418.716 135.932C418.716 135.185 418.857 134.521 419.138 133.941C419.419 133.361 419.833 132.873 420.377 132.478C420.931 132.073 421.621 131.77 422.447 131.568C423.273 131.357 424.231 131.252 425.321 131.252H427.523ZM443.541 131.436V134.389H436.29V131.436H443.541ZM437.556 125.675V139.94H433.759V125.675H437.556ZM446.112 125.675V139.94H442.302V125.675H446.112ZM452.849 134.64L457.634 125.675H461.431V139.94H457.634V130.962L452.849 139.94H449.052V125.675H452.849V134.64ZM467.43 132.821H471.279L467.311 139.94H463.475L467.43 132.821ZM469.987 125.675H476.25V139.94H472.453V128.615H469.987C469.469 128.615 469.038 128.712 468.695 128.905C468.353 129.09 468.098 129.331 467.931 129.63C467.772 129.92 467.693 130.219 467.693 130.527C467.693 130.825 467.772 131.115 467.931 131.397C468.089 131.678 468.335 131.911 468.669 132.095C469.003 132.28 469.42 132.372 469.921 132.372H473.863V134.956H469.921C468.981 134.956 468.137 134.842 467.39 134.614C466.652 134.385 466.019 134.069 465.492 133.664C464.973 133.251 464.573 132.772 464.292 132.227C464.02 131.674 463.883 131.067 463.883 130.408C463.883 129.722 464.024 129.094 464.305 128.523C464.586 127.951 464.991 127.45 465.518 127.02C466.045 126.589 466.683 126.26 467.43 126.031C468.186 125.794 469.038 125.675 469.987 125.675ZM229.149 168.981H224.68L224.654 166.489H228.345C228.837 166.489 229.237 166.441 229.545 166.344C229.853 166.239 230.077 166.085 230.217 165.883C230.367 165.672 230.441 165.417 230.441 165.118C230.441 164.854 230.393 164.63 230.296 164.446C230.208 164.252 230.072 164.094 229.888 163.971C229.703 163.848 229.47 163.76 229.189 163.707C228.917 163.646 228.596 163.615 228.227 163.615H226.091V174.94H222.294V160.675H228.227C229.158 160.675 229.993 160.759 230.731 160.926C231.47 161.084 232.098 161.325 232.617 161.651C233.144 161.976 233.544 162.389 233.816 162.89C234.098 163.382 234.238 163.967 234.238 164.643C234.238 165.083 234.137 165.496 233.935 165.883C233.742 166.269 233.452 166.612 233.065 166.911C232.678 167.21 232.199 167.456 231.628 167.649C231.065 167.834 230.415 167.948 229.677 167.992L229.149 168.981ZM229.149 174.94H223.744L225.049 172H229.149C229.615 172 229.998 171.943 230.296 171.828C230.595 171.714 230.815 171.547 230.956 171.327C231.105 171.099 231.18 170.826 231.18 170.51C231.18 170.202 231.114 169.934 230.982 169.706C230.85 169.477 230.635 169.302 230.336 169.178C230.046 169.047 229.65 168.981 229.149 168.981H225.603L225.629 166.489H229.664L230.586 167.491C231.588 167.552 232.415 167.741 233.065 168.058C233.715 168.374 234.194 168.779 234.502 169.271C234.818 169.754 234.977 170.286 234.977 170.866C234.977 171.543 234.849 172.136 234.594 172.646C234.339 173.156 233.961 173.582 233.46 173.925C232.968 174.259 232.362 174.513 231.641 174.689C230.92 174.856 230.09 174.94 229.149 174.94ZM254.475 167.966H249.254L247.923 167.412C246.42 166.937 245.269 166.225 244.469 165.276C243.678 164.327 243.282 163.118 243.282 161.651C243.282 160.359 243.568 159.278 244.139 158.407C244.719 157.529 245.537 156.865 246.591 156.417C247.655 155.969 248.916 155.744 250.375 155.744H257.072V174.94H253.104V158.843H250.375C249.294 158.843 248.499 159.111 247.989 159.647C247.479 160.183 247.224 160.943 247.224 161.927C247.224 162.648 247.343 163.241 247.58 163.707C247.817 164.164 248.165 164.507 248.622 164.736C249.079 164.955 249.654 165.065 250.349 165.065H254.462L254.475 167.966ZM250.665 166.37L246.407 174.94H242.122L246.394 166.37H250.665ZM269.834 166.436V169.389H262.583V166.436H269.834ZM263.849 160.675V174.94H260.052V160.675H263.849ZM272.405 160.675V174.94H268.595V160.675H272.405ZM277.929 160.675H281.726L281.607 165.448C281.572 166.977 281.396 168.291 281.08 169.389C280.763 170.488 280.341 171.411 279.814 172.158C279.287 172.905 278.685 173.503 278.008 173.951C277.34 174.39 276.637 174.72 275.898 174.94H275.187L275.147 172.013L275.542 171.973C275.991 171.508 276.36 171.055 276.65 170.615C276.94 170.167 277.164 169.697 277.322 169.205C277.48 168.713 277.595 168.163 277.665 167.557C277.744 166.95 277.792 166.247 277.81 165.448L277.929 160.675ZM278.957 160.675H288.41V174.94H284.626V163.72H278.957V160.675ZM274.316 171.973H290.453V179.224H286.656V174.94H278.206V179.224H274.316V171.973ZM298.957 175.203C297.849 175.203 296.856 175.028 295.977 174.676C295.098 174.316 294.351 173.819 293.736 173.186C293.129 172.553 292.664 171.82 292.338 170.985C292.013 170.141 291.851 169.244 291.851 168.295V167.768C291.851 166.687 292.004 165.698 292.312 164.802C292.62 163.905 293.059 163.127 293.63 162.468C294.21 161.809 294.914 161.303 295.74 160.952C296.566 160.592 297.498 160.411 298.535 160.411C299.545 160.411 300.442 160.578 301.224 160.912C302.006 161.246 302.661 161.721 303.188 162.336C303.725 162.951 304.129 163.69 304.401 164.551C304.674 165.404 304.81 166.353 304.81 167.399V168.981H293.472V166.449H301.079V166.159C301.079 165.632 300.982 165.162 300.789 164.749C300.604 164.327 300.323 163.993 299.945 163.747C299.567 163.501 299.084 163.378 298.495 163.378C297.994 163.378 297.563 163.488 297.203 163.707C296.843 163.927 296.548 164.235 296.32 164.63C296.1 165.026 295.933 165.491 295.819 166.028C295.713 166.555 295.661 167.135 295.661 167.768V168.295C295.661 168.866 295.74 169.394 295.898 169.877C296.065 170.361 296.298 170.778 296.597 171.13C296.904 171.481 297.273 171.754 297.704 171.947C298.144 172.14 298.64 172.237 299.194 172.237C299.879 172.237 300.517 172.105 301.105 171.842C301.703 171.569 302.217 171.16 302.648 170.615L304.494 172.619C304.195 173.05 303.786 173.463 303.268 173.859C302.758 174.254 302.143 174.579 301.422 174.834C300.701 175.08 299.879 175.203 298.957 175.203ZM311.02 160.675V174.94H307.223V160.675H311.02ZM320.288 160.675L314.144 169.6H310.347L309.886 166.094H312.404L315.476 160.675H320.288ZM315.647 174.94L312.14 168.915L315.449 167.082L320.736 174.94H315.647ZM327.842 172.237C328.308 172.237 328.721 172.149 329.081 171.973C329.441 171.789 329.723 171.534 329.925 171.209C330.136 170.875 330.246 170.484 330.254 170.035H333.827C333.818 171.037 333.55 171.929 333.023 172.712C332.496 173.485 331.788 174.096 330.9 174.544C330.013 174.984 329.02 175.203 327.921 175.203C326.813 175.203 325.847 175.019 325.021 174.65C324.203 174.281 323.522 173.771 322.977 173.12C322.432 172.461 322.023 171.697 321.751 170.826C321.479 169.948 321.342 169.007 321.342 168.005V167.623C321.342 166.612 321.479 165.672 321.751 164.802C322.023 163.923 322.432 163.158 322.977 162.508C323.522 161.848 324.203 161.334 325.021 160.965C325.838 160.596 326.796 160.411 327.895 160.411C329.063 160.411 330.087 160.635 330.966 161.084C331.854 161.532 332.548 162.174 333.049 163.009C333.559 163.835 333.818 164.815 333.827 165.948H330.254C330.246 165.474 330.145 165.043 329.951 164.656C329.767 164.27 329.494 163.962 329.134 163.734C328.782 163.496 328.347 163.378 327.829 163.378C327.275 163.378 326.822 163.496 326.471 163.734C326.119 163.962 325.847 164.279 325.653 164.683C325.46 165.078 325.324 165.531 325.245 166.041C325.174 166.542 325.139 167.069 325.139 167.623V168.005C325.139 168.559 325.174 169.091 325.245 169.6C325.315 170.11 325.447 170.563 325.64 170.958C325.842 171.354 326.119 171.666 326.471 171.894C326.822 172.123 327.279 172.237 327.842 172.237ZM358.217 171.855V174.94H344.387V171.855H358.217ZM345.561 171.855V179.646H341.843L341.632 171.855H345.561ZM361.064 171.855L360.722 179.659H357.096V171.855H361.064ZM356.042 155.744V158.843H346.8V155.744H356.042ZM358.863 155.744V174.94H354.921V155.744H358.863ZM346.312 155.744H350.267L349.753 163.562C349.674 164.854 349.533 165.997 349.331 166.99C349.138 167.974 348.9 168.84 348.619 169.587C348.347 170.334 348.043 170.989 347.709 171.552C347.375 172.105 347.024 172.589 346.655 173.002C346.286 173.406 345.912 173.766 345.534 174.083C345.156 174.39 344.787 174.676 344.427 174.94H342.159V171.855H343.042C343.297 171.644 343.565 171.354 343.847 170.985C344.137 170.615 344.409 170.119 344.664 169.495C344.928 168.862 345.156 168.062 345.35 167.095C345.552 166.129 345.701 164.951 345.798 163.562L346.312 155.744ZM366.654 169.64L371.44 160.675H375.237V174.94H371.44V165.962L366.654 174.94H362.857V160.675H366.654V169.64ZM381.96 163.417V180.424H378.164V160.675H381.684L381.96 163.417ZM390.991 167.649V167.926C390.991 168.963 390.868 169.926 390.622 170.813C390.385 171.701 390.033 172.474 389.567 173.134C389.102 173.784 388.521 174.294 387.827 174.663C387.142 175.023 386.351 175.203 385.454 175.203C384.584 175.203 383.828 175.028 383.187 174.676C382.545 174.324 382.004 173.832 381.565 173.199C381.134 172.558 380.787 171.815 380.523 170.971C380.26 170.128 380.058 169.222 379.917 168.256V167.531C380.058 166.493 380.26 165.544 380.523 164.683C380.787 163.813 381.134 163.061 381.565 162.428C382.004 161.787 382.541 161.29 383.173 160.939C383.815 160.587 384.566 160.411 385.428 160.411C386.333 160.411 387.128 160.583 387.814 160.926C388.508 161.268 389.088 161.76 389.554 162.402C390.029 163.044 390.385 163.808 390.622 164.696C390.868 165.584 390.991 166.568 390.991 167.649ZM387.181 167.926V167.649C387.181 167.043 387.128 166.485 387.023 165.975C386.926 165.456 386.768 165.004 386.548 164.617C386.337 164.23 386.056 163.931 385.705 163.72C385.362 163.501 384.944 163.391 384.452 163.391C383.934 163.391 383.49 163.474 383.121 163.641C382.76 163.808 382.466 164.05 382.237 164.366C382.009 164.683 381.837 165.061 381.723 165.5C381.609 165.94 381.539 166.436 381.512 166.99V168.823C381.556 169.473 381.679 170.057 381.881 170.576C382.083 171.086 382.396 171.49 382.817 171.789C383.239 172.088 383.793 172.237 384.479 172.237C384.979 172.237 385.401 172.127 385.744 171.907C386.087 171.679 386.364 171.367 386.575 170.971C386.794 170.576 386.948 170.119 387.036 169.6C387.133 169.082 387.181 168.524 387.181 167.926ZM399.917 175.203C398.809 175.203 397.816 175.028 396.937 174.676C396.058 174.316 395.311 173.819 394.696 173.186C394.089 172.553 393.624 171.82 393.298 170.985C392.973 170.141 392.811 169.244 392.811 168.295V167.768C392.811 166.687 392.964 165.698 393.272 164.802C393.58 163.905 394.019 163.127 394.59 162.468C395.17 161.809 395.874 161.303 396.7 160.952C397.526 160.592 398.458 160.411 399.495 160.411C400.505 160.411 401.402 160.578 402.184 160.912C402.966 161.246 403.621 161.721 404.148 162.336C404.685 162.951 405.089 163.69 405.361 164.551C405.634 165.404 405.77 166.353 405.77 167.399V168.981H394.432V166.449H402.039V166.159C402.039 165.632 401.942 165.162 401.749 164.749C401.564 164.327 401.283 163.993 400.905 163.747C400.527 163.501 400.044 163.378 399.455 163.378C398.954 163.378 398.523 163.488 398.163 163.707C397.803 163.927 397.508 164.235 397.28 164.63C397.06 165.026 396.893 165.491 396.779 166.028C396.673 166.555 396.621 167.135 396.621 167.768V168.295C396.621 168.866 396.7 169.394 396.858 169.877C397.025 170.361 397.258 170.778 397.557 171.13C397.864 171.481 398.233 171.754 398.664 171.947C399.104 172.14 399.6 172.237 400.154 172.237C400.839 172.237 401.477 172.105 402.065 171.842C402.663 171.569 403.177 171.16 403.608 170.615L405.454 172.619C405.155 173.05 404.746 173.463 404.228 173.859C403.718 174.254 403.103 174.579 402.382 174.834C401.661 175.08 400.839 175.203 399.917 175.203ZM411.979 160.675V174.94H408.183V160.675H411.979ZM421.248 160.675L415.104 169.6H411.307L410.846 166.094H413.364L416.436 160.675H421.248ZM416.607 174.94L413.1 168.915L416.409 167.082L421.696 174.94H416.607ZM430.384 160.675V174.94H426.574V160.675H430.384ZM434.972 160.675V163.615H422.052V160.675H434.972Z" fill="#333333"/>
<path d="M283.762 218.226H279.992L279.971 216.366H283.264C283.82 216.366 284.291 216.285 284.677 216.122C285.07 215.953 285.368 215.713 285.571 215.401C285.774 215.082 285.876 214.7 285.876 214.252C285.876 213.758 285.781 213.355 285.591 213.043C285.402 212.731 285.11 212.504 284.717 212.362C284.331 212.22 283.837 212.149 283.234 212.149H280.764V224.913H278.213V210.116H283.234C284.047 210.116 284.772 210.194 285.408 210.35C286.052 210.506 286.598 210.75 287.045 211.082C287.499 211.407 287.841 211.82 288.071 212.321C288.308 212.823 288.427 213.419 288.427 214.11C288.427 214.72 288.281 215.279 287.99 215.787C287.698 216.288 287.268 216.698 286.699 217.017C286.13 217.335 285.422 217.525 284.575 217.586L283.762 218.226ZM283.65 224.913H279.189L280.337 222.891H283.65C284.226 222.891 284.707 222.796 285.093 222.606C285.48 222.41 285.768 222.142 285.957 221.803C286.154 221.458 286.252 221.055 286.252 220.594C286.252 220.113 286.167 219.696 285.998 219.344C285.829 218.985 285.561 218.711 285.195 218.521C284.829 218.324 284.351 218.226 283.762 218.226H280.896L280.916 216.366H284.646L285.226 217.068C286.039 217.095 286.706 217.274 287.228 217.606C287.756 217.938 288.149 218.368 288.407 218.897C288.664 219.425 288.793 219.994 288.793 220.604C288.793 221.546 288.586 222.335 288.173 222.972C287.766 223.609 287.18 224.094 286.415 224.426C285.649 224.751 284.728 224.913 283.65 224.913ZM293.762 213.917V224.913H291.313V213.917H293.762ZM300.937 213.917L295.988 220.533H293.193L292.868 218.318H294.911L297.878 213.917H300.937ZM298.071 224.913L294.758 220.116L296.689 218.724L301.293 224.913H298.071ZM310.013 213.917V215.868H304.647V213.917H310.013ZM311.934 213.917V224.913H309.484V213.917H311.934ZM304.047 213.917H306.466L306.171 219.354C306.131 220.16 306.049 220.872 305.927 221.488C305.812 222.098 305.656 222.623 305.46 223.064C305.263 223.497 305.023 223.85 304.738 224.121C304.454 224.392 304.122 224.592 303.742 224.72C303.363 224.849 302.936 224.913 302.462 224.913H301.7L301.689 222.901L302.076 222.871C302.326 222.85 302.543 222.786 302.726 222.677C302.909 222.562 303.065 222.4 303.194 222.19C303.329 221.98 303.437 221.709 303.519 221.377C303.607 221.045 303.675 220.652 303.722 220.198C303.776 219.744 303.817 219.215 303.844 218.612L304.047 213.917ZM314.637 223.694C314.637 223.314 314.766 222.996 315.023 222.738C315.281 222.474 315.63 222.342 316.07 222.342C316.517 222.342 316.866 222.474 317.117 222.738C317.374 222.996 317.503 223.314 317.503 223.694C317.503 224.073 317.374 224.392 317.117 224.649C316.866 224.907 316.517 225.035 316.07 225.035C315.63 225.035 315.281 224.907 315.023 224.649C314.766 224.392 314.637 224.073 314.637 223.694Z" fill="#27C58B"/>
<rect x="325.77" y="207.399" width="53.5208" height="20.8137" rx="10.4068" fill="#27C58B" fill-opacity="0.68"/>
<g filter="url(#filter0_ddd_28_7761)">
<rect x="349.555" y="202.94" width="29.7338" height="29.7338" rx="14.8669" fill="#27C58B"/>
</g>
<defs>
<filter id="filter0_ddd_28_7761" x="342.121" y="196.993" width="44.6013" height="44.6008" filterUnits="userSpaceOnUse" color-interpolation-filters="sRGB">
<feFlood flood-opacity="0" result="BackgroundImageFix"/>
<feColorMatrix in="SourceAlpha" type="matrix" values="0 0 0 0 0 0 0 0 0 0 0 0 0 0 0 0 0 0 127 0" result="hardAlpha"/>
<feOffset dy="1.48669"/>
<feGaussianBlur stdDeviation="3.71672"/>
<feComposite in2="hardAlpha" operator="out"/>
<feColorMatrix type="matrix" values="0 0 0 0 0 0 0 0 0 0 0 0 0 0 0 0 0 0 0.12 0"/>
<feBlend mode="normal" in2="BackgroundImageFix" result="effect1_dropShadow_28_7761"/>
<feColorMatrix in="SourceAlpha" type="matrix" values="0 0 0 0 0 0 0 0 0 0 0 0 0 0 0 0 0 0 127 0" result="hardAlpha"/>
<feMorphology radius="2.97338" operator="erode" in="SourceAlpha" result="effect2_dropShadow_28_7761"/>
<feOffset dy="4.46007"/>
<feGaussianBlur stdDeviation="0.743345"/>
<feComposite in2="hardAlpha" operator="out"/>
<feColorMatrix type="matrix" values="0 0 0 0 0 0 0 0 0 0 0 0 0 0 0 0 0 0 0.2 0"/>
<feBlend mode="normal" in2="effect1_dropShadow_28_7761" result="effect2_dropShadow_28_7761"/>
<feColorMatrix in="SourceAlpha" type="matrix" values="0 0 0 0 0 0 0 0 0 0 0 0 0 0 0 0 0 0 127 0" result="hardAlpha"/>
<feOffset dy="2.97338"/>
<feGaussianBlur stdDeviation="1.48669"/>
<feComposite in2="hardAlpha" operator="out"/>
<feColorMatrix type="matrix" values="0 0 0 0 0 0 0 0 0 0 0 0 0 0 0 0 0 0 0.14 0"/>
<feBlend mode="normal" in2="effect2_dropShadow_28_7761" result="effect3_dropShadow_28_7761"/>
<feBlend mode="normal" in="SourceGraphic" in2="effect3_dropShadow_28_7761" result="shape"/>
</filter>
<linearGradient id="paint0_linear_28_7761" x1="360.206" y1="37.168" x2="279.105" y2="112.164" gradientUnits="userSpaceOnUse">
<stop stop-color="#FFB800"/>
<stop offset="1" stop-color="#FFF11D"/>
</linearGradient>
<clipPath id="clip0_28_7761">
<rect width="48.1928" height="47.2478" fill="white" transform="translate(304.445 37.2444)"/>
</clipPath>
</defs>
</svg>
