<svg width="50" height="50" fill="none" xmlns="http://www.w3.org/2000/svg"><g clip-path="url(#a)"><g clip-path="url(#b)"><path d="m28.135 3.126 1.768 1.045c3.376 1.929 4.582 6.27 2.653 9.645l-17.121 29.66c-1.93 3.377-6.27 4.583-9.646 2.653L4.02 45.085c-3.376-1.93-4.582-6.27-2.653-9.646L18.489 5.698c1.93-3.456 6.27-4.662 9.646-2.572Z" fill="#FBBD04"/><path d="m20.096 3.93 1.768-1.044c3.377-1.93 7.717-.724 9.646 2.652l17.121 29.66c1.93 3.377.724 7.717-2.652 9.646L44.21 45.89c-3.376 1.93-7.716.724-9.645-2.652l-17.121-29.58c-1.85-3.377-.724-7.717 2.652-9.727Z" fill="#438EDC"/><path d="M9.084 46.532a8.199 8.199 0 1 0 0-16.397 8.199 8.199 0 0 0 0 16.397Z" fill="#34A952"/></g></g><defs><clipPath id="a"><path fill="#fff" transform="translate(0 2)" d="M0 0h50v46.46H0z"/></clipPath><clipPath id="b"><path fill="#fff" transform="translate(.002 2)" d="M0 0h49.997v46.46H0z"/></clipPath></defs></svg>