<svg width="51" height="50" fill="none" xmlns="http://www.w3.org/2000/svg"><g clip-path="url(#a)"><g clip-path="url(#b)"><path d="M.209 25c0-13.75 11.25-25 25-25s25 11.25 25 25-11.25 25-25 25-25-11.25-25-25Z" fill="#1A4A7F"/><path fill-rule="evenodd" clip-rule="evenodd" d="M21.622 50c-5.05-.783-9.784-3.132-13.413-6.733l22.723-20.67-12.94 3.133c-3.629.939-7.258-1.253-8.047-4.855v-.156c-.79-3.602 1.42-7.203 5.05-8.143L42.134 6c10.73 8.925 12.15 24.74 3.156 35.231a25.318 25.318 0 0 1-9.31 6.89c0-.94 0-1.879.316-2.662l4.26-12.683C40.4 32.776 21.622 50 21.622 50Z" fill="url(#c)"/></g></g><defs><clipPath id="a"><path fill="#fff" d="M0 0h51v50H0z"/></clipPath><clipPath id="b"><path fill="#fff" transform="translate(.209)" d="M0 0h51v50H0z"/></clipPath><linearGradient id="c" x1="59.212" y1="-.081" x2="-26.612" y2="79.284" gradientUnits="userSpaceOnUse"><stop stop-color="#FFB800"/><stop offset="1" stop-color="#FFF11D"/></linearGradient></defs></svg>