<svg width="72" height="30" fill="none" xmlns="http://www.w3.org/2000/svg"><path d="M5.404.018c1.615 0 2.667.912 3.089 2.105.49 1.263.35 2.737-.913 3.649 1.474.632 1.965 1.965 1.965 3.158 0 1.895-1.263 3.86-3.72 3.86H0V.018h5.404ZM1.895 5.14h3.44c2.035 0 2.035-3.368.07-3.368h-3.51V5.14Zm0 5.895h3.93C7.09 11.035 7.72 9.982 7.72 9c0-.982-.631-2.035-1.895-2.035h-3.93v4.07Zm11.3-9.123C14.318.72 15.932.018 17.687.018s3.369.701 4.492 1.894c1.123 1.193 1.825 2.737 1.825 4.492 0 1.754-.702 3.368-1.825 4.49-1.193 1.194-2.737 1.896-4.492 1.896s-3.37-.702-4.492-1.895c-1.123-1.193-1.825-2.737-1.825-4.491 0-1.755.702-3.299 1.825-4.492Zm7.79 1.263a4.506 4.506 0 0 0-3.228-1.333 4.506 4.506 0 0 0-3.229 1.333 4.505 4.505 0 0 0-1.333 3.229c0 1.263.491 2.386 1.333 3.228a4.506 4.506 0 0 0 3.23 1.333 4.506 4.506 0 0 0 3.228-1.333 4.505 4.505 0 0 0 1.333-3.228c-.07-1.264-.561-2.386-1.333-3.229Zm8.703 9.685V1.772h-3.86V.018h9.616v1.754h-3.93V12.86h-1.826Z" fill="#3D88C8"/><path d="M1.965 29.983H.141V17.14h7.65v1.824H1.965v3.86H7.09v1.754H1.965v5.404Zm15.16-3.228h-5.193l-1.264 3.228H8.703l5.124-12.842h1.333l5.124 12.842h-1.965l-1.194-3.228ZM12.634 25h3.86l-1.965-5.052L12.634 25Zm22.53 4.983h-1.965l-1.334-1.193c-2.807 1.824-6.527 1.474-8.492-.702-1.123-1.193-1.896-2.737-1.896-4.491 0-1.755.702-3.369 1.896-4.491 1.123-1.193 2.737-1.895 4.491-1.895 1.755 0 3.37.702 4.492 1.895 1.123 1.193 1.895 2.736 1.895 4.49 0 1.475-.49 2.808-1.333 3.93l2.176 2.106v.35h.07Zm-7.861-5.544h2.176l2.105 1.965c.562-.772.843-1.755.843-2.807 0-1.263-.562-2.386-1.334-3.228a4.506 4.506 0 0 0-3.229-1.334 4.506 4.506 0 0 0-3.228 1.334c-.772.842-1.334 1.965-1.334 3.228 0 1.263.562 2.456 1.334 3.228 1.544 1.544 3.86 1.825 5.755.702l-3.158-2.807v-.281h.07Zm0 .28v-.28.28Zm12.633 5.264V18.895h-3.86v-1.754h9.616v1.754h-3.86v11.088h-1.896Zm9.124-10.948c1.123-1.193 2.737-1.894 4.492-1.894s3.37.701 4.492 1.894c1.123 1.193 1.825 2.737 1.825 4.492 0 1.754-.702 3.368-1.825 4.49-1.193 1.194-2.737 1.896-4.492 1.896s-3.369-.702-4.492-1.895c-1.123-1.193-1.825-2.737-1.825-4.491 0-1.685.702-3.299 1.825-4.492Zm7.72 1.334a4.506 4.506 0 0 0-3.228-1.334 4.506 4.506 0 0 0-3.228 1.334 4.505 4.505 0 0 0-1.334 3.228c0 1.263.491 2.386 1.334 3.228a4.507 4.507 0 0 0 3.228 1.333 4.506 4.506 0 0 0 3.229-1.333 4.505 4.505 0 0 0 1.333-3.228c0-1.263-.491-2.456-1.333-3.228Zm7.792 3.087h2.175c1.544 0 2.317-1.122 2.317-2.245s-.772-2.246-2.317-2.246H63.87v10.948h-1.825V17.14h4.702c2.808 0 4.212 2.035 4.212 4.07 0 1.824-1.123 3.509-3.3 3.93l4.072 4.842h-2.387l-4.702-5.614v-.913h-.07Z" fill="#111"/></svg>