<svg width="45" height="45" fill="none" xmlns="http://www.w3.org/2000/svg"><path d="m25.612 6.122 3.162-3.11c1.73-1.703 3.241-3.07 3.34-3.01.12.06.2 2.456.16 12.558h6.363c4.951 0 6.363.06 6.363.257 0 .12-1.372 1.605-6.065 6.28h-8.451L25.81 23.91l-.02 1.406c-.02.773-.179 1.862-.338 2.397-.199.614-.696 1.406-1.273 2.06-.517.574-1.372 1.268-1.909 1.525-.517.258-1.412.555-1.988.634-.557.08-1.512.08-2.088 0a7.59 7.59 0 0 1-1.79-.535c-.398-.198-1.074-.693-1.491-1.09a7.803 7.803 0 0 1-1.233-1.703c-.278-.535-.577-1.505-.656-2.12-.1-.633-.12-1.544-.04-2.04.08-.495.338-1.267.577-1.723.218-.475.716-1.188 1.093-1.584.358-.416 1.193-1.01 1.83-1.347 1.014-.515 1.412-.595 4.752-.674l4.474-4.476-.099-8.518Z" fill="#E84342"/><path d="M16.167 6.42c.715-.1 1.69-.218 2.187-.238l.895-.06.06 3.07c.02 1.684 0 3.19-.06 3.328-.06.139-.477.238-1.054.238-.517 0-1.472.139-2.128.317-.656.178-1.77.614-2.486.97-.715.357-1.79 1.05-2.386 1.526-.596.495-1.491 1.406-1.968 2.06-.497.634-1.193 1.802-1.551 2.555-.358.753-.796 2.02-.955 2.773-.159.753-.298 1.96-.298 2.674 0 .713.14 1.921.298 2.674.16.753.656 2.1 1.094 2.971.437.872 1.253 2.12 1.83 2.754.576.633 1.59 1.545 2.246 2.02.656.456 1.87 1.11 2.685 1.446.815.317 2.167.693 2.983.832.874.119 2.068.158 2.883.079.756-.08 2.068-.337 2.883-.594.816-.258 2.068-.852 2.784-1.307.716-.456 1.79-1.328 2.386-1.962.597-.614 1.432-1.683 1.85-2.396.417-.694.974-1.961 1.233-2.793.278-.852.497-1.842.497-2.179 0-.357.04-.852.1-1.09.099-.455.138-.455 6.561-.455l-.139 1.842c-.08.99-.378 2.595-.656 3.566-.279.95-.776 2.277-1.114 2.97-.338.674-1.014 1.803-1.471 2.516-.477.713-1.512 1.941-2.327 2.734-.795.812-2.028 1.842-2.744 2.317-.716.456-1.83 1.11-2.486 1.446-.656.317-1.948.812-2.883 1.11-.935.277-2.625.614-3.778.732-1.59.179-2.545.179-3.977 0-1.034-.118-2.744-.475-3.778-.812-1.034-.317-2.605-.99-3.48-1.485-.875-.515-2.207-1.427-2.963-2.04-.756-.615-1.949-1.843-2.645-2.714-.696-.872-1.71-2.476-2.267-3.566C1.472 33.14.815 31.397.537 30.288.099 28.644.02 27.852 0 25.633c0-1.842.1-3.17.338-4.259.199-.871.656-2.337 1.054-3.268.398-.93 1.193-2.397 1.77-3.268.576-.872 1.65-2.179 2.406-2.912.736-.733 1.75-1.644 2.247-2a19.06 19.06 0 0 1 2.187-1.387c.716-.396 2.108-.99 3.082-1.327.975-.337 2.367-.693 3.083-.792Z" fill="#E84342"/></svg>