<svg width="46" height="46" fill="none" xmlns="http://www.w3.org/2000/svg"><g clip-path="url(#a)"><path d="M1.668 21.393c0-10.084 0-15.135 3.134-18.26C7.926 0 12.977 0 23.06 0h2.214C35.36 0 40.4 0 43.535 3.134c3.133 3.134 3.133 8.175 3.133 18.259v2.214c0 10.084 0 15.125-3.134 18.26C40.4 45 35.36 45 25.275 45h-2.214C12.977 45 7.936 45 4.8 41.866c-3.133-3.134-3.133-8.175-3.133-18.259v-2.214Z" fill="#07F"/><path d="M26.083 37.093c8.107 0 14.68-6.573 14.68-14.68 0-8.108-6.573-14.68-14.68-14.68-8.108 0-14.68 6.572-14.68 14.68 0 8.107 6.572 14.68 14.68 14.68Z" fill="#00D9ED"/><path fill-rule="evenodd" clip-rule="evenodd" d="M39.75 5.945v2.817h2.779c1.581 0 2.392 1.898 1.295 3.035l-3.806 3.974a1.79 1.79 0 0 1-1.295.554h-3.599l-3.727 4.014a5.388 5.388 0 1 1-4.963-3.292c.505 0 1 .069 1.464.197l4.28-4.606V9.682c0-.495.208-.97.564-1.305l3.974-3.747c1.146-1.077 3.025-.267 3.025 1.305l.01.01Z" fill="#fff"/></g><defs><clipPath id="a"><path fill="#fff" d="M0 0h46v46H0z"/></clipPath></defs></svg>