<svg width="52" height="42" fill="none" xmlns="http://www.w3.org/2000/svg"><path d="m14.632 14.33-7.565 6.314 7.565 6.314a2.461 2.461 0 1 1-3.157 3.772l-9.84-8.2a2.46 2.46 0 0 1 0-3.772l9.84-8.2a2.46 2.46 0 0 1 3.157 3.772Zm36.08 4.428-9.84-8.2a2.46 2.46 0 0 0-3.157 3.772l7.584 6.314-7.584 6.314a2.439 2.439 0 0 0-.308 3.465 2.5 2.5 0 0 0 1.886.881 2.46 2.46 0 0 0 1.578-.574l9.84-8.2a2.46 2.46 0 0 0 0-3.772ZM33.573.288a2.48 2.48 0 0 0-3.157 1.476l-13.12 36.08A2.48 2.48 0 0 0 18.774 41c.269.097.553.146.84.143a2.46 2.46 0 0 0 2.317-1.62l13.12-36.08A2.481 2.481 0 0 0 33.574.289Z" fill="#EF911F"/></svg>