<svg width="40" height="36" fill="none" xmlns="http://www.w3.org/2000/svg"><path d="M25.508 14c1.932 0 3.5 1.568 3.5 3.5v9.498a9.002 9.002 0 1 1-18.004 0V17.5a3.5 3.5 0 0 1 3.5-3.5h11.004Zm-15.246 0a5.44 5.44 0 0 0-1.24 3.06l-.02.44v9.498c0 1.694.384 3.298 1.068 4.73A8.002 8.002 0 0 1 0 23.998V17.5a3.5 3.5 0 0 1 3.212-3.488L3.5 14h6.762Zm19.488 0h6.75c1.932 0 3.5 1.568 3.5 3.5V24a8 8 0 0 1-10.06 7.732c.6-1.256.968-2.64 1.05-4.104l.018-.63V17.5c0-1.33-.47-2.55-1.258-3.5ZM20 0a6 6 0 1 1 0 12 6 6 0 0 1 0-12Zm13 2a5 5 0 1 1 0 10 5 5 0 0 1 0-10ZM7 2a5 5 0 1 1 0 10A5 5 0 0 1 7 2Z" fill="#000"/><path d="M25.508 14c1.932 0 3.5 1.568 3.5 3.5v9.498a9.002 9.002 0 1 1-18.004 0V17.5a3.5 3.5 0 0 1 3.5-3.5h11.004Zm-15.246 0a5.44 5.44 0 0 0-1.24 3.06l-.02.44v9.498c0 1.694.384 3.298 1.068 4.73A8.002 8.002 0 0 1 0 23.998V17.5a3.5 3.5 0 0 1 3.212-3.488L3.5 14h6.762Zm19.488 0h6.75c1.932 0 3.5 1.568 3.5 3.5V24a8 8 0 0 1-10.06 7.732c.6-1.256.968-2.64 1.05-4.104l.018-.63V17.5c0-1.33-.47-2.55-1.258-3.5ZM20 0a6 6 0 1 1 0 12 6 6 0 0 1 0-12Zm13 2a5 5 0 1 1 0 10 5 5 0 0 1 0-10ZM7 2a5 5 0 1 1 0 10A5 5 0 0 1 7 2Z" fill="url(#a)" fill-opacity=".8"/><defs><linearGradient id="a" x1="-6.923" y1="-2.077" x2="40.944" y2="40.941" gradientUnits="userSpaceOnUse"><stop stop-color="#EF2DDC"/><stop offset="1" stop-color="#7443FF"/></linearGradient></defs></svg>