<svg width="44" height="52" fill="none" xmlns="http://www.w3.org/2000/svg"><g clip-path="url(#a)"><g clip-path="url(#b)"><mask id="c" style="mask-type:luminance" maskUnits="userSpaceOnUse" x="0" y="0" width="44" height="52"><path d="M43.846 0H0v51.739h43.846V0Z" fill="#fff"/></mask><g mask="url(#c)"><path d="M41.474 34.519c-1.394 3.788-3.444 7.082-6.23 9.724-3.112 3.047-7.213 5.522-12.13 7.249-.165.08-.324.08-.49.167-.245.08-.49.08-.657.08h-.08c-.245 0-.49 0-.736-.08-.166 0-.325-.08-.49-.167-4.917-1.727-9.018-4.202-12.13-7.25-2.786-2.633-4.836-5.928-6.23-9.723C-.246 27.683-.08 20.1.079 14.085v-.08c0-.494 0-.987.08-1.647-.08-2.801 2.216-5.189 5.09-5.356C11.144 6.676 15.736 4.695 19.67.907 20.328.327 21.144 0 21.967 0c.823 0 1.56.327 2.216.907 3.928 3.868 8.52 5.769 14.417 6.095 2.866.167 5.083 2.555 5.162 5.356 0 .573 0 1.074.08 1.647.007 6.095.173 13.678-2.368 20.514Z" fill="#57B36E"/></g><mask id="d" style="mask-type:luminance" maskUnits="userSpaceOnUse" x="0" y="0" width="44" height="52"><path d="M43.846 0H0v51.739h43.846V0Z" fill="#fff"/></mask><g mask="url(#d)"><path d="M41.47 34.519c-1.396 3.788-3.45 7.082-6.243 9.724-3.118 3.047-7.227 5.522-12.153 7.249-.166.08-.326.08-.492.167-.246.08-.492.08-.658.08V0c.825 0 1.562.327 2.22.907 3.936 3.875 8.537 5.769 14.447 6.095 2.871.167 5.092 2.555 5.172 5.356 0 .573 0 1.074.08 1.647.007 6.095.173 13.678-2.373 20.514Z" fill="#57B36E"/></g><path d="M34.2 25.87c0 7.007-5.69 12.715-12.676 12.715h-.079c-6.985 0-12.675-5.708-12.675-12.715 0-7.008 5.69-12.716 12.675-12.716h.08c6.985 0 12.675 5.708 12.675 12.716Z" fill="#fff"/><path d="M34.2 25.913c0 6.983-5.51 12.672-12.276 12.672v-25.43C28.69 13.24 34.2 18.928 34.2 25.912Z" fill="#E1EBF0"/><path d="M30.357 25.431c-.167 0-.327-.17-.327-.332v-.842c0-4.277-3.465-7.8-7.67-7.8s-7.677 3.523-7.677 7.8v.842c0 .17-.167.332-.327.332-.167 0-.327-.17-.327-.332v-.842c0-4.698 3.712-8.472 8.331-8.472 4.62 0 8.33 3.774 8.33 8.472v.842c-.006.251-.174.332-.333.332Zm-.93 3.509h-.98c-.197 0-.386-.188-.386-.368 0-.187.197-.367.386-.367h.98c.293 0 .49-.188.49-.465V25.8c0-.188.198-.367.387-.367.19 0 .387.187.387.367v1.941c-.094.734-.576 1.2-1.264 1.2Z" fill="#848484"/><path d="M19.291 28.94h4.385v3.507H19.29V28.94Z" fill="#CBCBCB"/><path d="M27.983 28.208c.077-.248.077-.497.077-.833v-5.641c0-1.827-1.424-3.318-3.17-3.318h-6.814c-1.745 0-3.17 1.49-3.17 3.318v5.641c0 1.827 1.425 3.318 3.17 3.318h6.898c.796 0 1.508-.329 2.06-.833" fill="#E5E5E5"/><path d="M17.537 28.66v2.033a3.37 3.37 0 0 1-2.63-3.31v-1.951c1.524.343 2.63 1.614 2.63 3.228Zm11.4-3.228v1.95c0 .254 0 .59-.085.852l-1.05 1.697c-.44.336-.965.59-1.49.762v-1.95c-.093-1.704 1.042-2.975 2.625-3.311Z" fill="#CBCBCB"/><path d="M21.045 23.24a2.177 2.177 0 0 1-2.193 2.192 2.177 2.177 0 0 1-2.192-2.193c0-1.181.93-2.192 2.192-2.192 1.182.082 2.193 1.01 2.193 2.192Zm6.138 0a2.177 2.177 0 0 1-2.192 2.192c-1.263 0-2.192-.93-2.192-2.193 0-1.181.929-2.192 2.192-2.192 1.264-.008 2.192 1.01 2.192 2.192Z" fill="#fff"/><path d="M19.291 23.678a.876.876 0 0 1-.877-.877c0-.531.346-.877.877-.877a.876.876 0 1 1 0 1.754Zm5.262 0a.876.876 0 0 1-.877-.877c0-.531.346-.877.877-.877.523 0 .877.346.877.877 0 .53-.439.877-.877.877Zm-7.893 5.266c0 .475-.339.872-.743.872h-.268c-.404 0-.743-.397-.743-.872 0-.474.34-.872.743-.872h.268c.41-.077.743.321.743.872Z" fill="#444"/><path d="M21.045 27.186h.877v3.507h-.877v-3.508Zm.877 0h.877v3.507h-.877v-3.508Zm1.754 0v3.507h.877v-2.225c0-.679-.316-1.192-.877-1.282Zm-3.508 0c-.477.173-.877.686-.877 1.282v2.225h.877v-3.508Z" fill="#7B7B7B"/><path d="M14.906 22.978v3.154c0 .484-.325.89-.824 1.053h-.737c-.57 0-1.07-.484-1.07-1.053v-3.154c0-.563.492-1.054 1.07-1.054h.737c.499.164.824.562.824 1.054Z" fill="#686868"/><path d="M14.906 22.978v3.154c0 .484-.346.89-.877 1.053-.523-.163-.877-.562-.877-1.053v-3.154c0-.485.347-.89.877-1.054.531.164.877.562.877 1.054Z" fill="#7B7B7B"/><path d="M31.568 22.978v3.154c0 .484-.325.89-.824 1.053h-.737c-.57 0-1.07-.484-1.07-1.053v-3.154c0-.563.492-1.054 1.07-1.054h.737c.499.164.824.562.824 1.054Z" fill="#686868"/><path d="M31.568 22.978v3.154c0 .484-.346.89-.877 1.053-.523-.163-.877-.562-.877-1.053v-3.154c0-.485.347-.89.877-1.054.531.164.877.562.877 1.054Z" fill="#7B7B7B"/><path d="M27.927 28.063h.267c.405 0 .743.4.743.876 0 .477-.338.877-.743.877h-.267c-.404 0-.743-.4-.743-.877s.338-.877.743-.877Z" fill="#444"/><path d="M13.152 28.617v-1.941c0-.188.198-.367.387-.367.198 0 .387.187.387.367v1.941c0 .277.198.465.49.465h.98c.198 0 .387.188.387.367 0 .188-.198.367-.387.367h-.98c-.679 0-1.264-.554-1.264-1.199Z" fill="#848484"/><path d="m28.937 34.106-13.154.095v-.095c0-1.367.905-2.536 2.136-2.536h8.962c1.064 0 2.056 1.17 2.056 2.536Z" fill="#CBCBCB"/><path d="m28.06 34.106-10.523.095v-.095c0-1.367.891-2.536 2.103-2.536h6.395c1.049 0 2.025 1.17 2.025 2.536Z" fill="#E5E5E5"/><path d="M21.485 13.154c-6.53 0-11.839 5.308-11.839 11.839 0 6.53 5.308 11.838 11.839 11.838 6.53 0 11.838-5.308 11.838-11.838 0-6.53-5.308-11.839-11.838-11.839Zm0 22.29c-5.718 0-10.45-4.654-10.45-10.451 0-2.532.978-4.984 2.61-6.862l14.701 14.701c-1.963 1.633-4.33 2.611-6.861 2.611Zm7.84-3.59-14.701-14.7c1.877-1.633 4.243-2.612 6.86-2.612 5.719 0 10.451 4.654 10.451 10.45 0 2.532-.978 4.985-2.61 6.862Z" fill="#E84C4F"/></g></g><defs><clipPath id="a"><path fill="#fff" d="M0 0h44v52H0z"/></clipPath><clipPath id="b"><path fill="#fff" d="M0 0h43.846v57H0z"/></clipPath></defs></svg>