<svg width="50" height="50" fill="none" xmlns="http://www.w3.org/2000/svg"><rect width="50" height="50" rx="8" fill="url(#a)"/><path d="M29.375 11.25h-10a3.125 3.125 0 0 0-3.125 3.125v21.25a3.125 3.125 0 0 0 3.125 3.125h10a3.125 3.125 0 0 0 3.125-3.125v-21.25a3.125 3.125 0 0 0-3.125-3.125Zm-5 26.25a1.872 1.872 0 0 1-1.875-1.875c0-1.038.837-1.875 1.875-1.875s1.875.837 1.875 1.875a1.872 1.872 0 0 1-1.875 1.875Zm5.625-5H18.75V15H30v17.5Z" fill="#333"/><path d="M29.375 11.25h-10a3.125 3.125 0 0 0-3.125 3.125v21.25a3.125 3.125 0 0 0 3.125 3.125h10a3.125 3.125 0 0 0 3.125-3.125v-21.25a3.125 3.125 0 0 0-3.125-3.125Zm-5 26.25a1.872 1.872 0 0 1-1.875-1.875c0-1.038.837-1.875 1.875-1.875s1.875.837 1.875 1.875a1.872 1.872 0 0 1-1.875 1.875Zm5.625-5H18.75V15H30v17.5Z" fill="#fff"/><defs><linearGradient id="a" x1="0" y1="0" x2="50" y2="50" gradientUnits="userSpaceOnUse"><stop stop-color="#2395FE"/><stop offset="1" stop-color="#123694"/></linearGradient></defs></svg>