<svg width="28" height="46" fill="none" xmlns="http://www.w3.org/2000/svg"><path d="M22.443.096h-16.4A5.125 5.125 0 0 0 .918 5.22v34.85a5.125 5.125 0 0 0 5.125 5.125h16.4a5.125 5.125 0 0 0 5.125-5.125V5.22A5.125 5.125 0 0 0 22.443.096Zm-8.2 43.05a3.07 3.07 0 0 1-3.075-3.075 3.07 3.07 0 0 1 3.075-3.075 3.07 3.07 0 0 1 3.075 3.075 3.07 3.07 0 0 1-3.075 3.075Zm9.225-8.2H5.018v-28.7h18.45v28.7Z" fill="#333"/><path d="M22.443.096h-16.4A5.125 5.125 0 0 0 .918 5.22v34.85a5.125 5.125 0 0 0 5.125 5.125h16.4a5.125 5.125 0 0 0 5.125-5.125V5.22A5.125 5.125 0 0 0 22.443.096Zm-8.2 43.05a3.07 3.07 0 0 1-3.075-3.075 3.07 3.07 0 0 1 3.075-3.075 3.07 3.07 0 0 1 3.075 3.075 3.07 3.07 0 0 1-3.075 3.075Zm9.225-8.2H5.018v-28.7h18.45v28.7Z" fill="#fff"/><path d="M22.443.096h-16.4A5.125 5.125 0 0 0 .918 5.22v34.85a5.125 5.125 0 0 0 5.125 5.125h16.4a5.125 5.125 0 0 0 5.125-5.125V5.22A5.125 5.125 0 0 0 22.443.096Zm-8.2 43.05a3.07 3.07 0 0 1-3.075-3.075 3.07 3.07 0 0 1 3.075-3.075 3.07 3.07 0 0 1 3.075 3.075 3.07 3.07 0 0 1-3.075 3.075Zm9.225-8.2H5.018v-28.7h18.45v28.7Z" fill="url(#a)"/><defs><linearGradient id="a" x1=".918" y1=".096" x2="40.424" y2="23.44" gradientUnits="userSpaceOnUse"><stop stop-color="#2395FE"/><stop offset="1" stop-color="#139890"/></linearGradient></defs></svg>