<svg width="8" height="24" viewBox="0 0 8 24" fill="none" xmlns="http://www.w3.org/2000/svg">
<path d="M5.65375 4.51239L4.0875 13.9124L2.52125 4.51239C2.48368 4.2851 2.49603 4.05235 2.55745 3.83031C2.61886 3.60827 2.72787 3.40226 2.8769 3.22658C3.02592 3.0509 3.2114 2.90976 3.42046 2.81296C3.62951 2.71616 3.85712 2.66602 4.0875 2.66602C4.31788 2.66602 4.54549 2.71616 4.75455 2.81296C4.9636 2.90976 5.14908 3.0509 5.2981 3.22658C5.44713 3.40226 5.55614 3.60827 5.61755 3.83031C5.67897 4.05235 5.69132 4.2851 5.65375 4.51239Z" stroke="#EFB503" stroke-width="3.75" stroke-linecap="round" stroke-linejoin="round"/>
<path d="M4.08752 22.0371C4.77788 22.0371 5.33752 21.4775 5.33752 20.7871C5.33752 20.0968 4.77788 19.5371 4.08752 19.5371C3.39717 19.5371 2.83752 20.0968 2.83752 20.7871C2.83752 21.4775 3.39717 22.0371 4.08752 22.0371Z" stroke="#EFB503" stroke-width="2.5"/>
</svg>
