<svg width="26" height="21" viewBox="0 0 26 21" fill="none" xmlns="http://www.w3.org/2000/svg">
<path d="M11.0334 14.9363C11.5287 15.4316 12.1684 15.6742 12.9525 15.6643C13.7366 15.6544 14.3144 15.3705 14.6858 14.8125L21.6192 4.41253L11.2192 11.3459C10.662 11.7173 10.3682 12.2848 10.3376 13.0482C10.3071 13.8117 10.539 14.4411 11.0334 14.9363ZM12.9525 0.698244C14.1699 0.698244 15.3412 0.868688 16.4662 1.20958C17.5912 1.55047 18.6485 2.06097 19.6382 2.7411L17.2858 4.22681C16.6049 3.87602 15.8983 3.61313 15.1662 3.43815C14.4341 3.26316 13.6962 3.17526 12.9525 3.17443C10.208 3.17443 7.87093 4.13891 5.94115 6.06786C4.01137 7.99682 3.0469 10.3339 3.04772 13.0792C3.04772 13.9459 3.16658 14.8022 3.40429 15.6482C3.64201 16.4943 3.97712 17.2887 4.40963 18.0316H21.4953C21.9699 17.2474 22.3158 16.4324 22.5329 15.5863C22.7499 14.7403 22.8581 13.8633 22.8572 12.9554C22.8572 12.2125 22.7693 11.4903 22.5935 10.7887C22.4177 10.0871 22.1548 9.40618 21.8049 8.74586L23.2906 6.39348C23.9096 7.36332 24.3999 8.39507 24.7614 9.48872C25.123 10.5824 25.3136 11.7173 25.3334 12.8935C25.3541 14.0697 25.2199 15.1943 24.9311 16.2673C24.6422 17.3403 24.2192 18.3617 23.662 19.3316C23.435 19.703 23.1255 19.9919 22.7334 20.1982C22.3414 20.4046 21.9287 20.5078 21.4953 20.5078H4.40963C3.97629 20.5078 3.5636 20.4046 3.17153 20.1982C2.77947 19.9919 2.46995 19.703 2.24296 19.3316C1.70645 18.403 1.29376 17.4175 1.00487 16.375C0.715978 15.3325 0.571533 14.2339 0.571533 13.0792C0.571533 11.3665 0.89674 9.76193 1.54715 8.26548C2.19756 6.76904 3.08487 5.45913 4.20906 4.33577C5.33325 3.21075 6.6481 2.32304 8.15363 1.67262C9.65915 1.02221 11.2588 0.697418 12.9525 0.698244Z" fill="#EFB503"/>
</svg>
