<svg width="663" height="258" viewBox="0 0 663 258" fill="none" xmlns="http://www.w3.org/2000/svg">
<rect x="0.00195312" width="662.432" height="258" rx="21.6308" fill="white"/>
<rect x="0.00195312" width="662.432" height="258" rx="21.6308" fill="white"/>
<circle cx="44.8156" cy="93.1828" r="8.907" fill="#E57575" stroke="#E57575" stroke-width="3.81728"/>
<path d="M71.0185 100V86.5159H79.4263V88.2672H73.053V91.9543H76.0685C77.0693 91.9543 77.9186 92.1167 78.6165 92.4415C79.3188 92.7663 79.8543 93.225 80.223 93.8176C80.5961 94.4101 80.7827 95.1081 80.7827 95.9113C80.7827 96.7146 80.5961 97.4234 80.223 98.038C79.8543 98.6525 79.3188 99.1331 78.6165 99.4799C77.9186 99.8266 77.0693 100 76.0685 100H71.0185ZM73.053 98.2881H76.0685C76.6479 98.2881 77.1373 98.174 77.5367 97.9458C77.9405 97.7175 78.2456 97.4212 78.4519 97.0569C78.6626 96.6926 78.7679 96.302 78.7679 95.885C78.7679 95.2792 78.5353 94.7591 78.07 94.3246C77.6048 93.8856 76.9376 93.6662 76.0685 93.6662H73.053V98.2881ZM87.2877 100.204C86.3396 100.204 85.5122 99.9868 84.8055 99.5523C84.0988 99.1177 83.5501 98.5098 83.1595 97.7285C82.7688 96.9472 82.5735 96.0342 82.5735 94.9895C82.5735 93.9405 82.7688 93.0231 83.1595 92.2374C83.5501 91.4517 84.0988 90.8416 84.8055 90.407C85.5122 89.9725 86.3396 89.7552 87.2877 89.7552C88.2358 89.7552 89.0632 89.9725 89.7699 90.407C90.4766 90.8416 91.0252 91.4517 91.4159 92.2374C91.8065 93.0231 92.0019 93.9405 92.0019 94.9895C92.0019 96.0342 91.8065 96.9472 91.4159 97.7285C91.0252 98.5098 90.4766 99.1177 89.7699 99.5523C89.0632 99.9868 88.2358 100.204 87.2877 100.204ZM87.2943 98.5515C87.9088 98.5515 88.4179 98.3891 88.8218 98.0643C89.2256 97.7395 89.5241 97.3071 89.7172 96.7672C89.9147 96.2273 90.0135 95.6326 90.0135 94.983C90.0135 94.3377 89.9147 93.7452 89.7172 93.2053C89.5241 92.661 89.2256 92.2242 88.8218 91.895C88.4179 91.5658 87.9088 91.4012 87.2943 91.4012C86.6754 91.4012 86.1618 91.5658 85.7536 91.895C85.3498 92.2242 85.0491 92.661 84.8516 93.2053C84.6585 93.7452 84.5619 94.3377 84.5619 94.983C84.5619 95.6326 84.6585 96.2273 84.8516 96.7672C85.0491 97.3071 85.3498 97.7395 85.7536 98.0643C86.1618 98.3891 86.6754 98.5515 87.2943 98.5515ZM92.9812 91.5856V89.8869H101.514V91.5856H98.2156V100H96.293V91.5856H92.9812ZM105.078 93.3633H108.014C109.252 93.3633 110.205 93.6705 110.872 94.2851C111.539 94.8996 111.873 95.6918 111.873 96.6619C111.873 97.294 111.723 97.8624 111.425 98.3672C111.126 98.8719 110.69 99.2714 110.115 99.5655C109.54 99.8552 108.839 100 108.014 100H103.596V89.8869H105.525V98.3013H108.014C108.58 98.3013 109.046 98.1543 109.41 97.8602C109.774 97.5617 109.957 97.182 109.957 96.7211C109.957 96.2339 109.774 95.8367 109.41 95.5294C109.046 95.2178 108.58 95.062 108.014 95.062H105.078V93.3633ZM113.308 100V89.8869H115.276V100H113.308Z" fill="black"/>
<rect x="132.537" y="88" width="42" height="10" rx="5" fill="#D9D9D9"/>
<path d="M188.529 100.184C187.624 100.184 186.817 100.029 186.106 99.7169C185.399 99.4052 184.839 98.9729 184.427 98.4198C184.019 97.8624 183.799 97.2171 183.768 96.4841H185.836C185.862 96.8836 185.996 97.2303 186.237 97.5244C186.483 97.8141 186.804 98.038 187.199 98.196C187.594 98.354 188.033 98.433 188.515 98.433C189.047 98.433 189.516 98.3408 189.924 98.1565C190.337 97.9721 190.66 97.7153 190.892 97.3861C191.125 97.0525 191.241 96.6685 191.241 96.2339C191.241 95.7818 191.125 95.3846 190.892 95.0422C190.664 94.6955 190.328 94.4233 189.885 94.2258C189.446 94.0283 188.915 93.9295 188.292 93.9295H187.153V92.2703H188.292C188.792 92.2703 189.231 92.1804 189.608 92.0004C189.99 91.8204 190.289 91.5702 190.504 91.2498C190.719 90.925 190.826 90.5453 190.826 90.1108C190.826 89.6938 190.732 89.3317 190.543 89.0244C190.359 88.7128 190.096 88.4691 189.753 88.2936C189.415 88.118 189.016 88.0302 188.555 88.0302C188.116 88.0302 187.706 88.1114 187.324 88.2738C186.946 88.4318 186.639 88.6601 186.402 88.9586C186.165 89.2526 186.038 89.606 186.02 90.0186H184.051C184.073 89.29 184.288 88.6491 184.697 88.096C185.109 87.543 185.654 87.1106 186.33 86.799C187.005 86.4873 187.756 86.3315 188.581 86.3315C189.446 86.3315 190.192 86.5005 190.82 86.8385C191.452 87.1721 191.939 87.6176 192.281 88.1751C192.628 88.7325 192.799 89.3426 192.795 90.0054C192.799 90.7604 192.589 91.4012 192.163 91.928C191.742 92.4547 191.18 92.808 190.477 92.988V93.0933C191.373 93.2294 192.066 93.5849 192.558 94.16C193.054 94.735 193.3 95.4482 193.295 96.2998C193.3 97.0416 193.094 97.7066 192.677 98.2947C192.264 98.8829 191.7 99.346 190.984 99.684C190.269 100.018 189.45 100.184 188.529 100.184ZM198.754 100.224C198.113 100.224 197.533 100.105 197.015 99.8683C196.497 99.6269 196.087 99.2779 195.784 98.8215C195.486 98.365 195.336 97.8053 195.336 97.1425C195.336 96.5719 195.446 96.1022 195.666 95.7335C195.885 95.3648 196.181 95.0729 196.555 94.8579C196.928 94.6428 197.345 94.4804 197.806 94.3706C198.266 94.2609 198.736 94.1775 199.214 94.1204C199.82 94.0502 200.312 93.9932 200.689 93.9493C201.067 93.901 201.341 93.8242 201.512 93.7188C201.684 93.6135 201.769 93.4423 201.769 93.2053V93.1592C201.769 92.5842 201.607 92.1387 201.282 91.8226C200.961 91.5066 200.483 91.3486 199.847 91.3486C199.184 91.3486 198.661 91.4956 198.28 91.7897C197.902 92.0794 197.641 92.402 197.496 92.7576L195.646 92.3362C195.865 91.7217 196.186 91.2257 196.607 90.8482C197.033 90.4663 197.522 90.1898 198.075 90.0186C198.629 89.843 199.21 89.7552 199.82 89.7552C200.224 89.7552 200.652 89.8035 201.104 89.9001C201.561 89.9923 201.986 90.1634 202.381 90.4136C202.781 90.6638 203.108 91.0216 203.362 91.4868C203.617 91.9477 203.744 92.5469 203.744 93.2843V100H201.822V98.6174H201.743C201.615 98.8719 201.425 99.1221 201.17 99.3679C200.915 99.6137 200.588 99.8178 200.189 99.9802C199.789 100.143 199.311 100.224 198.754 100.224ZM199.182 98.6437C199.726 98.6437 200.191 98.5361 200.577 98.3211C200.968 98.106 201.264 97.8251 201.466 97.4783C201.673 97.1272 201.776 96.7519 201.776 96.3524V95.0488C201.705 95.119 201.569 95.1849 201.367 95.2463C201.17 95.3034 200.944 95.3539 200.689 95.3978C200.435 95.4373 200.187 95.4746 199.945 95.5097C199.704 95.5404 199.502 95.5667 199.34 95.5887C198.958 95.637 198.609 95.7182 198.293 95.8323C197.981 95.9464 197.731 96.111 197.542 96.3261C197.358 96.5368 197.266 96.8177 197.266 97.1689C197.266 97.6561 197.446 98.0248 197.806 98.275C198.165 98.5208 198.624 98.6437 199.182 98.6437ZM214.168 86.1208L214.985 87.3652C214.682 87.6418 214.337 87.8393 213.951 87.9578C213.569 88.0719 213.128 88.1443 212.628 88.1751C212.127 88.2014 211.555 88.2255 210.909 88.2475C210.181 88.2694 209.582 88.4274 209.112 88.7215C208.642 89.0112 208.28 89.4414 208.026 90.012C207.775 90.5782 207.613 91.2893 207.538 92.1452H207.663C207.993 91.5176 208.449 91.0479 209.033 90.7363C209.621 90.4246 210.282 90.2688 211.015 90.2688C211.831 90.2688 212.558 90.4553 213.194 90.8284C213.831 91.2015 214.331 91.748 214.695 92.4679C215.064 93.1833 215.248 94.059 215.248 95.0949C215.248 96.1439 215.055 97.0503 214.669 97.8141C214.287 98.5778 213.747 99.1682 213.049 99.5852C212.356 99.9978 211.537 100.204 210.593 100.204C209.65 100.204 208.827 99.9912 208.124 99.5655C207.426 99.1353 206.884 98.4988 206.498 97.6561C206.116 96.8133 205.925 95.773 205.925 94.5352V93.5345C205.925 91.2213 206.338 89.4809 207.163 88.3133C207.988 87.1458 209.222 86.5466 210.863 86.5159C211.394 86.5027 211.868 86.5005 212.285 86.5093C212.702 86.5137 213.067 86.4939 213.378 86.45C213.694 86.4018 213.958 86.292 214.168 86.1208ZM210.6 98.5515C211.149 98.5515 211.62 98.4132 212.016 98.1367C212.415 97.8558 212.722 97.4586 212.937 96.945C213.152 96.4314 213.26 95.8257 213.26 95.1278C213.26 94.4431 213.152 93.8615 212.937 93.383C212.722 92.9046 212.415 92.5403 212.016 92.2901C211.616 92.0355 211.138 91.9082 210.58 91.9082C210.168 91.9082 209.799 91.9806 209.474 92.1255C209.149 92.2659 208.871 92.4744 208.638 92.751C208.41 93.0275 208.232 93.3655 208.105 93.7649C207.982 94.16 207.916 94.6143 207.907 95.1278C207.907 96.1725 208.146 97.0043 208.625 97.6232C209.108 98.2421 209.766 98.5515 210.6 98.5515ZM216.651 100L216.644 98.2947H217.006C217.287 98.2947 217.522 98.2355 217.711 98.117C217.904 97.9941 218.062 97.7878 218.185 97.4981C218.308 97.2084 218.402 96.8089 218.468 96.2998C218.534 95.7862 218.582 95.141 218.613 94.3641L218.79 89.8869H225.849V100H223.919V91.5856H220.614L220.456 95.0225C220.417 95.8564 220.331 96.5851 220.199 97.2084C220.072 97.8317 219.886 98.3518 219.64 98.7688C219.394 99.1814 219.078 99.4908 218.692 99.6971C218.305 99.899 217.836 100 217.283 100H216.651ZM232.734 100.204C231.786 100.204 230.958 99.9868 230.252 99.5523C229.545 99.1177 228.996 98.5098 228.606 97.7285C228.215 96.9472 228.02 96.0342 228.02 94.9895C228.02 93.9405 228.215 93.0231 228.606 92.2374C228.996 91.4517 229.545 90.8416 230.252 90.407C230.958 89.9725 231.786 89.7552 232.734 89.7552C233.682 89.7552 234.509 89.9725 235.216 90.407C235.923 90.8416 236.471 91.4517 236.862 92.2374C237.253 93.0231 237.448 93.9405 237.448 94.9895C237.448 96.0342 237.253 96.9472 236.862 97.7285C236.471 98.5098 235.923 99.1177 235.216 99.5523C234.509 99.9868 233.682 100.204 232.734 100.204ZM232.74 98.5515C233.355 98.5515 233.864 98.3891 234.268 98.0643C234.672 97.7395 234.97 97.3071 235.163 96.7672C235.361 96.2273 235.46 95.6326 235.46 94.983C235.46 94.3377 235.361 93.7452 235.163 93.2053C234.97 92.661 234.672 92.2242 234.268 91.895C233.864 91.5658 233.355 91.4012 232.74 91.4012C232.122 91.4012 231.608 91.5658 231.2 91.895C230.796 92.2242 230.495 92.661 230.298 93.2053C230.105 93.7452 230.008 94.3377 230.008 94.983C230.008 95.6326 230.105 96.2273 230.298 96.7672C230.495 97.3071 230.796 97.7395 231.2 98.0643C231.608 98.3891 232.122 98.5515 232.74 98.5515ZM239.645 100V89.8869H241.614V94.127H242.562L245.9 89.8869H248.336L244.419 94.8052L248.382 100H245.94L242.891 95.9574H241.614V100H239.645ZM251.841 97.2413L256.298 89.8869H258.418V100H256.489V92.639L252.051 100H249.912V89.8869H251.841V97.2413ZM261.065 103.792V89.8869H262.988V91.5263H263.152C263.266 91.3156 263.431 91.072 263.646 90.7955C263.861 90.519 264.159 90.2776 264.541 90.0713C264.923 89.8606 265.428 89.7552 266.056 89.7552C266.872 89.7552 267.601 89.9615 268.242 90.3741C268.882 90.7867 269.385 91.3815 269.749 92.1584C270.118 92.9353 270.302 93.8703 270.302 94.9632C270.302 96.0562 270.12 96.9933 269.756 97.7746C269.392 98.5515 268.891 99.1507 268.255 99.572C267.618 99.989 266.892 100.198 266.075 100.198C265.461 100.198 264.958 100.094 264.568 99.8881C264.181 99.6818 263.879 99.4404 263.659 99.1638C263.44 98.8873 263.271 98.6415 263.152 98.4264H263.034V103.792H261.065ZM262.994 94.9435C262.994 95.6545 263.097 96.2778 263.304 96.8133C263.51 97.3488 263.808 97.768 264.199 98.0709C264.59 98.3694 265.068 98.5186 265.634 98.5186C266.222 98.5186 266.714 98.3628 267.109 98.0511C267.504 97.7351 267.803 97.3071 268.005 96.7672C268.211 96.2273 268.314 95.6194 268.314 94.9435C268.314 94.2763 268.213 93.6771 268.011 93.146C267.814 92.6149 267.515 92.1957 267.116 91.8885C266.721 91.5812 266.227 91.4276 265.634 91.4276C265.064 91.4276 264.581 91.5746 264.186 91.8687C263.795 92.1628 263.499 92.5732 263.297 93.0999C263.095 93.6266 262.994 94.2412 262.994 94.9435ZM276.768 100.204C275.82 100.204 274.992 99.9868 274.286 99.5523C273.579 99.1177 273.03 98.5098 272.64 97.7285C272.249 96.9472 272.054 96.0342 272.054 94.9895C272.054 93.9405 272.249 93.0231 272.64 92.2374C273.03 91.4517 273.579 90.8416 274.286 90.407C274.992 89.9725 275.82 89.7552 276.768 89.7552C277.716 89.7552 278.543 89.9725 279.25 90.407C279.957 90.8416 280.505 91.4517 280.896 92.2374C281.287 93.0231 281.482 93.9405 281.482 94.9895C281.482 96.0342 281.287 96.9472 280.896 97.7285C280.505 98.5098 279.957 99.1177 279.25 99.5523C278.543 99.9868 277.716 100.204 276.768 100.204ZM276.775 98.5515C277.389 98.5515 277.898 98.3891 278.302 98.0643C278.706 97.7395 279.004 97.3071 279.197 96.7672C279.395 96.2273 279.494 95.6326 279.494 94.983C279.494 94.3377 279.395 93.7452 279.197 93.2053C279.004 92.661 278.706 92.2242 278.302 91.895C277.898 91.5658 277.389 91.4012 276.775 91.4012C276.156 91.4012 275.642 91.5658 275.234 91.895C274.83 92.2242 274.529 92.661 274.332 93.2053C274.139 93.7452 274.042 94.3377 274.042 94.983C274.042 95.6326 274.139 96.2273 274.332 96.7672C274.529 97.3071 274.83 97.7395 275.234 98.0643C275.642 98.3891 276.156 98.5515 276.775 98.5515ZM283.68 100V89.8869H287.874C289.015 89.8869 289.919 90.1305 290.586 90.6177C291.253 91.1006 291.587 91.7568 291.587 92.5864C291.587 93.1789 291.398 93.6486 291.021 93.9954C290.643 94.3421 290.143 94.5747 289.52 94.6933C289.972 94.7459 290.386 94.882 290.764 95.1015C291.141 95.3166 291.444 95.6062 291.673 95.9706C291.905 96.3349 292.022 96.7694 292.022 97.2742C292.022 97.8097 291.883 98.2838 291.607 98.6964C291.33 99.1046 290.929 99.425 290.402 99.6576C289.88 99.8859 289.25 100 288.512 100H283.68ZM285.53 98.354H288.512C288.999 98.354 289.381 98.2377 289.658 98.005C289.934 97.7724 290.073 97.4564 290.073 97.0569C290.073 96.5873 289.934 96.2186 289.658 95.9508C289.381 95.6787 288.999 95.5426 288.512 95.5426H285.53V98.354ZM285.53 94.1007H287.893C288.262 94.1007 288.578 94.048 288.841 93.9427C289.109 93.8373 289.313 93.6881 289.454 93.495C289.599 93.2974 289.671 93.0648 289.671 92.7971C289.671 92.4064 289.511 92.1013 289.19 91.8819C288.87 91.6624 288.431 91.5527 287.874 91.5527H285.53V94.1007ZM297.124 100.224C296.483 100.224 295.904 100.105 295.386 99.8683C294.868 99.6269 294.458 99.2779 294.155 98.8215C293.856 98.365 293.707 97.8053 293.707 97.1425C293.707 96.5719 293.817 96.1022 294.036 95.7335C294.256 95.3648 294.552 95.0729 294.925 94.8579C295.298 94.6428 295.715 94.4804 296.176 94.3706C296.637 94.2609 297.107 94.1775 297.585 94.1204C298.191 94.0502 298.682 93.9932 299.06 93.9493C299.437 93.901 299.712 93.8242 299.883 93.7188C300.054 93.6135 300.14 93.4423 300.14 93.2053V93.1592C300.14 92.5842 299.977 92.1387 299.652 91.8226C299.332 91.5066 298.854 91.3486 298.217 91.3486C297.554 91.3486 297.032 91.4956 296.65 91.7897C296.273 92.0794 296.011 92.402 295.867 92.7576L294.016 92.3362C294.236 91.7217 294.556 91.2257 294.978 90.8482C295.404 90.4663 295.893 90.1898 296.446 90.0186C296.999 89.843 297.581 89.7552 298.191 89.7552C298.595 89.7552 299.023 89.8035 299.475 89.9001C299.931 89.9923 300.357 90.1634 300.752 90.4136C301.151 90.6638 301.478 91.0216 301.733 91.4868C301.988 91.9477 302.115 92.5469 302.115 93.2843V100H300.192V98.6174H300.113C299.986 98.8719 299.795 99.1221 299.54 99.3679C299.286 99.6137 298.959 99.8178 298.559 99.9802C298.16 100.143 297.682 100.224 297.124 100.224ZM297.552 98.6437C298.096 98.6437 298.562 98.5361 298.948 98.3211C299.339 98.106 299.635 97.8251 299.837 97.4783C300.043 97.1272 300.146 96.7519 300.146 96.3524V95.0488C300.076 95.119 299.94 95.1849 299.738 95.2463C299.54 95.3034 299.314 95.3539 299.06 95.3978C298.805 95.4373 298.557 95.4746 298.316 95.5097C298.074 95.5404 297.873 95.5667 297.71 95.5887C297.328 95.637 296.979 95.7182 296.663 95.8323C296.352 95.9464 296.101 96.111 295.913 96.3261C295.728 96.5368 295.636 96.8177 295.636 97.1689C295.636 97.6561 295.816 98.0248 296.176 98.275C296.536 98.5208 296.995 98.6437 297.552 98.6437ZM311.591 94.0941V95.7994H306.113V94.0941H311.591ZM306.666 89.8869V100H304.737V89.8869H306.666ZM312.967 89.8869V100H311.044V89.8869H312.967ZM319.86 100.204C318.912 100.204 318.085 99.9868 317.378 99.5523C316.672 99.1177 316.123 98.5098 315.732 97.7285C315.342 96.9472 315.146 96.0342 315.146 94.9895C315.146 93.9405 315.342 93.0231 315.732 92.2374C316.123 91.4517 316.672 90.8416 317.378 90.407C318.085 89.9725 318.912 89.7552 319.86 89.7552C320.809 89.7552 321.636 89.9725 322.343 90.407C323.049 90.8416 323.598 91.4517 323.989 92.2374C324.379 93.0231 324.575 93.9405 324.575 94.9895C324.575 96.0342 324.379 96.9472 323.989 97.7285C323.598 98.5098 323.049 99.1177 322.343 99.5523C321.636 99.9868 320.809 100.204 319.86 100.204ZM319.867 98.5515C320.482 98.5515 320.991 98.3891 321.395 98.0643C321.798 97.7395 322.097 97.3071 322.29 96.7672C322.488 96.2273 322.586 95.6326 322.586 94.983C322.586 94.3377 322.488 93.7452 322.29 93.2053C322.097 92.661 321.798 92.2242 321.395 91.895C320.991 91.5658 320.482 91.4012 319.867 91.4012C319.248 91.4012 318.735 91.5658 318.326 91.895C317.923 92.2242 317.622 92.661 317.424 93.2053C317.231 93.7452 317.135 94.3377 317.135 94.983C317.135 95.6326 317.231 96.2273 317.424 96.7672C317.622 97.3071 317.923 97.7395 318.326 98.0643C318.735 98.3891 319.248 98.5515 319.867 98.5515Z" fill="black"/>
<circle opacity="0.8" cx="44.8156" cy="130.265" r="10.8156" fill="#616B89"/>
<path d="M81.5596 123.965V137.449H79.5317V125.703H73.1847V137.449H71.1568V123.965H81.5596ZM88.7724 137.653C87.8243 137.653 86.9969 137.436 86.2902 137.002C85.5835 136.567 85.0348 135.959 84.6442 135.178C84.2535 134.396 84.0582 133.483 84.0582 132.439C84.0582 131.39 84.2535 130.472 84.6442 129.687C85.0348 128.901 85.5835 128.291 86.2902 127.856C86.9969 127.422 87.8243 127.204 88.7724 127.204C89.7205 127.204 90.5479 127.422 91.2546 127.856C91.9613 128.291 92.5099 128.901 92.9006 129.687C93.2912 130.472 93.4866 131.39 93.4866 132.439C93.4866 133.483 93.2912 134.396 92.9006 135.178C92.5099 135.959 91.9613 136.567 91.2546 137.002C90.5479 137.436 89.7205 137.653 88.7724 137.653ZM88.779 136.001C89.3935 136.001 89.9027 135.838 90.3065 135.514C90.7103 135.189 91.0088 134.756 91.2019 134.216C91.3994 133.677 91.4982 133.082 91.4982 132.432C91.4982 131.787 91.3994 131.194 91.2019 130.654C91.0088 130.11 90.7103 129.673 90.3065 129.344C89.9027 129.015 89.3935 128.85 88.779 128.85C88.1601 128.85 87.6465 129.015 87.2383 129.344C86.8345 129.673 86.5338 130.11 86.3363 130.654C86.1432 131.194 86.0466 131.787 86.0466 132.432C86.0466 133.082 86.1432 133.677 86.3363 134.216C86.5338 134.756 86.8345 135.189 87.2383 135.514C87.6465 135.838 88.1601 136.001 88.779 136.001ZM94.6964 140.366V135.744H95.5194C95.7301 135.551 95.9078 135.32 96.0527 135.053C96.2019 134.785 96.327 134.467 96.428 134.098C96.5333 133.729 96.6211 133.299 96.6913 132.807C96.7616 132.311 96.823 131.745 96.8757 131.109L97.1917 127.336H104.065V135.744H105.619V140.366H103.697V137.449H96.6453V140.366H94.6964ZM97.6263 135.744H102.143V129.022H98.9563L98.7456 131.109C98.6446 132.171 98.5173 133.093 98.3637 133.874C98.2101 134.651 97.9643 135.274 97.6263 135.744ZM111.803 137.653C110.855 137.653 110.028 137.436 109.321 137.002C108.615 136.567 108.066 135.959 107.675 135.178C107.285 134.396 107.089 133.483 107.089 132.439C107.089 131.39 107.285 130.472 107.675 129.687C108.066 128.901 108.615 128.291 109.321 127.856C110.028 127.422 110.855 127.204 111.803 127.204C112.751 127.204 113.579 127.422 114.286 127.856C114.992 128.291 115.541 128.901 115.932 129.687C116.322 130.472 116.518 131.39 116.518 132.439C116.518 133.483 116.322 134.396 115.932 135.178C115.541 135.959 114.992 136.567 114.286 137.002C113.579 137.436 112.751 137.653 111.803 137.653ZM111.81 136.001C112.424 136.001 112.934 135.838 113.337 135.514C113.741 135.189 114.04 134.756 114.233 134.216C114.43 133.677 114.529 133.082 114.529 132.432C114.529 131.787 114.43 131.194 114.233 130.654C114.04 130.11 113.741 129.673 113.337 129.344C112.934 129.015 112.424 128.85 111.81 128.85C111.191 128.85 110.678 129.015 110.269 129.344C109.865 129.673 109.565 130.11 109.367 130.654C109.174 131.194 109.078 131.787 109.078 132.432C109.078 133.082 109.174 133.677 109.367 134.216C109.565 134.756 109.865 135.189 110.269 135.514C110.678 135.838 111.191 136.001 111.81 136.001ZM118.116 134.776H120.131C120.157 135.189 120.343 135.507 120.69 135.731C121.041 135.955 121.496 136.067 122.053 136.067C122.619 136.067 123.102 135.946 123.502 135.704C123.901 135.459 124.101 135.079 124.101 134.565C124.101 134.258 124.024 133.99 123.87 133.762C123.721 133.53 123.508 133.35 123.232 133.222C122.959 133.095 122.637 133.031 122.264 133.031H120.618V131.484H122.264C122.821 131.484 123.238 131.357 123.515 131.102C123.791 130.848 123.93 130.529 123.93 130.148C123.93 129.735 123.78 129.404 123.482 129.153C123.188 128.899 122.777 128.771 122.251 128.771C121.715 128.771 121.27 128.892 120.914 129.134C120.559 129.371 120.372 129.678 120.354 130.055H118.366C118.379 129.489 118.55 128.993 118.88 128.567C119.213 128.137 119.661 127.804 120.223 127.567C120.789 127.325 121.432 127.204 122.152 127.204C122.902 127.204 123.552 127.325 124.101 127.567C124.649 127.808 125.073 128.142 125.371 128.567C125.674 128.993 125.826 129.483 125.826 130.036C125.826 130.593 125.659 131.05 125.325 131.405C124.996 131.756 124.566 132.009 124.035 132.162V132.268C124.426 132.294 124.772 132.412 125.075 132.623C125.378 132.834 125.615 133.113 125.786 133.459C125.957 133.806 126.043 134.199 126.043 134.638C126.043 135.257 125.872 135.792 125.529 136.244C125.191 136.696 124.722 137.045 124.12 137.291C123.524 137.533 122.841 137.653 122.073 137.653C121.327 137.653 120.657 137.537 120.065 137.304C119.477 137.067 119.009 136.734 118.662 136.304C118.32 135.873 118.138 135.364 118.116 134.776ZM128.076 141.242V127.336H129.998V128.976H130.163C130.277 128.765 130.442 128.521 130.657 128.245C130.872 127.968 131.17 127.727 131.552 127.52C131.934 127.31 132.439 127.204 133.067 127.204C133.883 127.204 134.612 127.411 135.252 127.823C135.893 128.236 136.396 128.831 136.76 129.608C137.129 130.385 137.313 131.319 137.313 132.412C137.313 133.505 137.131 134.443 136.767 135.224C136.402 136.001 135.902 136.6 135.266 137.021C134.629 137.438 133.903 137.647 133.086 137.647C132.472 137.647 131.969 137.544 131.579 137.337C131.192 137.131 130.889 136.89 130.67 136.613C130.45 136.337 130.281 136.091 130.163 135.876H130.044V141.242H128.076ZM130.005 132.393C130.005 133.104 130.108 133.727 130.314 134.263C130.521 134.798 130.819 135.217 131.21 135.52C131.6 135.819 132.079 135.968 132.645 135.968C133.233 135.968 133.725 135.812 134.12 135.5C134.515 135.184 134.814 134.756 135.015 134.216C135.222 133.677 135.325 133.069 135.325 132.393C135.325 131.725 135.224 131.126 135.022 130.595C134.824 130.064 134.526 129.645 134.127 129.338C133.732 129.03 133.238 128.877 132.645 128.877C132.075 128.877 131.592 129.024 131.197 129.318C130.806 129.612 130.51 130.022 130.308 130.549C130.106 131.076 130.005 131.69 130.005 132.393ZM141.448 134.691L145.905 127.336H148.025V137.449H146.096V130.088L141.659 137.449H139.519V127.336H141.448V134.691ZM149.418 129.035V127.336H157.951V129.035H154.652V137.449H152.73V129.035H149.418ZM163.921 137.653C162.925 137.653 162.067 137.44 161.347 137.015C160.631 136.585 160.078 135.981 159.687 135.204C159.301 134.423 159.108 133.508 159.108 132.459C159.108 131.423 159.301 130.51 159.687 129.72C160.078 128.929 160.622 128.313 161.32 127.869C162.023 127.426 162.843 127.204 163.783 127.204C164.353 127.204 164.906 127.299 165.442 127.488C165.977 127.676 166.458 127.973 166.884 128.376C167.31 128.78 167.645 129.305 167.891 129.95C168.137 130.591 168.26 131.37 168.26 132.287V132.985H160.221V131.51H166.331C166.331 130.992 166.225 130.534 166.015 130.134C165.804 129.731 165.508 129.412 165.126 129.18C164.748 128.947 164.305 128.831 163.796 128.831C163.243 128.831 162.76 128.967 162.347 129.239C161.939 129.507 161.623 129.858 161.399 130.292C161.18 130.723 161.07 131.19 161.07 131.695V132.847C161.07 133.523 161.189 134.098 161.426 134.572C161.667 135.046 162.003 135.408 162.433 135.658C162.863 135.904 163.366 136.027 163.941 136.027C164.314 136.027 164.654 135.974 164.961 135.869C165.269 135.759 165.534 135.597 165.758 135.382C165.982 135.167 166.153 134.901 166.272 134.585L168.135 134.921C167.986 135.47 167.718 135.95 167.332 136.363C166.95 136.771 166.469 137.089 165.89 137.318C165.315 137.541 164.658 137.653 163.921 137.653ZM169.647 137.449L169.641 135.744H170.003C170.284 135.744 170.519 135.685 170.708 135.566C170.901 135.443 171.059 135.237 171.182 134.947C171.304 134.658 171.399 134.258 171.465 133.749C171.531 133.235 171.579 132.59 171.61 131.813L171.787 127.336H178.845V137.449H176.916V129.035H173.611L173.453 132.472C173.414 133.306 173.328 134.034 173.196 134.658C173.069 135.281 172.882 135.801 172.637 136.218C172.391 136.631 172.075 136.94 171.689 137.146C171.302 137.348 170.833 137.449 170.28 137.449H169.647ZM182.952 130.813H185.889C187.126 130.813 188.079 131.12 188.746 131.734C189.413 132.349 189.747 133.141 189.747 134.111C189.747 134.743 189.598 135.312 189.299 135.816C189.001 136.321 188.564 136.721 187.989 137.015C187.414 137.304 186.714 137.449 185.889 137.449H181.471V127.336H183.4V135.751H185.889C186.455 135.751 186.92 135.603 187.284 135.309C187.649 135.011 187.831 134.631 187.831 134.17C187.831 133.683 187.649 133.286 187.284 132.979C186.92 132.667 186.455 132.511 185.889 132.511H182.952V130.813ZM198.808 131.543V133.249H193.33V131.543H198.808ZM193.883 127.336V137.449H191.954V127.336H193.883ZM200.184 127.336V137.449H198.262V127.336H200.184ZM204.299 130.813H207.236C208.474 130.813 209.426 131.12 210.093 131.734C210.76 132.349 211.094 133.141 211.094 134.111C211.094 134.743 210.945 135.312 210.646 135.816C210.348 136.321 209.911 136.721 209.336 137.015C208.761 137.304 208.061 137.449 207.236 137.449H202.818V127.336H204.747V135.751H207.236C207.802 135.751 208.267 135.603 208.632 135.309C208.996 135.011 209.178 134.631 209.178 134.17C209.178 133.683 208.996 133.286 208.632 132.979C208.267 132.667 207.802 132.511 207.236 132.511H204.299V130.813ZM212.529 137.449V127.336H214.498V137.449H212.529ZM221.498 137.653C220.502 137.653 219.644 137.44 218.924 137.015C218.209 136.585 217.656 135.981 217.265 135.204C216.879 134.423 216.686 133.508 216.686 132.459C216.686 131.423 216.879 130.51 217.265 129.72C217.656 128.929 218.2 128.313 218.898 127.869C219.6 127.426 220.421 127.204 221.36 127.204C221.931 127.204 222.484 127.299 223.019 127.488C223.555 127.676 224.036 127.973 224.461 128.376C224.887 128.78 225.223 129.305 225.469 129.95C225.714 130.591 225.837 131.37 225.837 132.287V132.985H217.798V131.51H223.908C223.908 130.992 223.803 130.534 223.592 130.134C223.382 129.731 223.085 129.412 222.703 129.18C222.326 128.947 221.883 128.831 221.373 128.831C220.82 128.831 220.337 128.967 219.925 129.239C219.517 129.507 219.201 129.858 218.977 130.292C218.757 130.723 218.648 131.19 218.648 131.695V132.847C218.648 133.523 218.766 134.098 219.003 134.572C219.245 135.046 219.58 135.408 220.01 135.658C220.441 135.904 220.943 136.027 221.518 136.027C221.891 136.027 222.231 135.974 222.539 135.869C222.846 135.759 223.112 135.597 223.335 135.382C223.559 135.167 223.73 134.901 223.849 134.585L225.712 134.921C225.563 135.47 225.295 135.95 224.909 136.363C224.527 136.771 224.046 137.089 223.467 137.318C222.892 137.541 222.236 137.653 221.498 137.653Z" fill="black"/>
<circle cx="44.8156" cy="167.718" r="10.8156" fill="#75A0E5"/>
<path d="M71.0185 174.902V161.418H73.053V167.278H79.7753V161.418H81.8163V174.902H79.7753V169.023H73.053V174.902H71.0185ZM88.9798 175.106C87.9834 175.106 87.1253 174.894 86.4054 174.468C85.69 174.038 85.1369 173.434 84.7462 172.657C84.36 171.876 84.1669 170.961 84.1669 169.912C84.1669 168.876 84.36 167.963 84.7462 167.173C85.1369 166.383 85.6812 165.766 86.3791 165.323C87.0814 164.879 87.9022 164.658 88.8415 164.658C89.4121 164.658 89.9652 164.752 90.5007 164.941C91.0362 165.129 91.5168 165.426 91.9426 165.83C92.3684 166.233 92.7042 166.758 92.95 167.403C93.1958 168.044 93.3187 168.823 93.3187 169.74V170.438H85.2796V168.964H91.3895C91.3895 168.446 91.2842 167.987 91.0735 167.587C90.8628 167.184 90.5665 166.865 90.1847 166.633C89.8072 166.4 89.3639 166.284 88.8547 166.284C88.3016 166.284 87.8188 166.42 87.4062 166.692C86.998 166.96 86.682 167.311 86.4581 167.745C86.2386 168.176 86.1289 168.643 86.1289 169.148V170.3C86.1289 170.976 86.2474 171.551 86.4844 172.025C86.7259 172.499 87.0616 172.861 87.4918 173.111C87.922 173.357 88.4245 173.48 88.9995 173.48C89.3726 173.48 89.7128 173.428 90.0201 173.322C90.3273 173.212 90.5929 173.05 90.8167 172.835C91.0406 172.62 91.2118 172.354 91.3303 172.038L93.1936 172.374C93.0443 172.923 92.7766 173.403 92.3903 173.816C92.0084 174.224 91.5278 174.542 90.9484 174.771C90.3734 174.995 89.7172 175.106 88.9798 175.106ZM103.753 164.789V173.289H105.234V178.161H103.292V174.902H95.5029V164.789H97.4321V173.204H101.83V164.789H103.753ZM111.667 175.106C110.67 175.106 109.812 174.894 109.092 174.468C108.377 174.038 107.824 173.434 107.433 172.657C107.047 171.876 106.854 170.961 106.854 169.912C106.854 168.876 107.047 167.963 107.433 167.173C107.824 166.383 108.368 165.766 109.066 165.323C109.768 164.879 110.589 164.658 111.528 164.658C112.099 164.658 112.652 164.752 113.188 164.941C113.723 165.129 114.204 165.426 114.63 165.83C115.055 166.233 115.391 166.758 115.637 167.403C115.883 168.044 116.006 168.823 116.006 169.74V170.438H107.967V168.964H114.077C114.077 168.446 113.971 167.987 113.76 167.587C113.55 167.184 113.254 166.865 112.872 166.633C112.494 166.4 112.051 166.284 111.542 166.284C110.989 166.284 110.506 166.42 110.093 166.692C109.685 166.96 109.369 167.311 109.145 167.745C108.926 168.176 108.816 168.643 108.816 169.148V170.3C108.816 170.976 108.934 171.551 109.171 172.025C109.413 172.499 109.749 172.861 110.179 173.111C110.609 173.357 111.112 173.48 111.687 173.48C112.06 173.48 112.4 173.428 112.707 173.322C113.014 173.212 113.28 173.05 113.504 172.835C113.728 172.62 113.899 172.354 114.017 172.038L115.881 172.374C115.731 172.923 115.464 173.403 115.077 173.816C114.695 174.224 114.215 174.542 113.635 174.771C113.06 174.995 112.404 175.106 111.667 175.106ZM117.393 174.902L117.387 173.197H117.749C118.03 173.197 118.265 173.138 118.453 173.019C118.646 172.896 118.804 172.69 118.927 172.4C119.05 172.111 119.145 171.711 119.21 171.202C119.276 170.689 119.325 170.043 119.355 169.266L119.533 164.789H126.591V174.902H124.662V166.488H121.357L121.199 169.925C121.159 170.759 121.074 171.487 120.942 172.111C120.815 172.734 120.628 173.254 120.382 173.671C120.137 174.084 119.821 174.393 119.434 174.599C119.048 174.801 118.578 174.902 118.025 174.902H117.393ZM133.575 175.106C132.579 175.106 131.721 174.894 131.001 174.468C130.285 174.038 129.732 173.434 129.342 172.657C128.955 171.876 128.762 170.961 128.762 169.912C128.762 168.876 128.955 167.963 129.342 167.173C129.732 166.383 130.277 165.766 130.974 165.323C131.677 164.879 132.498 164.658 133.437 164.658C134.008 164.658 134.561 164.752 135.096 164.941C135.632 165.129 136.112 165.426 136.538 165.83C136.964 166.233 137.3 166.758 137.545 167.403C137.791 168.044 137.914 168.823 137.914 169.74V170.438H129.875V168.964H135.985C135.985 168.446 135.88 167.987 135.669 167.587C135.458 167.184 135.162 166.865 134.78 166.633C134.403 166.4 133.959 166.284 133.45 166.284C132.897 166.284 132.414 166.42 132.002 166.692C131.593 166.96 131.277 167.311 131.053 167.745C130.834 168.176 130.724 168.643 130.724 169.148V170.3C130.724 170.976 130.843 171.551 131.08 172.025C131.321 172.499 131.657 172.861 132.087 173.111C132.517 173.357 133.02 173.48 133.595 173.48C133.968 173.48 134.308 173.428 134.615 173.322C134.923 173.212 135.188 173.05 135.412 172.835C135.636 172.62 135.807 172.354 135.926 172.038L137.789 172.374C137.64 172.923 137.372 173.403 136.986 173.816C136.604 174.224 136.123 174.542 135.544 174.771C134.969 174.995 134.313 175.106 133.575 175.106ZM140.098 174.902V164.789H144.292C145.434 164.789 146.338 165.033 147.005 165.52C147.672 166.003 148.006 166.659 148.006 167.489C148.006 168.081 147.817 168.551 147.44 168.898C147.062 169.244 146.562 169.477 145.938 169.596C146.39 169.648 146.805 169.784 147.183 170.004C147.56 170.219 147.863 170.509 148.091 170.873C148.324 171.237 148.44 171.672 148.44 172.177C148.44 172.712 148.302 173.186 148.025 173.599C147.749 174.007 147.347 174.327 146.821 174.56C146.298 174.788 145.668 174.902 144.931 174.902H140.098ZM141.948 173.256H144.931C145.418 173.256 145.8 173.14 146.077 172.907C146.353 172.675 146.491 172.359 146.491 171.959C146.491 171.49 146.353 171.121 146.077 170.853C145.8 170.581 145.418 170.445 144.931 170.445H141.948V173.256ZM141.948 169.003H144.312C144.681 169.003 144.997 168.95 145.26 168.845C145.528 168.74 145.732 168.59 145.873 168.397C146.017 168.2 146.09 167.967 146.09 167.699C146.09 167.309 145.93 167.004 145.609 166.784C145.289 166.565 144.85 166.455 144.292 166.455H141.948V169.003ZM152.081 168.266H155.018C156.256 168.266 157.208 168.573 157.875 169.187C158.542 169.802 158.876 170.594 158.876 171.564C158.876 172.196 158.727 172.765 158.428 173.27C158.13 173.774 157.693 174.174 157.118 174.468C156.543 174.757 155.843 174.902 155.018 174.902H150.6V164.789H152.529V173.204H155.018C155.584 173.204 156.049 173.057 156.414 172.763C156.778 172.464 156.96 172.084 156.96 171.623C156.96 171.136 156.778 170.739 156.414 170.432C156.049 170.12 155.584 169.964 155.018 169.964H152.081V168.266ZM160.311 174.902V164.789H162.28V174.902H160.311ZM169.28 175.106C168.284 175.106 167.426 174.894 166.706 174.468C165.991 174.038 165.438 173.434 165.047 172.657C164.661 171.876 164.467 170.961 164.467 169.912C164.467 168.876 164.661 167.963 165.047 167.173C165.438 166.383 165.982 165.766 166.68 165.323C167.382 164.879 168.203 164.658 169.142 164.658C169.713 164.658 170.266 164.752 170.801 164.941C171.337 165.129 171.817 165.426 172.243 165.83C172.669 166.233 173.005 166.758 173.251 167.403C173.496 168.044 173.619 168.823 173.619 169.74V170.438H165.58V168.964H171.69C171.69 168.446 171.585 167.987 171.374 167.587C171.163 167.184 170.867 166.865 170.485 166.633C170.108 166.4 169.664 166.284 169.155 166.284C168.602 166.284 168.119 166.42 167.707 166.692C167.299 166.96 166.983 167.311 166.759 167.745C166.539 168.176 166.43 168.643 166.43 169.148V170.3C166.43 170.976 166.548 171.551 166.785 172.025C167.026 172.499 167.362 172.861 167.792 173.111C168.223 173.357 168.725 173.48 169.3 173.48C169.673 173.48 170.013 173.428 170.321 173.322C170.628 173.212 170.894 173.05 171.117 172.835C171.341 172.62 171.512 172.354 171.631 172.038L173.494 172.374C173.345 172.923 173.077 173.403 172.691 173.816C172.309 174.224 171.828 174.542 171.249 174.771C170.674 174.995 170.018 175.106 169.28 175.106ZM180.71 174.902V164.789H182.679V169.029H183.627L186.965 164.789H189.401L185.484 169.708L189.447 174.902H187.005L183.956 170.86H182.679V174.902H180.71ZM190.18 174.902L190.173 173.197H190.535C190.816 173.197 191.051 173.138 191.24 173.019C191.433 172.896 191.591 172.69 191.714 172.4C191.837 172.111 191.931 171.711 191.997 171.202C192.063 170.689 192.111 170.043 192.142 169.266L192.32 164.789H199.378V174.902H197.449V166.488H194.143L193.985 169.925C193.946 170.759 193.86 171.487 193.729 172.111C193.601 172.734 193.415 173.254 193.169 173.671C192.923 174.084 192.607 174.393 192.221 174.599C191.835 174.801 191.365 174.902 190.812 174.902H190.18ZM203.932 172.144L208.39 164.789H210.51V174.902H208.581V167.541L204.143 174.902H202.003V164.789H203.932V172.144ZM213.156 174.902V164.789H215.125V169.029H216.073L219.411 164.789H221.847L217.93 169.708L221.894 174.902H219.451L216.402 170.86H215.125V174.902H213.156ZM225.352 172.144L229.809 164.789H231.929V174.902H230V167.541L225.562 174.902H223.423V164.789H225.352V172.144Z" fill="black"/>
<circle cx="44.8156" cy="205.167" r="8.907" fill="#27C58B" stroke="#27C58B" stroke-width="3.81728"/>
<path d="M84.5266 210.554L84.3489 215.538H82.321V212.352H81.3729V210.554H84.5266ZM72.5634 212.352V198.867H74.5123V210.587H81.0174V198.867H82.9728V212.352H72.5634ZM90.9593 212.556C89.9629 212.556 89.1048 212.343 88.3849 211.917C87.6694 211.487 87.1164 210.883 86.7257 210.106C86.3395 209.325 86.1463 208.41 86.1463 207.361C86.1463 206.325 86.3395 205.412 86.7257 204.622C87.1164 203.832 87.6607 203.215 88.3586 202.772C89.0609 202.328 89.8817 202.107 90.821 202.107C91.3916 202.107 91.9447 202.201 92.4802 202.39C93.0157 202.579 93.4963 202.875 93.9221 203.279C94.3478 203.683 94.6836 204.207 94.9294 204.852C95.1752 205.493 95.2981 206.272 95.2981 207.19V207.888H87.259V206.413H93.369C93.369 205.895 93.2637 205.436 93.053 205.037C92.8423 204.633 92.546 204.315 92.1641 204.082C91.7867 203.849 91.3433 203.733 90.8342 203.733C90.2811 203.733 89.7983 203.869 89.3857 204.141C88.9775 204.409 88.6614 204.76 88.4376 205.195C88.2181 205.625 88.1084 206.092 88.1084 206.597V207.749C88.1084 208.425 88.2269 209 88.4639 209.474C88.7053 209.948 89.0411 210.311 89.4713 210.561C89.9014 210.807 90.404 210.929 90.979 210.929C91.3521 210.929 91.6923 210.877 91.9995 210.771C92.3068 210.662 92.5723 210.499 92.7962 210.284C93.0201 210.069 93.1912 209.804 93.3098 209.488L95.173 209.823C95.0238 210.372 94.7561 210.853 94.3698 211.265C93.9879 211.673 93.5073 211.992 92.9279 212.22C92.3529 212.444 91.6967 212.556 90.9593 212.556ZM96.6857 212.352L96.6791 210.646H97.0413C97.3222 210.646 97.557 210.587 97.7458 210.469C97.9389 210.346 98.0969 210.139 98.2198 209.85C98.3427 209.56 98.4371 209.16 98.5029 208.651C98.5688 208.138 98.617 207.493 98.6478 206.716L98.8255 202.238H105.884V212.352H103.955V203.937H100.649L100.491 207.374C100.452 208.208 100.366 208.937 100.235 209.56C100.107 210.183 99.9207 210.703 99.6749 211.12C99.4291 211.533 99.113 211.842 98.7268 212.049C98.3405 212.251 97.8709 212.352 97.3178 212.352H96.6857ZM112.868 212.556C111.871 212.556 111.013 212.343 110.293 211.917C109.578 211.487 109.025 210.883 108.634 210.106C108.248 209.325 108.055 208.41 108.055 207.361C108.055 206.325 108.248 205.412 108.634 204.622C109.025 203.832 109.569 203.215 110.267 202.772C110.969 202.328 111.79 202.107 112.729 202.107C113.3 202.107 113.853 202.201 114.389 202.39C114.924 202.579 115.405 202.875 115.83 203.279C116.256 203.683 116.592 204.207 116.838 204.852C117.084 205.493 117.207 206.272 117.207 207.19V207.888H109.167V206.413H115.277C115.277 205.895 115.172 205.436 114.961 205.037C114.751 204.633 114.454 204.315 114.073 204.082C113.695 203.849 113.252 203.733 112.743 203.733C112.19 203.733 111.707 203.869 111.294 204.141C110.886 204.409 110.57 204.76 110.346 205.195C110.127 205.625 110.017 206.092 110.017 206.597V207.749C110.017 208.425 110.135 209 110.372 209.474C110.614 209.948 110.95 210.311 111.38 210.561C111.81 210.807 112.312 210.929 112.887 210.929C113.261 210.929 113.601 210.877 113.908 210.771C114.215 210.662 114.481 210.499 114.705 210.284C114.928 210.069 115.1 209.804 115.218 209.488L117.081 209.823C116.932 210.372 116.664 210.853 116.278 211.265C115.896 211.673 115.416 211.992 114.836 212.22C114.261 212.444 113.605 212.556 112.868 212.556ZM119.391 212.352V202.238H123.585C124.726 202.238 125.63 202.482 126.297 202.969C126.965 203.452 127.298 204.108 127.298 204.938C127.298 205.53 127.109 206 126.732 206.347C126.355 206.694 125.854 206.926 125.231 207.045C125.683 207.097 126.098 207.234 126.475 207.453C126.853 207.668 127.156 207.958 127.384 208.322C127.616 208.686 127.733 209.121 127.733 209.626C127.733 210.161 127.595 210.635 127.318 211.048C127.041 211.456 126.64 211.777 126.113 212.009C125.591 212.237 124.961 212.352 124.223 212.352H119.391ZM121.241 210.706H124.223C124.711 210.706 125.093 210.589 125.369 210.357C125.646 210.124 125.784 209.808 125.784 209.408C125.784 208.939 125.646 208.57 125.369 208.302C125.093 208.03 124.711 207.894 124.223 207.894H121.241V210.706ZM121.241 206.452H123.605C123.973 206.452 124.289 206.4 124.553 206.294C124.82 206.189 125.025 206.04 125.165 205.847C125.31 205.649 125.382 205.416 125.382 205.149C125.382 204.758 125.222 204.453 124.902 204.233C124.581 204.014 124.142 203.904 123.585 203.904H121.241V206.452ZM131.374 205.715H134.31C135.548 205.715 136.501 206.022 137.168 206.637C137.835 207.251 138.168 208.043 138.168 209.013C138.168 209.646 138.019 210.214 137.721 210.719C137.422 211.223 136.986 211.623 136.411 211.917C135.836 212.207 135.135 212.352 134.31 212.352H129.892V202.238H131.821V210.653H134.31C134.876 210.653 135.342 210.506 135.706 210.212C136.07 209.913 136.253 209.534 136.253 209.073C136.253 208.585 136.07 208.188 135.706 207.881C135.342 207.569 134.876 207.414 134.31 207.414H131.374V205.715ZM139.604 212.352V202.238H141.572V212.352H139.604ZM148.573 212.556C147.577 212.556 146.718 212.343 145.999 211.917C145.283 211.487 144.73 210.883 144.339 210.106C143.953 209.325 143.76 208.41 143.76 207.361C143.76 206.325 143.953 205.412 144.339 204.622C144.73 203.832 145.274 203.215 145.972 202.772C146.675 202.328 147.495 202.107 148.435 202.107C149.005 202.107 149.558 202.201 150.094 202.39C150.629 202.579 151.11 202.875 151.536 203.279C151.962 203.683 152.297 204.207 152.543 204.852C152.789 205.493 152.912 206.272 152.912 207.19V207.888H144.873V206.413H150.983C150.983 205.895 150.877 205.436 150.667 205.037C150.456 204.633 150.16 204.315 149.778 204.082C149.4 203.849 148.957 203.733 148.448 203.733C147.895 203.733 147.412 203.869 146.999 204.141C146.591 204.409 146.275 204.76 146.051 205.195C145.832 205.625 145.722 206.092 145.722 206.597V207.749C145.722 208.425 145.841 209 146.078 209.474C146.319 209.948 146.655 210.311 147.085 210.561C147.515 210.807 148.018 210.929 148.593 210.929C148.966 210.929 149.306 210.877 149.613 210.771C149.92 210.662 150.186 210.499 150.41 210.284C150.634 210.069 150.805 209.804 150.923 209.488L152.787 209.823C152.637 210.372 152.37 210.853 151.983 211.265C151.602 211.673 151.121 211.992 150.542 212.22C149.967 212.444 149.31 212.556 148.573 212.556ZM160.003 212.352V202.238H161.971V206.479H162.92L166.258 202.238H168.694L164.776 207.157L168.74 212.352H166.297L163.249 208.309H161.971V212.352H160.003ZM169.472 212.352L169.466 210.646H169.828C170.109 210.646 170.344 210.587 170.532 210.469C170.725 210.346 170.883 210.139 171.006 209.85C171.129 209.56 171.224 209.16 171.29 208.651C171.355 208.138 171.404 207.493 171.434 206.716L171.612 202.238H178.67V212.352H176.741V203.937H173.436L173.278 207.374C173.238 208.208 173.153 208.937 173.021 209.56C172.894 210.183 172.707 210.703 172.461 211.12C172.216 211.533 171.9 211.842 171.513 212.049C171.127 212.251 170.657 212.352 170.104 212.352H169.472ZM183.225 209.593L187.682 202.238H189.802V212.352H187.873V204.991L183.435 212.352H181.296V202.238H183.225V209.593ZM192.449 212.352V202.238H194.418V206.479H195.366L198.704 202.238H201.14L197.222 207.157L201.186 212.352H198.743L195.695 208.309H194.418V212.352H192.449ZM204.644 209.593L209.102 202.238H211.222V212.352H209.293V204.991L204.855 212.352H202.715V202.238H204.644V209.593Z" fill="black"/>
<g clip-path="url(#clip0_54_5755)">
<g clip-path="url(#clip1_54_5755)">
<g clip-path="url(#clip2_54_5755)">
<path d="M184 149.905L189.267 151.862C194.533 153.82 205.412 161.787 215.6 158.283C236.345 151.149 237.832 78.5083 248.366 82.8506C258.899 87.1928 255.288 172.476 278.8 173.847C292.817 174.664 299.867 155.284 310.4 143.978C320.933 132.672 331.467 126.269 342 138.516C352.533 150.763 359.936 142.536 370.469 143.978C381.002 145.42 392.376 185.944 405.2 140.259C418.024 94.5733 420.968 90.0402 431.501 90.5801C442.035 91.1199 454.606 106.296 468.4 141.161C482.194 176.027 485.308 177.463 500 176.925C515.59 176.354 521.067 141.493 531.6 134.195C542.133 126.898 552.667 144.064 563.2 139.927C573.733 135.789 584.267 110.348 594.8 114.053C605.333 117.758 615.867 150.609 626.4 146.125C636.933 141.64 647.467 99.82 652.733 78.91L658 58" stroke="#8189A1" stroke-width="6.4833" stroke-linecap="round"/>
</g>
<path d="M198.122 152.318L193 150.351V330H623.267V146.552C613.022 151.058 602.778 118.048 592.533 114.325C582.289 110.602 572.044 136.167 561.8 140.324C551.556 144.482 541.311 127.232 531.067 134.565C520.822 141.898 515.496 176.928 500.333 177.502C486.044 178.042 483.016 176.599 469.6 141.565C456.184 106.53 445.823 94.8034 435.579 94.2609C425.334 93.7185 420.605 94.7507 408.133 140.658C395.661 186.565 382.811 150.596 372.567 149.147C362.323 147.698 356.911 151.213 346.667 138.907C336.422 126.6 326.178 133.034 315.933 144.395C305.689 155.756 298.833 175.23 285.2 174.409C262.333 173.031 265.845 87.3344 255.6 82.9711C245.356 78.6078 243.909 151.6 223.733 158.769C213.824 162.29 203.244 154.284 198.122 152.318Z" fill="#8189A1" fill-opacity="0.2"/>
</g>
<rect x="352.271" y="182.625" width="27.811" height="33.3407" fill="#27C58B"/>
<rect x="352.271" y="182.625" width="27.811" height="22.6717" fill="#6695E2"/>
<rect x="352.271" y="171.953" width="27.811" height="44.0097" fill="#27C58B"/>
<rect x="352.271" y="149.281" width="27.811" height="33.3407" fill="#4F5A7C"/>
<rect x="352.271" y="154.16" width="27.811" height="29.3561" fill="#6695E2"/>
<path d="M352.271 98.5399C352.271 93.42 356.422 89.2695 361.542 89.2695H370.812C375.932 89.2695 380.082 93.42 380.082 98.5399V149.283H352.271V98.5399Z" fill="#E26666"/>
<rect x="398.625" y="180.43" width="27.811" height="26.4842" fill="#27C58B"/>
<rect x="398.625" y="193.762" width="27.811" height="22.2" fill="#27C58B"/>
<rect x="398.625" y="171.156" width="27.811" height="44.0097" fill="#27C58B"/>
<rect x="398.625" y="149.527" width="27.811" height="21.6308" fill="#6695E2"/>
<rect x="398.625" y="128.332" width="27.811" height="21.1874" fill="#4F5A7C"/>
<path d="M398.625 84.6336C398.625 79.5138 402.775 75.3633 407.895 75.3633H417.166C422.286 75.3633 426.436 79.5138 426.436 84.6336V138.711H398.625V84.6336Z" fill="#E26666"/>
<rect x="444.977" y="171.156" width="27.811" height="44.8066" fill="#27C58B"/>
<rect x="444.977" y="147.98" width="27.811" height="23.1758" fill="#6695E2"/>
<rect x="444.977" y="148.469" width="27.811" height="6.5055" fill="#4F5A7C"/>
<path d="M444.977 147.981C444.977 142.861 449.127 138.711 454.247 138.711H463.517C468.637 138.711 472.788 142.861 472.788 147.981V150.096H444.977V147.981Z" fill="#E26666"/>
<g clip-path="url(#clip3_54_5755)">
<rect x="491.33" y="163.43" width="27.811" height="52.5319" fill="#27C58B"/>
<path d="M491.33 147.981C491.33 142.861 495.481 138.711 500.6 138.711H509.871C514.991 138.711 519.141 142.861 519.141 147.981V150.096H491.33V147.981Z" fill="#E26666"/>
<rect x="491.33" y="143.348" width="27.811" height="9.27033" fill="#4F5A7C"/>
<rect x="491.33" y="147.98" width="27.811" height="15.4506" fill="#6695E2"/>
</g>
<g clip-path="url(#clip4_54_5755)">
<rect x="537.682" y="143.344" width="27.811" height="72.6176" fill="#27C58B"/>
<path d="M537.684 127.895C537.684 122.775 541.834 118.625 546.954 118.625H556.224C561.344 118.625 565.495 122.775 565.495 127.895V130.01H537.684V127.895Z" fill="#E26666"/>
<rect x="537.684" y="118.625" width="27.811" height="13.9055" fill="#4F5A7C"/>
<rect x="537.682" y="127.898" width="27.811" height="15.4506" fill="#6695E2"/>
</g>
<g clip-path="url(#clip5_54_5755)">
<rect x="584.031" y="166.52" width="27.811" height="61.8022" fill="#27C58B"/>
<path d="M584.031 140.255C584.031 135.135 588.182 130.984 593.302 130.984H602.572C607.692 130.984 611.842 135.135 611.842 140.255V142.369H584.031V140.255Z" fill="#E26666"/>
<rect x="584.031" y="130.984" width="27.811" height="13.9055" fill="#4F5A7C"/>
<path d="M584.031 140.255C584.031 135.135 588.182 130.984 593.302 130.984H602.572C607.692 130.984 611.842 135.135 611.842 140.255V142.369H584.031V140.255Z" fill="#E26666"/>
<rect x="584.031" y="144.891" width="27.811" height="21.6308" fill="#6695E2"/>
</g>
</g>
<path d="M52.6846 36.3241H47.8782C47.7904 35.7023 47.6112 35.1499 47.3405 34.6671C47.0698 34.177 46.7223 33.76 46.298 33.4161C45.8737 33.0723 45.3836 32.8089 44.8276 32.626C44.2789 32.4432 43.6827 32.3517 43.0389 32.3517C41.8758 32.3517 40.8625 32.6407 39.9993 33.2186C39.1361 33.7892 38.4667 34.6232 37.9912 35.7205C37.5157 36.8106 37.2779 38.1347 37.2779 39.6929C37.2779 41.295 37.5157 42.6411 37.9912 43.7311C38.474 44.8212 39.147 45.6442 40.0103 46.2001C40.8735 46.7561 41.8721 47.0341 43.006 47.0341C43.6425 47.0341 44.2314 46.95 44.7727 46.7817C45.3214 46.6135 45.8079 46.3684 46.2322 46.0465C46.6565 45.7173 47.0076 45.3186 47.2856 44.8504C47.5709 44.3822 47.7685 43.8482 47.8782 43.2483L52.6846 43.2702C52.5602 44.3018 52.2493 45.2967 51.7518 46.255C51.2617 47.206 50.5996 48.0583 49.7656 48.8118C48.939 49.558 47.9514 50.1506 46.8028 50.5895C45.6616 51.0211 44.3704 51.2369 42.9292 51.2369C40.9247 51.2369 39.1324 50.7834 37.5522 49.8762C35.9794 48.9691 34.7357 47.656 33.8213 45.9368C32.9141 44.2176 32.4606 42.1363 32.4606 39.6929C32.4606 37.2422 32.9215 35.1572 33.8432 33.4381C34.765 31.7189 36.016 30.4094 37.5961 29.5096C39.1763 28.6025 40.954 28.1489 42.9292 28.1489C44.2314 28.1489 45.4384 28.3318 46.5504 28.6976C47.6697 29.0633 48.661 29.5974 49.5242 30.2997C50.3875 30.9947 51.0898 31.8469 51.6311 32.8565C52.1798 33.866 52.5309 35.0219 52.6846 36.3241ZM55.1261 37.7506V34.0745H70.4011V37.7506H64.9693V50.9297H60.5141V37.7506H55.1261ZM77.4378 51.2479C76.3624 51.2479 75.4041 51.0614 74.5628 50.6883C73.7215 50.3079 73.0558 49.7482 72.5656 49.0093C72.0828 48.2631 71.8414 47.3341 71.8414 46.2221C71.8414 45.2857 72.0133 44.4993 72.3571 43.8628C72.701 43.2264 73.1692 42.7143 73.7617 42.3265C74.3543 41.9388 75.0273 41.6462 75.7808 41.4487C76.5417 41.2511 77.3391 41.1121 78.173 41.0317C79.1533 40.9293 79.9434 40.8342 80.5433 40.7464C81.1432 40.6513 81.5784 40.5123 81.8491 40.3294C82.1198 40.1465 82.2551 39.8758 82.2551 39.5173V39.4515C82.2551 38.7565 82.0357 38.2188 81.5967 37.8384C81.1651 37.458 80.5506 37.2678 79.7532 37.2678C78.9119 37.2678 78.2425 37.4543 77.7451 37.8274C77.2476 38.1932 76.9184 38.6541 76.7575 39.2101L72.4339 38.8589C72.6534 37.8348 73.085 36.9496 73.7288 36.2034C74.3726 35.4499 75.2029 34.8719 76.2198 34.4696C77.244 34.0599 78.4291 33.8551 79.7752 33.8551C80.7115 33.8551 81.6077 33.9648 82.4636 34.1843C83.3269 34.4037 84.0914 34.7439 84.7571 35.2048C85.4301 35.6657 85.9605 36.2582 86.3482 36.9825C86.7359 37.6994 86.9298 38.559 86.9298 39.5612V50.9297H82.4966V48.5924H82.3649C82.0942 49.1191 81.7321 49.5836 81.2785 49.986C80.8249 50.381 80.2799 50.6919 79.6435 50.9187C79.007 51.1382 78.2718 51.2479 77.4378 51.2479ZM78.7766 48.0217C79.4642 48.0217 80.0714 47.8864 80.5982 47.6157C81.1249 47.3377 81.5382 46.9646 81.8382 46.4964C82.1381 46.0282 82.2881 45.4979 82.2881 44.9053V43.1166C82.1417 43.2117 81.9406 43.2995 81.6845 43.38C81.4358 43.4531 81.1541 43.5226 80.8396 43.5885C80.525 43.647 80.2104 43.7019 79.8959 43.7531C79.5813 43.797 79.296 43.8372 79.0399 43.8738C78.4913 43.9543 78.0121 44.0823 77.6024 44.2579C77.1927 44.4334 76.8745 44.6712 76.6477 44.9711C76.4209 45.2638 76.3076 45.6295 76.3076 46.0685C76.3076 46.7049 76.538 47.1914 76.9989 47.5279C77.4671 47.8571 78.0596 48.0217 78.7766 48.0217ZM88.8639 37.7506V34.0745H104.139V37.7506H98.707V50.9297H94.2518V37.7506H88.8639ZM111.439 44.7626L117.507 34.0745H122.116V50.9297H117.661V40.2087L111.614 50.9297H106.973V34.0745H111.439V44.7626ZM133.479 51.2589C131.753 51.2589 130.267 50.8931 129.024 50.1615C127.787 49.4227 126.836 48.3985 126.171 47.089C125.512 45.7795 125.183 44.2725 125.183 42.568C125.183 40.8415 125.516 39.3271 126.182 38.025C126.855 36.7155 127.809 35.6949 129.046 34.9634C130.282 34.2245 131.753 33.8551 133.457 33.8551C134.927 33.8551 136.215 34.1221 137.32 34.6561C138.424 35.1902 139.299 35.94 139.942 36.9057C140.586 37.8713 140.941 39.0053 141.007 40.3074H136.595C136.471 39.4661 136.142 38.7894 135.608 38.2774C135.081 37.7579 134.39 37.4982 133.534 37.4982C132.81 37.4982 132.177 37.6958 131.635 38.0908C131.101 38.4785 130.684 39.0455 130.385 39.7917C130.085 40.5379 129.935 41.4413 129.935 42.5021C129.935 43.5775 130.081 44.492 130.374 45.2455C130.673 45.999 131.094 46.5732 131.635 46.9683C132.177 47.3633 132.81 47.5609 133.534 47.5609C134.068 47.5609 134.547 47.4511 134.971 47.2316C135.403 47.0122 135.758 46.694 136.036 46.277C136.321 45.8527 136.508 45.3442 136.595 44.7517H141.007C140.934 46.0392 140.582 47.1731 139.953 48.1534C139.331 49.1264 138.472 49.8872 137.375 50.4359C136.277 50.9846 134.979 51.2589 133.479 51.2589ZM142.85 37.7506V34.0745H158.125V37.7506H152.693V50.9297H148.238V37.7506H142.85ZM165.425 44.7626L171.494 34.0745H176.102V50.9297H171.647V40.2087L165.601 50.9297H160.959V34.0745H165.425V44.7626ZM179.85 50.9297V34.0745H184.525V40.6147H185.841L190.428 34.0745H195.915L189.956 42.4363L195.981 50.9297H190.428L186.269 44.9492H184.525V50.9297H179.85ZM202.762 51.2479C201.687 51.2479 200.729 51.0614 199.887 50.6883C199.046 50.3079 198.38 49.7482 197.89 49.0093C197.407 48.2631 197.166 47.3341 197.166 46.2221C197.166 45.2857 197.338 44.4993 197.682 43.8628C198.025 43.2264 198.494 42.7143 199.086 42.3265C199.679 41.9388 200.352 41.6462 201.105 41.4487C201.866 41.2511 202.664 41.1121 203.498 41.0317C204.478 40.9293 205.268 40.8342 205.868 40.7464C206.468 40.6513 206.903 40.5123 207.174 40.3294C207.444 40.1465 207.58 39.8758 207.58 39.5173V39.4515C207.58 38.7565 207.36 38.2188 206.921 37.8384C206.49 37.458 205.875 37.2678 205.078 37.2678C204.236 37.2678 203.567 37.4543 203.07 37.8274C202.572 38.1932 202.243 38.6541 202.082 39.2101L197.758 38.8589C197.978 37.8348 198.41 36.9496 199.053 36.2034C199.697 35.4499 200.527 34.8719 201.544 34.4696C202.568 34.0599 203.754 33.8551 205.1 33.8551C206.036 33.8551 206.932 33.9648 207.788 34.1843C208.651 34.4037 209.416 34.7439 210.082 35.2048C210.755 35.6657 211.285 36.2582 211.673 36.9825C212.06 37.6994 212.254 38.559 212.254 39.5612V50.9297H207.821V48.5924H207.689C207.419 49.1191 207.057 49.5836 206.603 49.986C206.149 50.381 205.604 50.6919 204.968 50.9187C204.332 51.1382 203.596 51.2479 202.762 51.2479ZM204.101 48.0217C204.789 48.0217 205.396 47.8864 205.923 47.6157C206.449 47.3377 206.863 46.9646 207.163 46.4964C207.463 46.0282 207.613 45.4979 207.613 44.9053V43.1166C207.466 43.2117 207.265 43.2995 207.009 43.38C206.76 43.4531 206.479 43.5226 206.164 43.5885C205.85 43.647 205.535 43.7019 205.22 43.7531C204.906 43.797 204.621 43.8372 204.364 43.8738C203.816 43.9543 203.337 44.0823 202.927 44.2579C202.517 44.4334 202.199 44.6712 201.972 44.9711C201.745 45.2638 201.632 45.6295 201.632 46.0685C201.632 46.7049 201.863 47.1914 202.323 47.5279C202.792 47.8571 203.384 48.0217 204.101 48.0217ZM223.033 50.9297V34.0745H230.221C232.298 34.0745 233.941 34.4696 235.148 35.2597C236.355 36.0497 236.958 37.1727 236.958 38.6285C236.958 39.5429 236.618 40.3038 235.938 40.911C235.257 41.5182 234.314 41.9278 233.107 42.14C234.116 42.2131 234.976 42.4436 235.685 42.8313C236.402 43.2117 236.947 43.7055 237.32 44.3127C237.701 44.9199 237.891 45.593 237.891 46.3318C237.891 47.2902 237.635 48.1132 237.123 48.8008C236.618 49.4885 235.876 50.0152 234.895 50.381C233.922 50.7468 232.733 50.9297 231.329 50.9297H223.033ZM227.389 47.4292H231.329C231.98 47.4292 232.488 47.2755 232.854 46.9683C233.227 46.6537 233.414 46.2258 233.414 45.6844C233.414 45.0845 233.227 44.6127 232.854 44.2688C232.488 43.925 231.98 43.7531 231.329 43.7531H227.389V47.4292ZM227.389 41.0097H230.319C230.788 41.0097 231.186 40.9439 231.515 40.8122C231.852 40.6732 232.108 40.4757 232.284 40.2196C232.466 39.9636 232.558 39.66 232.558 39.3089C232.558 38.7894 232.349 38.3834 231.932 38.0908C231.515 37.7982 230.945 37.6519 230.221 37.6519H227.389V41.0097ZM245.303 44.7626L251.372 34.0745H255.981V50.9297H251.525V40.2087L245.479 50.9297H240.837V34.0745H245.303V44.7626ZM258.861 46.1563H263.393C263.415 46.7122 263.664 47.1512 264.139 47.4731C264.615 47.795 265.229 47.9559 265.983 47.9559C266.744 47.9559 267.384 47.7803 267.903 47.4292C268.423 47.0707 268.682 46.5586 268.682 45.8929C268.682 45.4832 268.58 45.1284 268.375 44.8285C268.17 44.5212 267.885 44.2798 267.519 44.1042C267.153 43.9287 266.729 43.8409 266.246 43.8409H263.821V40.7793H266.246C266.97 40.7793 267.526 40.611 267.914 40.2745C268.309 39.938 268.507 39.5173 268.507 39.0126C268.507 38.442 268.302 37.9847 267.892 37.6409C267.49 37.2897 266.945 37.1142 266.257 37.1142C265.562 37.1142 264.984 37.2715 264.523 37.586C264.07 37.8933 263.836 38.2956 263.821 38.7931H259.311C259.326 37.7835 259.629 36.9093 260.222 36.1705C260.822 35.4316 261.626 34.861 262.636 34.4586C263.653 34.0562 264.79 33.8551 266.049 33.8551C267.424 33.8551 268.609 34.0489 269.604 34.4367C270.606 34.8171 271.374 35.3621 271.909 36.0717C272.45 36.7813 272.721 37.6263 272.721 38.6066C272.721 39.4991 272.428 40.2452 271.843 40.8451C271.257 41.445 270.438 41.873 269.385 42.129V42.3046C270.08 42.3485 270.709 42.535 271.272 42.8642C271.835 43.1934 272.285 43.647 272.622 44.2249C272.958 44.7956 273.127 45.4722 273.127 46.255C273.127 47.3011 272.819 48.1973 272.205 48.9435C271.598 49.6897 270.756 50.264 269.681 50.6663C268.613 51.0614 267.387 51.2589 266.005 51.2589C264.659 51.2589 263.452 51.065 262.384 50.6773C261.323 50.2823 260.478 49.7043 259.849 48.9435C259.227 48.1827 258.898 47.2536 258.861 46.1563ZM280.46 44.7626L286.528 34.0745H291.137V50.9297H286.681V40.2087L280.635 50.9297H275.993V34.0745H280.46V44.7626ZM293.191 37.7506V34.0745H308.466V37.7506H303.035V50.9297H298.579V37.7506H293.191ZM318.312 51.2589C316.608 51.2589 315.134 50.8968 313.89 50.1725C312.654 49.441 311.699 48.4241 311.026 47.1219C310.353 45.8124 310.016 44.2944 310.016 42.568C310.016 40.8268 310.353 39.3052 311.026 38.003C311.699 36.6935 312.654 35.6767 313.89 34.9524C315.134 34.2208 316.608 33.8551 318.312 33.8551C320.017 33.8551 321.487 34.2208 322.724 34.9524C323.967 35.6767 324.926 36.6935 325.599 38.003C326.272 39.3052 326.608 40.8268 326.608 42.568C326.608 44.2944 326.272 45.8124 325.599 47.1219C324.926 48.4241 323.967 49.441 322.724 50.1725C321.487 50.8968 320.017 51.2589 318.312 51.2589ZM318.334 47.6377C319.11 47.6377 319.757 47.4182 320.277 46.9793C320.796 46.533 321.187 45.9258 321.451 45.1577C321.721 44.3895 321.857 43.5153 321.857 42.535C321.857 41.5547 321.721 40.6805 321.451 39.9124C321.187 39.1442 320.796 38.5371 320.277 38.0908C319.757 37.6445 319.11 37.4214 318.334 37.4214C317.551 37.4214 316.893 37.6445 316.359 38.0908C315.832 38.5371 315.434 39.1442 315.163 39.9124C314.9 40.6805 314.768 41.5547 314.768 42.535C314.768 43.5153 314.9 44.3895 315.163 45.1577C315.434 45.9258 315.832 46.533 316.359 46.9793C316.893 47.4182 317.551 47.6377 318.334 47.6377ZM329.648 50.9297V34.0745H336.835C338.913 34.0745 340.555 34.4696 341.762 35.2597C342.97 36.0497 343.573 37.1727 343.573 38.6285C343.573 39.5429 343.233 40.3038 342.553 40.911C341.872 41.5182 340.928 41.9278 339.721 42.14C340.731 42.2131 341.591 42.4436 342.3 42.8313C343.017 43.2117 343.562 43.7055 343.935 44.3127C344.316 44.9199 344.506 45.593 344.506 46.3318C344.506 47.2902 344.25 48.1132 343.738 48.8008C343.233 49.4885 342.49 50.0152 341.51 50.381C340.537 50.7468 339.348 50.9297 337.944 50.9297H329.648ZM334.004 47.4292H337.944C338.595 47.4292 339.103 47.2755 339.469 46.9683C339.842 46.6537 340.029 46.2258 340.029 45.6844C340.029 45.0845 339.842 44.6127 339.469 44.2688C339.103 43.925 338.595 43.7531 337.944 43.7531H334.004V47.4292ZM334.004 41.0097H336.934C337.402 41.0097 337.801 40.9439 338.13 40.8122C338.467 40.6732 338.723 40.4757 338.898 40.2196C339.081 39.9636 339.173 39.66 339.173 39.3089C339.173 38.7894 338.964 38.3834 338.547 38.0908C338.13 37.7982 337.56 37.6519 336.835 37.6519H334.004V41.0097Z" fill="#070707"/>
<path d="M394.223 227.61V241.094H392.182V229.651H392.103L388.877 231.758V229.809L392.242 227.61H394.223ZM397.588 238.46V236.814L403.415 227.61H404.712V230.033H403.889L399.721 236.63V236.735H407.708V238.46H397.588ZM403.981 241.094V237.96L403.994 237.209V227.61H405.923V241.094H403.981ZM410.818 241.219C410.459 241.219 410.149 241.092 409.89 240.837C409.631 240.578 409.502 240.266 409.502 239.902C409.502 239.542 409.631 239.235 409.89 238.98C410.149 238.721 410.459 238.592 410.818 238.592C411.178 238.592 411.488 238.721 411.747 238.98C412.006 239.235 412.135 239.542 412.135 239.902C412.135 240.143 412.074 240.365 411.951 240.567C411.832 240.765 411.674 240.923 411.477 241.041C411.279 241.16 411.06 241.219 410.818 241.219ZM418.951 241.318C417.911 241.313 417.022 241.039 416.285 240.495C415.547 239.95 414.983 239.158 414.593 238.118C414.202 237.077 414.007 235.824 414.007 234.358C414.007 232.897 414.202 231.648 414.593 230.612C414.988 229.576 415.554 228.786 416.291 228.242C417.033 227.697 417.92 227.425 418.951 227.425C419.983 227.425 420.867 227.7 421.605 228.248C422.342 228.793 422.906 229.583 423.297 230.619C423.692 231.65 423.889 232.897 423.889 234.358C423.889 235.829 423.694 237.084 423.303 238.124C422.913 239.16 422.349 239.953 421.611 240.501C420.874 241.045 419.987 241.318 418.951 241.318ZM418.951 239.56C419.864 239.56 420.578 239.114 421.091 238.223C421.609 237.332 421.868 236.044 421.868 234.358C421.868 233.239 421.75 232.293 421.513 231.521C421.28 230.744 420.944 230.155 420.505 229.756C420.071 229.352 419.553 229.15 418.951 229.15C418.043 229.15 417.33 229.598 416.812 230.493C416.294 231.389 416.032 232.677 416.028 234.358C416.028 235.482 416.144 236.432 416.377 237.209C416.614 237.982 416.95 238.568 417.384 238.967C417.819 239.362 418.341 239.56 418.951 239.56ZM430.933 241.278C430.331 241.269 429.739 241.16 429.155 240.949C428.576 240.738 428.049 240.387 427.575 239.895C427.101 239.404 426.721 238.743 426.436 237.914C426.155 237.084 426.014 236.048 426.014 234.806C426.014 233.63 426.131 232.585 426.363 231.672C426.6 230.759 426.941 229.989 427.384 229.361C427.827 228.729 428.363 228.248 428.99 227.919C429.618 227.59 430.323 227.425 431.104 227.425C431.907 227.425 432.62 227.583 433.244 227.899C433.867 228.215 434.372 228.652 434.758 229.21C435.149 229.767 435.397 230.401 435.502 231.112H433.494C433.358 230.551 433.088 230.092 432.684 229.736C432.28 229.381 431.754 229.203 431.104 229.203C430.116 229.203 429.346 229.633 428.793 230.493C428.244 231.354 427.968 232.55 427.963 234.082H428.062C428.295 233.7 428.58 233.375 428.918 233.107C429.26 232.835 429.642 232.627 430.064 232.482C430.489 232.333 430.937 232.258 431.407 232.258C432.188 232.258 432.895 232.449 433.527 232.831C434.163 233.208 434.67 233.731 435.048 234.398C435.425 235.065 435.614 235.829 435.614 236.689C435.614 237.549 435.419 238.328 435.028 239.026C434.642 239.724 434.097 240.277 433.395 240.686C432.693 241.089 431.872 241.287 430.933 241.278ZM430.926 239.566C431.444 239.566 431.907 239.439 432.315 239.184C432.724 238.93 433.046 238.587 433.283 238.157C433.52 237.727 433.639 237.246 433.639 236.715C433.639 236.197 433.522 235.726 433.29 235.3C433.062 234.874 432.746 234.536 432.342 234.286C431.942 234.036 431.486 233.911 430.972 233.911C430.582 233.911 430.219 233.985 429.886 234.134C429.557 234.284 429.267 234.49 429.017 234.753C428.767 235.017 428.569 235.32 428.424 235.662C428.284 236 428.214 236.358 428.214 236.735C428.214 237.24 428.33 237.707 428.562 238.138C428.8 238.568 429.122 238.914 429.53 239.178C429.943 239.437 430.408 239.566 430.926 239.566Z" fill="#9F9F9F"/>
<path d="M486.927 227.61V241.094H484.885V229.651H484.806L481.58 231.758V229.809L484.945 227.61H486.927ZM495.282 241.278C494.68 241.269 494.088 241.16 493.504 240.949C492.925 240.738 492.398 240.387 491.924 239.895C491.45 239.404 491.07 238.743 490.785 237.914C490.504 237.084 490.363 236.048 490.363 234.806C490.363 233.63 490.48 232.585 490.712 231.672C490.949 230.759 491.29 229.989 491.733 229.361C492.176 228.729 492.712 228.248 493.339 227.919C493.967 227.59 494.672 227.425 495.453 227.425C496.256 227.425 496.969 227.583 497.593 227.899C498.216 228.215 498.721 228.652 499.107 229.21C499.498 229.767 499.746 230.401 499.851 231.112H497.843C497.707 230.551 497.437 230.092 497.033 229.736C496.629 229.381 496.102 229.203 495.453 229.203C494.465 229.203 493.695 229.633 493.142 230.493C492.593 231.354 492.317 232.55 492.312 234.082H492.411C492.644 233.7 492.929 233.375 493.267 233.107C493.609 232.835 493.991 232.627 494.413 232.482C494.838 232.333 495.286 232.258 495.756 232.258C496.537 232.258 497.244 232.449 497.876 232.831C498.512 233.208 499.019 233.731 499.397 234.398C499.774 235.065 499.963 235.829 499.963 236.689C499.963 237.549 499.768 238.328 499.377 239.026C498.991 239.724 498.446 240.277 497.744 240.686C497.042 241.089 496.221 241.287 495.282 241.278ZM495.275 239.566C495.793 239.566 496.256 239.439 496.664 239.184C497.073 238.93 497.395 238.587 497.632 238.157C497.869 237.727 497.988 237.246 497.988 236.715C497.988 236.197 497.871 235.726 497.639 235.3C497.411 234.874 497.094 234.536 496.691 234.286C496.291 234.036 495.835 233.911 495.321 233.911C494.931 233.911 494.568 233.985 494.235 234.134C493.906 234.284 493.616 234.49 493.366 234.753C493.116 235.017 492.918 235.32 492.773 235.662C492.633 236 492.562 236.358 492.562 236.735C492.562 237.24 492.679 237.707 492.911 238.138C493.148 238.568 493.471 238.914 493.879 239.178C494.292 239.437 494.757 239.566 495.275 239.566ZM503.069 241.219C502.709 241.219 502.4 241.092 502.141 240.837C501.882 240.578 501.752 240.266 501.752 239.902C501.752 239.542 501.882 239.235 502.141 238.98C502.4 238.721 502.709 238.592 503.069 238.592C503.429 238.592 503.738 238.721 503.997 238.98C504.256 239.235 504.386 239.542 504.386 239.902C504.386 240.143 504.324 240.365 504.201 240.567C504.083 240.765 503.925 240.923 503.727 241.041C503.53 241.16 503.31 241.219 503.069 241.219ZM511.202 241.318C510.162 241.313 509.273 241.039 508.535 240.495C507.798 239.95 507.234 239.158 506.843 238.118C506.453 237.077 506.257 235.824 506.257 234.358C506.257 232.897 506.453 231.648 506.843 230.612C507.238 229.576 507.805 228.786 508.542 228.242C509.284 227.697 510.17 227.425 511.202 227.425C512.233 227.425 513.118 227.7 513.855 228.248C514.593 228.793 515.157 229.583 515.547 230.619C515.942 231.65 516.14 232.897 516.14 234.358C516.14 235.829 515.945 237.084 515.554 238.124C515.163 239.16 514.599 239.953 513.862 240.501C513.124 241.045 512.238 241.318 511.202 241.318ZM511.202 239.56C512.115 239.56 512.828 239.114 513.342 238.223C513.86 237.332 514.119 236.044 514.119 234.358C514.119 233.239 514 232.293 513.763 231.521C513.53 230.744 513.195 230.155 512.756 229.756C512.321 229.352 511.803 229.15 511.202 229.15C510.293 229.15 509.58 229.598 509.062 230.493C508.544 231.389 508.283 232.677 508.279 234.358C508.279 235.482 508.395 236.432 508.628 237.209C508.865 237.982 509.2 238.568 509.635 238.967C510.069 239.362 510.592 239.56 511.202 239.56ZM523.183 241.278C522.582 241.269 521.989 241.16 521.406 240.949C520.826 240.738 520.299 240.387 519.825 239.895C519.351 239.404 518.972 238.743 518.686 237.914C518.405 237.084 518.265 236.048 518.265 234.806C518.265 233.63 518.381 232.585 518.614 231.672C518.851 230.759 519.191 229.989 519.634 229.361C520.078 228.729 520.613 228.248 521.241 227.919C521.869 227.59 522.573 227.425 523.354 227.425C524.158 227.425 524.871 227.583 525.494 227.899C526.117 228.215 526.622 228.652 527.009 229.21C527.399 229.767 527.647 230.401 527.753 231.112H525.744C525.608 230.551 525.338 230.092 524.935 229.736C524.531 229.381 524.004 229.203 523.354 229.203C522.367 229.203 521.596 229.633 521.043 230.493C520.495 231.354 520.218 232.55 520.214 234.082H520.313C520.545 233.7 520.831 233.375 521.168 233.107C521.511 232.835 521.893 232.627 522.314 232.482C522.74 232.333 523.188 232.258 523.657 232.258C524.439 232.258 525.145 232.449 525.777 232.831C526.414 233.208 526.921 233.731 527.298 234.398C527.676 235.065 527.864 235.829 527.864 236.689C527.864 237.549 527.669 238.328 527.278 239.026C526.892 239.724 526.348 240.277 525.646 240.686C524.943 241.089 524.123 241.287 523.183 241.278ZM523.177 239.566C523.695 239.566 524.158 239.439 524.566 239.184C524.974 238.93 525.297 238.587 525.534 238.157C525.771 237.727 525.889 237.246 525.889 236.715C525.889 236.197 525.773 235.726 525.54 235.3C525.312 234.874 524.996 234.536 524.592 234.286C524.193 234.036 523.736 233.911 523.223 233.911C522.832 233.911 522.47 233.985 522.136 234.134C521.807 234.284 521.517 234.49 521.267 234.753C521.017 235.017 520.82 235.32 520.675 235.662C520.534 236 520.464 236.358 520.464 236.735C520.464 237.24 520.58 237.707 520.813 238.138C521.05 238.568 521.373 238.914 521.781 239.178C522.193 239.437 522.659 239.566 523.177 239.566Z" fill="#9F9F9F"/>
<path d="M583.63 227.61V241.094H581.589V229.651H581.51L578.284 231.758V229.809L581.648 227.61H583.63ZM591.834 241.278C590.89 241.278 590.056 241.116 589.332 240.791C588.612 240.466 588.048 240.018 587.64 239.448C587.232 238.877 587.03 238.227 587.034 237.499C587.03 236.928 587.146 236.404 587.383 235.925C587.624 235.442 587.951 235.041 588.364 234.72C588.777 234.396 589.237 234.189 589.747 234.101V234.022C589.075 233.86 588.537 233.5 588.134 232.943C587.73 232.385 587.53 231.744 587.534 231.02C587.53 230.331 587.712 229.717 588.081 229.177C588.454 228.632 588.965 228.204 589.615 227.893C590.265 227.581 591.004 227.425 591.834 227.425C592.655 227.425 593.388 227.583 594.033 227.899C594.682 228.211 595.194 228.639 595.567 229.183C595.94 229.723 596.129 230.335 596.133 231.02C596.129 231.744 595.922 232.385 595.514 232.943C595.106 233.5 594.575 233.86 593.921 234.022V234.101C594.426 234.189 594.88 234.396 595.284 234.72C595.692 235.041 596.017 235.442 596.258 235.925C596.504 236.404 596.629 236.928 596.634 237.499C596.629 238.227 596.423 238.877 596.015 239.448C595.606 240.018 595.04 240.466 594.316 240.791C593.596 241.116 592.769 241.278 591.834 241.278ZM591.834 239.612C592.391 239.612 592.874 239.52 593.282 239.336C593.69 239.147 594.007 238.886 594.23 238.552C594.454 238.214 594.568 237.819 594.573 237.367C594.568 236.898 594.445 236.483 594.204 236.123C593.967 235.763 593.644 235.48 593.236 235.273C592.828 235.067 592.361 234.964 591.834 234.964C591.303 234.964 590.831 235.067 590.418 235.273C590.006 235.48 589.681 235.763 589.444 236.123C589.207 236.483 589.09 236.898 589.095 237.367C589.09 237.819 589.198 238.214 589.417 238.552C589.641 238.886 589.96 239.147 590.372 239.336C590.785 239.52 591.272 239.612 591.834 239.612ZM591.834 233.338C592.282 233.338 592.679 233.248 593.026 233.068C593.372 232.888 593.644 232.638 593.842 232.317C594.044 231.997 594.147 231.622 594.151 231.191C594.147 230.77 594.046 230.401 593.849 230.085C593.655 229.769 593.385 229.526 593.039 229.354C592.692 229.179 592.29 229.091 591.834 229.091C591.369 229.091 590.96 229.179 590.609 229.354C590.262 229.526 589.992 229.769 589.799 230.085C589.606 230.401 589.512 230.77 589.516 231.191C589.512 231.622 589.608 231.997 589.806 232.317C590.003 232.638 590.276 232.888 590.622 233.068C590.973 233.248 591.377 233.338 591.834 233.338ZM599.917 241.219C599.557 241.219 599.248 241.092 598.989 240.837C598.73 240.578 598.601 240.266 598.601 239.902C598.601 239.542 598.73 239.235 598.989 238.98C599.248 238.721 599.557 238.592 599.917 238.592C600.277 238.592 600.587 238.721 600.846 238.98C601.105 239.235 601.234 239.542 601.234 239.902C601.234 240.143 601.173 240.365 601.05 240.567C600.931 240.765 600.773 240.923 600.576 241.041C600.378 241.16 600.159 241.219 599.917 241.219ZM608.05 241.318C607.01 241.313 606.121 241.039 605.384 240.495C604.646 239.95 604.082 239.158 603.692 238.118C603.301 237.077 603.106 235.824 603.106 234.358C603.106 232.897 603.301 231.648 603.692 230.612C604.087 229.576 604.653 228.786 605.39 228.242C606.132 227.697 607.019 227.425 608.05 227.425C609.082 227.425 609.966 227.7 610.704 228.248C611.441 228.793 612.005 229.583 612.396 230.619C612.791 231.65 612.988 232.897 612.988 234.358C612.988 235.829 612.793 237.084 612.402 238.124C612.012 239.16 611.448 239.953 610.71 240.501C609.973 241.045 609.086 241.318 608.05 241.318ZM608.05 239.56C608.963 239.56 609.677 239.114 610.19 238.223C610.708 237.332 610.967 236.044 610.967 234.358C610.967 233.239 610.849 232.293 610.611 231.521C610.379 230.744 610.043 230.155 609.604 229.756C609.17 229.352 608.652 229.15 608.05 229.15C607.142 229.15 606.428 229.598 605.91 230.493C605.393 231.389 605.131 232.677 605.127 234.358C605.127 235.482 605.243 236.432 605.476 237.209C605.713 237.982 606.049 238.568 606.483 238.967C606.918 239.362 607.44 239.56 608.05 239.56ZM620.032 241.278C619.43 241.269 618.838 241.16 618.254 240.949C617.675 240.738 617.148 240.387 616.674 239.895C616.2 239.404 615.82 238.743 615.535 237.914C615.254 237.084 615.113 236.048 615.113 234.806C615.113 233.63 615.23 232.585 615.462 231.672C615.699 230.759 616.039 229.989 616.483 229.361C616.926 228.729 617.462 228.248 618.089 227.919C618.717 227.59 619.421 227.425 620.203 227.425C621.006 227.425 621.719 227.583 622.343 227.899C622.966 228.215 623.471 228.652 623.857 229.21C624.248 229.767 624.496 230.401 624.601 231.112H622.593C622.457 230.551 622.187 230.092 621.783 229.736C621.379 229.381 620.852 229.203 620.203 229.203C619.215 229.203 618.445 229.633 617.892 230.493C617.343 231.354 617.067 232.55 617.062 234.082H617.161C617.394 233.7 617.679 233.375 618.017 233.107C618.359 232.835 618.741 232.627 619.163 232.482C619.588 232.333 620.036 232.258 620.506 232.258C621.287 232.258 621.994 232.449 622.626 232.831C623.262 233.208 623.769 233.731 624.147 234.398C624.524 235.065 624.713 235.829 624.713 236.689C624.713 237.549 624.518 238.328 624.127 239.026C623.741 239.724 623.196 240.277 622.494 240.686C621.792 241.089 620.971 241.287 620.032 241.278ZM620.025 239.566C620.543 239.566 621.006 239.439 621.414 239.184C621.822 238.93 622.145 238.587 622.382 238.157C622.619 237.727 622.738 237.246 622.738 236.715C622.738 236.197 622.621 235.726 622.389 235.3C622.16 234.874 621.844 234.536 621.441 234.286C621.041 234.036 620.585 233.911 620.071 233.911C619.68 233.911 619.318 233.985 618.985 234.134C618.656 234.284 618.366 234.49 618.116 234.753C617.865 235.017 617.668 235.32 617.523 235.662C617.383 236 617.312 236.358 617.312 236.735C617.312 237.24 617.429 237.707 617.661 238.138C617.898 238.568 618.221 238.914 618.629 239.178C619.042 239.437 619.507 239.566 620.025 239.566Z" fill="#9F9F9F"/>
<defs>
<clipPath id="clip0_54_5755">
<rect width="307" height="151" fill="white" transform="translate(305 65)"/>
</clipPath>
<clipPath id="clip1_54_5755">
<rect width="539" height="178" fill="white" transform="translate(352 47)"/>
</clipPath>
<clipPath id="clip2_54_5755">
<rect width="591.756" height="118.969" fill="white" transform="translate(20.0898 61.4609)"/>
</clipPath>
<clipPath id="clip3_54_5755">
<path d="M491.33 149.526C491.33 143.553 496.172 138.711 502.145 138.711H508.326C514.299 138.711 519.141 143.553 519.141 149.526V215.964H491.33V149.526Z" fill="white"/>
</clipPath>
<clipPath id="clip4_54_5755">
<path d="M537.684 129.44C537.684 123.467 542.526 118.625 548.499 118.625H554.679C560.652 118.625 565.495 123.467 565.495 129.44V215.963H537.684V129.44Z" fill="white"/>
</clipPath>
<clipPath id="clip5_54_5755">
<path d="M584.031 141.8C584.031 135.827 588.873 130.984 594.847 130.984H601.027C607 130.984 611.842 135.827 611.842 141.8V215.962H584.031V141.8Z" fill="white"/>
</clipPath>
</defs>
</svg>
