<svg width="30" height="30" viewBox="0 0 30 30" fill="none" xmlns="http://www.w3.org/2000/svg">
<path fill-rule="evenodd" clip-rule="evenodd" d="M15.0326 0C11.2684 0 7.83923 1.24333 5.81006 2.25917C5.62673 2.35083 5.4559 2.44083 5.29673 2.5275C4.98173 2.69917 4.7134 2.85917 4.50006 3L6.8084 6.39833L7.89506 6.83083C12.1417 8.97333 17.8367 8.97333 22.0842 6.83083L23.3176 6.19083L25.5001 3C25.048 2.70505 24.5779 2.43869 24.0926 2.2025C22.0734 1.1975 18.7259 0 15.0334 0H15.0326ZM9.66423 3.84667C8.84683 3.69372 8.0395 3.49112 7.24673 3.24C9.14756 2.39583 11.9801 1.5 15.0326 1.5C17.1467 1.5 19.1459 1.93 20.7992 2.475C18.8617 2.7475 16.7942 3.21 14.8242 3.77917C13.2742 4.2275 11.4626 4.17917 9.66423 3.84667ZM22.9642 8.06667L22.7592 8.17C18.0876 10.5267 11.8909 10.5267 7.21923 8.17L7.02506 8.07167C0.00673199 15.7725 -5.3516 29.9975 15.0326 29.9975C35.4167 29.9975 29.9276 15.5067 22.9642 8.06667ZM14.1667 15C13.7247 15 13.3008 15.1756 12.9882 15.4882C12.6757 15.8007 12.5001 16.2246 12.5001 16.6667C12.5001 17.1087 12.6757 17.5326 12.9882 17.8452C13.3008 18.1577 13.7247 18.3333 14.1667 18.3333V15ZM15.8334 13.3333V12.5H14.1667V13.3333C13.2827 13.3333 12.4348 13.6845 11.8097 14.3096C11.1846 14.9348 10.8334 15.7826 10.8334 16.6667C10.8334 17.5507 11.1846 18.3986 11.8097 19.0237C12.4348 19.6488 13.2827 20 14.1667 20V23.3333C13.4417 23.3333 12.8242 22.8708 12.5942 22.2225C12.5601 22.1164 12.5051 22.0183 12.4323 21.9339C12.3596 21.8494 12.2707 21.7804 12.1709 21.731C12.071 21.6815 11.9623 21.6526 11.851 21.6459C11.7398 21.6392 11.6284 21.6549 11.5233 21.692C11.4183 21.7291 11.3217 21.7869 11.2394 21.862C11.1571 21.9371 11.0906 22.0279 11.044 22.1291C10.9974 22.2303 10.9716 22.3399 10.968 22.4512C10.9645 22.5626 10.9833 22.6735 11.0234 22.7775C11.2533 23.4275 11.679 23.9902 12.2419 24.3882C12.8048 24.7863 13.4773 25 14.1667 25V25.8333H15.8334V25C16.7175 25 17.5653 24.6488 18.1904 24.0237C18.8155 23.3986 19.1667 22.5507 19.1667 21.6667C19.1667 20.7826 18.8155 19.9348 18.1904 19.3096C17.5653 18.6845 16.7175 18.3333 15.8334 18.3333V15C16.5584 15 17.1759 15.4625 17.4059 16.1108C17.44 16.2169 17.4951 16.3151 17.5678 16.3995C17.6405 16.4839 17.7294 16.5529 17.8293 16.6023C17.9291 16.6518 18.0379 16.6807 18.1491 16.6874C18.2603 16.6941 18.3717 16.6785 18.4768 16.6414C18.5819 16.6042 18.6784 16.5464 18.7607 16.4713C18.8431 16.3963 18.9095 16.3054 18.9561 16.2042C19.0027 16.103 19.0286 15.9935 19.0321 15.8821C19.0356 15.7707 19.0168 15.6598 18.9767 15.5558C18.7469 14.9059 18.3212 14.3431 17.7582 13.9451C17.1953 13.5471 16.5228 13.3333 15.8334 13.3333ZM15.8334 20V23.3333C16.2754 23.3333 16.6993 23.1577 17.0119 22.8452C17.3245 22.5326 17.5001 22.1087 17.5001 21.6667C17.5001 21.2246 17.3245 20.8007 17.0119 20.4882C16.6993 20.1756 16.2754 20 15.8334 20Z" fill="#EFB503"/>
</svg>
