<svg width="28" height="36" viewBox="0 0 28 36" fill="none" xmlns="http://www.w3.org/2000/svg">
<path d="M3.99935 35.6665C3.08268 35.6665 2.29768 35.3398 1.64435 34.6865C0.991018 34.0332 0.664907 33.2487 0.666018 32.3332V15.6665C0.666018 14.7498 0.992685 13.9648 1.64602 13.3115C2.29935 12.6582 3.0838 12.3321 3.99935 12.3332H5.66602V8.99984C5.66602 6.69428 6.4788 4.72873 8.10435 3.10317C9.72991 1.47762 11.6949 0.665394 13.9994 0.666505C16.3049 0.666505 18.2705 1.47928 19.896 3.10484C21.5216 4.73039 22.3338 6.69539 22.3327 8.99984V12.3332H23.9994C24.916 12.3332 25.701 12.6598 26.3544 13.3132C27.0077 13.9665 27.3338 14.751 27.3327 15.6665V32.3332C27.3327 33.2498 27.006 34.0348 26.3527 34.6882C25.6994 35.3415 24.9149 35.6676 23.9994 35.6665H3.99935ZM13.9994 27.3332C14.916 27.3332 15.701 27.0065 16.3544 26.3532C17.0077 25.6998 17.3338 24.9154 17.3327 23.9998C17.3327 23.0832 17.006 22.2982 16.3527 21.6448C15.6994 20.9915 14.9149 20.6654 13.9994 20.6665C13.0827 20.6665 12.2977 20.9932 11.6444 21.6465C10.991 22.2998 10.6649 23.0843 10.666 23.9998C10.666 24.9165 10.9927 25.7015 11.646 26.3548C12.2994 27.0082 13.0838 27.3343 13.9994 27.3332ZM8.99935 12.3332H18.9994V8.99984C18.9994 7.61095 18.5132 6.43039 17.541 5.45817C16.5688 4.48595 15.3882 3.99984 13.9994 3.99984C12.6105 3.99984 11.4299 4.48595 10.4577 5.45817C9.48546 6.43039 8.99935 7.61095 8.99935 8.99984V12.3332Z" fill="#EFB503"/>
</svg>
