<svg width="28" height="34" viewBox="0 0 28 34" fill="none" xmlns="http://www.w3.org/2000/svg">
<path d="M13.9998 0.184082L14.1948 0.195749C14.5669 0.239622 14.9133 0.407547 15.1782 0.672434C15.443 0.937321 15.611 1.28372 15.6548 1.65575L15.6665 1.85075V8.51742L15.6748 8.76742C15.7345 9.56104 16.0761 10.3071 16.6379 10.8708C17.1998 11.4345 17.9447 11.7785 18.7382 11.8407L18.9998 11.8507H25.6665L25.8615 11.8624C26.2335 11.9063 26.5799 12.0742 26.8448 12.3391C27.1097 12.604 27.2776 12.9504 27.3215 13.3224L27.3332 13.5174V28.5174C27.3332 29.7928 26.846 31.0199 25.971 31.9478C25.0961 32.8758 23.8997 33.4343 22.6265 33.5091L22.3332 33.5174H5.6665C4.39115 33.5175 3.16398 33.0302 2.23607 32.1553C1.30816 31.2803 0.749658 30.0839 0.674837 28.8107L0.666504 28.5174V5.18408C0.666433 3.90873 1.15371 2.68156 2.02864 1.75365C2.90357 0.825737 4.10002 0.267236 5.37317 0.192416L5.6665 0.184082H13.9998Z" fill="#24B5F4"/>
</svg>
