<svg width="34" height="35" viewBox="0 0 34 35" fill="none" xmlns="http://www.w3.org/2000/svg">
<path d="M28.4332 10.7556L29.7499 7.83892L32.6666 6.52225C32.8121 6.45597 32.9354 6.34923 33.0219 6.21477C33.1084 6.08031 33.1544 5.9238 33.1544 5.76392C33.1544 5.60404 33.1084 5.44754 33.0219 5.31308C32.9354 5.17862 32.8121 5.07188 32.6666 5.00559L29.7499 3.68892L28.4332 0.755588C28.3669 0.610097 28.2602 0.486747 28.1257 0.40025C27.9913 0.313753 27.8348 0.267761 27.6749 0.267761C27.515 0.267761 27.3585 0.313753 27.2241 0.40025C27.0896 0.486747 26.9829 0.610097 26.9166 0.755588L25.5999 3.67225L22.6666 4.98892C22.5211 5.05521 22.3977 5.16195 22.3112 5.29641C22.2247 5.43087 22.1787 5.58737 22.1787 5.74725C22.1787 5.90713 22.2247 6.06364 22.3112 6.1981C22.3977 6.33256 22.5211 6.4393 22.6666 6.50559L25.5832 7.82225L26.8999 10.7556C27.1999 11.4056 28.1332 11.4056 28.4332 10.7556ZM15.1666 13.2556L12.5166 7.42225C11.9332 6.12225 10.0666 6.12225 9.48324 7.42225L6.83324 13.2556L0.999902 15.9056C-0.300098 16.5056 -0.300098 18.3556 0.999902 18.9389L6.83324 21.5889L9.48324 27.4223C10.0832 28.7223 11.9332 28.7223 12.5166 27.4223L15.1666 21.5889L20.9999 18.9389C22.2999 18.3389 22.2999 16.4889 20.9999 15.9056L15.1666 13.2556ZM26.8999 24.0889L25.5832 27.0056L22.6666 28.3223C22.5211 28.3885 22.3977 28.4953 22.3112 28.6297C22.2247 28.7642 22.1787 28.9207 22.1787 29.0806C22.1787 29.2405 22.2247 29.397 22.3112 29.5314C22.3977 29.6659 22.5211 29.7726 22.6666 29.8389L25.5832 31.1556L26.8999 34.0889C26.9662 34.2344 27.0729 34.3578 27.2074 34.4443C27.3418 34.5308 27.4984 34.5767 27.6582 34.5767C27.8181 34.5767 27.9746 34.5308 28.1091 34.4443C28.2435 34.3578 28.3503 34.2344 28.4166 34.0889L29.7332 31.1723L32.6666 29.8556C32.8121 29.7893 32.9354 29.6826 33.0219 29.5481C33.1084 29.4136 33.1544 29.2571 33.1544 29.0973C33.1544 28.9374 33.1084 28.7809 33.0219 28.6464C32.9354 28.5119 32.8121 28.4052 32.6666 28.3389L29.7499 27.0223L28.4332 24.0889C28.365 23.9432 28.2566 23.82 28.1208 23.7337C27.985 23.6474 27.8275 23.6015 27.6666 23.6015C27.5057 23.6015 27.3481 23.6474 27.2123 23.7337C27.0765 23.82 26.9682 23.9432 26.8999 24.0889Z" fill="#24B5F4"/>
</svg>
