<svg width="40" height="41" viewBox="0 0 40 41" fill="none" xmlns="http://www.w3.org/2000/svg">
<path d="M7.71069 15.3999C8.37672 13.8165 9.34474 12.3781 10.5607 11.1649C11.774 9.94817 13.2131 8.98006 14.7974 8.31486C18.0632 6.95808 21.7303 6.93355 25.014 8.24652C25.047 9.32565 25.4992 10.3495 26.2746 11.1006C27.0501 11.8518 28.0877 12.2712 29.1674 12.2699C31.4774 12.2699 33.334 10.4132 33.334 8.10319C33.334 5.79319 31.4774 3.93652 29.1674 3.93652C28.019 3.93652 26.9807 4.39652 26.229 5.14486C22.1774 3.52319 17.524 3.54819 13.504 5.24319C11.5207 6.07652 9.73735 7.27652 8.20402 8.80819C6.65581 10.3569 5.42864 12.196 4.59292 14.2201C3.7572 16.2442 3.32939 18.4134 3.33402 20.6032H6.66736C6.66736 18.7932 7.01902 17.0432 7.71069 15.3999ZM32.289 25.8065C31.6207 27.3932 30.6607 28.8199 29.439 30.0415C28.2174 31.2632 26.7907 32.2232 25.2024 32.8915C21.9365 34.2483 18.2694 34.2728 14.9857 32.9599C14.9536 31.8807 14.5019 30.8567 13.7266 30.1054C12.9513 29.3541 11.9136 28.9347 10.834 28.9365C8.52402 28.9365 6.66736 30.7932 6.66736 33.1032C6.66736 35.4132 8.52402 37.2699 10.834 37.2699C11.9824 37.2699 13.0207 36.8099 13.7724 36.0615C15.7516 36.8605 17.8663 37.2707 20.0007 37.2699C23.2782 37.2762 26.4847 36.3143 29.2176 34.5051C31.9505 32.6958 34.0882 30.1196 35.3624 27.0999C36.2282 25.0436 36.6719 22.8343 36.6674 20.6032H33.334C33.3382 22.3902 32.9828 24.1597 32.289 25.8065Z" fill="#24B5F4"/>
<path d="M20.0008 13.0393C15.8308 13.0393 12.4375 16.4326 12.4375 20.6026C12.4375 24.7726 15.8308 28.166 20.0008 28.166C24.1708 28.166 27.5642 24.7726 27.5642 20.6026C27.5642 16.4326 24.1708 13.0393 20.0008 13.0393Z" fill="#24B5F4"/>
</svg>
