<svg width="27" height="34" viewBox="0 0 27 34" fill="none" xmlns="http://www.w3.org/2000/svg">
<path d="M13.3333 0L13.5283 0.0116666C13.9004 0.0555397 14.2468 0.223465 14.5116 0.488352C14.7765 0.753239 14.9445 1.09964 14.9883 1.47167L15 1.66667V8.33333L15.0083 8.58333C15.068 9.37695 15.4096 10.123 15.9714 10.6867C16.5333 11.2504 17.2782 11.5944 18.0717 11.6567L18.3333 11.6667H25L25.195 11.6783C25.567 11.7222 25.9134 11.8901 26.1783 12.155C26.4432 12.4199 26.6111 12.7663 26.655 13.1383L26.6667 13.3333V28.3333C26.6667 29.6087 26.1795 30.8359 25.3045 31.7638C24.4296 32.6917 23.2332 33.2502 21.96 33.325L21.6667 33.3333H5C3.72465 33.3334 2.49748 32.8461 1.56957 31.9712C0.641655 31.0963 0.0831541 29.8998 0.00833353 28.6267L7.76741e-09 28.3333V5C-7.10362e-05 3.72465 0.487209 2.49748 1.36214 1.56957C2.23707 0.641655 3.43351 0.0831541 4.70667 0.00833352L5 0H13.3333Z" fill="#24B5F4"/>
<path d="M25.0004 8.33337H18.3337L18.332 1.66504L25.0004 8.33337Z" fill="#24B5F4"/>
</svg>
