<svg width="679" height="303" viewBox="0 0 679 303" fill="none" xmlns="http://www.w3.org/2000/svg">
<rect y="0.350952" width="679" height="302" rx="21.6308" fill="white"/>
<rect y="0.350952" width="679" height="302" rx="21.6308" fill="white"/>
<rect x="31.8716" y="31.2226" width="616.257" height="240.257" rx="13.0743" fill="white"/>
<rect x="31.8716" y="31.2226" width="616.257" height="240.257" rx="13.0743" stroke="#E7E7E7" stroke-width="1.74324"/>
<path d="M68.5172 53.9184V85.2968H64.7379V53.9184H68.5172ZM67.6183 73.4073L66.0453 73.346C66.0589 71.8343 66.2836 70.4383 66.7194 69.1581C67.1552 67.8643 67.7681 66.7407 68.558 65.7874C69.3479 64.8341 70.2876 64.0986 71.3772 63.5811C72.4803 63.05 73.6992 62.7844 75.0339 62.7844C76.1234 62.7844 77.104 62.9342 77.9756 63.2338C78.8472 63.5198 79.5895 63.9829 80.2023 64.623C80.8288 65.2631 81.3055 66.0938 81.6323 67.1153C81.9592 68.1231 82.1226 69.3556 82.1226 70.8129V85.2968H78.3229V70.772C78.3229 69.6144 78.1527 68.6883 77.8122 67.9937C77.4717 67.2855 76.9746 66.7748 76.3209 66.4616C75.6672 66.1347 74.8637 65.9713 73.9103 65.9713C72.9706 65.9713 72.1126 66.1687 71.3363 66.5637C70.5736 66.9587 69.9131 67.5034 69.3547 68.198C68.81 68.8926 68.381 69.6893 68.0677 70.5881C67.7681 71.4734 67.6183 72.4131 67.6183 73.4073ZM97.0355 63.193V66.0938H85.0848V63.193H97.0355ZM89.1296 57.8202H92.9089V79.8219C92.9089 80.5709 93.0247 81.1361 93.2562 81.5175C93.4878 81.8988 93.7874 82.1507 94.1551 82.2733C94.5228 82.3959 94.9178 82.4572 95.3399 82.4572C95.6532 82.4572 95.98 82.4299 96.3205 82.3755C96.6746 82.3074 96.9402 82.2529 97.1172 82.212L97.1377 85.2968C96.838 85.3921 96.4431 85.4806 95.9528 85.5623C95.4761 85.6577 94.8973 85.7053 94.2164 85.7053C93.2903 85.7053 92.4391 85.5215 91.6628 85.1538C90.8865 84.786 90.2668 84.1732 89.8038 83.3152C89.3544 82.4436 89.1296 81.2723 89.1296 79.8015V57.8202ZM110.723 63.193V66.0938H98.772V63.193H110.723ZM102.817 57.8202H106.596V79.8219C106.596 80.5709 106.712 81.1361 106.943 81.5175C107.175 81.8988 107.475 82.1507 107.842 82.2733C108.21 82.3959 108.605 82.4572 109.027 82.4572C109.34 82.4572 109.667 82.4299 110.008 82.3755C110.362 82.3074 110.627 82.2529 110.804 82.212L110.825 85.2968C110.525 85.3921 110.13 85.4806 109.64 85.5623C109.163 85.6577 108.585 85.7053 107.904 85.7053C106.977 85.7053 106.126 85.5215 105.35 85.1538C104.574 84.786 103.954 84.1732 103.491 83.3152C103.042 82.4436 102.817 81.2723 102.817 79.8015V57.8202ZM118.935 67.4421V93.7951H115.135V63.193H118.608L118.935 67.4421ZM133.827 74.061V74.49C133.827 76.0971 133.637 77.5883 133.255 78.9639C132.874 80.3258 132.316 81.5106 131.58 82.5185C130.859 83.5263 129.966 84.3094 128.904 84.8678C127.842 85.4261 126.623 85.7053 125.247 85.7053C123.845 85.7053 122.605 85.4738 121.529 85.0108C120.454 84.5477 119.541 83.8736 118.792 82.9883C118.043 82.1031 117.444 81.0408 116.994 79.8015C116.558 78.5621 116.259 77.1662 116.095 75.6136V73.3256C116.259 71.6913 116.565 70.2272 117.015 68.9334C117.464 67.6396 118.057 66.5365 118.792 65.624C119.541 64.6979 120.447 63.9965 121.509 63.5198C122.571 63.0295 123.797 62.7844 125.186 62.7844C126.575 62.7844 127.808 63.0568 128.884 63.6015C129.96 64.1327 130.865 64.8954 131.601 65.8896C132.336 66.8837 132.888 68.0754 133.255 69.4646C133.637 70.8401 133.827 72.3722 133.827 74.061ZM130.028 74.49V74.061C130.028 72.9579 129.912 71.9228 129.68 70.9559C129.449 69.9753 129.088 69.1173 128.598 68.3818C128.121 67.6328 127.508 67.0472 126.759 66.625C126.01 66.1892 125.118 65.9713 124.083 65.9713C123.13 65.9713 122.299 66.1347 121.591 66.4616C120.896 66.7884 120.304 67.231 119.813 67.7894C119.323 68.3342 118.921 68.9607 118.608 69.6688C118.309 70.3634 118.084 71.0852 117.934 71.8343V77.1253C118.206 78.0786 118.588 78.9775 119.078 79.8219C119.568 80.6526 120.222 81.3268 121.039 81.8443C121.856 82.3482 122.885 82.6002 124.124 82.6002C125.145 82.6002 126.024 82.3891 126.759 81.9669C127.508 81.5311 128.121 80.9386 128.598 80.1896C129.088 79.4405 129.449 78.5825 129.68 77.6156C129.912 76.635 130.028 75.5932 130.028 74.49ZM151.519 79.4337C151.519 78.889 151.396 78.3851 151.151 77.922C150.919 77.4453 150.436 77.0163 149.701 76.635C148.979 76.2401 147.889 75.8996 146.432 75.6136C145.206 75.3548 144.096 75.0484 143.102 74.6943C142.122 74.3402 141.284 73.9112 140.589 73.4073C139.908 72.9034 139.384 72.311 139.016 71.63C138.649 70.949 138.465 70.1523 138.465 69.2398C138.465 68.3682 138.655 67.5443 139.037 66.768C139.432 65.9917 139.983 65.3039 140.692 64.7047C141.413 64.1055 142.278 63.6356 143.286 63.2951C144.294 62.9546 145.417 62.7844 146.657 62.7844C148.427 62.7844 149.939 63.0976 151.192 63.7241C152.445 64.3506 153.405 65.1882 154.072 66.2368C154.74 67.2719 155.073 68.4227 155.073 69.6893H151.294C151.294 69.0764 151.11 68.484 150.742 67.912C150.388 67.3264 149.864 66.8429 149.169 66.4616C148.488 66.0802 147.651 65.8896 146.657 65.8896C145.608 65.8896 144.757 66.053 144.103 66.3798C143.463 66.6931 142.993 67.0948 142.694 67.5851C142.408 68.0754 142.265 68.5929 142.265 69.1377C142.265 69.5463 142.333 69.914 142.469 70.2409C142.619 70.5541 142.877 70.8469 143.245 71.1193C143.613 71.378 144.13 71.6232 144.798 71.8547C145.465 72.0862 146.316 72.3178 147.351 72.5493C149.163 72.9579 150.654 73.4481 151.825 74.0201C152.996 74.5922 153.868 75.2935 154.44 76.1243C155.012 76.9551 155.298 77.9629 155.298 79.1477C155.298 80.1147 155.094 80.9999 154.685 81.8035C154.29 82.607 153.711 83.3016 152.949 83.8872C152.2 84.4592 151.301 84.9086 150.252 85.2355C149.217 85.5487 148.053 85.7053 146.759 85.7053C144.811 85.7053 143.163 85.358 141.815 84.6635C140.467 83.9689 139.445 83.07 138.751 81.9669C138.056 80.8637 137.709 79.6993 137.709 78.4736H141.509C141.563 79.5086 141.863 80.3326 142.408 80.9455C142.952 81.5447 143.62 81.9737 144.41 82.2325C145.199 82.4776 145.983 82.6002 146.759 82.6002C147.794 82.6002 148.659 82.464 149.353 82.1916C150.061 81.9192 150.599 81.5447 150.967 81.068C151.335 80.5914 151.519 80.0466 151.519 79.4337ZM160.099 83.2947C160.099 82.6546 160.296 82.1167 160.691 81.6809C161.1 81.2315 161.685 81.0067 162.448 81.0067C163.211 81.0067 163.789 81.2315 164.184 81.6809C164.593 82.1167 164.797 82.6546 164.797 83.2947C164.797 83.9212 164.593 84.4524 164.184 84.8882C163.789 85.324 163.211 85.5419 162.448 85.5419C161.685 85.5419 161.1 85.324 160.691 84.8882C160.296 84.4524 160.099 83.9212 160.099 83.2947ZM160.119 65.2563C160.119 64.6162 160.317 64.0782 160.712 63.6424C161.12 63.193 161.706 62.9683 162.468 62.9683C163.231 62.9683 163.81 63.193 164.205 63.6424C164.613 64.0782 164.818 64.6162 164.818 65.2563C164.818 65.8827 164.613 66.4139 164.205 66.8497C163.81 67.2855 163.231 67.5034 162.468 67.5034C161.706 67.5034 161.12 67.2855 160.712 66.8497C160.317 66.4139 160.119 65.8827 160.119 65.2563ZM183.551 55.5527L171.151 87.8503H167.902L180.323 55.5527H183.551ZM196.257 55.5527L183.857 87.8503H180.609L193.03 55.5527H196.257ZM214.316 81.0067V53.9184H218.116V85.2968H214.643L214.316 81.0067ZM199.444 74.49V74.061C199.444 72.3722 199.649 70.8401 200.057 69.4646C200.479 68.0754 201.072 66.8837 201.834 65.8896C202.611 64.8954 203.53 64.1327 204.592 63.6015C205.668 63.0568 206.867 62.7844 208.188 62.7844C209.577 62.7844 210.789 63.0295 211.824 63.5198C212.873 63.9965 213.758 64.6979 214.48 65.624C215.215 66.5365 215.794 67.6396 216.216 68.9334C216.638 70.2272 216.931 71.6913 217.095 73.3256V75.205C216.945 76.8257 216.652 78.2829 216.216 79.5767C215.794 80.8705 215.215 81.9737 214.48 82.8862C213.758 83.7987 212.873 84.5 211.824 84.9903C210.775 85.467 209.55 85.7053 208.147 85.7053C206.853 85.7053 205.668 85.4261 204.592 84.8678C203.53 84.3094 202.611 83.5263 201.834 82.5185C201.072 81.5106 200.479 80.3258 200.057 78.9639C199.649 77.5883 199.444 76.0971 199.444 74.49ZM203.244 74.061V74.49C203.244 75.5932 203.353 76.6282 203.571 77.5952C203.802 78.5621 204.156 79.4133 204.633 80.1487C205.11 80.8842 205.716 81.463 206.451 81.8852C207.187 82.2937 208.065 82.498 209.087 82.498C210.34 82.498 211.368 82.2325 212.171 81.7013C212.988 81.1702 213.642 80.4688 214.132 79.5972C214.623 78.7255 215.004 77.779 215.276 76.7576V71.8343C215.113 71.0852 214.875 70.3634 214.561 69.6688C214.262 68.9607 213.867 68.3342 213.377 67.7894C212.9 67.231 212.307 66.7884 211.599 66.4616C210.905 66.1347 210.081 65.9713 209.127 65.9713C208.092 65.9713 207.2 66.1892 206.451 66.625C205.716 67.0472 205.11 67.6328 204.633 68.3818C204.156 69.1173 203.802 69.9753 203.571 70.9559C203.353 71.9228 203.244 72.9579 203.244 74.061ZM222.998 74.49V74.0201C222.998 72.4267 223.23 70.949 223.693 69.5871C224.156 68.2116 224.823 67.0199 225.695 66.0121C226.567 64.9907 227.622 64.2008 228.861 63.6424C230.101 63.0704 231.49 62.7844 233.029 62.7844C234.582 62.7844 235.977 63.0704 237.217 63.6424C238.47 64.2008 239.532 64.9907 240.404 66.0121C241.289 67.0199 241.963 68.2116 242.426 69.5871C242.889 70.949 243.121 72.4267 243.121 74.0201V74.49C243.121 76.0834 242.889 77.5611 242.426 78.923C241.963 80.2849 241.289 81.4766 240.404 82.498C239.532 83.5058 238.477 84.2957 237.237 84.8678C236.012 85.4261 234.622 85.7053 233.07 85.7053C231.517 85.7053 230.121 85.4261 228.882 84.8678C227.643 84.2957 226.58 83.5058 225.695 82.498C224.823 81.4766 224.156 80.2849 223.693 78.923C223.23 77.5611 222.998 76.0834 222.998 74.49ZM226.778 74.0201V74.49C226.778 75.5932 226.907 76.635 227.166 77.6156C227.425 78.5825 227.813 79.4405 228.33 80.1896C228.861 80.9386 229.522 81.5311 230.312 81.9669C231.102 82.3891 232.021 82.6002 233.07 82.6002C234.105 82.6002 235.011 82.3891 235.787 81.9669C236.577 81.5311 237.23 80.9386 237.748 80.1896C238.265 79.4405 238.654 78.5825 238.912 77.6156C239.185 76.635 239.321 75.5932 239.321 74.49V74.0201C239.321 72.9306 239.185 71.9024 238.912 70.9354C238.654 69.9549 238.259 69.09 237.728 68.341C237.21 67.5783 236.556 66.9791 235.766 66.5433C234.99 66.1075 234.078 65.8896 233.029 65.8896C231.994 65.8896 231.081 66.1075 230.291 66.5433C229.515 66.9791 228.861 67.5783 228.33 68.341C227.813 69.09 227.425 69.9549 227.166 70.9354C226.907 71.9024 226.778 72.9306 226.778 74.0201ZM251.619 67.5851V85.2968H247.819V63.193H251.415L251.619 67.5851ZM250.843 73.4073L249.086 73.346C249.099 71.8343 249.297 70.4383 249.678 69.1581C250.06 67.8643 250.625 66.7407 251.374 65.7874C252.123 64.8341 253.056 64.0986 254.173 63.5811C255.289 63.05 256.583 62.7844 258.054 62.7844C259.089 62.7844 260.042 62.9342 260.914 63.2338C261.786 63.5198 262.541 63.9761 263.182 64.6025C263.822 65.229 264.319 66.0326 264.673 67.0131C265.027 67.9937 265.204 69.1786 265.204 70.5677V85.2968H261.425V70.7516C261.425 69.5939 261.227 68.6678 260.832 67.9733C260.451 67.2787 259.906 66.7748 259.198 66.4616C258.49 66.1347 257.659 65.9713 256.706 65.9713C255.589 65.9713 254.656 66.1687 253.907 66.5637C253.158 66.9587 252.559 67.5034 252.109 68.198C251.66 68.8926 251.333 69.6893 251.129 70.5881C250.938 71.4734 250.843 72.4131 250.843 73.4073ZM265.163 71.3236L262.63 72.0999C262.644 70.8878 262.841 69.7233 263.222 68.6066C263.617 67.4898 264.183 66.4956 264.918 65.624C265.667 64.7524 266.586 64.0646 267.676 63.5607C268.765 63.0432 270.012 62.7844 271.414 62.7844C272.599 62.7844 273.648 62.941 274.56 63.2543C275.486 63.5675 276.263 64.051 276.889 64.7047C277.529 65.3448 278.013 66.1687 278.34 67.1766C278.666 68.1844 278.83 69.3828 278.83 70.772V85.2968H275.03V70.7311C275.03 69.4918 274.833 68.5317 274.438 67.8507C274.056 67.1561 273.512 66.6727 272.803 66.4003C272.109 66.1143 271.278 65.9713 270.311 65.9713C269.48 65.9713 268.745 66.1143 268.105 66.4003C267.465 66.6863 266.927 67.0812 266.491 67.5851C266.055 68.0754 265.722 68.6406 265.49 69.2807C265.272 69.9208 265.163 70.6018 265.163 71.3236ZM297.583 81.5175V70.1387C297.583 69.2671 297.406 68.5112 297.052 67.8711C296.712 67.2174 296.194 66.7135 295.5 66.3594C294.805 66.0053 293.947 65.8283 292.926 65.8283C291.972 65.8283 291.135 65.9917 290.413 66.3186C289.705 66.6454 289.146 67.0744 288.738 67.6056C288.343 68.1367 288.145 68.7087 288.145 69.3216H284.366C284.366 68.5317 284.57 67.7486 284.979 66.9723C285.388 66.196 285.973 65.4946 286.736 64.8681C287.512 64.228 288.438 63.7241 289.514 63.3564C290.604 62.9751 291.816 62.7844 293.15 62.7844C294.757 62.7844 296.174 63.0568 297.4 63.6015C298.639 64.1463 299.606 64.9703 300.3 66.0734C301.009 67.1629 301.363 68.5317 301.363 70.1796V80.4756C301.363 81.211 301.424 81.9941 301.547 82.8249C301.683 83.6557 301.88 84.3707 302.139 84.9699V85.2968H298.196C298.006 84.8609 297.856 84.2821 297.747 83.5603C297.638 82.8249 297.583 82.1439 297.583 81.5175ZM298.237 71.8956L298.278 74.5513H294.458C293.382 74.5513 292.422 74.6398 291.577 74.8169C290.733 74.9803 290.025 75.2322 289.453 75.5727C288.881 75.9132 288.445 76.3422 288.145 76.8597C287.846 77.3636 287.696 77.9561 287.696 78.637C287.696 79.3316 287.853 79.9649 288.166 80.5369C288.479 81.1089 288.949 81.5651 289.575 81.9056C290.215 82.2325 290.999 82.3959 291.925 82.3959C293.082 82.3959 294.104 82.1507 294.989 81.6605C295.874 81.1702 296.576 80.5709 297.093 79.8627C297.624 79.1545 297.91 78.4668 297.951 77.7994L299.565 79.6176C299.47 80.1896 299.211 80.8229 298.789 81.5175C298.366 82.212 297.801 82.8794 297.093 83.5195C296.399 84.1459 295.568 84.6703 294.601 85.0925C293.647 85.501 292.572 85.7053 291.373 85.7053C289.875 85.7053 288.561 85.4125 287.43 84.8269C286.314 84.2413 285.442 83.4582 284.816 82.4776C284.203 81.4834 283.896 80.3735 283.896 79.1477C283.896 77.9629 284.128 76.921 284.591 76.0222C285.054 75.1097 285.721 74.3538 286.593 73.7546C287.464 73.1417 288.513 72.6787 289.739 72.3654C290.965 72.0522 292.333 71.8956 293.845 71.8956H298.237ZM311.414 63.193V85.2968H307.614V63.193H311.414ZM307.328 57.33C307.328 56.7171 307.512 56.1996 307.879 55.7774C308.261 55.3552 308.819 55.1441 309.555 55.1441C310.276 55.1441 310.828 55.3552 311.209 55.7774C311.604 56.1996 311.802 56.7171 311.802 57.33C311.802 57.9156 311.604 58.4195 311.209 58.8417C310.828 59.2502 310.276 59.4545 309.555 59.4545C308.819 59.4545 308.261 59.2502 307.879 58.8417C307.512 58.4195 307.328 57.9156 307.328 57.33ZM321.26 67.912V85.2968H317.481V63.193H321.056L321.26 67.912ZM320.361 73.4073L318.788 73.346C318.802 71.8343 319.027 70.4383 319.462 69.1581C319.898 67.8643 320.511 66.7407 321.301 65.7874C322.091 64.8341 323.031 64.0986 324.12 63.5811C325.223 63.05 326.442 62.7844 327.777 62.7844C328.866 62.7844 329.847 62.9342 330.719 63.2338C331.59 63.5198 332.333 63.9829 332.945 64.623C333.572 65.2631 334.049 66.0938 334.375 67.1153C334.702 68.1231 334.866 69.3556 334.866 70.8129V85.2968H331.066V70.772C331.066 69.6144 330.896 68.6883 330.555 67.9937C330.215 67.2855 329.718 66.7748 329.064 66.4616C328.41 66.1347 327.607 65.9713 326.653 65.9713C325.714 65.9713 324.856 66.1687 324.079 66.5637C323.317 66.9587 322.656 67.5034 322.098 68.198C321.553 68.8926 321.124 69.6893 320.811 70.5881C320.511 71.4734 320.361 72.4131 320.361 73.4073ZM360.299 75.2867V78.3919H338.808V76.1652L352.128 55.5527H355.213L351.903 61.5178L343.098 75.2867H360.299ZM356.152 55.5527V85.2968H352.373V55.5527H356.152ZM364.201 83.2947C364.201 82.6546 364.399 82.1167 364.794 81.6809C365.202 81.2315 365.788 81.0067 366.55 81.0067C367.313 81.0067 367.892 81.2315 368.287 81.6809C368.695 82.1167 368.9 82.6546 368.9 83.2947C368.9 83.9212 368.695 84.4524 368.287 84.8882C367.892 85.324 367.313 85.5419 366.55 85.5419C365.788 85.5419 365.202 85.324 364.794 84.8882C364.399 84.4524 364.201 83.9212 364.201 83.2947ZM378.951 66.6658V85.2968H375.171V63.193H378.848L378.951 66.6658ZM385.856 63.0704L385.835 66.5841C385.522 66.516 385.222 66.4752 384.936 66.4616C384.664 66.4343 384.351 66.4207 383.996 66.4207C383.125 66.4207 382.355 66.5569 381.688 66.8293C381.021 67.1017 380.456 67.483 379.992 67.9733C379.529 68.4636 379.162 69.0492 378.889 69.7301C378.631 70.3975 378.46 71.1329 378.379 71.9364L377.316 72.5493C377.316 71.2146 377.446 69.9617 377.704 68.7904C377.977 67.6192 378.392 66.5841 378.951 65.6853C379.509 64.7728 380.217 64.0646 381.075 63.5607C381.947 63.0432 382.982 62.7844 384.18 62.7844C384.453 62.7844 384.766 62.8184 385.12 62.8865C385.474 62.941 385.719 63.0023 385.856 63.0704ZM402.873 80.1896V63.193H406.672V85.2968H403.056L402.873 80.1896ZM403.588 75.5319L405.161 75.491C405.161 76.9619 405.004 78.3238 404.691 79.5767C404.391 80.8161 403.901 81.892 403.22 82.8045C402.539 83.7169 401.647 84.4319 400.544 84.9495C399.441 85.4534 398.099 85.7053 396.519 85.7053C395.443 85.7053 394.456 85.5487 393.557 85.2355C392.672 84.9222 391.909 84.4388 391.269 83.785C390.629 83.1313 390.132 82.2801 389.778 81.2315C389.437 80.1828 389.267 78.923 389.267 77.4522V63.193H393.046V77.493C393.046 78.4872 393.155 79.3112 393.373 79.9649C393.605 80.605 393.911 81.1157 394.293 81.497C394.688 81.8647 395.123 82.1235 395.6 82.2733C396.09 82.4231 396.594 82.498 397.112 82.498C398.719 82.498 399.992 82.1916 400.932 81.5787C401.872 80.9523 402.546 80.1147 402.954 79.066C403.376 78.0037 403.588 76.8257 403.588 75.5319Z" fill="#333333"/>
<path d="M597.682 79.6898C597.367 79.3482 597.209 78.9135 597.209 78.3857C597.209 77.8578 597.367 77.4231 597.682 77.0816L605.593 68.5117C605.765 68.3254 605.951 68.1938 606.152 68.1168C606.353 68.0398 606.568 68.0006 606.797 67.9994C607.026 67.9994 607.249 68.046 607.464 68.1391C607.68 68.2323 607.859 68.3565 608.001 68.5117L615.912 77.0816C616.227 77.4231 616.385 77.8578 616.385 78.3857C616.385 78.9135 616.227 79.3482 615.912 79.6898C615.596 80.0313 615.195 80.2021 614.708 80.2021C614.221 80.2021 613.819 80.0313 613.504 79.6898L606.797 72.424L600.09 79.6898C599.774 80.0313 599.373 80.2021 598.886 80.2021C598.399 80.2021 597.997 80.0313 597.682 79.6898Z" fill="#CCCCCC"/>
<path d="M68.6597 211.973V243.351H64.8804V211.973H68.6597ZM67.7609 231.461L66.1879 231.4C66.2015 229.888 66.4262 228.493 66.862 227.212C67.2978 225.919 67.9107 224.795 68.7006 223.842C69.4905 222.888 70.4302 222.153 71.5197 221.635C72.6229 221.104 73.8418 220.839 75.1765 220.839C76.266 220.839 77.2466 220.988 78.1182 221.288C78.9898 221.574 79.7321 222.037 80.3449 222.677C80.9714 223.317 81.4481 224.148 81.7749 225.169C82.1018 226.177 82.2652 227.41 82.2652 228.867V243.351H78.4655V228.826C78.4655 227.669 78.2952 226.742 77.9548 226.048C77.6143 225.34 77.1172 224.829 76.4635 224.516C75.8098 224.189 75.0062 224.025 74.0529 224.025C73.1132 224.025 72.2552 224.223 71.4789 224.618C70.7162 225.013 70.0557 225.558 69.4973 226.252C68.9525 226.947 68.5235 227.743 68.2103 228.642C67.9107 229.528 67.7609 230.467 67.7609 231.461ZM97.1781 221.247V224.148H85.2274V221.247H97.1781ZM89.2722 215.874H93.0515V237.876C93.0515 238.625 93.1673 239.19 93.3988 239.572C93.6303 239.953 93.93 240.205 94.2977 240.328C94.6654 240.45 95.0603 240.511 95.4825 240.511C95.7958 240.511 96.1226 240.484 96.4631 240.43C96.8172 240.362 97.0828 240.307 97.2598 240.266L97.2802 243.351C96.9806 243.446 96.5857 243.535 96.0954 243.617C95.6187 243.712 95.0399 243.76 94.359 243.76C93.4329 243.76 92.5817 243.576 91.8054 243.208C91.0291 242.84 90.4094 242.227 89.9464 241.369C89.4969 240.498 89.2722 239.327 89.2722 237.856V215.874ZM110.865 221.247V224.148H98.9145V221.247H110.865ZM102.959 215.874H106.739V237.876C106.739 238.625 106.854 239.19 107.086 239.572C107.318 239.953 107.617 240.205 107.985 240.328C108.353 240.45 108.748 240.511 109.17 240.511C109.483 240.511 109.81 240.484 110.15 240.43C110.504 240.362 110.77 240.307 110.947 240.266L110.967 243.351C110.668 243.446 110.273 243.535 109.783 243.617C109.306 243.712 108.727 243.76 108.046 243.76C107.12 243.76 106.269 243.576 105.493 243.208C104.716 242.84 104.097 242.227 103.634 241.369C103.184 240.498 102.959 239.327 102.959 237.856V215.874ZM119.078 225.496V251.849H115.278V221.247H118.751L119.078 225.496ZM133.97 232.115V232.544C133.97 234.151 133.779 235.643 133.398 237.018C133.017 238.38 132.458 239.565 131.723 240.573C131.001 241.58 130.109 242.364 129.047 242.922C127.984 243.48 126.766 243.76 125.39 243.76C123.987 243.76 122.748 243.528 121.672 243.065C120.596 242.602 119.684 241.928 118.935 241.043C118.186 240.157 117.586 239.095 117.137 237.856C116.701 236.616 116.401 235.22 116.238 233.668V231.38C116.401 229.745 116.708 228.281 117.157 226.988C117.607 225.694 118.199 224.591 118.935 223.678C119.684 222.752 120.589 222.051 121.652 221.574C122.714 221.084 123.94 220.839 125.329 220.839C126.718 220.839 127.95 221.111 129.026 221.656C130.102 222.187 131.008 222.95 131.743 223.944C132.479 224.938 133.03 226.13 133.398 227.519C133.779 228.894 133.97 230.426 133.97 232.115ZM130.17 232.544V232.115C130.17 231.012 130.055 229.977 129.823 229.01C129.592 228.029 129.231 227.171 128.74 226.436C128.264 225.687 127.651 225.101 126.902 224.679C126.153 224.243 125.261 224.025 124.226 224.025C123.272 224.025 122.442 224.189 121.733 224.516C121.039 224.843 120.446 225.285 119.956 225.844C119.466 226.388 119.064 227.015 118.751 227.723C118.451 228.418 118.226 229.139 118.077 229.888V235.179C118.349 236.133 118.73 237.032 119.221 237.876C119.711 238.707 120.365 239.381 121.182 239.899C121.999 240.402 123.027 240.654 124.266 240.654C125.288 240.654 126.166 240.443 126.902 240.021C127.651 239.585 128.264 238.993 128.74 238.244C129.231 237.495 129.592 236.637 129.823 235.67C130.055 234.689 130.17 233.647 130.17 232.544ZM151.661 237.488C151.661 236.943 151.539 236.439 151.294 235.976C151.062 235.5 150.579 235.071 149.843 234.689C149.121 234.294 148.032 233.954 146.575 233.668C145.349 233.409 144.239 233.103 143.245 232.748C142.264 232.394 141.427 231.965 140.732 231.461C140.051 230.958 139.527 230.365 139.159 229.684C138.791 229.003 138.607 228.207 138.607 227.294C138.607 226.422 138.798 225.598 139.179 224.822C139.574 224.046 140.126 223.358 140.834 222.759C141.556 222.16 142.421 221.69 143.429 221.349C144.436 221.009 145.56 220.839 146.799 220.839C148.57 220.839 150.081 221.152 151.334 221.778C152.587 222.405 153.548 223.242 154.215 224.291C154.882 225.326 155.216 226.477 155.216 227.743H151.437C151.437 227.131 151.253 226.538 150.885 225.966C150.531 225.381 150.007 224.897 149.312 224.516C148.631 224.134 147.793 223.944 146.799 223.944C145.751 223.944 144.899 224.107 144.246 224.434C143.606 224.747 143.136 225.149 142.836 225.639C142.55 226.13 142.407 226.647 142.407 227.192C142.407 227.6 142.475 227.968 142.611 228.295C142.761 228.608 143.02 228.901 143.388 229.173C143.755 229.432 144.273 229.677 144.94 229.909C145.608 230.14 146.459 230.372 147.494 230.603C149.305 231.012 150.796 231.502 151.968 232.074C153.139 232.646 154.011 233.348 154.583 234.178C155.155 235.009 155.441 236.017 155.441 237.202C155.441 238.169 155.236 239.054 154.828 239.858C154.433 240.661 153.854 241.356 153.091 241.941C152.342 242.513 151.443 242.963 150.395 243.29C149.36 243.603 148.195 243.76 146.901 243.76C144.954 243.76 143.306 243.412 141.958 242.718C140.609 242.023 139.588 241.124 138.893 240.021C138.199 238.918 137.852 237.754 137.852 236.528H141.651C141.706 237.563 142.005 238.387 142.55 239C143.095 239.599 143.762 240.028 144.552 240.287C145.342 240.532 146.125 240.654 146.901 240.654C147.936 240.654 148.801 240.518 149.496 240.246C150.204 239.973 150.742 239.599 151.11 239.122C151.477 238.646 151.661 238.101 151.661 237.488ZM160.241 241.349C160.241 240.709 160.439 240.171 160.834 239.735C161.242 239.286 161.828 239.061 162.591 239.061C163.353 239.061 163.932 239.286 164.327 239.735C164.736 240.171 164.94 240.709 164.94 241.349C164.94 241.975 164.736 242.507 164.327 242.942C163.932 243.378 163.353 243.596 162.591 243.596C161.828 243.596 161.242 243.378 160.834 242.942C160.439 242.507 160.241 241.975 160.241 241.349ZM160.262 223.31C160.262 222.67 160.459 222.132 160.854 221.697C161.263 221.247 161.848 221.022 162.611 221.022C163.374 221.022 163.952 221.247 164.347 221.697C164.756 222.132 164.96 222.67 164.96 223.31C164.96 223.937 164.756 224.468 164.347 224.904C163.952 225.34 163.374 225.558 162.611 225.558C161.848 225.558 161.263 225.34 160.854 224.904C160.459 224.468 160.262 223.937 160.262 223.31ZM183.693 213.607L171.293 245.905H168.045L180.466 213.607H183.693ZM196.4 213.607L184 245.905H180.752L193.172 213.607H196.4ZM213.56 239.572V228.193C213.56 227.321 213.383 226.565 213.029 225.925C212.688 225.272 212.171 224.768 211.476 224.414C210.782 224.06 209.924 223.882 208.902 223.882C207.949 223.882 207.111 224.046 206.39 224.373C205.681 224.7 205.123 225.129 204.714 225.66C204.319 226.191 204.122 226.763 204.122 227.376H200.343C200.343 226.586 200.547 225.803 200.956 225.026C201.364 224.25 201.95 223.549 202.712 222.922C203.489 222.282 204.415 221.778 205.491 221.411C206.58 221.029 207.792 220.839 209.127 220.839C210.734 220.839 212.15 221.111 213.376 221.656C214.616 222.201 215.582 223.024 216.277 224.128C216.985 225.217 217.339 226.586 217.339 228.234V238.53C217.339 239.265 217.401 240.048 217.523 240.879C217.659 241.71 217.857 242.425 218.116 243.024V243.351H214.173C213.982 242.915 213.832 242.336 213.723 241.615C213.614 240.879 213.56 240.198 213.56 239.572ZM214.214 229.95L214.255 232.605H210.434C209.359 232.605 208.398 232.694 207.554 232.871C206.71 233.034 206.001 233.286 205.429 233.627C204.857 233.967 204.422 234.396 204.122 234.914C203.822 235.418 203.673 236.01 203.673 236.691C203.673 237.386 203.829 238.019 204.142 238.591C204.456 239.163 204.926 239.619 205.552 239.96C206.192 240.287 206.975 240.45 207.901 240.45C209.059 240.45 210.08 240.205 210.966 239.715C211.851 239.224 212.552 238.625 213.07 237.917C213.601 237.209 213.887 236.521 213.928 235.854L215.542 237.672C215.446 238.244 215.188 238.877 214.765 239.572C214.343 240.266 213.778 240.934 213.07 241.574C212.375 242.2 211.544 242.724 210.577 243.147C209.624 243.555 208.548 243.76 207.35 243.76C205.852 243.76 204.537 243.467 203.407 242.881C202.29 242.295 201.419 241.512 200.792 240.532C200.179 239.538 199.873 238.428 199.873 237.202C199.873 236.017 200.104 234.975 200.567 234.076C201.03 233.164 201.698 232.408 202.569 231.809C203.441 231.196 204.49 230.733 205.715 230.42C206.941 230.106 208.31 229.95 209.822 229.95H214.214ZM236.808 238.244V221.247H240.608V243.351H236.992L236.808 238.244ZM237.523 233.586L239.096 233.545C239.096 235.016 238.939 236.378 238.626 237.631C238.326 238.87 237.836 239.946 237.155 240.859C236.474 241.771 235.582 242.486 234.479 243.004C233.376 243.508 232.034 243.76 230.454 243.76C229.379 243.76 228.391 243.603 227.492 243.29C226.607 242.976 225.844 242.493 225.204 241.839C224.564 241.186 224.067 240.334 223.713 239.286C223.373 238.237 223.202 236.977 223.202 235.506V221.247H226.982V235.547C226.982 236.541 227.091 237.365 227.308 238.019C227.54 238.659 227.846 239.17 228.228 239.551C228.623 239.919 229.059 240.178 229.535 240.328C230.025 240.477 230.529 240.552 231.047 240.552C232.654 240.552 233.927 240.246 234.867 239.633C235.807 239.006 236.481 238.169 236.89 237.12C237.312 236.058 237.523 234.88 237.523 233.586ZM255.623 221.247V224.148H243.672V221.247H255.623ZM247.717 215.874H251.496V237.876C251.496 238.625 251.612 239.19 251.843 239.572C252.075 239.953 252.374 240.205 252.742 240.328C253.11 240.45 253.505 240.511 253.927 240.511C254.24 240.511 254.567 240.484 254.908 240.43C255.262 240.362 255.527 240.307 255.704 240.266L255.725 243.351C255.425 243.446 255.03 243.535 254.54 243.617C254.063 243.712 253.484 243.76 252.803 243.76C251.877 243.76 251.026 243.576 250.25 243.208C249.474 242.84 248.854 242.227 248.391 241.369C247.941 240.498 247.717 239.327 247.717 237.856V215.874ZM258.646 232.544V232.074C258.646 230.481 258.878 229.003 259.341 227.641C259.804 226.266 260.471 225.074 261.343 224.066C262.214 223.045 263.27 222.255 264.509 221.697C265.748 221.125 267.138 220.839 268.676 220.839C270.229 220.839 271.625 221.125 272.864 221.697C274.117 222.255 275.18 223.045 276.051 224.066C276.936 225.074 277.611 226.266 278.074 227.641C278.537 229.003 278.768 230.481 278.768 232.074V232.544C278.768 234.138 278.537 235.615 278.074 236.977C277.611 238.339 276.936 239.531 276.051 240.552C275.18 241.56 274.124 242.35 272.885 242.922C271.659 243.48 270.27 243.76 268.717 243.76C267.165 243.76 265.769 243.48 264.529 242.922C263.29 242.35 262.228 241.56 261.343 240.552C260.471 239.531 259.804 238.339 259.341 236.977C258.878 235.615 258.646 234.138 258.646 232.544ZM262.425 232.074V232.544C262.425 233.647 262.555 234.689 262.813 235.67C263.072 236.637 263.46 237.495 263.978 238.244C264.509 238.993 265.17 239.585 265.959 240.021C266.749 240.443 267.669 240.654 268.717 240.654C269.752 240.654 270.658 240.443 271.434 240.021C272.224 239.585 272.878 238.993 273.395 238.244C273.913 237.495 274.301 236.637 274.56 235.67C274.832 234.689 274.968 233.647 274.968 232.544V232.074C274.968 230.985 274.832 229.957 274.56 228.99C274.301 228.009 273.906 227.144 273.375 226.395C272.858 225.633 272.204 225.033 271.414 224.597C270.638 224.162 269.725 223.944 268.676 223.944C267.641 223.944 266.729 224.162 265.939 224.597C265.163 225.033 264.509 225.633 263.978 226.395C263.46 227.144 263.072 228.009 262.813 228.99C262.555 229.957 262.425 230.985 262.425 232.074ZM291.373 229.153V232.258H281.404V229.153H291.373ZM298.829 225.639V243.351H295.029V221.247H298.625L298.829 225.639ZM298.053 231.461L296.296 231.4C296.31 229.888 296.507 228.493 296.888 227.212C297.27 225.919 297.835 224.795 298.584 223.842C299.333 222.888 300.266 222.153 301.383 221.635C302.499 221.104 303.793 220.839 305.264 220.839C306.299 220.839 307.253 220.988 308.124 221.288C308.996 221.574 309.752 222.03 310.392 222.657C311.032 223.283 311.529 224.087 311.883 225.067C312.237 226.048 312.414 227.233 312.414 228.622V243.351H308.635V228.806C308.635 227.648 308.437 226.722 308.042 226.027C307.661 225.333 307.116 224.829 306.408 224.516C305.7 224.189 304.869 224.025 303.916 224.025C302.799 224.025 301.866 224.223 301.117 224.618C300.368 225.013 299.769 225.558 299.319 226.252C298.87 226.947 298.543 227.743 298.339 228.642C298.148 229.528 298.053 230.467 298.053 231.461ZM312.373 229.378L309.84 230.154C309.854 228.942 310.051 227.778 310.433 226.661C310.828 225.544 311.393 224.55 312.128 223.678C312.877 222.807 313.797 222.119 314.886 221.615C315.976 221.097 317.222 220.839 318.624 220.839C319.809 220.839 320.858 220.995 321.77 221.308C322.697 221.622 323.473 222.105 324.099 222.759C324.739 223.399 325.223 224.223 325.55 225.231C325.877 226.239 326.04 227.437 326.04 228.826V243.351H322.24V228.785C322.24 227.546 322.043 226.586 321.648 225.905C321.267 225.21 320.722 224.727 320.014 224.454C319.319 224.168 318.488 224.025 317.521 224.025C316.691 224.025 315.955 224.168 315.315 224.454C314.675 224.74 314.137 225.135 313.701 225.639C313.265 226.13 312.932 226.695 312.7 227.335C312.482 227.975 312.373 228.656 312.373 229.378ZM330.759 232.544V232.074C330.759 230.481 330.991 229.003 331.454 227.641C331.917 226.266 332.584 225.074 333.456 224.066C334.327 223.045 335.383 222.255 336.622 221.697C337.861 221.125 339.251 220.839 340.79 220.839C342.342 220.839 343.738 221.125 344.977 221.697C346.23 222.255 347.293 223.045 348.164 224.066C349.05 225.074 349.724 226.266 350.187 227.641C350.65 229.003 350.881 230.481 350.881 232.074V232.544C350.881 234.138 350.65 235.615 350.187 236.977C349.724 238.339 349.05 239.531 348.164 240.552C347.293 241.56 346.237 242.35 344.998 242.922C343.772 243.48 342.383 243.76 340.83 243.76C339.278 243.76 337.882 243.48 336.643 242.922C335.403 242.35 334.341 241.56 333.456 240.552C332.584 239.531 331.917 238.339 331.454 236.977C330.991 235.615 330.759 234.138 330.759 232.544ZM334.538 232.074V232.544C334.538 233.647 334.668 234.689 334.927 235.67C335.185 236.637 335.573 237.495 336.091 238.244C336.622 238.993 337.283 239.585 338.073 240.021C338.862 240.443 339.782 240.654 340.83 240.654C341.865 240.654 342.771 240.443 343.547 240.021C344.337 239.585 344.991 238.993 345.509 238.244C346.026 237.495 346.414 236.637 346.673 235.67C346.945 234.689 347.082 233.647 347.082 232.544V232.074C347.082 230.985 346.945 229.957 346.673 228.99C346.414 228.009 346.019 227.144 345.488 226.395C344.971 225.633 344.317 225.033 343.527 224.597C342.751 224.162 341.838 223.944 340.79 223.944C339.754 223.944 338.842 224.162 338.052 224.597C337.276 225.033 336.622 225.633 336.091 226.395C335.573 227.144 335.185 228.009 334.927 228.99C334.668 229.957 334.538 230.985 334.538 232.074ZM359.727 221.247V243.351H355.927V221.247H359.727ZM355.641 215.384C355.641 214.771 355.825 214.254 356.193 213.832C356.574 213.409 357.132 213.198 357.868 213.198C358.59 213.198 359.141 213.409 359.523 213.832C359.918 214.254 360.115 214.771 360.115 215.384C360.115 215.97 359.918 216.474 359.523 216.896C359.141 217.304 358.59 217.509 357.868 217.509C357.132 217.509 356.574 217.304 356.193 216.896C355.825 216.474 355.641 215.97 355.641 215.384ZM369.594 211.973V243.351H365.794V211.973H369.594ZM383.097 221.247L373.455 231.564L368.062 237.161L367.755 233.137L371.616 228.52L378.48 221.247H383.097ZM379.645 243.351L371.759 232.81L373.721 229.439L384.098 243.351H379.645ZM400.033 239.572V228.193C400.033 227.321 399.856 226.565 399.501 225.925C399.161 225.272 398.643 224.768 397.949 224.414C397.254 224.06 396.396 223.882 395.375 223.882C394.421 223.882 393.584 224.046 392.862 224.373C392.154 224.7 391.596 225.129 391.187 225.66C390.792 226.191 390.595 226.763 390.595 227.376H386.815C386.815 226.586 387.02 225.803 387.428 225.026C387.837 224.25 388.422 223.549 389.185 222.922C389.961 222.282 390.887 221.778 391.963 221.411C393.053 221.029 394.265 220.839 395.6 220.839C397.207 220.839 398.623 221.111 399.849 221.656C401.088 222.201 402.055 223.024 402.75 224.128C403.458 225.217 403.812 226.586 403.812 228.234V238.53C403.812 239.265 403.873 240.048 403.996 240.879C404.132 241.71 404.329 242.425 404.588 243.024V243.351H400.645C400.455 242.915 400.305 242.336 400.196 241.615C400.087 240.879 400.033 240.198 400.033 239.572ZM400.686 229.95L400.727 232.605H396.907C395.831 232.605 394.871 232.694 394.027 232.871C393.182 233.034 392.474 233.286 391.902 233.627C391.33 233.967 390.894 234.396 390.595 234.914C390.295 235.418 390.145 236.01 390.145 236.691C390.145 237.386 390.302 238.019 390.615 238.591C390.928 239.163 391.398 239.619 392.025 239.96C392.665 240.287 393.448 240.45 394.374 240.45C395.531 240.45 396.553 240.205 397.438 239.715C398.323 239.224 399.025 238.625 399.542 237.917C400.073 237.209 400.359 236.521 400.4 235.854L402.014 237.672C401.919 238.244 401.66 238.877 401.238 239.572C400.816 240.266 400.25 240.934 399.542 241.574C398.848 242.2 398.017 242.724 397.05 243.147C396.097 243.555 395.021 243.76 393.822 243.76C392.324 243.76 391.01 243.467 389.88 242.881C388.763 242.295 387.891 241.512 387.265 240.532C386.652 239.538 386.345 238.428 386.345 237.202C386.345 236.017 386.577 234.975 387.04 234.076C387.503 233.164 388.17 232.408 389.042 231.809C389.914 231.196 390.962 230.733 392.188 230.42C393.414 230.106 394.782 229.95 396.294 229.95H400.686ZM428.837 240.246V243.351H409.368V240.634L419.113 229.786C420.311 228.452 421.237 227.321 421.891 226.395C422.559 225.455 423.022 224.618 423.28 223.882C423.553 223.133 423.689 222.371 423.689 221.594C423.689 220.614 423.485 219.729 423.076 218.939C422.681 218.135 422.095 217.495 421.319 217.018C420.543 216.542 419.603 216.303 418.5 216.303C417.179 216.303 416.076 216.562 415.191 217.08C414.319 217.584 413.665 218.292 413.229 219.204C412.794 220.117 412.576 221.165 412.576 222.35H408.796C408.796 220.675 409.164 219.143 409.9 217.754C410.635 216.365 411.725 215.262 413.168 214.444C414.612 213.614 416.389 213.198 418.5 213.198C420.379 213.198 421.987 213.532 423.321 214.199C424.656 214.853 425.677 215.779 426.386 216.978C427.107 218.162 427.468 219.552 427.468 221.145C427.468 222.017 427.318 222.902 427.019 223.801C426.733 224.686 426.331 225.571 425.814 226.456C425.31 227.342 424.717 228.213 424.036 229.071C423.369 229.929 422.654 230.774 421.891 231.604L413.924 240.246H428.837ZM452.984 233.341V236.446H431.493V234.219L444.812 213.607H447.897L444.587 219.572L435.783 233.341H452.984ZM448.837 213.607V243.351H445.057V213.607H448.837ZM456.885 241.349C456.885 240.709 457.083 240.171 457.478 239.735C457.886 239.286 458.472 239.061 459.235 239.061C459.997 239.061 460.576 239.286 460.971 239.735C461.38 240.171 461.584 240.709 461.584 241.349C461.584 241.975 461.38 242.507 460.971 242.942C460.576 243.378 459.997 243.596 459.235 243.596C458.472 243.596 457.886 243.378 457.478 242.942C457.083 242.507 456.885 241.975 456.885 241.349ZM471.635 224.72V243.351H467.856V221.247H471.533L471.635 224.72ZM478.54 221.125L478.519 224.638C478.206 224.57 477.907 224.529 477.621 224.516C477.348 224.489 477.035 224.475 476.681 224.475C475.809 224.475 475.04 224.611 474.372 224.883C473.705 225.156 473.14 225.537 472.677 226.027C472.214 226.518 471.846 227.103 471.574 227.784C471.315 228.452 471.145 229.187 471.063 229.991L470.001 230.603C470.001 229.269 470.13 228.016 470.389 226.845C470.661 225.673 471.077 224.638 471.635 223.739C472.193 222.827 472.901 222.119 473.76 221.615C474.631 221.097 475.666 220.839 476.865 220.839C477.137 220.839 477.45 220.873 477.804 220.941C478.158 220.995 478.404 221.057 478.54 221.125ZM495.557 238.244V221.247H499.357V243.351H495.741L495.557 238.244ZM496.272 233.586L497.845 233.545C497.845 235.016 497.688 236.378 497.375 237.631C497.075 238.87 496.585 239.946 495.904 240.859C495.223 241.771 494.331 242.486 493.228 243.004C492.125 243.508 490.783 243.76 489.204 243.76C488.128 243.76 487.14 243.603 486.241 243.29C485.356 242.976 484.593 242.493 483.953 241.839C483.313 241.186 482.816 240.334 482.462 239.286C482.122 238.237 481.951 236.977 481.951 235.506V221.247H485.731V235.547C485.731 236.541 485.84 237.365 486.058 238.019C486.289 238.659 486.595 239.17 486.977 239.551C487.372 239.919 487.808 240.178 488.284 240.328C488.775 240.477 489.278 240.552 489.796 240.552C491.403 240.552 492.676 240.246 493.616 239.633C494.556 239.006 495.23 238.169 495.639 237.12C496.061 236.058 496.272 234.88 496.272 233.586Z" fill="#333333"/>
<line x1="31" y1="113.851" x2="487" y2="113.851" stroke="#E7E7E7"/>
<line x1="31" y1="194.851" x2="487" y2="194.851" stroke="#E7E7E7"/>
<rect width="616" height="80" transform="translate(33 114.351)" fill="#E7E7E7"/>
<path d="M68.6597 137.973V169.351H64.8804V137.973H68.6597ZM67.7609 157.461L66.1879 157.4C66.2015 155.888 66.4262 154.493 66.862 153.212C67.2978 151.919 67.9107 150.795 68.7006 149.842C69.4905 148.888 70.4302 148.153 71.5197 147.635C72.6229 147.104 73.8418 146.839 75.1765 146.839C76.266 146.839 77.2466 146.988 78.1182 147.288C78.9898 147.574 79.7321 148.037 80.3449 148.677C80.9714 149.317 81.4481 150.148 81.7749 151.169C82.1018 152.177 82.2652 153.41 82.2652 154.867V169.351H78.4655V154.826C78.4655 153.669 78.2952 152.742 77.9548 152.048C77.6143 151.34 77.1172 150.829 76.4635 150.516C75.8098 150.189 75.0062 150.025 74.0529 150.025C73.1132 150.025 72.2552 150.223 71.4789 150.618C70.7162 151.013 70.0557 151.558 69.4973 152.252C68.9525 152.947 68.5235 153.743 68.2103 154.642C67.9107 155.528 67.7609 156.467 67.7609 157.461ZM97.1781 147.247V150.148H85.2274V147.247H97.1781ZM89.2722 141.874H93.0515V163.876C93.0515 164.625 93.1673 165.19 93.3988 165.572C93.6303 165.953 93.93 166.205 94.2977 166.328C94.6654 166.45 95.0603 166.511 95.4825 166.511C95.7958 166.511 96.1226 166.484 96.4631 166.43C96.8172 166.362 97.0828 166.307 97.2598 166.266L97.2802 169.351C96.9806 169.446 96.5857 169.535 96.0954 169.617C95.6187 169.712 95.0399 169.76 94.359 169.76C93.4329 169.76 92.5817 169.576 91.8054 169.208C91.0291 168.84 90.4094 168.227 89.9464 167.369C89.4969 166.498 89.2722 165.327 89.2722 163.856V141.874ZM110.865 147.247V150.148H98.9145V147.247H110.865ZM102.959 141.874H106.739V163.876C106.739 164.625 106.854 165.19 107.086 165.572C107.318 165.953 107.617 166.205 107.985 166.328C108.353 166.45 108.748 166.511 109.17 166.511C109.483 166.511 109.81 166.484 110.15 166.43C110.504 166.362 110.77 166.307 110.947 166.266L110.967 169.351C110.668 169.446 110.273 169.535 109.783 169.617C109.306 169.712 108.727 169.76 108.046 169.76C107.12 169.76 106.269 169.576 105.493 169.208C104.716 168.84 104.097 168.227 103.634 167.369C103.184 166.498 102.959 165.327 102.959 163.856V141.874ZM119.078 151.496V177.849H115.278V147.247H118.751L119.078 151.496ZM133.97 158.115V158.544C133.97 160.151 133.779 161.643 133.398 163.018C133.017 164.38 132.458 165.565 131.723 166.573C131.001 167.58 130.109 168.364 129.047 168.922C127.984 169.48 126.766 169.76 125.39 169.76C123.987 169.76 122.748 169.528 121.672 169.065C120.596 168.602 119.684 167.928 118.935 167.043C118.186 166.157 117.586 165.095 117.137 163.856C116.701 162.616 116.401 161.22 116.238 159.668V157.38C116.401 155.745 116.708 154.281 117.157 152.988C117.607 151.694 118.199 150.591 118.935 149.678C119.684 148.752 120.589 148.051 121.652 147.574C122.714 147.084 123.94 146.839 125.329 146.839C126.718 146.839 127.95 147.111 129.026 147.656C130.102 148.187 131.008 148.95 131.743 149.944C132.479 150.938 133.03 152.13 133.398 153.519C133.779 154.894 133.97 156.426 133.97 158.115ZM130.17 158.544V158.115C130.17 157.012 130.055 155.977 129.823 155.01C129.592 154.029 129.231 153.171 128.74 152.436C128.264 151.687 127.651 151.101 126.902 150.679C126.153 150.243 125.261 150.025 124.226 150.025C123.272 150.025 122.442 150.189 121.733 150.516C121.039 150.843 120.446 151.285 119.956 151.844C119.466 152.388 119.064 153.015 118.751 153.723C118.451 154.418 118.226 155.139 118.077 155.888V161.179C118.349 162.133 118.73 163.032 119.221 163.876C119.711 164.707 120.365 165.381 121.182 165.899C121.999 166.402 123.027 166.654 124.266 166.654C125.288 166.654 126.166 166.443 126.902 166.021C127.651 165.585 128.264 164.993 128.74 164.244C129.231 163.495 129.592 162.637 129.823 161.67C130.055 160.689 130.17 159.647 130.17 158.544ZM151.661 163.488C151.661 162.943 151.539 162.439 151.294 161.976C151.062 161.5 150.579 161.071 149.843 160.689C149.121 160.294 148.032 159.954 146.575 159.668C145.349 159.409 144.239 159.103 143.245 158.748C142.264 158.394 141.427 157.965 140.732 157.461C140.051 156.958 139.527 156.365 139.159 155.684C138.791 155.003 138.607 154.207 138.607 153.294C138.607 152.422 138.798 151.598 139.179 150.822C139.574 150.046 140.126 149.358 140.834 148.759C141.556 148.16 142.421 147.69 143.429 147.349C144.436 147.009 145.56 146.839 146.799 146.839C148.57 146.839 150.081 147.152 151.334 147.778C152.587 148.405 153.548 149.242 154.215 150.291C154.882 151.326 155.216 152.477 155.216 153.743H151.437C151.437 153.131 151.253 152.538 150.885 151.966C150.531 151.381 150.007 150.897 149.312 150.516C148.631 150.134 147.793 149.944 146.799 149.944C145.751 149.944 144.899 150.107 144.246 150.434C143.606 150.747 143.136 151.149 142.836 151.639C142.55 152.13 142.407 152.647 142.407 153.192C142.407 153.6 142.475 153.968 142.611 154.295C142.761 154.608 143.02 154.901 143.388 155.173C143.755 155.432 144.273 155.677 144.94 155.909C145.608 156.14 146.459 156.372 147.494 156.603C149.305 157.012 150.796 157.502 151.968 158.074C153.139 158.646 154.011 159.348 154.583 160.178C155.155 161.009 155.441 162.017 155.441 163.202C155.441 164.169 155.236 165.054 154.828 165.858C154.433 166.661 153.854 167.356 153.091 167.941C152.342 168.513 151.443 168.963 150.395 169.29C149.36 169.603 148.195 169.76 146.901 169.76C144.954 169.76 143.306 169.412 141.958 168.718C140.609 168.023 139.588 167.124 138.893 166.021C138.199 164.918 137.852 163.754 137.852 162.528H141.651C141.706 163.563 142.005 164.387 142.55 165C143.095 165.599 143.762 166.028 144.552 166.287C145.342 166.532 146.125 166.654 146.901 166.654C147.936 166.654 148.801 166.518 149.496 166.246C150.204 165.973 150.742 165.599 151.11 165.122C151.477 164.646 151.661 164.101 151.661 163.488ZM160.241 167.349C160.241 166.709 160.439 166.171 160.834 165.735C161.242 165.286 161.828 165.061 162.591 165.061C163.353 165.061 163.932 165.286 164.327 165.735C164.736 166.171 164.94 166.709 164.94 167.349C164.94 167.975 164.736 168.507 164.327 168.942C163.932 169.378 163.353 169.596 162.591 169.596C161.828 169.596 161.242 169.378 160.834 168.942C160.439 168.507 160.241 167.975 160.241 167.349ZM160.262 149.31C160.262 148.67 160.459 148.132 160.854 147.697C161.263 147.247 161.848 147.022 162.611 147.022C163.374 147.022 163.952 147.247 164.347 147.697C164.756 148.132 164.96 148.67 164.96 149.31C164.96 149.937 164.756 150.468 164.347 150.904C163.952 151.34 163.374 151.558 162.611 151.558C161.848 151.558 161.263 151.34 160.854 150.904C160.459 150.468 160.262 149.937 160.262 149.31ZM183.693 139.607L171.293 171.905H168.045L180.466 139.607H183.693ZM196.4 139.607L184 171.905H180.752L193.172 139.607H196.4ZM209.781 147.247V150.148H197.83V147.247H209.781ZM201.875 141.874H205.654V163.876C205.654 164.625 205.77 165.19 206.001 165.572C206.233 165.953 206.533 166.205 206.9 166.328C207.268 166.45 207.663 166.511 208.085 166.511C208.398 166.511 208.725 166.484 209.066 166.43C209.42 166.362 209.685 166.307 209.862 166.266L209.883 169.351C209.583 169.446 209.188 169.535 208.698 169.617C208.221 169.712 207.643 169.76 206.962 169.76C206.035 169.76 205.184 169.576 204.408 169.208C203.632 168.84 203.012 168.227 202.549 167.369C202.1 166.498 201.875 165.327 201.875 163.856V141.874ZM212.804 158.544V158.074C212.804 156.481 213.036 155.003 213.499 153.641C213.962 152.266 214.629 151.074 215.501 150.066C216.372 149.045 217.428 148.255 218.667 147.697C219.907 147.125 221.296 146.839 222.835 146.839C224.387 146.839 225.783 147.125 227.022 147.697C228.275 148.255 229.338 149.045 230.209 150.066C231.095 151.074 231.769 152.266 232.232 153.641C232.695 155.003 232.926 156.481 232.926 158.074V158.544C232.926 160.138 232.695 161.615 232.232 162.977C231.769 164.339 231.095 165.531 230.209 166.552C229.338 167.56 228.282 168.35 227.043 168.922C225.817 169.48 224.428 169.76 222.875 169.76C221.323 169.76 219.927 169.48 218.688 168.922C217.448 168.35 216.386 167.56 215.501 166.552C214.629 165.531 213.962 164.339 213.499 162.977C213.036 161.615 212.804 160.138 212.804 158.544ZM216.583 158.074V158.544C216.583 159.647 216.713 160.689 216.972 161.67C217.23 162.637 217.619 163.495 218.136 164.244C218.667 164.993 219.328 165.585 220.118 166.021C220.908 166.443 221.827 166.654 222.875 166.654C223.911 166.654 224.816 166.443 225.592 166.021C226.382 165.585 227.036 164.993 227.554 164.244C228.071 163.495 228.459 162.637 228.718 161.67C228.99 160.689 229.127 159.647 229.127 158.544V158.074C229.127 156.985 228.99 155.957 228.718 154.99C228.459 154.009 228.064 153.144 227.533 152.395C227.016 151.633 226.362 151.033 225.572 150.597C224.796 150.162 223.883 149.944 222.835 149.944C221.8 149.944 220.887 150.162 220.097 150.597C219.321 151.033 218.667 151.633 218.136 152.395C217.619 153.144 217.23 154.009 216.972 154.99C216.713 155.957 216.583 156.985 216.583 158.074ZM241.445 150.72V169.351H237.666V147.247H241.343L241.445 150.72ZM248.35 147.125L248.33 150.638C248.016 150.57 247.717 150.529 247.431 150.516C247.158 150.489 246.845 150.475 246.491 150.475C245.619 150.475 244.85 150.611 244.183 150.883C243.515 151.156 242.95 151.537 242.487 152.027C242.024 152.518 241.656 153.103 241.384 153.784C241.125 154.452 240.955 155.187 240.873 155.991L239.811 156.603C239.811 155.269 239.94 154.016 240.199 152.845C240.471 151.673 240.887 150.638 241.445 149.739C242.003 148.827 242.712 148.119 243.57 147.615C244.441 147.097 245.476 146.839 246.675 146.839C246.947 146.839 247.26 146.873 247.615 146.941C247.969 146.995 248.214 147.057 248.35 147.125ZM262.119 147.247V150.148H250.168V147.247H262.119ZM254.213 141.874H257.992V163.876C257.992 164.625 258.108 165.19 258.34 165.572C258.571 165.953 258.871 166.205 259.238 166.328C259.606 166.45 260.001 166.511 260.423 166.511C260.737 166.511 261.063 166.484 261.404 166.43C261.758 166.362 262.024 166.307 262.201 166.266L262.221 169.351C261.921 169.446 261.526 169.535 261.036 169.617C260.559 169.712 259.981 169.76 259.3 169.76C258.374 169.76 257.522 169.576 256.746 169.208C255.97 168.84 255.35 168.227 254.887 167.369C254.438 166.498 254.213 165.327 254.213 163.856V141.874ZM274.417 155.153V158.258H264.448V155.153H274.417ZM281.873 151.639V169.351H278.074V147.247H281.669L281.873 151.639ZM281.097 157.461L279.34 157.4C279.354 155.888 279.551 154.493 279.933 153.212C280.314 151.919 280.879 150.795 281.628 149.842C282.377 148.888 283.31 148.153 284.427 147.635C285.544 147.104 286.838 146.839 288.308 146.839C289.343 146.839 290.297 146.988 291.168 147.288C292.04 147.574 292.796 148.03 293.436 148.657C294.076 149.283 294.573 150.087 294.927 151.067C295.281 152.048 295.458 153.233 295.458 154.622V169.351H291.679V154.806C291.679 153.648 291.482 152.722 291.087 152.027C290.705 151.333 290.161 150.829 289.452 150.516C288.744 150.189 287.913 150.025 286.96 150.025C285.843 150.025 284.91 150.223 284.161 150.618C283.412 151.013 282.813 151.558 282.364 152.252C281.914 152.947 281.587 153.743 281.383 154.642C281.192 155.528 281.097 156.467 281.097 157.461ZM295.418 155.378L292.884 156.154C292.898 154.942 293.095 153.778 293.477 152.661C293.872 151.544 294.437 150.55 295.172 149.678C295.921 148.807 296.841 148.119 297.93 147.615C299.02 147.097 300.266 146.839 301.669 146.839C302.854 146.839 303.902 146.995 304.815 147.308C305.741 147.622 306.517 148.105 307.144 148.759C307.784 149.399 308.267 150.223 308.594 151.231C308.921 152.239 309.084 153.437 309.084 154.826V169.351H305.285V154.785C305.285 153.546 305.087 152.586 304.692 151.905C304.311 151.21 303.766 150.727 303.058 150.454C302.363 150.168 301.533 150.025 300.566 150.025C299.735 150.025 298.999 150.168 298.359 150.454C297.719 150.74 297.181 151.135 296.745 151.639C296.31 152.13 295.976 152.695 295.744 153.335C295.526 153.975 295.418 154.656 295.418 155.378ZM327.674 163.488C327.674 162.943 327.552 162.439 327.307 161.976C327.075 161.5 326.592 161.071 325.856 160.689C325.134 160.294 324.045 159.954 322.588 159.668C321.362 159.409 320.252 159.103 319.258 158.748C318.277 158.394 317.44 157.965 316.745 157.461C316.064 156.958 315.54 156.365 315.172 155.684C314.804 155.003 314.62 154.207 314.62 153.294C314.62 152.422 314.811 151.598 315.192 150.822C315.587 150.046 316.139 149.358 316.847 148.759C317.569 148.16 318.434 147.69 319.442 147.349C320.449 147.009 321.573 146.839 322.812 146.839C324.583 146.839 326.095 147.152 327.347 147.778C328.6 148.405 329.561 149.242 330.228 150.291C330.895 151.326 331.229 152.477 331.229 153.743H327.45C327.45 153.131 327.266 152.538 326.898 151.966C326.544 151.381 326.02 150.897 325.325 150.516C324.644 150.134 323.807 149.944 322.812 149.944C321.764 149.944 320.912 150.107 320.259 150.434C319.619 150.747 319.149 151.149 318.849 151.639C318.563 152.13 318.42 152.647 318.42 153.192C318.42 153.6 318.488 153.968 318.624 154.295C318.774 154.608 319.033 154.901 319.401 155.173C319.768 155.432 320.286 155.677 320.953 155.909C321.621 156.14 322.472 156.372 323.507 156.603C325.318 157.012 326.81 157.502 327.981 158.074C329.152 158.646 330.024 159.348 330.596 160.178C331.168 161.009 331.454 162.017 331.454 163.202C331.454 164.169 331.249 165.054 330.841 165.858C330.446 166.661 329.867 167.356 329.104 167.941C328.355 168.513 327.456 168.963 326.408 169.29C325.373 169.603 324.208 169.76 322.914 169.76C320.967 169.76 319.319 169.412 317.971 168.718C316.622 168.023 315.601 167.124 314.906 166.021C314.212 164.918 313.865 163.754 313.865 162.528H317.664C317.719 163.563 318.018 164.387 318.563 165C319.108 165.599 319.775 166.028 320.565 166.287C321.355 166.532 322.138 166.654 322.914 166.654C323.95 166.654 324.814 166.518 325.509 166.246C326.217 165.973 326.755 165.599 327.123 165.122C327.49 164.646 327.674 164.101 327.674 163.488ZM340.218 137.973V169.351H336.418V137.973H340.218ZM353.721 147.247L344.079 157.564L338.685 163.161L338.379 159.137L342.24 154.52L349.104 147.247H353.721ZM350.268 169.351L342.383 158.81L344.344 155.439L354.722 169.351H350.268ZM357.684 167.349C357.684 166.709 357.881 166.171 358.276 165.735C358.685 165.286 359.271 165.061 360.033 165.061C360.796 165.061 361.375 165.286 361.77 165.735C362.178 166.171 362.383 166.709 362.383 167.349C362.383 167.975 362.178 168.507 361.77 168.942C361.375 169.378 360.796 169.596 360.033 169.596C359.271 169.596 358.685 169.378 358.276 168.942C357.881 168.507 357.684 167.975 357.684 167.349ZM372.433 150.72V169.351H368.654V147.247H372.331L372.433 150.72ZM379.338 147.125L379.318 150.638C379.005 150.57 378.705 150.529 378.419 150.516C378.147 150.489 377.833 150.475 377.479 150.475C376.608 150.475 375.838 150.611 375.171 150.883C374.504 151.156 373.938 151.537 373.475 152.027C373.012 152.518 372.645 153.103 372.372 153.784C372.113 154.452 371.943 155.187 371.861 155.991L370.799 156.603C370.799 155.269 370.929 154.016 371.187 152.845C371.46 151.673 371.875 150.638 372.433 149.739C372.992 148.827 373.7 148.119 374.558 147.615C375.43 147.097 376.465 146.839 377.663 146.839C377.936 146.839 378.249 146.873 378.603 146.941C378.957 146.995 379.202 147.057 379.338 147.125ZM396.355 164.244V147.247H400.155V169.351H396.539L396.355 164.244ZM397.07 159.586L398.643 159.545C398.643 161.016 398.487 162.378 398.174 163.631C397.874 164.87 397.384 165.946 396.703 166.859C396.022 167.771 395.13 168.486 394.027 169.004C392.923 169.508 391.582 169.76 390.002 169.76C388.926 169.76 387.939 169.603 387.04 169.29C386.155 168.976 385.392 168.493 384.752 167.839C384.112 167.186 383.615 166.334 383.261 165.286C382.92 164.237 382.75 162.977 382.75 161.506V147.247H386.529V161.547C386.529 162.541 386.638 163.365 386.856 164.019C387.088 164.659 387.394 165.17 387.775 165.551C388.17 165.919 388.606 166.178 389.083 166.328C389.573 166.477 390.077 166.552 390.595 166.552C392.202 166.552 393.475 166.246 394.415 165.633C395.354 165.006 396.029 164.169 396.437 163.12C396.859 162.058 397.07 160.88 397.07 159.586Z" fill="#333333"/>
<g filter="url(#filter0_d_129_16607)">
<path d="M582.365 217.13C582.777 217.542 583.105 218.032 583.328 218.572C583.552 219.111 583.667 219.689 583.667 220.273C583.667 220.857 583.552 221.435 583.328 221.974C583.105 222.513 582.777 223.003 582.365 223.416L581.065 224.716C580.652 225.129 580.162 225.457 579.622 225.68C579.083 225.903 578.505 226.018 577.921 226.018C577.338 226.018 576.76 225.903 576.22 225.68C575.681 225.457 575.191 225.129 574.778 224.716L559.43 209.371L553.352 223.355C553.011 224.148 552.445 224.824 551.723 225.297C551.002 225.771 550.156 226.022 549.293 226.019H549.077C548.177 225.981 547.31 225.668 546.594 225.121C545.878 224.575 545.347 223.822 545.074 222.963L530.553 178.494C530.299 177.716 530.265 176.882 530.455 176.086C530.645 175.29 531.052 174.562 531.631 173.983C532.21 173.404 532.938 172.997 533.735 172.806C534.531 172.616 535.364 172.65 536.143 172.905L580.612 187.425C581.462 187.709 582.206 188.244 582.746 188.959C583.287 189.673 583.599 190.535 583.641 191.43C583.684 192.325 583.455 193.212 582.984 193.975C582.513 194.738 581.823 195.34 581.003 195.703L567.019 201.782L582.365 217.13Z" fill="#24B5F4"/>
</g>
<defs>
<filter id="filter0_d_129_16607" x="497.181" y="148.373" width="119.638" height="119.639" filterUnits="userSpaceOnUse" color-interpolation-filters="sRGB">
<feFlood flood-opacity="0" result="BackgroundImageFix"/>
<feColorMatrix in="SourceAlpha" type="matrix" values="0 0 0 0 0 0 0 0 0 0 0 0 0 0 0 0 0 0 127 0" result="hardAlpha"/>
<feOffset dy="8.84058"/>
<feGaussianBlur stdDeviation="16.5761"/>
<feComposite in2="hardAlpha" operator="out"/>
<feColorMatrix type="matrix" values="0 0 0 0 0.937255 0 0 0 0 0.709804 0 0 0 0 0.0117647 0 0 0 0.2 0"/>
<feBlend mode="normal" in2="BackgroundImageFix" result="effect1_dropShadow_129_16607"/>
<feBlend mode="normal" in="SourceGraphic" in2="effect1_dropShadow_129_16607" result="shape"/>
</filter>
</defs>
</svg>
