<svg width="40" height="37" viewBox="0 0 40 37" fill="none" xmlns="http://www.w3.org/2000/svg">
<path d="M5.89648 27C7.35902 29.5345 9.46333 31.6391 11.9977 33.102C14.532 34.5649 17.4069 35.3345 20.3332 35.3333C23.2594 35.3345 26.1343 34.5649 28.6686 33.102C31.203 31.6391 33.3073 29.5345 34.7698 27M5.89648 10.3333C7.35902 7.7988 9.46333 5.69419 11.9977 4.23129C14.532 2.76839 17.4069 1.99881 20.3332 2C23.2594 1.99881 26.1343 2.76839 28.6686 4.23129C31.203 5.69419 33.3073 7.7988 34.7698 10.3333" stroke="#24B5F4" stroke-width="2.5" stroke-linecap="round" stroke-linejoin="round"/>
<path d="M22 35.25C22 35.25 24.3467 32.1617 25.825 27M22 2.08337C22 2.08337 24.3467 5.17004 25.825 10.3334M18.6667 35.25C18.6667 35.25 16.32 32.1634 14.8417 27M18.6667 2.08337C18.6667 2.08337 16.32 5.17004 14.8417 10.3334M15.3333 15.3334L17.8333 23.6667L20.3333 15.3334L22.8333 23.6667L25.3333 15.3334M2 15.3334L4.5 23.6667L7 15.3334L9.5 23.6667L12 15.3334M28.6667 15.3334L31.1667 23.6667L33.6667 15.3334L36.1667 23.6667L38.6667 15.3334" stroke="#24B5F4" stroke-width="2.5" stroke-linecap="round" stroke-linejoin="round"/>
</svg>
