<svg width="48" height="48" viewBox="0 0 48 48" fill="none" xmlns="http://www.w3.org/2000/svg">
<path d="M14.6667 36C13.9333 36 13.3058 35.7391 12.784 35.2173C12.2622 34.6956 12.0009 34.0676 12 33.3333V14.6667C12 13.9333 12.2613 13.3058 12.784 12.784C13.3067 12.2622 13.9342 12.0009 14.6667 12H33.3333C34.0667 12 34.6947 12.2613 35.2173 12.784C35.74 13.3067 36.0009 13.9342 36 14.6667V33.3333C36 34.0667 35.7391 34.6947 35.2173 35.2173C34.6956 35.74 34.0676 36.0009 33.3333 36H14.6667ZM14.6667 33.3333H33.3333V18.6667H14.6667V33.3333Z" fill="url(#paint0_linear_307_648)"/>
<rect width="48" height="48" rx="6.4" fill="url(#paint1_linear_307_648)" fill-opacity="0.1"/>
<defs>
<linearGradient id="paint0_linear_307_648" x1="12" y1="24.2353" x2="34.4151" y2="24.2353" gradientUnits="userSpaceOnUse">
<stop stop-color="#27C58B"/>
<stop offset="1" stop-color="#029E81"/>
</linearGradient>
<linearGradient id="paint1_linear_307_648" x1="2.27281e-07" y1="24.4706" x2="44.8302" y2="24.4706" gradientUnits="userSpaceOnUse">
<stop stop-color="#27C58B"/>
<stop offset="1" stop-color="#029E81"/>
</linearGradient>
</defs>
</svg>
