<svg width="24" height="24" viewBox="0 0 24 24" fill="none" xmlns="http://www.w3.org/2000/svg">
<g clip-path="url(#clip0_318_656)">
<path d="M0 3.84C0 1.71923 1.71923 0 3.84 0H20.16C22.2808 0 24 1.71923 24 3.84V20.16C24 22.2808 22.2808 24 20.16 24H3.84C1.71923 24 0 22.2808 0 20.16V3.84Z" fill="url(#paint0_linear_318_656)" fill-opacity="0.2"/>
<path d="M14.5681 5.28271H9.76807C9.37025 5.28271 8.98871 5.44076 8.70741 5.72206C8.42612 6.00336 8.26807 6.3849 8.26807 6.78271V16.9827C8.26807 17.3805 8.42612 17.7621 8.70741 18.0434C8.98871 18.3247 9.37025 18.4827 9.76807 18.4827H14.5681C14.9659 18.4827 15.3474 18.3247 15.6287 18.0434C15.91 17.7621 16.0681 17.3805 16.0681 16.9827V6.78271C16.0681 6.3849 15.91 6.00336 15.6287 5.72206C15.3474 5.44076 14.9659 5.28271 14.5681 5.28271ZM12.1681 17.8827C11.6701 17.8827 11.2681 17.4807 11.2681 16.9827C11.2681 16.4847 11.6701 16.0827 12.1681 16.0827C12.6661 16.0827 13.0681 16.4847 13.0681 16.9827C13.0681 17.4807 12.6661 17.8827 12.1681 17.8827ZM14.8681 15.4827H9.46807V7.08271H14.8681V15.4827Z" fill="#333333"/>
<path d="M14.5681 5.28271H9.76807C9.37025 5.28271 8.98871 5.44076 8.70741 5.72206C8.42612 6.00336 8.26807 6.3849 8.26807 6.78271V16.9827C8.26807 17.3805 8.42612 17.7621 8.70741 18.0434C8.98871 18.3247 9.37025 18.4827 9.76807 18.4827H14.5681C14.9659 18.4827 15.3474 18.3247 15.6287 18.0434C15.91 17.7621 16.0681 17.3805 16.0681 16.9827V6.78271C16.0681 6.3849 15.91 6.00336 15.6287 5.72206C15.3474 5.44076 14.9659 5.28271 14.5681 5.28271ZM12.1681 17.8827C11.6701 17.8827 11.2681 17.4807 11.2681 16.9827C11.2681 16.4847 11.6701 16.0827 12.1681 16.0827C12.6661 16.0827 13.0681 16.4847 13.0681 16.9827C13.0681 17.4807 12.6661 17.8827 12.1681 17.8827ZM14.8681 15.4827H9.46807V7.08271H14.8681V15.4827Z" fill="white"/>
<path d="M14.5681 5.28271H9.76807C9.37025 5.28271 8.98871 5.44076 8.70741 5.72206C8.42612 6.00336 8.26807 6.3849 8.26807 6.78271V16.9827C8.26807 17.3805 8.42612 17.7621 8.70741 18.0434C8.98871 18.3247 9.37025 18.4827 9.76807 18.4827H14.5681C14.9659 18.4827 15.3474 18.3247 15.6287 18.0434C15.91 17.7621 16.0681 17.3805 16.0681 16.9827V6.78271C16.0681 6.3849 15.91 6.00336 15.6287 5.72206C15.3474 5.44076 14.9659 5.28271 14.5681 5.28271ZM12.1681 17.8827C11.6701 17.8827 11.2681 17.4807 11.2681 16.9827C11.2681 16.4847 11.6701 16.0827 12.1681 16.0827C12.6661 16.0827 13.0681 16.4847 13.0681 16.9827C13.0681 17.4807 12.6661 17.8827 12.1681 17.8827ZM14.8681 15.4827H9.46807V7.08271H14.8681V15.4827Z" fill="url(#paint1_linear_318_656)"/>
</g>
<defs>
<linearGradient id="paint0_linear_318_656" x1="0" y1="0" x2="24" y2="24" gradientUnits="userSpaceOnUse">
<stop stop-color="#2395FE"/>
<stop offset="0.958333" stop-color="#139890"/>
</linearGradient>
<linearGradient id="paint1_linear_318_656" x1="8.26807" y1="5.28271" x2="19.8307" y2="12.1152" gradientUnits="userSpaceOnUse">
<stop stop-color="#2395FE"/>
<stop offset="1" stop-color="#139890"/>
</linearGradient>
<clipPath id="clip0_318_656">
<rect width="24" height="24" fill="white"/>
</clipPath>
</defs>
</svg>
