<svg width="40" height="40" viewBox="0 0 40 40" fill="none" xmlns="http://www.w3.org/2000/svg">
<path d="M7.71069 14.7968C8.37672 13.2135 9.34474 11.7751 10.5607 10.5618C11.774 9.34514 13.2131 8.37703 14.7974 7.71183C18.0632 6.35505 21.7303 6.33052 25.014 7.6435C25.047 8.72262 25.4992 9.74642 26.2746 10.4976C27.0501 11.2488 28.0877 11.6682 29.1674 11.6668C31.4774 11.6668 33.334 9.81016 33.334 7.50016C33.334 5.19016 31.4774 3.3335 29.1674 3.3335C28.019 3.3335 26.9807 3.7935 26.229 4.54183C22.1774 2.92016 17.524 2.94516 13.504 4.64016C11.5207 5.4735 9.73735 6.6735 8.20402 8.20516C6.65581 9.75384 5.42864 11.593 4.59292 13.6171C3.7572 15.6412 3.32939 17.8103 3.33402 20.0002H6.66736C6.66736 18.1902 7.01902 16.4402 7.71069 14.7968ZM32.289 25.2035C31.6207 26.7902 30.6607 28.2168 29.439 29.4385C28.2174 30.6602 26.7907 31.6202 25.2024 32.2885C21.9365 33.6453 18.2694 33.6698 14.9857 32.3568C14.9536 31.2777 14.5019 30.2537 13.7266 29.5024C12.9513 28.751 11.9136 28.3317 10.834 28.3335C8.52402 28.3335 6.66736 30.1902 6.66736 32.5002C6.66736 34.8102 8.52402 36.6668 10.834 36.6668C11.9824 36.6668 13.0207 36.2068 13.7724 35.4585C15.7516 36.2574 17.8663 36.6677 20.0007 36.6668C23.2782 36.6732 26.4847 35.7113 29.2176 33.902C31.9505 32.0927 34.0882 29.5166 35.3624 26.4968C36.2282 24.4406 36.6719 22.2313 36.6674 20.0002H33.334C33.3382 21.7871 32.9828 23.5567 32.289 25.2035Z" fill="#EFB503"/>
<path d="M20.0008 12.436C15.8308 12.436 12.4375 15.8294 12.4375 19.9994C12.4375 24.1694 15.8308 27.5627 20.0008 27.5627C24.1708 27.5627 27.5642 24.1694 27.5642 19.9994C27.5642 15.8294 24.1708 12.436 20.0008 12.436Z" fill="#EFB503"/>
</svg>
