<svg width="52" height="42" viewBox="0 0 52 42" fill="none" xmlns="http://www.w3.org/2000/svg">
<path d="M14.631 15.1709L7.06649 21.4849L14.631 27.7989C14.8868 28.0036 15.0991 28.2573 15.2556 28.5451C15.412 28.833 15.5093 29.1492 15.5419 29.4752C15.5745 29.8012 15.5416 30.1304 15.4452 30.4435C15.3488 30.7566 15.1908 31.0473 14.9805 31.2986C14.7703 31.5498 14.5119 31.7565 14.2207 31.9066C13.9294 32.0566 13.6112 32.1469 13.2845 32.1723C12.9579 32.1977 12.6295 32.1575 12.3186 32.0543C12.0077 31.951 11.7205 31.7866 11.474 31.5709L1.63399 23.3709C1.35828 23.14 1.13654 22.8515 0.984405 22.5256C0.832265 22.1997 0.753418 21.8445 0.753418 21.4849C0.753418 21.1253 0.832265 20.77 0.984405 20.4442C1.13654 20.1183 1.35828 19.8298 1.63399 19.5989L11.474 11.3989C11.9761 10.9971 12.6155 10.808 13.2554 10.8719C13.8952 10.9358 14.4846 11.2477 14.8974 11.7408C15.3101 12.2339 15.5133 12.869 15.4635 13.5102C15.4137 14.1513 15.1149 14.7474 14.631 15.1709ZM50.711 19.5989L40.871 11.3989C40.3689 10.9971 39.7294 10.808 39.0896 10.8719C38.4497 10.9358 37.8603 11.2477 37.4476 11.7408C37.0349 12.2339 36.8317 12.869 36.8815 13.5102C36.9313 14.1513 37.2301 14.7474 37.714 15.1709L45.299 21.4849L37.714 27.7989C37.464 28.0046 37.2576 28.258 37.1065 28.5444C36.9555 28.8307 36.863 29.1443 36.8344 29.4667C36.8058 29.7892 36.8416 30.1141 36.9398 30.4226C37.0381 30.731 37.1967 31.0168 37.4065 31.2634C37.6391 31.5371 37.928 31.7576 38.2534 31.9097C38.5789 32.0618 38.9333 32.142 39.2925 32.1449C39.8697 32.1447 40.4285 31.9415 40.871 31.5709L50.711 23.3709C50.9867 23.14 51.2084 22.8515 51.3606 22.5256C51.5127 22.1997 51.5916 21.8445 51.5916 21.4849C51.5916 21.1253 51.5127 20.77 51.3606 20.4442C51.2084 20.1183 50.9867 19.8298 50.711 19.5989ZM33.573 1.12838C32.9584 0.909913 32.2825 0.942314 31.6916 1.21857C31.1007 1.49482 30.6425 1.99269 30.416 2.60438L17.296 38.6844C17.0775 39.299 17.1099 39.9749 17.3862 40.5658C17.6624 41.1566 18.1603 41.6149 18.772 41.8414C19.0414 41.9386 19.326 41.9872 19.6125 41.9849C20.1183 41.9858 20.612 41.8308 21.0265 41.541C21.4411 41.2512 21.7562 40.8407 21.929 40.3654L35.049 4.28538C35.2675 3.67079 35.2351 2.99488 34.9588 2.40401C34.6825 1.81313 34.1847 1.35485 33.573 1.12838Z" fill="#EF911F"/>
</svg>
