<svg width="380" height="148" viewBox="0 0 380 148" fill="none" xmlns="http://www.w3.org/2000/svg">
<rect width="380" height="148" rx="12.4084" fill="white"/>
<rect width="380" height="148" rx="12.4084" fill="white"/>
<path d="M161.702 124.524H159.188L159.175 123.284H161.37C161.74 123.284 162.054 123.23 162.312 123.122C162.574 123.009 162.773 122.849 162.908 122.641C163.044 122.428 163.111 122.173 163.111 121.875C163.111 121.545 163.048 121.277 162.922 121.069C162.795 120.861 162.601 120.71 162.339 120.615C162.081 120.52 161.752 120.473 161.35 120.473H159.703V128.982H158.003V119.118H161.35C161.892 119.118 162.375 119.17 162.8 119.273C163.229 119.377 163.592 119.54 163.89 119.761C164.193 119.978 164.421 120.254 164.575 120.588C164.733 120.922 164.812 121.32 164.812 121.78C164.812 122.187 164.715 122.559 164.521 122.898C164.326 123.232 164.04 123.506 163.66 123.718C163.281 123.93 162.809 124.057 162.244 124.097L161.702 124.524ZM161.628 128.982H158.653L159.419 127.634H161.628C162.011 127.634 162.332 127.571 162.59 127.444C162.847 127.313 163.039 127.135 163.166 126.909C163.296 126.679 163.362 126.41 163.362 126.103C163.362 125.782 163.306 125.504 163.193 125.27C163.08 125.03 162.901 124.847 162.657 124.721C162.413 124.59 162.095 124.524 161.702 124.524H159.791L159.805 123.284H162.291L162.678 123.752C163.22 123.77 163.665 123.89 164.012 124.111C164.365 124.332 164.627 124.619 164.798 124.971C164.97 125.324 165.056 125.703 165.056 126.11C165.056 126.738 164.918 127.264 164.643 127.688C164.372 128.113 163.981 128.436 163.47 128.657C162.96 128.874 162.346 128.982 161.628 128.982ZM168.369 121.652V128.982H166.736V121.652H168.369ZM173.152 121.652L169.853 126.062H167.99L167.773 124.585H169.135L171.113 121.652H173.152ZM171.242 128.982L169.033 125.784L170.32 124.856L173.389 128.982H171.242ZM179.203 121.652V122.952H175.625V121.652H179.203ZM180.483 121.652V128.982H178.85V121.652H180.483ZM175.225 121.652H176.838L176.642 125.276C176.614 125.814 176.56 126.288 176.479 126.699C176.402 127.106 176.298 127.456 176.167 127.749C176.036 128.038 175.876 128.273 175.686 128.454C175.497 128.635 175.275 128.768 175.022 128.854C174.769 128.94 174.485 128.982 174.169 128.982H173.66L173.654 127.641L173.911 127.621C174.078 127.607 174.223 127.564 174.345 127.492C174.467 127.415 174.571 127.307 174.656 127.167C174.747 127.027 174.819 126.846 174.873 126.625C174.932 126.403 174.977 126.141 175.009 125.839C175.045 125.536 175.072 125.184 175.09 124.782L175.225 121.652ZM182.285 128.169C182.285 127.916 182.371 127.704 182.543 127.533C182.714 127.356 182.947 127.268 183.241 127.268C183.539 127.268 183.771 127.356 183.939 127.533C184.11 127.704 184.196 127.916 184.196 128.169C184.196 128.422 184.11 128.635 183.939 128.806C183.771 128.978 183.539 129.064 183.241 129.064C182.947 129.064 182.714 128.978 182.543 128.806C182.371 128.635 182.285 128.422 182.285 128.169Z" fill="#27C58B"/>
<rect x="189.707" y="116.973" width="35.6805" height="13.8758" rx="6.93788" fill="#27C58B" fill-opacity="0.68"/>
<g filter="url(#filter0_ddd_13_4722)">
<rect x="205.564" y="114" width="19.8225" height="19.8225" rx="9.91126" fill="#27C58B"/>
</g>
<path d="M170.5 23.0244C170.5 19.1449 173.645 16 177.524 16H203.476C207.355 16 210.5 19.1449 210.5 23.0244V47.0244C210.5 50.9039 207.355 54.0488 203.476 54.0488H177.524C173.645 54.0488 170.5 50.9039 170.5 47.0244V23.0244Z" fill="#57B36E" fill-opacity="0.1"/>
<g clip-path="url(#clip0_13_4722)">
<g clip-path="url(#clip1_13_4722)">
<g clip-path="url(#clip2_13_4722)">
<mask id="mask0_13_4722" style="mask-type:luminance" maskUnits="userSpaceOnUse" x="180" y="23" width="21" height="26">
<path d="M200.762 23.7354H180.119V48.0951H200.762V23.7354Z" fill="white"/>
</mask>
<g mask="url(#mask0_13_4722)">
<path d="M199.645 39.9877C198.989 41.7711 198.024 43.3222 196.712 44.5658C195.247 46.0008 193.316 47.1658 191.001 47.9789C190.923 48.0165 190.848 48.0165 190.77 48.0575C190.655 48.0951 190.539 48.0951 190.461 48.0951H190.424C190.308 48.0951 190.192 48.0951 190.077 48.0575C189.999 48.0575 189.924 48.0199 189.846 47.9789C187.531 47.1658 185.6 46.0008 184.135 44.5658C182.823 43.3256 181.858 41.7745 181.202 39.9877C180.002 36.7693 180.08 33.1991 180.155 30.3668V30.3292C180.155 30.0969 180.155 29.8646 180.193 29.5537C180.155 28.2349 181.236 27.1109 182.589 27.0323C185.366 26.8785 187.528 25.9458 189.38 24.1624C189.689 23.8891 190.073 23.7354 190.461 23.7354C190.848 23.7354 191.195 23.8891 191.504 24.1624C193.354 25.9834 195.515 26.8785 198.292 27.0323C199.642 27.1109 200.685 28.2349 200.723 29.5537C200.723 29.8236 200.723 30.0593 200.76 30.3292C200.763 33.1991 200.842 36.7693 199.645 39.9877Z" fill="#57B36E"/>
</g>
<mask id="mask1_13_4722" style="mask-type:luminance" maskUnits="userSpaceOnUse" x="180" y="23" width="21" height="26">
<path d="M200.762 23.7354H180.119V48.0951H200.762V23.7354Z" fill="white"/>
</mask>
<g mask="url(#mask1_13_4722)">
<path d="M199.643 39.9877C198.986 41.7711 198.019 43.3222 196.704 44.5658C195.236 46.0008 193.302 47.1658 190.982 47.9789C190.904 48.0165 190.829 48.0165 190.751 48.0575C190.635 48.0951 190.519 48.0951 190.441 48.0951V23.7354C190.829 23.7354 191.176 23.8891 191.486 24.1624C193.339 25.9868 195.505 26.8785 198.288 27.0323C199.64 27.1109 200.685 28.2349 200.723 29.5537C200.723 29.8236 200.723 30.0593 200.76 30.3292C200.764 33.1991 200.842 36.7693 199.643 39.9877Z" fill="#57B36E"/>
</g>
<path d="M196.221 35.9154C196.221 39.2147 193.542 41.9021 190.253 41.9021H190.216C186.927 41.9021 184.248 39.2147 184.248 35.9154C184.248 32.6161 186.927 29.9287 190.216 29.9287H190.253C193.542 29.9287 196.221 32.6161 196.221 35.9154Z" fill="white"/>
<path d="M196.221 35.9356C196.221 39.2238 193.627 41.9021 190.441 41.9021V29.9287C193.627 29.9691 196.221 32.6475 196.221 35.9356Z" fill="#E1EBF0"/>
<path d="M194.411 35.7086C194.333 35.7086 194.258 35.6287 194.258 35.5521V35.1557C194.258 33.1422 192.626 31.4834 190.646 31.4834C188.666 31.4834 187.032 33.1422 187.032 35.1557V35.5521C187.032 35.6321 186.953 35.7086 186.878 35.7086C186.799 35.7086 186.724 35.6287 186.724 35.5521V35.1557C186.724 32.944 188.472 31.167 190.646 31.167C192.821 31.167 194.569 32.944 194.569 35.1557V35.5521C194.565 35.6704 194.487 35.7086 194.411 35.7086Z" fill="#848484"/>
<path d="M193.974 37.3605H193.513C193.42 37.3605 193.331 37.2722 193.331 37.1877C193.331 37.0993 193.424 37.0148 193.513 37.0148H193.974C194.112 37.0148 194.205 36.9265 194.205 36.7959V35.8818C194.205 35.7935 194.298 35.709 194.387 35.709C194.476 35.709 194.569 35.7973 194.569 35.8818V36.7959C194.525 37.1416 194.298 37.3605 193.974 37.3605Z" fill="#848484"/>
<path d="M189.201 37.3604H191.265V39.0119H189.201V37.3604Z" fill="#CBCBCB"/>
<path d="M193.293 37.0157C193.33 36.8987 193.33 36.7818 193.33 36.6235V33.9673C193.33 33.1072 192.659 32.4053 191.837 32.4053H188.629C187.807 32.4053 187.136 33.1072 187.136 33.9673V36.6235C187.136 37.4837 187.807 38.1855 188.629 38.1855H191.877C192.251 38.1855 192.587 38.0307 192.846 37.7933" fill="#E5E5E5"/>
<path d="M188.375 37.2291V38.1862C187.657 38.0279 187.136 37.3875 187.136 36.6274V35.709C187.854 35.8709 188.375 36.4691 188.375 37.2291Z" fill="#CBCBCB"/>
<path d="M193.742 35.709V36.6274C193.742 36.747 193.742 36.9054 193.702 37.0285L193.208 37.8273C193 37.9857 192.753 38.1053 192.506 38.1862V37.2678C192.462 36.4655 192.997 35.8673 193.742 35.709Z" fill="#CBCBCB"/>
<path d="M190.026 34.6767C190.026 35.2331 189.589 35.7089 188.994 35.7089C188.438 35.7089 187.962 35.2715 187.962 34.6767C187.962 34.1204 188.399 33.6445 188.994 33.6445C189.55 33.683 190.026 34.1204 190.026 34.6767Z" fill="white"/>
<path d="M192.917 34.6767C192.917 35.2331 192.479 35.7089 191.884 35.7089C191.29 35.7089 190.852 35.2715 190.852 34.6767C190.852 34.1204 191.29 33.6446 191.884 33.6446C192.479 33.6411 192.917 34.1204 192.917 34.6767Z" fill="white"/>
<path d="M189.201 34.8834C188.995 34.8834 188.788 34.7204 188.788 34.4705C188.788 34.2206 188.951 34.0576 189.201 34.0576C189.408 34.0576 189.614 34.2206 189.614 34.4705C189.614 34.7204 189.408 34.8834 189.201 34.8834Z" fill="#444444"/>
<path d="M191.678 34.8834C191.472 34.8834 191.266 34.7204 191.266 34.4705C191.266 34.2206 191.429 34.0576 191.678 34.0576C191.925 34.0576 192.091 34.2206 192.091 34.4705C192.091 34.7204 191.885 34.8834 191.678 34.8834Z" fill="#444444"/>
<path d="M187.962 37.3624C187.962 37.5858 187.803 37.773 187.612 37.773H187.486C187.296 37.773 187.136 37.5858 187.136 37.3624C187.136 37.139 187.296 36.9517 187.486 36.9517H187.612C187.805 36.9156 187.962 37.1028 187.962 37.3624Z" fill="#444444"/>
<path d="M190.026 36.5342H190.439V38.1857H190.026V36.5342Z" fill="#7B7B7B"/>
<path d="M190.44 36.5342H190.853V38.1857H190.44V36.5342Z" fill="#7B7B7B"/>
<path d="M191.265 36.5342V38.1857H191.678V37.138C191.678 36.8183 191.529 36.5768 191.265 36.5342Z" fill="#7B7B7B"/>
<path d="M189.614 36.5342C189.389 36.6159 189.201 36.8574 189.201 37.138V38.1857H189.614V36.5342Z" fill="#7B7B7B"/>
<path d="M187.137 34.5537V36.0388C187.137 36.2667 186.983 36.4578 186.749 36.5349C186.711 36.5349 186.67 36.5349 186.596 36.5349H186.402C186.133 36.5349 185.898 36.3069 185.898 36.0388V34.5537C185.898 34.2889 186.129 34.0576 186.402 34.0576H186.596C186.633 34.0576 186.674 34.0576 186.749 34.0576C186.983 34.1347 187.137 34.3224 187.137 34.5537Z" fill="#686868"/>
<path d="M187.137 34.5537V36.0388C187.137 36.2667 186.974 36.4578 186.724 36.5349C186.478 36.4578 186.311 36.2701 186.311 36.0388V34.5537C186.311 34.3258 186.474 34.1347 186.724 34.0576C186.974 34.1347 187.137 34.3224 187.137 34.5537Z" fill="#7B7B7B"/>
<path d="M194.982 34.5537V36.0388C194.982 36.2667 194.828 36.4578 194.594 36.5349C194.556 36.5349 194.515 36.5349 194.44 36.5349H194.247C193.978 36.5349 193.743 36.3069 193.743 36.0388V34.5537C193.743 34.2889 193.974 34.0576 194.247 34.0576H194.44C194.478 34.0576 194.519 34.0576 194.594 34.0576C194.828 34.1347 194.982 34.3224 194.982 34.5537Z" fill="#686868"/>
<path d="M194.981 34.5537V36.0388C194.981 36.2667 194.818 36.4578 194.568 36.5349C194.322 36.4578 194.155 36.2701 194.155 36.0388V34.5537C194.155 34.3258 194.318 34.1347 194.568 34.0576C194.818 34.1347 194.981 34.3224 194.981 34.5537Z" fill="#7B7B7B"/>
<path d="M193.267 36.9473H193.393C193.584 36.9473 193.743 37.1355 193.743 37.3601C193.743 37.5847 193.584 37.773 193.393 37.773H193.267C193.077 37.773 192.917 37.5847 192.917 37.3601C192.917 37.1355 193.077 36.9473 193.267 36.9473Z" fill="#444444"/>
<path d="M186.311 37.209V36.2949C186.311 36.2066 186.404 36.1221 186.493 36.1221C186.586 36.1221 186.675 36.2104 186.675 36.2949V37.209C186.675 37.3396 186.768 37.4279 186.906 37.4279H187.368C187.461 37.4279 187.55 37.5162 187.55 37.6007C187.55 37.6891 187.457 37.7736 187.368 37.7736H186.906C186.586 37.7736 186.311 37.5124 186.311 37.209Z" fill="#848484"/>
<path d="M193.743 39.7927L187.55 39.8373V39.7927C187.55 39.1491 187.976 38.5986 188.555 38.5986H192.775C193.276 38.5986 193.743 39.1491 193.743 39.7927Z" fill="#CBCBCB"/>
<path d="M193.33 39.7927L188.375 39.8373V39.7927C188.375 39.1491 188.795 38.5986 189.365 38.5986H192.376C192.87 38.5986 193.33 39.1491 193.33 39.7927Z" fill="#E5E5E5"/>
<path d="M190.235 29.9287C186.939 29.9287 184.26 32.6074 184.26 35.9032C184.26 39.199 186.939 41.8777 190.235 41.8777C193.53 41.8777 196.209 39.199 196.209 35.9032C196.209 32.6074 193.53 29.9287 190.235 29.9287ZM190.235 41.1772C187.349 41.1772 184.961 38.8288 184.961 35.9032C184.961 34.6256 185.454 33.3878 186.278 32.4405L193.697 39.8596C192.707 40.6836 191.512 41.1772 190.235 41.1772ZM194.191 39.366L186.772 31.9468C187.719 31.1229 188.914 30.6292 190.235 30.6292C193.12 30.6292 195.509 32.9777 195.509 35.9032C195.509 37.1809 195.015 38.4186 194.191 39.366Z" fill="#E84C4F"/>
</g>
</g>
</g>
<path d="M91.9482 70.9141H89.9619V69.5166H91.5439C92.0068 69.5166 92.3818 69.4463 92.6689 69.3057C92.9561 69.1592 93.167 68.9541 93.3018 68.6904C93.4365 68.4268 93.5039 68.1162 93.5039 67.7588C93.5039 67.4658 93.4277 67.1963 93.2754 66.9502C93.1289 66.7041 92.9004 66.5078 92.5898 66.3613C92.2793 66.209 91.8838 66.1328 91.4033 66.1328C91.04 66.1328 90.709 66.1973 90.4102 66.3262C90.1113 66.4551 89.874 66.6367 89.6982 66.8711C89.5225 67.0996 89.4346 67.3779 89.4346 67.7061H86.8066C86.8066 67.1436 86.9268 66.6396 87.167 66.1943C87.4131 65.7432 87.7471 65.3623 88.1689 65.0518C88.5967 64.7354 89.0889 64.4951 89.6455 64.3311C90.2021 64.167 90.7881 64.085 91.4033 64.085C92.124 64.085 92.7744 64.1641 93.3545 64.3223C93.9346 64.4746 94.4326 64.7031 94.8486 65.0078C95.2646 65.3125 95.584 65.6904 95.8066 66.1416C96.0293 66.5928 96.1406 67.1172 96.1406 67.7148C96.1406 68.1543 96.041 68.5674 95.8418 68.9541C95.6426 69.3408 95.3584 69.6807 94.9893 69.9736C94.6201 70.2666 94.1777 70.498 93.6621 70.668C93.1465 70.832 92.5752 70.9141 91.9482 70.9141ZM89.9619 70.1494H91.9482C92.6455 70.1494 93.2637 70.2227 93.8027 70.3691C94.3477 70.5156 94.8076 70.7295 95.1826 71.0107C95.5635 71.292 95.8506 71.6406 96.0439 72.0566C96.2432 72.4668 96.3428 72.9385 96.3428 73.4717C96.3428 74.0693 96.2197 74.5996 95.9736 75.0625C95.7334 75.5254 95.3906 75.918 94.9453 76.2402C94.5059 76.5625 93.9844 76.8057 93.3809 76.9697C92.7832 77.1338 92.124 77.2158 91.4033 77.2158C90.8291 77.2158 90.2578 77.1455 89.6895 77.0049C89.1211 76.8584 88.6055 76.6357 88.1426 76.3369C87.6797 76.0381 87.3105 75.6543 87.0352 75.1855C86.7598 74.7168 86.6221 74.1543 86.6221 73.498H89.2676C89.2676 73.8086 89.3584 74.0928 89.54 74.3506C89.7217 74.6025 89.9736 74.8047 90.2959 74.957C90.6182 75.1035 90.9873 75.1768 91.4033 75.1768C91.8896 75.1768 92.3027 75.1006 92.6426 74.9482C92.9883 74.7959 93.249 74.5879 93.4248 74.3242C93.6064 74.0547 93.6973 73.7588 93.6973 73.4365C93.6973 73.0908 93.6504 72.7979 93.5566 72.5576C93.4629 72.3174 93.3252 72.1211 93.1436 71.9688C92.9619 71.8105 92.7363 71.6963 92.4668 71.626C92.2031 71.5557 91.8955 71.5205 91.5439 71.5205H89.9619V70.1494ZM103.269 74.9043V70.668C103.269 70.3633 103.219 70.1025 103.119 69.8857C103.02 69.6631 102.864 69.4902 102.653 69.3672C102.448 69.2441 102.182 69.1826 101.854 69.1826C101.572 69.1826 101.329 69.2324 101.124 69.332C100.919 69.4258 100.761 69.5635 100.649 69.7451C100.538 69.9209 100.482 70.1289 100.482 70.3691H97.9512C97.9512 69.9648 98.0449 69.5811 98.2324 69.2178C98.4199 68.8545 98.6924 68.5352 99.0498 68.2598C99.4072 67.9785 99.832 67.7588 100.324 67.6006C100.822 67.4424 101.379 67.3633 101.994 67.3633C102.732 67.3633 103.389 67.4863 103.963 67.7324C104.537 67.9785 104.988 68.3477 105.316 68.8398C105.65 69.332 105.817 69.9473 105.817 70.6855V74.7549C105.817 75.2764 105.85 75.7041 105.914 76.0381C105.979 76.3662 106.072 76.6533 106.195 76.8994V77.0488H103.638C103.515 76.791 103.421 76.4688 103.356 76.082C103.298 75.6895 103.269 75.2969 103.269 74.9043ZM103.603 71.2568L103.62 72.6895H102.205C101.871 72.6895 101.581 72.7275 101.335 72.8037C101.089 72.8799 100.887 72.9883 100.729 73.1289C100.57 73.2637 100.453 73.4219 100.377 73.6035C100.307 73.7852 100.271 73.9844 100.271 74.2012C100.271 74.418 100.321 74.6143 100.421 74.79C100.521 74.96 100.664 75.0947 100.852 75.1943C101.039 75.2881 101.259 75.335 101.511 75.335C101.892 75.335 102.223 75.2588 102.504 75.1064C102.785 74.9541 103.002 74.7666 103.154 74.5439C103.312 74.3213 103.395 74.1104 103.4 73.9111L104.068 74.9834C103.975 75.2236 103.846 75.4727 103.682 75.7305C103.523 75.9883 103.321 76.2314 103.075 76.46C102.829 76.6826 102.533 76.8672 102.188 77.0137C101.842 77.1543 101.432 77.2246 100.957 77.2246C100.354 77.2246 99.8057 77.1045 99.3135 76.8643C98.8271 76.6182 98.4404 76.2812 98.1533 75.8535C97.8721 75.4199 97.7314 74.9277 97.7314 74.377C97.7314 73.8789 97.8252 73.4365 98.0127 73.0498C98.2002 72.6631 98.4756 72.3379 98.8389 72.0742C99.208 71.8047 99.668 71.6025 100.219 71.4678C100.77 71.3271 101.408 71.2568 102.135 71.2568H103.603ZM122.508 75.0801L122.332 79.8701H119.977V77.0488H118.913V75.0801H122.508ZM107.733 67.5391H110.265V75.0713H112.901V67.5391H115.441V75.0713H118.069V67.5391H120.601V77.0488H107.733V67.5391ZM126.533 73.5156L129.724 67.5391H132.255V77.0488H129.724V71.0635L126.533 77.0488H124.002V67.5391H126.533V73.5156ZM139.049 67.5391V77.0488H136.509V67.5391H139.049ZM142.107 67.5391V69.499H133.494V67.5391H142.107ZM148.392 74.9043V70.668C148.392 70.3633 148.342 70.1025 148.242 69.8857C148.143 69.6631 147.987 69.4902 147.776 69.3672C147.571 69.2441 147.305 69.1826 146.977 69.1826C146.695 69.1826 146.452 69.2324 146.247 69.332C146.042 69.4258 145.884 69.5635 145.772 69.7451C145.661 69.9209 145.605 70.1289 145.605 70.3691H143.074C143.074 69.9648 143.168 69.5811 143.355 69.2178C143.543 68.8545 143.815 68.5352 144.173 68.2598C144.53 67.9785 144.955 67.7588 145.447 67.6006C145.945 67.4424 146.502 67.3633 147.117 67.3633C147.855 67.3633 148.512 67.4863 149.086 67.7324C149.66 67.9785 150.111 68.3477 150.439 68.8398C150.773 69.332 150.94 69.9473 150.94 70.6855V74.7549C150.94 75.2764 150.973 75.7041 151.037 76.0381C151.102 76.3662 151.195 76.6533 151.318 76.8994V77.0488H148.761C148.638 76.791 148.544 76.4688 148.479 76.082C148.421 75.6895 148.392 75.2969 148.392 74.9043ZM148.726 71.2568L148.743 72.6895H147.328C146.994 72.6895 146.704 72.7275 146.458 72.8037C146.212 72.8799 146.01 72.9883 145.852 73.1289C145.693 73.2637 145.576 73.4219 145.5 73.6035C145.43 73.7852 145.395 73.9844 145.395 74.2012C145.395 74.418 145.444 74.6143 145.544 74.79C145.644 74.96 145.787 75.0947 145.975 75.1943C146.162 75.2881 146.382 75.335 146.634 75.335C147.015 75.335 147.346 75.2588 147.627 75.1064C147.908 74.9541 148.125 74.7666 148.277 74.5439C148.436 74.3213 148.518 74.1104 148.523 73.9111L149.191 74.9834C149.098 75.2236 148.969 75.4727 148.805 75.7305C148.646 75.9883 148.444 76.2314 148.198 76.46C147.952 76.6826 147.656 76.8672 147.311 77.0137C146.965 77.1543 146.555 77.2246 146.08 77.2246C145.477 77.2246 144.929 77.1045 144.437 76.8643C143.95 76.6182 143.563 76.2812 143.276 75.8535C142.995 75.4199 142.854 74.9277 142.854 74.377C142.854 73.8789 142.948 73.4365 143.136 73.0498C143.323 72.6631 143.599 72.3379 143.962 72.0742C144.331 71.8047 144.791 71.6025 145.342 71.4678C145.893 71.3271 146.531 71.2568 147.258 71.2568H148.726ZM156.97 72.3906V72.2061C156.97 71.5088 157.069 70.8672 157.269 70.2812C157.468 69.6895 157.758 69.1768 158.139 68.7432C158.52 68.3096 158.988 67.9727 159.545 67.7324C160.102 67.4863 160.74 67.3633 161.461 67.3633C162.182 67.3633 162.823 67.4863 163.386 67.7324C163.948 67.9727 164.42 68.3096 164.801 68.7432C165.188 69.1768 165.48 69.6895 165.68 70.2812C165.879 70.8672 165.979 71.5088 165.979 72.2061V72.3906C165.979 73.082 165.879 73.7236 165.68 74.3154C165.48 74.9014 165.188 75.4141 164.801 75.8535C164.42 76.2871 163.951 76.624 163.395 76.8643C162.838 77.1045 162.199 77.2246 161.479 77.2246C160.758 77.2246 160.116 77.1045 159.554 76.8643C158.997 76.624 158.525 76.2871 158.139 75.8535C157.758 75.4141 157.468 74.9014 157.269 74.3154C157.069 73.7236 156.97 73.082 156.97 72.3906ZM159.501 72.2061V72.3906C159.501 72.7891 159.536 73.1611 159.606 73.5068C159.677 73.8525 159.788 74.1572 159.94 74.4209C160.099 74.6787 160.304 74.8809 160.556 75.0273C160.808 75.1738 161.115 75.2471 161.479 75.2471C161.83 75.2471 162.132 75.1738 162.384 75.0273C162.636 74.8809 162.838 74.6787 162.99 74.4209C163.143 74.1572 163.254 73.8525 163.324 73.5068C163.4 73.1611 163.438 72.7891 163.438 72.3906V72.2061C163.438 71.8193 163.4 71.4561 163.324 71.1162C163.254 70.7705 163.14 70.4658 162.981 70.2021C162.829 69.9326 162.627 69.7217 162.375 69.5693C162.123 69.417 161.818 69.3408 161.461 69.3408C161.104 69.3408 160.799 69.417 160.547 69.5693C160.301 69.7217 160.099 69.9326 159.94 70.2021C159.788 70.4658 159.677 70.7705 159.606 71.1162C159.536 71.4561 159.501 71.8193 159.501 72.2061ZM172.131 67.5391V77.0488H169.591V67.5391H172.131ZM175.189 67.5391V69.499H166.576V67.5391H175.189ZM184.893 75.2471C185.203 75.2471 185.479 75.1885 185.719 75.0713C185.959 74.9482 186.146 74.7783 186.281 74.5615C186.422 74.3389 186.495 74.0781 186.501 73.7793H188.883C188.877 74.4473 188.698 75.042 188.347 75.5635C187.995 76.0791 187.523 76.4863 186.932 76.7852C186.34 77.0781 185.678 77.2246 184.945 77.2246C184.207 77.2246 183.562 77.1016 183.012 76.8555C182.467 76.6094 182.013 76.2695 181.649 75.8359C181.286 75.3965 181.014 74.8867 180.832 74.3066C180.65 73.7207 180.56 73.0938 180.56 72.4258V72.1709C180.56 71.4971 180.65 70.8701 180.832 70.29C181.014 69.7041 181.286 69.1943 181.649 68.7607C182.013 68.3213 182.467 67.9785 183.012 67.7324C183.557 67.4863 184.195 67.3633 184.928 67.3633C185.707 67.3633 186.39 67.5127 186.976 67.8115C187.567 68.1104 188.03 68.5381 188.364 69.0947C188.704 69.6455 188.877 70.2988 188.883 71.0547H186.501C186.495 70.7383 186.428 70.4512 186.299 70.1934C186.176 69.9355 185.994 69.7305 185.754 69.5781C185.52 69.4199 185.229 69.3408 184.884 69.3408C184.515 69.3408 184.213 69.4199 183.979 69.5781C183.744 69.7305 183.562 69.9414 183.434 70.2109C183.305 70.4746 183.214 70.7764 183.161 71.1162C183.114 71.4502 183.091 71.8018 183.091 72.1709V72.4258C183.091 72.7949 183.114 73.1494 183.161 73.4893C183.208 73.8291 183.296 74.1309 183.425 74.3945C183.56 74.6582 183.744 74.8662 183.979 75.0186C184.213 75.1709 184.518 75.2471 184.893 75.2471ZM193.049 67.5391V77.0488H190.518V67.5391H193.049ZM199.228 67.5391L195.132 73.4893H192.601L192.293 71.1514H193.972L196.02 67.5391H199.228ZM196.134 77.0488L193.796 73.0322L196.002 71.8105L199.526 77.0488H196.134ZM206.874 67.5391V69.5254H202.198V67.5391H206.874ZM208.729 67.5391V77.0488H206.197V67.5391H208.729ZM201.565 67.5391H204.053L203.798 72.3379C203.763 73.0234 203.689 73.627 203.578 74.1484C203.467 74.6699 203.317 75.1152 203.13 75.4844C202.948 75.8535 202.729 76.1553 202.471 76.3896C202.219 76.6182 201.923 76.7852 201.583 76.8906C201.249 76.9961 200.88 77.0488 200.476 77.0488H199.702L199.676 75.0537L200.001 75.0186C200.188 75.001 200.353 74.9482 200.493 74.8604C200.64 74.7666 200.763 74.6348 200.862 74.4648C200.968 74.2891 201.056 74.0693 201.126 73.8057C201.196 73.5361 201.252 73.2197 201.293 72.8564C201.34 72.4932 201.372 72.0742 201.39 71.5996L201.565 67.5391ZM213.211 73.5156L216.401 67.5391H218.933V77.0488H216.401V71.0635L213.211 77.0488H210.68V67.5391H213.211V73.5156ZM223.582 67.5391V77.0488H221.051V67.5391H223.582ZM229.761 67.5391L225.665 73.4893H223.134L222.826 71.1514H224.505L226.553 67.5391H229.761ZM226.667 77.0488L224.329 73.0322L226.535 71.8105L230.06 77.0488H226.667ZM233.531 73.5156L236.722 67.5391H239.253V77.0488H236.722V71.0635L233.531 77.0488H231V67.5391H233.531V73.5156ZM245.941 73.0762H242.962L242.944 71.415H245.405C245.733 71.415 246 71.3828 246.205 71.3184C246.41 71.248 246.56 71.1455 246.653 71.0107C246.753 70.8701 246.803 70.7002 246.803 70.501C246.803 70.3252 246.771 70.1758 246.706 70.0527C246.647 69.9238 246.557 69.8184 246.434 69.7363C246.311 69.6543 246.155 69.5957 245.968 69.5605C245.786 69.5195 245.572 69.499 245.326 69.499H243.902V77.0488H241.371V67.5391H245.326C245.947 67.5391 246.504 67.5947 246.996 67.7061C247.488 67.8115 247.907 67.9727 248.253 68.1895C248.604 68.4062 248.871 68.6816 249.053 69.0156C249.24 69.3438 249.334 69.7334 249.334 70.1846C249.334 70.4775 249.267 70.7529 249.132 71.0107C249.003 71.2686 248.81 71.4971 248.552 71.6963C248.294 71.8955 247.975 72.0596 247.594 72.1885C247.219 72.3115 246.785 72.3877 246.293 72.417L245.941 73.0762ZM245.941 77.0488H242.338L243.208 75.0889H245.941C246.252 75.0889 246.507 75.0508 246.706 74.9746C246.905 74.8984 247.052 74.7871 247.146 74.6406C247.245 74.4883 247.295 74.3066 247.295 74.0957C247.295 73.8906 247.251 73.7119 247.163 73.5596C247.075 73.4072 246.932 73.29 246.732 73.208C246.539 73.1201 246.275 73.0762 245.941 73.0762H243.577L243.595 71.415H246.284L246.899 72.083C247.567 72.124 248.118 72.25 248.552 72.4609C248.985 72.6719 249.305 72.9414 249.51 73.2695C249.721 73.5918 249.826 73.9463 249.826 74.333C249.826 74.7842 249.741 75.1797 249.571 75.5195C249.401 75.8594 249.149 76.1436 248.815 76.3721C248.487 76.5947 248.083 76.7646 247.603 76.8818C247.122 76.9932 246.568 77.0488 245.941 77.0488ZM256.515 74.9043V70.668C256.515 70.3633 256.465 70.1025 256.365 69.8857C256.266 69.6631 256.11 69.4902 255.899 69.3672C255.694 69.2441 255.428 69.1826 255.1 69.1826C254.818 69.1826 254.575 69.2324 254.37 69.332C254.165 69.4258 254.007 69.5635 253.896 69.7451C253.784 69.9209 253.729 70.1289 253.729 70.3691H251.197C251.197 69.9648 251.291 69.5811 251.479 69.2178C251.666 68.8545 251.938 68.5352 252.296 68.2598C252.653 67.9785 253.078 67.7588 253.57 67.6006C254.068 67.4424 254.625 67.3633 255.24 67.3633C255.979 67.3633 256.635 67.4863 257.209 67.7324C257.783 67.9785 258.234 68.3477 258.562 68.8398C258.896 69.332 259.063 69.9473 259.063 70.6855V74.7549C259.063 75.2764 259.096 75.7041 259.16 76.0381C259.225 76.3662 259.318 76.6533 259.441 76.8994V77.0488H256.884C256.761 76.791 256.667 76.4688 256.603 76.082C256.544 75.6895 256.515 75.2969 256.515 74.9043ZM256.849 71.2568L256.866 72.6895H255.451C255.117 72.6895 254.827 72.7275 254.581 72.8037C254.335 72.8799 254.133 72.9883 253.975 73.1289C253.816 73.2637 253.699 73.4219 253.623 73.6035C253.553 73.7852 253.518 73.9844 253.518 74.2012C253.518 74.418 253.567 74.6143 253.667 74.79C253.767 74.96 253.91 75.0947 254.098 75.1943C254.285 75.2881 254.505 75.335 254.757 75.335C255.138 75.335 255.469 75.2588 255.75 75.1064C256.031 74.9541 256.248 74.7666 256.4 74.5439C256.559 74.3213 256.641 74.1104 256.646 73.9111L257.314 74.9834C257.221 75.2236 257.092 75.4727 256.928 75.7305C256.77 75.9883 256.567 76.2314 256.321 76.46C256.075 76.6826 255.779 76.8672 255.434 77.0137C255.088 77.1543 254.678 77.2246 254.203 77.2246C253.6 77.2246 253.052 77.1045 252.56 76.8643C252.073 76.6182 251.687 76.2812 251.399 75.8535C251.118 75.4199 250.978 74.9277 250.978 74.377C250.978 73.8789 251.071 73.4365 251.259 73.0498C251.446 72.6631 251.722 72.3379 252.085 72.0742C252.454 71.8047 252.914 71.6025 253.465 71.4678C254.016 71.3271 254.654 71.2568 255.381 71.2568H256.849ZM267.527 71.3799V73.3486H262.693V71.3799H267.527ZM263.537 67.5391V77.0488H261.006V67.5391H263.537ZM269.241 67.5391V77.0488H266.701V67.5391H269.241ZM273.732 73.5156L276.923 67.5391H279.454V77.0488H276.923V71.0635L273.732 77.0488H271.201V67.5391H273.732V73.5156ZM283.453 72.3027H286.02L283.374 77.0488H280.816L283.453 72.3027ZM285.158 67.5391H289.333V77.0488H286.802V69.499H285.158C284.812 69.499 284.525 69.5635 284.297 69.6924C284.068 69.8154 283.898 69.9766 283.787 70.1758C283.682 70.3691 283.629 70.5684 283.629 70.7734C283.629 70.9727 283.682 71.166 283.787 71.3535C283.893 71.541 284.057 71.6963 284.279 71.8193C284.502 71.9424 284.78 72.0039 285.114 72.0039H287.742V73.7266H285.114C284.487 73.7266 283.925 73.6504 283.427 73.498C282.935 73.3457 282.513 73.1348 282.161 72.8652C281.815 72.5898 281.549 72.2705 281.361 71.9072C281.18 71.5381 281.089 71.1338 281.089 70.6943C281.089 70.2373 281.183 69.8184 281.37 69.4375C281.558 69.0566 281.827 68.7227 282.179 68.4355C282.53 68.1484 282.955 67.9287 283.453 67.7764C283.957 67.6182 284.525 67.5391 285.158 67.5391ZM153.507 96.0762H150.527L150.51 94.415H152.971C153.299 94.415 153.565 94.3828 153.771 94.3184C153.976 94.248 154.125 94.1455 154.219 94.0107C154.318 93.8701 154.368 93.7002 154.368 93.501C154.368 93.3252 154.336 93.1758 154.271 93.0527C154.213 92.9238 154.122 92.8184 153.999 92.7363C153.876 92.6543 153.721 92.5957 153.533 92.5605C153.352 92.5195 153.138 92.499 152.892 92.499H151.468V100.049H148.937V90.5391H152.892C153.513 90.5391 154.069 90.5947 154.562 90.7061C155.054 90.8115 155.473 90.9727 155.818 91.1895C156.17 91.4062 156.437 91.6816 156.618 92.0156C156.806 92.3438 156.899 92.7334 156.899 93.1846C156.899 93.4775 156.832 93.7529 156.697 94.0107C156.568 94.2686 156.375 94.4971 156.117 94.6963C155.859 94.8955 155.54 95.0596 155.159 95.1885C154.784 95.3115 154.351 95.3877 153.858 95.417L153.507 96.0762ZM153.507 100.049H149.903L150.773 98.0889H153.507C153.817 98.0889 154.072 98.0508 154.271 97.9746C154.471 97.8984 154.617 97.7871 154.711 97.6406C154.811 97.4883 154.86 97.3066 154.86 97.0957C154.86 96.8906 154.816 96.7119 154.729 96.5596C154.641 96.4072 154.497 96.29 154.298 96.208C154.104 96.1201 153.841 96.0762 153.507 96.0762H151.143L151.16 94.415H153.85L154.465 95.083C155.133 95.124 155.684 95.25 156.117 95.4609C156.551 95.6719 156.87 95.9414 157.075 96.2695C157.286 96.5918 157.392 96.9463 157.392 97.333C157.392 97.7842 157.307 98.1797 157.137 98.5195C156.967 98.8594 156.715 99.1436 156.381 99.3721C156.053 99.5947 155.648 99.7646 155.168 99.8818C154.688 99.9932 154.134 100.049 153.507 100.049ZM168.791 89.4404L165.311 100.049H162.507L167.262 87.252H169.046L168.791 89.4404ZM171.683 100.049L168.193 89.4404L167.912 87.252H169.714L174.495 100.049H171.683ZM171.524 95.2852V97.3506H164.766V95.2852H171.524ZM181.755 94.3799V96.3486H176.921V94.3799H181.755ZM177.765 90.5391V100.049H175.233V90.5391H177.765ZM183.469 90.5391V100.049H180.929V90.5391H183.469ZM190.28 90.5391V100.049H187.74V90.5391H190.28ZM193.339 90.5391V92.499H184.726V90.5391H193.339ZM197.153 96.5156L200.344 90.5391H202.875V100.049H200.344V94.0635L197.153 100.049H194.622V90.5391H197.153V96.5156ZM210.653 86.3555H212.701C212.701 86.8301 212.643 87.2373 212.525 87.5771C212.408 87.9111 212.221 88.1982 211.963 88.4385C211.705 88.6729 211.359 88.8721 210.926 89.0361C210.492 89.2002 209.956 89.3408 209.317 89.458C208.825 89.5576 208.397 89.7217 208.034 89.9502C207.677 90.1787 207.381 90.4922 207.146 90.8906C206.918 91.2832 206.754 91.7812 206.654 92.3848C206.555 92.9824 206.52 93.7031 206.549 94.5469V94.9688L204.58 95.2412V94.8193C204.586 93.6709 204.688 92.6719 204.888 91.8223C205.093 90.9727 205.383 90.2578 205.758 89.6777C206.133 89.0918 206.584 88.626 207.111 88.2803C207.639 87.9287 208.225 87.6826 208.869 87.542C209.303 87.4482 209.648 87.3574 209.906 87.2695C210.17 87.1758 210.36 87.0586 210.478 86.918C210.595 86.7773 210.653 86.5898 210.653 86.3555ZM209.546 91.0752C210.19 91.0752 210.762 91.1865 211.26 91.4092C211.758 91.626 212.177 91.9336 212.517 92.332C212.856 92.7305 213.114 93.1992 213.29 93.7383C213.466 94.2773 213.554 94.8662 213.554 95.5049V95.6895C213.554 96.3398 213.454 96.9434 213.255 97.5C213.062 98.0508 212.774 98.5312 212.394 98.9414C212.013 99.3516 211.544 99.6709 210.987 99.8994C210.431 100.122 209.795 100.233 209.08 100.233C208.359 100.233 207.718 100.113 207.155 99.873C206.599 99.627 206.127 99.2842 205.74 98.8447C205.359 98.3994 205.069 97.8809 204.87 97.2891C204.677 96.6914 204.58 96.041 204.58 95.3379V95.1445C204.58 95.0449 204.624 94.9482 204.712 94.8545C204.806 94.7549 204.914 94.6436 205.037 94.5205C205.166 94.3975 205.28 94.2422 205.38 94.0547C205.731 93.4043 206.115 92.8594 206.531 92.4199C206.947 91.9746 207.401 91.6406 207.894 91.418C208.392 91.1895 208.942 91.0752 209.546 91.0752ZM209.062 93.0527C208.588 93.0527 208.207 93.167 207.92 93.3955C207.633 93.6182 207.425 93.917 207.296 94.292C207.173 94.6611 207.111 95.0654 207.111 95.5049V95.6895C207.111 96.0469 207.146 96.3809 207.217 96.6914C207.287 96.9961 207.398 97.2686 207.551 97.5088C207.703 97.7432 207.905 97.9277 208.157 98.0625C208.409 98.1914 208.717 98.2559 209.08 98.2559C209.432 98.2559 209.73 98.1914 209.977 98.0625C210.229 97.9277 210.431 97.7432 210.583 97.5088C210.735 97.2686 210.847 96.9961 210.917 96.6914C210.987 96.3809 211.022 96.0469 211.022 95.6895V95.5049C211.022 95.1709 210.987 94.8574 210.917 94.5645C210.847 94.2656 210.735 94.0049 210.583 93.7822C210.431 93.5537 210.229 93.375 209.977 93.2461C209.725 93.1172 209.42 93.0527 209.062 93.0527ZM214.688 95.3906V95.2061C214.688 94.5088 214.787 93.8672 214.986 93.2812C215.186 92.6895 215.476 92.1768 215.856 91.7432C216.237 91.3096 216.706 90.9727 217.263 90.7324C217.819 90.4863 218.458 90.3633 219.179 90.3633C219.899 90.3633 220.541 90.4863 221.104 90.7324C221.666 90.9727 222.138 91.3096 222.519 91.7432C222.905 92.1768 223.198 92.6895 223.397 93.2812C223.597 93.8672 223.696 94.5088 223.696 95.2061V95.3906C223.696 96.082 223.597 96.7236 223.397 97.3154C223.198 97.9014 222.905 98.4141 222.519 98.8535C222.138 99.2871 221.669 99.624 221.112 99.8643C220.556 100.104 219.917 100.225 219.196 100.225C218.476 100.225 217.834 100.104 217.271 99.8643C216.715 99.624 216.243 99.2871 215.856 98.8535C215.476 98.4141 215.186 97.9014 214.986 97.3154C214.787 96.7236 214.688 96.082 214.688 95.3906ZM217.219 95.2061V95.3906C217.219 95.7891 217.254 96.1611 217.324 96.5068C217.395 96.8525 217.506 97.1572 217.658 97.4209C217.816 97.6787 218.021 97.8809 218.273 98.0273C218.525 98.1738 218.833 98.2471 219.196 98.2471C219.548 98.2471 219.85 98.1738 220.102 98.0273C220.354 97.8809 220.556 97.6787 220.708 97.4209C220.86 97.1572 220.972 96.8525 221.042 96.5068C221.118 96.1611 221.156 95.7891 221.156 95.3906V95.2061C221.156 94.8193 221.118 94.4561 221.042 94.1162C220.972 93.7705 220.857 93.4658 220.699 93.2021C220.547 92.9326 220.345 92.7217 220.093 92.5693C219.841 92.417 219.536 92.3408 219.179 92.3408C218.821 92.3408 218.517 92.417 218.265 92.5693C218.019 92.7217 217.816 92.9326 217.658 93.2021C217.506 93.4658 217.395 93.7705 217.324 94.1162C217.254 94.4561 217.219 94.8193 217.219 95.2061ZM229.849 90.5391V100.049H227.309V90.5391H229.849ZM232.907 90.5391V92.499H224.294V90.5391H232.907Z" fill="#333333"/>
<defs>
<filter id="filter0_ddd_13_4722" x="200.609" y="110.035" width="29.7338" height="29.7335" filterUnits="userSpaceOnUse" color-interpolation-filters="sRGB">
<feFlood flood-opacity="0" result="BackgroundImageFix"/>
<feColorMatrix in="SourceAlpha" type="matrix" values="0 0 0 0 0 0 0 0 0 0 0 0 0 0 0 0 0 0 127 0" result="hardAlpha"/>
<feOffset dy="0.991126"/>
<feGaussianBlur stdDeviation="2.47782"/>
<feComposite in2="hardAlpha" operator="out"/>
<feColorMatrix type="matrix" values="0 0 0 0 0 0 0 0 0 0 0 0 0 0 0 0 0 0 0.12 0"/>
<feBlend mode="normal" in2="BackgroundImageFix" result="effect1_dropShadow_13_4722"/>
<feColorMatrix in="SourceAlpha" type="matrix" values="0 0 0 0 0 0 0 0 0 0 0 0 0 0 0 0 0 0 127 0" result="hardAlpha"/>
<feMorphology radius="1.98225" operator="erode" in="SourceAlpha" result="effect2_dropShadow_13_4722"/>
<feOffset dy="2.97338"/>
<feGaussianBlur stdDeviation="0.495563"/>
<feComposite in2="hardAlpha" operator="out"/>
<feColorMatrix type="matrix" values="0 0 0 0 0 0 0 0 0 0 0 0 0 0 0 0 0 0 0.2 0"/>
<feBlend mode="normal" in2="effect1_dropShadow_13_4722" result="effect2_dropShadow_13_4722"/>
<feColorMatrix in="SourceAlpha" type="matrix" values="0 0 0 0 0 0 0 0 0 0 0 0 0 0 0 0 0 0 127 0" result="hardAlpha"/>
<feOffset dy="1.98225"/>
<feGaussianBlur stdDeviation="0.991126"/>
<feComposite in2="hardAlpha" operator="out"/>
<feColorMatrix type="matrix" values="0 0 0 0 0 0 0 0 0 0 0 0 0 0 0 0 0 0 0.14 0"/>
<feBlend mode="normal" in2="effect2_dropShadow_13_4722" result="effect3_dropShadow_13_4722"/>
<feBlend mode="normal" in="SourceGraphic" in2="effect3_dropShadow_13_4722" result="shape"/>
</filter>
<clipPath id="clip0_13_4722">
<rect width="24.9373" height="28.8339" fill="white" transform="translate(177.817 21.8535)"/>
</clipPath>
<clipPath id="clip1_13_4722">
<rect width="23.5411" height="30.6036" fill="white" transform="translate(180.119 18.5576)"/>
</clipPath>
<clipPath id="clip2_13_4722">
<rect width="20.6437" height="26.837" fill="white" transform="translate(180.119 23.7354)"/>
</clipPath>
</defs>
</svg>
