<svg width="28" height="34" viewBox="0 0 28 34" fill="none" xmlns="http://www.w3.org/2000/svg">
<path d="M14.0001 0.333008L14.1951 0.344674C14.5671 0.388548 14.9135 0.556473 15.1784 0.82136C15.4433 1.08625 15.6112 1.43265 15.6551 1.80467L15.6667 1.99967V8.66634L15.6751 8.91634C15.7347 9.70996 16.0763 10.4561 16.6382 11.0197C17.2 11.5834 17.945 11.9274 18.7384 11.9897L19.0001 11.9997H25.6667L25.8617 12.0113C26.2338 12.0552 26.5802 12.2231 26.8451 12.488C27.1099 12.7529 27.2779 13.0993 27.3217 13.4713L27.3334 13.6663V28.6663C27.3335 29.9417 26.8462 31.1689 25.9713 32.0968C25.0963 33.0247 23.8999 33.5832 22.6267 33.658L22.3334 33.6663H5.66675C4.3914 33.6664 3.16422 33.1791 2.23631 32.3042C1.3084 31.4293 0.749902 30.2328 0.675082 28.9597L0.666748 28.6663V5.33301C0.666677 4.05766 1.15396 2.83048 2.02889 1.90257C2.90382 0.974663 4.10026 0.416162 5.37341 0.341341L5.66675 0.333008H14.0001Z" fill="#57B36E"/>
<path d="M25.6666 8.66638H19L18.9983 1.99805L25.6666 8.66638Z" fill="#57B36E"/>
</svg>
