<svg width="40" height="36" viewBox="0 0 40 36" fill="none" xmlns="http://www.w3.org/2000/svg">
<path d="M21.6666 34.5827C21.6666 34.5827 24.0133 31.4943 25.4916 26.3327M21.6666 1.41602C21.6666 1.41602 24.0133 4.50268 25.4916 9.66602M18.3333 34.5827C18.3333 34.5827 15.9866 31.496 14.5083 26.3327M18.3333 1.41602C18.3333 1.41602 15.9866 4.50268 14.5083 9.66602M15 14.666L17.5 22.9993L20 14.666L22.5 22.9993L25 14.666M1.66663 14.666L4.16663 22.9993L6.66663 14.666L9.16663 22.9993L11.6666 14.666M28.3333 14.666L30.8333 22.9993L33.3333 14.666L35.8333 22.9993L38.3333 14.666" stroke="#57B36E" stroke-width="2.5" stroke-linecap="round" stroke-linejoin="round"/>
</svg>
