<svg width="26" height="21" viewBox="0 0 26 21" fill="none" xmlns="http://www.w3.org/2000/svg">
<path d="M11.0322 14.9363C11.5275 15.4316 12.1671 15.6742 12.9513 15.6643C13.7354 15.6544 14.3132 15.3705 14.6846 14.8125L21.6179 4.41253L11.2179 11.3459C10.6608 11.7173 10.3669 12.2848 10.3364 13.0482C10.3059 13.8117 10.5378 14.4411 11.0322 14.9363ZM12.9513 0.698244C14.1687 0.698244 15.34 0.868688 16.465 1.20958C17.59 1.55047 18.6473 2.06097 19.637 2.7411L17.2846 4.22682C16.6036 3.87602 15.8971 3.61313 15.165 3.43815C14.4329 3.26316 13.6949 3.17526 12.9513 3.17443C10.2068 3.17443 7.86971 4.13891 5.93993 6.06786C4.01015 7.99682 3.04568 10.3339 3.0465 13.0792C3.0465 13.9459 3.16536 14.8022 3.40307 15.6482C3.64079 16.4943 3.9759 17.2887 4.40841 18.0316H21.4941C21.9687 17.2475 22.3146 16.4324 22.5316 15.5863C22.7487 14.7403 22.8569 13.8633 22.856 12.9554C22.856 12.2125 22.7681 11.4903 22.5923 10.7887C22.4165 10.0871 22.1536 9.40618 21.8036 8.74586L23.2894 6.39348C23.9084 7.36332 24.3987 8.39507 24.7602 9.48872C25.1217 10.5824 25.3124 11.7173 25.3322 12.8935C25.3529 14.0697 25.2187 15.1943 24.9298 16.2673C24.6409 17.3403 24.2179 18.3617 23.6608 19.3316C23.4338 19.703 23.1243 19.9919 22.7322 20.1982C22.3402 20.4046 21.9275 20.5078 21.4941 20.5078H4.40841C3.97507 20.5078 3.56238 20.4046 3.17031 20.1982C2.77825 19.9919 2.46872 19.703 2.24174 19.3316C1.70523 18.403 1.29253 17.4175 1.00365 16.375C0.714757 15.3325 0.570312 14.2339 0.570312 13.0792C0.570312 11.3665 0.895519 9.76193 1.54593 8.26548C2.19634 6.76904 3.08365 5.45913 4.20784 4.33577C5.33203 3.21075 6.64688 2.32304 8.15241 1.67262C9.65793 1.02221 11.2575 0.697418 12.9513 0.698244Z" fill="#4399FF"/>
</svg>
