<svg width="56" height="41" viewBox="0 0 56 41" fill="none" xmlns="http://www.w3.org/2000/svg">
<path d="M54.9034 1.09467C55.251 1.44079 55.5268 1.85196 55.715 2.30464C55.9031 2.75733 56 3.24262 56 3.73272C56 4.22283 55.9031 4.70812 55.715 5.1608C55.5268 5.61348 55.251 6.02466 54.9034 6.37078L21.3103 39.9053C20.9635 40.2523 20.5516 40.5276 20.0982 40.7155C19.6447 40.9033 19.1586 41 18.6676 41C18.1766 41 17.6905 40.9033 17.237 40.7155C16.7835 40.5276 16.3716 40.2523 16.0249 39.9053L1.09463 25.0011C0.393748 24.3014 0 23.3525 0 22.363C0 21.3736 0.393748 20.4246 1.09463 19.725C1.7955 19.0253 2.7461 18.6323 3.73729 18.6323C4.72848 18.6323 5.67907 19.0253 6.37995 19.725L18.6676 31.9986L49.6181 1.09467C49.9648 0.747675 50.3767 0.472373 50.8302 0.284532C51.2837 0.0966902 51.7698 0 52.2608 0C52.7517 0 53.2379 0.0966902 53.6913 0.284532C54.1448 0.472373 54.5567 0.747675 54.9034 1.09467Z" fill="#27C58B"/>
</svg>
