<svg width="32" height="33" viewBox="0 0 32 33" fill="none" xmlns="http://www.w3.org/2000/svg">
<path d="M15.9998 0.666748C16.4198 0.666748 16.8225 0.833563 17.1194 1.1305C17.4164 1.42743 17.5832 1.83016 17.5832 2.25008V2.33716C20.7955 2.69723 23.7902 4.13831 26.0759 6.42403C28.3616 8.70974 29.8027 11.7044 30.1628 14.9167H30.2498C30.6698 14.9167 31.0725 15.0836 31.3694 15.3805C31.6664 15.6774 31.8332 16.0802 31.8332 16.5001C31.8332 16.92 31.6664 17.3227 31.3694 17.6197C31.0725 17.9166 30.6698 18.0834 30.2498 18.0834H30.1628C29.8027 21.2958 28.3616 24.2904 26.0759 26.5761C23.7902 28.8619 20.7955 30.3029 17.5832 30.663V30.7501C17.5832 31.17 17.4164 31.5727 17.1194 31.8697C16.8225 32.1666 16.4198 32.3334 15.9998 32.3334C15.5799 32.3334 15.1772 32.1666 14.8803 31.8697C14.5833 31.5727 14.4165 31.17 14.4165 30.7501V30.663C11.2041 30.3029 8.20949 28.8619 5.92378 26.5761C3.63807 24.2904 2.19699 21.2958 1.83692 18.0834H1.74984C1.32991 18.0834 0.927184 17.9166 0.630251 17.6197C0.333319 17.3227 0.166504 16.92 0.166504 16.5001C0.166504 16.0802 0.333319 15.6774 0.630251 15.3805C0.927184 15.0836 1.32991 14.9167 1.74984 14.9167H1.83692C2.19699 11.7044 3.63807 8.70974 5.92378 6.42403C8.20949 4.13831 11.2041 2.69723 14.4165 2.33716V2.25008C14.4165 1.83016 14.5833 1.42743 14.8803 1.1305C15.1772 0.833563 15.5799 0.666748 15.9998 0.666748ZM17.5832 5.52758V7.00008C17.5827 7.40364 17.4282 7.7918 17.1512 8.08525C16.8741 8.3787 16.4955 8.55529 16.0926 8.57894C15.6898 8.60259 15.2931 8.47151 14.9836 8.2125C14.6741 7.95348 14.4753 7.58607 14.4276 7.18533L14.4165 7.00008V5.52758C12.1172 5.86059 9.98043 6.90715 8.30775 8.5196C6.63508 10.1321 5.5109 12.229 5.09384 14.5146L5.02892 14.9167H6.49984C6.9034 14.9172 7.29156 15.0717 7.585 15.3488C7.87845 15.6258 8.05504 16.0044 8.07869 16.4073C8.10234 16.8102 7.97127 17.2068 7.71225 17.5163C7.45323 17.8258 7.08582 18.0247 6.68509 18.0723L6.49984 18.0834H5.02734C5.36035 20.3828 6.40691 22.5195 8.01936 24.1922C9.63181 25.8648 11.7288 26.989 14.0143 27.4061L14.4165 27.471V26.0001C14.417 25.5965 14.5715 25.2084 14.8485 24.9149C15.1255 24.6215 15.5042 24.4449 15.907 24.4212C16.3099 24.3976 16.7066 24.5286 17.0161 24.7877C17.3255 25.0467 17.5244 25.4141 17.5721 25.8148L17.5832 26.0001V27.4726C19.8825 27.1396 22.0192 26.093 23.6919 24.4806C25.3646 22.8681 26.4888 20.7712 26.9058 18.4856L26.9708 18.0834H25.4998C25.0963 18.083 24.7081 17.9284 24.4147 17.6514C24.1212 17.3744 23.9446 16.9957 23.921 16.5929C23.8973 16.19 24.0284 15.7933 24.2874 15.4838C24.5464 15.1744 24.9139 14.9755 25.3146 14.9278L25.4998 14.9167H26.9723C26.6393 12.6174 25.5928 10.4807 23.9803 8.808C22.3679 7.13532 20.2709 6.01115 17.9853 5.59408L17.5832 5.52758ZM15.9998 14.1251C16.6297 14.1251 17.2338 14.3753 17.6792 14.8207C18.1246 15.2661 18.3748 15.8702 18.3748 16.5001C18.3748 17.13 18.1246 17.7341 17.6792 18.1795C17.2338 18.6249 16.6297 18.8751 15.9998 18.8751C15.3699 18.8751 14.7659 18.6249 14.3205 18.1795C13.8751 17.7341 13.6248 17.13 13.6248 16.5001C13.6248 15.8702 13.8751 15.2661 14.3205 14.8207C14.7659 14.3753 15.3699 14.1251 15.9998 14.1251Z" fill="#EF911F"/>
</svg>
