<svg width="114" height="109" viewBox="0 0 114 109" fill="none" xmlns="http://www.w3.org/2000/svg">
<circle cx="57" cy="50.5977" r="49" fill="#F4FBFE" stroke="#24B5F4" stroke-width="2"/>
<g filter="url(#filter0_d_129_15273)">
<path d="M72.6873 40.9518C73.2894 41.521 73.6408 42.306 73.6643 43.1343C73.6877 43.9625 73.3813 44.7661 72.8123 45.3685L55.104 64.1185C54.817 64.4218 54.4721 64.6646 54.0897 64.8324C53.7073 65.0002 53.2952 65.0896 52.8776 65.0954C52.4601 65.1013 52.0456 65.0233 51.6587 64.8663C51.2717 64.7092 50.9202 64.4762 50.6248 64.181L41.2498 54.806C40.6978 54.2136 40.3973 53.4301 40.4116 52.6205C40.4259 51.8109 40.7539 51.0385 41.3264 50.4659C41.899 49.8933 42.6714 49.5654 43.481 49.5511C44.2906 49.5368 45.0741 49.8373 45.6665 50.3893L52.7707 57.4893L68.2707 41.0768C68.8399 40.4747 69.6249 40.1233 70.4531 40.0999C71.2814 40.0764 72.085 40.3829 72.6873 40.9518Z" fill="#24B5F4"/>
</g>
<rect x="5" y="71.5977" width="36" height="36" rx="18" fill="#F4FBFE" stroke="#24B5F4" stroke-width="2"/>
<path d="M21.1543 88.4238H22.5605C23.1074 88.4238 23.5599 88.3294 23.918 88.1406C24.2826 87.9518 24.5527 87.6914 24.7285 87.3594C24.9043 87.0273 24.9922 86.6465 24.9922 86.2168C24.9922 85.7676 24.9108 85.3835 24.748 85.0645C24.5918 84.7389 24.3509 84.4883 24.0254 84.3125C23.7064 84.1367 23.2995 84.0488 22.8047 84.0488C22.388 84.0488 22.0104 84.1335 21.6719 84.3027C21.3398 84.4655 21.0762 84.6999 20.8809 85.0059C20.6855 85.3053 20.5879 85.6634 20.5879 86.0801H18.2246C18.2246 85.3249 18.4232 84.6543 18.8203 84.0684C19.2174 83.4824 19.7578 83.0234 20.4414 82.6914C21.1315 82.3529 21.9062 82.1836 22.7656 82.1836C23.6836 82.1836 24.4844 82.3366 25.168 82.6426C25.8581 82.9421 26.3952 83.3913 26.7793 83.9902C27.1634 84.5892 27.3555 85.3314 27.3555 86.2168C27.3555 86.6204 27.2611 87.0306 27.0723 87.4473C26.8835 87.8639 26.6035 88.2448 26.2324 88.5898C25.8613 88.9284 25.3991 89.2051 24.8457 89.4199C24.2923 89.6283 23.651 89.7324 22.9219 89.7324H21.1543V88.4238ZM21.1543 90.2598V88.9707H22.9219C23.7552 88.9707 24.4648 89.0684 25.0508 89.2637C25.6432 89.459 26.125 89.7292 26.4961 90.0742C26.8672 90.4128 27.1374 90.8001 27.3066 91.2363C27.4824 91.6725 27.5703 92.1348 27.5703 92.623C27.5703 93.2871 27.4499 93.8796 27.209 94.4004C26.9746 94.9147 26.6393 95.3509 26.2031 95.709C25.7669 96.0671 25.2559 96.3372 24.6699 96.5195C24.0905 96.7018 23.459 96.793 22.7754 96.793C22.1634 96.793 21.5775 96.7083 21.0176 96.5391C20.4577 96.3698 19.9564 96.1191 19.5137 95.7871C19.071 95.4486 18.7194 95.0286 18.459 94.5273C18.2051 94.0195 18.0781 93.4336 18.0781 92.7695H20.4316C20.4316 93.1927 20.5293 93.5671 20.7246 93.8926C20.9264 94.2116 21.2064 94.4622 21.5645 94.6445C21.929 94.8268 22.3457 94.918 22.8145 94.918C23.3092 94.918 23.7357 94.8301 24.0938 94.6543C24.4518 94.4785 24.7253 94.2181 24.9141 93.873C25.1094 93.528 25.207 93.1113 25.207 92.623C25.207 92.0697 25.0996 91.6204 24.8848 91.2754C24.6699 90.9303 24.3639 90.6764 23.9668 90.5137C23.5697 90.3444 23.1009 90.2598 22.5605 90.2598H21.1543Z" fill="#24B5F4"/>
<defs>
<filter id="filter0_d_129_15273" x="0.411133" y="0.0986328" width="113.254" height="104.997" filterUnits="userSpaceOnUse" color-interpolation-filters="sRGB">
<feFlood flood-opacity="0" result="BackgroundImageFix"/>
<feColorMatrix in="SourceAlpha" type="matrix" values="0 0 0 0 0 0 0 0 0 0 0 0 0 0 0 0 0 0 127 0" result="hardAlpha"/>
<feOffset/>
<feGaussianBlur stdDeviation="20"/>
<feComposite in2="hardAlpha" operator="out"/>
<feColorMatrix type="matrix" values="0 0 0 0 0.141176 0 0 0 0 0.709804 0 0 0 0 0.956863 0 0 0 0.8 0"/>
<feBlend mode="normal" in2="BackgroundImageFix" result="effect1_dropShadow_129_15273"/>
<feBlend mode="normal" in="SourceGraphic" in2="effect1_dropShadow_129_15273" result="shape"/>
</filter>
</defs>
</svg>
