<svg width="109" height="109" viewBox="0 0 109 109" fill="none" xmlns="http://www.w3.org/2000/svg">
<circle cx="59" cy="50.5977" r="49" fill="#F4FBFE" stroke="#24B5F4" stroke-width="2"/>
<path d="M74.4286 53.1652H61.5714V66.0223C61.5714 66.7043 61.3005 67.3584 60.8183 67.8406C60.336 68.3228 59.682 68.5938 59 68.5938C58.318 68.5938 57.664 68.3228 57.1817 67.8406C56.6995 67.3584 56.4286 66.7043 56.4286 66.0223V53.1652H43.5714C42.8894 53.1652 42.2354 52.8943 41.7532 52.412C41.2709 51.9298 41 51.2757 41 50.5938C41 49.9118 41.2709 49.2577 41.7532 48.7755C42.2354 48.2932 42.8894 48.0223 43.5714 48.0223H56.4286V35.1652C56.4286 34.4832 56.6995 33.8291 57.1817 33.3469C57.664 32.8647 58.318 32.5938 59 32.5938C59.682 32.5938 60.336 32.8647 60.8183 33.3469C61.3005 33.8291 61.5714 34.4832 61.5714 35.1652V48.0223H74.4286C75.1106 48.0223 75.7646 48.2932 76.2468 48.7755C76.7291 49.2577 77 49.9118 77 50.5938C77 51.2757 76.7291 51.9298 76.2468 52.412C75.7646 52.8943 75.1106 53.1652 74.4286 53.1652Z" fill="#24B5F4"/>
<rect x="1" y="71.5977" width="36" height="36" rx="18" fill="#F4FBFE" stroke="#24B5F4" stroke-width="2"/>
<path d="M20.8164 82.3301V96.5977H18.4629V85.123L14.9766 86.3047V84.3613L20.5332 82.3301H20.8164Z" fill="#24B5F4"/>
</svg>
