<svg width="111" height="119" viewBox="0 0 111 119" fill="none" xmlns="http://www.w3.org/2000/svg">
<circle cx="55" cy="59.5977" r="49" fill="#F4FBFE" stroke="#24B5F4" stroke-width="2"/>
<g filter="url(#filter0_d_129_15294)">
<path d="M43.0003 74.181C43.0003 76.4727 44.8753 78.3477 47.167 78.3477H63.8337C66.1253 78.3477 68.0003 76.4727 68.0003 74.181V53.3477C68.0003 51.056 66.1253 49.181 63.8337 49.181H47.167C44.8753 49.181 43.0003 51.056 43.0003 53.3477V74.181ZM68.0003 42.931H62.792L61.3128 41.4518C60.9378 41.0768 60.3962 40.8477 59.8545 40.8477H51.1462C50.6045 40.8477 50.0628 41.0768 49.6878 41.4518L48.2087 42.931H43.0003C41.8545 42.931 40.917 43.8685 40.917 45.0143C40.917 46.1602 41.8545 47.0977 43.0003 47.0977H68.0003C69.1462 47.0977 70.0837 46.1602 70.0837 45.0143C70.0837 43.8685 69.1462 42.931 68.0003 42.931Z" fill="#24B5F4"/>
</g>
<rect x="3" y="80.5977" width="36" height="36" rx="18" fill="#F4FBFE" stroke="#24B5F4" stroke-width="2"/>
<path d="M18.8613 98.9863L16.9863 98.5273L17.7578 91.3789H25.4238V93.3711H19.7109L19.3203 96.8574C19.5417 96.7272 19.8477 96.6003 20.2383 96.4766C20.6289 96.3464 21.0749 96.2812 21.5762 96.2812C22.2467 96.2812 22.8457 96.3919 23.373 96.6133C23.9069 96.8281 24.3594 97.1439 24.7305 97.5605C25.1016 97.9707 25.3848 98.472 25.5801 99.0645C25.7754 99.6504 25.873 100.311 25.873 101.047C25.873 101.704 25.7754 102.32 25.5801 102.893C25.3913 103.465 25.1048 103.97 24.7207 104.406C24.3366 104.842 23.8516 105.184 23.2656 105.432C22.6862 105.673 21.9993 105.793 21.2051 105.793C20.6126 105.793 20.043 105.708 19.4961 105.539C18.9557 105.363 18.4707 105.106 18.041 104.768C17.6113 104.423 17.2663 103.999 17.0059 103.498C16.7454 102.99 16.5957 102.408 16.5566 101.75H18.8613C18.9199 102.212 19.0469 102.606 19.2422 102.932C19.444 103.251 19.7109 103.495 20.043 103.664C20.375 103.833 20.7591 103.918 21.1953 103.918C21.5924 103.918 21.9342 103.85 22.2207 103.713C22.5072 103.57 22.7448 103.368 22.9336 103.107C23.1289 102.84 23.2721 102.528 23.3633 102.17C23.4609 101.812 23.5098 101.415 23.5098 100.979C23.5098 100.562 23.4544 100.181 23.3438 99.8359C23.2396 99.4909 23.0801 99.1914 22.8652 98.9375C22.6569 98.6836 22.3932 98.4883 22.0742 98.3516C21.7552 98.2083 21.3874 98.1367 20.9707 98.1367C20.4108 98.1367 19.9811 98.2181 19.6816 98.3809C19.3887 98.5436 19.1152 98.7454 18.8613 98.9863Z" fill="#24B5F4"/>
<defs>
<filter id="filter0_d_129_15294" x="0.916992" y="0.847656" width="109.167" height="117.5" filterUnits="userSpaceOnUse" color-interpolation-filters="sRGB">
<feFlood flood-opacity="0" result="BackgroundImageFix"/>
<feColorMatrix in="SourceAlpha" type="matrix" values="0 0 0 0 0 0 0 0 0 0 0 0 0 0 0 0 0 0 127 0" result="hardAlpha"/>
<feOffset/>
<feGaussianBlur stdDeviation="20"/>
<feComposite in2="hardAlpha" operator="out"/>
<feColorMatrix type="matrix" values="0 0 0 0 0.141176 0 0 0 0 0.709804 0 0 0 0 0.956863 0 0 0 0.5 0"/>
<feBlend mode="normal" in2="BackgroundImageFix" result="effect1_dropShadow_129_15294"/>
<feBlend mode="normal" in="SourceGraphic" in2="effect1_dropShadow_129_15294" result="shape"/>
</filter>
</defs>
</svg>
