<svg width="82" height="82" viewBox="0 0 82 82" fill="none" xmlns="http://www.w3.org/2000/svg">
<path d="M0 13.12C0 5.87403 5.87402 0 13.12 0H68.88C76.126 0 82 5.87402 82 13.12V68.88C82 76.126 76.126 82 68.88 82H13.12C5.87403 82 0 76.126 0 68.88V13.12Z" fill="url(#paint0_linear_129_15076)" fill-opacity="0.2"/>
<path d="M49.775 18.0498H33.375C32.0158 18.0498 30.7122 18.5898 29.7511 19.5509C28.79 20.512 28.25 21.8156 28.25 23.1748V58.0248C28.25 59.384 28.79 60.6876 29.7511 61.6487C30.7122 62.6098 32.0158 63.1498 33.375 63.1498H49.775C51.1342 63.1498 52.4378 62.6098 53.3989 61.6487C54.36 60.6876 54.9 59.384 54.9 58.0248V23.1748C54.9 21.8156 54.36 20.512 53.3989 19.5509C52.4378 18.5898 51.1342 18.0498 49.775 18.0498ZM41.575 61.0998C39.8735 61.0998 38.5 59.7263 38.5 58.0248C38.5 56.3233 39.8735 54.9498 41.575 54.9498C43.2765 54.9498 44.65 56.3233 44.65 58.0248C44.65 59.7263 43.2765 61.0998 41.575 61.0998ZM50.8 52.8998H32.35V24.1998H50.8V52.8998Z" fill="#333333"/>
<path d="M49.775 18.0498H33.375C32.0158 18.0498 30.7122 18.5898 29.7511 19.5509C28.79 20.512 28.25 21.8156 28.25 23.1748V58.0248C28.25 59.384 28.79 60.6876 29.7511 61.6487C30.7122 62.6098 32.0158 63.1498 33.375 63.1498H49.775C51.1342 63.1498 52.4378 62.6098 53.3989 61.6487C54.36 60.6876 54.9 59.384 54.9 58.0248V23.1748C54.9 21.8156 54.36 20.512 53.3989 19.5509C52.4378 18.5898 51.1342 18.0498 49.775 18.0498ZM41.575 61.0998C39.8735 61.0998 38.5 59.7263 38.5 58.0248C38.5 56.3233 39.8735 54.9498 41.575 54.9498C43.2765 54.9498 44.65 56.3233 44.65 58.0248C44.65 59.7263 43.2765 61.0998 41.575 61.0998ZM50.8 52.8998H32.35V24.1998H50.8V52.8998Z" fill="white"/>
<path d="M49.775 18.0498H33.375C32.0158 18.0498 30.7122 18.5898 29.7511 19.5509C28.79 20.512 28.25 21.8156 28.25 23.1748V58.0248C28.25 59.384 28.79 60.6876 29.7511 61.6487C30.7122 62.6098 32.0158 63.1498 33.375 63.1498H49.775C51.1342 63.1498 52.4378 62.6098 53.3989 61.6487C54.36 60.6876 54.9 59.384 54.9 58.0248V23.1748C54.9 21.8156 54.36 20.512 53.3989 19.5509C52.4378 18.5898 51.1342 18.0498 49.775 18.0498ZM41.575 61.0998C39.8735 61.0998 38.5 59.7263 38.5 58.0248C38.5 56.3233 39.8735 54.9498 41.575 54.9498C43.2765 54.9498 44.65 56.3233 44.65 58.0248C44.65 59.7263 43.2765 61.0998 41.575 61.0998ZM50.8 52.8998H32.35V24.1998H50.8V52.8998Z" fill="url(#paint1_linear_129_15076)"/>
<defs>
<linearGradient id="paint0_linear_129_15076" x1="0" y1="0" x2="82" y2="82" gradientUnits="userSpaceOnUse">
<stop stop-color="#2395FE"/>
<stop offset="0.958333" stop-color="#139890"/>
</linearGradient>
<linearGradient id="paint1_linear_129_15076" x1="28.25" y1="18.0498" x2="67.7557" y2="41.3941" gradientUnits="userSpaceOnUse">
<stop stop-color="#2395FE"/>
<stop offset="1" stop-color="#139890"/>
</linearGradient>
</defs>
</svg>
