<svg width="30" height="28" fill="none" xmlns="http://www.w3.org/2000/svg"><path d="M15 .667a2.667 2.667 0 0 1 1.333 4.973v1.693h1.334A9.333 9.333 0 0 1 27 16.667h1.333A1.333 1.333 0 0 1 29.667 18v4a1.334 1.334 0 0 1-1.334 1.333H27v1.334a2.667 2.667 0 0 1-2.667 2.666H5.667A2.667 2.667 0 0 1 3 24.667v-1.334H1.667A1.334 1.334 0 0 1 .333 22v-4a1.333 1.333 0 0 1 1.334-1.333H3a9.333 9.333 0 0 1 9.333-9.334h1.334V5.64A2.667 2.667 0 0 1 15 .667ZM9 15.333A3.333 3.333 0 1 0 9 22a3.333 3.333 0 0 0 0-6.667Zm12 0A3.333 3.333 0 1 0 21 22a3.333 3.333 0 0 0 0-6.667Z" fill="url(#a)"/><defs><linearGradient id="a" x1=".333" y1="14.261" x2="27.73" y2="14.261" gradientUnits="userSpaceOnUse"><stop stop-color="#409DEC"/><stop offset="1" stop-color="#024CBB"/></linearGradient></defs></svg>