<svg width="130" height="42" fill="none" xmlns="http://www.w3.org/2000/svg"><path d="M22 42c12.15 0 22-9.402 22-21S34.15 0 22 0 0 9.402 0 21s9.85 21 22 21Z" fill="#3A64F8"/><path fill-rule="evenodd" clip-rule="evenodd" d="M19.68 14.03c1.412.035 1.529-1.174 1.628-2.2.024-.25.047-.489.087-.696.034-.171.086-.382.144-.617.303-1.224.77-3.11-.392-3.478-1.384-.44-2.644 2.996-2.768 4.015l-.02.153c-.131 1.046-.35 2.782 1.321 2.823Zm-4.028 2.499c1.356-.509 1.01-2.099.689-3.574a104.17 104.17 0 0 1-.07-.322c-.094-.443-.123-1.041-.153-1.669-.076-1.577-.16-3.34-1.314-3.305-1.611.05-2.107 3.885-1.632 6.253 0 0 .366 3.407 2.48 2.617Zm13.404.442c.607.052 1.294.11 1.616.64.64 1.054.33 2.912-.817 4.235-1.148 1.322-3.915 2.193-4.906 2.393-.812.163-.72.611-.584 1.27.03.146.063.302.088.468.138.913.302 4.015.31 6.931.008 2.917-.88 8.05-.88 8.05-.17.839.254.933.254.933-6.03.557-9.817-1.197-9.817-1.197s.245.041.389-.045c.356-.365.494-1.048 1.113-4.11l.121-.595c1.654-8.156 1.118-12.49.928-13.523a16.298 16.298 0 0 0-.06-.296c-.161-.765-.49-2.334-.21-3.3.326-1.119.913-3.002 4.169-3.634 3.256-.633 6.7-.621 7.753-.262 1.054.36 1.164 1.036.95 1.02-.041-.004-.114-.022-.206-.044-.45-.11-1.36-.33-1.343.483.01.486.532.531 1.132.583Zm-9.61 1.699c0 .602.506 1.091 1.129 1.091.3 0 .586-.115.798-.32a1.07 1.07 0 0 0 0-1.543 1.15 1.15 0 0 0-.798-.32c-.3 0-.586.116-.798.32-.212.205-.33.483-.33.772Z" fill="#fff"/><path d="M71.161 12.695v12.387c0 3.055 1.55 4.918 3.835 4.918 1.277 0 2.284-.894 1.897-1.975-.445-1.266-2.401-.428-2.401-3.78v-11.55c0-1.043-.6-1.695-1.665-1.695s-1.666.652-1.666 1.695ZM56 23.405C56 27.096 58.808 30 63.435 30c2.944 0 5.461-.969 5.461-2.459 0-.82-.542-1.267-1.259-1.267-.948 0-2.188.932-4.279.932-1.878 0-3.37-.782-3.911-2.366h4.802c2.75 0 4.976-1.248 4.976-3.707 0-2.272-1.917-4.768-5.964-4.768-4.26 0-7.261 2.794-7.261 7.04Zm3.292-.893c.367-2.31 2.149-3.353 4.163-3.353 1.51 0 2.498.708 2.498 1.658 0 1.099-.814 1.695-2.672 1.695h-3.99Zm18.685 3.092c0 2.477 1.801 4.396 4.745 4.396 2.052 0 3.969-.931 5.092-2.683.29 1.23 1.065 2.683 2.866 2.683 1.026 0 1.743-.559 1.743-1.323 0-1.378-1.879-1.061-1.879-2.533v-4.08c0-3.501-2.13-5.7-6.37-5.7-3.234 0-5.616.876-5.616 2.273 0 .82.581 1.285 1.317 1.285 1.104 0 2.343-.763 4.376-.763 1.627 0 2.75.652 2.924 2.421H82.76c-3.02 0-4.783 1.9-4.783 4.024Zm3.292.13c-.02-.894.717-1.825 2.188-1.825h3.718c-.271 2.235-2.304 3.558-3.95 3.558-1.162 0-1.936-.671-1.956-1.733Zm12.8 2.627c0 .931.6 1.639 1.665 1.639s1.665-.708 1.665-1.64v-6.295c0-2.198 1.181-2.944 2.362-2.944 1.104 0 1.801.746 1.801 2.255v6.985c0 .931.581 1.639 1.646 1.639s1.665-.708 1.665-1.64l.039-6.295c.019-2.198 1.162-2.944 2.343-2.944 1.104 0 1.801.746 1.801 2.217l.019 7.023c0 .931.581 1.639 1.646 1.639s1.665-.708 1.665-1.64v-7.58c0-2.813-1.413-4.397-3.64-4.397-1.607 0-3.253.894-4.144 2.422-.542-1.565-1.82-2.422-3.447-2.422-1.452 0-2.846.82-3.756 2.124v-.634c0-.8-.6-1.508-1.665-1.508s-1.666.708-1.666 1.639V28.36Zm20.486-2.757c0 2.477 1.801 4.396 4.744 4.396 2.052 0 3.969-.931 5.093-2.683.29 1.23 1.065 2.683 2.865 2.683 1.026 0 1.743-.559 1.743-1.323 0-1.378-1.878-1.061-1.878-2.533v-4.08c0-3.501-2.13-5.7-6.371-5.7-3.234 0-5.615.876-5.615 2.273 0 .82.581 1.285 1.316 1.285 1.104 0 2.343-.763 4.377-.763 1.626 0 2.749.652 2.924 2.421h-4.415c-3.021 0-4.783 1.9-4.783 4.024Zm3.292.13c-.02-.894.716-1.825 2.188-1.825h3.718c-.272 2.235-2.305 3.558-3.951 3.558-1.161 0-1.936-.671-1.955-1.733Z" fill="#292E3D"/></svg>