<svg width="103" height="108" fill="none" xmlns="http://www.w3.org/2000/svg"><g clip-path="url(#a)"><circle cx="53" cy="50" r="49" fill="#F4FFF4" stroke="#29B74D" stroke-width="2"/><rect x="1" y="71" width="36" height="36" rx="18" fill="#F4FFF4" stroke="#29B74D" stroke-width="2"/><path d="M24.186 90.932v1.875H13.932l-.079-1.416 6.133-9.61h1.885l-2.04 3.496-3.526 5.655h7.88Zm-1.778-9.15V96h-2.353V81.781h2.353Z" fill="#29B74D"/><g filter="url(#b)"><path d="m64.542 42.381 1.645-3.646 3.646-1.646a1.042 1.042 0 0 0 0-1.895l-3.645-1.646-1.646-3.667a1.042 1.042 0 0 0-1.896 0L61 33.527l-3.667 1.646a1.042 1.042 0 0 0 0 1.895l3.646 1.646 1.646 3.667c.375.813 1.542.813 1.917 0Zm-16.584 3.125-3.312-7.292c-.73-1.625-3.063-1.625-3.792 0l-3.312 7.292-7.292 3.313c-1.625.75-1.625 3.062 0 3.791l7.292 3.313 3.312 7.291c.75 1.625 3.063 1.625 3.792 0l3.312-7.291 7.292-3.313c1.625-.75 1.625-3.062 0-3.791l-7.292-3.313Zm14.667 13.542-1.646 3.645-3.646 1.646a1.042 1.042 0 0 0 0 1.896l3.646 1.646 1.646 3.667a1.042 1.042 0 0 0 1.896 0l1.646-3.646 3.666-1.646a1.042 1.042 0 0 0 0-1.896l-3.645-1.646-1.646-3.666a1.058 1.058 0 0 0-1.917 0Z" fill="#2AB74E"/></g></g><defs><clipPath id="a"><path fill="#fff" d="M0 0h103v108H0z"/></clipPath><filter id="b" x="-10.969" y="-10.729" width="121.412" height="122.886" filterUnits="userSpaceOnUse" color-interpolation-filters="sRGB"><feFlood flood-opacity="0" result="BackgroundImageFix"/><feColorMatrix in="SourceAlpha" values="0 0 0 0 0 0 0 0 0 0 0 0 0 0 0 0 0 0 127 0" result="hardAlpha"/><feOffset/><feGaussianBlur stdDeviation="20"/><feComposite in2="hardAlpha" operator="out"/><feColorMatrix values="0 0 0 0 0.164706 0 0 0 0 0.717647 0 0 0 0 0.305882 0 0 0 0.6 0"/><feBlend in2="BackgroundImageFix" result="effect1_dropShadow_79_7766"/><feBlend in="SourceGraphic" in2="effect1_dropShadow_79_7766" result="shape"/></filter></defs></svg>