<svg width="122" height="122" fill="none" xmlns="http://www.w3.org/2000/svg"><circle cx="62" cy="61" r="49" fill="#F4FFF4" stroke="#29B74D" stroke-width="2"/><g filter="url(#a)"><path d="M45.638 54.496a16.534 16.534 0 0 1 3.562-5.294 16.5 16.5 0 0 1 5.296-3.562 16.917 16.917 0 0 1 12.771-.086 5.188 5.188 0 0 0 5.192 5.03 5.194 5.194 0 0 0 5.208-5.209 5.194 5.194 0 0 0-5.208-5.208 5.185 5.185 0 0 0-3.673 1.51c-5.065-2.027-10.882-1.996-15.907.123A20.791 20.791 0 0 0 40.168 61h4.167c0-2.263.44-4.45 1.304-6.504ZM76.36 67.504a16.534 16.534 0 0 1-3.563 5.294 16.521 16.521 0 0 1-5.296 3.562 16.917 16.917 0 0 1-12.77.086 5.183 5.183 0 0 0-5.19-5.03 5.194 5.194 0 0 0-5.208 5.209 5.194 5.194 0 0 0 5.208 5.208 5.185 5.185 0 0 0 3.673-1.51A20.777 20.777 0 0 0 61 81.833a20.798 20.798 0 0 0 19.203-12.712A20.819 20.819 0 0 0 81.832 61h-4.166a16.652 16.652 0 0 1-1.306 6.504Z" fill="#2AB74E"/></g><g filter="url(#b)"><path d="M61 51.545c-5.213 0-9.455 4.242-9.455 9.454 0 5.213 4.242 9.455 9.454 9.455 5.213 0 9.454-4.242 9.454-9.455 0-5.212-4.241-9.454-9.454-9.454Z" fill="#2AB74E"/></g><rect x="10" y="82" width="36" height="36" rx="18" fill="#F4FFF4" stroke="#29B74D" stroke-width="2"/><path d="M32.922 105.125V107H23.39v-1.611l4.629-5.049c.507-.573.908-1.068 1.2-1.484.294-.417.499-.791.616-1.124.124-.338.186-.667.186-.986 0-.45-.085-.843-.254-1.181a1.858 1.858 0 0 0-.723-.811c-.32-.202-.707-.303-1.162-.303-.527 0-.97.114-1.328.342a2.136 2.136 0 0 0-.81.947c-.183.397-.274.853-.274 1.367h-2.354c0-.826.189-1.582.567-2.265a4.143 4.143 0 0 1 1.64-1.64c.716-.411 1.579-.616 2.588-.616.95 0 1.758.16 2.422.478.664.32 1.169.772 1.514 1.358.351.586.527 1.28.527 2.08 0 .443-.072.882-.215 1.318a6.248 6.248 0 0 1-.615 1.309c-.26.43-.57.862-.928 1.299a23.53 23.53 0 0 1-1.181 1.308l-3.077 3.389h6.563Z" fill="#29B74D"/><defs><filter id="a" x=".167" y=".167" width="121.667" height="121.667" filterUnits="userSpaceOnUse" color-interpolation-filters="sRGB"><feFlood flood-opacity="0" result="BackgroundImageFix"/><feColorMatrix in="SourceAlpha" values="0 0 0 0 0 0 0 0 0 0 0 0 0 0 0 0 0 0 127 0" result="hardAlpha"/><feOffset/><feGaussianBlur stdDeviation="20"/><feComposite in2="hardAlpha" operator="out"/><feColorMatrix values="0 0 0 0 0.164706 0 0 0 0 0.717647 0 0 0 0 0.305882 0 0 0 0.4 0"/><feBlend in2="BackgroundImageFix" result="effect1_dropShadow_79_7748"/><feBlend in="SourceGraphic" in2="effect1_dropShadow_79_7748" result="shape"/></filter><filter id="b" x="11.545" y="11.545" width="98.908" height="98.908" filterUnits="userSpaceOnUse" color-interpolation-filters="sRGB"><feFlood flood-opacity="0" result="BackgroundImageFix"/><feColorMatrix in="SourceAlpha" values="0 0 0 0 0 0 0 0 0 0 0 0 0 0 0 0 0 0 127 0" result="hardAlpha"/><feOffset/><feGaussianBlur stdDeviation="20"/><feComposite in2="hardAlpha" operator="out"/><feColorMatrix values="0 0 0 0 0.164706 0 0 0 0 0.717647 0 0 0 0 0.305882 0 0 0 0.4 0"/><feBlend in2="BackgroundImageFix" result="effect1_dropShadow_79_7748"/><feBlend in="SourceGraphic" in2="effect1_dropShadow_79_7748" result="shape"/></filter></defs></svg>