<svg width="126" height="118" fill="none" xmlns="http://www.w3.org/2000/svg"><circle cx="63" cy="60" r="49" fill="#F4FFF4" stroke="#29B74D" stroke-width="2"/><g filter="url(#a)"><path d="M62.999 55.5a7.5 7.5 0 1 0 0-15 7.5 7.5 0 0 0 0 15Zm-10-2.5a5 5 0 1 1-10 0 5 5 0 0 1 10 0ZM41.724 71.315a1.95 1.95 0 0 1-.895-1.105 7.5 7.5 0 0 1 10.77-8.79 16.21 16.21 0 0 0-4.763 9.897 5.755 5.755 0 0 0 .063 1.636 12.425 12.425 0 0 1-5.175-1.638Zm37.375 1.635a12.424 12.424 0 0 0 5.175-1.635 1.95 1.95 0 0 0 .892-1.105 7.5 7.5 0 0 0-10.77-8.792 16.21 16.21 0 0 1 4.768 9.9 5.801 5.801 0 0 1-.065 1.635v-.003Zm3.9-19.95a5 5 0 1 1-10 0 5 5 0 0 1 10 0Zm-31.74 20.475a2.11 2.11 0 0 1-.693-1.775 12.5 12.5 0 0 1 24.868 0 2.107 2.107 0 0 1-.693 1.775A17.437 17.437 0 0 1 63 78a17.435 17.435 0 0 1-11.74-4.525Z" fill="#2AB74E"/></g><rect x="11" y="81" width="36" height="36" rx="18" fill="#F4FFF4" stroke="#29B74D" stroke-width="2"/><path d="m26.861 99.389-1.875-.46.772-7.148h7.666v1.992H27.71l-.39 3.487c.22-.13.527-.257.917-.381a4.23 4.23 0 0 1 1.338-.195c.67 0 1.27.11 1.797.332.534.215.986.53 1.357.947.372.41.655.911.85 1.504.195.586.293 1.247.293 1.982 0 .658-.098 1.273-.293 1.846a4.307 4.307 0 0 1-.86 1.514 3.935 3.935 0 0 1-1.454 1.025c-.58.241-1.267.361-2.06.361a5.723 5.723 0 0 1-1.71-.254 4.651 4.651 0 0 1-1.455-.771 3.926 3.926 0 0 1-1.035-1.27c-.26-.507-.41-1.09-.45-1.748h2.305c.059.463.186.856.381 1.182.202.319.469.563.801.732.332.17.716.254 1.152.254.397 0 .74-.068 1.026-.205a1.94 1.94 0 0 0 .713-.605 2.7 2.7 0 0 0 .43-.938 4.55 4.55 0 0 0 .146-1.191 3.73 3.73 0 0 0-.166-1.143 2.485 2.485 0 0 0-.479-.898 2.047 2.047 0 0 0-.79-.586 2.67 2.67 0 0 0-1.104-.215c-.56 0-.99.081-1.29.244a4.045 4.045 0 0 0-.82.606Z" fill="#29B74D"/><defs><filter id="a" x=".495" y=".5" width="125.006" height="117.5" filterUnits="userSpaceOnUse" color-interpolation-filters="sRGB"><feFlood flood-opacity="0" result="BackgroundImageFix"/><feColorMatrix in="SourceAlpha" values="0 0 0 0 0 0 0 0 0 0 0 0 0 0 0 0 0 0 127 0" result="hardAlpha"/><feOffset/><feGaussianBlur stdDeviation="20"/><feComposite in2="hardAlpha" operator="out"/><feColorMatrix values="0 0 0 0 0.164706 0 0 0 0 0.717647 0 0 0 0 0.305882 0 0 0 0.4 0"/><feBlend in2="BackgroundImageFix" result="effect1_dropShadow_79_7775"/><feBlend in="SourceGraphic" in2="effect1_dropShadow_79_7775" result="shape"/></filter></defs></svg>