<svg width="126" height="124" fill="none" xmlns="http://www.w3.org/2000/svg"><circle cx="63" cy="64" r="49" fill="#F4FFF4" stroke="#29B74D" stroke-width="2"/><g filter="url(#a)"><path d="M63 40.883a3.798 3.798 0 0 0-3.809 3.808c0 2.11 1.7 3.809 3.809 3.809 2.11 0 3.809-1.7 3.809-3.809 0-2.114-1.7-3.808-3.809-3.808Zm-4.688 8.691a3.801 3.801 0 0 0-3.808 3.809c0 2.11 1.7 3.808 3.809 3.808s3.808-1.699 3.808-3.808c0-2.11-1.7-3.809-3.809-3.809Zm9.376 0c-2.11 0-3.81 1.7-3.81 3.809a3.8 3.8 0 0 0 3.81 3.808 3.8 3.8 0 0 0 3.808-3.808c0-2.11-1.7-3.809-3.808-3.809Zm-14.063 8.79a3.8 3.8 0 0 0-3.809 3.808c0 2.11 1.7 3.809 3.809 3.809 2.11 0 3.809-1.7 3.809-3.81 0-2.108-1.7-3.808-3.809-3.808Zm9.375 0a3.8 3.8 0 0 0-3.809 3.808c0 2.11 1.7 3.809 3.809 3.809 2.11 0 3.809-1.7 3.809-3.81 0-2.108-1.7-3.808-3.809-3.808Zm9.375 0a3.8 3.8 0 0 0-3.809 3.808c0 2.11 1.7 3.809 3.809 3.809 2.11 0 3.809-1.7 3.809-3.81 0-2.108-1.7-3.808-3.809-3.808Zm-23.438 8.73a3.798 3.798 0 0 0-3.808 3.808 3.798 3.798 0 0 0 3.809 3.809c2.109 0 3.808-1.7 3.808-3.809s-1.7-3.808-3.809-3.808Zm9.376 0a3.802 3.802 0 0 0-3.81 3.808c0 2.11 1.7 3.809 3.81 3.809 2.109 0 3.808-1.7 3.808-3.809s-1.7-3.808-3.809-3.808Zm9.374 0a3.8 3.8 0 0 0-3.808 3.808c0 2.11 1.7 3.809 3.809 3.809s3.808-1.7 3.808-3.809-1.7-3.808-3.808-3.808Zm9.376 0a3.802 3.802 0 0 0-3.81 3.808c0 2.11 1.7 3.809 3.81 3.809 2.109 0 3.808-1.7 3.808-3.809s-1.7-3.808-3.808-3.808ZM44.25 75.94a3.798 3.798 0 0 0-3.809 3.809 3.798 3.798 0 0 0 3.809 3.809c2.114 0 3.809-1.7 3.809-3.809a3.798 3.798 0 0 0-3.809-3.809Zm9.375 0c-2.11 0-3.809 1.7-3.809 3.809 0 2.11 1.7 3.809 3.809 3.809 2.11 0 3.809-1.7 3.809-3.809 0-2.11-1.7-3.809-3.809-3.809Zm9.375 0c-2.11 0-3.809 1.7-3.809 3.809 0 2.11 1.7 3.809 3.809 3.809 2.11 0 3.809-1.7 3.809-3.809 0-2.11-1.7-3.809-3.809-3.809Zm9.375 0c-2.11 0-3.809 1.7-3.809 3.809 0 2.11 1.7 3.809 3.809 3.809 2.11 0 3.809-1.7 3.809-3.809 0-2.11-1.7-3.809-3.809-3.809Zm9.375 0c-2.11 0-3.809 1.7-3.809 3.809 0 2.11 1.7 3.809 3.809 3.809 2.11 0 3.809-1.7 3.809-3.809 0-2.11-1.7-3.809-3.809-3.809Z" fill="#2AB74E"/></g><rect x="11" y="85" width="36" height="36" rx="18" fill="#F4FFF4" stroke="#29B74D" stroke-width="2"/><path d="M27.154 101.826h1.407c.546 0 .999-.094 1.357-.283a1.84 1.84 0 0 0 .81-.781c.176-.332.264-.713.264-1.143 0-.45-.081-.833-.244-1.152a1.648 1.648 0 0 0-.723-.752c-.319-.176-.726-.264-1.22-.264a2.5 2.5 0 0 0-1.133.254 1.923 1.923 0 0 0-.791.703c-.195.3-.293.658-.293 1.074h-2.363c0-.755.198-1.425.595-2.011a4.049 4.049 0 0 1 1.621-1.377c.69-.339 1.465-.508 2.325-.508.918 0 1.718.153 2.402.459.69.3 1.227.749 1.611 1.348.384.599.576 1.34.576 2.226 0 .404-.094.814-.283 1.231a3.579 3.579 0 0 1-.84 1.142c-.37.339-.833.615-1.386.83-.554.209-1.195.313-1.924.313h-1.768v-1.309Zm0 1.836v-1.289h1.768c.833 0 1.543.098 2.129.293.592.195 1.074.466 1.445.811.371.338.641.725.81 1.162.176.436.264.898.264 1.386 0 .664-.12 1.257-.361 1.778-.234.514-.57.95-1.006 1.308a4.485 4.485 0 0 1-1.533.811 6.298 6.298 0 0 1-1.895.273 6.016 6.016 0 0 1-1.757-.254 4.79 4.79 0 0 1-1.504-.752 3.725 3.725 0 0 1-1.055-1.259c-.254-.508-.38-1.094-.38-1.758h2.353c0 .423.097.797.293 1.123.201.319.481.57.84.752.364.182.78.273 1.25.273.494 0 .92-.088 1.279-.263.358-.176.631-.437.82-.782.195-.345.293-.761.293-1.25 0-.553-.107-1.002-.322-1.347a1.898 1.898 0 0 0-.918-.762c-.397-.169-.866-.254-1.406-.254h-1.407Z" fill="#29B74D"/><defs><filter id="a" x=".441" y=".883" width="125.117" height="122.676" filterUnits="userSpaceOnUse" color-interpolation-filters="sRGB"><feFlood flood-opacity="0" result="BackgroundImageFix"/><feColorMatrix in="SourceAlpha" values="0 0 0 0 0 0 0 0 0 0 0 0 0 0 0 0 0 0 127 0" result="hardAlpha"/><feOffset/><feGaussianBlur stdDeviation="20"/><feComposite in2="hardAlpha" operator="out"/><feColorMatrix values="0 0 0 0 0.164706 0 0 0 0 0.717647 0 0 0 0 0.305882 0 0 0 0.4 0"/><feBlend in2="BackgroundImageFix" result="effect1_dropShadow_79_7757"/><feBlend in="SourceGraphic" in2="effect1_dropShadow_79_7757" result="shape"/></filter></defs></svg>