<svg width="130" height="120" fill="none" xmlns="http://www.w3.org/2000/svg"><circle cx="65" cy="60" r="49" fill="#F4FFF4" stroke="#29B74D" stroke-width="2"/><rect x="13" y="81" width="36" height="36" rx="18" fill="#F4FFF4" stroke="#29B74D" stroke-width="2"/><path d="M32.816 91.732V106h-2.353V94.525l-3.486 1.182v-1.943l5.556-2.032h.283Z" fill="#29B74D"/><g filter="url(#a)"><path d="M54.005 53.984 46.798 60l7.207 6.016a2.343 2.343 0 1 1-3.008 3.593l-9.375-7.812a2.342 2.342 0 0 1 0-3.594l9.375-7.812a2.343 2.343 0 0 1 3.008 3.593Zm34.375 4.22-9.375-7.813a2.344 2.344 0 0 0-3.008 3.593L83.224 60l-7.227 6.016a2.323 2.323 0 0 0-.293 3.3 2.382 2.382 0 0 0 1.797.84c.55 0 1.082-.194 1.504-.547l9.375-7.812a2.343 2.343 0 0 0 0-3.594Zm-16.328-17.6a2.363 2.363 0 0 0-3.008 1.407l-12.5 34.375a2.364 2.364 0 0 0 1.406 3.007c.257.093.528.14.801.137a2.344 2.344 0 0 0 2.207-1.543l12.5-34.375a2.363 2.363 0 0 0-1.406-3.008Z" fill="#2AB74E"/></g><defs><filter id="a" x=".783" y=".469" width="128.436" height="119.062" filterUnits="userSpaceOnUse" color-interpolation-filters="sRGB"><feFlood flood-opacity="0" result="BackgroundImageFix"/><feColorMatrix in="SourceAlpha" values="0 0 0 0 0 0 0 0 0 0 0 0 0 0 0 0 0 0 127 0" result="hardAlpha"/><feOffset/><feGaussianBlur stdDeviation="20"/><feComposite in2="hardAlpha" operator="out"/><feColorMatrix values="0 0 0 0 0.164706 0 0 0 0 0.717647 0 0 0 0 0.305882 0 0 0 0.6 0"/><feBlend in2="BackgroundImageFix" result="effect1_dropShadow_79_7745"/><feBlend in="SourceGraphic" in2="effect1_dropShadow_79_7745" result="shape"/></filter></defs></svg>