<svg width="28" height="28" viewBox="0 0 28 28" fill="none" xmlns="http://www.w3.org/2000/svg">
<path d="M3.99935 27.3334C5.83268 27.3334 7.33268 25.8334 7.33268 24.0001V12.3334C7.33268 10.5001 5.83268 9.00008 3.99935 9.00008C2.16602 9.00008 0.666016 10.5001 0.666016 12.3334V24.0001C0.666016 25.8334 2.16602 27.3334 3.99935 27.3334ZM20.666 19.0001V24.0001C20.666 25.8334 22.166 27.3334 23.9993 27.3334C25.8327 27.3334 27.3327 25.8334 27.3327 24.0001V19.0001C27.3327 17.1667 25.8327 15.6667 23.9993 15.6667C22.166 15.6667 20.666 17.1667 20.666 19.0001ZM13.9993 27.3334C15.8327 27.3334 17.3327 25.8334 17.3327 24.0001V4.00008C17.3327 2.16675 15.8327 0.666748 13.9993 0.666748C12.166 0.666748 10.666 2.16675 10.666 4.00008V24.0001C10.666 25.8334 12.166 27.3334 13.9993 27.3334Z"/>
</svg>