<svg width="54" height="54" viewBox="0 0 54 54" fill="none" xmlns="http://www.w3.org/2000/svg">
<path fill-rule="evenodd" clip-rule="evenodd" d="M0.75 27C0.75 33.9619 3.51562 40.6387 8.43845 45.5616C13.3613 50.4844 20.0381 53.25 27 53.25C33.9619 53.25 40.6387 50.4844 45.5616 45.5616C50.4844 40.6387 53.25 33.9619 53.25 27C53.25 20.0381 50.4844 13.3613 45.5616 8.43845C40.6387 3.51562 33.9619 0.75 27 0.75C20.0381 0.75 13.3613 3.51562 8.43845 8.43845C3.51562 13.3613 0.75 20.0381 0.75 27ZM48.75 27C48.75 32.7685 46.4585 38.3007 42.3796 42.3796C38.3007 46.4585 32.7685 48.75 27 48.75C21.2315 48.75 15.6993 46.4585 11.6204 42.3796C7.54151 38.3007 5.25 32.7685 5.25 27C5.25 21.2315 7.54151 15.6993 11.6204 11.6204C15.6993 7.54151 21.2315 5.25 27 5.25C32.7685 5.25 38.3007 7.54151 42.3796 11.6204C46.4585 15.6993 48.75 21.2315 48.75 27Z" fill="#25C28B"/>
<path fill-rule="evenodd" clip-rule="evenodd" d="M15.75 27C15.75 40.566 20.223 51.75 27 51.75C33.777 51.75 38.25 40.566 38.25 27C38.25 13.434 33.777 2.25 27 2.25C20.223 2.25 15.75 13.434 15.75 27ZM33.75 27C33.75 38.286 30.165 47.25 27 47.25C23.835 47.25 20.25 38.286 20.25 27C20.25 15.714 23.835 6.75 27 6.75C30.165 6.75 33.75 15.714 33.75 27Z" fill="#25C28B"/>
<path d="M7.806 13.4009L10.824 10.0649C11.124 10.3349 11.451 10.6049 11.799 10.8659C15.612 13.7219 21.699 15.4859 28.344 15.4859C34.017 15.4859 39.3 14.2049 43.137 12.0119C44.061 11.4839 44.883 10.9109 45.594 10.3019L48.516 13.7249C47.5398 14.553 46.4871 15.2863 45.372 15.9149C40.824 18.5189 34.77 19.9829 28.344 19.9829C20.778 19.9829 13.749 17.9489 9.099 14.4659C8.65187 14.131 8.22042 13.7756 7.806 13.4009ZM7.806 40.6469L10.824 43.9829C11.124 43.7099 11.451 43.4429 11.799 43.1819C15.612 40.3259 21.699 38.5619 28.344 38.5619C34.017 38.5619 39.3 39.8429 43.137 42.0359C44.061 42.5639 44.883 43.1369 45.594 43.7459L48.516 40.3229C47.5386 39.4965 46.486 38.7633 45.372 38.1329C40.824 35.5289 34.77 34.0649 28.344 34.0649C20.778 34.0649 13.749 36.0989 9.099 39.5819C8.65187 39.9169 8.22041 40.2723 7.806 40.6469ZM2.25 29.2499V24.7499H51.75V29.2499H2.25Z" fill="#25C28B"/>
</svg>
