<svg width="166" height="151" viewBox="0 0 166 151" fill="none" xmlns="http://www.w3.org/2000/svg">
<g filter="url(#filter0_d_129_15379)">
<path d="M82.9998 67.5977C86.978 67.5977 90.7933 66.0173 93.6064 63.2043C96.4194 60.3912 97.9998 56.5759 97.9998 52.5977C97.9998 48.6194 96.4194 44.8041 93.6064 41.9911C90.7933 39.178 86.978 37.5977 82.9998 37.5977C79.0215 37.5977 75.2062 39.178 72.3932 41.9911C69.5801 44.8041 67.9998 48.6194 67.9998 52.5977C67.9998 56.5759 69.5801 60.3912 72.3932 63.2043C75.2062 66.0173 79.0215 67.5977 82.9998 67.5977ZM62.9998 62.5977C62.9998 65.2498 61.9462 67.7934 60.0708 69.6687C58.1955 71.5441 55.6519 72.5977 52.9998 72.5977C50.3476 72.5977 47.8041 71.5441 45.9287 69.6687C44.0533 67.7934 42.9998 65.2498 42.9998 62.5977C42.9998 59.9455 44.0533 57.402 45.9287 55.5266C47.8041 53.6512 50.3476 52.5977 52.9998 52.5977C55.6519 52.5977 58.1955 53.6512 60.0708 55.5266C61.9462 57.402 62.9998 59.9455 62.9998 62.5977ZM40.4498 99.2277C39.5962 98.7426 38.957 97.9534 38.6598 97.0177C37.7788 94.1643 37.7696 91.1129 38.6332 88.2543C39.4969 85.3956 41.1942 82.8599 43.5077 80.9716C45.8213 79.0834 48.6457 77.9288 51.6195 77.6555C56.0305 77.2501 56.9858 82.6131 54.7856 86.4577C52.5552 90.355 51.1424 94.7017 50.6748 99.2327C50.5045 100.876 49.1697 102.363 47.5566 102.005C45.0652 101.452 42.6673 100.517 40.4498 99.2277ZM115.2 102.498C115.2 102.498 115.2 102.498 115.2 102.498C118.849 102.184 122.383 101.067 125.55 99.2277C126.401 98.7416 127.039 97.9525 127.335 97.0177C128.217 94.164 128.227 91.1118 127.364 88.2523C126.501 85.3927 124.804 82.8559 122.49 80.9669C120.176 79.078 117.351 77.9228 114.377 77.6495C109.965 77.244 109.011 82.6079 111.213 86.452C113.446 90.3505 114.861 94.6993 115.33 99.2327C115.441 100.322 115.398 101.421 115.201 102.498C115.201 102.499 115.2 102.499 115.2 102.498ZM123 62.5977C123 65.2498 121.946 67.7934 120.071 69.6687C118.195 71.5441 115.652 72.5977 113 72.5977C110.348 72.5977 107.804 71.5441 105.929 69.6687C104.053 67.7934 103 65.2498 103 62.5977C103 59.9455 104.053 57.402 105.929 55.5266C107.804 53.6512 110.348 52.5977 113 52.5977C115.652 52.5977 118.195 53.6512 120.071 55.5266C121.946 57.402 123 59.9455 123 62.5977ZM59.5198 103.548C59.0267 103.106 58.6444 102.555 58.4038 101.938C58.1632 101.321 58.071 100.657 58.1348 99.9977C58.7707 93.8451 61.665 88.1467 66.258 84.0039C70.8511 79.8611 76.8169 77.5681 83.0023 77.5681C89.1876 77.5681 95.1534 79.8611 99.7465 84.0039C104.34 88.1467 107.234 93.8451 107.87 99.9977C107.934 100.657 107.842 101.321 107.601 101.938C107.361 102.555 106.978 103.106 106.485 103.548C100.056 109.382 91.6817 112.609 82.9998 112.598C74.3195 112.609 65.9472 109.382 59.5198 103.548Z" fill="#24B5F4"/>
</g>
<defs>
<filter id="filter0_d_129_15379" x="0.492188" y="0.0976562" width="165.012" height="150" filterUnits="userSpaceOnUse" color-interpolation-filters="sRGB">
<feFlood flood-opacity="0" result="BackgroundImageFix"/>
<feColorMatrix in="SourceAlpha" type="matrix" values="0 0 0 0 0 0 0 0 0 0 0 0 0 0 0 0 0 0 127 0" result="hardAlpha"/>
<feOffset/>
<feGaussianBlur stdDeviation="18.75"/>
<feComposite in2="hardAlpha" operator="out"/>
<feColorMatrix type="matrix" values="0 0 0 0 0.141176 0 0 0 0 0.709804 0 0 0 0 0.956863 0 0 0 0.3 0"/>
<feBlend mode="normal" in2="BackgroundImageFix" result="effect1_dropShadow_129_15379"/>
<feBlend mode="normal" in="SourceGraphic" in2="effect1_dropShadow_129_15379" result="shape"/>
</filter>
</defs>
</svg>
