<svg width="654" height="259" viewBox="0 0 654 259" fill="none" xmlns="http://www.w3.org/2000/svg">
<rect y="0.35083" width="654" height="258" rx="18.6125" fill="white"/>
<rect y="0.35083" width="654" height="258" rx="18.6125" fill="white"/>
<path d="M285.5 48.8021C285.5 41.5562 291.374 35.6821 298.62 35.6821H354.38C361.626 35.6821 367.5 41.5562 367.5 48.8021V104.562C367.5 111.808 361.626 117.682 354.38 117.682H298.62C291.374 117.682 285.5 111.808 285.5 104.562V48.8021Z" fill="url(#paint0_linear_129_16477)" fill-opacity="0.2"/>
<path d="M335.275 53.7321H318.875C317.516 53.7321 316.212 54.2721 315.251 55.2332C314.29 56.1943 313.75 57.4979 313.75 58.8571V93.7071C313.75 95.0663 314.29 96.3699 315.251 97.331C316.212 98.2922 317.516 98.8321 318.875 98.8321H335.275C336.634 98.8321 337.938 98.2922 338.899 97.331C339.86 96.3699 340.4 95.0663 340.4 93.7071V58.8571C340.4 57.4979 339.86 56.1943 338.899 55.2332C337.938 54.2721 336.634 53.7321 335.275 53.7321ZM327.075 96.7821C325.373 96.7821 324 95.4086 324 93.7071C324 92.0056 325.373 90.6321 327.075 90.6321C328.776 90.6321 330.15 92.0056 330.15 93.7071C330.15 95.4086 328.776 96.7821 327.075 96.7821ZM336.3 88.5821H317.85V59.8821H336.3V88.5821Z" fill="#333333"/>
<path d="M335.275 53.7321H318.875C317.516 53.7321 316.212 54.2721 315.251 55.2332C314.29 56.1943 313.75 57.4979 313.75 58.8571V93.7071C313.75 95.0663 314.29 96.3699 315.251 97.331C316.212 98.2922 317.516 98.8321 318.875 98.8321H335.275C336.634 98.8321 337.938 98.2922 338.899 97.331C339.86 96.3699 340.4 95.0663 340.4 93.7071V58.8571C340.4 57.4979 339.86 56.1943 338.899 55.2332C337.938 54.2721 336.634 53.7321 335.275 53.7321ZM327.075 96.7821C325.373 96.7821 324 95.4086 324 93.7071C324 92.0056 325.373 90.6321 327.075 90.6321C328.776 90.6321 330.15 92.0056 330.15 93.7071C330.15 95.4086 328.776 96.7821 327.075 96.7821ZM336.3 88.5821H317.85V59.8821H336.3V88.5821Z" fill="white"/>
<path d="M335.275 53.7321H318.875C317.516 53.7321 316.212 54.2721 315.251 55.2332C314.29 56.1943 313.75 57.4979 313.75 58.8571V93.7071C313.75 95.0663 314.29 96.3699 315.251 97.331C316.212 98.2922 317.516 98.8321 318.875 98.8321H335.275C336.634 98.8321 337.938 98.2922 338.899 97.331C339.86 96.3699 340.4 95.0663 340.4 93.7071V58.8571C340.4 57.4979 339.86 56.1943 338.899 55.2332C337.938 54.2721 336.634 53.7321 335.275 53.7321ZM327.075 96.7821C325.373 96.7821 324 95.4086 324 93.7071C324 92.0056 325.373 90.6321 327.075 90.6321C328.776 90.6321 330.15 92.0056 330.15 93.7071C330.15 95.4086 328.776 96.7821 327.075 96.7821ZM336.3 88.5821H317.85V59.8821H336.3V88.5821Z" fill="url(#paint1_linear_129_16477)"/>
<path d="M205.277 158.314H209.219C209.14 159.606 208.784 160.753 208.151 161.755C207.527 162.757 206.652 163.54 205.527 164.102C204.411 164.665 203.066 164.946 201.493 164.946C200.263 164.946 199.16 164.735 198.184 164.313C197.208 163.882 196.374 163.267 195.679 162.467C194.994 161.667 194.471 160.701 194.11 159.567C193.75 158.433 193.57 157.163 193.57 155.757V154.425C193.57 153.019 193.754 151.749 194.124 150.615C194.501 149.473 195.038 148.501 195.732 147.702C196.435 146.902 197.274 146.287 198.25 145.856C199.226 145.425 200.315 145.21 201.52 145.21C203.119 145.21 204.468 145.5 205.567 146.08C206.674 146.66 207.531 147.46 208.138 148.479C208.753 149.499 209.122 150.659 209.245 151.96H205.29C205.246 151.187 205.092 150.532 204.829 149.996C204.565 149.451 204.165 149.042 203.629 148.77C203.102 148.488 202.398 148.348 201.52 148.348C200.86 148.348 200.285 148.471 199.792 148.717C199.3 148.963 198.887 149.336 198.553 149.837C198.219 150.338 197.969 150.971 197.802 151.736C197.644 152.492 197.564 153.379 197.564 154.399V155.757C197.564 156.75 197.639 157.625 197.789 158.38C197.938 159.127 198.167 159.76 198.474 160.279C198.791 160.789 199.195 161.175 199.687 161.439C200.188 161.694 200.79 161.821 201.493 161.821C202.319 161.821 203 161.689 203.537 161.426C204.073 161.162 204.481 160.771 204.763 160.252C205.053 159.734 205.224 159.088 205.277 158.314ZM218.144 164.946C217.037 164.946 216.043 164.77 215.165 164.418C214.286 164.058 213.539 163.562 212.923 162.929C212.317 162.296 211.851 161.562 211.526 160.727C211.201 159.883 211.038 158.987 211.038 158.038V157.51C211.038 156.429 211.192 155.44 211.5 154.544C211.807 153.647 212.247 152.87 212.818 152.21C213.398 151.551 214.101 151.046 214.927 150.694C215.753 150.334 216.685 150.154 217.722 150.154C218.733 150.154 219.629 150.321 220.412 150.655C221.194 150.989 221.849 151.463 222.376 152.079C222.912 152.694 223.316 153.432 223.589 154.293C223.861 155.146 223.998 156.095 223.998 157.141V158.723H212.66V156.192H220.267V155.902C220.267 155.375 220.17 154.904 219.977 154.491C219.792 154.069 219.511 153.735 219.133 153.489C218.755 153.243 218.271 153.12 217.683 153.12C217.182 153.12 216.751 153.23 216.391 153.45C216.03 153.669 215.736 153.977 215.507 154.373C215.288 154.768 215.121 155.234 215.006 155.77C214.901 156.297 214.848 156.877 214.848 157.51V158.038C214.848 158.609 214.927 159.136 215.085 159.62C215.252 160.103 215.485 160.521 215.784 160.872C216.092 161.224 216.461 161.496 216.892 161.689C217.331 161.883 217.828 161.979 218.381 161.979C219.067 161.979 219.704 161.848 220.293 161.584C220.891 161.312 221.405 160.903 221.835 160.358L223.681 162.362C223.382 162.792 222.974 163.206 222.455 163.601C221.945 163.997 221.33 164.322 220.609 164.577C219.889 164.823 219.067 164.946 218.144 164.946ZM229.957 153.16V170.167H226.16V150.417H229.68L229.957 153.16ZM238.987 157.392V157.668C238.987 158.706 238.864 159.668 238.618 160.556C238.381 161.443 238.029 162.217 237.563 162.876C237.098 163.526 236.518 164.036 235.823 164.405C235.138 164.766 234.347 164.946 233.45 164.946C232.58 164.946 231.824 164.77 231.183 164.418C230.541 164.067 230 163.575 229.561 162.942C229.13 162.3 228.783 161.558 228.52 160.714C228.256 159.87 228.054 158.965 227.913 157.998V157.273C228.054 156.236 228.256 155.287 228.52 154.425C228.783 153.555 229.13 152.804 229.561 152.171C230 151.529 230.537 151.033 231.169 150.681C231.811 150.33 232.562 150.154 233.424 150.154C234.329 150.154 235.125 150.325 235.81 150.668C236.504 151.011 237.084 151.503 237.55 152.145C238.025 152.786 238.381 153.551 238.618 154.438C238.864 155.326 238.987 156.311 238.987 157.392ZM235.177 157.668V157.392C235.177 156.785 235.125 156.227 235.019 155.717C234.922 155.199 234.764 154.746 234.544 154.359C234.333 153.973 234.052 153.674 233.701 153.463C233.358 153.243 232.94 153.133 232.448 153.133C231.93 153.133 231.486 153.217 231.117 153.384C230.756 153.551 230.462 153.792 230.233 154.109C230.005 154.425 229.833 154.803 229.719 155.243C229.605 155.682 229.535 156.179 229.508 156.732V158.565C229.552 159.215 229.675 159.8 229.877 160.318C230.08 160.828 230.392 161.232 230.813 161.531C231.235 161.83 231.789 161.979 232.475 161.979C232.976 161.979 233.397 161.87 233.74 161.65C234.083 161.421 234.36 161.109 234.571 160.714C234.791 160.318 234.944 159.861 235.032 159.343C235.129 158.824 235.177 158.266 235.177 157.668ZM248.453 158.723H243.984L243.958 156.231H247.649C248.141 156.231 248.541 156.183 248.849 156.086C249.156 155.981 249.38 155.827 249.521 155.625C249.67 155.414 249.745 155.159 249.745 154.86C249.745 154.597 249.697 154.373 249.6 154.188C249.512 153.995 249.376 153.836 249.191 153.713C249.007 153.59 248.774 153.502 248.493 153.45C248.22 153.388 247.899 153.357 247.53 153.357H245.395V164.682H241.598V150.417H247.53C248.462 150.417 249.297 150.501 250.035 150.668C250.773 150.826 251.402 151.068 251.92 151.393C252.448 151.718 252.848 152.131 253.12 152.632C253.401 153.125 253.542 153.709 253.542 154.386C253.542 154.825 253.441 155.238 253.239 155.625C253.045 156.012 252.755 156.354 252.369 156.653C251.982 156.952 251.503 157.198 250.932 157.392C250.369 157.576 249.719 157.69 248.98 157.734L248.453 158.723ZM248.453 164.682H243.048L244.353 161.742H248.453C248.919 161.742 249.301 161.685 249.6 161.571C249.899 161.457 250.119 161.29 250.259 161.07C250.409 160.841 250.483 160.569 250.483 160.252C250.483 159.945 250.417 159.677 250.286 159.448C250.154 159.22 249.938 159.044 249.64 158.921C249.35 158.789 248.954 158.723 248.453 158.723H244.907L244.933 156.231H248.967L249.89 157.233C250.892 157.295 251.718 157.484 252.369 157.8C253.019 158.117 253.498 158.521 253.806 159.013C254.122 159.497 254.28 160.028 254.28 160.608C254.28 161.285 254.153 161.878 253.898 162.388C253.643 162.898 253.265 163.324 252.764 163.667C252.272 164.001 251.666 164.256 250.945 164.432C250.224 164.599 249.394 164.682 248.453 164.682ZM260.397 159.382L265.183 150.417H268.98V164.682H265.183V155.704L260.397 164.682H256.601V150.417H260.397V159.382ZM277.8 161.979C278.266 161.979 278.679 161.892 279.039 161.716C279.399 161.531 279.681 161.276 279.883 160.951C280.094 160.617 280.204 160.226 280.212 159.778H283.785C283.776 160.78 283.508 161.672 282.981 162.454C282.454 163.228 281.746 163.838 280.858 164.287C279.971 164.726 278.978 164.946 277.879 164.946C276.771 164.946 275.805 164.761 274.979 164.392C274.161 164.023 273.48 163.513 272.935 162.863C272.39 162.204 271.981 161.439 271.709 160.569C271.437 159.69 271.3 158.75 271.3 157.748V157.365C271.3 156.354 271.437 155.414 271.709 154.544C271.981 153.665 272.39 152.9 272.935 152.25C273.48 151.591 274.161 151.077 274.979 150.708C275.796 150.338 276.754 150.154 277.853 150.154C279.021 150.154 280.045 150.378 280.924 150.826C281.812 151.274 282.506 151.916 283.007 152.751C283.517 153.577 283.776 154.557 283.785 155.691H280.212C280.204 155.216 280.103 154.786 279.909 154.399C279.725 154.012 279.452 153.705 279.092 153.476C278.74 153.239 278.305 153.12 277.787 153.12C277.233 153.12 276.78 153.239 276.429 153.476C276.077 153.705 275.805 154.021 275.611 154.425C275.418 154.821 275.282 155.273 275.203 155.783C275.132 156.284 275.097 156.812 275.097 157.365V157.748C275.097 158.301 275.132 158.833 275.203 159.343C275.273 159.853 275.405 160.305 275.598 160.701C275.8 161.096 276.077 161.408 276.429 161.637C276.78 161.865 277.237 161.979 277.8 161.979ZM298.366 152.487L295.163 157.8L292.236 157.787V157.616L295.927 152.487H298.366ZM295.163 157.682L298.366 163.008H295.927L292.236 157.866V157.695L295.163 157.682ZM303.468 152.487L300.265 157.8L297.338 157.787V157.616L301.029 152.487H303.468ZM300.265 157.682L303.468 163.008H301.029L297.338 157.866V157.695L300.265 157.682ZM319.249 153.305V156.39H309.229V153.305H319.249ZM310.403 145.487V164.682H306.448V145.487H310.403ZM322.07 145.487V164.682H318.128V145.487H322.07ZM332.973 161.465V155.111C332.973 154.654 332.898 154.263 332.749 153.938C332.6 153.604 332.367 153.344 332.05 153.16C331.743 152.975 331.343 152.883 330.851 152.883C330.429 152.883 330.064 152.958 329.756 153.107C329.449 153.248 329.211 153.454 329.044 153.727C328.877 153.99 328.794 154.302 328.794 154.663H324.997C324.997 154.056 325.138 153.48 325.419 152.936C325.7 152.391 326.109 151.912 326.645 151.499C327.181 151.077 327.818 150.747 328.557 150.51C329.304 150.272 330.139 150.154 331.062 150.154C332.169 150.154 333.153 150.338 334.015 150.708C334.876 151.077 335.553 151.63 336.045 152.369C336.546 153.107 336.796 154.03 336.796 155.137V161.241C336.796 162.023 336.845 162.665 336.941 163.166C337.038 163.658 337.179 164.089 337.363 164.458V164.682H333.527C333.342 164.295 333.202 163.812 333.105 163.232C333.017 162.643 332.973 162.054 332.973 161.465ZM333.474 155.994L333.5 158.143H331.378C330.877 158.143 330.442 158.2 330.073 158.314C329.704 158.429 329.4 158.591 329.163 158.802C328.926 159.004 328.75 159.242 328.636 159.514C328.53 159.787 328.478 160.085 328.478 160.411C328.478 160.736 328.552 161.03 328.702 161.294C328.851 161.549 329.066 161.751 329.348 161.9C329.629 162.041 329.958 162.111 330.336 162.111C330.908 162.111 331.404 161.997 331.826 161.769C332.248 161.54 332.573 161.259 332.802 160.925C333.039 160.591 333.162 160.274 333.171 159.976L334.173 161.584C334.032 161.944 333.839 162.318 333.593 162.705C333.355 163.091 333.052 163.456 332.683 163.799C332.314 164.133 331.87 164.41 331.352 164.629C330.833 164.84 330.218 164.946 329.506 164.946C328.601 164.946 327.779 164.766 327.041 164.405C326.311 164.036 325.731 163.531 325.3 162.889C324.878 162.239 324.667 161.5 324.667 160.674C324.667 159.927 324.808 159.264 325.089 158.684C325.371 158.104 325.784 157.616 326.329 157.22C326.882 156.816 327.572 156.513 328.398 156.311C329.225 156.1 330.183 155.994 331.272 155.994H333.474ZM343.52 153.529V164.682H339.723V150.417H343.296L343.52 153.529ZM347.818 150.325L347.752 153.845C347.567 153.819 347.343 153.797 347.08 153.779C346.825 153.753 346.592 153.74 346.381 153.74C345.845 153.74 345.379 153.81 344.983 153.951C344.597 154.083 344.271 154.28 344.008 154.544C343.753 154.808 343.56 155.128 343.428 155.506C343.305 155.884 343.234 156.315 343.217 156.798L342.452 156.561C342.452 155.638 342.544 154.79 342.729 154.017C342.914 153.234 343.182 152.553 343.533 151.973C343.894 151.393 344.333 150.945 344.852 150.628C345.37 150.312 345.963 150.154 346.631 150.154C346.842 150.154 347.058 150.171 347.277 150.207C347.497 150.233 347.677 150.272 347.818 150.325ZM357.771 161.571V144.432H361.595V164.682H358.154L357.771 161.571ZM348.754 157.721V157.444C348.754 156.354 348.877 155.366 349.123 154.478C349.369 153.582 349.729 152.812 350.204 152.171C350.679 151.529 351.263 151.033 351.958 150.681C352.652 150.33 353.443 150.154 354.331 150.154C355.166 150.154 355.895 150.33 356.519 150.681C357.152 151.033 357.688 151.534 358.127 152.184C358.576 152.826 358.936 153.586 359.208 154.465C359.481 155.335 359.679 156.289 359.802 157.326V157.932C359.679 158.925 359.481 159.848 359.208 160.701C358.936 161.553 358.576 162.3 358.127 162.942C357.688 163.575 357.152 164.067 356.519 164.418C355.886 164.77 355.148 164.946 354.304 164.946C353.417 164.946 352.625 164.766 351.931 164.405C351.246 164.045 350.666 163.54 350.191 162.889C349.725 162.239 349.369 161.474 349.123 160.595C348.877 159.716 348.754 158.758 348.754 157.721ZM352.551 157.444V157.721C352.551 158.31 352.595 158.859 352.683 159.369C352.779 159.879 352.933 160.332 353.144 160.727C353.364 161.114 353.645 161.417 353.988 161.637C354.339 161.848 354.766 161.953 355.267 161.953C355.917 161.953 356.453 161.808 356.875 161.518C357.297 161.219 357.618 160.811 357.837 160.292C358.066 159.773 358.198 159.176 358.233 158.499V156.772C358.207 156.218 358.127 155.722 357.996 155.282C357.873 154.834 357.688 154.452 357.442 154.135C357.205 153.819 356.906 153.573 356.545 153.397C356.194 153.221 355.776 153.133 355.293 153.133C354.801 153.133 354.379 153.248 354.027 153.476C353.676 153.696 353.39 153.999 353.17 154.386C352.959 154.772 352.801 155.229 352.696 155.757C352.599 156.275 352.551 156.838 352.551 157.444ZM379.393 145.487V164.682H375.451V145.487H379.393ZM385.299 145.487V148.585H369.637V145.487H385.299ZM393.011 161.465V155.111C393.011 154.654 392.937 154.263 392.787 153.938C392.638 153.604 392.405 153.344 392.088 153.16C391.781 152.975 391.381 152.883 390.889 152.883C390.467 152.883 390.102 152.958 389.794 153.107C389.487 153.248 389.25 153.454 389.083 153.727C388.916 153.99 388.832 154.302 388.832 154.663H385.035C385.035 154.056 385.176 153.48 385.457 152.936C385.738 152.391 386.147 151.912 386.683 151.499C387.219 151.077 387.856 150.747 388.595 150.51C389.342 150.272 390.177 150.154 391.1 150.154C392.207 150.154 393.191 150.338 394.053 150.708C394.914 151.077 395.591 151.63 396.083 152.369C396.584 153.107 396.834 154.03 396.834 155.137V161.241C396.834 162.023 396.883 162.665 396.979 163.166C397.076 163.658 397.217 164.089 397.401 164.458V164.682H393.565C393.38 164.295 393.24 163.812 393.143 163.232C393.055 162.643 393.011 162.054 393.011 161.465ZM393.512 155.994L393.539 158.143H391.416C390.915 158.143 390.48 158.2 390.111 158.314C389.742 158.429 389.438 158.591 389.201 158.802C388.964 159.004 388.788 159.242 388.674 159.514C388.568 159.787 388.516 160.085 388.516 160.411C388.516 160.736 388.59 161.03 388.74 161.294C388.889 161.549 389.104 161.751 389.386 161.9C389.667 162.041 389.997 162.111 390.375 162.111C390.946 162.111 391.442 161.997 391.864 161.769C392.286 161.54 392.611 161.259 392.84 160.925C393.077 160.591 393.2 160.274 393.209 159.976L394.211 161.584C394.07 161.944 393.877 162.318 393.631 162.705C393.394 163.091 393.09 163.456 392.721 163.799C392.352 164.133 391.908 164.41 391.39 164.629C390.871 164.84 390.256 164.946 389.544 164.946C388.639 164.946 387.817 164.766 387.079 164.405C386.349 164.036 385.769 163.531 385.338 162.889C384.917 162.239 384.706 161.5 384.706 160.674C384.706 159.927 384.846 159.264 385.127 158.684C385.409 158.104 385.822 157.616 386.367 157.22C386.92 156.816 387.61 156.513 388.437 156.311C389.263 156.1 390.221 155.994 391.311 155.994H393.512ZM403.558 153.529V164.682H399.761V150.417H403.334L403.558 153.529ZM407.856 150.325L407.79 153.845C407.605 153.819 407.381 153.797 407.118 153.779C406.863 153.753 406.63 153.74 406.419 153.74C405.883 153.74 405.417 153.81 405.021 153.951C404.635 154.083 404.31 154.28 404.046 154.544C403.791 154.808 403.598 155.128 403.466 155.506C403.343 155.884 403.272 156.315 403.255 156.798L402.49 156.561C402.49 155.638 402.583 154.79 402.767 154.017C402.952 153.234 403.22 152.553 403.571 151.973C403.932 151.393 404.371 150.945 404.89 150.628C405.408 150.312 406.001 150.154 406.669 150.154C406.88 150.154 407.096 150.171 407.315 150.207C407.535 150.233 407.715 150.272 407.856 150.325ZM418.416 150.417H421.857V164.208C421.857 165.508 421.567 166.611 420.987 167.517C420.416 168.431 419.616 169.121 418.587 169.586C417.559 170.061 416.364 170.298 415.001 170.298C414.404 170.298 413.771 170.219 413.103 170.061C412.444 169.903 411.811 169.657 411.205 169.323C410.607 168.989 410.106 168.567 409.702 168.057L411.376 165.816C411.815 166.326 412.325 166.721 412.905 167.002C413.485 167.292 414.127 167.438 414.83 167.438C415.516 167.438 416.096 167.31 416.57 167.055C417.045 166.809 417.41 166.444 417.665 165.961C417.919 165.486 418.047 164.911 418.047 164.234V153.713L418.416 150.417ZM408.818 157.721V157.444C408.818 156.354 408.95 155.366 409.214 154.478C409.486 153.582 409.869 152.812 410.361 152.171C410.862 151.529 411.468 151.033 412.18 150.681C412.892 150.33 413.696 150.154 414.593 150.154C415.542 150.154 416.337 150.33 416.979 150.681C417.621 151.033 418.148 151.534 418.561 152.184C418.974 152.826 419.295 153.586 419.523 154.465C419.761 155.335 419.945 156.289 420.077 157.326V157.932C419.945 158.925 419.748 159.848 419.484 160.701C419.22 161.553 418.873 162.3 418.442 162.942C418.012 163.575 417.476 164.067 416.834 164.418C416.201 164.77 415.445 164.946 414.566 164.946C413.688 164.946 412.892 164.766 412.18 164.405C411.477 164.045 410.875 163.54 410.374 162.889C409.873 162.239 409.486 161.474 409.214 160.595C408.95 159.716 408.818 158.758 408.818 157.721ZM412.615 157.444V157.721C412.615 158.31 412.672 158.859 412.787 159.369C412.901 159.879 413.077 160.332 413.314 160.727C413.56 161.114 413.863 161.417 414.224 161.637C414.593 161.848 415.028 161.953 415.529 161.953C416.223 161.953 416.79 161.808 417.229 161.518C417.669 161.219 417.999 160.811 418.218 160.292C418.438 159.773 418.565 159.176 418.601 158.499V156.772C418.583 156.218 418.508 155.722 418.376 155.282C418.245 154.834 418.06 154.452 417.823 154.135C417.585 153.819 417.278 153.573 416.9 153.397C416.522 153.221 416.074 153.133 415.555 153.133C415.054 153.133 414.619 153.248 414.25 153.476C413.89 153.696 413.586 153.999 413.34 154.386C413.103 154.772 412.923 155.229 412.8 155.757C412.677 156.275 412.615 156.838 412.615 157.444ZM431.375 164.946C430.268 164.946 429.275 164.77 428.396 164.418C427.517 164.058 426.77 163.562 426.155 162.929C425.548 162.296 425.083 161.562 424.757 160.727C424.432 159.883 424.27 158.987 424.27 158.038V157.51C424.27 156.429 424.423 155.44 424.731 154.544C425.039 153.647 425.478 152.87 426.049 152.21C426.629 151.551 427.333 151.046 428.159 150.694C428.985 150.334 429.917 150.154 430.954 150.154C431.964 150.154 432.861 150.321 433.643 150.655C434.425 150.989 435.08 151.463 435.607 152.079C436.144 152.694 436.548 153.432 436.82 154.293C437.093 155.146 437.229 156.095 437.229 157.141V158.723H425.891V156.192H433.498V155.902C433.498 155.375 433.401 154.904 433.208 154.491C433.023 154.069 432.742 153.735 432.364 153.489C431.986 153.243 431.503 153.12 430.914 153.12C430.413 153.12 429.982 153.23 429.622 153.45C429.262 153.669 428.967 153.977 428.739 154.373C428.519 154.768 428.352 155.234 428.238 155.77C428.132 156.297 428.08 156.877 428.08 157.51V158.038C428.08 158.609 428.159 159.136 428.317 159.62C428.484 160.103 428.717 160.521 429.016 160.872C429.323 161.224 429.692 161.496 430.123 161.689C430.562 161.883 431.059 161.979 431.613 161.979C432.298 161.979 432.936 161.848 433.524 161.584C434.122 161.312 434.636 160.903 435.067 160.358L436.913 162.362C436.614 162.792 436.205 163.206 435.687 163.601C435.177 163.997 434.562 164.322 433.841 164.577C433.12 164.823 432.298 164.946 431.375 164.946ZM446.378 150.417V153.107H438.073V150.417H446.378ZM440.129 146.897H443.926V160.384C443.926 160.797 443.979 161.114 444.084 161.333C444.199 161.553 444.366 161.707 444.585 161.795C444.805 161.874 445.082 161.914 445.416 161.914C445.653 161.914 445.864 161.905 446.049 161.887C446.242 161.861 446.405 161.834 446.537 161.808L446.55 164.603C446.225 164.708 445.873 164.792 445.495 164.854C445.117 164.915 444.7 164.946 444.243 164.946C443.408 164.946 442.678 164.81 442.054 164.537C441.439 164.256 440.964 163.808 440.63 163.192C440.296 162.577 440.129 161.769 440.129 160.767V146.897ZM448.198 163.008L451.401 157.682L454.341 157.695V157.866L450.65 163.008H448.198ZM448.198 152.487H450.65L454.341 157.616V157.787L451.401 157.8L448.198 152.487ZM453.366 163.008L456.569 157.682L459.509 157.695V157.866L455.818 163.008H453.366ZM453.366 152.487H455.818L459.509 157.616V157.787L456.569 157.8L453.366 152.487Z" fill="#333333"/>
<path d="M282.263 207.969H278.492L278.472 206.109H281.765C282.32 206.109 282.791 206.027 283.177 205.865C283.57 205.695 283.868 205.455 284.072 205.143C284.275 204.825 284.376 204.442 284.376 203.995C284.376 203.5 284.282 203.097 284.092 202.785C283.902 202.474 283.611 202.247 283.218 202.105C282.832 201.962 282.337 201.891 281.734 201.891H279.264V214.656H276.714V199.859H281.734C282.547 199.859 283.272 199.936 283.909 200.092C284.553 200.248 285.098 200.492 285.545 200.824C285.999 201.149 286.341 201.563 286.572 202.064C286.809 202.565 286.927 203.162 286.927 203.853C286.927 204.462 286.782 205.021 286.49 205.529C286.199 206.031 285.769 206.441 285.2 206.759C284.63 207.078 283.922 207.267 283.076 207.328L282.263 207.969ZM282.151 214.656H277.689L278.838 212.633H282.151C282.727 212.633 283.208 212.538 283.594 212.349C283.98 212.152 284.268 211.885 284.458 211.546C284.654 211.2 284.752 210.797 284.752 210.337C284.752 209.855 284.668 209.439 284.498 209.086C284.329 208.727 284.061 208.453 283.696 208.263C283.33 208.067 282.852 207.969 282.263 207.969H279.397L279.417 206.109H283.147L283.726 206.81C284.539 206.837 285.206 207.017 285.728 207.349C286.257 207.681 286.65 208.111 286.907 208.639C287.164 209.168 287.293 209.737 287.293 210.347C287.293 211.288 287.087 212.078 286.673 212.715C286.267 213.352 285.681 213.836 284.915 214.168C284.149 214.493 283.228 214.656 282.151 214.656ZM292.263 203.659V214.656H289.814V203.659H292.263ZM299.438 203.659L294.489 210.276H291.694L291.369 208.06H293.411L296.379 203.659H299.438ZM296.572 214.656L293.259 209.859L295.19 208.467L299.794 214.656H296.572ZM308.513 203.659V205.611H303.147V203.659H308.513ZM310.434 203.659V214.656H307.985V203.659H310.434ZM302.548 203.659H304.966L304.672 209.097C304.631 209.903 304.55 210.614 304.428 211.231C304.313 211.841 304.157 212.366 303.96 212.806C303.764 213.24 303.523 213.592 303.239 213.863C302.954 214.134 302.622 214.334 302.243 214.463C301.863 214.591 301.437 214.656 300.962 214.656H300.2L300.19 212.644L300.576 212.613C300.827 212.593 301.044 212.528 301.227 212.42C301.409 212.305 301.565 212.142 301.694 211.932C301.83 211.722 301.938 211.451 302.019 211.119C302.107 210.787 302.175 210.394 302.223 209.94C302.277 209.486 302.317 208.958 302.344 208.355L302.548 203.659ZM313.137 213.436C313.137 213.057 313.266 212.738 313.524 212.481C313.781 212.217 314.13 212.085 314.57 212.085C315.018 212.085 315.367 212.217 315.617 212.481C315.875 212.738 316.003 213.057 316.003 213.436C316.003 213.816 315.875 214.134 315.617 214.392C315.367 214.649 315.018 214.778 314.57 214.778C314.13 214.778 313.781 214.649 313.524 214.392C313.266 214.134 313.137 213.816 313.137 213.436Z" fill="#27C58B"/>
<rect x="324.27" y="197.141" width="53.5208" height="20.8137" rx="10.4068" fill="#27C58B" fill-opacity="0.68"/>
<g filter="url(#filter0_ddd_129_16477)">
<rect x="348.056" y="192.682" width="29.7338" height="29.7338" rx="14.8669" fill="#27C58B"/>
</g>
<defs>
<filter id="filter0_ddd_129_16477" x="340.623" y="186.735" width="44.6008" height="44.6007" filterUnits="userSpaceOnUse" color-interpolation-filters="sRGB">
<feFlood flood-opacity="0" result="BackgroundImageFix"/>
<feColorMatrix in="SourceAlpha" type="matrix" values="0 0 0 0 0 0 0 0 0 0 0 0 0 0 0 0 0 0 127 0" result="hardAlpha"/>
<feOffset dy="1.48669"/>
<feGaussianBlur stdDeviation="3.71672"/>
<feComposite in2="hardAlpha" operator="out"/>
<feColorMatrix type="matrix" values="0 0 0 0 0 0 0 0 0 0 0 0 0 0 0 0 0 0 0.12 0"/>
<feBlend mode="normal" in2="BackgroundImageFix" result="effect1_dropShadow_129_16477"/>
<feColorMatrix in="SourceAlpha" type="matrix" values="0 0 0 0 0 0 0 0 0 0 0 0 0 0 0 0 0 0 127 0" result="hardAlpha"/>
<feMorphology radius="2.97338" operator="erode" in="SourceAlpha" result="effect2_dropShadow_129_16477"/>
<feOffset dy="4.46007"/>
<feGaussianBlur stdDeviation="0.743345"/>
<feComposite in2="hardAlpha" operator="out"/>
<feColorMatrix type="matrix" values="0 0 0 0 0 0 0 0 0 0 0 0 0 0 0 0 0 0 0.2 0"/>
<feBlend mode="normal" in2="effect1_dropShadow_129_16477" result="effect2_dropShadow_129_16477"/>
<feColorMatrix in="SourceAlpha" type="matrix" values="0 0 0 0 0 0 0 0 0 0 0 0 0 0 0 0 0 0 127 0" result="hardAlpha"/>
<feOffset dy="2.97338"/>
<feGaussianBlur stdDeviation="1.48669"/>
<feComposite in2="hardAlpha" operator="out"/>
<feColorMatrix type="matrix" values="0 0 0 0 0 0 0 0 0 0 0 0 0 0 0 0 0 0 0.14 0"/>
<feBlend mode="normal" in2="effect2_dropShadow_129_16477" result="effect3_dropShadow_129_16477"/>
<feBlend mode="normal" in="SourceGraphic" in2="effect3_dropShadow_129_16477" result="shape"/>
</filter>
<linearGradient id="paint0_linear_129_16477" x1="285.5" y1="35.6821" x2="367.5" y2="117.682" gradientUnits="userSpaceOnUse">
<stop stop-color="#2395FE"/>
<stop offset="0.958333" stop-color="#139890"/>
</linearGradient>
<linearGradient id="paint1_linear_129_16477" x1="313.75" y1="53.7321" x2="353.256" y2="77.0764" gradientUnits="userSpaceOnUse">
<stop stop-color="#2395FE"/>
<stop offset="1" stop-color="#139890"/>
</linearGradient>
</defs>
</svg>
