<svg width="40" height="36" viewBox="0 0 40 36" fill="none" xmlns="http://www.w3.org/2000/svg">
<path d="M21.6665 34.4344C21.6665 34.4344 24.0132 31.346 25.4915 26.1844M21.6665 1.2677C21.6665 1.2677 24.0132 4.35437 25.4915 9.5177M18.3332 34.4344C18.3332 34.4344 15.9865 31.3477 14.5082 26.1844M18.3332 1.2677C18.3332 1.2677 15.9865 4.35437 14.5082 9.5177M14.9998 14.5177L17.4998 22.851L19.9998 14.5177L22.4998 22.851L24.9998 14.5177M1.6665 14.5177L4.1665 22.851L6.6665 14.5177L9.1665 22.851L11.6665 14.5177M28.3332 14.5177L30.8332 22.851L33.3332 14.5177L35.8332 22.851L38.3332 14.5177" stroke="#24B5F4" stroke-width="2.5" stroke-linecap="round" stroke-linejoin="round"/>
</svg>
