<svg width="706" height="258" viewBox="0 0 706 258" fill="none" xmlns="http://www.w3.org/2000/svg">
<rect x="0.00195312" y="0.00012207" width="662.432" height="258" rx="21.6308" fill="white"/>
<rect x="0.00195312" y="0.00012207" width="662.432" height="258" rx="21.6308" fill="white"/>
<circle cx="45.2688" cy="97.1652" r="8.907" fill="#E57575" stroke="#E57575" stroke-width="3.81728"/>
<path d="M71.4712 103.981V90.4967H79.879V92.2481H73.5056V95.9351H76.5211C77.5219 95.9351 78.3712 96.0975 79.0691 96.4224C79.7714 96.7472 80.3069 97.2059 80.6756 97.7984C81.0487 98.391 81.2353 99.0889 81.2353 99.8921C81.2353 100.695 81.0487 101.404 80.6756 102.019C80.3069 102.633 79.7714 103.114 79.0691 103.461C78.3712 103.807 77.5219 103.981 76.5211 103.981H71.4712ZM73.5056 102.269H76.5211C77.1005 102.269 77.5899 102.155 77.9894 101.927C78.3932 101.698 78.6982 101.402 78.9045 101.038C79.1152 100.673 79.2206 100.283 79.2206 99.8658C79.2206 99.2601 78.9879 98.7399 78.5227 98.3054C78.0574 97.8665 77.3902 97.647 76.5211 97.647H73.5056V102.269ZM87.7403 104.185C86.7922 104.185 85.9648 103.968 85.2581 103.533C84.5515 103.099 84.0028 102.491 83.6121 101.709C83.2215 100.928 83.0262 100.015 83.0262 98.9704C83.0262 97.9213 83.2215 97.0039 83.6121 96.2182C84.0028 95.4326 84.5515 94.8224 85.2581 94.3879C85.9648 93.9533 86.7922 93.7361 87.7403 93.7361C88.6884 93.7361 89.5158 93.9533 90.2225 94.3879C90.9292 94.8224 91.4779 95.4326 91.8685 96.2182C92.2592 97.0039 92.4545 97.9213 92.4545 98.9704C92.4545 100.015 92.2592 100.928 91.8685 101.709C91.4779 102.491 90.9292 103.099 90.2225 103.533C89.5158 103.968 88.6884 104.185 87.7403 104.185ZM87.7469 102.532C88.3614 102.532 88.8706 102.37 89.2744 102.045C89.6782 101.72 89.9767 101.288 90.1698 100.748C90.3674 100.208 90.4661 99.6134 90.4661 98.9638C90.4661 98.3186 90.3674 97.726 90.1698 97.1861C89.9767 96.6418 89.6782 96.2051 89.2744 95.8759C88.8706 95.5467 88.3614 95.3821 87.7469 95.3821C87.128 95.3821 86.6145 95.5467 86.2062 95.8759C85.8024 96.2051 85.5018 96.6418 85.3042 97.1861C85.1111 97.726 85.0145 98.3186 85.0145 98.9638C85.0145 99.6134 85.1111 100.208 85.3042 100.748C85.5018 101.288 85.8024 101.72 86.2062 102.045C86.6145 102.37 87.128 102.532 87.7469 102.532ZM93.4339 95.5664V93.8677H101.967V95.5664H98.6682V103.981H96.7457V95.5664H93.4339ZM105.53 97.3441H108.467C109.705 97.3441 110.657 97.6514 111.324 98.2659C111.992 98.8804 112.325 99.6727 112.325 100.643C112.325 101.275 112.176 101.843 111.877 102.348C111.579 102.853 111.142 103.252 110.567 103.546C109.992 103.836 109.292 103.981 108.467 103.981H104.049V93.8677H105.978V102.282H108.467C109.033 102.282 109.498 102.135 109.863 101.841C110.227 101.543 110.409 101.163 110.409 100.702C110.409 100.215 110.227 99.8175 109.863 99.5103C109.498 99.1986 109.033 99.0428 108.467 99.0428H105.53V97.3441ZM113.76 103.981V93.8677H115.729V103.981H113.76Z" fill="black"/>
<circle opacity="0.8" cx="45.2688" cy="134.247" r="10.8156" fill="#616B89"/>
<path d="M82.0122 127.947V141.431H79.9843V129.685H73.6373V141.431H71.6094V127.947H82.0122ZM89.225 141.636C88.2769 141.636 87.4495 141.418 86.7428 140.984C86.0362 140.549 85.4875 139.941 85.0968 139.16C84.7062 138.379 84.5109 137.466 84.5109 136.421C84.5109 135.372 84.7062 134.455 85.0968 133.669C85.4875 132.883 86.0362 132.273 86.7428 131.838C87.4495 131.404 88.2769 131.187 89.225 131.187C90.1731 131.187 91.0005 131.404 91.7072 131.838C92.4139 132.273 92.9626 132.883 93.3532 133.669C93.7439 134.455 93.9392 135.372 93.9392 136.421C93.9392 137.466 93.7439 138.379 93.3532 139.16C92.9626 139.941 92.4139 140.549 91.7072 140.984C91.0005 141.418 90.1731 141.636 89.225 141.636ZM89.2316 139.983C89.8461 139.983 90.3553 139.821 90.7591 139.496C91.1629 139.171 91.4614 138.739 91.6545 138.199C91.8521 137.659 91.9508 137.064 91.9508 136.414C91.9508 135.769 91.8521 135.177 91.6545 134.637C91.4614 134.092 91.1629 133.656 90.7591 133.326C90.3553 132.997 89.8461 132.833 89.2316 132.833C88.6127 132.833 88.0992 132.997 87.6909 133.326C87.2871 133.656 86.9865 134.092 86.7889 134.637C86.5958 135.177 86.4992 135.769 86.4992 136.414C86.4992 137.064 86.5958 137.659 86.7889 138.199C86.9865 138.739 87.2871 139.171 87.6909 139.496C88.0992 139.821 88.6127 139.983 89.2316 139.983ZM95.149 144.348V139.726H95.972C96.1827 139.533 96.3605 139.303 96.5053 139.035C96.6546 138.767 96.7797 138.449 96.8806 138.08C96.986 137.711 97.0738 137.281 97.144 136.79C97.2142 136.294 97.2757 135.727 97.3283 135.091L97.6444 131.318H104.518V139.726H106.072V144.348H104.149V141.431H97.0979V144.348H95.149ZM98.0789 139.726H102.596V133.004H99.4089L99.1982 135.091C99.0972 136.153 98.97 137.075 98.8163 137.856C98.6627 138.633 98.4169 139.256 98.0789 139.726ZM112.256 141.636C111.308 141.636 110.481 141.418 109.774 140.984C109.067 140.549 108.518 139.941 108.128 139.16C107.737 138.379 107.542 137.466 107.542 136.421C107.542 135.372 107.737 134.455 108.128 133.669C108.518 132.883 109.067 132.273 109.774 131.838C110.481 131.404 111.308 131.187 112.256 131.187C113.204 131.187 114.032 131.404 114.738 131.838C115.445 132.273 115.994 132.883 116.384 133.669C116.775 134.455 116.97 135.372 116.97 136.421C116.97 137.466 116.775 138.379 116.384 139.16C115.994 139.941 115.445 140.549 114.738 140.984C114.032 141.418 113.204 141.636 112.256 141.636ZM112.263 139.983C112.877 139.983 113.386 139.821 113.79 139.496C114.194 139.171 114.492 138.739 114.686 138.199C114.883 137.659 114.982 137.064 114.982 136.414C114.982 135.769 114.883 135.177 114.686 134.637C114.492 134.092 114.194 133.656 113.79 133.326C113.386 132.997 112.877 132.833 112.263 132.833C111.644 132.833 111.13 132.997 110.722 133.326C110.318 133.656 110.017 134.092 109.82 134.637C109.627 135.177 109.53 135.769 109.53 136.414C109.53 137.064 109.627 137.659 109.82 138.199C110.017 138.739 110.318 139.171 110.722 139.496C111.13 139.821 111.644 139.983 112.263 139.983ZM118.568 138.758H120.583C120.61 139.171 120.796 139.489 121.143 139.713C121.494 139.937 121.948 140.049 122.506 140.049C123.072 140.049 123.555 139.928 123.954 139.687C124.354 139.441 124.553 139.061 124.553 138.548C124.553 138.24 124.477 137.973 124.323 137.744C124.174 137.512 123.961 137.332 123.684 137.204C123.412 137.077 123.09 137.014 122.716 137.014H121.07V135.466H122.716C123.274 135.466 123.691 135.339 123.967 135.084C124.244 134.83 124.382 134.512 124.382 134.13C124.382 133.717 124.233 133.386 123.934 133.136C123.64 132.881 123.23 132.754 122.703 132.754C122.168 132.754 121.722 132.874 121.367 133.116C121.011 133.353 120.825 133.66 120.807 134.038H118.819C118.832 133.471 119.003 132.975 119.332 132.55C119.666 132.119 120.114 131.786 120.675 131.549C121.242 131.307 121.885 131.187 122.604 131.187C123.355 131.187 124.005 131.307 124.553 131.549C125.102 131.79 125.526 132.124 125.824 132.55C126.127 132.975 126.278 133.465 126.278 134.018C126.278 134.575 126.112 135.032 125.778 135.387C125.449 135.738 125.019 135.991 124.488 136.144V136.25C124.878 136.276 125.225 136.395 125.528 136.605C125.831 136.816 126.068 137.095 126.239 137.441C126.41 137.788 126.496 138.181 126.496 138.62C126.496 139.239 126.324 139.774 125.982 140.227C125.644 140.679 125.174 141.028 124.573 141.273C123.976 141.515 123.294 141.636 122.525 141.636C121.779 141.636 121.11 141.519 120.517 141.287C119.929 141.05 119.462 140.716 119.115 140.286C118.773 139.856 118.59 139.346 118.568 138.758ZM128.528 145.224V131.318H130.451V132.958H130.616C130.73 132.747 130.894 132.503 131.109 132.227C131.324 131.95 131.623 131.709 132.005 131.503C132.387 131.292 132.891 131.187 133.519 131.187C134.336 131.187 135.064 131.393 135.705 131.806C136.346 132.218 136.849 132.813 137.213 133.59C137.582 134.367 137.766 135.302 137.766 136.395C137.766 137.488 137.584 138.425 137.219 139.206C136.855 139.983 136.355 140.582 135.718 141.003C135.082 141.42 134.355 141.629 133.539 141.629C132.924 141.629 132.422 141.526 132.031 141.319C131.645 141.113 131.342 140.872 131.123 140.595C130.903 140.319 130.734 140.073 130.616 139.858H130.497V145.224H128.528ZM130.458 136.375C130.458 137.086 130.561 137.709 130.767 138.245C130.973 138.78 131.272 139.199 131.662 139.502C132.053 139.801 132.532 139.95 133.098 139.95C133.686 139.95 134.178 139.794 134.573 139.483C134.968 139.166 135.266 138.739 135.468 138.199C135.674 137.659 135.778 137.051 135.778 136.375C135.778 135.708 135.677 135.109 135.475 134.577C135.277 134.046 134.979 133.627 134.579 133.32C134.184 133.013 133.69 132.859 133.098 132.859C132.527 132.859 132.044 133.006 131.649 133.3C131.259 133.594 130.962 134.005 130.76 134.531C130.559 135.058 130.458 135.673 130.458 136.375ZM141.901 138.673L146.358 131.318H148.478V141.431H146.549V134.07L142.111 141.431H139.972V131.318H141.901V138.673ZM149.871 133.017V131.318H158.404V133.017H155.105V141.431H153.182V133.017H149.871ZM164.374 141.636C163.377 141.636 162.519 141.423 161.799 140.997C161.084 140.567 160.531 139.963 160.14 139.186C159.754 138.405 159.561 137.49 159.561 136.441C159.561 135.405 159.754 134.492 160.14 133.702C160.531 132.912 161.075 132.295 161.773 131.852C162.475 131.408 163.296 131.187 164.235 131.187C164.806 131.187 165.359 131.281 165.895 131.47C166.43 131.658 166.911 131.955 167.336 132.359C167.762 132.762 168.098 133.287 168.344 133.932C168.59 134.573 168.713 135.352 168.713 136.27V136.967H160.673V135.493H166.783C166.783 134.975 166.678 134.516 166.467 134.117C166.257 133.713 165.96 133.394 165.579 133.162C165.201 132.929 164.758 132.813 164.249 132.813C163.695 132.813 163.213 132.949 162.8 133.221C162.392 133.489 162.076 133.84 161.852 134.275C161.632 134.705 161.523 135.172 161.523 135.677V136.829C161.523 137.505 161.641 138.08 161.878 138.554C162.12 139.028 162.455 139.39 162.886 139.641C163.316 139.886 163.818 140.009 164.393 140.009C164.766 140.009 165.107 139.957 165.414 139.851C165.721 139.741 165.987 139.579 166.211 139.364C166.434 139.149 166.606 138.883 166.724 138.567L168.587 138.903C168.438 139.452 168.17 139.932 167.784 140.345C167.402 140.753 166.922 141.071 166.342 141.3C165.767 141.524 165.111 141.636 164.374 141.636ZM170.1 141.431L170.094 139.726H170.456C170.737 139.726 170.971 139.667 171.16 139.548C171.353 139.425 171.511 139.219 171.634 138.929C171.757 138.64 171.851 138.24 171.917 137.731C171.983 137.218 172.031 136.572 172.062 135.795L172.24 131.318H179.298V141.431H177.369V133.017H174.064L173.906 136.454C173.866 137.288 173.781 138.016 173.649 138.64C173.522 139.263 173.335 139.783 173.089 140.2C172.843 140.613 172.527 140.922 172.141 141.129C171.755 141.33 171.285 141.431 170.732 141.431H170.1ZM183.405 134.795H186.341C187.579 134.795 188.532 135.102 189.199 135.716C189.866 136.331 190.2 137.123 190.2 138.093C190.2 138.725 190.05 139.294 189.752 139.799C189.453 140.303 189.017 140.703 188.442 140.997C187.867 141.287 187.167 141.431 186.341 141.431H181.923V131.318H183.853V139.733H186.341C186.908 139.733 187.373 139.586 187.737 139.292C188.101 138.993 188.284 138.613 188.284 138.153C188.284 137.665 188.101 137.268 187.737 136.961C187.373 136.649 186.908 136.493 186.341 136.493H183.405V134.795ZM199.261 135.526V137.231H193.783V135.526H199.261ZM194.336 131.318V141.431H192.407V131.318H194.336ZM200.637 131.318V141.431H198.714V131.318H200.637ZM204.752 134.795H207.688C208.926 134.795 209.879 135.102 210.546 135.716C211.213 136.331 211.547 137.123 211.547 138.093C211.547 138.725 211.397 139.294 211.099 139.799C210.8 140.303 210.364 140.703 209.789 140.997C209.214 141.287 208.514 141.431 207.688 141.431H203.271V131.318H205.2V139.733H207.688C208.255 139.733 208.72 139.586 209.084 139.292C209.449 138.993 209.631 138.613 209.631 138.153C209.631 137.665 209.449 137.268 209.084 136.961C208.72 136.649 208.255 136.493 207.688 136.493H204.752V134.795ZM212.982 141.431V131.318H214.951V141.431H212.982ZM221.951 141.636C220.955 141.636 220.097 141.423 219.377 140.997C218.661 140.567 218.108 139.963 217.718 139.186C217.331 138.405 217.138 137.49 217.138 136.441C217.138 135.405 217.331 134.492 217.718 133.702C218.108 132.912 218.652 132.295 219.35 131.852C220.053 131.408 220.874 131.187 221.813 131.187C222.383 131.187 222.937 131.281 223.472 131.47C224.008 131.658 224.488 131.955 224.914 132.359C225.34 132.762 225.675 133.287 225.921 133.932C226.167 134.573 226.29 135.352 226.29 136.27V136.967H218.251V135.493H224.361C224.361 134.975 224.256 134.516 224.045 134.117C223.834 133.713 223.538 133.394 223.156 133.162C222.778 132.929 222.335 132.813 221.826 132.813C221.273 132.813 220.79 132.949 220.378 133.221C219.969 133.489 219.653 133.84 219.429 134.275C219.21 134.705 219.1 135.172 219.1 135.677V136.829C219.1 137.505 219.219 138.08 219.456 138.554C219.697 139.028 220.033 139.39 220.463 139.641C220.893 139.886 221.396 140.009 221.971 140.009C222.344 140.009 222.684 139.957 222.991 139.851C223.299 139.741 223.564 139.579 223.788 139.364C224.012 139.149 224.183 138.883 224.302 138.567L226.165 138.903C226.016 139.452 225.748 139.932 225.362 140.345C224.98 140.753 224.499 141.071 223.92 141.3C223.345 141.524 222.689 141.636 221.951 141.636Z" fill="black"/>
<circle cx="45.2688" cy="171.698" r="10.8156" fill="#75A0E5"/>
<path d="M71.4712 178.882V165.398H73.5056V171.258H80.2279V165.398H82.269V178.882H80.2279V173.002H73.5056V178.882H71.4712ZM89.4324 179.086C88.436 179.086 87.5779 178.873 86.8581 178.447C86.1426 178.017 85.5895 177.414 85.1989 176.637C84.8126 175.855 84.6195 174.94 84.6195 173.891C84.6195 172.855 84.8126 171.942 85.1989 171.152C85.5895 170.362 86.1338 169.746 86.8317 169.302C87.534 168.859 88.3548 168.637 89.2942 168.637C89.8648 168.637 90.4178 168.732 90.9533 168.92C91.4888 169.109 91.9695 169.405 92.3952 169.809C92.821 170.213 93.1568 170.737 93.4026 171.383C93.6484 172.024 93.7713 172.803 93.7713 173.72V174.418H85.7322V172.943H91.8422C91.8422 172.425 91.7368 171.967 91.5262 171.567C91.3155 171.163 91.0192 170.845 90.6373 170.612C90.2598 170.38 89.8165 170.263 89.3073 170.263C88.7543 170.263 88.2714 170.4 87.8588 170.672C87.4506 170.939 87.1346 171.291 86.9107 171.725C86.6913 172.155 86.5815 172.623 86.5815 173.128V174.28C86.5815 174.956 86.7 175.531 86.9371 176.005C87.1785 176.479 87.5143 176.841 87.9444 177.091C88.3746 177.337 88.8772 177.46 89.4522 177.46C89.8253 177.46 90.1654 177.407 90.4727 177.302C90.78 177.192 91.0455 177.03 91.2694 176.815C91.4932 176.599 91.6644 176.334 91.7829 176.018L93.6462 176.354C93.497 176.902 93.2292 177.383 92.843 177.796C92.4611 178.204 91.9804 178.522 91.4011 178.75C90.826 178.974 90.1698 179.086 89.4324 179.086ZM104.205 168.769V177.269H105.687V182.141H103.744V178.882H95.9556V168.769H97.8847V177.183H102.283V168.769H104.205ZM112.119 179.086C111.123 179.086 110.265 178.873 109.545 178.447C108.83 178.017 108.277 177.414 107.886 176.637C107.5 175.855 107.306 174.94 107.306 173.891C107.306 172.855 107.5 171.942 107.886 171.152C108.277 170.362 108.821 169.746 109.519 169.302C110.221 168.859 111.042 168.637 111.981 168.637C112.552 168.637 113.105 168.732 113.64 168.92C114.176 169.109 114.656 169.405 115.082 169.809C115.508 170.213 115.844 170.737 116.09 171.383C116.335 172.024 116.458 172.803 116.458 173.72V174.418H108.419V172.943H114.529C114.529 172.425 114.424 171.967 114.213 171.567C114.002 171.163 113.706 170.845 113.324 170.612C112.947 170.38 112.503 170.263 111.994 170.263C111.441 170.263 110.958 170.4 110.546 170.672C110.138 170.939 109.822 171.291 109.598 171.725C109.378 172.155 109.269 172.623 109.269 173.128V174.28C109.269 174.956 109.387 175.531 109.624 176.005C109.865 176.479 110.201 176.841 110.631 177.091C111.062 177.337 111.564 177.46 112.139 177.46C112.512 177.46 112.852 177.407 113.16 177.302C113.467 177.192 113.732 177.03 113.956 176.815C114.18 176.599 114.351 176.334 114.47 176.018L116.333 176.354C116.184 176.902 115.916 177.383 115.53 177.796C115.148 178.204 114.667 178.522 114.088 178.75C113.513 178.974 112.857 179.086 112.119 179.086ZM117.846 178.882L117.839 177.177H118.201C118.482 177.177 118.717 177.117 118.906 176.999C119.099 176.876 119.257 176.67 119.38 176.38C119.503 176.09 119.597 175.691 119.663 175.182C119.729 174.668 119.777 174.023 119.808 173.246L119.986 168.769H127.044V178.882H125.115V170.468H121.809L121.651 173.904C121.612 174.738 121.526 175.467 121.395 176.09C121.267 176.714 121.081 177.234 120.835 177.651C120.589 178.063 120.273 178.373 119.887 178.579C119.501 178.781 119.031 178.882 118.478 178.882H117.846ZM134.028 179.086C133.031 179.086 132.173 178.873 131.453 178.447C130.738 178.017 130.185 177.414 129.794 176.637C129.408 175.855 129.215 174.94 129.215 173.891C129.215 172.855 129.408 171.942 129.794 171.152C130.185 170.362 130.729 169.746 131.427 169.302C132.129 168.859 132.95 168.637 133.89 168.637C134.46 168.637 135.013 168.732 135.549 168.92C136.084 169.109 136.565 169.405 136.991 169.809C137.416 170.213 137.752 170.737 137.998 171.383C138.244 172.024 138.367 172.803 138.367 173.72V174.418H130.328V172.943H136.438C136.438 172.425 136.332 171.967 136.122 171.567C135.911 171.163 135.615 170.845 135.233 170.612C134.855 170.38 134.412 170.263 133.903 170.263C133.35 170.263 132.867 170.4 132.454 170.672C132.046 170.939 131.73 171.291 131.506 171.725C131.287 172.155 131.177 172.623 131.177 173.128V174.28C131.177 174.956 131.295 175.531 131.532 176.005C131.774 176.479 132.11 176.841 132.54 177.091C132.97 177.337 133.473 177.46 134.048 177.46C134.421 177.46 134.761 177.407 135.068 177.302C135.375 177.192 135.641 177.03 135.865 176.815C136.089 176.599 136.26 176.334 136.378 176.018L138.242 176.354C138.092 176.902 137.825 177.383 137.438 177.796C137.056 178.204 136.576 178.522 135.996 178.75C135.421 178.974 134.765 179.086 134.028 179.086ZM140.551 178.882V168.769H144.745C145.886 168.769 146.79 169.012 147.458 169.5C148.125 169.983 148.458 170.639 148.458 171.468C148.458 172.061 148.27 172.531 147.892 172.877C147.515 173.224 147.014 173.457 146.391 173.575C146.843 173.628 147.258 173.764 147.635 173.983C148.013 174.199 148.316 174.488 148.544 174.853C148.777 175.217 148.893 175.651 148.893 176.156C148.893 176.692 148.755 177.166 148.478 177.578C148.202 177.987 147.8 178.307 147.273 178.54C146.751 178.768 146.121 178.882 145.384 178.882H140.551ZM142.401 177.236H145.384C145.871 177.236 146.253 177.12 146.529 176.887C146.806 176.654 146.944 176.338 146.944 175.939C146.944 175.469 146.806 175.101 146.529 174.833C146.253 174.561 145.871 174.425 145.384 174.425H142.401V177.236ZM142.401 172.983H144.765C145.133 172.983 145.449 172.93 145.713 172.825C145.981 172.719 146.185 172.57 146.325 172.377C146.47 172.179 146.542 171.947 146.542 171.679C146.542 171.288 146.382 170.983 146.062 170.764C145.741 170.544 145.302 170.435 144.745 170.435H142.401V172.983ZM152.534 172.245H155.47C156.708 172.245 157.661 172.552 158.328 173.167C158.995 173.782 159.329 174.574 159.329 175.544C159.329 176.176 159.179 176.744 158.881 177.249C158.582 177.754 158.146 178.153 157.571 178.447C156.996 178.737 156.296 178.882 155.47 178.882H151.052V168.769H152.982V177.183H155.47C156.037 177.183 156.502 177.036 156.866 176.742C157.231 176.444 157.413 176.064 157.413 175.603C157.413 175.116 157.231 174.719 156.866 174.411C156.502 174.1 156.037 173.944 155.47 173.944H152.534V172.245ZM160.764 178.882V168.769H162.733V178.882H160.764ZM169.733 179.086C168.737 179.086 167.879 178.873 167.159 178.447C166.443 178.017 165.89 177.414 165.5 176.637C165.113 175.855 164.92 174.94 164.92 173.891C164.92 172.855 165.113 171.942 165.5 171.152C165.89 170.362 166.434 169.746 167.132 169.302C167.835 168.859 168.655 168.637 169.595 168.637C170.165 168.637 170.718 168.732 171.254 168.92C171.789 169.109 172.27 169.405 172.696 169.809C173.122 170.213 173.457 170.737 173.703 171.383C173.949 172.024 174.072 172.803 174.072 173.72V174.418H166.033V172.943H172.143C172.143 172.425 172.037 171.967 171.827 171.567C171.616 171.163 171.32 170.845 170.938 170.612C170.56 170.38 170.117 170.263 169.608 170.263C169.055 170.263 168.572 170.4 168.159 170.672C167.751 170.939 167.435 171.291 167.211 171.725C166.992 172.155 166.882 172.623 166.882 173.128V174.28C166.882 174.956 167.001 175.531 167.238 176.005C167.479 176.479 167.815 176.841 168.245 177.091C168.675 177.337 169.178 177.46 169.753 177.46C170.126 177.46 170.466 177.407 170.773 177.302C171.081 177.192 171.346 177.03 171.57 176.815C171.794 176.599 171.965 176.334 172.084 176.018L173.947 176.354C173.798 176.902 173.53 177.383 173.144 177.796C172.762 178.204 172.281 178.522 171.702 178.75C171.127 178.974 170.47 179.086 169.733 179.086ZM181.163 178.882V168.769H183.132V173.009H184.08L187.418 168.769H189.854L185.936 173.687L189.9 178.882H187.457L184.409 174.839H183.132V178.882H181.163ZM190.632 178.882L190.626 177.177H190.988C191.269 177.177 191.504 177.117 191.692 176.999C191.886 176.876 192.044 176.67 192.167 176.38C192.289 176.09 192.384 175.691 192.45 175.182C192.515 174.668 192.564 174.023 192.595 173.246L192.772 168.769H199.83V178.882H197.901V170.468H194.596L194.438 173.904C194.399 174.738 194.313 175.467 194.181 176.09C194.054 176.714 193.867 177.234 193.622 177.651C193.376 178.063 193.06 178.373 192.674 178.579C192.287 178.781 191.818 178.882 191.265 178.882H190.632ZM204.385 176.123L208.842 168.769H210.962V178.882H209.033V171.521L204.596 178.882H202.456V168.769H204.385V176.123ZM213.609 178.882V168.769H215.578V173.009H216.526L219.864 168.769H222.3L218.383 173.687L222.346 178.882H219.903L216.855 174.839H215.578V178.882H213.609ZM225.804 176.123L230.262 168.769H232.382V178.882H230.453V171.521L226.015 178.882H223.875V168.769H225.804V176.123Z" fill="black"/>
<circle cx="45.2688" cy="209.148" r="8.907" fill="#27C58B" stroke="#27C58B" stroke-width="3.81728"/>
<path d="M84.9798 214.535L84.802 219.519H82.7741V216.333H81.826V214.535H84.9798ZM73.0166 216.333V202.848H74.9654V214.568H81.4705V202.848H83.4259V216.333H73.0166ZM91.4124 216.537C90.416 216.537 89.5579 216.324 88.838 215.898C88.1226 215.468 87.5695 214.864 87.1788 214.087C86.7926 213.306 86.5994 212.391 86.5994 211.342C86.5994 210.306 86.7926 209.393 87.1788 208.603C87.5695 207.813 88.1138 207.196 88.8117 206.753C89.514 206.309 90.3348 206.088 91.2741 206.088C91.8447 206.088 92.3978 206.182 92.9333 206.371C93.4688 206.56 93.9494 206.856 94.3752 207.26C94.801 207.664 95.1368 208.188 95.3826 208.833C95.6284 209.474 95.7513 210.253 95.7513 211.171V211.869H87.7121V210.394H93.8221C93.8221 209.876 93.7168 209.417 93.5061 209.018C93.2954 208.614 92.9991 208.296 92.6173 208.063C92.2398 207.83 91.7965 207.714 91.2873 207.714C90.7342 207.714 90.2514 207.85 89.8388 208.122C89.4306 208.39 89.1146 208.741 88.8907 209.176C88.6712 209.606 88.5615 210.073 88.5615 210.578V211.73C88.5615 212.406 88.68 212.981 88.917 213.455C89.1584 213.929 89.4942 214.291 89.9244 214.542C90.3545 214.787 90.8571 214.91 91.4321 214.91C91.8052 214.91 92.1454 214.858 92.4527 214.752C92.7599 214.643 93.0255 214.48 93.2493 214.265C93.4732 214.05 93.6444 213.784 93.7629 213.468L95.6262 213.804C95.4769 214.353 95.2092 214.834 94.8229 215.246C94.441 215.654 93.9604 215.973 93.381 216.201C92.806 216.425 92.1498 216.537 91.4124 216.537ZM97.1389 216.333L97.1323 214.627H97.4944C97.7753 214.627 98.0101 214.568 98.1989 214.449C98.392 214.327 98.55 214.12 98.6729 213.831C98.7958 213.541 98.8902 213.141 98.956 212.632C99.0219 212.119 99.0702 211.473 99.1009 210.697L99.2787 206.219H106.337V216.333H104.408V207.918H101.102L100.944 211.355C100.905 212.189 100.819 212.918 100.688 213.541C100.56 214.164 100.374 214.684 100.128 215.101C99.8822 215.514 99.5662 215.823 99.1799 216.03C98.7936 216.232 98.324 216.333 97.7709 216.333H97.1389ZM113.321 216.537C112.324 216.537 111.466 216.324 110.746 215.898C110.031 215.468 109.478 214.864 109.087 214.087C108.701 213.306 108.508 212.391 108.508 211.342C108.508 210.306 108.701 209.393 109.087 208.603C109.478 207.813 110.022 207.196 110.72 206.753C111.422 206.309 112.243 206.088 113.183 206.088C113.753 206.088 114.306 206.182 114.842 206.371C115.377 206.56 115.858 206.856 116.284 207.26C116.709 207.664 117.045 208.188 117.291 208.833C117.537 209.474 117.66 210.253 117.66 211.171V211.869H109.621V210.394H115.731C115.731 209.876 115.625 209.417 115.415 209.018C115.204 208.614 114.908 208.296 114.526 208.063C114.148 207.83 113.705 207.714 113.196 207.714C112.643 207.714 112.16 207.85 111.747 208.122C111.339 208.39 111.023 208.741 110.799 209.176C110.58 209.606 110.47 210.073 110.47 210.578V211.73C110.47 212.406 110.588 212.981 110.825 213.455C111.067 213.929 111.403 214.291 111.833 214.542C112.263 214.787 112.766 214.91 113.341 214.91C113.714 214.91 114.054 214.858 114.361 214.752C114.668 214.643 114.934 214.48 115.158 214.265C115.382 214.05 115.553 213.784 115.671 213.468L117.535 213.804C117.385 214.353 117.118 214.834 116.731 215.246C116.349 215.654 115.869 215.973 115.289 216.201C114.714 216.425 114.058 216.537 113.321 216.537ZM119.844 216.333V206.219H124.038C125.179 206.219 126.083 206.463 126.751 206.95C127.418 207.433 127.751 208.089 127.751 208.919C127.751 209.511 127.563 209.981 127.185 210.328C126.808 210.675 126.307 210.907 125.684 211.026C126.136 211.078 126.551 211.215 126.928 211.434C127.306 211.649 127.609 211.939 127.837 212.303C128.07 212.667 128.186 213.102 128.186 213.607C128.186 214.142 128.048 214.616 127.771 215.029C127.495 215.437 127.093 215.758 126.566 215.99C126.044 216.218 125.414 216.333 124.677 216.333H119.844ZM121.694 214.687H124.677C125.164 214.687 125.546 214.57 125.822 214.338C126.099 214.105 126.237 213.789 126.237 213.389C126.237 212.92 126.099 212.551 125.822 212.283C125.546 212.011 125.164 211.875 124.677 211.875H121.694V214.687ZM121.694 210.433H124.058C124.426 210.433 124.742 210.381 125.006 210.275C125.274 210.17 125.478 210.021 125.618 209.827C125.763 209.63 125.835 209.397 125.835 209.13C125.835 208.739 125.675 208.434 125.355 208.214C125.034 207.995 124.595 207.885 124.038 207.885H121.694V210.433ZM131.827 209.696H134.763C136.001 209.696 136.954 210.003 137.621 210.618C138.288 211.232 138.622 212.024 138.622 212.994C138.622 213.626 138.472 214.195 138.174 214.7C137.875 215.204 137.439 215.604 136.864 215.898C136.289 216.188 135.589 216.333 134.763 216.333H130.345V206.219H132.275V214.634H134.763C135.33 214.634 135.795 214.487 136.159 214.193C136.523 213.894 136.706 213.515 136.706 213.054C136.706 212.566 136.523 212.169 136.159 211.862C135.795 211.55 135.33 211.394 134.763 211.394H131.827V209.696ZM140.057 216.333V206.219H142.026V216.333H140.057ZM149.026 216.537C148.03 216.537 147.172 216.324 146.452 215.898C145.736 215.468 145.183 214.864 144.793 214.087C144.406 213.306 144.213 212.391 144.213 211.342C144.213 210.306 144.406 209.393 144.793 208.603C145.183 207.813 145.727 207.196 146.425 206.753C147.128 206.309 147.948 206.088 148.888 206.088C149.458 206.088 150.011 206.182 150.547 206.371C151.082 206.56 151.563 206.856 151.989 207.26C152.415 207.664 152.75 208.188 152.996 208.833C153.242 209.474 153.365 210.253 153.365 211.171V211.869H145.326V210.394H151.436C151.436 209.876 151.33 209.417 151.12 209.018C150.909 208.614 150.613 208.296 150.231 208.063C149.853 207.83 149.41 207.714 148.901 207.714C148.348 207.714 147.865 207.85 147.452 208.122C147.044 208.39 146.728 208.741 146.504 209.176C146.285 209.606 146.175 210.073 146.175 210.578V211.73C146.175 212.406 146.294 212.981 146.531 213.455C146.772 213.929 147.108 214.291 147.538 214.542C147.968 214.787 148.471 214.91 149.046 214.91C149.419 214.91 149.759 214.858 150.066 214.752C150.374 214.643 150.639 214.48 150.863 214.265C151.087 214.05 151.258 213.784 151.377 213.468L153.24 213.804C153.091 214.353 152.823 214.834 152.437 215.246C152.055 215.654 151.574 215.973 150.995 216.201C150.42 216.425 149.763 216.537 149.026 216.537ZM160.456 216.333V206.219H162.425V210.46H163.373L166.711 206.219H169.147L165.229 211.138L169.193 216.333H166.75L163.702 212.29H162.425V216.333H160.456ZM169.925 216.333L169.919 214.627H170.281C170.562 214.627 170.797 214.568 170.985 214.449C171.179 214.327 171.337 214.12 171.46 213.831C171.582 213.541 171.677 213.141 171.743 212.632C171.808 212.119 171.857 211.473 171.887 210.697L172.065 206.219H179.123V216.333H177.194V207.918H173.889L173.731 211.355C173.692 212.189 173.606 212.918 173.474 213.541C173.347 214.164 173.16 214.684 172.915 215.101C172.669 215.514 172.353 215.823 171.966 216.03C171.58 216.232 171.111 216.333 170.558 216.333H169.925ZM183.678 213.574L188.135 206.219H190.255V216.333H188.326V208.972L183.889 216.333H181.749V206.219H183.678V213.574ZM192.902 216.333V206.219H194.871V210.46H195.819L199.157 206.219H201.593L197.676 211.138L201.639 216.333H199.196L196.148 212.29H194.871V216.333H192.902ZM205.097 213.574L209.555 206.219H211.675V216.333H209.746V208.972L205.308 216.333H203.168V206.219H205.097V213.574Z" fill="black"/>
<g clip-path="url(#clip0_129_16529)">
<g clip-path="url(#clip1_129_16529)">
<g clip-path="url(#clip2_129_16529)">
<path d="M20.0898 150.251L27.1799 152.208C34.27 154.165 48.9147 162.13 62.6304 158.627C90.5572 151.494 92.5601 78.8728 106.74 83.2139C120.92 87.555 116.06 172.816 147.711 174.187C166.581 175.004 176.072 155.628 190.252 144.325C204.432 133.022 218.612 126.621 232.793 138.865C246.973 151.109 256.938 142.884 271.118 144.325C285.298 145.767 300.61 186.281 317.874 140.607C335.137 94.9336 339.101 90.4017 353.281 90.9414C367.461 91.4811 384.385 106.653 402.955 141.51C421.524 176.366 425.716 177.801 445.495 177.264C466.483 176.693 473.856 141.841 488.036 134.545C502.216 127.25 516.396 144.412 530.576 140.275C544.756 136.139 558.937 110.704 573.117 114.408C587.297 118.112 601.477 150.955 615.657 146.471C629.837 141.988 644.018 100.179 651.108 79.2743L658.198 58.3698" stroke="#27C58B" stroke-width="6.4833" stroke-linecap="round"/>
</g>
<path d="M27.1284 152.663L20.0898 150.697V330.3H611.331V146.899C597.254 151.404 583.177 118.402 569.099 114.68C555.022 110.958 540.945 136.516 526.868 140.673C512.791 144.829 498.714 127.584 484.636 134.915C470.559 142.246 463.241 177.267 442.405 177.84C422.77 178.381 418.608 176.939 400.173 141.913C381.739 106.887 367.501 95.1637 353.424 94.6213C339.347 94.079 332.848 95.1109 315.71 141.006C298.573 186.901 280.915 150.942 266.838 149.493C252.761 148.045 245.325 151.558 231.247 139.255C217.17 126.952 203.093 133.384 189.016 144.742C174.939 156.1 165.517 175.569 146.784 174.748C115.363 173.371 120.188 87.6966 106.111 83.3344C92.0337 78.9722 90.0453 151.946 62.3214 159.113C48.7053 162.633 34.167 154.629 27.1284 152.663Z" fill="#27C58B" fill-opacity="0.2"/>
</g>
<rect x="305.922" y="177.337" width="27.811" height="15.4506" fill="#6695E2"/>
<rect x="305.922" y="157.251" width="27.811" height="20.0857" fill="#4F5A7C"/>
<rect x="305.922" y="164.976" width="27.811" height="50.9868" fill="#27C58B"/>
<rect x="305.922" y="164.976" width="27.811" height="12.3604" fill="#6695E2"/>
<path d="M305.922 78.4536C305.922 73.3337 310.072 69.1832 315.192 69.1832H324.463C329.582 69.1832 333.733 73.3337 333.733 78.4536V157.251H305.922V78.4536Z" fill="#E26666"/>
<rect x="352.271" y="182.625" width="27.811" height="33.3407" fill="#27C58B"/>
<rect x="352.271" y="182.625" width="27.811" height="22.6717" fill="#6695E2"/>
<rect x="352.271" y="171.955" width="27.811" height="44.0097" fill="#27C58B"/>
<rect x="352.271" y="149.283" width="27.811" height="33.3407" fill="#4F5A7C"/>
<rect x="352.271" y="154.161" width="27.811" height="29.3561" fill="#6695E2"/>
<path d="M352.271 98.5401C352.271 93.4202 356.422 89.2698 361.542 89.2698H370.812C375.932 89.2698 380.082 93.4202 380.082 98.5401V149.283H352.271V98.5401Z" fill="#E26666"/>
<rect x="398.625" y="180.429" width="27.811" height="26.4842" fill="#27C58B"/>
<rect x="398.625" y="193.764" width="27.811" height="22.2" fill="#27C58B"/>
<rect x="398.625" y="171.158" width="27.811" height="44.0097" fill="#27C58B"/>
<rect x="398.625" y="149.527" width="27.811" height="21.6308" fill="#6695E2"/>
<rect x="398.625" y="128.333" width="27.811" height="21.1874" fill="#4F5A7C"/>
<path d="M398.625 84.6351C398.625 79.5152 402.775 75.3647 407.895 75.3647H417.166C422.286 75.3647 426.436 79.5152 426.436 84.6351V138.712H398.625V84.6351Z" fill="#E26666"/>
<rect x="444.977" y="171.156" width="27.811" height="44.8066" fill="#27C58B"/>
<rect x="444.977" y="147.98" width="27.811" height="23.1758" fill="#6695E2"/>
<rect x="444.977" y="148.469" width="27.811" height="6.5055" fill="#4F5A7C"/>
<path d="M444.977 147.981C444.977 142.861 449.127 138.71 454.247 138.71H463.517C468.637 138.71 472.788 142.861 472.788 147.981V150.095H444.977V147.981Z" fill="#E26666"/>
<g clip-path="url(#clip3_129_16529)">
<rect x="491.33" y="163.431" width="27.811" height="52.5319" fill="#27C58B"/>
<path d="M491.33 147.981C491.33 142.861 495.481 138.711 500.6 138.711H509.871C514.991 138.711 519.141 142.861 519.141 147.981V150.095H491.33V147.981Z" fill="#E26666"/>
<rect x="491.33" y="143.346" width="27.811" height="9.27033" fill="#4F5A7C"/>
<rect x="491.33" y="147.98" width="27.811" height="15.4506" fill="#6695E2"/>
</g>
<g clip-path="url(#clip4_129_16529)">
<rect x="537.682" y="143.346" width="27.811" height="72.6176" fill="#27C58B"/>
<path d="M537.684 127.896C537.684 122.776 541.834 118.626 546.954 118.626H556.224C561.344 118.626 565.495 122.776 565.495 127.896V130.01H537.684V127.896Z" fill="#E26666"/>
<rect x="537.684" y="118.626" width="27.811" height="13.9055" fill="#4F5A7C"/>
<rect x="537.682" y="127.897" width="27.811" height="15.4506" fill="#6695E2"/>
</g>
<g clip-path="url(#clip5_129_16529)">
<rect x="584.031" y="166.523" width="27.811" height="61.8022" fill="#27C58B"/>
<path d="M584.031 140.257C584.031 135.137 588.182 130.987 593.302 130.987H602.572C607.692 130.987 611.842 135.137 611.842 140.257V142.371H584.031V140.257Z" fill="#E26666"/>
<rect x="584.031" y="130.987" width="27.811" height="13.9055" fill="#4F5A7C"/>
<path d="M584.031 140.257C584.031 135.137 588.182 130.987 593.302 130.987H602.572C607.692 130.987 611.842 135.137 611.842 140.257V142.371H584.031V140.257Z" fill="#E26666"/>
<rect x="584.031" y="144.892" width="27.811" height="21.6308" fill="#6695E2"/>
</g>
</g>
<path d="M52.6846 36.3254H47.8782C47.7904 35.7036 47.6112 35.1513 47.3405 34.6684C47.0698 34.1783 46.7223 33.7613 46.298 33.4175C45.8737 33.0736 45.3836 32.8103 44.8276 32.6274C44.2789 32.4445 43.6827 32.3531 43.0389 32.3531C41.8758 32.3531 40.8625 32.642 39.9993 33.22C39.1361 33.7906 38.4667 34.6245 37.9912 35.7219C37.5157 36.8119 37.2779 38.136 37.2779 39.6943C37.2779 41.2964 37.5157 42.6425 37.9912 43.7325C38.474 44.8225 39.147 45.6455 40.0103 46.2015C40.8735 46.7575 41.8721 47.0355 43.006 47.0355C43.6425 47.0355 44.2314 46.9513 44.7727 46.7831C45.3214 46.6148 45.8079 46.3698 46.2322 46.0479C46.6565 45.7187 47.0076 45.32 47.2856 44.8518C47.5709 44.3836 47.7685 43.8495 47.8782 43.2496L52.6846 43.2716C52.5602 44.3031 52.2493 45.298 51.7518 46.2564C51.2617 47.2074 50.5996 48.0597 49.7656 48.8132C48.939 49.5594 47.9514 50.1519 46.8028 50.5909C45.6616 51.0225 44.3704 51.2383 42.9292 51.2383C40.9247 51.2383 39.1324 50.7847 37.5522 49.8776C35.9794 48.9704 34.7357 47.6573 33.8213 45.9381C32.9141 44.219 32.4606 42.1377 32.4606 39.6943C32.4606 37.2435 32.9215 35.1586 33.8432 33.4394C34.765 31.7203 36.016 30.4108 37.5961 29.5109C39.1763 28.6038 40.954 28.1502 42.9292 28.1502C44.2314 28.1502 45.4384 28.3331 46.5504 28.6989C47.6697 29.0647 48.661 29.5987 49.5242 30.301C50.3875 30.996 51.0898 31.8483 51.6311 32.8578C52.1798 33.8674 52.5309 35.0232 52.6846 36.3254ZM55.1261 37.752V34.0759H70.4011V37.752H64.9693V50.931H60.5141V37.752H55.1261ZM77.4378 51.2493C76.3624 51.2493 75.4041 51.0627 74.5628 50.6896C73.7215 50.3092 73.0558 49.7496 72.5656 49.0107C72.0828 48.2645 71.8414 47.3354 71.8414 46.2234C71.8414 45.287 72.0133 44.5006 72.3571 43.8642C72.701 43.2277 73.1692 42.7156 73.7617 42.3279C74.3543 41.9402 75.0273 41.6475 75.7808 41.45C76.5417 41.2525 77.3391 41.1135 78.173 41.033C79.1533 40.9306 79.9434 40.8355 80.5433 40.7477C81.1432 40.6526 81.5784 40.5136 81.8491 40.3307C82.1198 40.1478 82.2551 39.8772 82.2551 39.5187V39.4528C82.2551 38.7579 82.0357 38.2202 81.5967 37.8398C81.1651 37.4593 80.5506 37.2691 79.7532 37.2691C78.9119 37.2691 78.2425 37.4557 77.7451 37.8288C77.2476 38.1946 76.9184 38.6554 76.7575 39.2114L72.4339 38.8603C72.6534 37.8361 73.085 36.9509 73.7288 36.2047C74.3726 35.4512 75.2029 34.8733 76.2198 34.4709C77.244 34.0612 78.4291 33.8564 79.7752 33.8564C80.7115 33.8564 81.6077 33.9661 82.4636 34.1856C83.3269 34.4051 84.0914 34.7453 84.7571 35.2061C85.4301 35.667 85.9605 36.2596 86.3482 36.9838C86.7359 37.7008 86.9298 38.5603 86.9298 39.5626V50.931H82.4966V48.5937H82.3649C82.0942 49.1204 81.7321 49.585 81.2785 49.9873C80.8249 50.3824 80.2799 50.6933 79.6435 50.9201C79.007 51.1395 78.2718 51.2493 77.4378 51.2493ZM78.7766 48.0231C79.4642 48.0231 80.0714 47.8877 80.5982 47.6171C81.1249 47.3391 81.5382 46.966 81.8382 46.4978C82.1381 46.0296 82.2881 45.4992 82.2881 44.9066V43.118C82.1417 43.2131 81.9406 43.3009 81.6845 43.3813C81.4358 43.4545 81.1541 43.524 80.8396 43.5898C80.525 43.6483 80.2104 43.7032 79.8959 43.7544C79.5813 43.7983 79.296 43.8386 79.0399 43.8751C78.4913 43.9556 78.0121 44.0836 77.6024 44.2592C77.1927 44.4348 76.8745 44.6725 76.6477 44.9725C76.4209 45.2651 76.3076 45.6309 76.3076 46.0698C76.3076 46.7063 76.538 47.1928 76.9989 47.5293C77.4671 47.8585 78.0596 48.0231 78.7766 48.0231ZM88.8639 37.752V34.0759H104.139V37.752H98.707V50.931H94.2518V37.752H88.8639ZM111.439 44.764L117.507 34.0759H122.116V50.931H117.661V40.21L111.614 50.931H106.973V34.0759H111.439V44.764ZM133.479 51.2602C131.753 51.2602 130.267 50.8945 129.024 50.1629C127.787 49.424 126.836 48.3998 126.171 47.0903C125.512 45.7808 125.183 44.2738 125.183 42.5693C125.183 40.8428 125.516 39.3285 126.182 38.0263C126.855 36.7168 127.809 35.6963 129.046 34.9647C130.282 34.2258 131.753 33.8564 133.457 33.8564C134.927 33.8564 136.215 34.1234 137.32 34.6575C138.424 35.1915 139.299 35.9414 139.942 36.907C140.586 37.8727 140.941 39.0066 141.007 40.3088H136.595C136.471 39.4675 136.142 38.7908 135.608 38.2787C135.081 37.7593 134.39 37.4996 133.534 37.4996C132.81 37.4996 132.177 37.6971 131.635 38.0921C131.101 38.4799 130.684 39.0468 130.385 39.793C130.085 40.5392 129.935 41.4427 129.935 42.5035C129.935 43.5788 130.081 44.4933 130.374 45.2468C130.673 46.0003 131.094 46.5746 131.635 46.9696C132.177 47.3647 132.81 47.5622 133.534 47.5622C134.068 47.5622 134.547 47.4525 134.971 47.233C135.403 47.0135 135.758 46.6953 136.036 46.2783C136.321 45.854 136.508 45.3456 136.595 44.753H141.007C140.934 46.0405 140.582 47.1745 139.953 48.1548C139.331 49.1277 138.472 49.8886 137.375 50.4372C136.277 50.9859 134.979 51.2602 133.479 51.2602ZM142.85 37.752V34.0759H158.125V37.752H152.693V50.931H148.238V37.752H142.85ZM165.425 44.764L171.494 34.0759H176.102V50.931H171.647V40.21L165.601 50.931H160.959V34.0759H165.425V44.764ZM179.85 50.931V34.0759H184.525V40.616H185.841L190.428 34.0759H195.915L189.956 42.4376L195.981 50.931H190.428L186.269 44.9505H184.525V50.931H179.85ZM202.762 51.2493C201.687 51.2493 200.729 51.0627 199.887 50.6896C199.046 50.3092 198.38 49.7496 197.89 49.0107C197.407 48.2645 197.166 47.3354 197.166 46.2234C197.166 45.287 197.338 44.5006 197.682 43.8642C198.025 43.2277 198.494 42.7156 199.086 42.3279C199.679 41.9402 200.352 41.6475 201.105 41.45C201.866 41.2525 202.664 41.1135 203.498 41.033C204.478 40.9306 205.268 40.8355 205.868 40.7477C206.468 40.6526 206.903 40.5136 207.174 40.3307C207.444 40.1478 207.58 39.8772 207.58 39.5187V39.4528C207.58 38.7579 207.36 38.2202 206.921 37.8398C206.49 37.4593 205.875 37.2691 205.078 37.2691C204.236 37.2691 203.567 37.4557 203.07 37.8288C202.572 38.1946 202.243 38.6554 202.082 39.2114L197.758 38.8603C197.978 37.8361 198.41 36.9509 199.053 36.2047C199.697 35.4512 200.527 34.8733 201.544 34.4709C202.568 34.0612 203.754 33.8564 205.1 33.8564C206.036 33.8564 206.932 33.9661 207.788 34.1856C208.651 34.4051 209.416 34.7453 210.082 35.2061C210.755 35.667 211.285 36.2596 211.673 36.9838C212.06 37.7008 212.254 38.5603 212.254 39.5626V50.931H207.821V48.5937H207.689C207.419 49.1204 207.057 49.585 206.603 49.9873C206.149 50.3824 205.604 50.6933 204.968 50.9201C204.332 51.1395 203.596 51.2493 202.762 51.2493ZM204.101 48.0231C204.789 48.0231 205.396 47.8877 205.923 47.6171C206.449 47.3391 206.863 46.966 207.163 46.4978C207.463 46.0296 207.613 45.4992 207.613 44.9066V43.118C207.466 43.2131 207.265 43.3009 207.009 43.3813C206.76 43.4545 206.479 43.524 206.164 43.5898C205.85 43.6483 205.535 43.7032 205.22 43.7544C204.906 43.7983 204.621 43.8386 204.364 43.8751C203.816 43.9556 203.337 44.0836 202.927 44.2592C202.517 44.4348 202.199 44.6725 201.972 44.9725C201.745 45.2651 201.632 45.6309 201.632 46.0698C201.632 46.7063 201.863 47.1928 202.323 47.5293C202.792 47.8585 203.384 48.0231 204.101 48.0231ZM223.033 50.931V34.0759H230.221C232.298 34.0759 233.941 34.4709 235.148 35.261C236.355 36.0511 236.958 37.174 236.958 38.6298C236.958 39.5443 236.618 40.3051 235.938 40.9123C235.257 41.5195 234.314 41.9292 233.107 42.1413C234.116 42.2145 234.976 42.4449 235.685 42.8327C236.402 43.2131 236.947 43.7069 237.32 44.3141C237.701 44.9213 237.891 45.5943 237.891 46.3332C237.891 47.2915 237.635 48.1145 237.123 48.8022C236.618 49.4899 235.876 50.0166 234.895 50.3824C233.922 50.7481 232.733 50.931 231.329 50.931H223.033ZM227.389 47.4305H231.329C231.98 47.4305 232.488 47.2769 232.854 46.9696C233.227 46.6551 233.414 46.2271 233.414 45.6857C233.414 45.0859 233.227 44.614 232.854 44.2702C232.488 43.9263 231.98 43.7544 231.329 43.7544H227.389V47.4305ZM227.389 41.0111H230.319C230.788 41.0111 231.186 40.9452 231.515 40.8135C231.852 40.6746 232.108 40.477 232.284 40.221C232.466 39.9649 232.558 39.6613 232.558 39.3102C232.558 38.7908 232.349 38.3848 231.932 38.0921C231.515 37.7995 230.945 37.6532 230.221 37.6532H227.389V41.0111ZM245.303 44.764L251.372 34.0759H255.981V50.931H251.525V40.21L245.479 50.931H240.837V34.0759H245.303V44.764ZM258.861 46.1576H263.393C263.415 46.7136 263.664 47.1525 264.139 47.4744C264.615 47.7963 265.229 47.9572 265.983 47.9572C266.744 47.9572 267.384 47.7817 267.903 47.4305C268.423 47.072 268.682 46.56 268.682 45.8942C268.682 45.4846 268.58 45.1298 268.375 44.8298C268.17 44.5226 267.885 44.2811 267.519 44.1056C267.153 43.93 266.729 43.8422 266.246 43.8422H263.821V40.7806H266.246C266.97 40.7806 267.526 40.6124 267.914 40.2759C268.309 39.9393 268.507 39.5187 268.507 39.0139C268.507 38.4433 268.302 37.9861 267.892 37.6422C267.49 37.2911 266.945 37.1155 266.257 37.1155C265.562 37.1155 264.984 37.2728 264.523 37.5874C264.07 37.8946 263.836 38.297 263.821 38.7944H259.311C259.326 37.7849 259.629 36.9107 260.222 36.1718C260.822 35.4329 261.626 34.8623 262.636 34.4599C263.653 34.0576 264.79 33.8564 266.049 33.8564C267.424 33.8564 268.609 34.0503 269.604 34.438C270.606 34.8184 271.374 35.3634 271.909 36.073C272.45 36.7827 272.721 37.6276 272.721 38.6079C272.721 39.5004 272.428 40.2466 271.843 40.8465C271.257 41.4463 270.438 41.8743 269.385 42.1304V42.3059C270.08 42.3498 270.709 42.5364 271.272 42.8656C271.835 43.1948 272.285 43.6483 272.622 44.2263C272.958 44.7969 273.127 45.4736 273.127 46.2564C273.127 47.3025 272.819 48.1987 272.205 48.9448C271.598 49.691 270.756 50.2653 269.681 50.6677C268.613 51.0627 267.387 51.2602 266.005 51.2602C264.659 51.2602 263.452 51.0664 262.384 50.6786C261.323 50.2836 260.478 49.7057 259.849 48.9448C259.227 48.184 258.898 47.2549 258.861 46.1576ZM280.46 44.764L286.528 34.0759H291.137V50.931H286.681V40.21L280.635 50.931H275.993V34.0759H280.46V44.764ZM293.191 37.752V34.0759H308.466V37.752H303.035V50.931H298.579V37.752H293.191ZM318.312 51.2602C316.608 51.2602 315.134 50.8981 313.89 50.1739C312.654 49.4423 311.699 48.4254 311.026 47.1233C310.353 45.8138 310.016 44.2958 310.016 42.5693C310.016 40.8282 310.353 39.3065 311.026 38.0044C311.699 36.6949 312.654 35.678 313.89 34.9537C315.134 34.2222 316.608 33.8564 318.312 33.8564C320.017 33.8564 321.487 34.2222 322.724 34.9537C323.967 35.678 324.926 36.6949 325.599 38.0044C326.272 39.3065 326.608 40.8282 326.608 42.5693C326.608 44.2958 326.272 45.8138 325.599 47.1233C324.926 48.4254 323.967 49.4423 322.724 50.1739C321.487 50.8981 320.017 51.2602 318.312 51.2602ZM318.334 47.639C319.11 47.639 319.757 47.4195 320.277 46.9806C320.796 46.5344 321.187 45.9272 321.451 45.159C321.721 44.3909 321.857 43.5167 321.857 42.5364C321.857 41.5561 321.721 40.6819 321.451 39.9137C321.187 39.1456 320.796 38.5384 320.277 38.0921C319.757 37.6459 319.11 37.4228 318.334 37.4228C317.551 37.4228 316.893 37.6459 316.359 38.0921C315.832 38.5384 315.434 39.1456 315.163 39.9137C314.9 40.6819 314.768 41.5561 314.768 42.5364C314.768 43.5167 314.9 44.3909 315.163 45.159C315.434 45.9272 315.832 46.5344 316.359 46.9806C316.893 47.4195 317.551 47.639 318.334 47.639ZM329.648 50.931V34.0759H336.835C338.913 34.0759 340.555 34.4709 341.762 35.261C342.97 36.0511 343.573 37.174 343.573 38.6298C343.573 39.5443 343.233 40.3051 342.553 40.9123C341.872 41.5195 340.928 41.9292 339.721 42.1413C340.731 42.2145 341.591 42.4449 342.3 42.8327C343.017 43.2131 343.562 43.7069 343.935 44.3141C344.316 44.9213 344.506 45.5943 344.506 46.3332C344.506 47.2915 344.25 48.1145 343.738 48.8022C343.233 49.4899 342.49 50.0166 341.51 50.3824C340.537 50.7481 339.348 50.931 337.944 50.931H329.648ZM334.004 47.4305H337.944C338.595 47.4305 339.103 47.2769 339.469 46.9696C339.842 46.6551 340.029 46.2271 340.029 45.6857C340.029 45.0859 339.842 44.614 339.469 44.2702C339.103 43.9263 338.595 43.7544 337.944 43.7544H334.004V47.4305ZM334.004 41.0111H336.934C337.402 41.0111 337.801 40.9452 338.13 40.8135C338.467 40.6746 338.723 40.477 338.898 40.221C339.081 39.9649 339.173 39.6613 339.173 39.3102C339.173 38.7908 338.964 38.3848 338.547 38.0921C338.13 37.7995 337.56 37.6532 336.835 37.6532H334.004V41.0111Z" fill="#070707"/>
<path d="M299.973 227.61V241.094H297.932V229.651H297.853L294.627 231.758V229.809L297.992 227.61H299.973ZM303.621 241.094V239.62L308.184 234.892C308.671 234.379 309.073 233.929 309.389 233.542C309.709 233.152 309.948 232.781 310.106 232.43C310.264 232.079 310.343 231.706 310.343 231.31C310.343 230.863 310.238 230.476 310.027 230.152C309.817 229.822 309.529 229.57 309.165 229.395C308.8 229.215 308.39 229.125 307.934 229.125C307.451 229.125 307.029 229.223 306.669 229.421C306.309 229.618 306.033 229.897 305.84 230.257C305.647 230.617 305.55 231.038 305.55 231.521H303.608C303.608 230.7 303.797 229.983 304.174 229.368C304.552 228.754 305.069 228.277 305.728 227.939C306.386 227.597 307.135 227.426 307.973 227.426C308.82 227.426 309.566 227.595 310.212 227.933C310.861 228.266 311.368 228.723 311.733 229.302C312.097 229.877 312.279 230.527 312.279 231.251C312.279 231.752 312.185 232.241 311.996 232.719C311.812 233.198 311.489 233.731 311.028 234.319C310.567 234.903 309.926 235.612 309.105 236.446L306.426 239.251V239.35H312.496V241.094H303.621ZM316.315 241.219C315.955 241.219 315.646 241.092 315.387 240.838C315.128 240.579 314.998 240.267 314.998 239.903C314.998 239.543 315.128 239.235 315.387 238.981C315.646 238.722 315.955 238.592 316.315 238.592C316.675 238.592 316.984 238.722 317.243 238.981C317.502 239.235 317.632 239.543 317.632 239.903C317.632 240.144 317.57 240.366 317.447 240.568C317.329 240.765 317.171 240.923 316.973 241.042C316.776 241.16 316.556 241.219 316.315 241.219ZM324.448 241.318C323.408 241.314 322.519 241.039 321.781 240.495C321.044 239.951 320.48 239.159 320.089 238.118C319.699 237.078 319.503 235.825 319.503 234.359C319.503 232.897 319.699 231.648 320.089 230.613C320.484 229.577 321.051 228.787 321.788 228.242C322.53 227.698 323.416 227.426 324.448 227.426C325.479 227.426 326.364 227.7 327.101 228.249C327.839 228.793 328.403 229.583 328.793 230.619C329.188 231.651 329.386 232.897 329.386 234.359C329.386 235.829 329.191 237.085 328.8 238.125C328.409 239.161 327.845 239.953 327.108 240.502C326.37 241.046 325.484 241.318 324.448 241.318ZM324.448 239.56C325.361 239.56 326.074 239.115 326.588 238.224C327.106 237.333 327.365 236.044 327.365 234.359C327.365 233.24 327.246 232.294 327.009 231.521C326.776 230.744 326.441 230.156 326.002 229.757C325.567 229.353 325.049 229.151 324.448 229.151C323.539 229.151 322.826 229.599 322.308 230.494C321.79 231.389 321.529 232.678 321.525 234.359C321.525 235.483 321.641 236.433 321.874 237.21C322.111 237.982 322.446 238.568 322.881 238.968C323.315 239.363 323.838 239.56 324.448 239.56ZM336.429 241.279C335.828 241.27 335.235 241.16 334.652 240.95C334.072 240.739 333.545 240.388 333.071 239.896C332.597 239.404 332.218 238.744 331.932 237.914C331.651 237.085 331.511 236.049 331.511 234.807C331.511 233.63 331.627 232.586 331.86 231.673C332.097 230.76 332.437 229.989 332.88 229.362C333.324 228.73 333.859 228.249 334.487 227.92C335.115 227.59 335.819 227.426 336.6 227.426C337.404 227.426 338.117 227.584 338.74 227.9C339.364 228.216 339.868 228.653 340.255 229.21C340.645 229.768 340.893 230.402 340.999 231.113H338.99C338.854 230.551 338.584 230.092 338.181 229.737C337.777 229.381 337.25 229.204 336.6 229.204C335.613 229.204 334.842 229.634 334.289 230.494C333.741 231.354 333.464 232.55 333.46 234.082H333.559C333.791 233.7 334.077 233.376 334.415 233.108C334.757 232.836 335.139 232.627 335.56 232.482C335.986 232.333 336.434 232.259 336.903 232.259C337.685 232.259 338.391 232.45 339.023 232.831C339.66 233.209 340.167 233.731 340.544 234.398C340.922 235.066 341.111 235.829 341.111 236.69C341.111 237.55 340.915 238.329 340.525 239.027C340.138 239.725 339.594 240.278 338.892 240.686C338.189 241.09 337.369 241.287 336.429 241.279ZM336.423 239.567C336.941 239.567 337.404 239.44 337.812 239.185C338.22 238.93 338.543 238.588 338.78 238.158C339.017 237.728 339.135 237.247 339.135 236.716C339.135 236.198 339.019 235.726 338.786 235.3C338.558 234.875 338.242 234.537 337.838 234.286C337.439 234.036 336.982 233.911 336.469 233.911C336.078 233.911 335.716 233.986 335.382 234.135C335.053 234.284 334.763 234.491 334.513 234.754C334.263 235.017 334.066 235.32 333.921 235.663C333.78 236.001 333.71 236.358 333.71 236.736C333.71 237.241 333.826 237.708 334.059 238.138C334.296 238.568 334.619 238.915 335.027 239.178C335.439 239.437 335.905 239.567 336.423 239.567Z" fill="#9F9F9F"/>
<path d="M394.223 227.61V241.094H392.182V229.651H392.103L388.877 231.758V229.809L392.242 227.61H394.223ZM397.588 238.461V236.815L403.415 227.61H404.712V230.033H403.889L399.721 236.63V236.736H407.708V238.461H397.588ZM403.981 241.094V237.96L403.994 237.21V227.61H405.923V241.094H403.981ZM410.818 241.219C410.459 241.219 410.149 241.092 409.89 240.838C409.631 240.579 409.502 240.267 409.502 239.903C409.502 239.543 409.631 239.235 409.89 238.981C410.149 238.722 410.459 238.592 410.818 238.592C411.178 238.592 411.488 238.722 411.747 238.981C412.006 239.235 412.135 239.543 412.135 239.903C412.135 240.144 412.074 240.366 411.951 240.568C411.832 240.765 411.674 240.923 411.477 241.042C411.279 241.16 411.06 241.219 410.818 241.219ZM418.951 241.318C417.911 241.314 417.022 241.039 416.285 240.495C415.547 239.951 414.983 239.159 414.593 238.118C414.202 237.078 414.007 235.825 414.007 234.359C414.007 232.897 414.202 231.648 414.593 230.613C414.988 229.577 415.554 228.787 416.291 228.242C417.033 227.698 417.92 227.426 418.951 227.426C419.983 227.426 420.867 227.7 421.605 228.249C422.342 228.793 422.906 229.583 423.297 230.619C423.692 231.651 423.889 232.897 423.889 234.359C423.889 235.829 423.694 237.085 423.303 238.125C422.913 239.161 422.349 239.953 421.611 240.502C420.874 241.046 419.987 241.318 418.951 241.318ZM418.951 239.56C419.864 239.56 420.578 239.115 421.091 238.224C421.609 237.333 421.868 236.044 421.868 234.359C421.868 233.24 421.75 232.294 421.513 231.521C421.28 230.744 420.944 230.156 420.505 229.757C420.071 229.353 419.553 229.151 418.951 229.151C418.043 229.151 417.33 229.599 416.812 230.494C416.294 231.389 416.032 232.678 416.028 234.359C416.028 235.483 416.144 236.433 416.377 237.21C416.614 237.982 416.95 238.568 417.384 238.968C417.819 239.363 418.341 239.56 418.951 239.56ZM430.933 241.279C430.331 241.27 429.739 241.16 429.155 240.95C428.576 240.739 428.049 240.388 427.575 239.896C427.101 239.404 426.721 238.744 426.436 237.914C426.155 237.085 426.014 236.049 426.014 234.807C426.014 233.63 426.131 232.586 426.363 231.673C426.6 230.76 426.941 229.989 427.384 229.362C427.827 228.73 428.363 228.249 428.99 227.92C429.618 227.59 430.323 227.426 431.104 227.426C431.907 227.426 432.62 227.584 433.244 227.9C433.867 228.216 434.372 228.653 434.758 229.21C435.149 229.768 435.397 230.402 435.502 231.113H433.494C433.358 230.551 433.088 230.092 432.684 229.737C432.28 229.381 431.754 229.204 431.104 229.204C430.116 229.204 429.346 229.634 428.793 230.494C428.244 231.354 427.968 232.55 427.963 234.082H428.062C428.295 233.7 428.58 233.376 428.918 233.108C429.26 232.836 429.642 232.627 430.064 232.482C430.489 232.333 430.937 232.259 431.407 232.259C432.188 232.259 432.895 232.45 433.527 232.831C434.163 233.209 434.67 233.731 435.048 234.398C435.425 235.066 435.614 235.829 435.614 236.69C435.614 237.55 435.419 238.329 435.028 239.027C434.642 239.725 434.097 240.278 433.395 240.686C432.693 241.09 431.872 241.287 430.933 241.279ZM430.926 239.567C431.444 239.567 431.907 239.44 432.315 239.185C432.724 238.93 433.046 238.588 433.283 238.158C433.52 237.728 433.639 237.247 433.639 236.716C433.639 236.198 433.522 235.726 433.29 235.3C433.062 234.875 432.746 234.537 432.342 234.286C431.942 234.036 431.486 233.911 430.972 233.911C430.582 233.911 430.219 233.986 429.886 234.135C429.557 234.284 429.267 234.491 429.017 234.754C428.767 235.017 428.569 235.32 428.424 235.663C428.284 236.001 428.214 236.358 428.214 236.736C428.214 237.241 428.33 237.708 428.562 238.138C428.8 238.568 429.122 238.915 429.53 239.178C429.943 239.437 430.408 239.567 430.926 239.567Z" fill="#9F9F9F"/>
<path d="M486.927 227.61V241.094H484.885V229.651H484.806L481.58 231.758V229.809L484.945 227.61H486.927ZM495.282 241.279C494.68 241.27 494.088 241.16 493.504 240.95C492.925 240.739 492.398 240.388 491.924 239.896C491.45 239.404 491.07 238.744 490.785 237.914C490.504 237.085 490.363 236.049 490.363 234.807C490.363 233.63 490.48 232.586 490.712 231.673C490.949 230.76 491.29 229.989 491.733 229.362C492.176 228.73 492.712 228.249 493.339 227.92C493.967 227.59 494.672 227.426 495.453 227.426C496.256 227.426 496.969 227.584 497.593 227.9C498.216 228.216 498.721 228.653 499.107 229.21C499.498 229.768 499.746 230.402 499.851 231.113H497.843C497.707 230.551 497.437 230.092 497.033 229.737C496.629 229.381 496.102 229.204 495.453 229.204C494.465 229.204 493.695 229.634 493.142 230.494C492.593 231.354 492.317 232.55 492.312 234.082H492.411C492.644 233.7 492.929 233.376 493.267 233.108C493.609 232.836 493.991 232.627 494.413 232.482C494.838 232.333 495.286 232.259 495.756 232.259C496.537 232.259 497.244 232.45 497.876 232.831C498.512 233.209 499.019 233.731 499.397 234.398C499.774 235.066 499.963 235.829 499.963 236.69C499.963 237.55 499.768 238.329 499.377 239.027C498.991 239.725 498.446 240.278 497.744 240.686C497.042 241.09 496.221 241.287 495.282 241.279ZM495.275 239.567C495.793 239.567 496.256 239.44 496.664 239.185C497.073 238.93 497.395 238.588 497.632 238.158C497.869 237.728 497.988 237.247 497.988 236.716C497.988 236.198 497.871 235.726 497.639 235.3C497.411 234.875 497.094 234.537 496.691 234.286C496.291 234.036 495.835 233.911 495.321 233.911C494.931 233.911 494.568 233.986 494.235 234.135C493.906 234.284 493.616 234.491 493.366 234.754C493.116 235.017 492.918 235.32 492.773 235.663C492.633 236.001 492.562 236.358 492.562 236.736C492.562 237.241 492.679 237.708 492.911 238.138C493.148 238.568 493.471 238.915 493.879 239.178C494.292 239.437 494.757 239.567 495.275 239.567ZM503.069 241.219C502.709 241.219 502.4 241.092 502.141 240.838C501.882 240.579 501.752 240.267 501.752 239.903C501.752 239.543 501.882 239.235 502.141 238.981C502.4 238.722 502.709 238.592 503.069 238.592C503.429 238.592 503.738 238.722 503.997 238.981C504.256 239.235 504.386 239.543 504.386 239.903C504.386 240.144 504.324 240.366 504.201 240.568C504.083 240.765 503.925 240.923 503.727 241.042C503.53 241.16 503.31 241.219 503.069 241.219ZM511.202 241.318C510.162 241.314 509.273 241.039 508.535 240.495C507.798 239.951 507.234 239.159 506.843 238.118C506.453 237.078 506.257 235.825 506.257 234.359C506.257 232.897 506.453 231.648 506.843 230.613C507.238 229.577 507.805 228.787 508.542 228.242C509.284 227.698 510.17 227.426 511.202 227.426C512.233 227.426 513.118 227.7 513.855 228.249C514.593 228.793 515.157 229.583 515.547 230.619C515.942 231.651 516.14 232.897 516.14 234.359C516.14 235.829 515.945 237.085 515.554 238.125C515.163 239.161 514.599 239.953 513.862 240.502C513.124 241.046 512.238 241.318 511.202 241.318ZM511.202 239.56C512.115 239.56 512.828 239.115 513.342 238.224C513.86 237.333 514.119 236.044 514.119 234.359C514.119 233.24 514 232.294 513.763 231.521C513.53 230.744 513.195 230.156 512.756 229.757C512.321 229.353 511.803 229.151 511.202 229.151C510.293 229.151 509.58 229.599 509.062 230.494C508.544 231.389 508.283 232.678 508.279 234.359C508.279 235.483 508.395 236.433 508.628 237.21C508.865 237.982 509.2 238.568 509.635 238.968C510.069 239.363 510.592 239.56 511.202 239.56ZM523.183 241.279C522.582 241.27 521.989 241.16 521.406 240.95C520.826 240.739 520.299 240.388 519.825 239.896C519.351 239.404 518.972 238.744 518.686 237.914C518.405 237.085 518.265 236.049 518.265 234.807C518.265 233.63 518.381 232.586 518.614 231.673C518.851 230.76 519.191 229.989 519.634 229.362C520.078 228.73 520.613 228.249 521.241 227.92C521.869 227.59 522.573 227.426 523.354 227.426C524.158 227.426 524.871 227.584 525.494 227.9C526.117 228.216 526.622 228.653 527.009 229.21C527.399 229.768 527.647 230.402 527.753 231.113H525.744C525.608 230.551 525.338 230.092 524.935 229.737C524.531 229.381 524.004 229.204 523.354 229.204C522.367 229.204 521.596 229.634 521.043 230.494C520.495 231.354 520.218 232.55 520.214 234.082H520.313C520.545 233.7 520.831 233.376 521.168 233.108C521.511 232.836 521.893 232.627 522.314 232.482C522.74 232.333 523.188 232.259 523.657 232.259C524.439 232.259 525.145 232.45 525.777 232.831C526.414 233.209 526.921 233.731 527.298 234.398C527.676 235.066 527.864 235.829 527.864 236.69C527.864 237.55 527.669 238.329 527.278 239.027C526.892 239.725 526.348 240.278 525.646 240.686C524.943 241.09 524.123 241.287 523.183 241.279ZM523.177 239.567C523.695 239.567 524.158 239.44 524.566 239.185C524.974 238.93 525.297 238.588 525.534 238.158C525.771 237.728 525.889 237.247 525.889 236.716C525.889 236.198 525.773 235.726 525.54 235.3C525.312 234.875 524.996 234.537 524.592 234.286C524.193 234.036 523.736 233.911 523.223 233.911C522.832 233.911 522.47 233.986 522.136 234.135C521.807 234.284 521.517 234.491 521.267 234.754C521.017 235.017 520.82 235.32 520.675 235.663C520.534 236.001 520.464 236.358 520.464 236.736C520.464 237.241 520.58 237.708 520.813 238.138C521.05 238.568 521.373 238.915 521.781 239.178C522.193 239.437 522.659 239.567 523.177 239.567Z" fill="#9F9F9F"/>
<path d="M583.63 227.61V241.094H581.589V229.651H581.51L578.284 231.758V229.809L581.648 227.61H583.63ZM591.834 241.279C590.89 241.279 590.056 241.116 589.332 240.791C588.612 240.467 588.048 240.019 587.64 239.448C587.232 238.878 587.03 238.228 587.034 237.499C587.03 236.929 587.146 236.404 587.383 235.926C587.624 235.443 587.951 235.041 588.364 234.721C588.777 234.396 589.237 234.19 589.747 234.102V234.023C589.075 233.861 588.537 233.501 588.134 232.943C587.73 232.386 587.53 231.745 587.534 231.021C587.53 230.332 587.712 229.717 588.081 229.177C588.454 228.633 588.965 228.205 589.615 227.893C590.265 227.582 591.004 227.426 591.834 227.426C592.655 227.426 593.388 227.584 594.033 227.9C594.682 228.212 595.194 228.64 595.567 229.184C595.94 229.724 596.129 230.336 596.133 231.021C596.129 231.745 595.922 232.386 595.514 232.943C595.106 233.501 594.575 233.861 593.921 234.023V234.102C594.426 234.19 594.88 234.396 595.284 234.721C595.692 235.041 596.017 235.443 596.258 235.926C596.504 236.404 596.629 236.929 596.634 237.499C596.629 238.228 596.423 238.878 596.015 239.448C595.606 240.019 595.04 240.467 594.316 240.791C593.596 241.116 592.769 241.279 591.834 241.279ZM591.834 239.613C592.391 239.613 592.874 239.521 593.282 239.336C593.69 239.148 594.007 238.887 594.23 238.553C594.454 238.215 594.568 237.82 594.573 237.368C594.568 236.898 594.445 236.483 594.204 236.123C593.967 235.763 593.644 235.48 593.236 235.274C592.828 235.068 592.361 234.965 591.834 234.965C591.303 234.965 590.831 235.068 590.418 235.274C590.006 235.48 589.681 235.763 589.444 236.123C589.207 236.483 589.09 236.898 589.095 237.368C589.09 237.82 589.198 238.215 589.417 238.553C589.641 238.887 589.96 239.148 590.372 239.336C590.785 239.521 591.272 239.613 591.834 239.613ZM591.834 233.338C592.282 233.338 592.679 233.248 593.026 233.068C593.372 232.888 593.644 232.638 593.842 232.318C594.044 231.997 594.147 231.622 594.151 231.192C594.147 230.771 594.046 230.402 593.849 230.086C593.655 229.77 593.385 229.526 593.039 229.355C592.692 229.179 592.29 229.092 591.834 229.092C591.369 229.092 590.96 229.179 590.609 229.355C590.262 229.526 589.992 229.77 589.799 230.086C589.606 230.402 589.512 230.771 589.516 231.192C589.512 231.622 589.608 231.997 589.806 232.318C590.003 232.638 590.276 232.888 590.622 233.068C590.973 233.248 591.377 233.338 591.834 233.338ZM599.917 241.219C599.557 241.219 599.248 241.092 598.989 240.838C598.73 240.579 598.601 240.267 598.601 239.903C598.601 239.543 598.73 239.235 598.989 238.981C599.248 238.722 599.557 238.592 599.917 238.592C600.277 238.592 600.587 238.722 600.846 238.981C601.105 239.235 601.234 239.543 601.234 239.903C601.234 240.144 601.173 240.366 601.05 240.568C600.931 240.765 600.773 240.923 600.576 241.042C600.378 241.16 600.159 241.219 599.917 241.219ZM608.05 241.318C607.01 241.314 606.121 241.039 605.384 240.495C604.646 239.951 604.082 239.159 603.692 238.118C603.301 237.078 603.106 235.825 603.106 234.359C603.106 232.897 603.301 231.648 603.692 230.613C604.087 229.577 604.653 228.787 605.39 228.242C606.132 227.698 607.019 227.426 608.05 227.426C609.082 227.426 609.966 227.7 610.704 228.249C611.441 228.793 612.005 229.583 612.396 230.619C612.791 231.651 612.988 232.897 612.988 234.359C612.988 235.829 612.793 237.085 612.402 238.125C612.012 239.161 611.448 239.953 610.71 240.502C609.973 241.046 609.086 241.318 608.05 241.318ZM608.05 239.56C608.963 239.56 609.677 239.115 610.19 238.224C610.708 237.333 610.967 236.044 610.967 234.359C610.967 233.24 610.849 232.294 610.611 231.521C610.379 230.744 610.043 230.156 609.604 229.757C609.17 229.353 608.652 229.151 608.05 229.151C607.142 229.151 606.428 229.599 605.91 230.494C605.393 231.389 605.131 232.678 605.127 234.359C605.127 235.483 605.243 236.433 605.476 237.21C605.713 237.982 606.049 238.568 606.483 238.968C606.918 239.363 607.44 239.56 608.05 239.56ZM620.032 241.279C619.43 241.27 618.838 241.16 618.254 240.95C617.675 240.739 617.148 240.388 616.674 239.896C616.2 239.404 615.82 238.744 615.535 237.914C615.254 237.085 615.113 236.049 615.113 234.807C615.113 233.63 615.23 232.586 615.462 231.673C615.699 230.76 616.039 229.989 616.483 229.362C616.926 228.73 617.462 228.249 618.089 227.92C618.717 227.59 619.421 227.426 620.203 227.426C621.006 227.426 621.719 227.584 622.343 227.9C622.966 228.216 623.471 228.653 623.857 229.21C624.248 229.768 624.496 230.402 624.601 231.113H622.593C622.457 230.551 622.187 230.092 621.783 229.737C621.379 229.381 620.852 229.204 620.203 229.204C619.215 229.204 618.445 229.634 617.892 230.494C617.343 231.354 617.067 232.55 617.062 234.082H617.161C617.394 233.7 617.679 233.376 618.017 233.108C618.359 232.836 618.741 232.627 619.163 232.482C619.588 232.333 620.036 232.259 620.506 232.259C621.287 232.259 621.994 232.45 622.626 232.831C623.262 233.209 623.769 233.731 624.147 234.398C624.524 235.066 624.713 235.829 624.713 236.69C624.713 237.55 624.518 238.329 624.127 239.027C623.741 239.725 623.196 240.278 622.494 240.686C621.792 241.09 620.971 241.287 620.032 241.279ZM620.025 239.567C620.543 239.567 621.006 239.44 621.414 239.185C621.822 238.93 622.145 238.588 622.382 238.158C622.619 237.728 622.738 237.247 622.738 236.716C622.738 236.198 622.621 235.726 622.389 235.3C622.16 234.875 621.844 234.537 621.441 234.286C621.041 234.036 620.585 233.911 620.071 233.911C619.68 233.911 619.318 233.986 618.985 234.135C618.656 234.284 618.366 234.491 618.116 234.754C617.865 235.017 617.668 235.32 617.523 235.663C617.383 236.001 617.312 236.358 617.312 236.736C617.312 237.241 617.429 237.708 617.661 238.138C617.898 238.568 618.221 238.915 618.629 239.178C619.042 239.437 619.507 239.567 620.025 239.567Z" fill="#9F9F9F"/>
<defs>
<clipPath id="clip0_129_16529">
<rect width="418.378" height="151.662" fill="white" transform="translate(305.068 64.5001)"/>
</clipPath>
<clipPath id="clip1_129_16529">
<rect width="585.576" height="177.681" fill="white" transform="translate(305.924 46.9996)"/>
</clipPath>
<clipPath id="clip2_129_16529">
<rect width="591.756" height="118.969" fill="white" transform="translate(20.0898 61.4596)"/>
</clipPath>
<clipPath id="clip3_129_16529">
<path d="M491.33 149.526C491.33 143.553 496.172 138.711 502.145 138.711H508.326C514.299 138.711 519.141 143.553 519.141 149.526V215.963H491.33V149.526Z" fill="white"/>
</clipPath>
<clipPath id="clip4_129_16529">
<path d="M537.684 129.441C537.684 123.468 542.526 118.626 548.499 118.626H554.679C560.652 118.626 565.495 123.468 565.495 129.441V215.964H537.684V129.441Z" fill="white"/>
</clipPath>
<clipPath id="clip5_129_16529">
<path d="M584.031 141.802C584.031 135.829 588.873 130.987 594.847 130.987H601.027C607 130.987 611.842 135.829 611.842 141.802V215.965H584.031V141.802Z" fill="white"/>
</clipPath>
</defs>
</svg>
