<svg width="30" height="35" viewBox="0 0 30 35" fill="none" xmlns="http://www.w3.org/2000/svg">
<g clip-path="url(#clip0_370_12948)">
<path d="M25.8751 18.6651C25.6747 18.437 25.5642 18.1437 25.5642 17.8401C25.5642 17.5364 25.6747 17.2432 25.8751 17.0151L27.4751 15.2151C27.6514 15.0184 27.7609 14.771 27.7879 14.5082C27.8148 14.2455 27.7578 13.9809 27.6251 13.7526L25.1251 9.42758C24.9937 9.19948 24.7937 9.01867 24.5536 8.91094C24.3134 8.8032 24.0453 8.77403 23.7876 8.82758L21.4376 9.30258C21.1386 9.36436 20.8273 9.31456 20.5625 9.16258C20.2976 9.01059 20.0976 8.76693 20.0001 8.47758L19.2376 6.19008C19.1538 5.9418 18.994 5.72616 18.7809 5.57363C18.5678 5.4211 18.3122 5.3394 18.0501 5.34008H13.0501C12.7775 5.32585 12.5078 5.40124 12.2821 5.55472C12.0564 5.70821 11.8871 5.93135 11.8001 6.19008L11.1001 8.47758C11.0026 8.76693 10.8026 9.01059 10.5378 9.16258C10.2729 9.31456 9.96164 9.36436 9.66261 9.30258L7.25011 8.82758C7.0058 8.79305 6.75674 8.83161 6.5343 8.93838C6.31186 9.04515 6.12599 9.21536 6.00011 9.42758L3.50011 13.7526C3.36406 13.9784 3.30289 14.2414 3.32534 14.5041C3.34779 14.7668 3.45272 15.0156 3.62511 15.2151L5.21261 17.0151C5.41301 17.2432 5.52353 17.5364 5.52353 17.8401C5.52353 18.1437 5.41301 18.437 5.21261 18.6651L3.62511 20.4651C3.45272 20.6645 3.34779 20.9134 3.32534 21.176C3.30289 21.4387 3.36406 21.7018 3.50011 21.9276L6.00011 26.2526C6.13149 26.4807 6.33151 26.6615 6.57168 26.7692C6.81185 26.877 7.07989 26.9061 7.33761 26.8526L9.68761 26.3776C9.98664 26.3158 10.2979 26.3656 10.5628 26.5176C10.8276 26.6696 11.0276 26.9132 11.1251 27.2026L11.8876 29.4901C11.9746 29.7488 12.1439 29.972 12.3696 30.1254C12.5953 30.2789 12.865 30.3543 13.1376 30.3401H18.1376C18.3997 30.3408 18.6553 30.2591 18.8684 30.1065C19.0815 29.954 19.2413 29.7384 19.3251 29.4901L20.0876 27.2026C20.1851 26.9132 20.3851 26.6696 20.65 26.5176C20.9148 26.3656 21.2261 26.3158 21.5251 26.3776L23.8751 26.8526C24.1328 26.9061 24.4009 26.877 24.6411 26.7692C24.8812 26.6615 25.0812 26.4807 25.2126 26.2526L27.7126 21.9276C27.8453 21.6992 27.9023 21.4347 27.8754 21.1719C27.8484 20.9092 27.7389 20.6617 27.5626 20.4651L25.8751 18.6651ZM24.0126 20.3401L25.0126 21.4651L23.4126 24.2401L21.9376 23.9401C21.0373 23.7561 20.1008 23.909 19.3059 24.3698C18.5109 24.8307 17.9128 25.5674 17.6251 26.4401L17.1501 27.8401H13.9501L13.5001 26.4151C13.2124 25.5424 12.6143 24.8057 11.8194 24.3448C11.0244 23.884 10.0879 23.7311 9.18761 23.9151L7.71261 24.2151L6.08761 21.4526L7.08761 20.3276C7.70256 19.6401 8.04253 18.75 8.04253 17.8276C8.04253 16.9052 7.70256 16.0151 7.08761 15.3276L6.08761 14.2026L7.68761 11.4526L9.16261 11.7526C10.0629 11.9366 10.9994 11.7837 11.7944 11.3228C12.5893 10.862 13.1874 10.1253 13.4751 9.25258L13.9501 7.84008H17.1501L17.6251 9.26508C17.9128 10.1378 18.5109 10.8745 19.3059 11.3353C20.1008 11.7962 21.0373 11.9491 21.9376 11.7651L23.4126 11.4651L25.0126 14.2401L24.0126 15.3651C23.4046 16.051 23.0688 16.9359 23.0688 17.8526C23.0688 18.7692 23.4046 19.6541 24.0126 20.3401ZM15.5501 12.8401C14.5612 12.8401 13.5945 13.1333 12.7723 13.6827C11.95 14.2321 11.3092 15.013 10.9307 15.9267C10.5523 16.8403 10.4533 17.8456 10.6462 18.8155C10.8391 19.7854 11.3153 20.6764 12.0146 21.3756C12.7138 22.0749 13.6048 22.5511 14.5747 22.744C15.5446 22.9369 16.5499 22.8379 17.4635 22.4595C18.3772 22.081 19.1581 21.4402 19.7075 20.6179C20.2569 19.7957 20.5501 18.829 20.5501 17.8401C20.5501 16.514 20.0233 15.2422 19.0856 14.3045C18.148 13.3669 16.8762 12.8401 15.5501 12.8401ZM15.5501 20.3401C15.0557 20.3401 14.5723 20.1935 14.1612 19.9188C13.7501 19.644 13.4296 19.2536 13.2404 18.7968C13.0512 18.34 13.0017 17.8373 13.0982 17.3524C13.1946 16.8674 13.4327 16.4219 13.7823 16.0723C14.132 15.7227 14.5774 15.4846 15.0624 15.3881C15.5473 15.2917 16.05 15.3412 16.5068 15.5304C16.9636 15.7196 17.3541 16.04 17.6288 16.4512C17.9035 16.8623 18.0501 17.3456 18.0501 17.8401C18.0501 18.5031 17.7867 19.139 17.3179 19.6078C16.849 20.0767 16.2132 20.3401 15.5501 20.3401Z" fill="#EF911F"/>
</g>
<defs>
<clipPath id="clip0_370_12948">
<rect width="30" height="35" fill="white" transform="translate(0 0.0371094)"/>
</clipPath>
</defs>
</svg>
