<svg width="30" height="31" viewBox="0 0 30 31" fill="none" xmlns="http://www.w3.org/2000/svg">
<path d="M15 2.78711C15.3315 2.78711 15.6495 2.91881 15.8839 3.15323C16.1183 3.38765 16.25 3.70559 16.25 4.03711V4.10586C18.7861 4.39013 21.1503 5.52782 22.9548 7.33233C24.7593 9.13684 25.897 11.501 26.1813 14.0371H26.25C26.5815 14.0371 26.8995 14.1688 27.1339 14.4032C27.3683 14.6376 27.5 14.9556 27.5 15.2871C27.5 15.6186 27.3683 15.9366 27.1339 16.171C26.8995 16.4054 26.5815 16.5371 26.25 16.5371H26.1813C25.897 19.0732 24.7593 21.4374 22.9548 23.2419C21.1503 25.0464 18.7861 26.1841 16.25 26.4684V26.5371C16.25 26.8686 16.1183 27.1866 15.8839 27.421C15.6495 27.6554 15.3315 27.7871 15 27.7871C14.6685 27.7871 14.3505 27.6554 14.1161 27.421C13.8817 27.1866 13.75 26.8686 13.75 26.5371V26.4684C11.2139 26.1841 8.84973 25.0464 7.04522 23.2419C5.24071 21.4374 4.10302 19.0732 3.81875 16.5371H3.75C3.41848 16.5371 3.10054 16.4054 2.86612 16.171C2.6317 15.9366 2.5 15.6186 2.5 15.2871C2.5 14.9556 2.6317 14.6376 2.86612 14.4032C3.10054 14.1688 3.41848 14.0371 3.75 14.0371H3.81875C4.10302 11.501 5.24071 9.13684 7.04522 7.33233C8.84973 5.52782 11.2139 4.39013 13.75 4.10586V4.03711C13.75 3.70559 13.8817 3.38765 14.1161 3.15323C14.3505 2.91881 14.6685 2.78711 15 2.78711ZM16.25 6.62461V7.78711C16.2496 8.10571 16.1277 8.41215 15.9089 8.64382C15.6902 8.87549 15.3913 9.0149 15.0733 9.03357C14.7552 9.05225 14.442 8.94877 14.1977 8.74428C13.9534 8.53979 13.7964 8.24973 13.7588 7.93336L13.75 7.78711V6.62461C11.9347 6.88751 10.2478 7.71374 8.9273 8.98673C7.60677 10.2597 6.71926 11.9152 6.39 13.7196L6.33875 14.0371H7.5C7.8186 14.0375 8.12504 14.1595 8.35671 14.3782C8.58838 14.5969 8.72779 14.8958 8.74647 15.2139C8.76514 15.5319 8.66166 15.8451 8.45717 16.0894C8.25268 16.3337 7.96262 16.4907 7.64625 16.5284L7.5 16.5371H6.3375C6.6004 18.3524 7.42663 20.0393 8.69962 21.3598C9.97261 22.6803 11.6281 23.5679 13.4325 23.8971L13.75 23.9484V22.7871C13.7504 22.4685 13.8723 22.1621 14.0911 21.9304C14.3098 21.6987 14.6087 21.5593 14.9267 21.5406C15.2448 21.522 15.558 21.6255 15.8023 21.8299C16.0466 22.0344 16.2036 22.3245 16.2413 22.6409L16.25 22.7871V23.9496C18.0653 23.6867 19.7522 22.8605 21.0727 21.5875C22.3932 20.3145 23.2807 18.659 23.61 16.8546L23.6613 16.5371H22.5C22.1814 16.5368 21.875 16.4148 21.6433 16.1961C21.4116 15.9773 21.2722 15.6784 21.2535 15.3604C21.2349 15.0423 21.3383 14.7291 21.5428 14.4848C21.7473 14.2405 22.0374 14.0835 22.3538 14.0459L22.5 14.0371H23.6625C23.3996 12.2218 22.5734 10.5349 21.3004 9.21441C20.0274 7.89388 18.3719 7.00637 16.5675 6.67711L16.25 6.62461ZM15 13.4121C15.4973 13.4121 15.9742 13.6097 16.3258 13.9613C16.6775 14.3129 16.875 14.7898 16.875 15.2871C16.875 15.7844 16.6775 16.2613 16.3258 16.6129C15.9742 16.9646 15.4973 17.1621 15 17.1621C14.5027 17.1621 14.0258 16.9646 13.6742 16.6129C13.3225 16.2613 13.125 15.7844 13.125 15.2871C13.125 14.7898 13.3225 14.3129 13.6742 13.9613C14.0258 13.6097 14.5027 13.4121 15 13.4121Z" fill="#EF911F"/>
</svg>
