<svg width="52" height="42" viewBox="0 0 52 42" fill="none" xmlns="http://www.w3.org/2000/svg">
<path d="M14.6315 14.3303L7.06698 20.6443L14.6315 26.9583C14.8873 27.163 15.0996 27.4167 15.2561 27.7046C15.4125 27.9924 15.5098 28.3086 15.5424 28.6346C15.5749 28.9606 15.5421 29.2898 15.4457 29.6029C15.3493 29.9161 15.1913 30.2068 14.981 30.458C14.7708 30.7092 14.5124 30.9159 14.2212 31.066C13.9299 31.216 13.6117 31.3064 13.285 31.3317C12.9584 31.3571 12.63 31.317 12.3191 31.2137C12.0082 31.1104 11.721 30.9461 11.4745 30.7303L1.63447 22.5303C1.35877 22.2994 1.13703 22.0109 0.984893 21.685C0.832753 21.3592 0.753906 21.0039 0.753906 20.6443C0.753906 20.2847 0.832753 19.9294 0.984893 19.6036C1.13703 19.2777 1.35877 18.9892 1.63447 18.7583L11.4745 10.5583C11.9766 10.1566 12.616 9.96739 13.2559 10.0313C13.8957 10.0952 14.4851 10.4071 14.8978 10.9002C15.3106 11.3933 15.5138 12.0285 15.464 12.6696C15.4142 13.3107 15.1154 13.9068 14.6315 14.3303ZM50.7115 18.7583L40.8715 10.5583C40.3694 10.1566 39.7299 9.96739 39.0901 10.0313C38.4502 10.0952 37.8608 10.4071 37.4481 10.9002C37.0354 11.3933 36.8322 12.0285 36.882 12.6696C36.9317 13.3107 37.2306 13.9068 37.7145 14.3303L45.2995 20.6443L37.7145 26.9583C37.4645 27.164 37.258 27.4175 37.107 27.7038C36.956 27.9901 36.8635 28.3037 36.8349 28.6261C36.8063 28.9486 36.8421 29.2735 36.9403 29.582C37.0385 29.8904 37.1972 30.1763 37.407 30.4228C37.6396 30.6966 37.9284 30.917 38.2539 31.0691C38.5793 31.2212 38.9337 31.3014 39.293 31.3043C39.8702 31.3041 40.4289 31.1009 40.8715 30.7303L50.7115 22.5303C50.9872 22.2994 51.2089 22.0109 51.3611 21.685C51.5132 21.3592 51.592 21.0039 51.592 20.6443C51.592 20.2847 51.5132 19.9294 51.3611 19.6036C51.2089 19.2777 50.9872 18.9892 50.7115 18.7583ZM33.5735 0.287804C32.9589 0.0693369 32.283 0.101738 31.6921 0.377991C31.1012 0.654244 30.6429 1.15212 30.4165 1.7638L17.2965 37.8438C17.078 38.4584 17.1104 39.1343 17.3867 39.7252C17.6629 40.3161 18.1608 40.7743 18.7725 41.0008C19.0419 41.098 19.3265 41.1466 19.613 41.1443C20.1187 41.1452 20.6125 40.9903 21.027 40.7005C21.4416 40.4107 21.7567 40.0001 21.9295 39.5248L35.0495 3.4448C35.2679 2.83021 35.2355 2.15431 34.9593 1.56343C34.683 0.972556 34.1852 0.51427 33.5735 0.287804Z" fill="#EF911F"/>
</svg>
