<svg width="83" height="78" viewBox="0 0 83 78" fill="none" xmlns="http://www.w3.org/2000/svg">
<rect y="0.160156" width="83" height="77" rx="14" fill="#FDF7E4"/>
<g clip-path="url(#clip0_3_1143)">
<path d="M17.0634 37.6602C17.0634 24.1798 28.0928 13.1504 41.5732 13.1504C55.0536 13.1504 66.083 24.1798 66.083 37.6602C66.083 51.1406 55.0536 62.17 41.5732 62.17C28.0928 62.17 17.0634 51.1406 17.0634 37.6602Z" fill="#1A4A7F"/>
<path fill-rule="evenodd" clip-rule="evenodd" d="M38.0571 62.1705C33.1067 61.4029 28.4656 59.1002 24.9075 55.5694L47.1845 35.3056L34.499 38.3759C30.9408 39.297 27.3827 37.1478 26.6092 33.617C26.6092 33.617 26.6092 33.617 26.6092 33.4635C25.8357 29.9327 28.0015 26.4018 31.5596 25.4808L58.1683 19.0332C68.688 27.7835 70.0803 43.2883 61.2623 53.5737C58.7871 56.4905 55.6931 58.7932 52.135 60.3283C52.135 59.4072 52.135 58.4862 52.4444 57.7186L56.6213 45.284C56.4666 45.284 38.0571 62.1705 38.0571 62.1705Z" fill="url(#paint0_linear_3_1143)"/>
</g>
<defs>
<linearGradient id="paint0_linear_3_1143" x1="74.9107" y1="13.0717" x2="-9.23077" y2="90.88" gradientUnits="userSpaceOnUse">
<stop stop-color="#FFB800"/>
<stop offset="1" stop-color="#FFF11D"/>
</linearGradient>
<clipPath id="clip0_3_1143">
<rect width="50" height="49.0196" fill="white" transform="translate(17.0635 13.1504)"/>
</clipPath>
</defs>
</svg>
