<svg width="30" height="31" viewBox="0 0 30 31" fill="none" xmlns="http://www.w3.org/2000/svg">
<path d="M3.33333 30.0842C2.41667 30.0842 1.63222 29.7581 0.98 29.1059C0.327778 28.4537 0.00111111 27.6687 0 26.7509V3.41756C0 2.5009 0.326667 1.71645 0.98 1.06423C1.63333 0.412006 2.41778 0.0853396 3.33333 0.0842285H26.6667C27.5833 0.0842285 28.3683 0.410895 29.0217 1.06423C29.675 1.71756 30.0011 2.50201 30 3.41756V26.7509C30 27.6676 29.6739 28.4526 29.0217 29.1059C28.3694 29.7592 27.5844 30.0853 26.6667 30.0842H3.33333ZM3.33333 26.7509H26.6667V8.41756H3.33333V26.7509Z" fill="black"/>
<path d="M3.33333 30.0842C2.41667 30.0842 1.63222 29.7581 0.98 29.1059C0.327778 28.4537 0.00111111 27.6687 0 26.7509V3.41756C0 2.5009 0.326667 1.71645 0.98 1.06423C1.63333 0.412006 2.41778 0.0853396 3.33333 0.0842285H26.6667C27.5833 0.0842285 28.3683 0.410895 29.0217 1.06423C29.675 1.71756 30.0011 2.50201 30 3.41756V26.7509C30 27.6676 29.6739 28.4526 29.0217 29.1059C28.3694 29.7592 27.5844 30.0853 26.6667 30.0842H3.33333ZM3.33333 26.7509H26.6667V8.41756H3.33333V26.7509Z" fill="#24B5F4"/>
</svg>
