<svg width="706" height="258" viewBox="0 0 706 258" fill="none" xmlns="http://www.w3.org/2000/svg">
<rect x="0.00195312" width="662.432" height="258" rx="21.6308" fill="white"/>
<rect x="0.00195312" width="662.432" height="258" rx="21.6308" fill="white"/>
<circle cx="45.2688" cy="97.165" r="8.907" fill="#E57575" stroke="#E57575" stroke-width="3.81728"/>
<path d="M71.4716 103.981V90.4966H79.8795V92.2479H73.5061V95.935H76.5216C77.5224 95.935 78.3717 96.0974 79.0696 96.4222C79.7719 96.747 80.3074 97.2057 80.6761 97.7983C81.0492 98.3909 81.2358 99.0888 81.2358 99.892C81.2358 100.695 81.0492 101.404 80.6761 102.019C80.3074 102.633 79.7719 103.114 79.0696 103.461C78.3717 103.807 77.5224 103.981 76.5216 103.981H71.4716ZM73.5061 102.269H76.5216C77.101 102.269 77.5904 102.155 77.9898 101.926C78.3937 101.698 78.6987 101.402 78.905 101.038C79.1157 100.673 79.2211 100.283 79.2211 99.8657C79.2211 99.26 78.9884 98.7398 78.5232 98.3053C78.0579 97.8663 77.3907 97.6469 76.5216 97.6469H73.5061V102.269ZM87.7408 104.185C86.7927 104.185 85.9653 103.968 85.2586 103.533C84.5519 103.098 84.0033 102.491 83.6126 101.709C83.222 100.928 83.0266 100.015 83.0266 98.9703C83.0266 97.9212 83.222 97.0038 83.6126 96.2181C84.0033 95.4324 84.5519 94.8223 85.2586 94.3878C85.9653 93.9532 86.7927 93.7359 87.7408 93.7359C88.6889 93.7359 89.5163 93.9532 90.223 94.3878C90.9297 94.8223 91.4784 95.4324 91.869 96.2181C92.2597 97.0038 92.455 97.9212 92.455 98.9703C92.455 100.015 92.2597 100.928 91.869 101.709C91.4784 102.491 90.9297 103.098 90.223 103.533C89.5163 103.968 88.6889 104.185 87.7408 104.185ZM87.7474 102.532C88.3619 102.532 88.8711 102.37 89.2749 102.045C89.6787 101.72 89.9772 101.288 90.1703 100.748C90.3678 100.208 90.4666 99.6133 90.4666 98.9637C90.4666 98.3184 90.3678 97.7259 90.1703 97.186C89.9772 96.6417 89.6787 96.205 89.2749 95.8758C88.8711 95.5466 88.3619 95.382 87.7474 95.382C87.1285 95.382 86.6149 95.5466 86.2067 95.8758C85.8029 96.205 85.5022 96.6417 85.3047 97.186C85.1116 97.7259 85.015 98.3184 85.015 98.9637C85.015 99.6133 85.1116 100.208 85.3047 100.748C85.5022 101.288 85.8029 101.72 86.2067 102.045C86.6149 102.37 87.1285 102.532 87.7474 102.532ZM93.4344 95.5663V93.8676H101.967V95.5663H98.6687V103.981H96.7461V95.5663H93.4344ZM105.531 97.344H108.467C109.705 97.344 110.658 97.6513 111.325 98.2658C111.992 98.8803 112.326 99.6726 112.326 100.643C112.326 101.275 112.176 101.843 111.878 102.348C111.579 102.853 111.143 103.252 110.568 103.546C109.993 103.836 109.293 103.981 108.467 103.981H104.049V93.8676H105.979V102.282H108.467C109.034 102.282 109.499 102.135 109.863 101.841C110.228 101.542 110.41 101.163 110.41 100.702C110.41 100.215 110.228 99.8174 109.863 99.5101C109.499 99.1985 109.034 99.0427 108.467 99.0427H105.531V97.344ZM113.761 103.981V93.8676H115.73V103.981H113.761Z" fill="black"/>
<circle opacity="0.8" cx="45.2688" cy="134.247" r="10.8156" fill="#616B89"/>
<path d="M82.0127 127.947V141.431H79.9848V129.685H73.6378V141.431H71.6099V127.947H82.0127ZM89.2255 141.635C88.2774 141.635 87.45 141.418 86.7433 140.983C86.0366 140.549 85.488 139.941 85.0973 139.16C84.7067 138.378 84.5113 137.465 84.5113 136.421C84.5113 135.372 84.7067 134.454 85.0973 133.669C85.488 132.883 86.0366 132.273 86.7433 131.838C87.45 131.404 88.2774 131.186 89.2255 131.186C90.1736 131.186 91.001 131.404 91.7077 131.838C92.4144 132.273 92.9631 132.883 93.3537 133.669C93.7444 134.454 93.9397 135.372 93.9397 136.421C93.9397 137.465 93.7444 138.378 93.3537 139.16C92.9631 139.941 92.4144 140.549 91.7077 140.983C91.001 141.418 90.1736 141.635 89.2255 141.635ZM89.2321 139.983C89.8466 139.983 90.3558 139.82 90.7596 139.495C91.1634 139.171 91.4619 138.738 91.655 138.198C91.8525 137.658 91.9513 137.064 91.9513 136.414C91.9513 135.769 91.8525 135.176 91.655 134.636C91.4619 134.092 91.1634 133.655 90.7596 133.326C90.3558 132.997 89.8466 132.832 89.2321 132.832C88.6132 132.832 88.0996 132.997 87.6914 133.326C87.2876 133.655 86.9869 134.092 86.7894 134.636C86.5963 135.176 86.4997 135.769 86.4997 136.414C86.4997 137.064 86.5963 137.658 86.7894 138.198C86.9869 138.738 87.2876 139.171 87.6914 139.495C88.0996 139.82 88.6132 139.983 89.2321 139.983ZM95.1495 144.348V139.726H95.9725C96.1832 139.533 96.361 139.302 96.5058 139.035C96.6551 138.767 96.7802 138.449 96.8811 138.08C96.9865 137.711 97.0742 137.281 97.1445 136.789C97.2147 136.293 97.2762 135.727 97.3288 135.091L97.6449 131.318H104.519V139.726H106.072V144.348H104.15V141.431H97.0984V144.348H95.1495ZM98.0794 139.726H102.596V133.004H99.4094L99.1987 135.091C99.0977 136.153 98.9704 137.075 98.8168 137.856C98.6632 138.633 98.4174 139.256 98.0794 139.726ZM112.256 141.635C111.308 141.635 110.481 141.418 109.774 140.983C109.068 140.549 108.519 139.941 108.128 139.16C107.738 138.378 107.542 137.465 107.542 136.421C107.542 135.372 107.738 134.454 108.128 133.669C108.519 132.883 109.068 132.273 109.774 131.838C110.481 131.404 111.308 131.186 112.256 131.186C113.205 131.186 114.032 131.404 114.739 131.838C115.445 132.273 115.994 132.883 116.385 133.669C116.775 134.454 116.971 135.372 116.971 136.421C116.971 137.465 116.775 138.378 116.385 139.16C115.994 139.941 115.445 140.549 114.739 140.983C114.032 141.418 113.205 141.635 112.256 141.635ZM112.263 139.983C112.878 139.983 113.387 139.82 113.791 139.495C114.194 139.171 114.493 138.738 114.686 138.198C114.884 137.658 114.982 137.064 114.982 136.414C114.982 135.769 114.884 135.176 114.686 134.636C114.493 134.092 114.194 133.655 113.791 133.326C113.387 132.997 112.878 132.832 112.263 132.832C111.644 132.832 111.131 132.997 110.722 133.326C110.319 133.655 110.018 134.092 109.82 134.636C109.627 135.176 109.531 135.769 109.531 136.414C109.531 137.064 109.627 137.658 109.82 138.198C110.018 138.738 110.319 139.171 110.722 139.495C111.131 139.82 111.644 139.983 112.263 139.983ZM118.569 138.758H120.584C120.61 139.171 120.797 139.489 121.143 139.713C121.494 139.937 121.949 140.049 122.506 140.049C123.072 140.049 123.555 139.928 123.955 139.686C124.354 139.441 124.554 139.061 124.554 138.547C124.554 138.24 124.477 137.972 124.323 137.744C124.174 137.511 123.961 137.331 123.685 137.204C123.413 137.077 123.09 137.013 122.717 137.013H121.071V135.466H122.717C123.274 135.466 123.691 135.339 123.968 135.084C124.244 134.83 124.383 134.511 124.383 134.129C124.383 133.717 124.233 133.385 123.935 133.135C123.641 132.881 123.23 132.753 122.704 132.753C122.168 132.753 121.723 132.874 121.367 133.116C121.012 133.353 120.825 133.66 120.808 134.037H118.819C118.832 133.471 119.003 132.975 119.333 132.549C119.666 132.119 120.114 131.786 120.676 131.549C121.242 131.307 121.885 131.186 122.605 131.186C123.356 131.186 124.005 131.307 124.554 131.549C125.103 131.79 125.526 132.124 125.825 132.549C126.127 132.975 126.279 133.464 126.279 134.018C126.279 134.575 126.112 135.031 125.778 135.387C125.449 135.738 125.019 135.991 124.488 136.144V136.25C124.879 136.276 125.225 136.394 125.528 136.605C125.831 136.816 126.068 137.094 126.239 137.441C126.411 137.788 126.496 138.181 126.496 138.62C126.496 139.239 126.325 139.774 125.983 140.226C125.645 140.678 125.175 141.027 124.574 141.273C123.977 141.515 123.294 141.635 122.526 141.635C121.78 141.635 121.11 141.519 120.518 141.286C119.93 141.049 119.462 140.716 119.115 140.286C118.773 139.855 118.591 139.346 118.569 138.758ZM128.529 145.224V131.318H130.451V132.957H130.616C130.73 132.747 130.895 132.503 131.11 132.227C131.325 131.95 131.623 131.709 132.005 131.502C132.387 131.292 132.892 131.186 133.52 131.186C134.336 131.186 135.065 131.393 135.706 131.805C136.346 132.218 136.849 132.813 137.213 133.59C137.582 134.366 137.766 135.301 137.766 136.394C137.766 137.487 137.584 138.424 137.22 139.206C136.856 139.983 136.355 140.582 135.719 141.003C135.082 141.42 134.356 141.629 133.539 141.629C132.925 141.629 132.422 141.526 132.032 141.319C131.645 141.113 131.343 140.872 131.123 140.595C130.904 140.318 130.735 140.073 130.616 139.858H130.498V145.224H128.529ZM130.458 136.375C130.458 137.086 130.561 137.709 130.768 138.244C130.974 138.78 131.272 139.199 131.663 139.502C132.054 139.801 132.532 139.95 133.098 139.95C133.686 139.95 134.178 139.794 134.573 139.482C134.968 139.166 135.267 138.738 135.469 138.198C135.675 137.658 135.778 137.051 135.778 136.375C135.778 135.707 135.677 135.108 135.475 134.577C135.278 134.046 134.979 133.627 134.58 133.32C134.185 133.012 133.691 132.859 133.098 132.859C132.528 132.859 132.045 133.006 131.65 133.3C131.259 133.594 130.963 134.004 130.761 134.531C130.559 135.058 130.458 135.672 130.458 136.375ZM141.901 138.672L146.359 131.318H148.479V141.431H146.549V134.07L142.112 141.431H139.972V131.318H141.901V138.672ZM149.871 133.017V131.318H158.404V133.017H155.105V141.431H153.183V133.017H149.871ZM164.374 141.635C163.378 141.635 162.52 141.422 161.8 140.997C161.084 140.566 160.531 139.963 160.141 139.186C159.754 138.405 159.561 137.49 159.561 136.44C159.561 135.405 159.754 134.492 160.141 133.701C160.531 132.911 161.076 132.295 161.773 131.851C162.476 131.408 163.297 131.186 164.236 131.186C164.806 131.186 165.36 131.281 165.895 131.469C166.431 131.658 166.911 131.955 167.337 132.358C167.763 132.762 168.099 133.287 168.344 133.932C168.59 134.573 168.713 135.352 168.713 136.269V136.967H160.674V135.492H166.784C166.784 134.974 166.679 134.516 166.468 134.116C166.257 133.712 165.961 133.394 165.579 133.162C165.202 132.929 164.758 132.813 164.249 132.813C163.696 132.813 163.213 132.949 162.801 133.221C162.392 133.489 162.076 133.84 161.852 134.274C161.633 134.704 161.523 135.172 161.523 135.677V136.829C161.523 137.505 161.642 138.08 161.879 138.554C162.12 139.028 162.456 139.39 162.886 139.64C163.316 139.886 163.819 140.009 164.394 140.009C164.767 140.009 165.107 139.956 165.414 139.851C165.722 139.741 165.987 139.579 166.211 139.364C166.435 139.149 166.606 138.883 166.725 138.567L168.588 138.903C168.439 139.452 168.171 139.932 167.785 140.345C167.403 140.753 166.922 141.071 166.343 141.299C165.768 141.523 165.112 141.635 164.374 141.635ZM170.101 141.431L170.094 139.726H170.456C170.737 139.726 170.972 139.667 171.161 139.548C171.354 139.425 171.512 139.219 171.635 138.929C171.758 138.64 171.852 138.24 171.918 137.731C171.984 137.217 172.032 136.572 172.063 135.795L172.24 131.318H179.299V141.431H177.369V133.017H174.064L173.906 136.454C173.867 137.288 173.781 138.016 173.649 138.64C173.522 139.263 173.336 139.783 173.09 140.2C172.844 140.613 172.528 140.922 172.142 141.128C171.755 141.33 171.286 141.431 170.733 141.431H170.101ZM183.405 134.794H186.342C187.58 134.794 188.532 135.102 189.199 135.716C189.866 136.331 190.2 137.123 190.2 138.093C190.2 138.725 190.051 139.294 189.752 139.798C189.454 140.303 189.017 140.703 188.442 140.997C187.867 141.286 187.167 141.431 186.342 141.431H181.924V131.318H183.853V139.732H186.342C186.908 139.732 187.373 139.585 187.738 139.291C188.102 138.993 188.284 138.613 188.284 138.152C188.284 137.665 188.102 137.268 187.738 136.961C187.373 136.649 186.908 136.493 186.342 136.493H183.405V134.794ZM199.261 135.525V137.231H193.783V135.525H199.261ZM194.336 131.318V141.431H192.407V131.318H194.336ZM200.637 131.318V141.431H198.715V131.318H200.637ZM204.752 134.794H207.689C208.927 134.794 209.879 135.102 210.546 135.716C211.214 136.331 211.547 137.123 211.547 138.093C211.547 138.725 211.398 139.294 211.099 139.798C210.801 140.303 210.364 140.703 209.789 140.997C209.214 141.286 208.514 141.431 207.689 141.431H203.271V131.318H205.2V139.732H207.689C208.255 139.732 208.72 139.585 209.085 139.291C209.449 138.993 209.631 138.613 209.631 138.152C209.631 137.665 209.449 137.268 209.085 136.961C208.72 136.649 208.255 136.493 207.689 136.493H204.752V134.794ZM212.982 141.431V131.318H214.951V141.431H212.982ZM221.952 141.635C220.955 141.635 220.097 141.422 219.377 140.997C218.662 140.566 218.109 139.963 217.718 139.186C217.332 138.405 217.139 137.49 217.139 136.44C217.139 135.405 217.332 134.492 217.718 133.701C218.109 132.911 218.653 132.295 219.351 131.851C220.053 131.408 220.874 131.186 221.813 131.186C222.384 131.186 222.937 131.281 223.473 131.469C224.008 131.658 224.489 131.955 224.914 132.358C225.34 132.762 225.676 133.287 225.922 133.932C226.168 134.573 226.29 135.352 226.29 136.269V136.967H218.251V135.492H224.361C224.361 134.974 224.256 134.516 224.045 134.116C223.835 133.712 223.538 133.394 223.156 133.162C222.779 132.929 222.336 132.813 221.826 132.813C221.273 132.813 220.791 132.949 220.378 133.221C219.97 133.489 219.654 133.84 219.43 134.274C219.21 134.704 219.101 135.172 219.101 135.677V136.829C219.101 137.505 219.219 138.08 219.456 138.554C219.698 139.028 220.033 139.39 220.464 139.64C220.894 139.886 221.396 140.009 221.971 140.009C222.344 140.009 222.685 139.956 222.992 139.851C223.299 139.741 223.565 139.579 223.789 139.364C224.012 139.149 224.184 138.883 224.302 138.567L226.165 138.903C226.016 139.452 225.748 139.932 225.362 140.345C224.98 140.753 224.5 141.071 223.92 141.299C223.345 141.523 222.689 141.635 221.952 141.635Z" fill="black"/>
<circle cx="45.2688" cy="171.697" r="10.8156" fill="#75A0E5"/>
<path d="M71.4716 178.882V165.398H73.5061V171.258H80.2284V165.398H82.2695V178.882H80.2284V173.002H73.5061V178.882H71.4716ZM89.4329 179.086C88.4365 179.086 87.5784 178.873 86.8586 178.447C86.1431 178.017 85.59 177.414 85.1994 176.637C84.8131 175.855 84.62 174.94 84.62 173.891C84.62 172.855 84.8131 171.942 85.1994 171.152C85.59 170.362 86.1343 169.745 86.8322 169.302C87.5345 168.859 88.3553 168.637 89.2946 168.637C89.8653 168.637 90.4183 168.731 90.9538 168.92C91.4893 169.109 91.97 169.405 92.3957 169.809C92.8215 170.213 93.1573 170.737 93.4031 171.383C93.6489 172.023 93.7718 172.803 93.7718 173.72V174.418H85.7327V172.943H91.8427C91.8427 172.425 91.7373 171.966 91.5266 171.567C91.3159 171.163 91.0197 170.845 90.6378 170.612C90.2603 170.38 89.817 170.263 89.3078 170.263C88.7548 170.263 88.2719 170.399 87.8593 170.672C87.4511 170.939 87.1351 171.29 86.9112 171.725C86.6918 172.155 86.582 172.623 86.582 173.127V174.28C86.582 174.956 86.7005 175.531 86.9376 176.005C87.179 176.479 87.5148 176.841 87.9449 177.091C88.3751 177.337 88.8777 177.46 89.4527 177.46C89.8258 177.46 90.1659 177.407 90.4732 177.302C90.7804 177.192 91.046 177.03 91.2699 176.814C91.4937 176.599 91.6649 176.334 91.7834 176.018L93.6467 176.354C93.4975 176.902 93.2297 177.383 92.8434 177.795C92.4616 178.204 91.9809 178.522 91.4015 178.75C90.8265 178.974 90.1703 179.086 89.4329 179.086ZM104.206 168.769V177.269H105.687V182.141H103.745V178.882H95.9561V168.769H97.8852V177.183H102.283V168.769H104.206ZM112.12 179.086C111.123 179.086 110.265 178.873 109.546 178.447C108.83 178.017 108.277 177.414 107.886 176.637C107.5 175.855 107.307 174.94 107.307 173.891C107.307 172.855 107.5 171.942 107.886 171.152C108.277 170.362 108.821 169.745 109.519 169.302C110.221 168.859 111.042 168.637 111.982 168.637C112.552 168.637 113.105 168.731 113.641 168.92C114.176 169.109 114.657 169.405 115.083 169.809C115.508 170.213 115.844 170.737 116.09 171.383C116.336 172.023 116.459 172.803 116.459 173.72V174.418H108.42V172.943H114.53C114.53 172.425 114.424 171.966 114.214 171.567C114.003 171.163 113.707 170.845 113.325 170.612C112.947 170.38 112.504 170.263 111.995 170.263C111.442 170.263 110.959 170.399 110.546 170.672C110.138 170.939 109.822 171.29 109.598 171.725C109.379 172.155 109.269 172.623 109.269 173.127V174.28C109.269 174.956 109.388 175.531 109.625 176.005C109.866 176.479 110.202 176.841 110.632 177.091C111.062 177.337 111.565 177.46 112.14 177.46C112.513 177.46 112.853 177.407 113.16 177.302C113.467 177.192 113.733 177.03 113.957 176.814C114.181 176.599 114.352 176.334 114.47 176.018L116.334 176.354C116.184 176.902 115.917 177.383 115.53 177.795C115.149 178.204 114.668 178.522 114.089 178.75C113.514 178.974 112.857 179.086 112.12 179.086ZM117.846 178.882L117.84 177.177H118.202C118.483 177.177 118.718 177.117 118.906 176.999C119.1 176.876 119.258 176.67 119.38 176.38C119.503 176.09 119.598 175.691 119.664 175.182C119.729 174.668 119.778 174.023 119.808 173.246L119.986 168.769H127.044V178.882H125.115V170.467H121.81L121.652 173.904C121.612 174.738 121.527 175.467 121.395 176.09C121.268 176.713 121.081 177.234 120.836 177.651C120.59 178.063 120.274 178.373 119.887 178.579C119.501 178.781 119.031 178.882 118.478 178.882H117.846ZM134.028 179.086C133.032 179.086 132.174 178.873 131.454 178.447C130.738 178.017 130.185 177.414 129.795 176.637C129.408 175.855 129.215 174.94 129.215 173.891C129.215 172.855 129.408 171.942 129.795 171.152C130.185 170.362 130.73 169.745 131.428 169.302C132.13 168.859 132.951 168.637 133.89 168.637C134.461 168.637 135.014 168.731 135.549 168.92C136.085 169.109 136.565 169.405 136.991 169.809C137.417 170.213 137.753 170.737 137.998 171.383C138.244 172.023 138.367 172.803 138.367 173.72V174.418H130.328V172.943H136.438C136.438 172.425 136.333 171.966 136.122 171.567C135.911 171.163 135.615 170.845 135.233 170.612C134.856 170.38 134.412 170.263 133.903 170.263C133.35 170.263 132.867 170.399 132.455 170.672C132.046 170.939 131.73 171.29 131.507 171.725C131.287 172.155 131.177 172.623 131.177 173.127V174.28C131.177 174.956 131.296 175.531 131.533 176.005C131.774 176.479 132.11 176.841 132.54 177.091C132.97 177.337 133.473 177.46 134.048 177.46C134.421 177.46 134.761 177.407 135.069 177.302C135.376 177.192 135.641 177.03 135.865 176.814C136.089 176.599 136.26 176.334 136.379 176.018L138.242 176.354C138.093 176.902 137.825 177.383 137.439 177.795C137.057 178.204 136.576 178.522 135.997 178.75C135.422 178.974 134.766 179.086 134.028 179.086ZM140.551 178.882V168.769H144.745C145.887 168.769 146.791 169.012 147.458 169.5C148.125 169.982 148.459 170.639 148.459 171.468C148.459 172.061 148.27 172.53 147.893 172.877C147.515 173.224 147.015 173.457 146.391 173.575C146.844 173.628 147.258 173.764 147.636 173.983C148.013 174.198 148.316 174.488 148.544 174.852C148.777 175.217 148.893 175.651 148.893 176.156C148.893 176.692 148.755 177.166 148.479 177.578C148.202 177.986 147.8 178.307 147.274 178.539C146.751 178.768 146.122 178.882 145.384 178.882H140.551ZM142.402 177.236H145.384C145.871 177.236 146.253 177.12 146.53 176.887C146.806 176.654 146.945 176.338 146.945 175.939C146.945 175.469 146.806 175.1 146.53 174.833C146.253 174.561 145.871 174.424 145.384 174.424H142.402V177.236ZM142.402 172.983H144.765C145.134 172.983 145.45 172.93 145.713 172.825C145.981 172.719 146.185 172.57 146.326 172.377C146.47 172.179 146.543 171.947 146.543 171.679C146.543 171.288 146.383 170.983 146.062 170.764C145.742 170.544 145.303 170.435 144.745 170.435H142.402V172.983ZM152.534 172.245H155.471C156.709 172.245 157.661 172.552 158.328 173.167C158.996 173.781 159.329 174.574 159.329 175.544C159.329 176.176 159.18 176.744 158.881 177.249C158.583 177.754 158.146 178.153 157.571 178.447C156.996 178.737 156.296 178.882 155.471 178.882H151.053V168.769H152.982V177.183H155.471C156.037 177.183 156.502 177.036 156.867 176.742C157.231 176.444 157.413 176.064 157.413 175.603C157.413 175.116 157.231 174.719 156.867 174.411C156.502 174.1 156.037 173.944 155.471 173.944H152.534V172.245ZM160.764 178.882V168.769H162.733V178.882H160.764ZM169.734 179.086C168.737 179.086 167.879 178.873 167.159 178.447C166.444 178.017 165.891 177.414 165.5 176.637C165.114 175.855 164.921 174.94 164.921 173.891C164.921 172.855 165.114 171.942 165.5 171.152C165.891 170.362 166.435 169.745 167.133 169.302C167.835 168.859 168.656 168.637 169.595 168.637C170.166 168.637 170.719 168.731 171.254 168.92C171.79 169.109 172.271 169.405 172.696 169.809C173.122 170.213 173.458 170.737 173.704 171.383C173.95 172.023 174.072 172.803 174.072 173.72V174.418H166.033V172.943H172.143C172.143 172.425 172.038 171.966 171.827 171.567C171.617 171.163 171.32 170.845 170.938 170.612C170.561 170.38 170.118 170.263 169.608 170.263C169.055 170.263 168.573 170.399 168.16 170.672C167.752 170.939 167.436 171.29 167.212 171.725C166.992 172.155 166.883 172.623 166.883 173.127V174.28C166.883 174.956 167.001 175.531 167.238 176.005C167.48 176.479 167.815 176.841 168.246 177.091C168.676 177.337 169.178 177.46 169.753 177.46C170.126 177.46 170.467 177.407 170.774 177.302C171.081 177.192 171.347 177.03 171.57 176.814C171.794 176.599 171.966 176.334 172.084 176.018L173.947 176.354C173.798 176.902 173.53 177.383 173.144 177.795C172.762 178.204 172.282 178.522 171.702 178.75C171.127 178.974 170.471 179.086 169.734 179.086ZM181.163 178.882V168.769H183.132V173.009H184.08L187.418 168.769H189.854L185.937 173.687L189.9 178.882H187.458L184.409 174.839H183.132V178.882H181.163ZM190.633 178.882L190.626 177.177H190.988C191.269 177.177 191.504 177.117 191.693 176.999C191.886 176.876 192.044 176.67 192.167 176.38C192.29 176.09 192.384 175.691 192.45 175.182C192.516 174.668 192.564 174.023 192.595 173.246L192.773 168.769H199.831V178.882H197.902V170.467H194.597L194.439 173.904C194.399 174.738 194.313 175.467 194.182 176.09C194.054 176.713 193.868 177.234 193.622 177.651C193.376 178.063 193.06 178.373 192.674 178.579C192.288 178.781 191.818 178.882 191.265 178.882H190.633ZM204.385 176.123L208.843 168.769H210.963V178.882H209.034V171.521L204.596 178.882H202.456V168.769H204.385V176.123ZM213.61 178.882V168.769H215.578V173.009H216.526L219.864 168.769H222.301L218.383 173.687L222.347 178.882H219.904L216.856 174.839H215.578V178.882H213.61ZM225.805 176.123L230.262 168.769H232.382V178.882H230.453V171.521L226.016 178.882H223.876V168.769H225.805V176.123Z" fill="black"/>
<circle cx="45.2688" cy="209.148" r="8.907" fill="#27C58B" stroke="#27C58B" stroke-width="3.81728"/>
<path d="M84.9798 214.535L84.802 219.519H82.7741V216.333H81.826V214.535H84.9798ZM73.0166 216.333V202.848H74.9654V214.568H81.4705V202.848H83.4259V216.333H73.0166ZM91.4124 216.537C90.416 216.537 89.5579 216.324 88.838 215.898C88.1226 215.468 87.5695 214.864 87.1788 214.087C86.7926 213.306 86.5994 212.391 86.5994 211.342C86.5994 210.306 86.7926 209.393 87.1788 208.603C87.5695 207.813 88.1138 207.196 88.8117 206.753C89.514 206.309 90.3348 206.088 91.2741 206.088C91.8447 206.088 92.3978 206.182 92.9333 206.371C93.4688 206.56 93.9494 206.856 94.3752 207.26C94.801 207.664 95.1368 208.188 95.3826 208.833C95.6284 209.474 95.7513 210.253 95.7513 211.171V211.869H87.7121V210.394H93.8221C93.8221 209.876 93.7168 209.417 93.5061 209.018C93.2954 208.614 92.9991 208.296 92.6173 208.063C92.2398 207.83 91.7965 207.714 91.2873 207.714C90.7342 207.714 90.2514 207.85 89.8388 208.122C89.4306 208.39 89.1146 208.741 88.8907 209.176C88.6712 209.606 88.5615 210.073 88.5615 210.578V211.73C88.5615 212.406 88.68 212.981 88.917 213.455C89.1584 213.929 89.4942 214.291 89.9244 214.542C90.3545 214.787 90.8571 214.91 91.4321 214.91C91.8052 214.91 92.1454 214.858 92.4527 214.752C92.7599 214.643 93.0255 214.48 93.2493 214.265C93.4732 214.05 93.6444 213.784 93.7629 213.468L95.6262 213.804C95.4769 214.353 95.2092 214.834 94.8229 215.246C94.441 215.654 93.9604 215.973 93.381 216.201C92.806 216.425 92.1498 216.537 91.4124 216.537ZM97.1389 216.333L97.1323 214.627H97.4944C97.7753 214.627 98.0101 214.568 98.1989 214.449C98.392 214.327 98.55 214.12 98.6729 213.831C98.7958 213.541 98.8902 213.141 98.956 212.632C99.0219 212.119 99.0702 211.473 99.1009 210.697L99.2787 206.219H106.337V216.333H104.408V207.918H101.102L100.944 211.355C100.905 212.189 100.819 212.918 100.688 213.541C100.56 214.164 100.374 214.684 100.128 215.101C99.8822 215.514 99.5662 215.823 99.1799 216.03C98.7936 216.232 98.324 216.333 97.7709 216.333H97.1389ZM113.321 216.537C112.324 216.537 111.466 216.324 110.746 215.898C110.031 215.468 109.478 214.864 109.087 214.087C108.701 213.306 108.508 212.391 108.508 211.342C108.508 210.306 108.701 209.393 109.087 208.603C109.478 207.813 110.022 207.196 110.72 206.753C111.422 206.309 112.243 206.088 113.183 206.088C113.753 206.088 114.306 206.182 114.842 206.371C115.377 206.56 115.858 206.856 116.284 207.26C116.709 207.664 117.045 208.188 117.291 208.833C117.537 209.474 117.66 210.253 117.66 211.171V211.869H109.621V210.394H115.731C115.731 209.876 115.625 209.417 115.415 209.018C115.204 208.614 114.908 208.296 114.526 208.063C114.148 207.83 113.705 207.714 113.196 207.714C112.643 207.714 112.16 207.85 111.747 208.122C111.339 208.39 111.023 208.741 110.799 209.176C110.58 209.606 110.47 210.073 110.47 210.578V211.73C110.47 212.406 110.588 212.981 110.825 213.455C111.067 213.929 111.403 214.291 111.833 214.542C112.263 214.787 112.766 214.91 113.341 214.91C113.714 214.91 114.054 214.858 114.361 214.752C114.668 214.643 114.934 214.48 115.158 214.265C115.382 214.05 115.553 213.784 115.671 213.468L117.535 213.804C117.385 214.353 117.118 214.834 116.731 215.246C116.349 215.654 115.869 215.973 115.289 216.201C114.714 216.425 114.058 216.537 113.321 216.537ZM119.844 216.333V206.219H124.038C125.179 206.219 126.083 206.463 126.751 206.95C127.418 207.433 127.751 208.089 127.751 208.919C127.751 209.511 127.563 209.981 127.185 210.328C126.808 210.675 126.307 210.907 125.684 211.026C126.136 211.078 126.551 211.215 126.928 211.434C127.306 211.649 127.609 211.939 127.837 212.303C128.07 212.667 128.186 213.102 128.186 213.607C128.186 214.142 128.048 214.616 127.771 215.029C127.495 215.437 127.093 215.758 126.566 215.99C126.044 216.218 125.414 216.333 124.677 216.333H119.844ZM121.694 214.687H124.677C125.164 214.687 125.546 214.57 125.822 214.338C126.099 214.105 126.237 213.789 126.237 213.389C126.237 212.92 126.099 212.551 125.822 212.283C125.546 212.011 125.164 211.875 124.677 211.875H121.694V214.687ZM121.694 210.433H124.058C124.426 210.433 124.742 210.381 125.006 210.275C125.274 210.17 125.478 210.021 125.618 209.827C125.763 209.63 125.835 209.397 125.835 209.13C125.835 208.739 125.675 208.434 125.355 208.214C125.034 207.995 124.595 207.885 124.038 207.885H121.694V210.433ZM131.827 209.696H134.763C136.001 209.696 136.954 210.003 137.621 210.618C138.288 211.232 138.622 212.024 138.622 212.994C138.622 213.626 138.472 214.195 138.174 214.7C137.875 215.204 137.439 215.604 136.864 215.898C136.289 216.188 135.589 216.333 134.763 216.333H130.345V206.219H132.275V214.634H134.763C135.33 214.634 135.795 214.487 136.159 214.193C136.523 213.894 136.706 213.515 136.706 213.054C136.706 212.566 136.523 212.169 136.159 211.862C135.795 211.55 135.33 211.394 134.763 211.394H131.827V209.696ZM140.057 216.333V206.219H142.026V216.333H140.057ZM149.026 216.537C148.03 216.537 147.172 216.324 146.452 215.898C145.736 215.468 145.183 214.864 144.793 214.087C144.406 213.306 144.213 212.391 144.213 211.342C144.213 210.306 144.406 209.393 144.793 208.603C145.183 207.813 145.727 207.196 146.425 206.753C147.128 206.309 147.948 206.088 148.888 206.088C149.458 206.088 150.011 206.182 150.547 206.371C151.082 206.56 151.563 206.856 151.989 207.26C152.415 207.664 152.75 208.188 152.996 208.833C153.242 209.474 153.365 210.253 153.365 211.171V211.869H145.326V210.394H151.436C151.436 209.876 151.33 209.417 151.12 209.018C150.909 208.614 150.613 208.296 150.231 208.063C149.853 207.83 149.41 207.714 148.901 207.714C148.348 207.714 147.865 207.85 147.452 208.122C147.044 208.39 146.728 208.741 146.504 209.176C146.285 209.606 146.175 210.073 146.175 210.578V211.73C146.175 212.406 146.294 212.981 146.531 213.455C146.772 213.929 147.108 214.291 147.538 214.542C147.968 214.787 148.471 214.91 149.046 214.91C149.419 214.91 149.759 214.858 150.066 214.752C150.374 214.643 150.639 214.48 150.863 214.265C151.087 214.05 151.258 213.784 151.377 213.468L153.24 213.804C153.091 214.353 152.823 214.834 152.437 215.246C152.055 215.654 151.574 215.973 150.995 216.201C150.42 216.425 149.763 216.537 149.026 216.537ZM160.456 216.333V206.219H162.425V210.46H163.373L166.711 206.219H169.147L165.229 211.138L169.193 216.333H166.75L163.702 212.29H162.425V216.333H160.456ZM169.925 216.333L169.919 214.627H170.281C170.562 214.627 170.797 214.568 170.985 214.449C171.179 214.327 171.337 214.12 171.46 213.831C171.582 213.541 171.677 213.141 171.743 212.632C171.808 212.119 171.857 211.473 171.887 210.697L172.065 206.219H179.123V216.333H177.194V207.918H173.889L173.731 211.355C173.692 212.189 173.606 212.918 173.474 213.541C173.347 214.164 173.16 214.684 172.915 215.101C172.669 215.514 172.353 215.823 171.966 216.03C171.58 216.232 171.111 216.333 170.558 216.333H169.925ZM183.678 213.574L188.135 206.219H190.255V216.333H188.326V208.972L183.889 216.333H181.749V206.219H183.678V213.574ZM192.902 216.333V206.219H194.871V210.46H195.819L199.157 206.219H201.593L197.676 211.138L201.639 216.333H199.196L196.148 212.29H194.871V216.333H192.902ZM205.097 213.574L209.555 206.219H211.675V216.333H209.746V208.972L205.308 216.333H203.168V206.219H205.097V213.574Z" fill="black"/>
<g clip-path="url(#clip0_49_4936)">
<g clip-path="url(#clip1_49_4936)">
<g clip-path="url(#clip2_49_4936)">
<path d="M20.0898 150.251L27.1799 152.208C34.27 154.165 48.9147 162.13 62.6304 158.627C90.5572 151.494 92.5601 78.8727 106.74 83.2138C120.92 87.5549 116.06 172.816 147.711 174.187C166.581 175.004 176.072 155.628 190.252 144.325C204.432 133.022 218.612 126.621 232.793 138.865C246.973 151.108 256.938 142.884 271.118 144.325C285.298 145.767 300.61 186.281 317.874 140.607C335.137 94.9335 339.101 90.4016 353.281 90.9413C367.461 91.481 384.385 106.653 402.955 141.51C421.524 176.366 425.716 177.801 445.495 177.264C466.483 176.693 473.856 141.841 488.036 134.545C502.216 127.25 516.396 144.412 530.576 140.275C544.756 136.139 558.937 110.704 573.117 114.408C587.297 118.112 601.477 150.955 615.657 146.471C629.837 141.988 644.018 100.179 651.108 79.2742L658.198 58.3696" stroke="#27C58B" stroke-width="6.4833" stroke-linecap="round"/>
</g>
<path d="M27.1284 152.663L20.0898 150.696V330.299H611.331V146.899C597.254 151.404 583.177 118.402 569.099 114.68C555.022 110.958 540.945 136.516 526.868 140.672C512.791 144.829 498.714 127.584 484.636 134.915C470.559 142.246 463.241 177.267 442.405 177.84C422.77 178.381 418.608 176.938 400.173 141.913C381.739 106.887 367.501 95.1635 353.424 94.6212C339.347 94.0789 332.848 95.1108 315.71 141.006C298.573 186.901 280.915 150.942 266.838 149.493C252.761 148.045 245.325 151.558 231.247 139.255C217.17 126.952 203.093 133.384 189.016 144.742C174.939 156.1 165.517 175.569 146.784 174.748C115.363 173.371 120.188 87.6964 106.111 83.3343C92.0337 78.9721 90.0453 151.946 62.3214 159.113C48.7053 162.633 34.167 154.629 27.1284 152.663Z" fill="#27C58B" fill-opacity="0.2"/>
</g>
<rect x="305.922" y="177.337" width="27.811" height="15.4506" fill="#6695E2"/>
<rect x="305.922" y="157.251" width="27.811" height="20.0857" fill="#4F5A7C"/>
<rect x="305.922" y="164.976" width="27.811" height="50.9868" fill="#27C58B"/>
<rect x="305.922" y="164.976" width="27.811" height="12.3604" fill="#6695E2"/>
<path d="M305.922 78.4534C305.922 73.3336 310.072 69.1831 315.192 69.1831H324.463C329.582 69.1831 333.733 73.3336 333.733 78.4534V157.251H305.922V78.4534Z" fill="#E26666"/>
<rect x="352.271" y="182.625" width="27.811" height="33.3407" fill="#27C58B"/>
<rect x="352.271" y="182.625" width="27.811" height="22.6717" fill="#6695E2"/>
<rect x="352.271" y="171.954" width="27.811" height="44.0097" fill="#27C58B"/>
<rect x="352.271" y="149.282" width="27.811" height="33.3407" fill="#4F5A7C"/>
<rect x="352.271" y="154.161" width="27.811" height="29.3561" fill="#6695E2"/>
<path d="M352.271 98.5399C352.271 93.42 356.422 89.2695 361.542 89.2695H370.812C375.932 89.2695 380.082 93.42 380.082 98.5399V149.283H352.271V98.5399Z" fill="#E26666"/>
<rect x="398.625" y="180.429" width="27.811" height="26.4842" fill="#27C58B"/>
<rect x="398.625" y="193.764" width="27.811" height="22.2" fill="#27C58B"/>
<rect x="398.625" y="171.158" width="27.811" height="44.0097" fill="#27C58B"/>
<rect x="398.625" y="149.528" width="27.811" height="21.6308" fill="#6695E2"/>
<rect x="398.625" y="128.333" width="27.811" height="21.1874" fill="#4F5A7C"/>
<path d="M398.625 84.6351C398.625 79.5152 402.775 75.3647 407.895 75.3647H417.166C422.286 75.3647 426.436 79.5152 426.436 84.6351V138.712H398.625V84.6351Z" fill="#E26666"/>
<rect x="444.977" y="171.156" width="27.811" height="44.8066" fill="#27C58B"/>
<rect x="444.977" y="147.98" width="27.811" height="23.1758" fill="#6695E2"/>
<rect x="444.977" y="148.469" width="27.811" height="6.5055" fill="#4F5A7C"/>
<path d="M444.977 147.981C444.977 142.861 449.127 138.71 454.247 138.71H463.517C468.637 138.71 472.788 142.861 472.788 147.981V150.095H444.977V147.981Z" fill="#E26666"/>
<g clip-path="url(#clip3_49_4936)">
<rect x="491.33" y="163.431" width="27.811" height="52.5319" fill="#27C58B"/>
<path d="M491.33 147.981C491.33 142.861 495.481 138.71 500.6 138.71H509.871C514.991 138.71 519.141 142.861 519.141 147.981V150.095H491.33V147.981Z" fill="#E26666"/>
<rect x="491.33" y="143.346" width="27.811" height="9.27033" fill="#4F5A7C"/>
<rect x="491.33" y="147.98" width="27.811" height="15.4506" fill="#6695E2"/>
</g>
<g clip-path="url(#clip4_49_4936)">
<rect x="537.682" y="143.346" width="27.811" height="72.6176" fill="#27C58B"/>
<path d="M537.684 127.896C537.684 122.776 541.834 118.626 546.954 118.626H556.224C561.344 118.626 565.495 122.776 565.495 127.896V130.01H537.684V127.896Z" fill="#E26666"/>
<rect x="537.684" y="118.626" width="27.811" height="13.9055" fill="#4F5A7C"/>
<rect x="537.682" y="127.897" width="27.811" height="15.4506" fill="#6695E2"/>
</g>
<g clip-path="url(#clip5_49_4936)">
<rect x="584.031" y="166.523" width="27.811" height="61.8022" fill="#27C58B"/>
<path d="M584.031 140.257C584.031 135.137 588.182 130.987 593.302 130.987H602.572C607.692 130.987 611.842 135.137 611.842 140.257V142.371H584.031V140.257Z" fill="#E26666"/>
<rect x="584.031" y="130.987" width="27.811" height="13.9055" fill="#4F5A7C"/>
<path d="M584.031 140.257C584.031 135.137 588.182 130.987 593.302 130.987H602.572C607.692 130.987 611.842 135.137 611.842 140.257V142.371H584.031V140.257Z" fill="#E26666"/>
<rect x="584.031" y="144.892" width="27.811" height="21.6308" fill="#6695E2"/>
</g>
</g>
<path d="M52.6846 36.3253H47.8782C47.7904 35.7035 47.6112 35.1511 47.3405 34.6683C47.0698 34.1782 46.7223 33.7612 46.298 33.4174C45.8737 33.0735 45.3836 32.8102 44.8276 32.6273C44.2789 32.4444 43.6827 32.3529 43.0389 32.3529C41.8758 32.3529 40.8625 32.6419 39.9993 33.2198C39.1361 33.7904 38.4667 34.6244 37.9912 35.7218C37.5157 36.8118 37.2779 38.1359 37.2779 39.6941C37.2779 41.2963 37.5157 42.6423 37.9912 43.7324C38.474 44.8224 39.147 45.6454 40.0103 46.2014C40.8735 46.7574 41.8721 47.0353 43.006 47.0353C43.6425 47.0353 44.2314 46.9512 44.7727 46.783C45.3214 46.6147 45.8079 46.3696 46.2322 46.0477C46.6565 45.7185 47.0076 45.3198 47.2856 44.8516C47.5709 44.3834 47.7685 43.8494 47.8782 43.2495L52.6846 43.2715C52.5602 44.303 52.2493 45.2979 51.7518 46.2562C51.2617 47.2073 50.5996 48.0595 49.7656 48.813C48.939 49.5592 47.9514 50.1518 46.8028 50.5907C45.6616 51.0224 44.3704 51.2382 42.9292 51.2382C40.9247 51.2382 39.1324 50.7846 37.5522 49.8775C35.9794 48.9703 34.7357 47.6572 33.8213 45.938C32.9141 44.2188 32.4606 42.1376 32.4606 39.6941C32.4606 37.2434 32.9215 35.1585 33.8432 33.4393C34.765 31.7201 36.016 30.4106 37.5961 29.5108C39.1763 28.6037 40.954 28.1501 42.9292 28.1501C44.2314 28.1501 45.4384 28.333 46.5504 28.6988C47.6697 29.0646 48.661 29.5986 49.5242 30.3009C50.3875 30.9959 51.0898 31.8482 51.6311 32.8577C52.1798 33.8673 52.5309 35.0231 52.6846 36.3253ZM55.1261 37.7518V34.0758H70.4011V37.7518H64.9693V50.9309H60.5141V37.7518H55.1261ZM77.4378 51.2491C76.3624 51.2491 75.4041 51.0626 74.5628 50.6895C73.7215 50.3091 73.0558 49.7494 72.5656 49.0106C72.0828 48.2644 71.8414 47.3353 71.8414 46.2233C71.8414 45.2869 72.0133 44.5005 72.3571 43.864C72.701 43.2276 73.1692 42.7155 73.7617 42.3278C74.3543 41.94 75.0273 41.6474 75.7808 41.4499C76.5417 41.2524 77.3391 41.1134 78.173 41.0329C79.1533 40.9305 79.9434 40.8354 80.5433 40.7476C81.1432 40.6525 81.5784 40.5135 81.8491 40.3306C82.1198 40.1477 82.2551 39.877 82.2551 39.5186V39.4527C82.2551 38.7577 82.0357 38.22 81.5967 37.8396C81.1651 37.4592 80.5506 37.269 79.7532 37.269C78.9119 37.269 78.2425 37.4556 77.7451 37.8287C77.2476 38.1944 76.9184 38.6553 76.7575 39.2113L72.4339 38.8602C72.6534 37.836 73.085 36.9508 73.7288 36.2046C74.3726 35.4511 75.2029 34.8732 76.2198 34.4708C77.244 34.0611 78.4291 33.8563 79.7752 33.8563C80.7115 33.8563 81.6077 33.966 82.4636 34.1855C83.3269 34.405 84.0914 34.7451 84.7571 35.206C85.4301 35.6669 85.9605 36.2595 86.3482 36.9837C86.7359 37.7006 86.9298 38.5602 86.9298 39.5625V50.9309H82.4966V48.5936H82.3649C82.0942 49.1203 81.7321 49.5848 81.2785 49.9872C80.8249 50.3822 80.2799 50.6932 79.6435 50.9199C79.007 51.1394 78.2718 51.2491 77.4378 51.2491ZM78.7766 48.023C79.4642 48.023 80.0714 47.8876 80.5982 47.6169C81.1249 47.3389 81.5382 46.9659 81.8382 46.4977C82.1381 46.0295 82.2881 45.4991 82.2881 44.9065V43.1178C82.1417 43.2129 81.9406 43.3007 81.6845 43.3812C81.4358 43.4544 81.1541 43.5239 80.8396 43.5897C80.525 43.6482 80.2104 43.7031 79.8959 43.7543C79.5813 43.7982 79.296 43.8384 79.0399 43.875C78.4913 43.9555 78.0121 44.0835 77.6024 44.2591C77.1927 44.4347 76.8745 44.6724 76.6477 44.9723C76.4209 45.265 76.3076 45.6308 76.3076 46.0697C76.3076 46.7061 76.538 47.1926 76.9989 47.5292C77.4671 47.8584 78.0596 48.023 78.7766 48.023ZM88.8639 37.7518V34.0758H104.139V37.7518H98.707V50.9309H94.2518V37.7518H88.8639ZM111.439 44.7639L117.507 34.0758H122.116V50.9309H117.661V40.2099L111.614 50.9309H106.973V34.0758H111.439V44.7639ZM133.479 51.2601C131.753 51.2601 130.267 50.8943 129.024 50.1628C127.787 49.4239 126.836 48.3997 126.171 47.0902C125.512 45.7807 125.183 44.2737 125.183 42.5692C125.183 40.8427 125.516 39.3284 126.182 38.0262C126.855 36.7167 127.809 35.6962 129.046 34.9646C130.282 34.2257 131.753 33.8563 133.457 33.8563C134.927 33.8563 136.215 34.1233 137.32 34.6573C138.424 35.1914 139.299 35.9412 139.942 36.9069C140.586 37.8726 140.941 39.0065 141.007 40.3087H136.595C136.471 39.4674 136.142 38.7907 135.608 38.2786C135.081 37.7592 134.39 37.4995 133.534 37.4995C132.81 37.4995 132.177 37.697 131.635 38.092C131.101 38.4797 130.684 39.0467 130.385 39.7929C130.085 40.5391 129.935 41.4426 129.935 42.5033C129.935 43.5787 130.081 44.4932 130.374 45.2467C130.673 46.0002 131.094 46.5745 131.635 46.9695C132.177 47.3646 132.81 47.5621 133.534 47.5621C134.068 47.5621 134.547 47.4523 134.971 47.2329C135.403 47.0134 135.758 46.6952 136.036 46.2782C136.321 45.8539 136.508 45.3454 136.595 44.7529H141.007C140.934 46.0404 140.582 47.1743 139.953 48.1546C139.331 49.1276 138.472 49.8884 137.375 50.4371C136.277 50.9858 134.979 51.2601 133.479 51.2601ZM142.85 37.7518V34.0758H158.125V37.7518H152.693V50.9309H148.238V37.7518H142.85ZM165.425 44.7639L171.494 34.0758H176.102V50.9309H171.647V40.2099L165.601 50.9309H160.959V34.0758H165.425V44.7639ZM179.85 50.9309V34.0758H184.525V40.6159H185.841L190.428 34.0758H195.915L189.956 42.4375L195.981 50.9309H190.428L186.269 44.9504H184.525V50.9309H179.85ZM202.762 51.2491C201.687 51.2491 200.729 51.0626 199.887 50.6895C199.046 50.3091 198.38 49.7494 197.89 49.0106C197.407 48.2644 197.166 47.3353 197.166 46.2233C197.166 45.2869 197.338 44.5005 197.682 43.864C198.025 43.2276 198.494 42.7155 199.086 42.3278C199.679 41.94 200.352 41.6474 201.105 41.4499C201.866 41.2524 202.664 41.1134 203.498 41.0329C204.478 40.9305 205.268 40.8354 205.868 40.7476C206.468 40.6525 206.903 40.5135 207.174 40.3306C207.444 40.1477 207.58 39.877 207.58 39.5186V39.4527C207.58 38.7577 207.36 38.22 206.921 37.8396C206.49 37.4592 205.875 37.269 205.078 37.269C204.236 37.269 203.567 37.4556 203.07 37.8287C202.572 38.1944 202.243 38.6553 202.082 39.2113L197.758 38.8602C197.978 37.836 198.41 36.9508 199.053 36.2046C199.697 35.4511 200.527 34.8732 201.544 34.4708C202.568 34.0611 203.754 33.8563 205.1 33.8563C206.036 33.8563 206.932 33.966 207.788 34.1855C208.651 34.405 209.416 34.7451 210.082 35.206C210.755 35.6669 211.285 36.2595 211.673 36.9837C212.06 37.7006 212.254 38.5602 212.254 39.5625V50.9309H207.821V48.5936H207.689C207.419 49.1203 207.057 49.5848 206.603 49.9872C206.149 50.3822 205.604 50.6932 204.968 50.9199C204.332 51.1394 203.596 51.2491 202.762 51.2491ZM204.101 48.023C204.789 48.023 205.396 47.8876 205.923 47.6169C206.449 47.3389 206.863 46.9659 207.163 46.4977C207.463 46.0295 207.613 45.4991 207.613 44.9065V43.1178C207.466 43.2129 207.265 43.3007 207.009 43.3812C206.76 43.4544 206.479 43.5239 206.164 43.5897C205.85 43.6482 205.535 43.7031 205.22 43.7543C204.906 43.7982 204.621 43.8384 204.364 43.875C203.816 43.9555 203.337 44.0835 202.927 44.2591C202.517 44.4347 202.199 44.6724 201.972 44.9723C201.745 45.265 201.632 45.6308 201.632 46.0697C201.632 46.7061 201.863 47.1926 202.323 47.5292C202.792 47.8584 203.384 48.023 204.101 48.023ZM223.033 50.9309V34.0758H230.221C232.298 34.0758 233.941 34.4708 235.148 35.2609C236.355 36.051 236.958 37.1739 236.958 38.6297C236.958 39.5442 236.618 40.305 235.938 40.9122C235.257 41.5194 234.314 41.9291 233.107 42.1412C234.116 42.2144 234.976 42.4448 235.685 42.8325C236.402 43.2129 236.947 43.7067 237.32 44.3139C237.701 44.9211 237.891 45.5942 237.891 46.3331C237.891 47.2914 237.635 48.1144 237.123 48.8021C236.618 49.4897 235.876 50.0165 234.895 50.3822C233.922 50.748 232.733 50.9309 231.329 50.9309H223.033ZM227.389 47.4304H231.329C231.98 47.4304 232.488 47.2768 232.854 46.9695C233.227 46.6549 233.414 46.227 233.414 45.6856C233.414 45.0857 233.227 44.6139 232.854 44.2701C232.488 43.9262 231.98 43.7543 231.329 43.7543H227.389V47.4304ZM227.389 41.0109H230.319C230.788 41.0109 231.186 40.9451 231.515 40.8134C231.852 40.6744 232.108 40.4769 232.284 40.2209C232.466 39.9648 232.558 39.6612 232.558 39.3101C232.558 38.7907 232.349 38.3846 231.932 38.092C231.515 37.7994 230.945 37.6531 230.221 37.6531H227.389V41.0109ZM245.303 44.7639L251.372 34.0758H255.981V50.9309H251.525V40.2099L245.479 50.9309H240.837V34.0758H245.303V44.7639ZM258.861 46.1575H263.393C263.415 46.7135 263.664 47.1524 264.139 47.4743C264.615 47.7962 265.229 47.9571 265.983 47.9571C266.744 47.9571 267.384 47.7815 267.903 47.4304C268.423 47.0719 268.682 46.5598 268.682 45.8941C268.682 45.4844 268.58 45.1296 268.375 44.8297C268.17 44.5224 267.885 44.281 267.519 44.1054C267.153 43.9299 266.729 43.8421 266.246 43.8421H263.821V40.7805H266.246C266.97 40.7805 267.526 40.6122 267.914 40.2757C268.309 39.9392 268.507 39.5186 268.507 39.0138C268.507 38.4432 268.302 37.9859 267.892 37.6421C267.49 37.291 266.945 37.1154 266.257 37.1154C265.562 37.1154 264.984 37.2727 264.523 37.5872C264.07 37.8945 263.836 38.2969 263.821 38.7943H259.311C259.326 37.7848 259.629 36.9106 260.222 36.1717C260.822 35.4328 261.626 34.8622 262.636 34.4598C263.653 34.0575 264.79 33.8563 266.049 33.8563C267.424 33.8563 268.609 34.0502 269.604 34.4379C270.606 34.8183 271.374 35.3633 271.909 36.0729C272.45 36.7825 272.721 37.6275 272.721 38.6078C272.721 39.5003 272.428 40.2465 271.843 40.8463C271.257 41.4462 270.438 41.8742 269.385 42.1302V42.3058C270.08 42.3497 270.709 42.5363 271.272 42.8655C271.835 43.1947 272.285 43.6482 272.622 44.2262C272.958 44.7968 273.127 45.4735 273.127 46.2562C273.127 47.3024 272.819 48.1985 272.205 48.9447C271.598 49.6909 270.756 50.2652 269.681 50.6675C268.613 51.0626 267.387 51.2601 266.005 51.2601C264.659 51.2601 263.452 51.0662 262.384 50.6785C261.323 50.2835 260.478 49.7055 259.849 48.9447C259.227 48.1839 258.898 47.2548 258.861 46.1575ZM280.46 44.7639L286.528 34.0758H291.137V50.9309H286.681V40.2099L280.635 50.9309H275.993V34.0758H280.46V44.7639ZM293.191 37.7518V34.0758H308.466V37.7518H303.035V50.9309H298.579V37.7518H293.191ZM318.312 51.2601C316.608 51.2601 315.134 50.898 313.89 50.1737C312.654 49.4422 311.699 48.4253 311.026 47.1231C310.353 45.8136 310.016 44.2957 310.016 42.5692C310.016 40.8281 310.353 39.3064 311.026 38.0042C311.699 36.6947 312.654 35.6779 313.89 34.9536C315.134 34.2221 316.608 33.8563 318.312 33.8563C320.017 33.8563 321.487 34.2221 322.724 34.9536C323.967 35.6779 324.926 36.6947 325.599 38.0042C326.272 39.3064 326.608 40.8281 326.608 42.5692C326.608 44.2957 326.272 45.8136 325.599 47.1231C324.926 48.4253 323.967 49.4422 322.724 50.1737C321.487 50.898 320.017 51.2601 318.312 51.2601ZM318.334 47.6389C319.11 47.6389 319.757 47.4194 320.277 46.9805C320.796 46.5342 321.187 45.927 321.451 45.1589C321.721 44.3908 321.857 43.5165 321.857 42.5363C321.857 41.556 321.721 40.6817 321.451 39.9136C321.187 39.1455 320.796 38.5383 320.277 38.092C319.757 37.6458 319.11 37.4226 318.334 37.4226C317.551 37.4226 316.893 37.6458 316.359 38.092C315.832 38.5383 315.434 39.1455 315.163 39.9136C314.9 40.6817 314.768 41.556 314.768 42.5363C314.768 43.5165 314.9 44.3908 315.163 45.1589C315.434 45.927 315.832 46.5342 316.359 46.9805C316.893 47.4194 317.551 47.6389 318.334 47.6389ZM329.648 50.9309V34.0758H336.835C338.913 34.0758 340.555 34.4708 341.762 35.2609C342.97 36.051 343.573 37.1739 343.573 38.6297C343.573 39.5442 343.233 40.305 342.553 40.9122C341.872 41.5194 340.928 41.9291 339.721 42.1412C340.731 42.2144 341.591 42.4448 342.3 42.8325C343.017 43.2129 343.562 43.7067 343.935 44.3139C344.316 44.9211 344.506 45.5942 344.506 46.3331C344.506 47.2914 344.25 48.1144 343.738 48.8021C343.233 49.4897 342.49 50.0165 341.51 50.3822C340.537 50.748 339.348 50.9309 337.944 50.9309H329.648ZM334.004 47.4304H337.944C338.595 47.4304 339.103 47.2768 339.469 46.9695C339.842 46.6549 340.029 46.227 340.029 45.6856C340.029 45.0857 339.842 44.6139 339.469 44.2701C339.103 43.9262 338.595 43.7543 337.944 43.7543H334.004V47.4304ZM334.004 41.0109H336.934C337.402 41.0109 337.801 40.9451 338.13 40.8134C338.467 40.6744 338.723 40.4769 338.898 40.2209C339.081 39.9648 339.173 39.6612 339.173 39.3101C339.173 38.7907 338.964 38.3846 338.547 38.092C338.13 37.7994 337.56 37.6531 336.835 37.6531H334.004V41.0109Z" fill="#070707"/>
<path d="M299.973 227.61V241.094H297.932V229.651H297.853L294.627 231.758V229.809L297.992 227.61H299.973ZM303.621 241.094V239.619L308.184 234.892C308.671 234.379 309.073 233.929 309.389 233.542C309.709 233.152 309.948 232.781 310.106 232.43C310.264 232.078 310.343 231.705 310.343 231.31C310.343 230.863 310.238 230.476 310.027 230.152C309.817 229.822 309.529 229.57 309.165 229.394C308.8 229.214 308.39 229.124 307.934 229.124C307.451 229.124 307.029 229.223 306.669 229.421C306.309 229.618 306.033 229.897 305.84 230.257C305.647 230.617 305.55 231.038 305.55 231.521H303.608C303.608 230.7 303.797 229.983 304.174 229.368C304.552 228.754 305.069 228.277 305.728 227.939C306.386 227.597 307.135 227.426 307.973 227.426C308.82 227.426 309.566 227.595 310.212 227.933C310.861 228.266 311.368 228.723 311.733 229.302C312.097 229.877 312.279 230.527 312.279 231.251C312.279 231.751 312.185 232.241 311.996 232.719C311.812 233.198 311.489 233.731 311.028 234.319C310.567 234.903 309.926 235.612 309.105 236.446L306.426 239.251V239.349H312.496V241.094H303.621ZM316.315 241.219C315.955 241.219 315.646 241.092 315.387 240.837C315.128 240.578 314.998 240.267 314.998 239.903C314.998 239.543 315.128 239.235 315.387 238.981C315.646 238.722 315.955 238.592 316.315 238.592C316.675 238.592 316.984 238.722 317.243 238.981C317.502 239.235 317.632 239.543 317.632 239.903C317.632 240.144 317.57 240.366 317.447 240.568C317.329 240.765 317.171 240.923 316.973 241.042C316.776 241.16 316.556 241.219 316.315 241.219ZM324.448 241.318C323.408 241.314 322.519 241.039 321.781 240.495C321.044 239.951 320.48 239.159 320.089 238.118C319.699 237.078 319.503 235.825 319.503 234.359C319.503 232.897 319.699 231.648 320.089 230.612C320.484 229.577 321.051 228.786 321.788 228.242C322.53 227.698 323.416 227.426 324.448 227.426C325.479 227.426 326.364 227.7 327.101 228.249C327.839 228.793 328.403 229.583 328.793 230.619C329.188 231.651 329.386 232.897 329.386 234.359C329.386 235.829 329.191 237.085 328.8 238.125C328.409 239.161 327.845 239.953 327.108 240.502C326.37 241.046 325.484 241.318 324.448 241.318ZM324.448 239.56C325.361 239.56 326.074 239.115 326.588 238.224C327.106 237.333 327.365 236.044 327.365 234.359C327.365 233.239 327.246 232.294 327.009 231.521C326.776 230.744 326.441 230.156 326.002 229.757C325.567 229.353 325.049 229.151 324.448 229.151C323.539 229.151 322.826 229.598 322.308 230.494C321.79 231.389 321.529 232.678 321.525 234.359C321.525 235.482 321.641 236.433 321.874 237.21C322.111 237.982 322.446 238.568 322.881 238.968C323.315 239.363 323.838 239.56 324.448 239.56ZM336.429 241.279C335.828 241.27 335.235 241.16 334.652 240.949C334.072 240.739 333.545 240.388 333.071 239.896C332.597 239.404 332.218 238.744 331.932 237.914C331.651 237.085 331.511 236.049 331.511 234.806C331.511 233.63 331.627 232.585 331.86 231.672C332.097 230.759 332.437 229.989 332.88 229.361C333.324 228.729 333.859 228.249 334.487 227.92C335.115 227.59 335.819 227.426 336.6 227.426C337.404 227.426 338.117 227.584 338.74 227.9C339.364 228.216 339.868 228.653 340.255 229.21C340.645 229.767 340.893 230.402 340.999 231.113H338.99C338.854 230.551 338.584 230.092 338.181 229.737C337.777 229.381 337.25 229.203 336.6 229.203C335.613 229.203 334.842 229.634 334.289 230.494C333.741 231.354 333.464 232.55 333.46 234.082H333.559C333.791 233.7 334.077 233.376 334.415 233.108C334.757 232.836 335.139 232.627 335.56 232.482C335.986 232.333 336.434 232.258 336.903 232.258C337.685 232.258 338.391 232.449 339.023 232.831C339.66 233.209 340.167 233.731 340.544 234.398C340.922 235.065 341.111 235.829 341.111 236.69C341.111 237.55 340.915 238.329 340.525 239.027C340.138 239.725 339.594 240.278 338.892 240.686C338.189 241.09 337.369 241.287 336.429 241.279ZM336.423 239.567C336.941 239.567 337.404 239.439 337.812 239.185C338.22 238.93 338.543 238.588 338.78 238.158C339.017 237.728 339.135 237.247 339.135 236.716C339.135 236.198 339.019 235.726 338.786 235.3C338.558 234.875 338.242 234.537 337.838 234.286C337.439 234.036 336.982 233.911 336.469 233.911C336.078 233.911 335.716 233.986 335.382 234.135C335.053 234.284 334.763 234.49 334.513 234.754C334.263 235.017 334.066 235.32 333.921 235.662C333.78 236 333.71 236.358 333.71 236.736C333.71 237.24 333.826 237.708 334.059 238.138C334.296 238.568 334.619 238.915 335.027 239.178C335.439 239.437 335.905 239.567 336.423 239.567Z" fill="#9F9F9F"/>
<path d="M394.223 227.61V241.094H392.182V229.651H392.103L388.877 231.758V229.809L392.242 227.61H394.223ZM397.588 238.461V236.815L403.415 227.61H404.712V230.033H403.889L399.721 236.63V236.736H407.708V238.461H397.588ZM403.981 241.094V237.96L403.994 237.21V227.61H405.923V241.094H403.981ZM410.818 241.219C410.459 241.219 410.149 241.092 409.89 240.837C409.631 240.578 409.502 240.267 409.502 239.903C409.502 239.543 409.631 239.235 409.89 238.981C410.149 238.722 410.459 238.592 410.818 238.592C411.178 238.592 411.488 238.722 411.747 238.981C412.006 239.235 412.135 239.543 412.135 239.903C412.135 240.144 412.074 240.366 411.951 240.568C411.832 240.765 411.674 240.923 411.477 241.042C411.279 241.16 411.06 241.219 410.818 241.219ZM418.951 241.318C417.911 241.314 417.022 241.039 416.285 240.495C415.547 239.951 414.983 239.159 414.593 238.118C414.202 237.078 414.007 235.825 414.007 234.359C414.007 232.897 414.202 231.648 414.593 230.612C414.988 229.577 415.554 228.786 416.291 228.242C417.033 227.698 417.92 227.426 418.951 227.426C419.983 227.426 420.867 227.7 421.605 228.249C422.342 228.793 422.906 229.583 423.297 230.619C423.692 231.651 423.889 232.897 423.889 234.359C423.889 235.829 423.694 237.085 423.303 238.125C422.913 239.161 422.349 239.953 421.611 240.502C420.874 241.046 419.987 241.318 418.951 241.318ZM418.951 239.56C419.864 239.56 420.578 239.115 421.091 238.224C421.609 237.333 421.868 236.044 421.868 234.359C421.868 233.239 421.75 232.294 421.513 231.521C421.28 230.744 420.944 230.156 420.505 229.757C420.071 229.353 419.553 229.151 418.951 229.151C418.043 229.151 417.33 229.598 416.812 230.494C416.294 231.389 416.032 232.678 416.028 234.359C416.028 235.482 416.144 236.433 416.377 237.21C416.614 237.982 416.95 238.568 417.384 238.968C417.819 239.363 418.341 239.56 418.951 239.56ZM430.933 241.279C430.331 241.27 429.739 241.16 429.155 240.949C428.576 240.739 428.049 240.388 427.575 239.896C427.101 239.404 426.721 238.744 426.436 237.914C426.155 237.085 426.014 236.049 426.014 234.806C426.014 233.63 426.131 232.585 426.363 231.672C426.6 230.759 426.941 229.989 427.384 229.361C427.827 228.729 428.363 228.249 428.99 227.92C429.618 227.59 430.323 227.426 431.104 227.426C431.907 227.426 432.62 227.584 433.244 227.9C433.867 228.216 434.372 228.653 434.758 229.21C435.149 229.767 435.397 230.402 435.502 231.113H433.494C433.358 230.551 433.088 230.092 432.684 229.737C432.28 229.381 431.754 229.203 431.104 229.203C430.116 229.203 429.346 229.634 428.793 230.494C428.244 231.354 427.968 232.55 427.963 234.082H428.062C428.295 233.7 428.58 233.376 428.918 233.108C429.26 232.836 429.642 232.627 430.064 232.482C430.489 232.333 430.937 232.258 431.407 232.258C432.188 232.258 432.895 232.449 433.527 232.831C434.163 233.209 434.67 233.731 435.048 234.398C435.425 235.065 435.614 235.829 435.614 236.69C435.614 237.55 435.419 238.329 435.028 239.027C434.642 239.725 434.097 240.278 433.395 240.686C432.693 241.09 431.872 241.287 430.933 241.279ZM430.926 239.567C431.444 239.567 431.907 239.439 432.315 239.185C432.724 238.93 433.046 238.588 433.283 238.158C433.52 237.728 433.639 237.247 433.639 236.716C433.639 236.198 433.522 235.726 433.29 235.3C433.062 234.875 432.746 234.537 432.342 234.286C431.942 234.036 431.486 233.911 430.972 233.911C430.582 233.911 430.219 233.986 429.886 234.135C429.557 234.284 429.267 234.49 429.017 234.754C428.767 235.017 428.569 235.32 428.424 235.662C428.284 236 428.214 236.358 428.214 236.736C428.214 237.24 428.33 237.708 428.562 238.138C428.8 238.568 429.122 238.915 429.53 239.178C429.943 239.437 430.408 239.567 430.926 239.567Z" fill="#9F9F9F"/>
<path d="M486.927 227.61V241.094H484.885V229.651H484.806L481.58 231.758V229.809L484.945 227.61H486.927ZM495.282 241.279C494.68 241.27 494.088 241.16 493.504 240.949C492.925 240.739 492.398 240.388 491.924 239.896C491.45 239.404 491.07 238.744 490.785 237.914C490.504 237.085 490.363 236.049 490.363 234.806C490.363 233.63 490.48 232.585 490.712 231.672C490.949 230.759 491.29 229.989 491.733 229.361C492.176 228.729 492.712 228.249 493.339 227.92C493.967 227.59 494.672 227.426 495.453 227.426C496.256 227.426 496.969 227.584 497.593 227.9C498.216 228.216 498.721 228.653 499.107 229.21C499.498 229.767 499.746 230.402 499.851 231.113H497.843C497.707 230.551 497.437 230.092 497.033 229.737C496.629 229.381 496.102 229.203 495.453 229.203C494.465 229.203 493.695 229.634 493.142 230.494C492.593 231.354 492.317 232.55 492.312 234.082H492.411C492.644 233.7 492.929 233.376 493.267 233.108C493.609 232.836 493.991 232.627 494.413 232.482C494.838 232.333 495.286 232.258 495.756 232.258C496.537 232.258 497.244 232.449 497.876 232.831C498.512 233.209 499.019 233.731 499.397 234.398C499.774 235.065 499.963 235.829 499.963 236.69C499.963 237.55 499.768 238.329 499.377 239.027C498.991 239.725 498.446 240.278 497.744 240.686C497.042 241.09 496.221 241.287 495.282 241.279ZM495.275 239.567C495.793 239.567 496.256 239.439 496.664 239.185C497.073 238.93 497.395 238.588 497.632 238.158C497.869 237.728 497.988 237.247 497.988 236.716C497.988 236.198 497.871 235.726 497.639 235.3C497.411 234.875 497.094 234.537 496.691 234.286C496.291 234.036 495.835 233.911 495.321 233.911C494.931 233.911 494.568 233.986 494.235 234.135C493.906 234.284 493.616 234.49 493.366 234.754C493.116 235.017 492.918 235.32 492.773 235.662C492.633 236 492.562 236.358 492.562 236.736C492.562 237.24 492.679 237.708 492.911 238.138C493.148 238.568 493.471 238.915 493.879 239.178C494.292 239.437 494.757 239.567 495.275 239.567ZM503.069 241.219C502.709 241.219 502.4 241.092 502.141 240.837C501.882 240.578 501.752 240.267 501.752 239.903C501.752 239.543 501.882 239.235 502.141 238.981C502.4 238.722 502.709 238.592 503.069 238.592C503.429 238.592 503.738 238.722 503.997 238.981C504.256 239.235 504.386 239.543 504.386 239.903C504.386 240.144 504.324 240.366 504.201 240.568C504.083 240.765 503.925 240.923 503.727 241.042C503.53 241.16 503.31 241.219 503.069 241.219ZM511.202 241.318C510.162 241.314 509.273 241.039 508.535 240.495C507.798 239.951 507.234 239.159 506.843 238.118C506.453 237.078 506.257 235.825 506.257 234.359C506.257 232.897 506.453 231.648 506.843 230.612C507.238 229.577 507.805 228.786 508.542 228.242C509.284 227.698 510.17 227.426 511.202 227.426C512.233 227.426 513.118 227.7 513.855 228.249C514.593 228.793 515.157 229.583 515.547 230.619C515.942 231.651 516.14 232.897 516.14 234.359C516.14 235.829 515.945 237.085 515.554 238.125C515.163 239.161 514.599 239.953 513.862 240.502C513.124 241.046 512.238 241.318 511.202 241.318ZM511.202 239.56C512.115 239.56 512.828 239.115 513.342 238.224C513.86 237.333 514.119 236.044 514.119 234.359C514.119 233.239 514 232.294 513.763 231.521C513.53 230.744 513.195 230.156 512.756 229.757C512.321 229.353 511.803 229.151 511.202 229.151C510.293 229.151 509.58 229.598 509.062 230.494C508.544 231.389 508.283 232.678 508.279 234.359C508.279 235.482 508.395 236.433 508.628 237.21C508.865 237.982 509.2 238.568 509.635 238.968C510.069 239.363 510.592 239.56 511.202 239.56ZM523.183 241.279C522.582 241.27 521.989 241.16 521.406 240.949C520.826 240.739 520.299 240.388 519.825 239.896C519.351 239.404 518.972 238.744 518.686 237.914C518.405 237.085 518.265 236.049 518.265 234.806C518.265 233.63 518.381 232.585 518.614 231.672C518.851 230.759 519.191 229.989 519.634 229.361C520.078 228.729 520.613 228.249 521.241 227.92C521.869 227.59 522.573 227.426 523.354 227.426C524.158 227.426 524.871 227.584 525.494 227.9C526.117 228.216 526.622 228.653 527.009 229.21C527.399 229.767 527.647 230.402 527.753 231.113H525.744C525.608 230.551 525.338 230.092 524.935 229.737C524.531 229.381 524.004 229.203 523.354 229.203C522.367 229.203 521.596 229.634 521.043 230.494C520.495 231.354 520.218 232.55 520.214 234.082H520.313C520.545 233.7 520.831 233.376 521.168 233.108C521.511 232.836 521.893 232.627 522.314 232.482C522.74 232.333 523.188 232.258 523.657 232.258C524.439 232.258 525.145 232.449 525.777 232.831C526.414 233.209 526.921 233.731 527.298 234.398C527.676 235.065 527.864 235.829 527.864 236.69C527.864 237.55 527.669 238.329 527.278 239.027C526.892 239.725 526.348 240.278 525.646 240.686C524.943 241.09 524.123 241.287 523.183 241.279ZM523.177 239.567C523.695 239.567 524.158 239.439 524.566 239.185C524.974 238.93 525.297 238.588 525.534 238.158C525.771 237.728 525.889 237.247 525.889 236.716C525.889 236.198 525.773 235.726 525.54 235.3C525.312 234.875 524.996 234.537 524.592 234.286C524.193 234.036 523.736 233.911 523.223 233.911C522.832 233.911 522.47 233.986 522.136 234.135C521.807 234.284 521.517 234.49 521.267 234.754C521.017 235.017 520.82 235.32 520.675 235.662C520.534 236 520.464 236.358 520.464 236.736C520.464 237.24 520.58 237.708 520.813 238.138C521.05 238.568 521.373 238.915 521.781 239.178C522.193 239.437 522.659 239.567 523.177 239.567Z" fill="#9F9F9F"/>
<path d="M583.63 227.61V241.094H581.589V229.651H581.51L578.284 231.758V229.809L581.648 227.61H583.63ZM591.834 241.279C590.89 241.279 590.056 241.116 589.332 240.791C588.612 240.467 588.048 240.019 587.64 239.448C587.232 238.878 587.03 238.228 587.034 237.499C587.03 236.929 587.146 236.404 587.383 235.926C587.624 235.443 587.951 235.041 588.364 234.721C588.777 234.396 589.237 234.19 589.747 234.102V234.023C589.075 233.861 588.537 233.501 588.134 232.943C587.73 232.386 587.53 231.745 587.534 231.021C587.53 230.332 587.712 229.717 588.081 229.177C588.454 228.633 588.965 228.205 589.615 227.893C590.265 227.582 591.004 227.426 591.834 227.426C592.655 227.426 593.388 227.584 594.033 227.9C594.682 228.211 595.194 228.639 595.567 229.184C595.94 229.724 596.129 230.336 596.133 231.021C596.129 231.745 595.922 232.386 595.514 232.943C595.106 233.501 594.575 233.861 593.921 234.023V234.102C594.426 234.19 594.88 234.396 595.284 234.721C595.692 235.041 596.017 235.443 596.258 235.926C596.504 236.404 596.629 236.929 596.634 237.499C596.629 238.228 596.423 238.878 596.015 239.448C595.606 240.019 595.04 240.467 594.316 240.791C593.596 241.116 592.769 241.279 591.834 241.279ZM591.834 239.613C592.391 239.613 592.874 239.521 593.282 239.336C593.69 239.148 594.007 238.886 594.23 238.553C594.454 238.215 594.568 237.82 594.573 237.368C594.568 236.898 594.445 236.483 594.204 236.123C593.967 235.763 593.644 235.48 593.236 235.274C592.828 235.068 592.361 234.964 591.834 234.964C591.303 234.964 590.831 235.068 590.418 235.274C590.006 235.48 589.681 235.763 589.444 236.123C589.207 236.483 589.09 236.898 589.095 237.368C589.09 237.82 589.198 238.215 589.417 238.553C589.641 238.886 589.96 239.148 590.372 239.336C590.785 239.521 591.272 239.613 591.834 239.613ZM591.834 233.338C592.282 233.338 592.679 233.248 593.026 233.068C593.372 232.888 593.644 232.638 593.842 232.318C594.044 231.997 594.147 231.622 594.151 231.192C594.147 230.77 594.046 230.402 593.849 230.086C593.655 229.77 593.385 229.526 593.039 229.355C592.692 229.179 592.29 229.092 591.834 229.092C591.369 229.092 590.96 229.179 590.609 229.355C590.262 229.526 589.992 229.77 589.799 230.086C589.606 230.402 589.512 230.77 589.516 231.192C589.512 231.622 589.608 231.997 589.806 232.318C590.003 232.638 590.276 232.888 590.622 233.068C590.973 233.248 591.377 233.338 591.834 233.338ZM599.917 241.219C599.557 241.219 599.248 241.092 598.989 240.837C598.73 240.578 598.601 240.267 598.601 239.903C598.601 239.543 598.73 239.235 598.989 238.981C599.248 238.722 599.557 238.592 599.917 238.592C600.277 238.592 600.587 238.722 600.846 238.981C601.105 239.235 601.234 239.543 601.234 239.903C601.234 240.144 601.173 240.366 601.05 240.568C600.931 240.765 600.773 240.923 600.576 241.042C600.378 241.16 600.159 241.219 599.917 241.219ZM608.05 241.318C607.01 241.314 606.121 241.039 605.384 240.495C604.646 239.951 604.082 239.159 603.692 238.118C603.301 237.078 603.106 235.825 603.106 234.359C603.106 232.897 603.301 231.648 603.692 230.612C604.087 229.577 604.653 228.786 605.39 228.242C606.132 227.698 607.019 227.426 608.05 227.426C609.082 227.426 609.966 227.7 610.704 228.249C611.441 228.793 612.005 229.583 612.396 230.619C612.791 231.651 612.988 232.897 612.988 234.359C612.988 235.829 612.793 237.085 612.402 238.125C612.012 239.161 611.448 239.953 610.71 240.502C609.973 241.046 609.086 241.318 608.05 241.318ZM608.05 239.56C608.963 239.56 609.677 239.115 610.19 238.224C610.708 237.333 610.967 236.044 610.967 234.359C610.967 233.239 610.849 232.294 610.611 231.521C610.379 230.744 610.043 230.156 609.604 229.757C609.17 229.353 608.652 229.151 608.05 229.151C607.142 229.151 606.428 229.598 605.91 230.494C605.393 231.389 605.131 232.678 605.127 234.359C605.127 235.482 605.243 236.433 605.476 237.21C605.713 237.982 606.049 238.568 606.483 238.968C606.918 239.363 607.44 239.56 608.05 239.56ZM620.032 241.279C619.43 241.27 618.838 241.16 618.254 240.949C617.675 240.739 617.148 240.388 616.674 239.896C616.2 239.404 615.82 238.744 615.535 237.914C615.254 237.085 615.113 236.049 615.113 234.806C615.113 233.63 615.23 232.585 615.462 231.672C615.699 230.759 616.039 229.989 616.483 229.361C616.926 228.729 617.462 228.249 618.089 227.92C618.717 227.59 619.421 227.426 620.203 227.426C621.006 227.426 621.719 227.584 622.343 227.9C622.966 228.216 623.471 228.653 623.857 229.21C624.248 229.767 624.496 230.402 624.601 231.113H622.593C622.457 230.551 622.187 230.092 621.783 229.737C621.379 229.381 620.852 229.203 620.203 229.203C619.215 229.203 618.445 229.634 617.892 230.494C617.343 231.354 617.067 232.55 617.062 234.082H617.161C617.394 233.7 617.679 233.376 618.017 233.108C618.359 232.836 618.741 232.627 619.163 232.482C619.588 232.333 620.036 232.258 620.506 232.258C621.287 232.258 621.994 232.449 622.626 232.831C623.262 233.209 623.769 233.731 624.147 234.398C624.524 235.065 624.713 235.829 624.713 236.69C624.713 237.55 624.518 238.329 624.127 239.027C623.741 239.725 623.196 240.278 622.494 240.686C621.792 241.09 620.971 241.287 620.032 241.279ZM620.025 239.567C620.543 239.567 621.006 239.439 621.414 239.185C621.822 238.93 622.145 238.588 622.382 238.158C622.619 237.728 622.738 237.247 622.738 236.716C622.738 236.198 622.621 235.726 622.389 235.3C622.16 234.875 621.844 234.537 621.441 234.286C621.041 234.036 620.585 233.911 620.071 233.911C619.68 233.911 619.318 233.986 618.985 234.135C618.656 234.284 618.366 234.49 618.116 234.754C617.865 235.017 617.668 235.32 617.523 235.662C617.383 236 617.312 236.358 617.312 236.736C617.312 237.24 617.429 237.708 617.661 238.138C617.898 238.568 618.221 238.915 618.629 239.178C619.042 239.437 619.507 239.567 620.025 239.567Z" fill="#9F9F9F"/>
<defs>
<clipPath id="clip0_49_4936">
<rect width="418.378" height="151.662" fill="white" transform="translate(305.068 64.5)"/>
</clipPath>
<clipPath id="clip1_49_4936">
<rect width="585.576" height="177.681" fill="white" transform="translate(305.924 46.9995)"/>
</clipPath>
<clipPath id="clip2_49_4936">
<rect width="591.756" height="118.969" fill="white" transform="translate(20.0898 61.4595)"/>
</clipPath>
<clipPath id="clip3_49_4936">
<path d="M491.33 149.526C491.33 143.553 496.172 138.71 502.145 138.71H508.326C514.299 138.71 519.141 143.553 519.141 149.526V215.963H491.33V149.526Z" fill="white"/>
</clipPath>
<clipPath id="clip4_49_4936">
<path d="M537.684 129.441C537.684 123.468 542.526 118.626 548.499 118.626H554.679C560.652 118.626 565.495 123.468 565.495 129.441V215.964H537.684V129.441Z" fill="white"/>
</clipPath>
<clipPath id="clip5_49_4936">
<path d="M584.031 141.802C584.031 135.829 588.873 130.987 594.847 130.987H601.027C607 130.987 611.842 135.829 611.842 141.802V215.965H584.031V141.802Z" fill="white"/>
</clipPath>
</defs>
</svg>
