<svg width="654" height="259" viewBox="0 0 654 259" fill="none" xmlns="http://www.w3.org/2000/svg">
<rect y="0.35083" width="653.6" height="258" rx="22.36" fill="white"/>
<path fill-rule="evenodd" clip-rule="evenodd" d="M78.4998 55.5459C78.4998 42.6752 68.066 32.2413 55.1952 32.2413C42.3244 32.2413 31.8906 42.6752 31.8906 55.5459C31.8906 68.4167 42.3244 78.8505 55.1952 78.8505C68.066 78.8505 78.4998 68.4167 78.4998 55.5459ZM58.3025 67.5747V52.4267H52.0879V67.5747H58.3025ZM55.1952 43.5172C56.9113 43.5172 58.3025 44.9084 58.3025 46.6245C58.3025 48.3406 56.9113 49.7317 55.1952 49.7317C53.4791 49.7317 52.0879 48.3406 52.0879 46.6245C52.0879 44.9084 53.4791 43.5172 55.1952 43.5172Z" fill="#24B5F4"/>
<path d="M104.958 67.046V44.8721H113.706C115.388 44.8721 116.821 45.1933 118.005 45.8357C119.188 46.4709 120.091 47.3551 120.711 48.4883C121.339 49.6144 121.653 50.9136 121.653 52.3861C121.653 53.8586 121.336 55.1578 120.701 56.2838C120.065 57.4099 119.145 58.2869 117.94 58.9148C116.741 59.5428 115.291 59.8568 113.587 59.8568H108.011V56.0998H112.829C113.732 56.0998 114.475 55.9446 115.06 55.6342C115.652 55.3166 116.092 54.8799 116.381 54.3241C116.677 53.7611 116.824 53.1151 116.824 52.3861C116.824 51.6498 116.677 51.0074 116.381 50.4589C116.092 49.9031 115.652 49.4736 115.06 49.1704C114.468 48.8601 113.717 48.7049 112.808 48.7049H109.646V67.046H104.958ZM128.908 67.36C127.846 67.36 126.901 67.1759 126.071 66.8078C125.241 66.4324 124.584 65.8803 124.1 65.1512C123.624 64.415 123.386 63.4983 123.386 62.4012C123.386 61.4772 123.555 60.7013 123.895 60.0733C124.234 59.4454 124.696 58.9401 125.28 58.5575C125.865 58.175 126.529 57.8863 127.273 57.6914C128.023 57.4965 128.81 57.3593 129.633 57.2799C130.6 57.1789 131.38 57.085 131.972 56.9984C132.563 56.9046 132.993 56.7675 133.26 56.587C133.527 56.4065 133.661 56.1395 133.661 55.7858V55.7208C133.661 55.0351 133.444 54.5046 133.011 54.1293C132.585 53.7539 131.979 53.5662 131.192 53.5662C130.362 53.5662 129.702 53.7503 129.211 54.1184C128.72 54.4793 128.395 54.9341 128.236 55.4826L123.97 55.1362C124.187 54.1256 124.613 53.2523 125.248 52.516C125.883 51.7726 126.702 51.2023 127.706 50.8053C128.716 50.4011 129.886 50.199 131.214 50.199C132.138 50.199 133.022 50.3073 133.866 50.5238C134.718 50.7404 135.472 51.076 136.129 51.5307C136.793 51.9855 137.317 52.5701 137.699 53.2847C138.082 53.9921 138.273 54.8402 138.273 55.8291V67.046H133.899V64.7398H133.769C133.502 65.2595 133.145 65.7179 132.697 66.1148C132.249 66.5046 131.712 66.8114 131.084 67.0351C130.456 67.2517 129.73 67.36 128.908 67.36ZM130.228 64.1768C130.907 64.1768 131.506 64.0433 132.026 63.7762C132.545 63.5019 132.953 63.1338 133.249 62.6718C133.545 62.2099 133.693 61.6866 133.693 61.1019V59.3371C133.549 59.4309 133.35 59.5175 133.098 59.5969C132.852 59.6691 132.574 59.7377 132.264 59.8026C131.954 59.8604 131.643 59.9145 131.333 59.9651C131.022 60.0084 130.741 60.0481 130.488 60.0842C129.947 60.1636 129.474 60.2899 129.07 60.4631C128.666 60.6363 128.352 60.8709 128.128 61.1669C127.904 61.4556 127.792 61.8165 127.792 62.2496C127.792 62.8775 128.02 63.3575 128.474 63.6896C128.936 64.0144 129.521 64.1768 130.228 64.1768ZM140.996 62.3362H145.468C145.489 62.8848 145.735 63.3178 146.204 63.6354C146.673 63.953 147.279 64.1118 148.023 64.1118C148.773 64.1118 149.405 63.9386 149.917 63.5921C150.43 63.2384 150.686 62.7332 150.686 62.0763C150.686 61.6721 150.585 61.3221 150.383 61.0261C150.181 60.723 149.899 60.4848 149.539 60.3115C149.178 60.1383 148.759 60.0517 148.283 60.0517H145.89V57.0309H148.283C148.997 57.0309 149.546 56.8649 149.928 56.5329C150.318 56.2008 150.513 55.7858 150.513 55.2878C150.513 54.7247 150.311 54.2736 149.907 53.9344C149.51 53.5879 148.972 53.4147 148.293 53.4147C147.608 53.4147 147.037 53.5699 146.583 53.8802C146.135 54.1834 145.904 54.5804 145.89 55.0712H141.44C141.454 54.0751 141.754 53.2126 142.339 52.4835C142.93 51.7545 143.724 51.1915 144.72 50.7945C145.724 50.3975 146.846 50.199 148.088 50.199C149.445 50.199 150.614 50.3903 151.596 50.7729C152.585 51.1482 153.342 51.6859 153.869 52.3861C154.404 53.0862 154.671 53.9199 154.671 54.8871C154.671 55.7678 154.382 56.504 153.804 57.0959C153.227 57.6878 152.419 58.11 151.379 58.3626V58.5359C152.065 58.5792 152.686 58.7632 153.241 59.0881C153.797 59.4129 154.241 59.8604 154.573 60.4306C154.905 60.9936 155.071 61.6613 155.071 62.4336C155.071 63.4658 154.768 64.35 154.162 65.0863C153.563 65.8225 152.733 66.3891 151.671 66.7861C150.618 67.1759 149.409 67.3708 148.044 67.3708C146.716 67.3708 145.525 67.1795 144.471 66.797C143.425 66.4072 142.591 65.8369 141.97 65.0863C141.357 64.3356 141.032 63.4189 140.996 62.3362ZM157.9 73.2824V50.4156H162.447V53.2089H162.653C162.855 52.7614 163.147 52.3067 163.53 51.8447C163.92 51.3756 164.425 50.9858 165.046 50.6754C165.674 50.3578 166.453 50.199 167.384 50.199C168.597 50.199 169.716 50.5166 170.741 51.1518C171.766 51.7798 172.585 52.7289 173.198 53.9993C173.812 55.2625 174.119 56.8469 174.119 58.7524C174.119 60.6075 173.819 62.1738 173.22 63.4514C172.628 64.7218 171.82 65.6854 170.795 66.3422C169.777 66.9918 168.637 67.3167 167.373 67.3167C166.478 67.3167 165.717 67.1687 165.089 66.8727C164.468 66.5768 163.959 66.2051 163.562 65.7576C163.165 65.3028 162.862 64.8445 162.653 64.3825H162.512V73.2824H157.9ZM162.415 58.7308C162.415 59.7196 162.552 60.5822 162.826 61.3184C163.1 62.0547 163.497 62.6285 164.017 63.0399C164.537 63.4442 165.168 63.6463 165.912 63.6463C166.662 63.6463 167.298 63.4406 167.817 63.0291C168.337 62.6105 168.73 62.033 168.998 61.2968C169.272 60.5533 169.409 59.698 169.409 58.7308C169.409 57.7708 169.275 56.9263 169.008 56.1972C168.741 55.4682 168.348 54.898 167.828 54.4865C167.309 54.0751 166.67 53.8694 165.912 53.8694C165.161 53.8694 164.526 54.0679 164.006 54.4649C163.494 54.8619 163.1 55.4249 162.826 56.1539C162.552 56.8829 162.415 57.7419 162.415 58.7308ZM184.773 67.3708C183.062 67.3708 181.589 67.0243 180.355 66.3314C179.128 65.6312 178.183 64.6424 177.518 63.3648C176.854 62.0799 176.522 60.5605 176.522 58.8066C176.522 57.0959 176.854 55.5945 177.518 54.3025C178.183 53.0105 179.117 52.0035 180.323 51.2817C181.535 50.5599 182.957 50.199 184.589 50.199C185.686 50.199 186.707 50.3759 187.653 50.7295C188.605 51.076 189.435 51.5993 190.143 52.2995C190.857 52.9996 191.413 53.8802 191.81 54.9413C192.207 55.9951 192.406 57.2294 192.406 58.6441V59.9109H178.363V57.0526H188.064C188.064 56.3885 187.92 55.8002 187.631 55.2878C187.342 54.7753 186.942 54.3747 186.429 54.0859C185.924 53.79 185.336 53.642 184.664 53.642C183.964 53.642 183.343 53.8044 182.802 54.1293C182.268 54.4468 181.849 54.8763 181.546 55.4177C181.243 55.9518 181.088 56.5473 181.081 57.2041V59.9217C181.081 60.7446 181.232 61.4556 181.535 62.0547C181.846 62.6538 182.282 63.1157 182.845 63.4406C183.408 63.7654 184.076 63.9278 184.848 63.9278C185.361 63.9278 185.83 63.8556 186.256 63.7112C186.682 63.5669 187.046 63.3503 187.349 63.0616C187.653 62.7729 187.884 62.4192 188.042 62.0005L192.308 62.2821C192.092 63.307 191.648 64.2021 190.977 64.9672C190.312 65.7251 189.454 66.317 188.4 66.7428C187.353 67.1615 186.144 67.3708 184.773 67.3708ZM195.416 50.4156H199.822V63.3864H204.51V50.4156H208.917V63.3864H213.605V50.4156H218.012V67.046H195.416V50.4156ZM225.994 60.9611L231.981 50.4156H236.529V67.046H232.133V56.4679L226.167 67.046H221.587V50.4156H225.994V60.9611ZM238.556 54.0426V50.4156H253.628V54.0426H248.268V67.046H243.872V54.0426H238.556ZM263.407 67.3708C261.696 67.3708 260.224 67.0243 258.99 66.3314C257.763 65.6312 256.817 64.6424 256.153 63.3648C255.489 62.0799 255.157 60.5605 255.157 58.8066C255.157 57.0959 255.489 55.5945 256.153 54.3025C256.817 53.0105 257.752 52.0035 258.957 51.2817C260.17 50.5599 261.592 50.199 263.223 50.199C264.32 50.199 265.342 50.3759 266.287 50.7295C267.24 51.076 268.07 51.5993 268.777 52.2995C269.492 52.9996 270.048 53.8802 270.445 54.9413C270.842 55.9951 271.04 57.2294 271.04 58.6441V59.9109H256.997V57.0526H266.699C266.699 56.3885 266.554 55.8002 266.265 55.2878C265.977 54.7753 265.576 54.3747 265.064 54.0859C264.558 53.79 263.97 53.642 263.299 53.642C262.599 53.642 261.978 53.8044 261.437 54.1293C260.902 54.4468 260.484 54.8763 260.181 55.4177C259.877 55.9518 259.722 56.5473 259.715 57.2041V59.9217C259.715 60.7446 259.867 61.4556 260.17 62.0547C260.48 62.6538 260.917 63.1157 261.48 63.4406C262.043 63.7654 262.711 63.9278 263.483 63.9278C263.995 63.9278 264.465 63.8556 264.89 63.7112C265.316 63.5669 265.681 63.3503 265.984 63.0616C266.287 62.7729 266.518 62.4192 266.677 62.0005L270.943 62.2821C270.726 63.307 270.282 64.2021 269.611 64.9672C268.947 65.7251 268.088 66.317 267.034 66.7428C265.988 67.1615 264.779 67.3708 263.407 67.3708ZM279.807 71.9182V63.3864H281.085C281.453 63.1554 281.749 62.7873 281.973 62.2821C282.204 61.7768 282.392 61.1813 282.536 60.4956C282.687 59.8099 282.803 59.07 282.882 58.276C282.969 57.4748 283.045 56.6664 283.11 55.8508L283.543 50.4156H296.297V63.3864H298.874V71.9182H294.478V67.046H284.312V71.9182H279.807ZM285.676 63.3864H291.945V53.9668H287.462L287.289 55.8508C287.166 57.6264 286.989 59.135 286.758 60.3765C286.527 61.6108 286.167 62.6141 285.676 63.3864ZM309.076 67.3708C307.394 67.3708 305.94 67.0135 304.712 66.2989C303.493 65.5771 302.551 64.5738 301.887 63.289C301.223 61.9969 300.89 60.4992 300.89 58.7957C300.89 57.0778 301.223 55.5765 301.887 54.2917C302.551 52.9996 303.493 51.9963 304.712 51.2817C305.94 50.5599 307.394 50.199 309.076 50.199C310.758 50.199 312.208 50.5599 313.428 51.2817C314.655 51.9963 315.601 52.9996 316.265 54.2917C316.929 55.5765 317.261 57.0778 317.261 58.7957C317.261 60.4992 316.929 61.9969 316.265 63.289C315.601 64.5738 314.655 65.5771 313.428 66.2989C312.208 67.0135 310.758 67.3708 309.076 67.3708ZM309.097 63.7978C309.863 63.7978 310.501 63.5813 311.014 63.1482C311.526 62.7079 311.912 62.1088 312.172 61.3509C312.439 60.593 312.573 59.7305 312.573 58.7632C312.573 57.796 312.439 56.9335 312.172 56.1756C311.912 55.4177 311.526 54.8186 311.014 54.3783C310.501 53.938 309.863 53.7178 309.097 53.7178C308.325 53.7178 307.675 53.938 307.149 54.3783C306.629 54.8186 306.235 55.4177 305.968 56.1756C305.709 56.9335 305.579 57.796 305.579 58.7632C305.579 59.7305 305.709 60.593 305.968 61.3509C306.235 62.1088 306.629 62.7079 307.149 63.1482C307.675 63.5813 308.325 63.7978 309.097 63.7978ZM327.774 67.3708C326.071 67.3708 324.605 67.0099 323.378 66.2881C322.159 65.5591 321.22 64.5485 320.563 63.2565C319.914 61.9645 319.589 60.4775 319.589 58.7957C319.589 57.0923 319.917 55.5981 320.574 54.3133C321.238 53.0213 322.18 52.0144 323.4 51.2926C324.62 50.5635 326.071 50.199 327.753 50.199C329.203 50.199 330.474 50.4625 331.564 50.9894C332.654 51.5163 333.516 52.2562 334.151 53.2089C334.787 54.1617 335.137 55.2805 335.202 56.5653H330.849C330.726 55.7353 330.402 55.0676 329.875 54.5623C329.355 54.0499 328.673 53.7936 327.828 53.7936C327.114 53.7936 326.489 53.9885 325.955 54.3783C325.428 54.7608 325.017 55.3202 324.721 56.0565C324.425 56.7927 324.277 57.6841 324.277 58.7308C324.277 59.7918 324.421 60.6941 324.71 61.4375C325.006 62.181 325.421 62.7476 325.955 63.1374C326.489 63.5272 327.114 63.7221 327.828 63.7221C328.355 63.7221 328.828 63.6138 329.247 63.3972C329.673 63.1807 330.023 62.8667 330.297 62.4553C330.578 62.0366 330.762 61.535 330.849 60.9503H335.202C335.129 62.2207 334.783 63.3395 334.162 64.3067C333.549 65.2667 332.7 66.0174 331.618 66.5588C330.535 67.1001 329.254 67.3708 327.774 67.3708ZM337.021 54.0426V50.4156H352.092V54.0426H346.732V67.046H342.337V54.0426H337.021ZM357.735 73.2824C357.151 73.2824 356.602 73.2355 356.09 73.1416C355.584 73.055 355.166 72.9431 354.834 72.806L355.873 69.363C356.415 69.529 356.902 69.6192 357.335 69.6337C357.775 69.6481 358.154 69.547 358.472 69.3305C358.797 69.1139 359.06 68.7458 359.262 68.2261L359.533 67.5224L353.567 50.4156H358.418L361.861 62.6285H362.034L365.509 50.4156H370.392L363.929 68.8433C363.618 69.7383 363.196 70.5179 362.662 71.1819C362.135 71.8532 361.467 72.3693 360.659 72.7302C359.85 73.0983 358.876 73.2824 357.735 73.2824ZM372.753 67.046V50.4156H387.293V67.046H382.887V54.0426H377.105V67.046H372.753ZM398.031 67.046V50.4156H402.644V56.8685H403.943L408.469 50.4156H413.882L408.003 58.6658L413.947 67.046H408.469L404.365 61.1452H402.644V67.046H398.031ZM440.059 67.046H435.382V48.7049H432.22C431.318 48.7049 430.568 48.8384 429.968 49.1055C429.377 49.3653 428.933 49.7479 428.637 50.2532C428.341 50.7584 428.193 51.3792 428.193 52.1154C428.193 52.8444 428.341 53.4544 428.637 53.9452C428.933 54.436 429.377 54.8041 429.968 55.0496C430.56 55.295 431.304 55.4177 432.199 55.4177H437.288V59.1855H431.441C429.745 59.1855 428.294 58.904 427.088 58.341C425.883 57.778 424.963 56.9696 424.327 55.9157C423.692 54.8547 423.375 53.5879 423.375 52.1154C423.375 50.6501 423.685 49.3762 424.306 48.2934C424.934 47.2035 425.84 46.3626 427.023 45.7707C428.214 45.1716 429.647 44.8721 431.322 44.8721H440.059V67.046ZM428.095 56.9551H433.152L427.76 67.046H422.584L428.095 56.9551ZM446.52 67.3275C445.806 67.3275 445.192 67.0748 444.68 66.5696C444.174 66.0571 443.922 65.4436 443.922 64.729C443.922 64.0216 444.174 63.4153 444.68 62.91C445.192 62.4048 445.806 62.1521 446.52 62.1521C447.213 62.1521 447.82 62.4048 448.339 62.91C448.859 63.4153 449.119 64.0216 449.119 64.729C449.119 65.2054 448.996 65.6421 448.751 66.0391C448.513 66.4288 448.199 66.7428 447.809 66.981C447.419 67.212 446.989 67.3275 446.52 67.3275ZM451.79 72.3946V63.3106H453.295C453.808 62.9425 454.277 62.4228 454.703 61.7515C455.129 61.073 455.493 60.1383 455.796 58.9473C456.1 57.7491 456.316 56.1828 456.446 54.2483L457.074 44.8721H471.745V63.3106H474.17V72.3729H469.666V67.046H456.294V72.3946H451.79ZM458.709 63.3106H467.241V48.7374H461.297L460.95 54.2483C460.856 55.7136 460.701 57.0129 460.485 58.1461C460.275 59.2793 460.019 60.2718 459.716 61.1236C459.42 61.9681 459.084 62.6971 458.709 63.3106ZM481.34 60.9611L487.328 50.4156H491.875V67.046H487.479V56.4679L481.513 67.046H476.934V50.4156H481.34V60.9611ZM495.572 73.2824V50.4156H500.12V53.2089H500.326C500.528 52.7614 500.82 52.3067 501.203 51.8447C501.592 51.3756 502.098 50.9858 502.718 50.6754C503.346 50.3578 504.126 50.199 505.057 50.199C506.27 50.199 507.388 50.5166 508.413 51.1518C509.438 51.7798 510.258 52.7289 510.871 53.9993C511.485 55.2625 511.791 56.8469 511.791 58.7524C511.791 60.6075 511.492 62.1738 510.893 63.4514C510.301 64.7218 509.493 65.6854 508.468 66.3422C507.45 66.9918 506.309 67.3167 505.046 67.3167C504.151 67.3167 503.39 67.1687 502.762 66.8727C502.141 66.5768 501.632 66.2051 501.235 65.7576C500.838 65.3028 500.535 64.8445 500.326 64.3825H500.185V73.2824H495.572ZM500.087 58.7308C500.087 59.7196 500.225 60.5822 500.499 61.3184C500.773 62.0547 501.17 62.6285 501.69 63.0399C502.209 63.4442 502.841 63.6463 503.585 63.6463C504.335 63.6463 504.97 63.4406 505.49 63.0291C506.01 62.6105 506.403 62.033 506.67 61.2968C506.945 60.5533 507.082 59.698 507.082 58.7308C507.082 57.7708 506.948 56.9263 506.681 56.1972C506.414 55.4682 506.021 54.898 505.501 54.4865C504.981 54.0751 504.342 53.8694 503.585 53.8694C502.834 53.8694 502.199 54.0679 501.679 54.4649C501.166 54.8619 500.773 55.4249 500.499 56.1539C500.225 56.8829 500.087 57.7419 500.087 58.7308ZM522.445 67.3708C520.735 67.3708 519.262 67.0243 518.028 66.3314C516.801 65.6312 515.855 64.6424 515.191 63.3648C514.527 62.0799 514.195 60.5605 514.195 58.8066C514.195 57.0959 514.527 55.5945 515.191 54.3025C515.855 53.0105 516.79 52.0035 517.995 51.2817C519.208 50.5599 520.63 50.199 522.261 50.199C523.358 50.199 524.38 50.3759 525.325 50.7295C526.278 51.076 527.108 51.5993 527.816 52.2995C528.53 52.9996 529.086 53.8802 529.483 54.9413C529.88 55.9951 530.078 57.2294 530.078 58.6441V59.9109H516.036V57.0526H525.737C525.737 56.3885 525.592 55.8002 525.304 55.2878C525.015 54.7753 524.614 54.3747 524.102 54.0859C523.597 53.79 523.008 53.642 522.337 53.642C521.637 53.642 521.016 53.8044 520.475 54.1293C519.941 54.4468 519.522 54.8763 519.219 55.4177C518.916 55.9518 518.761 56.5473 518.753 57.2041V59.9217C518.753 60.7446 518.905 61.4556 519.208 62.0547C519.518 62.6538 519.955 63.1157 520.518 63.4406C521.081 63.7654 521.749 63.9278 522.521 63.9278C523.034 63.9278 523.503 63.8556 523.929 63.7112C524.355 63.5669 524.719 63.3503 525.022 63.0616C525.325 62.7729 525.556 62.4192 525.715 62.0005L529.981 62.2821C529.764 63.307 529.321 64.2021 528.649 64.9672C527.985 65.7251 527.126 66.317 526.072 66.7428C525.026 67.1615 523.817 67.3708 522.445 67.3708ZM533.088 67.046V50.4156H537.701V56.8685H539L543.526 50.4156H548.939L543.06 58.6658L549.004 67.046H543.526L539.422 61.1452H537.701V67.046H533.088ZM550.087 54.0426V50.4156H565.158V54.0426H559.799V67.046H555.403V54.0426H550.087Z" fill="#070707"/>
<path d="M42.9081 120.292V121.608H33.6682V120.292H42.9081ZM33.9281 120.292V124.61H32.3266L32.3182 120.292H33.9281ZM44.3167 120.292L44.2999 124.602H42.6985V120.292H44.3167ZM41.3234 109.4V110.725H35.974V109.4H41.3234ZM42.7152 109.4V121.608H41.1054V109.4H42.7152ZM35.4206 109.4H37.0388L36.7873 114.314C36.7537 115.051 36.6839 115.733 36.5777 116.359C36.4714 116.98 36.3401 117.547 36.1836 118.061C36.0271 118.576 35.8482 119.037 35.647 119.445C35.4457 119.847 35.2305 120.197 35.0013 120.493C34.7722 120.784 34.5318 121.024 34.2803 121.214C34.0343 121.399 33.7856 121.53 33.534 121.608H32.7962V120.292H33.316C33.4614 120.135 33.6263 119.909 33.8107 119.613C34.0008 119.316 34.188 118.933 34.3725 118.464C34.5625 117.989 34.7274 117.41 34.8672 116.728C35.0125 116.046 35.1103 115.241 35.1606 114.314L35.4206 109.4ZM52.1815 112.536V113.819H47.7963V112.536H52.1815ZM53.5482 112.536V121.608H51.9971V112.536H53.5482ZM47.419 112.536H48.9786L48.7438 116.913C48.7047 117.589 48.6404 118.187 48.551 118.707C48.4671 119.221 48.3497 119.663 48.1988 120.032C48.0535 120.401 47.869 120.703 47.6454 120.937C47.4274 121.167 47.1647 121.337 46.8573 121.449C46.5498 121.555 46.1949 121.608 45.7924 121.608H45.3061V120.241L45.6415 120.216C45.8818 120.2 46.0859 120.144 46.2536 120.049C46.4268 119.954 46.5722 119.814 46.6896 119.629C46.807 119.439 46.902 119.196 46.9746 118.9C47.0529 118.604 47.1116 118.252 47.1507 117.843C47.1954 117.435 47.229 116.96 47.2513 116.418L47.419 112.536ZM57.8831 117.282H59.56L56.9356 121.608H55.2587L57.8831 117.282ZM59.1827 112.536H62.9726V121.608H61.4214V113.794H59.1827C58.7411 113.794 58.3806 113.869 58.1011 114.02C57.8216 114.165 57.6176 114.355 57.489 114.59C57.3605 114.825 57.2962 115.068 57.2962 115.32C57.2962 115.566 57.3549 115.803 57.4723 116.032C57.5896 116.256 57.7741 116.44 58.0256 116.586C58.2772 116.731 58.6014 116.804 58.9983 116.804H61.8407V118.078H58.9983C58.4784 118.078 58.0173 118.008 57.6148 117.869C57.2123 117.729 56.8713 117.536 56.5919 117.29C56.3124 117.039 56.1 116.745 55.9546 116.41C55.8093 116.069 55.7366 115.7 55.7366 115.303C55.7366 114.906 55.8121 114.54 55.963 114.205C56.1195 113.869 56.3431 113.576 56.6338 113.324C56.93 113.073 57.2906 112.88 57.7154 112.746C58.1458 112.606 58.6349 112.536 59.1827 112.536ZM73.118 117.273H71.4495V116.317H72.9923C73.4227 116.317 73.7637 116.264 74.0152 116.158C74.2667 116.046 74.4456 115.893 74.5518 115.697C74.658 115.501 74.7111 115.272 74.7111 115.009C74.7111 114.775 74.6496 114.554 74.5267 114.347C74.4093 114.135 74.2192 113.964 73.9565 113.836C73.6938 113.701 73.3416 113.634 72.9 113.634C72.5423 113.634 72.2181 113.699 71.9274 113.827C71.6368 113.95 71.4048 114.121 71.2315 114.339C71.0638 114.551 70.98 114.791 70.98 115.06H69.4288C69.4288 114.506 69.5853 114.031 69.8983 113.634C70.2169 113.232 70.639 112.922 71.1644 112.704C71.6954 112.486 72.274 112.377 72.9 112.377C73.4255 112.377 73.895 112.435 74.3087 112.553C74.7279 112.665 75.0828 112.832 75.3735 113.056C75.6642 113.274 75.885 113.548 76.0359 113.878C76.1924 114.202 76.2707 114.579 76.2707 115.009C76.2707 115.317 76.198 115.608 76.0527 115.881C75.9073 116.155 75.6977 116.399 75.4238 116.611C75.1499 116.818 74.8173 116.98 74.4261 117.097C74.0404 117.215 73.6044 117.273 73.118 117.273ZM71.4495 116.686H73.118C73.6603 116.686 74.1382 116.739 74.5518 116.846C74.9655 116.946 75.312 117.097 75.5915 117.298C75.871 117.5 76.0806 117.748 76.2204 118.045C76.3657 118.335 76.4384 118.671 76.4384 119.051C76.4384 119.476 76.3517 119.859 76.1784 120.2C76.0108 120.535 75.7704 120.82 75.4574 121.055C75.1443 121.29 74.7698 121.468 74.3338 121.591C73.9034 121.714 73.4255 121.776 72.9 121.776C72.3131 121.776 71.743 121.675 71.1896 121.474C70.6362 121.273 70.1806 120.963 69.8229 120.543C69.4651 120.119 69.2862 119.579 69.2862 118.925H70.8374C70.8374 119.199 70.9241 119.459 71.0973 119.705C71.2706 119.951 71.511 120.149 71.8184 120.3C72.1314 120.451 72.492 120.527 72.9 120.527C73.336 120.527 73.6994 120.459 73.99 120.325C74.2807 120.191 74.4987 120.012 74.6441 119.789C74.795 119.565 74.8704 119.322 74.8704 119.059C74.8704 118.718 74.8034 118.444 74.6692 118.238C74.5351 118.031 74.3282 117.88 74.0487 117.785C73.7748 117.684 73.4227 117.634 72.9923 117.634H71.4495V116.686ZM83.8001 120.057V115.387C83.8001 115.029 83.7274 114.719 83.5821 114.456C83.4424 114.188 83.23 113.981 82.9449 113.836C82.6598 113.69 82.3076 113.618 81.8884 113.618C81.4971 113.618 81.1534 113.685 80.8571 113.819C80.5664 113.953 80.3372 114.129 80.1696 114.347C80.0074 114.565 79.9264 114.8 79.9264 115.051H78.3752C78.3752 114.727 78.4591 114.406 78.6268 114.087C78.7945 113.769 79.0348 113.481 79.3479 113.224C79.6665 112.961 80.0466 112.754 80.4882 112.603C80.9354 112.447 81.4328 112.368 81.9806 112.368C82.6402 112.368 83.2216 112.48 83.7247 112.704C84.2333 112.927 84.6302 113.265 84.9153 113.718C85.2059 114.165 85.3513 114.727 85.3513 115.404V119.629C85.3513 119.931 85.3764 120.253 85.4267 120.594C85.4826 120.935 85.5637 121.228 85.6699 121.474V121.608H84.0517C83.9734 121.429 83.9119 121.192 83.8672 120.895C83.8225 120.594 83.8001 120.314 83.8001 120.057ZM84.0684 116.108L84.0852 117.198H82.5173C82.0757 117.198 81.6816 117.234 81.335 117.307C80.9885 117.374 80.6978 117.477 80.463 117.617C80.2282 117.757 80.0494 117.933 79.9264 118.145C79.8034 118.352 79.7419 118.595 79.7419 118.875C79.7419 119.16 79.8062 119.42 79.9348 119.655C80.0633 119.889 80.2562 120.077 80.5133 120.216C80.776 120.35 81.0975 120.418 81.4776 120.418C81.9527 120.418 82.3719 120.317 82.7353 120.116C83.0986 119.914 83.3865 119.669 83.5989 119.378C83.8169 119.087 83.9343 118.805 83.951 118.531L84.6134 119.277C84.5743 119.512 84.4681 119.772 84.2948 120.057C84.1215 120.342 83.8895 120.616 83.5989 120.879C83.3138 121.136 82.9728 121.351 82.576 121.524C82.1847 121.692 81.7431 121.776 81.2512 121.776C80.6363 121.776 80.0969 121.656 79.6329 121.415C79.1746 121.175 78.8168 120.854 78.5597 120.451C78.3082 120.043 78.1824 119.587 78.1824 119.084C78.1824 118.598 78.2774 118.17 78.4675 117.802C78.6575 117.427 78.9314 117.117 79.2892 116.871C79.6469 116.619 80.0773 116.429 80.5804 116.301C81.0835 116.172 81.6453 116.108 82.2657 116.108H84.0684ZM100.402 120.334L100.251 124.3H98.8674V121.608H97.6851V120.334H100.402ZM87.8331 112.536H89.3843V120.334H92.7046V112.536H94.2642V120.334H97.5761V112.536H99.1273V121.608H87.8331V112.536ZM103.689 119.151L107.872 112.536H109.432V121.608H107.872V114.993L103.689 121.608H102.146V112.536H103.689V119.151ZM115.62 112.536V121.608H114.06V112.536H115.62ZM118.664 112.536V113.794H111.075V112.536H118.664ZM121.464 115.655H124.189C124.921 115.655 125.539 115.784 126.042 116.041C126.545 116.292 126.925 116.642 127.182 117.089C127.445 117.53 127.576 118.034 127.576 118.598C127.576 119.017 127.504 119.411 127.358 119.78C127.213 120.144 126.995 120.462 126.704 120.736C126.419 121.01 126.064 121.225 125.64 121.382C125.22 121.533 124.737 121.608 124.189 121.608H120.332V112.536H121.883V120.334H124.189C124.636 120.334 124.994 120.253 125.262 120.091C125.531 119.928 125.723 119.719 125.841 119.462C125.958 119.205 126.017 118.936 126.017 118.657C126.017 118.383 125.958 118.115 125.841 117.852C125.723 117.589 125.531 117.371 125.262 117.198C124.994 117.019 124.636 116.93 124.189 116.93H121.464V115.655ZM130.805 112.536V121.608H129.253V112.536H130.805ZM139.332 114.28V125.096H137.772V112.536H139.198L139.332 114.28ZM145.444 116.997V117.173C145.444 117.832 145.366 118.444 145.209 119.009C145.053 119.568 144.824 120.054 144.522 120.468C144.226 120.882 143.859 121.203 143.423 121.432C142.987 121.661 142.487 121.776 141.923 121.776C141.347 121.776 140.838 121.681 140.397 121.491C139.955 121.301 139.581 121.024 139.273 120.661C138.966 120.297 138.72 119.861 138.535 119.353C138.356 118.844 138.233 118.271 138.166 117.634V116.695C138.233 116.024 138.359 115.423 138.544 114.892C138.728 114.361 138.971 113.908 139.273 113.534C139.581 113.154 139.952 112.866 140.388 112.67C140.824 112.469 141.327 112.368 141.897 112.368C142.468 112.368 142.974 112.48 143.415 112.704C143.857 112.922 144.228 113.235 144.53 113.643C144.832 114.051 145.059 114.54 145.209 115.11C145.366 115.675 145.444 116.303 145.444 116.997ZM143.885 117.173V116.997C143.885 116.544 143.837 116.119 143.742 115.722C143.647 115.32 143.499 114.968 143.298 114.666C143.102 114.358 142.851 114.118 142.543 113.945C142.236 113.766 141.87 113.676 141.445 113.676C141.053 113.676 140.712 113.743 140.422 113.878C140.137 114.012 139.894 114.193 139.692 114.423C139.491 114.646 139.326 114.903 139.198 115.194C139.075 115.479 138.982 115.775 138.921 116.083V118.254C139.033 118.646 139.189 119.015 139.39 119.361C139.592 119.702 139.86 119.979 140.195 120.191C140.531 120.398 140.953 120.501 141.461 120.501C141.881 120.501 142.241 120.415 142.543 120.241C142.851 120.063 143.102 119.819 143.298 119.512C143.499 119.205 143.647 118.852 143.742 118.456C143.837 118.053 143.885 117.625 143.885 117.173ZM151.188 121.776C150.556 121.776 149.983 121.67 149.469 121.457C148.96 121.239 148.521 120.935 148.152 120.543C147.789 120.152 147.51 119.688 147.314 119.151C147.118 118.615 147.021 118.028 147.021 117.391V117.039C147.021 116.301 147.13 115.644 147.348 115.068C147.566 114.487 147.862 113.995 148.236 113.592C148.611 113.19 149.036 112.885 149.511 112.679C149.986 112.472 150.478 112.368 150.986 112.368C151.635 112.368 152.194 112.48 152.663 112.704C153.139 112.927 153.527 113.24 153.829 113.643C154.131 114.04 154.354 114.509 154.5 115.051C154.645 115.588 154.718 116.175 154.718 116.812V117.508H147.943V116.242H153.166V116.125C153.144 115.722 153.06 115.331 152.915 114.951C152.775 114.571 152.552 114.258 152.244 114.012C151.937 113.766 151.517 113.643 150.986 113.643C150.634 113.643 150.31 113.718 150.014 113.869C149.718 114.014 149.463 114.232 149.251 114.523C149.038 114.814 148.874 115.169 148.756 115.588C148.639 116.007 148.58 116.491 148.58 117.039V117.391C148.58 117.821 148.639 118.226 148.756 118.606C148.879 118.981 149.055 119.311 149.284 119.596C149.519 119.881 149.801 120.105 150.131 120.267C150.467 120.429 150.847 120.51 151.272 120.51C151.819 120.51 152.283 120.398 152.663 120.174C153.043 119.951 153.376 119.652 153.661 119.277L154.6 120.023C154.405 120.32 154.156 120.602 153.854 120.87C153.552 121.139 153.18 121.357 152.739 121.524C152.303 121.692 151.786 121.776 151.188 121.776ZM158.214 112.536V121.608H156.663V112.536H158.214ZM164.167 112.536L159.866 117.734H157.694L157.459 116.376H159.237L162.281 112.536H164.167ZM162.499 121.608L159.162 117.5L160.159 116.376L164.469 121.608H162.499ZM171.881 112.536V113.819H167.496V112.536H171.881ZM173.248 112.536V121.608H171.697V112.536H173.248ZM167.119 112.536H168.678L168.443 116.913C168.404 117.589 168.34 118.187 168.25 118.707C168.167 119.221 168.049 119.663 167.898 120.032C167.753 120.401 167.569 120.703 167.345 120.937C167.127 121.167 166.864 121.337 166.557 121.449C166.249 121.555 165.894 121.608 165.492 121.608H165.006V120.241L165.341 120.216C165.581 120.2 165.785 120.144 165.953 120.049C166.126 119.954 166.272 119.814 166.389 119.629C166.506 119.439 166.602 119.196 166.674 118.9C166.752 118.604 166.811 118.252 166.85 117.843C166.895 117.435 166.929 116.96 166.951 116.418L167.119 112.536ZM181.096 120.057V115.387C181.096 115.029 181.023 114.719 180.878 114.456C180.738 114.188 180.526 113.981 180.241 113.836C179.955 113.69 179.603 113.618 179.184 113.618C178.793 113.618 178.449 113.685 178.153 113.819C177.862 113.953 177.633 114.129 177.465 114.347C177.303 114.565 177.222 114.8 177.222 115.051H175.671C175.671 114.727 175.755 114.406 175.922 114.087C176.09 113.769 176.331 113.481 176.644 113.224C176.962 112.961 177.342 112.754 177.784 112.603C178.231 112.447 178.729 112.368 179.276 112.368C179.936 112.368 180.517 112.48 181.02 112.704C181.529 112.927 181.926 113.265 182.211 113.718C182.502 114.165 182.647 114.727 182.647 115.404V119.629C182.647 119.931 182.672 120.253 182.722 120.594C182.778 120.935 182.859 121.228 182.966 121.474V121.608H181.347C181.269 121.429 181.208 121.192 181.163 120.895C181.118 120.594 181.096 120.314 181.096 120.057ZM181.364 116.108L181.381 117.198H179.813C179.371 117.198 178.977 117.234 178.631 117.307C178.284 117.374 177.993 117.477 177.759 117.617C177.524 117.757 177.345 117.933 177.222 118.145C177.099 118.352 177.038 118.595 177.038 118.875C177.038 119.16 177.102 119.42 177.23 119.655C177.359 119.889 177.552 120.077 177.809 120.216C178.072 120.35 178.393 120.418 178.773 120.418C179.248 120.418 179.668 120.317 180.031 120.116C180.394 119.914 180.682 119.669 180.895 119.378C181.113 119.087 181.23 118.805 181.247 118.531L181.909 119.277C181.87 119.512 181.764 119.772 181.591 120.057C181.417 120.342 181.185 120.616 180.895 120.879C180.609 121.136 180.269 121.351 179.872 121.524C179.48 121.692 179.039 121.776 178.547 121.776C177.932 121.776 177.393 121.656 176.929 121.415C176.47 121.175 176.113 120.854 175.855 120.451C175.604 120.043 175.478 119.587 175.478 119.084C175.478 118.598 175.573 118.17 175.763 117.802C175.953 117.427 176.227 117.117 176.585 116.871C176.943 116.619 177.373 116.429 177.876 116.301C178.379 116.172 178.941 116.108 179.561 116.108H181.364ZM190.302 119.546L193.388 112.536H194.88L190.839 121.608H189.766L185.741 112.536H187.233L190.302 119.546ZM186.781 112.536V121.608H185.229V112.536H186.781ZM193.773 121.608V112.536H195.333V121.608H193.773ZM203.986 116.468V117.726H199.19V116.468H203.986ZM199.517 112.536V121.608H197.966V112.536H199.517ZM205.244 112.536V121.608H203.684V112.536H205.244ZM209.017 115.655H211.742C212.474 115.655 213.092 115.784 213.595 116.041C214.098 116.292 214.478 116.642 214.735 117.089C214.998 117.53 215.129 118.034 215.129 118.598C215.129 119.017 215.057 119.411 214.911 119.78C214.766 120.144 214.548 120.462 214.257 120.736C213.972 121.01 213.617 121.225 213.192 121.382C212.773 121.533 212.29 121.608 211.742 121.608H207.885V112.536H209.436V120.334H211.742C212.189 120.334 212.547 120.253 212.815 120.091C213.083 119.928 213.276 119.719 213.394 119.462C213.511 119.205 213.57 118.936 213.57 118.657C213.57 118.383 213.511 118.115 213.394 117.852C213.276 117.589 213.083 117.371 212.815 117.198C212.547 117.019 212.189 116.93 211.742 116.93H209.017V115.655ZM218.357 112.536V121.608H216.806V112.536H218.357ZM222.122 112.536L224.109 115.84L226.121 112.536H227.941L224.973 117.013L228.033 121.608H226.239L224.143 118.204L222.047 121.608H220.244L223.296 117.013L220.336 112.536H222.122ZM235.537 112.536V121.608H233.986V112.536H235.537ZM241.491 112.536L237.189 117.734H235.018L234.783 116.376H236.56L239.604 112.536H241.491ZM239.822 121.608L236.485 117.5L237.483 116.376L241.792 121.608H239.822ZM248.492 120.057V115.387C248.492 115.029 248.419 114.719 248.274 114.456C248.134 114.188 247.922 113.981 247.637 113.836C247.351 113.69 246.999 113.618 246.58 113.618C246.189 113.618 245.845 113.685 245.549 113.819C245.258 113.953 245.029 114.129 244.861 114.347C244.699 114.565 244.618 114.8 244.618 115.051H243.067C243.067 114.727 243.151 114.406 243.318 114.087C243.486 113.769 243.726 113.481 244.04 113.224C244.358 112.961 244.738 112.754 245.18 112.603C245.627 112.447 246.125 112.368 246.672 112.368C247.332 112.368 247.913 112.48 248.416 112.704C248.925 112.927 249.322 113.265 249.607 113.718C249.898 114.165 250.043 114.727 250.043 115.404V119.629C250.043 119.931 250.068 120.253 250.118 120.594C250.174 120.935 250.255 121.228 250.362 121.474V121.608H248.743C248.665 121.429 248.604 121.192 248.559 120.895C248.514 120.594 248.492 120.314 248.492 120.057ZM248.76 116.108L248.777 117.198H247.209C246.767 117.198 246.373 117.234 246.027 117.307C245.68 117.374 245.389 117.477 245.155 117.617C244.92 117.757 244.741 117.933 244.618 118.145C244.495 118.352 244.434 118.595 244.434 118.875C244.434 119.16 244.498 119.42 244.626 119.655C244.755 119.889 244.948 120.077 245.205 120.216C245.468 120.35 245.789 120.418 246.169 120.418C246.644 120.418 247.064 120.317 247.427 120.116C247.79 119.914 248.078 119.669 248.291 119.378C248.509 119.087 248.626 118.805 248.643 118.531L249.305 119.277C249.266 119.512 249.16 119.772 248.986 120.057C248.813 120.342 248.581 120.616 248.291 120.879C248.005 121.136 247.664 121.351 247.268 121.524C246.876 121.692 246.435 121.776 245.943 121.776C245.328 121.776 244.789 121.656 244.325 121.415C243.866 121.175 243.508 120.854 243.251 120.451C243 120.043 242.874 119.587 242.874 119.084C242.874 118.598 242.969 118.17 243.159 117.802C243.349 117.427 243.623 117.117 243.981 116.871C244.339 116.619 244.769 116.429 245.272 116.301C245.775 116.172 246.337 116.108 246.957 116.108H248.76ZM257.698 119.546L260.784 112.536H262.276L258.235 121.608H257.162L253.137 112.536H254.629L257.698 119.546ZM254.177 112.536V121.608H252.625V112.536H254.177ZM261.169 121.608V112.536H262.729V121.608H261.169ZM271.273 112.536V113.819H266.687V112.536H271.273ZM266.913 112.536V121.608H265.362V112.536H266.913ZM272.648 112.536V121.608H271.088V112.536H272.648ZM280.488 120.057V115.387C280.488 115.029 280.415 114.719 280.27 114.456C280.13 114.188 279.918 113.981 279.632 113.836C279.347 113.69 278.995 113.618 278.576 113.618C278.185 113.618 277.841 113.685 277.545 113.819C277.254 113.953 277.025 114.129 276.857 114.347C276.695 114.565 276.614 114.8 276.614 115.051H275.063C275.063 114.727 275.147 114.406 275.314 114.087C275.482 113.769 275.722 113.481 276.035 113.224C276.354 112.961 276.734 112.754 277.176 112.603C277.623 112.447 278.12 112.368 278.668 112.368C279.328 112.368 279.909 112.48 280.412 112.704C280.921 112.927 281.318 113.265 281.603 113.718C281.894 114.165 282.039 114.727 282.039 115.404V119.629C282.039 119.931 282.064 120.253 282.114 120.594C282.17 120.935 282.251 121.228 282.357 121.474V121.608H280.739C280.661 121.429 280.599 121.192 280.555 120.895C280.51 120.594 280.488 120.314 280.488 120.057ZM280.756 116.108L280.773 117.198H279.205C278.763 117.198 278.369 117.234 278.023 117.307C277.676 117.374 277.385 117.477 277.151 117.617C276.916 117.757 276.737 117.933 276.614 118.145C276.491 118.352 276.43 118.595 276.43 118.875C276.43 119.16 276.494 119.42 276.622 119.655C276.751 119.889 276.944 120.077 277.201 120.216C277.464 120.35 277.785 120.418 278.165 120.418C278.64 120.418 279.059 120.317 279.423 120.116C279.786 119.914 280.074 119.669 280.286 119.378C280.504 119.087 280.622 118.805 280.639 118.531L281.301 119.277C281.262 119.512 281.156 119.772 280.982 120.057C280.809 120.342 280.577 120.616 280.286 120.879C280.001 121.136 279.66 121.351 279.264 121.524C278.872 121.692 278.431 121.776 277.939 121.776C277.324 121.776 276.784 121.656 276.321 121.415C275.862 121.175 275.504 120.854 275.247 120.451C274.996 120.043 274.87 119.587 274.87 119.084C274.87 118.598 274.965 118.17 275.155 117.802C275.345 117.427 275.619 117.117 275.977 116.871C276.334 116.619 276.765 116.429 277.268 116.301C277.771 116.172 278.333 116.108 278.953 116.108H280.756ZM290.633 116.468V117.726H285.837V116.468H290.633ZM286.164 112.536V121.608H284.613V112.536H286.164ZM291.891 112.536V121.608H290.331V112.536H291.891ZM296.066 119.151L300.25 112.536H301.81V121.608H300.25V114.993L296.066 121.608H294.524V112.536H296.066V119.151ZM305.977 119.151L310.161 112.536H311.721V121.608H310.161V114.993L305.977 121.608H304.434V112.536H305.977V119.151ZM309.314 109.249H310.572C310.572 109.685 310.471 110.074 310.27 110.415C310.069 110.75 309.781 111.013 309.406 111.203C309.032 111.393 308.587 111.488 308.073 111.488C307.296 111.488 306.681 111.281 306.229 110.867C305.781 110.448 305.558 109.909 305.558 109.249H306.816C306.816 109.579 306.911 109.87 307.101 110.121C307.291 110.373 307.615 110.498 308.073 110.498C308.52 110.498 308.839 110.373 309.029 110.121C309.219 109.87 309.314 109.579 309.314 109.249ZM324.625 116.468V117.726H319.829V116.468H324.625ZM320.156 112.536V121.608H318.604V112.536H320.156ZM325.882 112.536V121.608H324.323V112.536H325.882ZM333.73 120.057V115.387C333.73 115.029 333.658 114.719 333.512 114.456C333.373 114.188 333.16 113.981 332.875 113.836C332.59 113.69 332.238 113.618 331.819 113.618C331.427 113.618 331.084 113.685 330.787 113.819C330.497 113.953 330.267 114.129 330.1 114.347C329.938 114.565 329.857 114.8 329.857 115.051H328.305C328.305 114.727 328.389 114.406 328.557 114.087C328.725 113.769 328.965 113.481 329.278 113.224C329.597 112.961 329.977 112.754 330.418 112.603C330.866 112.447 331.363 112.368 331.911 112.368C332.57 112.368 333.152 112.48 333.655 112.704C334.164 112.927 334.56 113.265 334.845 113.718C335.136 114.165 335.281 114.727 335.281 115.404V119.629C335.281 119.931 335.307 120.253 335.357 120.594C335.413 120.935 335.494 121.228 335.6 121.474V121.608H333.982C333.904 121.429 333.842 121.192 333.797 120.895C333.753 120.594 333.73 120.314 333.73 120.057ZM333.999 116.108L334.015 117.198H332.447C332.006 117.198 331.612 117.234 331.265 117.307C330.919 117.374 330.628 117.477 330.393 117.617C330.158 117.757 329.98 117.933 329.857 118.145C329.734 118.352 329.672 118.595 329.672 118.875C329.672 119.16 329.736 119.42 329.865 119.655C329.994 119.889 330.186 120.077 330.444 120.216C330.706 120.35 331.028 120.418 331.408 120.418C331.883 120.418 332.302 120.317 332.665 120.116C333.029 119.914 333.317 119.669 333.529 119.378C333.747 119.087 333.864 118.805 333.881 118.531L334.544 119.277C334.505 119.512 334.398 119.772 334.225 120.057C334.052 120.342 333.82 120.616 333.529 120.879C333.244 121.136 332.903 121.351 332.506 121.524C332.115 121.692 331.673 121.776 331.181 121.776C330.567 121.776 330.027 121.656 329.563 121.415C329.105 121.175 328.747 120.854 328.49 120.451C328.238 120.043 328.113 119.587 328.113 119.084C328.113 118.598 328.208 118.17 328.398 117.802C328.588 117.427 328.862 117.117 329.219 116.871C329.577 116.619 330.008 116.429 330.511 116.301C331.014 116.172 331.575 116.108 332.196 116.108H333.999ZM342.937 119.546L346.022 112.536H347.515L343.473 121.608H342.4L338.375 112.536H339.868L342.937 119.546ZM339.415 112.536V121.608H337.864V112.536H339.415ZM346.408 121.608V112.536H347.967V121.608H346.408ZM360.88 116.468V117.726H356.084V116.468H360.88ZM356.411 112.536V121.608H354.86V112.536H356.411ZM362.138 112.536V121.608H360.578V112.536H362.138ZM368.401 121.776C367.769 121.776 367.196 121.67 366.682 121.457C366.173 121.239 365.735 120.935 365.366 120.543C365.002 120.152 364.723 119.688 364.527 119.151C364.332 118.615 364.234 118.028 364.234 117.391V117.039C364.234 116.301 364.343 115.644 364.561 115.068C364.779 114.487 365.075 113.995 365.45 113.592C365.824 113.19 366.249 112.885 366.724 112.679C367.199 112.472 367.691 112.368 368.2 112.368C368.848 112.368 369.407 112.48 369.877 112.704C370.352 112.927 370.74 113.24 371.042 113.643C371.344 114.04 371.568 114.509 371.713 115.051C371.858 115.588 371.931 116.175 371.931 116.812V117.508H365.156V116.242H370.38V116.125C370.357 115.722 370.274 115.331 370.128 114.951C369.988 114.571 369.765 114.258 369.457 114.012C369.15 113.766 368.731 113.643 368.2 113.643C367.848 113.643 367.523 113.718 367.227 113.869C366.931 114.014 366.676 114.232 366.464 114.523C366.252 114.814 366.087 115.169 365.969 115.588C365.852 116.007 365.793 116.491 365.793 117.039V117.391C365.793 117.821 365.852 118.226 365.969 118.606C366.092 118.981 366.268 119.311 366.498 119.596C366.732 119.881 367.015 120.105 367.344 120.267C367.68 120.429 368.06 120.51 368.485 120.51C369.033 120.51 369.497 120.398 369.877 120.174C370.257 119.951 370.589 119.652 370.874 119.277L371.813 120.023C371.618 120.32 371.369 120.602 371.067 120.87C370.765 121.139 370.394 121.357 369.952 121.524C369.516 121.692 368.999 121.776 368.401 121.776ZM373.331 117.173V116.98C373.331 116.326 373.426 115.719 373.616 115.16C373.806 114.596 374.08 114.107 374.438 113.693C374.796 113.274 375.229 112.95 375.738 112.72C376.246 112.486 376.816 112.368 377.448 112.368C378.085 112.368 378.658 112.486 379.167 112.72C379.681 112.95 380.117 113.274 380.475 113.693C380.838 114.107 381.115 114.596 381.305 115.16C381.495 115.719 381.59 116.326 381.59 116.98V117.173C381.59 117.827 381.495 118.433 381.305 118.992C381.115 119.551 380.838 120.04 380.475 120.459C380.117 120.873 379.684 121.197 379.175 121.432C378.672 121.661 378.102 121.776 377.465 121.776C376.828 121.776 376.255 121.661 375.746 121.432C375.237 121.197 374.801 120.873 374.438 120.459C374.08 120.04 373.806 119.551 373.616 118.992C373.426 118.433 373.331 117.827 373.331 117.173ZM374.882 116.98V117.173C374.882 117.625 374.935 118.053 375.042 118.456C375.148 118.852 375.307 119.205 375.52 119.512C375.738 119.819 376.009 120.063 376.333 120.241C376.657 120.415 377.034 120.501 377.465 120.501C377.89 120.501 378.261 120.415 378.58 120.241C378.904 120.063 379.172 119.819 379.385 119.512C379.597 119.205 379.757 118.852 379.863 118.456C379.975 118.053 380.03 117.625 380.03 117.173V116.98C380.03 116.533 379.975 116.111 379.863 115.714C379.757 115.311 379.594 114.956 379.376 114.649C379.164 114.336 378.896 114.09 378.572 113.911C378.253 113.732 377.878 113.643 377.448 113.643C377.023 113.643 376.649 113.732 376.324 113.911C376.006 114.09 375.738 114.336 375.52 114.649C375.307 114.956 375.148 115.311 375.042 115.714C374.935 116.111 374.882 116.533 374.882 116.98ZM389.354 108.587H390.629C390.629 109.135 390.545 109.571 390.377 109.895C390.209 110.213 389.98 110.459 389.69 110.633C389.405 110.806 389.08 110.937 388.717 111.027C388.359 111.116 387.988 111.203 387.602 111.287C387.121 111.387 386.674 111.547 386.26 111.765C385.852 111.977 385.5 112.279 385.204 112.67C384.913 113.061 384.698 113.57 384.558 114.196C384.424 114.822 384.388 115.596 384.449 116.519V117.29H383.175V116.519C383.175 115.485 383.273 114.582 383.468 113.81C383.669 113.039 383.952 112.388 384.315 111.857C384.678 111.326 385.109 110.904 385.606 110.591C386.109 110.278 386.663 110.062 387.266 109.945C387.702 109.861 388.077 109.772 388.39 109.677C388.703 109.576 388.941 109.442 389.103 109.274C389.27 109.107 389.354 108.877 389.354 108.587ZM387.518 113.056C388.111 113.056 388.639 113.159 389.103 113.366C389.567 113.573 389.961 113.861 390.285 114.23C390.609 114.599 390.855 115.035 391.023 115.538C391.196 116.035 391.283 116.577 391.283 117.164V117.349C391.283 117.98 391.19 118.567 391.006 119.11C390.827 119.646 390.562 120.116 390.209 120.518C389.863 120.915 389.438 121.225 388.935 121.449C388.438 121.672 387.87 121.784 387.233 121.784C386.596 121.784 386.026 121.672 385.522 121.449C385.025 121.225 384.6 120.915 384.248 120.518C383.896 120.116 383.627 119.646 383.443 119.11C383.264 118.567 383.175 117.98 383.175 117.349V117.164C383.175 117.025 383.2 116.888 383.25 116.753C383.3 116.619 383.362 116.482 383.435 116.343C383.513 116.203 383.583 116.055 383.644 115.898C383.851 115.395 384.133 114.928 384.491 114.498C384.854 114.068 385.288 113.721 385.791 113.458C386.299 113.19 386.875 113.056 387.518 113.056ZM387.216 114.322C386.646 114.322 386.176 114.453 385.808 114.716C385.444 114.979 385.173 115.328 384.994 115.764C384.815 116.194 384.726 116.661 384.726 117.164V117.349C384.726 117.774 384.776 118.176 384.877 118.556C384.977 118.936 385.128 119.274 385.33 119.571C385.536 119.861 385.796 120.091 386.109 120.258C386.428 120.426 386.802 120.51 387.233 120.51C387.663 120.51 388.035 120.426 388.348 120.258C388.661 120.091 388.918 119.861 389.119 119.571C389.321 119.274 389.472 118.936 389.572 118.556C389.673 118.176 389.723 117.774 389.723 117.349V117.164C389.723 116.784 389.673 116.424 389.572 116.083C389.472 115.742 389.318 115.44 389.111 115.177C388.91 114.914 388.65 114.708 388.331 114.557C388.018 114.4 387.647 114.322 387.216 114.322ZM393.957 112.536L395.945 115.84L397.957 112.536H399.776L396.808 117.013L399.869 121.608H398.074L395.978 118.204L393.882 121.608H392.079L395.131 117.013L392.171 112.536H393.957ZM400.85 117.173V116.98C400.85 116.326 400.945 115.719 401.135 115.16C401.325 114.596 401.599 114.107 401.956 113.693C402.314 113.274 402.747 112.95 403.256 112.72C403.765 112.486 404.335 112.368 404.966 112.368C405.604 112.368 406.177 112.486 406.685 112.72C407.2 112.95 407.636 113.274 407.993 113.693C408.357 114.107 408.633 114.596 408.823 115.16C409.013 115.719 409.109 116.326 409.109 116.98V117.173C409.109 117.827 409.013 118.433 408.823 118.992C408.633 119.551 408.357 120.04 407.993 120.459C407.636 120.873 407.202 121.197 406.694 121.432C406.191 121.661 405.62 121.776 404.983 121.776C404.346 121.776 403.773 121.661 403.264 121.432C402.756 121.197 402.32 120.873 401.956 120.459C401.599 120.04 401.325 119.551 401.135 118.992C400.945 118.433 400.85 117.827 400.85 117.173ZM402.401 116.98V117.173C402.401 117.625 402.454 118.053 402.56 118.456C402.666 118.852 402.826 119.205 403.038 119.512C403.256 119.819 403.527 120.063 403.851 120.241C404.176 120.415 404.553 120.501 404.983 120.501C405.408 120.501 405.78 120.415 406.098 120.241C406.423 120.063 406.691 119.819 406.903 119.512C407.116 119.205 407.275 118.852 407.381 118.456C407.493 118.053 407.549 117.625 407.549 117.173V116.98C407.549 116.533 407.493 116.111 407.381 115.714C407.275 115.311 407.113 114.956 406.895 114.649C406.683 114.336 406.414 114.09 406.09 113.911C405.771 113.732 405.397 113.643 404.966 113.643C404.542 113.643 404.167 113.732 403.843 113.911C403.524 114.09 403.256 114.336 403.038 114.649C402.826 114.956 402.666 115.311 402.56 115.714C402.454 116.111 402.401 116.533 402.401 116.98ZM412.085 112.536H413.636L413.502 115.932C413.469 116.793 413.371 117.536 413.209 118.162C413.047 118.788 412.84 119.322 412.588 119.764C412.337 120.2 412.054 120.566 411.741 120.862C411.434 121.158 411.115 121.407 410.785 121.608H410.014L410.056 120.342L410.375 120.334C410.559 120.116 410.738 119.892 410.911 119.663C411.085 119.428 411.244 119.151 411.389 118.833C411.534 118.509 411.655 118.115 411.75 117.651C411.85 117.181 411.915 116.608 411.943 115.932L412.085 112.536ZM412.471 112.536H417.929V121.608H416.378V113.97H412.471V112.536ZM409.662 120.334H419.095V124.283H417.543V121.608H411.213V124.283H409.654L409.662 120.334ZM422.49 119.151L426.674 112.536H428.234V121.608H426.674V114.993L422.49 121.608H420.948V112.536H422.49V119.151ZM435.939 119.546L439.025 112.536H440.517L436.476 121.608H435.403L431.378 112.536H432.871L435.939 119.546ZM432.418 112.536V121.608H430.867V112.536H432.418ZM439.411 121.608V112.536H440.97V121.608H439.411ZM443.058 117.173V116.98C443.058 116.326 443.153 115.719 443.343 115.16C443.533 114.596 443.807 114.107 444.165 113.693C444.523 113.274 444.956 112.95 445.464 112.72C445.973 112.486 446.543 112.368 447.175 112.368C447.812 112.368 448.385 112.486 448.894 112.72C449.408 112.95 449.844 113.274 450.202 113.693C450.565 114.107 450.842 114.596 451.032 115.16C451.222 115.719 451.317 116.326 451.317 116.98V117.173C451.317 117.827 451.222 118.433 451.032 118.992C450.842 119.551 450.565 120.04 450.202 120.459C449.844 120.873 449.411 121.197 448.902 121.432C448.399 121.661 447.829 121.776 447.192 121.776C446.554 121.776 445.981 121.661 445.473 121.432C444.964 121.197 444.528 120.873 444.165 120.459C443.807 120.04 443.533 119.551 443.343 118.992C443.153 118.433 443.058 117.827 443.058 117.173ZM444.609 116.98V117.173C444.609 117.625 444.662 118.053 444.769 118.456C444.875 118.852 445.034 119.205 445.246 119.512C445.464 119.819 445.736 120.063 446.06 120.241C446.384 120.415 446.761 120.501 447.192 120.501C447.617 120.501 447.988 120.415 448.307 120.241C448.631 120.063 448.899 119.819 449.112 119.512C449.324 119.205 449.483 118.852 449.59 118.456C449.701 118.053 449.757 117.625 449.757 117.173V116.98C449.757 116.533 449.701 116.111 449.59 115.714C449.483 115.311 449.321 114.956 449.103 114.649C448.891 114.336 448.623 114.09 448.298 113.911C447.98 113.732 447.605 113.643 447.175 113.643C446.75 113.643 446.376 113.732 446.051 113.911C445.733 114.09 445.464 114.336 445.246 114.649C445.034 114.956 444.875 115.311 444.769 115.714C444.662 116.111 444.609 116.533 444.609 116.98ZM463.567 112.536V113.819H458.981V112.536H463.567ZM459.207 112.536V121.608H457.656V112.536H459.207ZM464.942 112.536V121.608H463.382V112.536H464.942ZM467.021 117.173V116.98C467.021 116.326 467.116 115.719 467.306 115.16C467.497 114.596 467.77 114.107 468.128 113.693C468.486 113.274 468.919 112.95 469.428 112.72C469.936 112.486 470.507 112.368 471.138 112.368C471.776 112.368 472.348 112.486 472.857 112.72C473.371 112.95 473.807 113.274 474.165 113.693C474.528 114.107 474.805 114.596 474.995 115.16C475.185 115.719 475.28 116.326 475.28 116.98V117.173C475.28 117.827 475.185 118.433 474.995 118.992C474.805 119.551 474.528 120.04 474.165 120.459C473.807 120.873 473.374 121.197 472.866 121.432C472.362 121.661 471.792 121.776 471.155 121.776C470.518 121.776 469.945 121.661 469.436 121.432C468.928 121.197 468.492 120.873 468.128 120.459C467.77 120.04 467.497 119.551 467.306 118.992C467.116 118.433 467.021 117.827 467.021 117.173ZM468.573 116.98V117.173C468.573 117.625 468.626 118.053 468.732 118.456C468.838 118.852 468.997 119.205 469.21 119.512C469.428 119.819 469.699 120.063 470.023 120.241C470.347 120.415 470.725 120.501 471.155 120.501C471.58 120.501 471.952 120.415 472.27 120.241C472.594 120.063 472.863 119.819 473.075 119.512C473.288 119.205 473.447 118.852 473.553 118.456C473.665 118.053 473.721 117.625 473.721 117.173V116.98C473.721 116.533 473.665 116.111 473.553 115.714C473.447 115.311 473.285 114.956 473.067 114.649C472.854 114.336 472.586 114.09 472.262 113.911C471.943 113.732 471.569 113.643 471.138 113.643C470.713 113.643 470.339 113.732 470.015 113.911C469.696 114.09 469.428 114.336 469.21 114.649C468.997 114.956 468.838 115.311 468.732 115.714C468.626 116.111 468.573 116.533 468.573 116.98ZM483.154 112.536V113.819H478.768V112.536H483.154ZM484.52 112.536V121.608H482.969V112.536H484.52ZM478.391 112.536H479.951L479.716 116.913C479.677 117.589 479.612 118.187 479.523 118.707C479.439 119.221 479.322 119.663 479.171 120.032C479.025 120.401 478.841 120.703 478.617 120.937C478.399 121.167 478.137 121.337 477.829 121.449C477.522 121.555 477.167 121.608 476.764 121.608H476.278V120.241L476.613 120.216C476.854 120.2 477.058 120.144 477.226 120.049C477.399 119.954 477.544 119.814 477.662 119.629C477.779 119.439 477.874 119.196 477.947 118.9C478.025 118.604 478.084 118.252 478.123 117.843C478.167 117.435 478.201 116.96 478.223 116.418L478.391 112.536ZM489.568 120.669L492.092 112.536H493.752L490.113 123.008C490.029 123.232 489.917 123.472 489.777 123.73C489.643 123.992 489.47 124.241 489.258 124.476C489.045 124.711 488.788 124.901 488.486 125.046C488.19 125.197 487.835 125.272 487.421 125.272C487.298 125.272 487.142 125.256 486.952 125.222C486.762 125.188 486.628 125.16 486.549 125.138L486.541 123.88C486.586 123.886 486.656 123.892 486.751 123.897C486.851 123.908 486.921 123.914 486.96 123.914C487.312 123.914 487.611 123.866 487.857 123.771C488.103 123.682 488.31 123.528 488.478 123.31C488.651 123.098 488.799 122.804 488.922 122.43L489.568 120.669ZM487.715 112.536L490.071 119.579L490.473 121.214L489.358 121.784L486.021 112.536H487.715ZM501.994 112.536V121.608H500.443V112.536H501.994ZM501.466 116.703V117.978C501.153 118.095 500.834 118.201 500.51 118.296C500.191 118.386 499.853 118.458 499.495 118.514C499.143 118.565 498.76 118.59 498.347 118.59C497.631 118.59 497.011 118.467 496.485 118.221C495.96 117.969 495.554 117.592 495.269 117.089C494.984 116.58 494.842 115.94 494.842 115.169V112.519H496.393V115.169C496.393 115.672 496.468 116.08 496.619 116.393C496.77 116.706 496.991 116.938 497.282 117.089C497.572 117.234 497.927 117.307 498.347 117.307C498.749 117.307 499.126 117.282 499.478 117.231C499.836 117.175 500.177 117.103 500.501 117.013C500.831 116.924 501.153 116.821 501.466 116.703ZM506.169 119.151L510.353 112.536H511.913V121.608H510.353V114.993L506.169 121.608H504.627V112.536H506.169V119.151ZM518.101 112.536V121.608H516.541V112.536H518.101ZM521.144 112.536V113.794H513.556V112.536H521.144ZM523.945 115.655H526.67C527.402 115.655 528.02 115.784 528.523 116.041C529.026 116.292 529.406 116.642 529.663 117.089C529.926 117.53 530.057 118.034 530.057 118.598C530.057 119.017 529.985 119.411 529.839 119.78C529.694 120.144 529.476 120.462 529.185 120.736C528.9 121.01 528.545 121.225 528.12 121.382C527.701 121.533 527.218 121.608 526.67 121.608H522.813V112.536H524.364V120.334H526.67C527.117 120.334 527.475 120.253 527.743 120.091C528.011 119.928 528.204 119.719 528.322 119.462C528.439 119.205 528.498 118.936 528.498 118.657C528.498 118.383 528.439 118.115 528.322 117.852C528.204 117.589 528.011 117.371 527.743 117.198C527.475 117.019 527.117 116.93 526.67 116.93H523.945V115.655ZM537.889 112.536H539.44L539.306 115.932C539.272 116.793 539.174 117.536 539.012 118.162C538.85 118.788 538.643 119.322 538.392 119.764C538.14 120.2 537.858 120.566 537.545 120.862C537.237 121.158 536.919 121.407 536.589 121.608H535.818L535.86 120.342L536.178 120.334C536.363 120.116 536.541 119.892 536.715 119.663C536.888 119.428 537.047 119.151 537.193 118.833C537.338 118.509 537.458 118.115 537.553 117.651C537.654 117.181 537.718 116.608 537.746 115.932L537.889 112.536ZM538.274 112.536H543.733V121.608H542.182V113.97H538.274V112.536ZM535.465 120.334H544.898V124.283H543.347V121.608H537.017V124.283H535.457L535.465 120.334ZM546.206 117.173V116.98C546.206 116.326 546.301 115.719 546.491 115.16C546.681 114.596 546.955 114.107 547.313 113.693C547.671 113.274 548.104 112.95 548.613 112.72C549.121 112.486 549.691 112.368 550.323 112.368C550.96 112.368 551.533 112.486 552.042 112.72C552.556 112.95 552.992 113.274 553.35 113.693C553.713 114.107 553.99 114.596 554.18 115.16C554.37 115.719 554.465 116.326 554.465 116.98V117.173C554.465 117.827 554.37 118.433 554.18 118.992C553.99 119.551 553.713 120.04 553.35 120.459C552.992 120.873 552.559 121.197 552.05 121.432C551.547 121.661 550.977 121.776 550.34 121.776C549.703 121.776 549.13 121.661 548.621 121.432C548.112 121.197 547.676 120.873 547.313 120.459C546.955 120.04 546.681 119.551 546.491 118.992C546.301 118.433 546.206 117.827 546.206 117.173ZM547.757 116.98V117.173C547.757 117.625 547.81 118.053 547.917 118.456C548.023 118.852 548.182 119.205 548.395 119.512C548.613 119.819 548.884 120.063 549.208 120.241C549.532 120.415 549.909 120.501 550.34 120.501C550.765 120.501 551.136 120.415 551.455 120.241C551.779 120.063 552.048 119.819 552.26 119.512C552.472 119.205 552.632 118.852 552.738 118.456C552.85 118.053 552.906 117.625 552.906 117.173V116.98C552.906 116.533 552.85 116.111 552.738 115.714C552.632 115.311 552.47 114.956 552.252 114.649C552.039 114.336 551.771 114.09 551.447 113.911C551.128 113.732 550.753 113.643 550.323 113.643C549.898 113.643 549.524 113.732 549.2 113.911C548.881 114.09 548.613 114.336 548.395 114.649C548.182 114.956 548.023 115.311 547.917 115.714C547.81 116.111 547.757 116.533 547.757 116.98ZM560.041 120.501C560.41 120.501 560.751 120.426 561.064 120.275C561.377 120.124 561.634 119.917 561.835 119.655C562.037 119.386 562.151 119.082 562.179 118.741H563.655C563.627 119.277 563.445 119.778 563.11 120.241C562.78 120.7 562.347 121.072 561.81 121.357C561.273 121.636 560.684 121.776 560.041 121.776C559.359 121.776 558.764 121.656 558.255 121.415C557.752 121.175 557.333 120.845 556.997 120.426C556.668 120.007 556.419 119.526 556.251 118.984C556.089 118.436 556.008 117.857 556.008 117.248V116.896C556.008 116.287 556.089 115.711 556.251 115.169C556.419 114.621 556.668 114.137 556.997 113.718C557.333 113.299 557.752 112.969 558.255 112.729C558.764 112.488 559.359 112.368 560.041 112.368C560.751 112.368 561.371 112.514 561.902 112.804C562.433 113.089 562.85 113.481 563.152 113.978C563.459 114.47 563.627 115.029 563.655 115.655H562.179C562.151 115.281 562.045 114.942 561.86 114.641C561.682 114.339 561.436 114.098 561.123 113.919C560.815 113.735 560.455 113.643 560.041 113.643C559.566 113.643 559.166 113.738 558.842 113.928C558.523 114.112 558.269 114.364 558.079 114.682C557.894 114.995 557.76 115.345 557.676 115.731C557.598 116.111 557.559 116.499 557.559 116.896V117.248C557.559 117.645 557.598 118.036 557.676 118.422C557.755 118.808 557.886 119.157 558.071 119.47C558.261 119.783 558.515 120.035 558.834 120.225C559.158 120.409 559.56 120.501 560.041 120.501ZM569.096 112.536V121.608H567.537V112.536H569.096ZM572.14 112.536V113.794H564.552V112.536H572.14ZM576.316 120.669L578.839 112.536H580.5L576.861 123.008C576.777 123.232 576.665 123.472 576.525 123.73C576.391 123.992 576.218 124.241 576.005 124.476C575.793 124.711 575.536 124.901 575.234 125.046C574.938 125.197 574.583 125.272 574.169 125.272C574.046 125.272 573.89 125.256 573.7 125.222C573.51 125.188 573.375 125.16 573.297 125.138L573.289 123.88C573.333 123.886 573.403 123.892 573.498 123.897C573.599 123.908 573.669 123.914 573.708 123.914C574.06 123.914 574.359 123.866 574.605 123.771C574.851 123.682 575.058 123.528 575.226 123.31C575.399 123.098 575.547 122.804 575.67 122.43L576.316 120.669ZM574.463 112.536L576.819 119.579L577.221 121.214L576.106 121.784L572.769 112.536H574.463ZM587.945 112.536V113.819H583.359V112.536H587.945ZM583.585 112.536V121.608H582.034V112.536H583.585ZM589.32 112.536V121.608H587.761V112.536H589.32ZM34.7582 134.536V143.608H33.207V134.536H34.7582ZM40.7113 134.536L36.41 139.734H34.2383L34.0036 138.376H35.7811L38.8247 134.536H40.7113ZM39.0427 143.608L35.7056 139.5L36.7034 138.376L41.0131 143.608H39.0427ZM51.3766 132.482L47.3352 143.608H45.6834L50.3369 131.4H51.4018L51.3766 132.482ZM54.764 143.608L50.7142 132.482L50.6891 131.4H51.7539L56.4242 143.608H54.764ZM54.5544 139.089V140.414H47.6957V139.089H54.5544ZM62.5617 138.821H59.3001V137.504H62.5617C63.1934 137.504 63.7049 137.404 64.0961 137.202C64.4874 137.001 64.7725 136.722 64.9514 136.364C65.1358 136.006 65.2281 135.598 65.2281 135.14C65.2281 134.72 65.1358 134.326 64.9514 133.957C64.7725 133.589 64.4874 133.292 64.0961 133.069C63.7049 132.839 63.1934 132.725 62.5617 132.725H59.6774V143.608H58.0592V131.4H62.5617C63.4841 131.4 64.2638 131.559 64.9011 131.878C65.5383 132.197 66.0218 132.638 66.3516 133.203C66.6814 133.762 66.8463 134.402 66.8463 135.123C66.8463 135.905 66.6814 136.573 66.3516 137.127C66.0218 137.68 65.5383 138.102 64.9011 138.393C64.2638 138.678 63.4841 138.821 62.5617 138.821ZM70.6278 131.4V143.608H69.0096V131.4H70.6278ZM81.8549 139.617H78.8783L78.8615 138.376H81.2931C81.7738 138.376 82.1735 138.329 82.4921 138.234C82.8163 138.139 83.0595 137.996 83.2216 137.806C83.3837 137.616 83.4647 137.381 83.4647 137.102C83.4647 136.884 83.4172 136.694 83.3222 136.532C83.2328 136.364 83.0958 136.227 82.9113 136.121C82.7269 136.009 82.4977 135.928 82.2238 135.878C81.9555 135.822 81.6397 135.794 81.2763 135.794H79.2892V143.608H77.738V134.536H81.2763C81.8521 134.536 82.3691 134.586 82.8275 134.687C83.2914 134.788 83.6855 134.941 84.0097 135.148C84.3395 135.349 84.5911 135.606 84.7643 135.919C84.9376 136.232 85.0243 136.601 85.0243 137.026C85.0243 137.3 84.9684 137.56 84.8566 137.806C84.7448 138.052 84.5799 138.27 84.3619 138.46C84.1439 138.65 83.8756 138.807 83.557 138.93C83.2383 139.047 82.8722 139.122 82.4586 139.156L81.8549 139.617ZM81.8549 143.608H78.3165L79.0879 142.35H81.8549C82.2853 142.35 82.643 142.297 82.9281 142.191C83.2132 142.079 83.4256 141.923 83.5653 141.722C83.7107 141.515 83.7833 141.269 83.7833 140.984C83.7833 140.699 83.7107 140.456 83.5653 140.254C83.4256 140.047 83.2132 139.891 82.9281 139.785C82.643 139.673 82.2853 139.617 81.8549 139.617H79.4988L79.5155 138.376H82.4586L83.0203 138.846C83.5178 138.885 83.9399 139.008 84.2864 139.215C84.633 139.421 84.8957 139.684 85.0746 140.003C85.2535 140.316 85.3429 140.657 85.3429 141.026C85.3429 141.451 85.2618 141.825 85.0997 142.149C84.9432 142.473 84.714 142.745 84.4122 142.963C84.1103 143.175 83.7442 143.337 83.3138 143.449C82.8834 143.555 82.3971 143.608 81.8549 143.608ZM92.7717 142.057V137.387C92.7717 137.029 92.699 136.719 92.5537 136.456C92.414 136.188 92.2016 135.981 91.9165 135.836C91.6314 135.69 91.2792 135.618 90.86 135.618C90.4687 135.618 90.1249 135.685 89.8287 135.819C89.538 135.953 89.3088 136.129 89.1411 136.347C88.979 136.565 88.898 136.8 88.898 137.051H87.3468C87.3468 136.727 87.4307 136.406 87.5984 136.087C87.7661 135.769 88.0064 135.481 88.3194 135.224C88.6381 134.961 89.0182 134.754 89.4598 134.603C89.9069 134.447 90.4044 134.368 90.9522 134.368C91.6118 134.368 92.1932 134.48 92.6962 134.704C93.2049 134.927 93.6018 135.265 93.8869 135.718C94.1775 136.165 94.3229 136.727 94.3229 137.404V141.629C94.3229 141.931 94.348 142.253 94.3983 142.594C94.4542 142.935 94.5353 143.228 94.6415 143.474V143.608H93.0232C92.945 143.429 92.8835 143.192 92.8388 142.895C92.7941 142.594 92.7717 142.314 92.7717 142.057ZM93.04 138.108L93.0568 139.198H91.4889C91.0473 139.198 90.6532 139.234 90.3066 139.307C89.96 139.374 89.6694 139.477 89.4346 139.617C89.1998 139.757 89.021 139.933 88.898 140.145C88.775 140.352 88.7135 140.595 88.7135 140.875C88.7135 141.16 88.7778 141.42 88.9064 141.655C89.0349 141.889 89.2278 142.077 89.4849 142.216C89.7476 142.35 90.0691 142.418 90.4492 142.418C90.9243 142.418 91.3435 142.317 91.7069 142.116C92.0702 141.914 92.3581 141.669 92.5705 141.378C92.7885 141.087 92.9059 140.805 92.9226 140.531L93.585 141.277C93.5459 141.512 93.4397 141.772 93.2664 142.057C93.0931 142.342 92.8611 142.616 92.5705 142.879C92.2854 143.136 91.9444 143.351 91.5475 143.524C91.1563 143.692 90.7147 143.776 90.2228 143.776C89.6079 143.776 89.0685 143.656 88.6045 143.415C88.1462 143.175 87.7884 142.854 87.5313 142.451C87.2798 142.043 87.154 141.587 87.154 141.084C87.154 140.598 87.249 140.17 87.4391 139.802C87.6291 139.427 87.903 139.117 88.2608 138.871C88.6185 138.619 89.0489 138.429 89.552 138.301C90.0551 138.172 90.6168 138.108 91.2373 138.108H93.04ZM96.897 134.536H98.4481V142.334H101.768V134.536H103.328V142.334H106.64V134.536H108.191V143.608H96.897V134.536ZM114.429 143.776C113.798 143.776 113.225 143.67 112.71 143.457C112.202 143.239 111.763 142.935 111.394 142.543C111.031 142.152 110.751 141.688 110.556 141.151C110.36 140.615 110.262 140.028 110.262 139.391V139.039C110.262 138.301 110.371 137.644 110.589 137.068C110.807 136.487 111.103 135.995 111.478 135.592C111.852 135.19 112.277 134.885 112.752 134.679C113.228 134.472 113.719 134.368 114.228 134.368C114.876 134.368 115.435 134.48 115.905 134.704C116.38 134.927 116.769 135.24 117.07 135.643C117.372 136.04 117.596 136.509 117.741 137.051C117.887 137.588 117.959 138.175 117.959 138.812V139.508H111.184V138.242H116.408V138.125C116.386 137.722 116.302 137.331 116.157 136.951C116.017 136.571 115.793 136.258 115.486 136.012C115.178 135.766 114.759 135.643 114.228 135.643C113.876 135.643 113.552 135.718 113.255 135.869C112.959 136.014 112.705 136.232 112.492 136.523C112.28 136.814 112.115 137.169 111.998 137.588C111.88 138.007 111.822 138.491 111.822 139.039V139.391C111.822 139.821 111.88 140.226 111.998 140.606C112.121 140.981 112.297 141.311 112.526 141.596C112.761 141.881 113.043 142.105 113.373 142.267C113.708 142.429 114.088 142.51 114.513 142.51C115.061 142.51 115.525 142.398 115.905 142.174C116.285 141.951 116.618 141.652 116.903 141.277L117.842 142.023C117.646 142.32 117.397 142.602 117.096 142.87C116.794 143.139 116.422 143.357 115.98 143.524C115.544 143.692 115.027 143.776 114.429 143.776ZM125.631 134.536V135.819H121.439V143.608H119.888V134.536H125.631ZM126.403 139.173V138.98C126.403 138.326 126.498 137.719 126.688 137.16C126.878 136.596 127.152 136.107 127.509 135.693C127.867 135.274 128.3 134.95 128.809 134.72C129.318 134.486 129.888 134.368 130.519 134.368C131.157 134.368 131.73 134.486 132.238 134.72C132.753 134.95 133.189 135.274 133.546 135.693C133.91 136.107 134.186 136.596 134.376 137.16C134.566 137.719 134.662 138.326 134.662 138.98V139.173C134.662 139.827 134.566 140.433 134.376 140.992C134.186 141.551 133.91 142.04 133.546 142.459C133.189 142.873 132.755 143.197 132.247 143.432C131.744 143.661 131.173 143.776 130.536 143.776C129.899 143.776 129.326 143.661 128.817 143.432C128.309 143.197 127.873 142.873 127.509 142.459C127.152 142.04 126.878 141.551 126.688 140.992C126.498 140.433 126.403 139.827 126.403 139.173ZM127.954 138.98V139.173C127.954 139.625 128.007 140.053 128.113 140.456C128.219 140.852 128.379 141.205 128.591 141.512C128.809 141.819 129.08 142.063 129.404 142.241C129.729 142.415 130.106 142.501 130.536 142.501C130.961 142.501 131.333 142.415 131.651 142.241C131.976 142.063 132.244 141.819 132.456 141.512C132.669 141.205 132.828 140.852 132.934 140.456C133.046 140.053 133.102 139.625 133.102 139.173V138.98C133.102 138.533 133.046 138.111 132.934 137.714C132.828 137.311 132.666 136.956 132.448 136.649C132.236 136.336 131.967 136.09 131.643 135.911C131.324 135.732 130.95 135.643 130.519 135.643C130.095 135.643 129.72 135.732 129.396 135.911C129.077 136.09 128.809 136.336 128.591 136.649C128.379 136.956 128.219 137.311 128.113 137.714C128.007 138.111 127.954 138.533 127.954 138.98ZM147.876 138.854H144.446L143.65 138.527C142.767 138.248 142.088 137.82 141.612 137.244C141.137 136.663 140.9 135.942 140.9 135.081C140.9 134.293 141.073 133.625 141.42 133.077C141.772 132.529 142.269 132.113 142.912 131.828C143.56 131.543 144.326 131.4 145.209 131.4H149.117V143.608H147.498V132.725H145.209C144.315 132.725 143.641 132.937 143.189 133.362C142.742 133.787 142.518 134.36 142.518 135.081C142.518 135.551 142.616 135.97 142.811 136.339C143.013 136.708 143.309 136.998 143.7 137.211C144.091 137.423 144.578 137.529 145.159 137.529H147.884L147.876 138.854ZM145.126 138.016L142.157 143.608H140.439L143.491 138.016H145.126ZM151.825 142.786C151.825 142.524 151.906 142.303 152.068 142.124C152.236 141.94 152.476 141.847 152.789 141.847C153.102 141.847 153.34 141.94 153.502 142.124C153.67 142.303 153.753 142.524 153.753 142.786C153.753 143.044 153.67 143.262 153.502 143.44C153.34 143.619 153.102 143.709 152.789 143.709C152.476 143.709 152.236 143.619 152.068 143.44C151.906 143.262 151.825 143.044 151.825 142.786ZM166.163 142.292V143.608H156.923V142.292H166.163ZM157.183 142.292V146.61H155.581L155.573 142.292H157.183ZM167.571 142.292L167.555 146.602H165.953V142.292H167.571ZM164.578 131.4V132.725H159.229V131.4H164.578ZM165.97 131.4V143.608H164.36V131.4H165.97ZM158.675 131.4H160.293L160.042 136.314C160.008 137.051 159.938 137.733 159.832 138.359C159.726 138.98 159.595 139.547 159.438 140.061C159.282 140.576 159.103 141.037 158.902 141.445C158.7 141.847 158.485 142.197 158.256 142.493C158.027 142.784 157.786 143.024 157.535 143.214C157.289 143.399 157.04 143.53 156.789 143.608H156.051V142.292H156.571C156.716 142.135 156.881 141.909 157.065 141.613C157.255 141.316 157.443 140.933 157.627 140.464C157.817 139.989 157.982 139.41 158.122 138.728C158.267 138.046 158.365 137.241 158.415 136.314L158.675 131.4ZM170.917 141.151L175.101 134.536H176.66V143.608H175.101V136.993L170.917 143.608H169.374V134.536H170.917V141.151ZM180.702 136.28V147.096H179.142V134.536H180.568L180.702 136.28ZM186.814 138.997V139.173C186.814 139.832 186.736 140.444 186.579 141.009C186.423 141.568 186.194 142.054 185.892 142.468C185.596 142.882 185.229 143.203 184.793 143.432C184.357 143.661 183.857 143.776 183.293 143.776C182.717 143.776 182.208 143.681 181.767 143.491C181.325 143.301 180.95 143.024 180.643 142.661C180.336 142.297 180.09 141.861 179.905 141.353C179.726 140.844 179.603 140.271 179.536 139.634V138.695C179.603 138.024 179.729 137.423 179.914 136.892C180.098 136.361 180.341 135.908 180.643 135.534C180.95 135.154 181.322 134.866 181.758 134.67C182.194 134.469 182.697 134.368 183.267 134.368C183.838 134.368 184.343 134.48 184.785 134.704C185.227 134.922 185.598 135.235 185.9 135.643C186.202 136.051 186.428 136.54 186.579 137.11C186.736 137.675 186.814 138.303 186.814 138.997ZM185.255 139.173V138.997C185.255 138.544 185.207 138.119 185.112 137.722C185.017 137.32 184.869 136.968 184.668 136.666C184.472 136.358 184.221 136.118 183.913 135.945C183.606 135.766 183.24 135.676 182.815 135.676C182.423 135.676 182.082 135.743 181.792 135.878C181.507 136.012 181.264 136.193 181.062 136.423C180.861 136.646 180.696 136.903 180.568 137.194C180.445 137.479 180.352 137.775 180.291 138.083V140.254C180.403 140.646 180.559 141.015 180.76 141.361C180.962 141.702 181.23 141.979 181.565 142.191C181.901 142.398 182.323 142.501 182.831 142.501C183.251 142.501 183.611 142.415 183.913 142.241C184.221 142.063 184.472 141.819 184.668 141.512C184.869 141.205 185.017 140.852 185.112 140.456C185.207 140.053 185.255 139.625 185.255 139.173ZM192.558 143.776C191.926 143.776 191.353 143.67 190.839 143.457C190.33 143.239 189.891 142.935 189.522 142.543C189.159 142.152 188.88 141.688 188.684 141.151C188.488 140.615 188.39 140.028 188.39 139.391V139.039C188.39 138.301 188.499 137.644 188.717 137.068C188.935 136.487 189.232 135.995 189.606 135.592C189.981 135.19 190.406 134.885 190.881 134.679C191.356 134.472 191.848 134.368 192.356 134.368C193.005 134.368 193.564 134.48 194.033 134.704C194.508 134.927 194.897 135.24 195.199 135.643C195.501 136.04 195.724 136.509 195.87 137.051C196.015 137.588 196.088 138.175 196.088 138.812V139.508H189.313V138.242H194.536V138.125C194.514 137.722 194.43 137.331 194.285 136.951C194.145 136.571 193.922 136.258 193.614 136.012C193.307 135.766 192.887 135.643 192.356 135.643C192.004 135.643 191.68 135.718 191.384 135.869C191.088 136.014 190.833 136.232 190.621 136.523C190.408 136.814 190.243 137.169 190.126 137.588C190.009 138.007 189.95 138.491 189.95 139.039V139.391C189.95 139.821 190.009 140.226 190.126 140.606C190.249 140.981 190.425 141.311 190.654 141.596C190.889 141.881 191.171 142.105 191.501 142.267C191.837 142.429 192.217 142.51 192.642 142.51C193.189 142.51 193.653 142.398 194.033 142.174C194.413 141.951 194.746 141.652 195.031 141.277L195.97 142.023C195.775 142.32 195.526 142.602 195.224 142.87C194.922 143.139 194.55 143.357 194.109 143.524C193.673 143.692 193.156 143.776 192.558 143.776ZM199.584 134.536V143.608H198.033V134.536H199.584ZM205.537 134.536L201.236 139.734H199.064L198.829 138.376H200.607L203.651 134.536H205.537ZM203.869 143.608L200.531 139.5L201.529 138.376L205.839 143.608H203.869ZM210.887 134.536V143.608H209.327V134.536H210.887ZM213.93 134.536V135.794H206.342V134.536H213.93ZM215.481 142.786C215.481 142.524 215.562 142.303 215.725 142.124C215.892 141.94 216.133 141.847 216.446 141.847C216.759 141.847 216.996 141.94 217.158 142.124C217.326 142.303 217.41 142.524 217.41 142.786C217.41 143.044 217.326 143.262 217.158 143.44C216.996 143.619 216.759 143.709 216.446 143.709C216.133 143.709 215.892 143.619 215.725 143.44C215.562 143.262 215.481 143.044 215.481 142.786Z" fill="#333333"/>
<g filter="url(#filter0_d_129_16040)">
<rect x="31.8906" y="175.366" width="591.68" height="49.3046" rx="6.13279" fill="#24B5F4"/>
<path d="M257.492 200.852H254.314V199.183H257.492C258.045 199.183 258.492 199.094 258.833 198.915C259.174 198.736 259.423 198.49 259.58 198.177C259.742 197.859 259.823 197.495 259.823 197.087C259.823 196.702 259.742 196.341 259.58 196.006C259.423 195.665 259.174 195.391 258.833 195.184C258.492 194.977 258.045 194.874 257.492 194.874H254.96V205.405H252.855V193.197H257.492C258.437 193.197 259.239 193.365 259.898 193.7C260.563 194.03 261.069 194.488 261.416 195.075C261.762 195.656 261.936 196.322 261.936 197.071C261.936 197.859 261.762 198.535 261.416 199.1C261.069 199.664 260.563 200.097 259.898 200.399C259.239 200.701 258.437 200.852 257.492 200.852ZM268.635 203.585V199.259C268.635 198.935 268.576 198.655 268.459 198.42C268.342 198.186 268.163 198.004 267.922 197.875C267.688 197.747 267.391 197.683 267.034 197.683C266.704 197.683 266.419 197.739 266.178 197.85C265.938 197.962 265.751 198.113 265.617 198.303C265.482 198.493 265.415 198.708 265.415 198.949H263.403C263.403 198.591 263.49 198.244 263.663 197.909C263.836 197.574 264.088 197.275 264.418 197.012C264.747 196.749 265.141 196.542 265.6 196.391C266.058 196.24 266.572 196.165 267.143 196.165C267.825 196.165 268.428 196.28 268.954 196.509C269.485 196.738 269.901 197.085 270.203 197.548C270.51 198.007 270.664 198.583 270.664 199.276V203.309C270.664 203.722 270.692 204.094 270.748 204.424C270.809 204.748 270.896 205.03 271.008 205.271V205.405H268.937C268.842 205.187 268.766 204.91 268.711 204.575C268.66 204.234 268.635 203.904 268.635 203.585ZM268.929 199.888L268.945 201.137H267.495C267.12 201.137 266.79 201.173 266.505 201.246C266.22 201.313 265.983 201.414 265.793 201.548C265.603 201.682 265.46 201.844 265.365 202.034C265.27 202.224 265.222 202.44 265.222 202.68C265.222 202.92 265.278 203.141 265.39 203.342C265.502 203.538 265.664 203.692 265.877 203.803C266.095 203.915 266.357 203.971 266.665 203.971C267.078 203.971 267.439 203.887 267.746 203.72C268.059 203.546 268.305 203.337 268.484 203.091C268.663 202.839 268.758 202.602 268.769 202.378L269.423 203.275C269.356 203.504 269.242 203.75 269.079 204.013C268.917 204.276 268.705 204.527 268.442 204.768C268.185 205.002 267.875 205.195 267.512 205.346C267.154 205.497 266.74 205.573 266.271 205.573C265.678 205.573 265.15 205.455 264.686 205.22C264.222 204.98 263.859 204.659 263.596 204.256C263.333 203.848 263.202 203.387 263.202 202.873C263.202 202.392 263.291 201.967 263.47 201.598C263.655 201.224 263.923 200.911 264.275 200.659C264.633 200.408 265.069 200.218 265.583 200.089C266.097 199.955 266.684 199.888 267.344 199.888H268.929ZM276.533 201.07H274.789V200.047H276.198C276.556 200.047 276.841 200 277.053 199.905C277.271 199.81 277.425 199.678 277.514 199.51C277.609 199.337 277.657 199.136 277.657 198.907C277.657 198.706 277.609 198.516 277.514 198.337C277.425 198.152 277.271 198.001 277.053 197.884C276.835 197.766 276.539 197.708 276.164 197.708C275.857 197.708 275.58 197.758 275.334 197.859C275.094 197.959 274.904 198.099 274.764 198.278C274.625 198.457 274.555 198.664 274.555 198.898H272.534C272.534 198.334 272.693 197.848 273.012 197.439C273.336 197.031 273.769 196.718 274.311 196.5C274.854 196.282 275.449 196.173 276.097 196.173C276.651 196.173 277.148 196.232 277.59 196.349C278.031 196.461 278.406 196.629 278.713 196.853C279.026 197.071 279.264 197.344 279.426 197.674C279.594 197.998 279.678 198.376 279.678 198.806C279.678 199.114 279.605 199.404 279.46 199.678C279.314 199.952 279.105 200.195 278.831 200.408C278.557 200.614 278.224 200.777 277.833 200.894C277.447 201.011 277.014 201.07 276.533 201.07ZM274.789 200.483H276.533C277.07 200.483 277.545 200.536 277.959 200.642C278.372 200.743 278.719 200.894 278.999 201.095C279.278 201.296 279.488 201.545 279.627 201.841C279.773 202.132 279.845 202.467 279.845 202.848C279.845 203.272 279.753 203.655 279.569 203.996C279.39 204.332 279.133 204.617 278.797 204.852C278.467 205.086 278.073 205.265 277.615 205.388C277.157 205.511 276.651 205.573 276.097 205.573C275.494 205.573 274.907 205.472 274.337 205.271C273.772 205.07 273.305 204.759 272.936 204.34C272.573 203.915 272.391 203.376 272.391 202.722H274.412C274.412 202.951 274.482 203.166 274.622 203.367C274.761 203.569 274.963 203.734 275.225 203.862C275.488 203.985 275.804 204.047 276.173 204.047C276.553 204.047 276.863 203.988 277.104 203.871C277.344 203.748 277.523 203.588 277.64 203.393C277.758 203.191 277.816 202.979 277.816 202.755C277.816 202.454 277.758 202.21 277.64 202.026C277.523 201.841 277.344 201.707 277.104 201.623C276.863 201.534 276.561 201.489 276.198 201.489H274.789V200.483ZM283.593 198.077V208.893H281.573V196.333H283.434L283.593 198.077ZM289.505 200.785V200.961C289.505 201.621 289.426 202.233 289.27 202.797C289.119 203.356 288.892 203.845 288.591 204.265C288.294 204.678 287.928 205 287.492 205.229C287.056 205.458 286.553 205.573 285.983 205.573C285.418 205.573 284.924 205.469 284.499 205.262C284.08 205.05 283.725 204.751 283.434 204.365C283.143 203.98 282.909 203.527 282.73 203.007C282.556 202.481 282.433 201.906 282.361 201.28V200.6C282.433 199.935 282.556 199.332 282.73 198.789C282.909 198.247 283.143 197.78 283.434 197.389C283.725 196.998 284.08 196.696 284.499 196.484C284.918 196.271 285.407 196.165 285.966 196.165C286.536 196.165 287.042 196.277 287.484 196.5C287.925 196.718 288.297 197.031 288.599 197.439C288.901 197.842 289.127 198.328 289.278 198.898C289.429 199.463 289.505 200.092 289.505 200.785ZM287.484 200.961V200.785C287.484 200.366 287.445 199.977 287.366 199.619C287.288 199.256 287.165 198.938 286.997 198.664C286.83 198.39 286.615 198.177 286.352 198.026C286.095 197.87 285.785 197.792 285.421 197.792C285.063 197.792 284.756 197.853 284.499 197.976C284.242 198.093 284.027 198.258 283.853 198.471C283.68 198.683 283.546 198.932 283.451 199.217C283.356 199.497 283.289 199.801 283.25 200.131V201.758C283.317 202.16 283.431 202.529 283.593 202.864C283.755 203.2 283.985 203.468 284.281 203.669C284.583 203.865 284.968 203.963 285.438 203.963C285.801 203.963 286.112 203.884 286.369 203.728C286.626 203.571 286.835 203.356 286.997 203.082C287.165 202.803 287.288 202.481 287.366 202.118C287.445 201.755 287.484 201.369 287.484 200.961ZM295.223 205.573C294.552 205.573 293.946 205.464 293.403 205.246C292.867 205.022 292.408 204.712 292.028 204.315C291.654 203.918 291.366 203.451 291.165 202.915C290.963 202.378 290.863 201.799 290.863 201.179V200.844C290.863 200.134 290.966 199.491 291.173 198.915C291.38 198.339 291.668 197.848 292.037 197.439C292.406 197.026 292.842 196.71 293.345 196.492C293.848 196.274 294.393 196.165 294.98 196.165C295.628 196.165 296.195 196.274 296.682 196.492C297.168 196.71 297.571 197.017 297.889 197.414C298.213 197.806 298.454 198.272 298.61 198.815C298.772 199.357 298.853 199.955 298.853 200.609V201.472H291.844V200.022H296.858V199.863C296.847 199.499 296.774 199.158 296.64 198.84C296.511 198.521 296.313 198.264 296.045 198.068C295.776 197.873 295.418 197.775 294.971 197.775C294.636 197.775 294.337 197.848 294.074 197.993C293.817 198.133 293.602 198.337 293.429 198.605C293.255 198.873 293.121 199.197 293.026 199.578C292.937 199.952 292.892 200.374 292.892 200.844V201.179C292.892 201.576 292.945 201.945 293.051 202.286C293.163 202.621 293.325 202.915 293.538 203.166C293.75 203.418 294.007 203.616 294.309 203.762C294.611 203.901 294.955 203.971 295.34 203.971C295.827 203.971 296.26 203.873 296.64 203.678C297.02 203.482 297.35 203.205 297.629 202.848L298.694 203.879C298.498 204.164 298.244 204.438 297.931 204.701C297.618 204.958 297.235 205.167 296.782 205.329C296.335 205.492 295.815 205.573 295.223 205.573ZM300.497 196.333H302.518V203.795H305.393V196.333H307.431V203.795H310.298V196.333H312.319V205.405H300.497V196.333ZM316.587 202.454L320.15 196.333H322.171V205.405H320.15V199.276L316.587 205.405H314.566V196.333H316.587V202.454ZM328.518 196.333V205.405H326.489V196.333H328.518ZM331.495 196.333V197.926H323.563V196.333H331.495ZM334.346 199.217H337.02C337.803 199.217 338.468 199.348 339.016 199.611C339.564 199.874 339.98 200.24 340.265 200.709C340.556 201.173 340.701 201.704 340.701 202.303C340.701 202.744 340.62 203.155 340.458 203.535C340.296 203.91 340.056 204.237 339.737 204.516C339.424 204.796 339.038 205.014 338.58 205.17C338.127 205.327 337.607 205.405 337.02 205.405H333.004V196.333H335.033V203.803H337.02C337.423 203.803 337.744 203.734 337.985 203.594C338.225 203.454 338.398 203.272 338.505 203.049C338.616 202.825 338.672 202.588 338.672 202.336C338.672 202.079 338.616 201.836 338.505 201.607C338.398 201.377 338.225 201.19 337.985 201.045C337.744 200.9 337.423 200.827 337.02 200.827H334.346V199.217ZM348.239 196.333H350.26L350.159 199.527C350.131 200.455 350.025 201.252 349.841 201.917C349.656 202.582 349.416 203.144 349.119 203.602C348.823 204.055 348.488 204.427 348.113 204.717C347.744 205.008 347.356 205.237 346.948 205.405H346.353V203.812L346.638 203.795C346.878 203.538 347.085 203.281 347.258 203.024C347.437 202.761 347.588 202.473 347.711 202.16C347.834 201.841 347.929 201.47 347.996 201.045C348.069 200.62 348.116 200.114 348.138 199.527L348.239 196.333ZM348.776 196.333H354.528V205.405H352.515V198.043H348.776V196.333ZM345.891 203.795H355.769V208.105H353.748V205.405H347.937V208.105H345.883L345.891 203.795ZM356.825 200.969V200.777C356.825 200.123 356.92 199.516 357.11 198.957C357.3 198.393 357.574 197.903 357.932 197.49C358.295 197.071 358.737 196.746 359.257 196.517C359.782 196.282 360.375 196.165 361.034 196.165C361.699 196.165 362.292 196.282 362.812 196.517C363.337 196.746 363.781 197.071 364.145 197.49C364.508 197.903 364.785 198.393 364.975 198.957C365.165 199.516 365.26 200.123 365.26 200.777V200.969C365.26 201.623 365.165 202.23 364.975 202.789C364.785 203.348 364.508 203.837 364.145 204.256C363.781 204.67 363.34 204.994 362.82 205.229C362.3 205.458 361.71 205.573 361.051 205.573C360.386 205.573 359.79 205.458 359.265 205.229C358.745 204.994 358.304 204.67 357.94 204.256C357.577 203.837 357.3 203.348 357.11 202.789C356.92 202.23 356.825 201.623 356.825 200.969ZM358.846 200.777V200.969C358.846 201.377 358.888 201.763 358.971 202.127C359.055 202.49 359.187 202.808 359.366 203.082C359.544 203.356 359.774 203.571 360.053 203.728C360.333 203.884 360.665 203.963 361.051 203.963C361.425 203.963 361.75 203.884 362.024 203.728C362.303 203.571 362.532 203.356 362.711 203.082C362.89 202.808 363.021 202.49 363.105 202.127C363.195 201.763 363.239 201.377 363.239 200.969V200.777C363.239 200.374 363.195 199.994 363.105 199.636C363.021 199.273 362.887 198.952 362.703 198.672C362.524 198.393 362.295 198.175 362.015 198.018C361.741 197.856 361.414 197.775 361.034 197.775C360.654 197.775 360.324 197.856 360.045 198.018C359.771 198.175 359.544 198.393 359.366 198.672C359.187 198.952 359.055 199.273 358.971 199.636C358.888 199.994 358.846 200.374 358.846 200.777ZM370.66 203.963C370.99 203.963 371.286 203.898 371.548 203.77C371.817 203.636 372.032 203.451 372.194 203.217C372.362 202.982 372.454 202.711 372.471 202.403H374.374C374.363 202.99 374.19 203.524 373.854 204.005C373.519 204.485 373.075 204.868 372.521 205.153C371.968 205.433 371.356 205.573 370.685 205.573C369.992 205.573 369.388 205.455 368.874 205.22C368.36 204.98 367.932 204.65 367.591 204.231C367.25 203.812 366.993 203.328 366.82 202.781C366.652 202.233 366.568 201.646 366.568 201.02V200.726C366.568 200.1 366.652 199.513 366.82 198.965C366.993 198.412 367.25 197.926 367.591 197.507C367.932 197.087 368.36 196.76 368.874 196.526C369.388 196.285 369.989 196.165 370.676 196.165C371.403 196.165 372.04 196.31 372.588 196.601C373.136 196.886 373.566 197.286 373.879 197.8C374.198 198.309 374.363 198.901 374.374 199.578H372.471C372.454 199.242 372.37 198.94 372.219 198.672C372.074 198.398 371.867 198.18 371.599 198.018C371.336 197.856 371.02 197.775 370.651 197.775C370.243 197.775 369.905 197.859 369.637 198.026C369.368 198.189 369.159 198.412 369.008 198.697C368.857 198.977 368.748 199.292 368.681 199.645C368.619 199.991 368.589 200.352 368.589 200.726V201.02C368.589 201.394 368.619 201.758 368.681 202.11C368.742 202.462 368.849 202.778 369 203.057C369.156 203.331 369.368 203.552 369.637 203.72C369.905 203.882 370.246 203.963 370.66 203.963ZM380.134 196.333V205.405H378.105V196.333H380.134ZM383.111 196.333V197.926H375.179V196.333H383.111ZM387.194 204.416L389.659 196.333H391.823L388.184 206.788C388.1 207.012 387.991 207.255 387.857 207.518C387.723 207.781 387.546 208.029 387.328 208.264C387.116 208.504 386.851 208.697 386.532 208.843C386.213 208.994 385.828 209.069 385.375 209.069C385.196 209.069 385.023 209.052 384.855 209.019C384.693 208.991 384.539 208.96 384.394 208.926L384.385 207.384C384.441 207.389 384.508 207.395 384.587 207.4C384.671 207.406 384.738 207.409 384.788 207.409C385.123 207.409 385.403 207.367 385.626 207.283C385.85 207.205 386.032 207.076 386.171 206.897C386.317 206.719 386.44 206.478 386.54 206.176L387.194 204.416ZM385.802 196.333L387.957 203.124L388.318 205.254L386.918 205.615L383.622 196.333H385.802ZM399.067 196.333V197.943H394.59V196.333H399.067ZM395.067 196.333V205.405H393.047V196.333H395.067ZM400.652 196.333V205.405H398.623V196.333H400.652Z" fill="white"/>
</g>
<defs>
<filter id="filter0_d_129_16040" x="13.4923" y="161.874" width="628.477" height="86.1013" filterUnits="userSpaceOnUse" color-interpolation-filters="sRGB">
<feFlood flood-opacity="0" result="BackgroundImageFix"/>
<feColorMatrix in="SourceAlpha" type="matrix" values="0 0 0 0 0 0 0 0 0 0 0 0 0 0 0 0 0 0 127 0" result="hardAlpha"/>
<feOffset dy="4.90623"/>
<feGaussianBlur stdDeviation="9.19918"/>
<feComposite in2="hardAlpha" operator="out"/>
<feColorMatrix type="matrix" values="0 0 0 0 0.141176 0 0 0 0 0.709804 0 0 0 0 0.956863 0 0 0 0.3 0"/>
<feBlend mode="normal" in2="BackgroundImageFix" result="effect1_dropShadow_129_16040"/>
<feBlend mode="normal" in="SourceGraphic" in2="effect1_dropShadow_129_16040" result="shape"/>
</filter>
</defs>
</svg>
