<svg width="28" height="28" viewBox="0 0 28 28" fill="none" xmlns="http://www.w3.org/2000/svg">
<path d="M3.99984 27.3333C5.83317 27.3333 7.33317 25.8333 7.33317 24V12.3333C7.33317 10.5 5.83317 8.99996 3.99984 8.99996C2.1665 8.99996 0.666504 10.5 0.666504 12.3333V24C0.666504 25.8333 2.1665 27.3333 3.99984 27.3333ZM20.6665 19V24C20.6665 25.8333 22.1665 27.3333 23.9998 27.3333C25.8332 27.3333 27.3332 25.8333 27.3332 24V19C27.3332 17.1666 25.8332 15.6666 23.9998 15.6666C22.1665 15.6666 20.6665 17.1666 20.6665 19ZM13.9998 27.3333C15.8332 27.3333 17.3332 25.8333 17.3332 24V3.99996C17.3332 2.16663 15.8332 0.666626 13.9998 0.666626C12.1665 0.666626 10.6665 2.16663 10.6665 3.99996V24C10.6665 25.8333 12.1665 27.3333 13.9998 27.3333Z" fill="#24B5F4"/>
</svg>
