<svg width="60" height="60" viewBox="0 0 60 60" fill="none" xmlns="http://www.w3.org/2000/svg">
<path d="M0 28.8C0 15.2235 0 8.43532 4.21766 4.21766C8.43532 0 15.2235 0 28.8 0H31.2C44.7765 0 51.5646 0 55.7824 4.21766C60 8.43532 60 15.2235 60 28.8V31.2C60 44.7765 60 51.5646 55.7824 55.7824C51.5646 60 44.7765 60 31.2 60H28.8C15.2235 60 8.43532 60 4.21766 55.7824C0 51.5646 0 44.7765 0 31.2V28.8Z" fill="#0077FF"/>
<path d="M31.9251 43.225C18.2501 43.225 10.4502 33.85 10.1252 18.25H16.9752C17.2002 29.7 22.2501 34.55 26.2501 35.55V18.25H32.7004V28.125C36.6504 27.7 40.7999 23.2 42.1999 18.25H48.65C47.575 24.35 43.075 28.85 39.875 30.7C43.075 32.2 48.2002 36.125 50.1502 43.225H43.05C41.525 38.475 37.7254 34.8 32.7004 34.3V43.225H31.9251Z" fill="white"/>
</svg>
