<svg width="30" height="30" viewBox="0 0 30 30" fill="none" xmlns="http://www.w3.org/2000/svg">
<g clip-path="url(#clip0_9526_13309)">
<path d="M12.4127 23.079L16.2598 19.3359L12.4127 15.5928L8.56563 19.3359L12.4127 23.079Z" fill="#111111"/>
<path d="M12.4384 7.04249L15.3486 4.21094L12.4384 1.37939L9.52822 4.21094L12.4384 7.04249Z" fill="#111111"/>
<path d="M4.67832 23.0556L8.52539 19.3125L4.67832 15.5694L0.831255 19.3125L4.67832 23.0556Z" fill="#111111"/>
<path d="M4.67832 7.95403L8.52539 4.21094L4.67832 0.467845L0.831255 4.21094L4.67832 7.95403Z" fill="#111111"/>
<path d="M12.4125 29.5317L15.0908 26.9258L12.4125 24.3199L9.7342 26.9258L12.4125 29.5317Z" fill="#111111"/>
<path d="M12.4125 14.6299L15.3223 11.7988L12.4125 8.96774L9.5028 11.7988L12.4125 14.6299Z" fill="#111111"/>
<path d="M4.67849 29.4099L7.29785 26.8613L4.67849 24.3128L2.05912 26.8613L4.67849 29.4099Z" fill="#111111"/>
<path d="M4.67832 15.5048L8.52539 11.7617L4.67832 8.01863L0.831256 11.7617L4.67832 15.5048Z" fill="#111111"/>
<path d="M20.146 20.3072L21.1162 19.3633L20.146 18.4193L19.1758 19.3633L20.146 20.3072Z" fill="#111111"/>
<path d="M20.1467 6.14948L22.0869 4.26172L20.1467 2.37396L18.2065 4.26172L20.1467 6.14948Z" fill="#111111"/>
<path d="M27.9263 20.3072L28.8965 19.3633L27.9263 18.4193L26.9561 19.3633L27.9263 20.3072Z" fill="#111111"/>
<path d="M24.0464 24.0631L25.0166 23.1191L24.0464 22.1752L23.0762 23.1191L24.0464 24.0631Z" fill="#111111"/>
<path d="M17.2554 24.0631L18.2256 23.1191L17.2554 22.1752L16.2852 23.1191L17.2554 24.0631Z" fill="#111111"/>
<path d="M27.9273 6.12921L29.8467 4.26172L27.9273 2.39423L26.0079 4.26172L27.9273 6.12921Z" fill="#111111"/>
<path d="M20.146 27.8385L21.1162 26.8945L20.146 25.9506L19.1758 26.8945L20.146 27.8385Z" fill="#111111"/>
<path d="M20.1454 13.701L22.1064 11.793L20.1454 9.88493L18.1844 11.793L20.1454 13.701Z" fill="#111111"/>
<path d="M27.9263 27.8385L28.8965 26.8945L27.9263 25.9506L26.9561 26.8945L27.9263 27.8385Z" fill="#111111"/>
<path d="M27.926 13.6807L29.8662 11.793L27.926 9.90521L25.9858 11.793L27.926 13.6807Z" fill="#111111"/>
<path d="M24.0461 9.90534L25.9863 8.01758L24.0461 6.12982L22.1059 8.01758L24.0461 9.90534Z" fill="#111111"/>
<path d="M24.0461 17.4561L25.9863 15.5684L24.0461 13.6806L22.1059 15.5684L24.0461 17.4561Z" fill="#111111"/>
<path d="M17.2561 17.4561L19.1963 15.5684L17.2561 13.6806L15.3159 15.5684L17.2561 17.4561Z" fill="#111111"/>
<path d="M16.2854 9.90534L18.2256 8.01758L16.2854 6.12982L14.3452 8.01758L16.2854 9.90534Z" fill="#111111"/>
</g>
<defs>
<clipPath id="clip0_9526_13309">
<rect width="30" height="30" fill="white"/>
</clipPath>
</defs>
</svg>
