<svg width="82" height="79" viewBox="0 0 82 79" fill="none" xmlns="http://www.w3.org/2000/svg">
<path d="M0 14.5602C0 6.60726 6.4471 0.160156 14.4 0.160156H67.6C75.5529 0.160156 82 6.60726 82 14.5602V63.7602C82 71.7131 75.5529 78.1602 67.6 78.1602H14.4C6.4471 78.1602 0 71.7131 0 63.7602V14.5602Z" fill="#438EDC" fill-opacity="0.1"/>
<g clip-path="url(#clip0_6_4337)">
<g clip-path="url(#clip1_6_4337)">
<g clip-path="url(#clip2_6_4337)">
<path d="M44.135 17.2859L45.9034 18.3309C49.2794 20.26 50.4851 24.6006 48.556 27.9766L31.4349 57.637C29.5058 61.013 25.1652 62.2187 21.7892 60.2896L20.0208 59.2446C16.6449 57.3155 15.4392 52.9749 17.3683 49.5989L34.4894 19.8581C36.4185 16.4018 40.759 15.196 44.135 17.2859Z" fill="#FBBD04"/>
<path d="M36.0971 18.0896L37.8655 17.0447C41.2415 15.1156 45.582 16.3213 47.5112 19.6973L64.6322 49.3577C66.5614 52.7337 65.3557 57.0742 61.9797 59.0034L60.2113 60.0483C56.8353 61.9775 52.4948 60.7718 50.5656 57.3958L33.4446 27.8157C31.5958 24.4397 32.7211 20.0992 36.0971 18.0896Z" fill="#438EDC"/>
<path d="M25.0846 60.6916C29.6127 60.6916 33.2834 57.0209 33.2834 52.4928C33.2834 47.9647 29.6127 44.2939 25.0846 44.2939C20.5565 44.2939 16.8858 47.9647 16.8858 52.4928C16.8858 57.0209 20.5565 60.6916 25.0846 60.6916Z" fill="#34A952"/>
</g>
</g>
</g>
<defs>
<clipPath id="clip0_6_4337">
<rect width="50" height="50" fill="white" transform="translate(16.0003 14.1602)"/>
</clipPath>
<clipPath id="clip1_6_4337">
<rect width="50" height="46.46" fill="white" transform="translate(16.0003 16.1602)"/>
</clipPath>
<clipPath id="clip2_6_4337">
<rect width="49.9967" height="46.46" fill="white" transform="translate(16.0023 16.1602)"/>
</clipPath>
</defs>
</svg>
