<svg width="26" height="21" viewBox="0 0 26 21" fill="none" xmlns="http://www.w3.org/2000/svg">
<path d="M11.0333 14.9363C11.5286 15.4316 12.1683 15.6742 12.9524 15.6643C13.7365 15.6544 14.3143 15.3705 14.6857 14.8125L21.619 4.41253L11.219 11.3459C10.6619 11.7173 10.3681 12.2848 10.3375 13.0482C10.307 13.8117 10.5389 14.4411 11.0333 14.9363ZM12.9524 0.698244C14.1698 0.698244 15.3411 0.868688 16.4661 1.20958C17.5911 1.55047 18.6484 2.06097 19.6381 2.7411L17.2857 4.22681C16.6048 3.87602 15.8982 3.61313 15.1661 3.43815C14.434 3.26316 13.6961 3.17526 12.9524 3.17443C10.2079 3.17443 7.87082 4.13891 5.94104 6.06786C4.01127 7.99682 3.04679 10.3339 3.04762 13.0792C3.04762 13.9459 3.16647 14.8022 3.40419 15.6482C3.6419 16.4943 3.97701 17.2887 4.40952 18.0316H21.4952C21.9698 17.2474 22.3157 16.4324 22.5328 15.5863C22.7498 14.7403 22.858 13.8633 22.8571 12.9554C22.8571 12.2125 22.7692 11.4903 22.5934 10.7887C22.4176 10.0871 22.1547 9.40618 21.8048 8.74586L23.2905 6.39348C23.9095 7.36332 24.3998 8.39507 24.7613 9.48872C25.1229 10.5824 25.3135 11.7173 25.3333 12.8935C25.354 14.0697 25.2198 15.1943 24.9309 16.2673C24.6421 17.3403 24.219 18.3617 23.6619 19.3316C23.4349 19.703 23.1254 19.9919 22.7333 20.1982C22.3413 20.4046 21.9286 20.5078 21.4952 20.5078H4.40952C3.97619 20.5078 3.56349 20.4046 3.17143 20.1982C2.77936 19.9919 2.46984 19.703 2.24285 19.3316C1.70635 18.403 1.29365 17.4175 1.00476 16.375C0.715871 15.3325 0.571426 14.2339 0.571426 13.0792C0.571426 11.3665 0.896633 9.76193 1.54705 8.26548C2.19746 6.76904 3.08476 5.45913 4.20895 4.33577C5.33314 3.21075 6.648 2.32304 8.15352 1.67262C9.65904 1.02221 11.2587 0.697418 12.9524 0.698244Z" fill="#4399FF"/>
</svg>
