<svg width="380" height="148" viewBox="0 0 380 148" fill="none" xmlns="http://www.w3.org/2000/svg">
<rect width="380" height="148" rx="12.4084" fill="white"/>
<rect width="380" height="148" rx="12.4084" fill="white"/>
<path d="M161.702 124.524H159.188L159.175 123.284H161.37C161.74 123.284 162.054 123.23 162.312 123.122C162.574 123.009 162.773 122.849 162.908 122.641C163.044 122.428 163.111 122.173 163.111 121.875C163.111 121.545 163.048 121.277 162.922 121.069C162.795 120.861 162.601 120.71 162.339 120.615C162.081 120.52 161.752 120.473 161.35 120.473H159.703V128.982H158.003V119.118H161.35C161.892 119.118 162.375 119.17 162.8 119.273C163.229 119.377 163.592 119.54 163.89 119.761C164.193 119.978 164.421 120.254 164.575 120.588C164.733 120.922 164.812 121.32 164.812 121.78C164.812 122.187 164.715 122.559 164.521 122.898C164.326 123.232 164.04 123.506 163.66 123.718C163.281 123.93 162.809 124.057 162.244 124.097L161.702 124.524ZM161.628 128.982H158.653L159.419 127.634H161.628C162.011 127.634 162.332 127.571 162.59 127.444C162.847 127.313 163.039 127.135 163.166 126.909C163.296 126.679 163.362 126.41 163.362 126.103C163.362 125.782 163.306 125.504 163.193 125.27C163.08 125.03 162.901 124.847 162.657 124.721C162.413 124.59 162.095 124.524 161.702 124.524H159.791L159.805 123.284H162.291L162.678 123.752C163.22 123.77 163.665 123.89 164.012 124.111C164.365 124.332 164.627 124.619 164.798 124.971C164.97 125.324 165.056 125.703 165.056 126.11C165.056 126.738 164.918 127.264 164.643 127.688C164.372 128.113 163.981 128.436 163.47 128.657C162.96 128.874 162.346 128.982 161.628 128.982ZM168.369 121.652V128.982H166.736V121.652H168.369ZM173.152 121.652L169.853 126.062H167.99L167.773 124.585H169.135L171.113 121.652H173.152ZM171.242 128.982L169.033 125.784L170.32 124.856L173.389 128.982H171.242ZM179.203 121.652V122.952H175.625V121.652H179.203ZM180.483 121.652V128.982H178.85V121.652H180.483ZM175.225 121.652H176.838L176.642 125.276C176.614 125.814 176.56 126.288 176.479 126.699C176.402 127.106 176.298 127.456 176.167 127.749C176.036 128.038 175.876 128.273 175.686 128.454C175.497 128.635 175.275 128.768 175.022 128.854C174.769 128.94 174.485 128.982 174.169 128.982H173.66L173.654 127.641L173.911 127.621C174.078 127.607 174.223 127.564 174.345 127.492C174.467 127.415 174.571 127.307 174.656 127.167C174.747 127.027 174.819 126.846 174.873 126.625C174.932 126.403 174.977 126.141 175.009 125.839C175.045 125.536 175.072 125.184 175.09 124.782L175.225 121.652ZM182.285 128.169C182.285 127.916 182.371 127.704 182.543 127.533C182.714 127.356 182.947 127.268 183.241 127.268C183.539 127.268 183.771 127.356 183.939 127.533C184.11 127.704 184.196 127.916 184.196 128.169C184.196 128.422 184.11 128.635 183.939 128.806C183.771 128.978 183.539 129.064 183.241 129.064C182.947 129.064 182.714 128.978 182.543 128.806C182.371 128.635 182.285 128.422 182.285 128.169Z" fill="#27C58B"/>
<rect x="189.707" y="116.973" width="35.6805" height="13.8758" rx="6.93788" fill="#27C58B" fill-opacity="0.68"/>
<g filter="url(#filter0_ddd_6_4810)">
<rect x="205.564" y="114" width="19.8225" height="19.8225" rx="9.91126" fill="#27C58B"/>
</g>
<path d="M170.5 23.0244C170.5 19.1449 173.645 16 177.524 16H203.476C207.355 16 210.5 19.1449 210.5 23.0244V47.0244C210.5 50.9039 207.355 54.0488 203.476 54.0488H177.524C173.645 54.0488 170.5 50.9039 170.5 47.0244V23.0244Z" fill="#438EDC" fill-opacity="0.1"/>
<g clip-path="url(#clip0_6_4810)">
<g clip-path="url(#clip1_6_4810)">
<g clip-path="url(#clip2_6_4810)">
<g clip-path="url(#clip3_6_4810)">
<path d="M192.029 24.354L192.892 24.8638C194.539 25.8048 195.127 27.9222 194.186 29.569L185.834 44.0375C184.893 45.6843 182.776 46.2725 181.129 45.3314L180.266 44.8217C178.619 43.8807 178.031 41.7633 178.972 40.1165L187.324 25.6088C188.265 23.9227 190.382 23.3346 192.029 24.354Z" fill="#FBBD04"/>
<path d="M188.108 24.746L188.971 24.2362C190.618 23.2952 192.735 23.8833 193.676 25.5302L202.028 39.9987C202.969 41.6455 202.381 43.7628 200.734 44.7039L199.871 45.2136C198.224 46.1546 196.107 45.5665 195.166 43.9197L186.814 29.4904C185.912 27.8435 186.461 25.7262 188.108 24.746Z" fill="#438EDC"/>
<path d="M182.736 45.5272C184.945 45.5272 186.736 43.7366 186.736 41.5277C186.736 39.3189 184.945 37.5283 182.736 37.5283C180.527 37.5283 178.737 39.3189 178.737 41.5277C178.737 43.7366 180.527 45.5272 182.736 45.5272Z" fill="#34A952"/>
</g>
</g>
</g>
</g>
<path d="M91.9482 70.9141H89.9619V69.5166H91.5439C92.0068 69.5166 92.3818 69.4463 92.6689 69.3057C92.9561 69.1592 93.167 68.9541 93.3018 68.6904C93.4365 68.4268 93.5039 68.1162 93.5039 67.7588C93.5039 67.4658 93.4277 67.1963 93.2754 66.9502C93.1289 66.7041 92.9004 66.5078 92.5898 66.3613C92.2793 66.209 91.8838 66.1328 91.4033 66.1328C91.04 66.1328 90.709 66.1973 90.4102 66.3262C90.1113 66.4551 89.874 66.6367 89.6982 66.8711C89.5225 67.0996 89.4346 67.3779 89.4346 67.7061H86.8066C86.8066 67.1436 86.9268 66.6396 87.167 66.1943C87.4131 65.7432 87.7471 65.3623 88.1689 65.0518C88.5967 64.7354 89.0889 64.4951 89.6455 64.3311C90.2021 64.167 90.7881 64.085 91.4033 64.085C92.124 64.085 92.7744 64.1641 93.3545 64.3223C93.9346 64.4746 94.4326 64.7031 94.8486 65.0078C95.2646 65.3125 95.584 65.6904 95.8066 66.1416C96.0293 66.5928 96.1406 67.1172 96.1406 67.7148C96.1406 68.1543 96.041 68.5674 95.8418 68.9541C95.6426 69.3408 95.3584 69.6807 94.9893 69.9736C94.6201 70.2666 94.1777 70.498 93.6621 70.668C93.1465 70.832 92.5752 70.9141 91.9482 70.9141ZM89.9619 70.1494H91.9482C92.6455 70.1494 93.2637 70.2227 93.8027 70.3691C94.3477 70.5156 94.8076 70.7295 95.1826 71.0107C95.5635 71.292 95.8506 71.6406 96.0439 72.0566C96.2432 72.4668 96.3428 72.9385 96.3428 73.4717C96.3428 74.0693 96.2197 74.5996 95.9736 75.0625C95.7334 75.5254 95.3906 75.918 94.9453 76.2402C94.5059 76.5625 93.9844 76.8057 93.3809 76.9697C92.7832 77.1338 92.124 77.2158 91.4033 77.2158C90.8291 77.2158 90.2578 77.1455 89.6895 77.0049C89.1211 76.8584 88.6055 76.6357 88.1426 76.3369C87.6797 76.0381 87.3105 75.6543 87.0352 75.1855C86.7598 74.7168 86.6221 74.1543 86.6221 73.498H89.2676C89.2676 73.8086 89.3584 74.0928 89.54 74.3506C89.7217 74.6025 89.9736 74.8047 90.2959 74.957C90.6182 75.1035 90.9873 75.1768 91.4033 75.1768C91.8896 75.1768 92.3027 75.1006 92.6426 74.9482C92.9883 74.7959 93.249 74.5879 93.4248 74.3242C93.6064 74.0547 93.6973 73.7588 93.6973 73.4365C93.6973 73.0908 93.6504 72.7979 93.5566 72.5576C93.4629 72.3174 93.3252 72.1211 93.1436 71.9688C92.9619 71.8105 92.7363 71.6963 92.4668 71.626C92.2031 71.5557 91.8955 71.5205 91.5439 71.5205H89.9619V70.1494ZM103.269 74.9043V70.668C103.269 70.3633 103.219 70.1025 103.119 69.8857C103.02 69.6631 102.864 69.4902 102.653 69.3672C102.448 69.2441 102.182 69.1826 101.854 69.1826C101.572 69.1826 101.329 69.2324 101.124 69.332C100.919 69.4258 100.761 69.5635 100.649 69.7451C100.538 69.9209 100.482 70.1289 100.482 70.3691H97.9512C97.9512 69.9648 98.0449 69.5811 98.2324 69.2178C98.4199 68.8545 98.6924 68.5352 99.0498 68.2598C99.4072 67.9785 99.832 67.7588 100.324 67.6006C100.822 67.4424 101.379 67.3633 101.994 67.3633C102.732 67.3633 103.389 67.4863 103.963 67.7324C104.537 67.9785 104.988 68.3477 105.316 68.8398C105.65 69.332 105.817 69.9473 105.817 70.6855V74.7549C105.817 75.2764 105.85 75.7041 105.914 76.0381C105.979 76.3662 106.072 76.6533 106.195 76.8994V77.0488H103.638C103.515 76.791 103.421 76.4688 103.356 76.082C103.298 75.6895 103.269 75.2969 103.269 74.9043ZM103.603 71.2568L103.62 72.6895H102.205C101.871 72.6895 101.581 72.7275 101.335 72.8037C101.089 72.8799 100.887 72.9883 100.729 73.1289C100.57 73.2637 100.453 73.4219 100.377 73.6035C100.307 73.7852 100.271 73.9844 100.271 74.2012C100.271 74.418 100.321 74.6143 100.421 74.79C100.521 74.96 100.664 75.0947 100.852 75.1943C101.039 75.2881 101.259 75.335 101.511 75.335C101.892 75.335 102.223 75.2588 102.504 75.1064C102.785 74.9541 103.002 74.7666 103.154 74.5439C103.312 74.3213 103.395 74.1104 103.4 73.9111L104.068 74.9834C103.975 75.2236 103.846 75.4727 103.682 75.7305C103.523 75.9883 103.321 76.2314 103.075 76.46C102.829 76.6826 102.533 76.8672 102.188 77.0137C101.842 77.1543 101.432 77.2246 100.957 77.2246C100.354 77.2246 99.8057 77.1045 99.3135 76.8643C98.8271 76.6182 98.4404 76.2812 98.1533 75.8535C97.8721 75.4199 97.7314 74.9277 97.7314 74.377C97.7314 73.8789 97.8252 73.4365 98.0127 73.0498C98.2002 72.6631 98.4756 72.3379 98.8389 72.0742C99.208 71.8047 99.668 71.6025 100.219 71.4678C100.77 71.3271 101.408 71.2568 102.135 71.2568H103.603ZM122.508 75.0801L122.332 79.8701H119.977V77.0488H118.913V75.0801H122.508ZM107.733 67.5391H110.265V75.0713H112.901V67.5391H115.441V75.0713H118.069V67.5391H120.601V77.0488H107.733V67.5391ZM126.533 73.5156L129.724 67.5391H132.255V77.0488H129.724V71.0635L126.533 77.0488H124.002V67.5391H126.533V73.5156ZM139.049 67.5391V77.0488H136.509V67.5391H139.049ZM142.107 67.5391V69.499H133.494V67.5391H142.107ZM148.392 74.9043V70.668C148.392 70.3633 148.342 70.1025 148.242 69.8857C148.143 69.6631 147.987 69.4902 147.776 69.3672C147.571 69.2441 147.305 69.1826 146.977 69.1826C146.695 69.1826 146.452 69.2324 146.247 69.332C146.042 69.4258 145.884 69.5635 145.772 69.7451C145.661 69.9209 145.605 70.1289 145.605 70.3691H143.074C143.074 69.9648 143.168 69.5811 143.355 69.2178C143.543 68.8545 143.815 68.5352 144.173 68.2598C144.53 67.9785 144.955 67.7588 145.447 67.6006C145.945 67.4424 146.502 67.3633 147.117 67.3633C147.855 67.3633 148.512 67.4863 149.086 67.7324C149.66 67.9785 150.111 68.3477 150.439 68.8398C150.773 69.332 150.94 69.9473 150.94 70.6855V74.7549C150.94 75.2764 150.973 75.7041 151.037 76.0381C151.102 76.3662 151.195 76.6533 151.318 76.8994V77.0488H148.761C148.638 76.791 148.544 76.4688 148.479 76.082C148.421 75.6895 148.392 75.2969 148.392 74.9043ZM148.726 71.2568L148.743 72.6895H147.328C146.994 72.6895 146.704 72.7275 146.458 72.8037C146.212 72.8799 146.01 72.9883 145.852 73.1289C145.693 73.2637 145.576 73.4219 145.5 73.6035C145.43 73.7852 145.395 73.9844 145.395 74.2012C145.395 74.418 145.444 74.6143 145.544 74.79C145.644 74.96 145.787 75.0947 145.975 75.1943C146.162 75.2881 146.382 75.335 146.634 75.335C147.015 75.335 147.346 75.2588 147.627 75.1064C147.908 74.9541 148.125 74.7666 148.277 74.5439C148.436 74.3213 148.518 74.1104 148.523 73.9111L149.191 74.9834C149.098 75.2236 148.969 75.4727 148.805 75.7305C148.646 75.9883 148.444 76.2314 148.198 76.46C147.952 76.6826 147.656 76.8672 147.311 77.0137C146.965 77.1543 146.555 77.2246 146.08 77.2246C145.477 77.2246 144.929 77.1045 144.437 76.8643C143.95 76.6182 143.563 76.2812 143.276 75.8535C142.995 75.4199 142.854 74.9277 142.854 74.377C142.854 73.8789 142.948 73.4365 143.136 73.0498C143.323 72.6631 143.599 72.3379 143.962 72.0742C144.331 71.8047 144.791 71.6025 145.342 71.4678C145.893 71.3271 146.531 71.2568 147.258 71.2568H148.726ZM156.97 72.3906V72.2061C156.97 71.5088 157.069 70.8672 157.269 70.2812C157.468 69.6895 157.758 69.1768 158.139 68.7432C158.52 68.3096 158.988 67.9727 159.545 67.7324C160.102 67.4863 160.74 67.3633 161.461 67.3633C162.182 67.3633 162.823 67.4863 163.386 67.7324C163.948 67.9727 164.42 68.3096 164.801 68.7432C165.188 69.1768 165.48 69.6895 165.68 70.2812C165.879 70.8672 165.979 71.5088 165.979 72.2061V72.3906C165.979 73.082 165.879 73.7236 165.68 74.3154C165.48 74.9014 165.188 75.4141 164.801 75.8535C164.42 76.2871 163.951 76.624 163.395 76.8643C162.838 77.1045 162.199 77.2246 161.479 77.2246C160.758 77.2246 160.116 77.1045 159.554 76.8643C158.997 76.624 158.525 76.2871 158.139 75.8535C157.758 75.4141 157.468 74.9014 157.269 74.3154C157.069 73.7236 156.97 73.082 156.97 72.3906ZM159.501 72.2061V72.3906C159.501 72.7891 159.536 73.1611 159.606 73.5068C159.677 73.8525 159.788 74.1572 159.94 74.4209C160.099 74.6787 160.304 74.8809 160.556 75.0273C160.808 75.1738 161.115 75.2471 161.479 75.2471C161.83 75.2471 162.132 75.1738 162.384 75.0273C162.636 74.8809 162.838 74.6787 162.99 74.4209C163.143 74.1572 163.254 73.8525 163.324 73.5068C163.4 73.1611 163.438 72.7891 163.438 72.3906V72.2061C163.438 71.8193 163.4 71.4561 163.324 71.1162C163.254 70.7705 163.14 70.4658 162.981 70.2021C162.829 69.9326 162.627 69.7217 162.375 69.5693C162.123 69.417 161.818 69.3408 161.461 69.3408C161.104 69.3408 160.799 69.417 160.547 69.5693C160.301 69.7217 160.099 69.9326 159.94 70.2021C159.788 70.4658 159.677 70.7705 159.606 71.1162C159.536 71.4561 159.501 71.8193 159.501 72.2061ZM172.131 67.5391V77.0488H169.591V67.5391H172.131ZM175.189 67.5391V69.499H166.576V67.5391H175.189ZM184.893 75.2471C185.203 75.2471 185.479 75.1885 185.719 75.0713C185.959 74.9482 186.146 74.7783 186.281 74.5615C186.422 74.3389 186.495 74.0781 186.501 73.7793H188.883C188.877 74.4473 188.698 75.042 188.347 75.5635C187.995 76.0791 187.523 76.4863 186.932 76.7852C186.34 77.0781 185.678 77.2246 184.945 77.2246C184.207 77.2246 183.562 77.1016 183.012 76.8555C182.467 76.6094 182.013 76.2695 181.649 75.8359C181.286 75.3965 181.014 74.8867 180.832 74.3066C180.65 73.7207 180.56 73.0938 180.56 72.4258V72.1709C180.56 71.4971 180.65 70.8701 180.832 70.29C181.014 69.7041 181.286 69.1943 181.649 68.7607C182.013 68.3213 182.467 67.9785 183.012 67.7324C183.557 67.4863 184.195 67.3633 184.928 67.3633C185.707 67.3633 186.39 67.5127 186.976 67.8115C187.567 68.1104 188.03 68.5381 188.364 69.0947C188.704 69.6455 188.877 70.2988 188.883 71.0547H186.501C186.495 70.7383 186.428 70.4512 186.299 70.1934C186.176 69.9355 185.994 69.7305 185.754 69.5781C185.52 69.4199 185.229 69.3408 184.884 69.3408C184.515 69.3408 184.213 69.4199 183.979 69.5781C183.744 69.7305 183.562 69.9414 183.434 70.2109C183.305 70.4746 183.214 70.7764 183.161 71.1162C183.114 71.4502 183.091 71.8018 183.091 72.1709V72.4258C183.091 72.7949 183.114 73.1494 183.161 73.4893C183.208 73.8291 183.296 74.1309 183.425 74.3945C183.56 74.6582 183.744 74.8662 183.979 75.0186C184.213 75.1709 184.518 75.2471 184.893 75.2471ZM193.049 67.5391V77.0488H190.518V67.5391H193.049ZM199.228 67.5391L195.132 73.4893H192.601L192.293 71.1514H193.972L196.02 67.5391H199.228ZM196.134 77.0488L193.796 73.0322L196.002 71.8105L199.526 77.0488H196.134ZM206.874 67.5391V69.5254H202.198V67.5391H206.874ZM208.729 67.5391V77.0488H206.197V67.5391H208.729ZM201.565 67.5391H204.053L203.798 72.3379C203.763 73.0234 203.689 73.627 203.578 74.1484C203.467 74.6699 203.317 75.1152 203.13 75.4844C202.948 75.8535 202.729 76.1553 202.471 76.3896C202.219 76.6182 201.923 76.7852 201.583 76.8906C201.249 76.9961 200.88 77.0488 200.476 77.0488H199.702L199.676 75.0537L200.001 75.0186C200.188 75.001 200.353 74.9482 200.493 74.8604C200.64 74.7666 200.763 74.6348 200.862 74.4648C200.968 74.2891 201.056 74.0693 201.126 73.8057C201.196 73.5361 201.252 73.2197 201.293 72.8564C201.34 72.4932 201.372 72.0742 201.39 71.5996L201.565 67.5391ZM213.211 73.5156L216.401 67.5391H218.933V77.0488H216.401V71.0635L213.211 77.0488H210.68V67.5391H213.211V73.5156ZM223.582 67.5391V77.0488H221.051V67.5391H223.582ZM229.761 67.5391L225.665 73.4893H223.134L222.826 71.1514H224.505L226.553 67.5391H229.761ZM226.667 77.0488L224.329 73.0322L226.535 71.8105L230.06 77.0488H226.667ZM233.531 73.5156L236.722 67.5391H239.253V77.0488H236.722V71.0635L233.531 77.0488H231V67.5391H233.531V73.5156ZM245.941 73.0762H242.962L242.944 71.415H245.405C245.733 71.415 246 71.3828 246.205 71.3184C246.41 71.248 246.56 71.1455 246.653 71.0107C246.753 70.8701 246.803 70.7002 246.803 70.501C246.803 70.3252 246.771 70.1758 246.706 70.0527C246.647 69.9238 246.557 69.8184 246.434 69.7363C246.311 69.6543 246.155 69.5957 245.968 69.5605C245.786 69.5195 245.572 69.499 245.326 69.499H243.902V77.0488H241.371V67.5391H245.326C245.947 67.5391 246.504 67.5947 246.996 67.7061C247.488 67.8115 247.907 67.9727 248.253 68.1895C248.604 68.4062 248.871 68.6816 249.053 69.0156C249.24 69.3438 249.334 69.7334 249.334 70.1846C249.334 70.4775 249.267 70.7529 249.132 71.0107C249.003 71.2686 248.81 71.4971 248.552 71.6963C248.294 71.8955 247.975 72.0596 247.594 72.1885C247.219 72.3115 246.785 72.3877 246.293 72.417L245.941 73.0762ZM245.941 77.0488H242.338L243.208 75.0889H245.941C246.252 75.0889 246.507 75.0508 246.706 74.9746C246.905 74.8984 247.052 74.7871 247.146 74.6406C247.245 74.4883 247.295 74.3066 247.295 74.0957C247.295 73.8906 247.251 73.7119 247.163 73.5596C247.075 73.4072 246.932 73.29 246.732 73.208C246.539 73.1201 246.275 73.0762 245.941 73.0762H243.577L243.595 71.415H246.284L246.899 72.083C247.567 72.124 248.118 72.25 248.552 72.4609C248.985 72.6719 249.305 72.9414 249.51 73.2695C249.721 73.5918 249.826 73.9463 249.826 74.333C249.826 74.7842 249.741 75.1797 249.571 75.5195C249.401 75.8594 249.149 76.1436 248.815 76.3721C248.487 76.5947 248.083 76.7646 247.603 76.8818C247.122 76.9932 246.568 77.0488 245.941 77.0488ZM256.515 74.9043V70.668C256.515 70.3633 256.465 70.1025 256.365 69.8857C256.266 69.6631 256.11 69.4902 255.899 69.3672C255.694 69.2441 255.428 69.1826 255.1 69.1826C254.818 69.1826 254.575 69.2324 254.37 69.332C254.165 69.4258 254.007 69.5635 253.896 69.7451C253.784 69.9209 253.729 70.1289 253.729 70.3691H251.197C251.197 69.9648 251.291 69.5811 251.479 69.2178C251.666 68.8545 251.938 68.5352 252.296 68.2598C252.653 67.9785 253.078 67.7588 253.57 67.6006C254.068 67.4424 254.625 67.3633 255.24 67.3633C255.979 67.3633 256.635 67.4863 257.209 67.7324C257.783 67.9785 258.234 68.3477 258.562 68.8398C258.896 69.332 259.063 69.9473 259.063 70.6855V74.7549C259.063 75.2764 259.096 75.7041 259.16 76.0381C259.225 76.3662 259.318 76.6533 259.441 76.8994V77.0488H256.884C256.761 76.791 256.667 76.4688 256.603 76.082C256.544 75.6895 256.515 75.2969 256.515 74.9043ZM256.849 71.2568L256.866 72.6895H255.451C255.117 72.6895 254.827 72.7275 254.581 72.8037C254.335 72.8799 254.133 72.9883 253.975 73.1289C253.816 73.2637 253.699 73.4219 253.623 73.6035C253.553 73.7852 253.518 73.9844 253.518 74.2012C253.518 74.418 253.567 74.6143 253.667 74.79C253.767 74.96 253.91 75.0947 254.098 75.1943C254.285 75.2881 254.505 75.335 254.757 75.335C255.138 75.335 255.469 75.2588 255.75 75.1064C256.031 74.9541 256.248 74.7666 256.4 74.5439C256.559 74.3213 256.641 74.1104 256.646 73.9111L257.314 74.9834C257.221 75.2236 257.092 75.4727 256.928 75.7305C256.77 75.9883 256.567 76.2314 256.321 76.46C256.075 76.6826 255.779 76.8672 255.434 77.0137C255.088 77.1543 254.678 77.2246 254.203 77.2246C253.6 77.2246 253.052 77.1045 252.56 76.8643C252.073 76.6182 251.687 76.2812 251.399 75.8535C251.118 75.4199 250.978 74.9277 250.978 74.377C250.978 73.8789 251.071 73.4365 251.259 73.0498C251.446 72.6631 251.722 72.3379 252.085 72.0742C252.454 71.8047 252.914 71.6025 253.465 71.4678C254.016 71.3271 254.654 71.2568 255.381 71.2568H256.849ZM267.527 71.3799V73.3486H262.693V71.3799H267.527ZM263.537 67.5391V77.0488H261.006V67.5391H263.537ZM269.241 67.5391V77.0488H266.701V67.5391H269.241ZM273.732 73.5156L276.923 67.5391H279.454V77.0488H276.923V71.0635L273.732 77.0488H271.201V67.5391H273.732V73.5156ZM283.453 72.3027H286.02L283.374 77.0488H280.816L283.453 72.3027ZM285.158 67.5391H289.333V77.0488H286.802V69.499H285.158C284.812 69.499 284.525 69.5635 284.297 69.6924C284.068 69.8154 283.898 69.9766 283.787 70.1758C283.682 70.3691 283.629 70.5684 283.629 70.7734C283.629 70.9727 283.682 71.166 283.787 71.3535C283.893 71.541 284.057 71.6963 284.279 71.8193C284.502 71.9424 284.78 72.0039 285.114 72.0039H287.742V73.7266H285.114C284.487 73.7266 283.925 73.6504 283.427 73.498C282.935 73.3457 282.513 73.1348 282.161 72.8652C281.815 72.5898 281.549 72.2705 281.361 71.9072C281.18 71.5381 281.089 71.1338 281.089 70.6943C281.089 70.2373 281.183 69.8184 281.37 69.4375C281.558 69.0566 281.827 68.7227 282.179 68.4355C282.53 68.1484 282.955 67.9287 283.453 67.7764C283.957 67.6182 284.525 67.5391 285.158 67.5391ZM142.23 96.0762H139.251L139.233 94.415H141.694C142.022 94.415 142.289 94.3828 142.494 94.3184C142.699 94.248 142.849 94.1455 142.942 94.0107C143.042 93.8701 143.092 93.7002 143.092 93.501C143.092 93.3252 143.06 93.1758 142.995 93.0527C142.937 92.9238 142.846 92.8184 142.723 92.7363C142.6 92.6543 142.444 92.5957 142.257 92.5605C142.075 92.5195 141.861 92.499 141.615 92.499H140.191V100.049H137.66V90.5391H141.615C142.236 90.5391 142.793 90.5947 143.285 90.7061C143.777 90.8115 144.196 90.9727 144.542 91.1895C144.894 91.4062 145.16 91.6816 145.342 92.0156C145.529 92.3438 145.623 92.7334 145.623 93.1846C145.623 93.4775 145.556 93.7529 145.421 94.0107C145.292 94.2686 145.099 94.4971 144.841 94.6963C144.583 94.8955 144.264 95.0596 143.883 95.1885C143.508 95.3115 143.074 95.3877 142.582 95.417L142.23 96.0762ZM142.23 100.049H138.627L139.497 98.0889H142.23C142.541 98.0889 142.796 98.0508 142.995 97.9746C143.194 97.8984 143.341 97.7871 143.435 97.6406C143.534 97.4883 143.584 97.3066 143.584 97.0957C143.584 96.8906 143.54 96.7119 143.452 96.5596C143.364 96.4072 143.221 96.29 143.021 96.208C142.828 96.1201 142.564 96.0762 142.23 96.0762H139.866L139.884 94.415H142.573L143.188 95.083C143.856 95.124 144.407 95.25 144.841 95.4609C145.274 95.6719 145.594 95.9414 145.799 96.2695C146.01 96.5918 146.115 96.9463 146.115 97.333C146.115 97.7842 146.03 98.1797 145.86 98.5195C145.69 98.8594 145.438 99.1436 145.104 99.3721C144.776 99.5947 144.372 99.7646 143.892 99.8818C143.411 99.9932 142.857 100.049 142.23 100.049ZM162.454 93.3604V98.4316C162.255 98.6719 161.947 98.9326 161.531 99.2139C161.115 99.4893 160.579 99.7266 159.923 99.9258C159.267 100.125 158.473 100.225 157.541 100.225C156.715 100.225 155.962 100.09 155.282 99.8203C154.603 99.5449 154.017 99.1436 153.524 98.6162C153.038 98.0889 152.663 97.4443 152.399 96.6826C152.136 95.915 152.004 95.0391 152.004 94.0547V93.2549C152.004 92.2705 152.13 91.3945 152.382 90.627C152.64 89.8594 153.006 89.2119 153.48 88.6846C153.955 88.1572 154.521 87.7559 155.177 87.4805C155.833 87.2051 156.562 87.0674 157.365 87.0674C158.479 87.0674 159.393 87.249 160.107 87.6123C160.822 87.9697 161.367 88.4678 161.742 89.1064C162.123 89.7393 162.357 90.4658 162.445 91.2861H159.888C159.823 90.8525 159.7 90.4746 159.519 90.1523C159.337 89.8301 159.076 89.5781 158.736 89.3965C158.402 89.2148 157.969 89.124 157.436 89.124C156.996 89.124 156.604 89.2148 156.258 89.3965C155.918 89.5723 155.631 89.833 155.396 90.1787C155.162 90.5244 154.983 90.9521 154.86 91.4619C154.737 91.9717 154.676 92.5635 154.676 93.2373V94.0547C154.676 94.7227 154.74 95.3145 154.869 95.8301C154.998 96.3398 155.188 96.7705 155.44 97.1221C155.698 97.4678 156.015 97.7285 156.39 97.9043C156.765 98.0801 157.201 98.168 157.699 98.168C158.115 98.168 158.461 98.1328 158.736 98.0625C159.018 97.9922 159.243 97.9072 159.413 97.8076C159.589 97.7021 159.724 97.6025 159.817 97.5088V95.2412H157.409V93.3604H162.454ZM164.019 95.3906V95.2061C164.019 94.5088 164.118 93.8672 164.317 93.2812C164.517 92.6895 164.807 92.1768 165.188 91.7432C165.568 91.3096 166.037 90.9727 166.594 90.7324C167.15 90.4863 167.789 90.3633 168.51 90.3633C169.23 90.3633 169.872 90.4863 170.435 90.7324C170.997 90.9727 171.469 91.3096 171.85 91.7432C172.236 92.1768 172.529 92.6895 172.729 93.2812C172.928 93.8672 173.027 94.5088 173.027 95.2061V95.3906C173.027 96.082 172.928 96.7236 172.729 97.3154C172.529 97.9014 172.236 98.4141 171.85 98.8535C171.469 99.2871 171 99.624 170.443 99.8643C169.887 100.104 169.248 100.225 168.527 100.225C167.807 100.225 167.165 100.104 166.603 99.8643C166.046 99.624 165.574 99.2871 165.188 98.8535C164.807 98.4141 164.517 97.9014 164.317 97.3154C164.118 96.7236 164.019 96.082 164.019 95.3906ZM166.55 95.2061V95.3906C166.55 95.7891 166.585 96.1611 166.655 96.5068C166.726 96.8525 166.837 97.1572 166.989 97.4209C167.147 97.6787 167.353 97.8809 167.604 98.0273C167.856 98.1738 168.164 98.2471 168.527 98.2471C168.879 98.2471 169.181 98.1738 169.433 98.0273C169.685 97.8809 169.887 97.6787 170.039 97.4209C170.191 97.1572 170.303 96.8525 170.373 96.5068C170.449 96.1611 170.487 95.7891 170.487 95.3906V95.2061C170.487 94.8193 170.449 94.4561 170.373 94.1162C170.303 93.7705 170.188 93.4658 170.03 93.2021C169.878 92.9326 169.676 92.7217 169.424 92.5693C169.172 92.417 168.867 92.3408 168.51 92.3408C168.152 92.3408 167.848 92.417 167.596 92.5693C167.35 92.7217 167.147 92.9326 166.989 93.2021C166.837 93.4658 166.726 93.7705 166.655 94.1162C166.585 94.4561 166.55 94.8193 166.55 95.2061ZM174.179 95.3906V95.2061C174.179 94.5088 174.278 93.8672 174.478 93.2812C174.677 92.6895 174.967 92.1768 175.348 91.7432C175.729 91.3096 176.197 90.9727 176.754 90.7324C177.311 90.4863 177.949 90.3633 178.67 90.3633C179.391 90.3633 180.032 90.4863 180.595 90.7324C181.157 90.9727 181.629 91.3096 182.01 91.7432C182.396 92.1768 182.689 92.6895 182.889 93.2812C183.088 93.8672 183.188 94.5088 183.188 95.2061V95.3906C183.188 96.082 183.088 96.7236 182.889 97.3154C182.689 97.9014 182.396 98.4141 182.01 98.8535C181.629 99.2871 181.16 99.624 180.604 99.8643C180.047 100.104 179.408 100.225 178.688 100.225C177.967 100.225 177.325 100.104 176.763 99.8643C176.206 99.624 175.734 99.2871 175.348 98.8535C174.967 98.4141 174.677 97.9014 174.478 97.3154C174.278 96.7236 174.179 96.082 174.179 95.3906ZM176.71 95.2061V95.3906C176.71 95.7891 176.745 96.1611 176.815 96.5068C176.886 96.8525 176.997 97.1572 177.149 97.4209C177.308 97.6787 177.513 97.8809 177.765 98.0273C178.017 98.1738 178.324 98.2471 178.688 98.2471C179.039 98.2471 179.341 98.1738 179.593 98.0273C179.845 97.8809 180.047 97.6787 180.199 97.4209C180.352 97.1572 180.463 96.8525 180.533 96.5068C180.609 96.1611 180.647 95.7891 180.647 95.3906V95.2061C180.647 94.8193 180.609 94.4561 180.533 94.1162C180.463 93.7705 180.349 93.4658 180.19 93.2021C180.038 92.9326 179.836 92.7217 179.584 92.5693C179.332 92.417 179.027 92.3408 178.67 92.3408C178.312 92.3408 178.008 92.417 177.756 92.5693C177.51 92.7217 177.308 92.9326 177.149 93.2021C176.997 93.4658 176.886 93.7705 176.815 94.1162C176.745 94.4561 176.71 94.8193 176.71 95.2061ZM190.764 90.5391H193.058V99.7324C193.058 100.6 192.864 101.335 192.478 101.938C192.097 102.548 191.563 103.008 190.878 103.318C190.192 103.635 189.396 103.793 188.487 103.793C188.089 103.793 187.667 103.74 187.222 103.635C186.782 103.529 186.36 103.365 185.956 103.143C185.558 102.92 185.224 102.639 184.954 102.299L186.07 100.805C186.363 101.145 186.703 101.408 187.09 101.596C187.477 101.789 187.904 101.886 188.373 101.886C188.83 101.886 189.217 101.801 189.533 101.631C189.85 101.467 190.093 101.224 190.263 100.901C190.433 100.585 190.518 100.201 190.518 99.75V92.7363L190.764 90.5391ZM184.365 95.4082V95.2236C184.365 94.4971 184.453 93.8379 184.629 93.2461C184.811 92.6484 185.065 92.1357 185.394 91.708C185.728 91.2803 186.132 90.9492 186.606 90.7148C187.081 90.4805 187.617 90.3633 188.215 90.3633C188.848 90.3633 189.378 90.4805 189.806 90.7148C190.233 90.9492 190.585 91.2832 190.86 91.7168C191.136 92.1445 191.35 92.6514 191.502 93.2373C191.66 93.8174 191.783 94.4531 191.871 95.1445V95.5488C191.783 96.2109 191.651 96.8262 191.476 97.3945C191.3 97.9629 191.068 98.4609 190.781 98.8887C190.494 99.3105 190.137 99.6387 189.709 99.873C189.287 100.107 188.783 100.225 188.197 100.225C187.611 100.225 187.081 100.104 186.606 99.8643C186.138 99.624 185.736 99.2871 185.402 98.8535C185.068 98.4199 184.811 97.9102 184.629 97.3242C184.453 96.7383 184.365 96.0996 184.365 95.4082ZM186.896 95.2236V95.4082C186.896 95.8008 186.935 96.167 187.011 96.5068C187.087 96.8467 187.204 97.1484 187.362 97.4121C187.526 97.6699 187.729 97.8721 187.969 98.0186C188.215 98.1592 188.505 98.2295 188.839 98.2295C189.302 98.2295 189.68 98.1328 189.973 97.9395C190.266 97.7402 190.485 97.4678 190.632 97.1221C190.778 96.7764 190.863 96.3779 190.887 95.9268V94.7754C190.875 94.4062 190.825 94.0752 190.737 93.7822C190.649 93.4834 190.526 93.2285 190.368 93.0176C190.21 92.8066 190.005 92.6426 189.753 92.5254C189.501 92.4082 189.202 92.3496 188.856 92.3496C188.522 92.3496 188.232 92.4258 187.986 92.5781C187.746 92.7246 187.544 92.9268 187.38 93.1846C187.222 93.4424 187.102 93.7471 187.02 94.0986C186.938 94.4443 186.896 94.8193 186.896 95.2236ZM197.698 86.5488V100.049H195.158V86.5488H197.698ZM204.167 100.225C203.429 100.225 202.767 100.107 202.181 99.873C201.595 99.6328 201.097 99.3018 200.687 98.8799C200.282 98.458 199.972 97.9688 199.755 97.4121C199.538 96.8496 199.43 96.252 199.43 95.6191V95.2676C199.43 94.5469 199.532 93.8877 199.737 93.29C199.942 92.6924 200.235 92.1738 200.616 91.7344C201.003 91.2949 201.472 90.958 202.022 90.7236C202.573 90.4834 203.194 90.3633 203.886 90.3633C204.56 90.3633 205.157 90.4746 205.679 90.6973C206.2 90.9199 206.637 91.2363 206.988 91.6465C207.346 92.0566 207.615 92.5488 207.797 93.123C207.979 93.6914 208.069 94.3242 208.069 95.0215V96.0762H200.511V94.3887H205.582V94.1953C205.582 93.8438 205.518 93.5303 205.389 93.2549C205.266 92.9736 205.078 92.751 204.826 92.5869C204.574 92.4229 204.252 92.3408 203.859 92.3408C203.525 92.3408 203.238 92.4141 202.998 92.5605C202.758 92.707 202.562 92.9121 202.409 93.1758C202.263 93.4395 202.151 93.75 202.075 94.1074C202.005 94.459 201.97 94.8457 201.97 95.2676V95.6191C201.97 96 202.022 96.3516 202.128 96.6738C202.239 96.9961 202.395 97.2744 202.594 97.5088C202.799 97.7432 203.045 97.9248 203.332 98.0537C203.625 98.1826 203.956 98.2471 204.325 98.2471C204.782 98.2471 205.207 98.1592 205.6 97.9834C205.998 97.8018 206.341 97.5293 206.628 97.166L207.858 98.502C207.659 98.7891 207.387 99.0645 207.041 99.3281C206.701 99.5918 206.291 99.8086 205.811 99.9785C205.33 100.143 204.782 100.225 204.167 100.225ZM219.354 89.4404L215.874 100.049H213.07L217.825 87.252H219.609L219.354 89.4404ZM222.246 100.049L218.757 89.4404L218.476 87.252H220.277L225.059 100.049H222.246ZM222.088 95.2852V97.3506H215.329V95.2852H222.088ZM231.703 97.9746V86.5488H234.252V100.049H231.958L231.703 97.9746ZM225.691 95.4082V95.2236C225.691 94.4971 225.773 93.8379 225.938 93.2461C226.102 92.6484 226.342 92.1357 226.658 91.708C226.975 91.2803 227.364 90.9492 227.827 90.7148C228.29 90.4805 228.817 90.3633 229.409 90.3633C229.966 90.3633 230.452 90.4805 230.868 90.7148C231.29 90.9492 231.647 91.2832 231.94 91.7168C232.239 92.1445 232.479 92.6514 232.661 93.2373C232.843 93.8174 232.975 94.4531 233.057 95.1445V95.5488C232.975 96.2109 232.843 96.8262 232.661 97.3945C232.479 97.9629 232.239 98.4609 231.94 98.8887C231.647 99.3105 231.29 99.6387 230.868 99.873C230.446 100.107 229.954 100.225 229.392 100.225C228.8 100.225 228.272 100.104 227.81 99.8643C227.353 99.624 226.966 99.2871 226.649 98.8535C226.339 98.4199 226.102 97.9102 225.938 97.3242C225.773 96.7383 225.691 96.0996 225.691 95.4082ZM228.223 95.2236V95.4082C228.223 95.8008 228.252 96.167 228.311 96.5068C228.375 96.8467 228.478 97.1484 228.618 97.4121C228.765 97.6699 228.952 97.8721 229.181 98.0186C229.415 98.1592 229.699 98.2295 230.033 98.2295C230.467 98.2295 230.824 98.1328 231.105 97.9395C231.387 97.7402 231.601 97.4678 231.747 97.1221C231.899 96.7764 231.987 96.3779 232.011 95.9268V94.7754C231.993 94.4062 231.94 94.0752 231.853 93.7822C231.771 93.4834 231.647 93.2285 231.483 93.0176C231.325 92.8066 231.126 92.6426 230.886 92.5254C230.651 92.4082 230.373 92.3496 230.051 92.3496C229.723 92.3496 229.441 92.4258 229.207 92.5781C228.973 92.7246 228.782 92.9268 228.636 93.1846C228.495 93.4424 228.39 93.7471 228.319 94.0986C228.255 94.4443 228.223 94.8193 228.223 95.2236ZM241.371 97.4209C241.371 97.2393 241.318 97.0752 241.213 96.9287C241.107 96.7822 240.911 96.6475 240.624 96.5244C240.343 96.3955 239.936 96.2783 239.402 96.1729C238.922 96.0674 238.474 95.9355 238.058 95.7773C237.647 95.6133 237.29 95.417 236.985 95.1885C236.687 94.96 236.452 94.6904 236.282 94.3799C236.112 94.0635 236.027 93.7031 236.027 93.2988C236.027 92.9004 236.112 92.5254 236.282 92.1738C236.458 91.8223 236.707 91.5117 237.029 91.2422C237.357 90.9668 237.756 90.7529 238.225 90.6006C238.699 90.4424 239.232 90.3633 239.824 90.3633C240.65 90.3633 241.359 90.4951 241.951 90.7588C242.549 91.0225 243.006 91.3857 243.322 91.8486C243.645 92.3057 243.806 92.8271 243.806 93.4131H241.274C241.274 93.167 241.222 92.9473 241.116 92.7539C241.017 92.5547 240.858 92.3994 240.642 92.2881C240.431 92.1709 240.155 92.1123 239.815 92.1123C239.534 92.1123 239.291 92.1621 239.086 92.2617C238.881 92.3555 238.723 92.4844 238.611 92.6484C238.506 92.8066 238.453 92.9824 238.453 93.1758C238.453 93.3223 238.482 93.4541 238.541 93.5713C238.605 93.6826 238.708 93.7852 238.849 93.8789C238.989 93.9727 239.171 94.0605 239.394 94.1426C239.622 94.2188 239.903 94.2891 240.237 94.3535C240.923 94.4941 241.535 94.6787 242.074 94.9072C242.613 95.1299 243.041 95.4346 243.357 95.8213C243.674 96.2021 243.832 96.7031 243.832 97.3242C243.832 97.7461 243.738 98.1328 243.551 98.4844C243.363 98.8359 243.094 99.1436 242.742 99.4072C242.391 99.665 241.969 99.8672 241.477 100.014C240.99 100.154 240.442 100.225 239.833 100.225C238.948 100.225 238.198 100.066 237.583 99.75C236.974 99.4336 236.511 99.0322 236.194 98.5459C235.884 98.0537 235.729 97.5498 235.729 97.0342H238.128C238.14 97.3799 238.228 97.6582 238.392 97.8691C238.562 98.0801 238.775 98.2324 239.033 98.3262C239.297 98.4199 239.581 98.4668 239.886 98.4668C240.214 98.4668 240.486 98.4229 240.703 98.335C240.92 98.2412 241.084 98.1182 241.195 97.9658C241.312 97.8076 241.371 97.626 241.371 97.4209Z" fill="#333333"/>
<defs>
<filter id="filter0_ddd_6_4810" x="200.609" y="110.035" width="29.7338" height="29.7335" filterUnits="userSpaceOnUse" color-interpolation-filters="sRGB">
<feFlood flood-opacity="0" result="BackgroundImageFix"/>
<feColorMatrix in="SourceAlpha" type="matrix" values="0 0 0 0 0 0 0 0 0 0 0 0 0 0 0 0 0 0 127 0" result="hardAlpha"/>
<feOffset dy="0.991126"/>
<feGaussianBlur stdDeviation="2.47782"/>
<feComposite in2="hardAlpha" operator="out"/>
<feColorMatrix type="matrix" values="0 0 0 0 0 0 0 0 0 0 0 0 0 0 0 0 0 0 0.12 0"/>
<feBlend mode="normal" in2="BackgroundImageFix" result="effect1_dropShadow_6_4810"/>
<feColorMatrix in="SourceAlpha" type="matrix" values="0 0 0 0 0 0 0 0 0 0 0 0 0 0 0 0 0 0 127 0" result="hardAlpha"/>
<feMorphology radius="1.98225" operator="erode" in="SourceAlpha" result="effect2_dropShadow_6_4810"/>
<feOffset dy="2.97338"/>
<feGaussianBlur stdDeviation="0.495563"/>
<feComposite in2="hardAlpha" operator="out"/>
<feColorMatrix type="matrix" values="0 0 0 0 0 0 0 0 0 0 0 0 0 0 0 0 0 0 0.2 0"/>
<feBlend mode="normal" in2="effect1_dropShadow_6_4810" result="effect2_dropShadow_6_4810"/>
<feColorMatrix in="SourceAlpha" type="matrix" values="0 0 0 0 0 0 0 0 0 0 0 0 0 0 0 0 0 0 127 0" result="hardAlpha"/>
<feOffset dy="1.98225"/>
<feGaussianBlur stdDeviation="0.991126"/>
<feComposite in2="hardAlpha" operator="out"/>
<feColorMatrix type="matrix" values="0 0 0 0 0 0 0 0 0 0 0 0 0 0 0 0 0 0 0.14 0"/>
<feBlend mode="normal" in2="effect2_dropShadow_6_4810" result="effect3_dropShadow_6_4810"/>
<feBlend mode="normal" in="SourceGraphic" in2="effect3_dropShadow_6_4810" result="shape"/>
</filter>
<clipPath id="clip0_6_4810">
<rect width="25.3131" height="29.2683" fill="white" transform="translate(178.087 20.5957)"/>
</clipPath>
<clipPath id="clip1_6_4810">
<rect width="24.3902" height="24.3902" fill="white" transform="translate(178.305 22.8291)"/>
</clipPath>
<clipPath id="clip2_6_4810">
<rect width="24.3902" height="22.6634" fill="white" transform="translate(178.305 23.8047)"/>
</clipPath>
<clipPath id="clip3_6_4810">
<rect width="24.3887" height="22.6634" fill="white" transform="translate(178.306 23.8047)"/>
</clipPath>
</defs>
</svg>
